<?xml version="1.0" standalone="no"?>
<!DOCTYPE svg PUBLIC "-//W3C//DTD SVG 1.1//EN" "http://www.w3.org/Graphics/SVG/1.1/DTD/svg11.dtd" >
<svg xmlns="http://www.w3.org/2000/svg">
<metadata>
This is a custom SVG webfont generated by Font Squirrel.
Copyright   :  2000 Adobe Systems Incorporated All Rights Reserved
Designer    : Carol Twombly
Foundry URL : httpwwwadobecomtype
</metadata>
<defs>
<font id="AdobeCaslonProSemiboldItalic" horiz-adv-x="1024" >
<font-face units-per-em="2048" ascent="1505" descent="-543" />
<missing-glyph horiz-adv-x="409" />
<glyph unicode=" "  horiz-adv-x="409" />
<glyph unicode="&#x09;" horiz-adv-x="409" />
<glyph unicode="&#xa0;" horiz-adv-x="409" />
<glyph unicode="!" horiz-adv-x="548" d="M61 102q0 53 33 90t86 37q55 0 85 -41t30 -77q0 -53 -34 -92t-93 -39q-12 0 -30.5 6t-35 21.5t-29 37.5t-12.5 57zM242 430q6 23 21.5 93.5t33.5 164.5t38.5 197.5t38 191.5t30 149.5t14.5 67.5q25 109 135 109q59 0 87 -28.5t28 -59.5q0 -41 -33 -107q-2 -6 -27.5 -66.5 t-62.5 -148.5t-80 -189.5t-81 -189.5t-64.5 -147t-28.5 -66q-6 -16 -33 -16q-28 0 -16 45z" />
<glyph unicode="&#x22;" horiz-adv-x="475" d="M225 936q8 31 18.5 90t23 121.5t22.5 117t18 76.5q12 37 41 49.5t66 12.5q35 0 54 -17.5t19 -52.5q0 -12 -23.5 -60t-57 -110.5t-68.5 -129t-55 -113.5zM500 936q8 31 18 90t22.5 121.5t22.5 117t19 76.5q12 37 40.5 49.5t65.5 12.5q35 0 54.5 -17.5t19.5 -52.5 q0 -12 -24.5 -61t-58.5 -112.5t-67.5 -129t-54.5 -110.5z" />
<glyph unicode="#" d="M90 403l29 95q6 20 12 22t16 2h177l86 266h-181q-31 0 -24 21l28 98q6 20 29 21h184l123 372q6 20 25 21h94q10 0 11 -7t-3 -18l-118 -368h176l118 364q10 29 25 29h94q6 0 9.5 -8t-1.5 -21l-118 -364h180q23 0 16 -21l-33 -98q-4 -12 -10 -16.5t-22 -4.5h-168l-86 -266 h192q12 0 18.5 -4t2.5 -20l-33 -99q-6 -16 -37 -16h-188l-131 -393q-6 -20 -17 -21h-106q-10 0 -4 21l131 393h-176l-131 -385q-4 -16 -7.5 -22.5t-13.5 -6.5h-102q-14 0 -4 25l131 389h-177q-22 0 -16 20zM451 522h180l86 266h-180z" />
<glyph unicode="$" d="M90 139l131 365q6 18 17 12l24 -8q6 -4 11.5 -7t0.5 -14q-29 -111 1 -185.5t85 -117.5l119 459q-72 66 -118 137.5t-46 173.5q0 41 18.5 89.5t57.5 91.5t97.5 73.5t138.5 36.5l41 164q0 6 3 11t13 1l41 -4q8 -10 4 -24l-37 -144q25 -4 48.5 -7t41.5 -9l37 164q4 6 7 11 t14 1l32 -4q14 -4 9 -25l-41 -172q31 -10 48 -23.5t34 -13.5q6 0 14 10.5t14 39.5q6 12 17 12l20 -4q8 0 8 -17l-53 -319q0 -16 -12 -16l-29 4q-12 0 -12 20q0 49 -14.5 109.5t-55.5 103.5l-102 -426q61 -53 106 -121.5t45 -173.5q0 -74 -23.5 -132t-65.5 -100t-98 -66.5 t-120 -33.5l-45 -196q-6 -29 -20 -21l-37 13q-14 0 -8 28l45 168q-29 4 -50.5 6t-44.5 7l-53 -209q-6 -12 -16 -13l-41 13q-10 0 -4 24l53 209q-37 16 -62.5 33.5t-44.5 36.5q-16 10 -25 17t-20 7q-12 0 -23 -12t-34 -53q-12 -12 -20 -8l-17 8q-10 4 -4 20zM418 147 q25 -12 49.5 -16t40.5 -8l102 397q-4 2 -16 14.5t-25.5 24.5t-25 22.5t-11.5 12.5h-8zM471 1004q0 -49 14.5 -85t42.5 -67l82 324q-68 -16 -103.5 -66.5t-35.5 -105.5zM578 135q61 16 104 62.5t43 117.5q0 49 -16.5 83t-44.5 65zM582 803q2 -4 14 -13.5t24.5 -21.5 t23.5 -22.5t15 -12.5l107 422q-37 25 -90 25z" />
<glyph unicode="%" horiz-adv-x="1511" d="M152 752q0 90 30.5 190t87 184t136 139.5t180.5 55.5q111 0 160 -62.5t49 -154.5q0 -102 -31 -207.5t-87 -190.5t-135 -138.5t-173 -53.5q-117 0 -167 68t-50 170zM283 690q0 -53 23.5 -84t53.5 -31q37 0 75 33t72 84t62.5 116.5t49 129t33 121t12.5 94.5q0 96 -82 102 q-37 0 -73 -31.5t-68.5 -81.5t-61.5 -112.5t-50.5 -125t-33.5 -120t-12 -94.5zM360 27q0 6 9 20l831 1266q8 8 17 8q8 0 12 -4l53 -33q8 -8 8 -12t-8 -21l-831 -1265q-10 -16 -21 -17q-6 0 -16 8l-45 33q-9 9 -9 17zM848 227q0 90 30.5 190.5t88 183.5t137.5 137.5t178 54.5 q115 0 164 -62.5t49 -159.5q0 -102 -30.5 -205.5t-87 -188.5t-135.5 -138t-173 -53q-117 0 -169 68.5t-52 172.5zM983 162q0 -53 23.5 -84t54.5 -31q37 0 75 33t71.5 84t62 115.5t49 128t33 121t12.5 92.5q0 102 -82 102q-37 0 -72.5 -30.5t-68.5 -81t-61.5 -113t-50 -125 t-34 -117.5t-12.5 -94z" />
<glyph unicode="&#x26;" horiz-adv-x="1728" d="M188 483q0 92 27 165t63.5 125t78.5 85t73 47q-41 53 -63.5 113.5t-22.5 128.5q0 57 22.5 110.5t64.5 94.5t101.5 65.5t135.5 24.5q92 0 154.5 -48t62.5 -145q0 -35 -12.5 -60.5t-29 -43t-34.5 -26.5t-31 -9q-6 0 -7 10t3 27q4 29 -5 53.5t-27.5 43t-44 28.5t-54.5 10 q-35 0 -67.5 -14.5t-58 -41t-42 -65.5t-16.5 -88q0 -35 11 -73.5t34 -73.5l41 15q25 9 61 9q37 0 72 -16t35 -53q0 -43 -20.5 -71t-61.5 -28q-31 0 -72 16.5t-63 32.5q-10 16 -20.5 18.5t-29.5 -9.5q-47 -35 -78.5 -108t-31.5 -159q0 -94 39 -171.5t113.5 -133t184 -86 t249.5 -30.5q139 0 245.5 35.5t178 93t108.5 130t37 146.5q0 51 -19.5 102.5t-56.5 91.5t-91 64.5t-124 24.5q-66 0 -105.5 -21.5t-61 -52.5t-30 -61.5t-8.5 -49.5q0 -27 8.5 -49t18.5 -38.5t21.5 -26t17.5 -9.5q10 0 17 8.5t3 20.5q-2 12 3.5 28.5t15.5 32t27.5 26.5 t39.5 11q59 0 87 -27.5t28 -74.5q0 -41 -30.5 -80t-112.5 -39q-37 0 -78 15.5t-75 47t-55.5 79t-21.5 112.5q0 57 23.5 110.5t67.5 95.5t107.5 67.5t145.5 25.5q66 0 126.5 -8t127.5 -8q127 0 201 47t74 133q0 25 -10.5 49.5t-26.5 43t-36.5 30.5t-41.5 12q-23 0 -26 -14 t1 -31q4 -12 1 -29.5t-14 -34t-30.5 -27.5t-46.5 -11q-49 0 -73.5 27.5t-24.5 62.5q0 31 14.5 55.5t37 41t51 25.5t57.5 9q61 0 108 -18.5t80 -49t49.5 -69.5t16.5 -80q0 -154 -87 -236t-233 -104q-37 -4 -41 -17.5t13 -31.5q18 -31 39.5 -90.5t21.5 -155.5 q0 -131 -54 -234.5t-146.5 -175t-216.5 -109.5t-263 -38q-213 0 -351 53t-218 133t-112 172t-32 170z" />
<glyph unicode="'" horiz-adv-x="290" d="M266 936q8 31 18.5 90t21.5 121.5t21.5 117t16.5 76.5q16 37 45 49.5t66 12.5q31 0 50 -17.5t19 -52.5q0 -12 -23.5 -60t-55 -110.5t-66.5 -129t-55 -113.5z" />
<glyph unicode="(" horiz-adv-x="655" d="M158 143q0 215 56 413t158.5 373t245 327.5t314.5 279.5q12 10 20.5 6t20.5 -22q10 -16 8 -24.5t-20 -25.5q-131 -113 -247 -263t-203 -330.5t-138 -383t-51 -419.5q0 -92 3 -161t7 -124t10 -102t12 -97q4 -12 -3 -17t-25 -11t-25.5 -4t-11.5 12q-23 41 -46.5 106.5 t-42 142.5t-30.5 160.5t-12 163.5z" />
<glyph unicode=")" horiz-adv-x="655" d="M-221 -397.5q2 8.5 20 24.5q131 113 247 263.5t203 330.5t138 383t51 420q0 92 -3 160.5t-7 124t-10 102.5t-12 96q-4 12 3 17.5t25 11.5t25.5 4t11.5 -12q23 -41 46.5 -106.5t42 -142.5t30.5 -161t12 -164q0 -215 -56.5 -412.5t-158.5 -372.5t-244.5 -328.5 t-314.5 -278.5q-12 -10 -20.5 -6t-20.5 22q-10 16 -8 24.5z" />
<glyph unicode="*" horiz-adv-x="614" d="M175 989.5q15 22.5 34 32.5q12 6 46 14t73 17.5t75 17.5l56 12v9q-20 2 -50 9t-61 13t-56.5 12.5t-37.5 10.5q-23 6 -36 26.5t-1 55.5q10 35 39 49t51 8q12 -4 31.5 -23.5t41 -45t45.5 -53.5t44 -48l6 2q-4 18 -9 52t-10 69t-9.5 65.5t-4.5 42.5q0 23 23.5 44.5 t66.5 21.5q37 0 53.5 -13.5t16.5 -35.5q0 -16 -12 -46t-29.5 -66t-36 -70.5t-28.5 -59.5l4 -6q20 14 49 42t58.5 55.5t57 48t44.5 24.5q29 4 46 -12.5t23 -36.5q10 -29 -1 -55.5t-60 -38.5q-18 -4 -45 -9.5t-56.5 -11.5t-59.5 -11t-54 -11v-7q16 -4 48 -10t65.5 -13 t63.5 -15.5t42 -14.5q18 -10 24.5 -30.5t-4.5 -43.5q-16 -31 -44.5 -48t-57.5 -1t-66.5 61.5t-80.5 98.5l-7 -2q0 -16 5.5 -50t10.5 -70t8 -66.5t3 -40.5q-2 -23 -20.5 -44.5t-65.5 -21.5q-41 0 -55.5 15.5t-10.5 37.5q2 14 15.5 45t30.5 66l32 70q16 35 27 57l-6 2 q-25 -20 -52.5 -46t-54 -50.5t-52.5 -46t-46 -31.5q-18 -10 -42 2t-36 39q-16 35 -1 57.5z" />
<glyph unicode="+" d="M139 430v131h328v344h143v-344h328v-131h-328v-352h-143v352h-328z" />
<glyph unicode="," horiz-adv-x="516" d="M16 -266q-4 18 2.5 23t18.5 10q20 6 51 21t58.5 40t47 55.5t19.5 67.5q0 41 -12.5 61.5t-40.5 48.5q-4 4 -13.5 12.5t-20.5 20.5t-19.5 28.5t-8.5 37.5q0 43 26 78.5t73 35.5t79.5 -23.5t53 -58t30 -73.5t9.5 -70q0 -63 -21.5 -112.5t-54.5 -87t-73 -63.5t-75.5 -42 t-64.5 -23.5t-39 -7.5t-15.5 1.5t-9.5 19.5z" />
<glyph unicode="-" horiz-adv-x="851" d="M127 455v94q0 20 16 20h662q18 0 18 -16v-94q0 -20 -20 -21h-660q-16 1 -16 17z" />
<glyph unicode="." horiz-adv-x="516" d="M90 111q0 43 31 85t96 42q39 0 65.5 -13.5t43 -34t23.5 -43t7 -41.5q0 -49 -36.5 -87.5t-98.5 -38.5q-59 0 -95 36t-36 95z" />
<glyph unicode="/" horiz-adv-x="675" d="M-104 20q-12 10 4 35l974 1336q12 14 31 8l64 -39q14 -10 -4 -35l-977 -1335q-18 -27 -33 -13z" />
<glyph unicode="0" d="M102 375q0 100 21.5 209.5t61.5 215t98.5 200t130 166t157.5 113.5t183 42q78 0 135 -26.5t94 -76t55.5 -116t18.5 -146.5q0 -170 -48 -346t-133 -318t-203 -232.5t-255 -90.5q-84 0 -143.5 31t-97.5 86t-56.5 129t-18.5 160zM283 260q0 -96 32.5 -148.5t94.5 -52.5 q59 0 118.5 55.5t111.5 144.5t96 199.5t76 220t50.5 209t18.5 163.5q0 170 -131 176q-59 0 -115.5 -53.5t-109 -138.5t-96.5 -191.5t-77 -214t-51 -205.5t-18 -164z" />
<glyph unicode="1" d="M78 10l12 49q0 16 25 17h78q53 0 94 13t65 79q8 20 21.5 62t29 88.5t29.5 90.5t23 70l120 365q29 92 40.5 131t11.5 55q0 12 -7.5 22.5t-25.5 10.5q-12 0 -34.5 -8t-63.5 -21l-119 -45q-14 -4 -21 8l-20 37q-6 14 12 21l483 237q29 12 45.5 20.5t32.5 8.5q27 0 27 -21 q0 -27 -12 -57q-2 -6 -20.5 -57t-43 -123t-51.5 -149.5t-47 -139.5l-107 -328q-6 -23 -18 -63.5t-25.5 -83.5t-26 -79t-16.5 -48q-18 -49 -2.5 -72.5t76.5 -23.5h111q18 0 12 -21l-8 -45q-4 -10 -6 -13t-15 -3q-6 0 -52 1t-101.5 2t-105.5 2t-64 1q-20 0 -71.5 -1t-107 -2 t-99.5 -2t-50 -1q-16 0 -8 16z" />
<glyph unicode="2" d="M-41 20q0 23 29 46q70 51 154.5 115.5t170.5 137t168 151.5t145.5 161t103.5 162.5t40 158.5q0 31 -8 68t-28.5 69.5t-56.5 54t-91 21.5q-53 0 -96.5 -22.5t-77 -53t-58 -64.5t-39.5 -56q-16 -29 -24 -25l-41 21q-4 4 0 24q16 43 54 100.5t93.5 108.5t128 87t162.5 36 q145 0 226 -88t81 -225q0 -88 -41 -174t-107.5 -167t-148.5 -155t-163.5 -136.5t-155.5 -112.5t-121 -83v-16h332q88 0 147.5 46t102.5 105q12 23 24 17l29 -17q6 -10 -4 -24q-16 -29 -40 -75t-45.5 -93t-37.5 -88t-21 -55q-6 -20 -20 -21q-16 0 -23.5 6t-17.5 19 q-12 12 -44 14t-75 2h-438q-27 0 -48.5 -1t-39.5 -3t-32 -2h-23q-16 0 -20.5 6t-4.5 20z" />
<glyph unicode="3" d="M0 199q0 31 19.5 64.5t62.5 33.5q33 0 53.5 -14.5t29.5 -34t11 -42t0 -36.5q-4 -20 6.5 -43t29.5 -41t48 -30.5t64 -12.5q70 0 132 29.5t109 83t75 127t28 159.5q0 78 -42 145.5t-122 92.5q-29 10 -37 17.5t-8 23.5q0 27 41 33q57 6 110.5 28.5t94 59.5t65.5 85t25 103 q0 18 -7.5 44t-26 48.5t-50 39t-80.5 16.5q-47 0 -88 -16.5t-75 -40t-57.5 -49t-33.5 -42.5q-4 -10 -11.5 -14t-13.5 2l-28 20q-14 8 4 33q18 31 52 74t84 82t115.5 66.5t149.5 27.5q72 0 123 -20.5t83 -51t46 -67.5t14 -72q0 -61 -24.5 -115.5t-64.5 -100.5t-91 -84 t-106 -65q90 -37 135 -110.5t45 -165.5q0 -109 -49 -200t-129 -157.5t-181.5 -104.5t-205.5 -38q-82 0 -142.5 20.5t-100.5 54.5t-60.5 74t-20.5 81z" />
<glyph unicode="4" d="M16 393q0 16 13.5 32.5t36.5 33.5l892 807q25 23 49.5 39t49.5 16q18 0 22 -20.5t-6 -51.5l-262 -749h184q10 0 13.5 -7.5t-0.5 -13.5l-37 -94q-10 -25 -35 -25h-174l-121 -337q-4 -10 -12 -16.5t-27 -6.5h-156q-20 0 -10 29l125 331h-500q-23 0 -34 10.5t-11 22.5z M244 510q2 -10 18 -10h348l176 467q12 29 1 34t-33 -14l-496 -455q-16 -12 -14 -22z" />
<glyph unicode="5" d="M37 80q0 31 14.5 50.5t42.5 19.5q53 0 103 -50q16 -16 49 -26.5t82 -10.5q76 0 138 32t108.5 81t72 109.5t25.5 120.5q0 86 -32 142t-91 91q-31 18 -89.5 33.5t-111.5 15.5q-35 0 -49 1t-20 7q-14 10 -9 37l193 541q6 12 13 14t20 2h405q53 0 78 23.5t49 58.5 q6 10 13.5 8t19.5 -8q18 -12 22 -17t-2 -16l-118 -209q-6 -12 -19.5 -14t-42.5 -2h-401l-90 -246h8l51 -5q31 -3 67.5 -9t74.5 -17.5t73 -25.5q115 -59 156 -147.5t41 -184.5q-2 -76 -41 -165t-115 -165.5t-188.5 -128t-262.5 -51.5q-39 0 -80.5 6.5t-76.5 18.5t-57.5 33.5 t-22.5 52.5z" />
<glyph unicode="6" d="M115 336q0 168 74.5 323.5t189.5 284.5t254 222.5t268 140.5q35 14 53 14q12 0 20.5 -10.5t8.5 -26.5q0 -31 -25 -37q-96 -45 -173.5 -100t-140 -117.5t-113 -134.5t-93.5 -150l8 -8q49 31 104.5 46.5t129.5 15.5q61 0 112.5 -21.5t88.5 -59.5t57 -90.5t20 -113.5 q0 -109 -39.5 -207t-107.5 -173t-159 -120t-193 -45q-86 0 -150.5 28t-107.5 77t-64.5 115.5t-21.5 146.5zM311 268q0 -41 6.5 -79.5t23.5 -70.5t46 -51.5t76 -19.5q70 0 123 51.5t87 126t50 158.5t14 149q0 68 -39 122.5t-112 54.5q-55 0 -103.5 -22.5t-72.5 -59.5 q-29 -43 -47.5 -90.5t-29.5 -94.5t-15.5 -92t-6.5 -82z" />
<glyph unicode="7" d="M222 976q-3 5 3 15l176 348q10 18 15.5 21.5t21.5 -0.5q16 -6 18.5 -11.5t-1.5 -17.5q-4 -25 15 -33t67 -8h544q29 0 29 -20q0 -10 -5 -17.5t-11 -19.5q-4 -6 -30 -48t-59.5 -99.5t-68.5 -121t-59 -112.5q-23 -43 -56 -105.5t-70.5 -134t-76.5 -147.5t-73 -144.5 t-60.5 -123t-38.5 -84.5q-27 -61 -57.5 -102.5t-84.5 -41.5q-37 0 -59 22.5t-22 59.5q0 33 16 67t33 58q10 14 42.5 61.5t75.5 110t91.5 134t89.5 136.5q18 29 46.5 74t59.5 96.5t61.5 103.5t57.5 98t47.5 79t26.5 45h-402q-53 0 -88 -10t-61.5 -29.5t-48 -48.5t-47.5 -63 q-6 -10 -16.5 -10.5t-20.5 5.5q-17 13 -20 18z" />
<glyph unicode="8" d="M98 246q0 82 40 144.5t97.5 108.5t120 77.5t107.5 54.5q-25 29 -56.5 64.5t-59.5 75.5t-46 84t-18 93q0 61 27.5 127t85 121t144.5 90t205 35q76 0 134.5 -20.5t98.5 -55.5t61.5 -81t21.5 -95q0 -80 -42 -145.5t-100.5 -114.5t-119 -84t-99.5 -53q33 -33 65 -68 t56.5 -72.5t40 -79.5t15.5 -90q0 -78 -32 -149.5t-90.5 -125.5t-139 -86t-181.5 -32q-106 0 -171.5 32t-102.5 76t-49.5 91t-12.5 78zM274 244q0 -47 14.5 -86t39 -67t56.5 -42t67 -14q68 0 111.5 27.5t68 65.5t35 78t10.5 64q0 53 -14.5 96.5t-38 80t-53 69.5t-62.5 66 q-41 -20 -82 -47t-75 -67t-55.5 -95t-21.5 -129zM475 1024q0 -80 49 -149.5t127 -149.5q98 51 168 128t70 198q0 29 -10.5 63.5t-33 64t-59 49t-90.5 19.5q-98 0 -159.5 -61.5t-61.5 -161.5z" />
<glyph unicode="9" d="M119 0q0 12 5 22.5t15 14.5q113 53 196 112.5t146.5 121t109.5 125t85 128.5l-8 8q-18 -12 -35 -21t-39 -15q-43 -12 -102 -13q-90 0 -146.5 33t-90.5 81t-46 100.5t-12 93.5q0 88 33.5 182t98 171t157 127t206.5 50q172 0 252 -96.5t80 -253.5q0 -117 -35 -228.5 t-96.5 -213t-142 -189.5t-173 -159.5t-191.5 -123t-193 -77.5l-22.5 -7.5t-23.5 -3.5q-12 0 -20 10.5t-8 20.5zM410 770q0 -35 7 -70.5t23.5 -65.5t43 -49.5t65.5 -19.5q117 0 184 111q23 39 40.5 84t28.5 92t16 93t5 87q0 31 -5 68t-20.5 68.5t-42 53t-71.5 21.5 q-72 0 -124 -53t-86 -128t-49 -156t-15 -136z" />
<glyph unicode=":" horiz-adv-x="516" d="M45 106q0 20 8 43t23.5 41.5t39 30.5t56.5 12q39 0 64.5 -14t41 -34.5t22.5 -43t7 -39.5q0 -47 -37 -84.5t-98 -37.5q-53 0 -90 35.5t-37 90.5zM254 729q0 20 8 42t23.5 40t39 29.5t56.5 11.5q39 0 64.5 -13.5t41 -33t22.5 -42t7 -38.5q0 -49 -37 -88t-98 -39 q-53 0 -90 36t-37 95z" />
<glyph unicode=";" horiz-adv-x="516" d="M-8 -266q-4 18 2 23t18 10q20 6 51 21t59 40t47 55.5t19 67.5q0 41 -12 61.5t-41 48.5q-4 4 -13 12.5t-20.5 20.5t-19.5 28.5t-8 37.5q0 43 25.5 78.5t72.5 35.5q45 0 77 -24.5t53.5 -60t31.5 -74.5t10 -66q0 -96 -44 -159.5t-101.5 -103.5t-110.5 -56.5t-72 -16.5 q-10 0 -15 1.5t-9 19.5zM225 725q0 20 8.5 43t24.5 41t40 30.5t54 12.5q37 0 62.5 -14.5t42 -34t23.5 -42t7 -36.5q0 -49 -36.5 -88t-98.5 -39q-53 0 -90 36t-37 91z" />
<glyph unicode="&#x3c;" d="M193 455v77l634 373v-147l-450 -254v-8l450 -263v-155z" />
<glyph unicode="=" d="M147 287v131h803v-131h-803zM147 602v131h803v-131h-803z" />
<glyph unicode="&#x3e;" d="M250 78v147l450 254v13l-450 262v151l635 -377v-77z" />
<glyph unicode="?" horiz-adv-x="872" d="M238 94q0 43 29.5 83t84.5 40t87 -35t32 -88q0 -16 -7 -36.5t-22.5 -38t-37 -28.5t-48.5 -11q-41 0 -79.5 29.5t-38.5 84.5zM250 522q0 68 36 123t85 98t103 74t91 51q53 31 99.5 58.5t80 60.5t52 75t18.5 99q0 20 -9 49t-30.5 54.5t-57.5 43t-87 17.5q-47 0 -90 -13.5 t-75 -37t-50.5 -57t-18.5 -72.5q0 -49 20.5 -67.5t37.5 -18.5q27 0 32 16q-4 12 -4 21v20q0 35 26 69t81 34q43 0 64.5 -28t21.5 -63q0 -37 -16.5 -65.5t-42 -49t-57.5 -30.5t-64 -10q-33 0 -65 9t-57.5 28.5t-42 51.5t-16.5 79q0 43 21.5 89t64.5 85t104.5 63.5t141.5 24.5 q102 0 166 -32t98.5 -76t47 -89t12.5 -71q0 -100 -33 -176t-88 -133.5t-126 -98.5t-146 -68q-109 -43 -173.5 -80.5t-64.5 -89.5q0 -39 33 -61t98 -22q33 0 60.5 8t50 20t38 24.5t23.5 20.5q12 6 16 -4l21 -20q4 -4 4 -9v-8q-10 -14 -31.5 -35.5t-51.5 -42t-66.5 -35 t-75.5 -14.5q-41 0 -79 12.5t-66.5 39t-46 65.5t-17.5 94z" />
<glyph unicode="@" horiz-adv-x="1585" d="M180 510q0 174 75 335t201 284.5t287.5 198.5t337.5 75q137 0 238.5 -37t169 -104.5t100.5 -164t33 -212.5q0 -96 -38 -192.5t-109.5 -175.5t-177 -128t-240.5 -49q-47 0 -70.5 20.5t-23.5 45.5q0 23 13 72.5t44 127.5l-12 4q-23 -29 -62 -75t-87 -89t-102.5 -74.5 t-109.5 -31.5q-49 0 -84 31.5t-35 103.5q0 59 23.5 128t64.5 137.5t94.5 131t112 111.5t117.5 78t113 29q55 0 80.5 -20.5t42.5 -45.5l20 29q10 12 15.5 16t17.5 4h94q12 0 14 -7t-2 -13q-10 -18 -30.5 -65.5t-42 -99.5t-41 -98.5t-25.5 -64.5q-8 -23 -20.5 -58.5 t-24.5 -74.5t-20.5 -76t-8.5 -57q0 -18 15.5 -27.5t38.5 -9.5q33 0 85 28.5t100 88t83 150.5t35 214q0 211 -112 316.5t-310 105.5q-147 0 -276.5 -70.5t-224.5 -182t-149.5 -252t-54.5 -277.5q0 -117 38 -208t103.5 -154.5t154.5 -96.5t192 -33q80 0 168 11.5t168 58.5 l15 6q5 2 9 2l21 -45q0 -10 -17 -21q-29 -18 -71.5 -35.5t-95 -29.5t-112 -20.5t-118.5 -8.5q-152 0 -268.5 41t-196.5 113t-121 171t-41 216zM705 516q0 -66 53 -65q27 0 74 42t94 97t86 109.5t49 78.5q29 53 37 90t8 62q0 37 -16.5 65.5t-53.5 28.5t-75.5 -27.5 t-75.5 -71.5t-70 -100.5t-57.5 -113t-38.5 -107.5t-14 -88z" />
<glyph unicode="A" horiz-adv-x="1331" d="M-156 14l9 45q2 16 16 17h29q55 0 122.5 39t120.5 104l957 1133q10 12 19 16t34 4q23 0 56.5 3t74.5 11q29 4 49.5 10.5t32.5 6.5q22 0 22 -16q0 -4 -2 -9l-303 -1132q-6 -25 -13 -58.5t-7 -54.5q0 -25 21.5 -41t52.5 -16h51q18 0 14 -17l-8 -49q-4 -16 -27 -16 q-16 0 -79.5 3t-184.5 3q-59 0 -102 -1t-74 -2t-51.5 -2t-34.5 -1q-16 0 -12 22l8 43q2 16 18 17h35q27 0 50.5 4t42 20.5t34.5 49t33 88.5l106 376h-352l-237 -303q-43 -59 -75 -107t-32 -75q0 -53 78 -53h61q16 0 13 -17l-9 -47q-4 -18 -20 -18t-83 3t-196 3 q-111 0 -167 -3t-74 -3q-19 0 -17 20zM659 688h320l151 524q2 6 2 11q0 13 -13 15q-3 1 -7 1q-13 0 -22 -10z" />
<glyph unicode="B" horiz-adv-x="1282" d="M12 14l8 45q0 16 17 17h74q53 0 79.5 31.5t42.5 89.5l259 970q12 49 12 76q0 25 -25.5 39t-68.5 14h-58q-18 0 -14 17l8 47q2 10 8 11t19 1h155q41 0 81 1t81 3q41 0 81 1t81 1q18 0 58 -1t88.5 -7t98.5 -20.5t91 -38.5q49 -31 86 -85.5t37 -131.5q0 -94 -38 -162 t-98.5 -115t-137 -74.5t-152.5 -42.5q-12 0 -4 -8q145 -37 224 -120t79 -212q0 -8 -2 -32.5t-13.5 -59.5t-35 -74.5t-64.5 -76.5q-29 -27 -68.5 -49.5t-94 -39t-126 -25.5t-166.5 -9q-74 0 -149.5 3t-149.5 3q-72 0 -143.5 -3t-142.5 -3q-18 0 -18 12q0 4 1 8zM487 90 q18 -12 58.5 -18t68.5 -6q82 0 143.5 28.5t102.5 74.5t61.5 105.5t20.5 122.5q0 80 -34 131.5t-83 82t-106 43t-105 14.5h-24l-123 -459q-11 -40 -11 -67q0 -34 31 -52zM606 745q25 -6 54.5 -7t48.5 -1q70 0 136 19.5t118.5 60.5t84 105.5t33.5 154.5q0 45 -20.5 87t-55 74 t-81.5 50.5t-101 18.5h-33q-15 0 -32 -4z" />
<glyph unicode="C" horiz-adv-x="1359" d="M176 451q0 215 75 388t216 326q102 111 236.5 174.5t291.5 63.5q74 0 139.5 -17.5t131.5 -60.5q18 -16 44.5 -34.5t49.5 -18.5q41 0 53 53q6 18 21 12l32 -8q14 0 14 -11q0 -4 -1 -9l-111 -426q-6 -16 -20 -13l-41 4q-12 0 -13 21q7 41 7 82q0 34 -5 69q-10 75 -44.5 134 t-95 96t-148.5 37q-109 0 -196 -53.5t-173 -180.5q-59 -84 -97 -172t-61.5 -172t-33 -159.5t-9.5 -135.5q0 -109 31 -180.5t75 -114.5t94 -60t91 -17q57 0 124 12t132.5 50t128 108.5t115.5 185.5q10 16 20 12l41 -12q10 -4 11.5 -7t1.5 -9l-148 -443q-5 -9 -14 -9 q-3 0 -6 1l-41 8q-8 8 -4 17q0 10 2 18t2 18q0 12 -8.5 22.5t-20.5 10.5q-31 0 -86 -24q-16 -8 -47 -17.5t-70 -18.5t-83 -15.5t-83 -6.5q-115 0 -211 35t-164.5 97.5t-106.5 151.5t-38 198z" />
<glyph unicode="D" horiz-adv-x="1630" d="M12 14l11 45q2 16 20 17h51q23 0 46.5 6t45 22.5t39 48t29.5 80.5l240 961q5 18 4 33q0 32 -21 47q-31 23 -67 22h-101q-20 0 -14 19l12 45q2 12 25 12q25 0 69.5 1t98.5 3q66 2 129 2h104q102 0 205.5 -6t199 -26.5t179.5 -57.5t149 -100q94 -98 123 -188.5t29 -184.5 q0 -152 -42 -265.5t-100.5 -195.5t-124 -134t-110.5 -79q-98 -57 -198.5 -87.5t-190.5 -44t-167 -14.5t-128 -1q-23 0 -58.5 1t-74.5 2t-76 2t-57 1q-72 0 -119 -1t-76.5 -2t-44 -2t-20.5 -1q-23 0 -19 20zM471 131q0 -29 36 -42t83 -13q152 0 288 35.5t244 126.5 q49 39 95.5 100t81 137t56 161t21.5 175q0 98 -36.5 189.5t-98.5 150.5q-53 53 -99 79.5t-104 43.5q-72 20 -124 23t-74 3q-25 0 -56.5 -3t-35.5 -19l-265 -1061q-12 -55 -12 -86z" />
<glyph unicode="E" horiz-adv-x="1386" d="M-10 10l8 53q2 12 14 13h66q61 0 94 28.5t49 79.5l314 973q9 29 8 51q0 9 -1 18q-5 28 -21.5 43t-40 21t-46.5 6h-65q-18 0 -13 21l13 45q4 10 8 13t16 3q10 0 43 -1t76 -1q45 -2 92 -3t84 -1h148h195q85 0 147 2q61 2 99 3t54 1q25 0 32 -8t13 -33l62 -274q3 -8 3 -12 t-11 -11l-25 -12q-8 -4 -25 12l-209 242q-16 16 -36 16h-320l-172 -530h176q33 0 64.5 4t61.5 20.5t58.5 51.5t57.5 94q6 12 16 12l37 -12q6 0 9 -4t-1 -8q-12 -29 -29.5 -86.5t-33 -119t-28.5 -118.5t-15 -86q-4 -10 -7 -11t-10 -1h-36q-10 4 -11.5 7t-1.5 13q0 55 -14 89 t-43 51.5t-71 23.5t-97 6h-102l-201 -620h459q53 0 96 21.5t84 56.5q16 14 44 43.5t55.5 62.5t52 62.5t36.5 44.5q8 14 25 4l24 -17q4 -4 6.5 -8t-1.5 -14l-107 -299q-6 -25 -16.5 -31t-28.5 -6q-12 0 -70.5 1t-146.5 3t-194 2h-212h-266q-47 0 -91 -1t-79 -1 q-35 -2 -57.5 -3t-32.5 -1q-14 0 -12 16z" />
<glyph unicode="F" horiz-adv-x="1294" d="M16 14l9 45q2 6 5 11.5t15 5.5h53q94 0 131 121l320 1022q6 19 6 34q0 44 -55 43h-62q-16 0 -12 21l8 41q2 20 29 20q10 0 31.5 -1t52.5 -3t70 -2h88q117 0 203.5 1t150 2t105.5 2t69 3q86 0 132 10.5t65 10.5q12 0 16 -10.5t4 -22.5q2 -20 8 -69.5t12.5 -102.5t12.5 -96 t8 -51q1 -4 1 -7q0 -9 -9 -14l-33 -16q-14 -4 -25 16q-4 10 -24.5 44t-45 71t-48 70.5t-33.5 43.5q-14 12 -20.5 18.5t-13.5 9.5t-19.5 3t-36.5 2q-14 2 -67.5 3t-115 2t-117.5 1h-77l-168 -542l246 4q104 4 151 57t78 156q4 14 25 8l37 -4q12 -6 8 -21l-123 -512 q-2 -14 -21 -12l-36 4q-14 2 -13 21q5 41 6 73q0 56 -16 88q-25 51 -113 56l-254 10l-137 -455q-14 -47 -16 -76.5t6 -46t25.5 -22.5t44.5 -6h61q20 0 16 -17l-12 -49q-6 -16 -24 -16q-10 0 -28 1t-49.5 2t-80.5 2t-121 1t-120 -1t-78.5 -2t-47 -2t-24.5 -1q-15 0 -13 20z " />
<glyph unicode="G" horiz-adv-x="1478" d="M180 526q0 186 69.5 346t188.5 278t274.5 185.5t327.5 67.5q66 0 120 -11.5t96 -27.5t71 -33.5t45 -30.5q18 -16 30.5 -20t18.5 -4q18 0 29.5 15.5t28.5 49.5q0 14 20 9l29 -9q12 0 12 -16l-119 -410q-6 -16 -20 -12h-41q-18 0 -12 25q3 26 3 53q0 40 -8 82 q-12 70 -50 126t-104.5 93t-164.5 37q-119 0 -225.5 -65.5t-186.5 -178t-127 -260t-47 -311.5q0 -119 32 -203t82 -138t110.5 -79t119.5 -25q78 0 128.5 15.5t72.5 31.5q16 10 25.5 30t15.5 44l45 213q4 22 5 39q0 29 -14 41q-22 18 -65 19h-67q-23 0 -19 22l9 43 q2 16 20 16q25 0 84 -3t186 -3q61 0 102.5 1t69 2t44 2t26.5 1q18 0 16 -24l-4 -41q-2 -16 -20 -16h-33q-37 0 -62.5 -14.5t-35.5 -55.5l-70 -313q-4 -18 -13 -26.5t-28 -19.5q-23 -10 -63.5 -25t-96 -30.5t-120 -27t-129.5 -11.5q-143 0 -256 45t-192 122t-121 177t-42 213 z" />
<glyph unicode="H" horiz-adv-x="1609" d="M-41 14l8 45q6 16 21 17h49q49 0 79.5 35.5t57.5 113.5l322 977q7 20 7 37q0 21 -13 34q-22 24 -56 23h-74q-6 0 -11 5.5t-1 15.5l8 45q6 16 21 16q12 0 89 -3t198 -3q98 0 167.5 3t86.5 3q20 0 20 -16l-16 -49q0 -16 -17 -17h-49q-55 0 -81.5 -21.5t-45.5 -80.5 l-143 -440q-4 -6 1 -9.5t11 -3.5h639q14 0 20 13l146 460q6 17 6 31q0 20 -13 32q-22 19 -57 19h-41q-12 0 -12 21l12 49q0 12 21 12q12 0 84 -3t174 -3q92 0 152.5 3t76.5 3q22 0 23 -10q0 -3 -2 -6l-12 -49q0 -16 -17 -17h-49q-41 0 -66.5 -21.5t-44.5 -80.5l-319 -979 q-12 -40 -12 -71q0 -15 3 -28q9 -40 50 -40h74q23 0 16 -21l-12 -45q0 -10 -4 -13t-21 -3q-16 0 -72.5 3t-189.5 3q-129 0 -194.5 -3t-84.5 -3q-16 0 -16 24l8 37q0 20 17 21h57q51 0 86 35.5t70 138.5l131 397q4 10 -1 13.5t-12 3.5h-639q-6 0 -14 -3.5t-10 -9.5l-143 -444 q-14 -41 -15.5 -66.5t8 -40t26.5 -19.5t42 -5h61q16 0 17 -17l-8 -45q-6 -20 -25 -20q-16 0 -81.5 3t-201.5 3q-123 0 -182 -3t-72 -3q-18 0 -17 12q0 4 1 8z" />
<glyph unicode="I" horiz-adv-x="765" d="M-20 14l12 45q0 16 16 17h78q45 0 71.5 8t42 25.5t26 45t20.5 66.5l258 940q11 39 10 66q0 25 -9 40q-19 30 -59 29h-94q-20 0 -20 17l12 53q0 12 25 12q18 0 97 -3t202 -3q133 0 200.5 3t89.5 3q26 0 26 -17q0 -3 -1 -7l-12 -41q0 -16 -21 -17h-53q-66 0 -103.5 -24.5 t-60.5 -112.5l-254 -944q-10 -35 -10 -61q0 -28 12 -45q23 -33 88 -33h74q18 0 12 -21l-4 -41q-4 -12 -6 -16t-18 -4q-18 0 -94 3t-234 3q-129 0 -207 -3t-96 -3q-16 0 -16 20z" />
<glyph unicode="J" horiz-adv-x="778" d="M-242 -258q0 49 28 88t83 39q47 0 70.5 -32t23.5 -62q0 -16 -2 -30.5t-6 -27.5q-4 -8 -4 -24q4 -12 17.5 -18.5t43.5 -6.5q76 0 130.5 101.5t103.5 271.5l317 1114q11 40 11 71q0 16 -3 29q-8 41 -75 41h-66q-23 0 -20 17l12 49q0 16 20 16q12 0 84 -3t211 -3 q121 0 183.5 3t78.5 3q20 0 17 -20l-8 -45q0 -16 -21 -17h-53q-20 0 -38.5 -6t-37 -23.5t-36 -49t-31.5 -82.5l-267 -897q-41 -139 -93 -265.5t-120 -210.5q-61 -74 -143 -123t-197 -49q-61 0 -102 15.5t-65.5 39t-35 49t-10.5 48.5z" />
<glyph unicode="K" horiz-adv-x="1466" d="M12 23l8 36q4 6 8.5 11.5t16.5 5.5h41q43 0 78 28.5t55 88.5l318 976q13 38 13 65q0 19 -7 32q-16 31 -64 30h-49q-27 0 -20 21l16 49q4 6 8 9t17 3q12 0 70.5 -3t178.5 -3q131 0 187.5 3t75.5 3q14 0 10 -20l-6 -45q0 -16 -25 -17h-45q-41 0 -72.5 -24.5t-48.5 -75.5 l-153 -471q55 0 91 8t64 37q82 70 158 137.5t140.5 127t112.5 109.5t77 87q23 29 15.5 49t-48.5 20h-25q-20 0 -16 21l8 41q6 16 21 16q16 0 78.5 -3t170.5 -3q92 0 138.5 3t58.5 3q27 0 23 -20l-7 -41q-6 -20 -20 -21h-61q-43 0 -84 -18t-72 -41q-25 -18 -75 -60 t-113.5 -97.5t-132 -115t-127 -110.5t-100.5 -88t-50 -45q8 -18 36 -62l64 -100q37 -57 79 -120.5t79 -119t65.5 -96.5t38.5 -55q27 -33 67 -62.5t71 -29.5h53q12 0 16 -7.5t4 -13.5l-8 -41q-4 -12 -8 -16t-21 -4q-10 0 -25.5 1t-45 2t-75.5 2t-116 1q-45 0 -87 -1t-76.5 -2 t-60.5 -2t-34 -1q-23 0 -16 20l4 41q0 20 16 21h25q37 0 57.5 17.5t5.5 39.5q-4 8 -24.5 43t-50 85t-62.5 107.5t-63.5 108.5t-53 90t-30.5 51q-25 37 -70 37l-143 -444q-12 -36 -12 -63q0 -23 9 -38q19 -34 60 -34h49q6 0 11.5 -5t1.5 -16l-9 -41q0 -20 -24 -20 q-18 0 -86 3t-185 3q-127 0 -180 -3t-65 -3q-17 0 -17 29z" />
<glyph unicode="L" horiz-adv-x="1327" d="M0 14l8 45q2 16 21 17h37q29 0 52 5t42.5 20.5t36 44t30.5 75.5l293 948q13 39 13 66q0 19 -7 32q-16 30 -75 29h-74q-20 0 -17 21l13 49q2 12 24 12q18 0 87 -3t204 -3q147 0 221 3t90 3q20 0 17 -20l-8 -45q-2 -16 -25 -17h-82q-55 0 -87 -24.5t-58 -108.5l-322 -1032 q-10 -33 4.5 -44t44.5 -11h123h107q53 0 99 1t80 2t50 5q29 4 44 13t36 28q23 18 55.5 55t63 74t53.5 66.5t27 35.5q6 18 20 13l29 -13q14 -5 14 -11q0 -2 -2 -5q-4 -10 -17.5 -55t-28.5 -99.5t-30.5 -105.5t-21.5 -76q-4 -18 -11.5 -27.5t-13.5 -9.5q-10 0 -23.5 4t-29.5 9 q-37 12 -78 12q-16 0 -70.5 1t-134.5 3t-179 3t-206 1h-143q-72 0 -131 -2t-98 -3t-50 -1q-18 0 -17 12q0 4 1 8z" />
<glyph unicode="M" horiz-adv-x="1953" d="M-25 14l9 45q4 10 5 13.5t11 3.5h41q41 0 70.5 18.5t53 52t42 80.5t39.5 105l282 811q10 23 15.5 49.5t5.5 44.5q0 33 -26.5 46t-63.5 13h-74q-16 0 -20.5 5.5t-4.5 15.5l9 41q4 10 8 15t16 5q8 0 29.5 -1t68 -2t120 -2t188.5 -1q25 0 31 -10t10 -35l114 -954 q4 -29 16.5 -32t28.5 19l693 979q10 16 21 24.5t36 8.5q154 0 246 3t110 3q20 0 21 -20l-8 -45q-6 -16 -21 -17h-53q-66 0 -107 -145l-262 -950q-9 -33 -9 -57t9 -39q18 -30 54 -29h61q16 0 16 -17l-8 -45q-4 -12 -8 -16t-16 -4q-18 0 -79 3t-196 3q-127 0 -188.5 -3 t-77.5 -3q-20 0 -21 24l5 37q4 10 8 15.5t16 5.5h45q76 0 108.5 39t51.5 102l283 987q4 23 -8.5 24t-24.5 -16l-836 -1179q-23 -33 -57 -33q-27 0 -33 45l-131 1085q-4 25 -13.5 26t-15.5 -17l-274 -815q-25 -74 -33 -122q-5 -32 -5 -55q0 -11 1 -21q4 -28 17.5 -39 t31.5 -11h66q16 0 16 -21l-8 -41q0 -20 -25 -20q-16 0 -66 3t-143 3q-86 0 -134 -3t-66 -3q-13 0 -13 20z" />
<glyph unicode="N" horiz-adv-x="1564" d="M-31 16l6 43q4 6 7.5 11.5t13.5 5.5h45q72 0 115 57t90 195l250 790q15 48 14 83q0 32 -12 52q-27 43 -92 43h-78q-23 0 -17 25l8 37q4 10 8.5 15t16.5 5q8 0 30.5 -1t62.5 -2t102.5 -2t152.5 -1q29 0 40 -15.5t22 -37.5l454 -946q12 -18 20.5 -13t20.5 41l217 664 q33 100 33 154q0 14 -2 24q-10 53 -63 53h-62q-27 0 -20 21l4 45q4 6 7 11t13 5q18 0 71.5 -3t162.5 -3q80 0 116.5 3t59.5 3q22 0 21 -19q0 -4 -1 -9l-8 -37q0 -16 -16 -17h-53q-37 0 -69 -38.5t-63 -127.5l-376 -1077q-10 -25 -20.5 -37t-20.5 -16q-35 0 -54 41l-516 1053 q-10 16 -19 15t-13 -19l-205 -684q-48 -158 -48 -236q0 -9 1 -17q6 -77 71 -77h78q20 0 21 -21l-9 -43q-4 -10 -6 -14t-18 -4t-78.5 3t-167.5 3q-109 0 -162 -3t-71 -3q-19 -1 -15 22z" />
<glyph unicode="O" horiz-adv-x="1486" d="M190 575q0 160 55.5 309.5t155 264.5t235.5 184.5t300 69.5q123 0 225.5 -41t176 -118t114.5 -187.5t41 -251.5q0 -154 -52 -303.5t-150.5 -268t-238 -191.5t-313.5 -73q-31 0 -74.5 4t-93 17.5t-101.5 40t-99 73.5q-96 92 -138.5 212t-42.5 259zM399 436 q0 -96 23.5 -165.5t64.5 -115.5t96.5 -69t118.5 -23q113 0 215.5 79t180.5 206t125 289t49 328q0 154 -74 247t-213 93q-92 0 -166 -43t-129 -109q-63 -72 -116.5 -161t-92.5 -184t-60.5 -191.5t-21.5 -180.5z" />
<glyph unicode="P" horiz-adv-x="1245" d="M20 14l5 41q4 10 8 15.5t16 5.5h37q74 0 105.5 47t48.5 110l243 922q6 25 10.5 50.5t-1 46t-19.5 32.5t-43 12h-94q-10 0 -11 5.5t-1 15.5l12 43q4 10 8 11t21 1h35q32 0 76 1t97.5 2t101.5 2t87 1h57q82 0 143.5 -3t110.5 -14t88 -29.5t76 -49.5q68 -55 95.5 -114.5 t27.5 -163.5q0 -84 -34 -164t-106.5 -142.5t-185 -101.5t-268.5 -39q-61 0 -118.5 7t-86.5 18l-94 -361q-8 -29 -9 -55.5t5 -47t23.5 -31.5t45.5 -11h78q20 0 17 -21l-4 -43q-2 -18 -25 -18q-18 0 -87 3t-204 3q-127 0 -187.5 -3t-82.5 -3q-17 0 -17 20zM582 659 q25 -16 68.5 -24t90.5 -8q96 0 168 35.5t118 93t68.5 127t22.5 137.5q0 90 -31.5 146.5t-77.5 88t-96.5 43t-85.5 11.5h-37q-19 0 -36 -4z" />
<glyph unicode="Q" horiz-adv-x="1519" d="M170 -266q0 31 53 66.5t126 69.5t147.5 63.5t119.5 46.5v12q-92 16 -169.5 60t-135 117t-89.5 175t-32 236q0 106 30 204.5t73 181.5t91 145.5t85 94.5q45 39 92 74t105.5 62.5t134.5 44t180 16.5q115 0 214 -36t173 -106.5t116 -178t42 -251.5q0 -74 -15.5 -154.5 t-45 -162.5t-72.5 -160t-101 -145q-43 -49 -96 -88t-108.5 -67.5t-110.5 -48t-103 -30.5q-57 -12 -122.5 -31.5t-129 -41t-118.5 -44t-92 -42.5l4 -17q35 6 88 11.5t145 5.5q76 0 135.5 -13.5t103.5 -35t75.5 -49t54.5 -58.5q49 -68 80.5 -97.5t62.5 -29.5q35 0 52.5 21.5 t17.5 44.5q0 18 -12 49q-10 12 -13.5 26.5t-3.5 38.5q0 37 23.5 61.5t66.5 24.5q27 0 44.5 -9t27.5 -24.5t14 -34t4 -34.5q0 -57 -25.5 -101.5t-68.5 -75t-101.5 -46t-123.5 -15.5q-78 0 -131 27t-103 80q-35 33 -71.5 63.5t-83.5 52t-107.5 35t-142.5 13.5 q-47 0 -69.5 -5.5t-32.5 -15.5q-18 -29 -41 -45t-45 -16q-37 0 -51.5 28.5t-14.5 57.5zM395 430q0 -133 40 -206.5t92.5 -109.5t105.5 -44.5t82 -8.5q111 0 216 82t188 213t134.5 294t51.5 323q0 152 -72 244t-219 92q-88 0 -167 -43t-147.5 -115t-125 -164t-96.5 -189.5 t-61.5 -193.5t-21.5 -174z" />
<glyph unicode="R" horiz-adv-x="1452" d="M4 14l8 45q0 16 21 17h53q37 0 63.5 28.5t38.5 67.5l328 1022q9 28 9 49q0 16 -5 27q-12 27 -65 26h-70q-23 0 -16 17l8 43q4 10 8 13t21 3q80 0 157.5 1t142 2t112.5 2t71 1q66 0 149.5 -7t157.5 -35.5t125 -88t51 -166.5q0 -76 -38 -142.5t-103.5 -118.5t-153.5 -87 t-188 -45v-8q49 -12 75.5 -50t43.5 -69q4 -8 28.5 -58t55 -111.5t60.5 -119t42 -77.5q41 -66 82 -92.5t96 -26.5h53q14 0 14 -12q0 -4 -1 -9l-4 -41q-6 -20 -21 -20q-16 0 -48 3t-116 3q-45 0 -74.5 -1t-51 -2t-36 -2t-26.5 -1q-16 0 -25.5 16.5t-31.5 50.5 q-8 12 -25.5 50.5t-42.5 90.5t-51.5 109.5t-50 109.5t-41 90t-23.5 50q-18 43 -43 63.5t-51.5 29t-52.5 8.5h-48l-137 -439q-17 -55 -17 -87q0 -18 5 -28q14 -32 57 -32h86q20 0 13 -17l-4 -49q-6 -16 -25 -16q-18 0 -88 3t-203 3q-109 0 -168 -3t-78 -3q-14 0 -13 11 q-1 4 1 9zM598 733q61 0 142 3t186 46q39 16 75.5 46t64.5 70t44 88t16 104q0 33 -12 70.5t-43 70.5t-81 55.5t-126 22.5h-48q-19 0 -38 -4z" />
<glyph unicode="S" horiz-adv-x="1040" d="M107 59q0 3 4 13l151 446q4 8 21 8l32 -8q12 -6 13 -20q-13 -66 -14 -122q0 -38 7 -71q15 -82 52 -135t87 -80t97 -27q49 0 90 17.5t69.5 47.5t45 69t16.5 82q0 49 -17.5 89t-45 76.5t-62.5 70.5t-67 71q-47 51 -90 100t-75 101.5t-50.5 114t-18.5 140.5q0 55 22.5 119 t68.5 117t118 89t172 36q41 0 80 -11.5t70.5 -26.5t55.5 -31.5t36 -24.5q6 -4 12 -6.5t17 -2.5q10 0 18 19.5t14 50.5q0 8 21 8l24 -4q16 0 17 -12l-74 -389q-6 -12 -16 -12h-37q-20 0 -21 20q2 15 2 36.5t-2 49.5q-4 55 -27.5 108.5t-69.5 93.5t-124 40q-45 0 -79 -18.5 t-57.5 -48.5t-35.5 -64.5t-12 -67.5q0 -53 15 -94t41 -76t59.5 -66.5t68.5 -66.5l76 -76q41 -41 74.5 -92t56 -116.5t22.5 -151.5q0 -98 -32.5 -173t-88 -126.5t-128 -77t-152.5 -25.5q-98 0 -170 48.5t-121 103.5q-16 16 -29.5 15t-23.5 -11q-10 -12 -23.5 -33.5 t-25.5 -44.5q-6 -12 -21 -8l-24 12q-12 5 -12 8z" />
<glyph unicode="T" horiz-adv-x="1355" d="M188 1053q6 10 19.5 39.5t31 66.5t36 78t34 76t25.5 57.5t10 26.5q6 20 21 20q10 0 32 -16q31 -10 112 -19.5t241 -9.5h512q139 0 202.5 10.5t91.5 26.5q6 4 10.5 6t10.5 2q16 0 16 -16q-2 -12 -6 -66.5t-7 -122t-6 -131.5q-2 -38 -2 -64q0 -18 1 -30q0 -16 -17 -18 l-32 -6q-18 0 -29 32q-6 25 -15.5 58.5t-20.5 68.5t-23.5 67t-22.5 52q-16 12 -50 22.5t-75 17.5t-84 10t-78 3h-41l-323 -1044q-19 -61 -19 -99q0 -23 7 -37q18 -38 98 -38h82q16 0 12 -21l-8 -41q-2 -20 -25 -20t-90 3t-213 3q-152 0 -232.5 -3t-97.5 -3q-23 0 -18 20 l4 45q2 16 25 17h53q43 0 72.5 10t52 34.5t40 64.5t36.5 98l315 1011h-53q-141 0 -216 -9t-110 -36q-27 -20 -58.5 -50t-63 -62.5t-59.5 -64.5t-46 -52q-8 -8 -25 -8l-32 20q-7 4 -8 11q0 4 3 10z" />
<glyph unicode="U" horiz-adv-x="1474" d="M231 344q0 33 5.5 71t11.5 73.5t13 66.5t11 47l177 567q12 39 12 66q0 21 -8 34q-18 28 -62 27h-74q-6 0 -11 3.5t-1 13.5l8 49q4 10 8.5 13t20.5 3q18 0 79.5 -3t203.5 -3q123 0 180 3t74 3q20 0 20 -24l-8 -41q-4 -16 -21 -17h-57q-16 0 -32.5 -3t-33 -13t-31 -32.5 t-26.5 -59.5l-168 -549q-4 -16 -14 -51t-20.5 -76t-18.5 -83t-8 -75q0 -94 34.5 -148t81 -82t93.5 -36t69 -8q72 0 144.5 23.5t122.5 66.5q35 31 66.5 68.5t59 87t53 113t50.5 147.5l147 524q19 70 20 111q0 21 -5 34q-14 41 -64 41h-65q-23 0 -19 17l6 45q4 10 8.5 15 t20.5 5q18 0 76.5 -3t157.5 -3q90 0 129 3t55 3q22 0 22 -16q0 -4 -2 -8l-8 -41q0 -16 -20 -17h-33q-49 0 -82 -42t-57 -119l-176 -562q-43 -135 -96.5 -246.5t-130.5 -191.5t-180 -123t-245 -43q-100 0 -185 23.5t-146.5 70t-96.5 117t-35 164.5z" />
<glyph unicode="V" horiz-adv-x="1253" d="M270 1315l13 43q4 12 6 16t14 4q23 0 90.5 -3t200.5 -3q111 0 175.5 3t82.5 3q27 0 20 -18l-6 -47q-2 -16 -22 -17h-58q-98 0 -112 -84l-142 -819q-6 -41 8.5 -45t37.5 25l565 753q55 74 61 122q1 6 1 12q0 37 -38 36h-41q-27 0 -22 21l10 45q0 10 4 13t21 3q23 0 74 -3 t135 -3q90 0 134 3t62 3q27 0 23 -18l-6 -43q-6 -20 -21 -21h-45q-27 0 -58.5 -17t-65.5 -46t-66.5 -66t-63.5 -73l-874 -1098q-10 -12 -26.5 -24.5t-39.5 -12.5q-25 0 -30 21q-2 9 -2 22q0 15 3 35l162 1149q2 12 2 23q0 32 -13 56q-17 32 -67 31h-65q-22 0 -22 13q0 3 1 6 z" />
<glyph unicode="W" horiz-adv-x="1785" d="M281 45l145 1145q3 23 3 41q0 24 -5 39q-8 27 -43 26h-49q-20 0 -19 19l6 47q4 10 8.5 13t16.5 3q16 0 75.5 -3t162.5 -3q96 0 153.5 3t75.5 3q27 0 20 -18l-8 -47q0 -16 -20 -17h-33q-49 0 -73.5 -22.5t-34.5 -85.5l-138 -832q-4 -18 6.5 -22t26.5 14q2 2 23.5 32 t55.5 78t75 107.5t85 123t86 122.5t74.5 107.5t53 78t22.5 31.5q37 55 55.5 110.5t18.5 88.5q0 31 -12.5 50t-40.5 19h-29q-16 0 -16 15l8 55q4 6 8 9t16 3q16 0 60.5 -3t140.5 -3q90 0 134 3t63 3q20 0 18 -16l-6 -49q-4 -10 -8 -13.5t-17 -3.5h-32q-29 0 -44.5 -21.5 t-21.5 -74.5l-102 -852q-4 -29 4 -32t24 16q10 10 33 43t50.5 77t58 94t58.5 96t50.5 83t32.5 53q37 61 71.5 126t62.5 121t47.5 100t25.5 65q10 27 9 51q0 12 -2 23q-7 33 -54 32h-33q-23 0 -16 19l8 43q0 20 20 20q23 0 64 -3t121 -3q92 0 137 3t67 3q23 0 21 -14l-8 -51 q-6 -16 -17 -17h-37q-29 0 -55 -11t-51 -44q-6 -8 -31.5 -50t-63.5 -104.5t-82 -135t-84 -138t-72 -118t-44 -72.5q-14 -25 -44 -70t-68.5 -102.5t-83 -121t-85 -123t-75.5 -107.5t-58 -74q-20 -25 -39.5 -45.5t-44.5 -20.5t-33 19.5t-3 54.5l59 860q4 18 -6 19t-23 -15 q-6 -8 -50 -69.5t-110.5 -152.5t-143.5 -197.5t-147.5 -203t-124.5 -168t-73 -94.5q-18 -23 -35.5 -38t-42.5 -15q-32 0 -31 51q0 15 3 35z" />
<glyph unicode="X" horiz-adv-x="1286" d="M-166 14l6 41q4 20 21 21h45q37 0 66.5 11t55 27.5t49 36t46.5 37.5q8 6 48 43t95.5 88.5t117.5 110.5t118.5 111.5t96.5 91.5t52 51l-168 487q-20 57 -43.5 91t-70.5 34h-54q-20 0 -16 21l8 43q2 18 21 18q23 0 89 -3t169 -3q96 0 147 3t74 3q18 0 16 -16l-4 -49 q0 -16 -20 -17h-37q-23 0 -35 -9t-16 -23.5t-2 -32t8 -33.5l114 -358q10 8 38 36.5t65 66.5t78 80t76.5 81t61.5 67.5t34 40.5q16 27 5 55.5t-54 28.5h-37q-18 0 -17 17l9 49q2 16 24 16q18 0 75.5 -3t153.5 -3q84 0 129.5 3t63.5 3q23 0 20 -18l-6 -47q-2 -16 -18 -17h-37 q-37 0 -78 -21.5t-82 -49.5q-6 -4 -40.5 -38t-86 -82t-109 -103.5t-108.5 -105.5t-89 -86t-46 -44l205 -586q16 -45 51 -74.5t76 -29.5h43q20 0 16 -17l-6 -49q-2 -16 -20 -16q-16 0 -69.5 3t-180.5 3q-98 0 -157.5 -3t-88.5 -3q-18 0 -14 24l6 41q4 16 18 17h35 q43 0 52 24.5t1 51.5q-2 6 -13 40.5t-26.5 83t-33 102.5t-33 103t-27.5 85t-14 44l-36 -36q-28 -28 -66.5 -67.5t-85 -86.5t-89.5 -93t-79.5 -88t-57.5 -71q-19 -28 -19 -53q0 -39 52 -39h37q12 0 12 -19l-4 -47q0 -16 -25 -16q-18 0 -78.5 3t-175.5 3q-74 0 -132 -3t-76 -3 q-23 0 -19 20z" />
<glyph unicode="Y" horiz-adv-x="1191" d="M147 1313l9 49q6 16 20 16q10 0 27.5 -1t45 -2t69.5 -2t104 -1q133 0 192.5 3t77.5 3q20 0 21 -16l-4 -49q-6 -16 -21 -17h-53q-49 0 -56.5 -29.5t3.5 -60.5l163 -551q6 -25 17.5 -25.5t23.5 21.5q6 10 33 50l64 96q37 55 76.5 116.5t75.5 117.5t61.5 98t29.5 59 q11 31 11 53q0 19 -9 31q-18 25 -71 24h-45q-18 0 -13 21l5 45q0 10 4 13t20 3q23 0 79 -3t142 -3q96 0 145.5 3t71.5 3q20 0 21 -20l-8 -41q0 -20 -17 -21h-37q-53 0 -86.5 -23.5t-64.5 -64.5q-8 -12 -42 -58t-79 -110.5t-97 -137.5t-98.5 -137.5t-79 -111.5t-38.5 -59 q-23 -35 -38.5 -72t-31.5 -104l-49 -228q-8 -38 -8 -61q0 -27 10 -36q18 -17 72 -17h45q16 0 16 -17l-8 -45q0 -20 -21 -20q-25 0 -82 3t-180 3q-70 0 -117 -1t-77.5 -2t-49 -2t-26.5 -1q-16 0 -16 20l8 45q0 16 20 17h45q72 0 98.5 29.5t36.5 74.5l66 303q6 23 4 55.5 t-8 51.5l-213 629q-27 78 -127 77h-45q-17 1 -17 17z" />
<glyph unicode="Z" horiz-adv-x="1396" d="M106 20q0 10 5.5 18.5t11.5 14.5l1055 1237h-156q-154 0 -268.5 -4t-171.5 -20q-66 -16 -120 -65.5t-85 -115.5q-6 -16 -21 -8l-32 13q-6 0 -7.5 4t-1.5 8l86 282q4 10 7.5 17.5t13.5 7.5q14 0 33 -12q8 -6 48 -11.5t87 -8.5t92 -4t68 -1h706q27 0 27 -22q0 -23 -13 -35 l-1046 -1233h160q82 0 148.5 1t121.5 5t103.5 11t95.5 20q61 16 120.5 63t112.5 133q6 16 21 9l28 -17q14 0 8 -20l-106 -299q-6 -16 -20 -17q-6 0 -16.5 2t-20.5 7q-14 6 -68.5 10t-119 6t-124 3t-86.5 1h-645q-31 0 -31 20z" />
<glyph unicode="[" horiz-adv-x="647" d="M25 -397l524 1913q4 12 8 16t21 4h405q23 0 16 -16l-16 -50q0 -10 -6 -11t-23 -1h-225q-10 0 -16 -5t-13 -23l-479 -1758q-4 -10 -2 -15t14 -5h254q6 0 11.5 -3t1.5 -14l-13 -45q0 -16 -28 -16h-422q-20 0 -12 29z" />
<glyph unicode="\" horiz-adv-x="655" d="M225 1354q-6 14 13 20l81 25q18 6 25 -13l274 -1372q6 -20 -16 -20l-82 -25q-6 0 -9 4t-7 21z" />
<glyph unicode="]" horiz-adv-x="647" d="M-217 -410l12 50q4 10 9.5 11t15.5 1h233q10 0 15.5 5t9.5 24l483 1757q4 10 2 15t-14 5h-254q-16 0 -16 17l12 45q4 10 8 13t16 3h426q18 0 13 -29l-521 -1913q-4 -12 -8 -16t-20 -4h-406q-22 0 -16 16z" />
<glyph unicode="^" d="M94 541l430 864h66l430 -864h-148l-315 643h-8l-311 -643h-144z" />
<glyph unicode="_" d="M0 -154h1024v-102h-1024v102z" />
<glyph unicode="`" horiz-adv-x="491" d="M231.5 1180.5q-6.5 25.5 1 48t27 38t43.5 15.5q29 0 45.5 -15.5t32.5 -33.5l168 -236q8 -10 2 -16l-19 -18q-6 -6 -20 0l-246 172q-28 20 -34.5 45.5z" />
<glyph unicode="a" horiz-adv-x="956" d="M45 127q0 68 22.5 148.5t62.5 161.5t93 156t115.5 132t131.5 92t136 35q68 0 102.5 -22.5t53.5 -47.5l33 58q10 16 32 16h111q14 0 14 -11q0 -4 -2 -9q-14 -33 -36.5 -92.5t-46 -121t-43 -114.5t-25.5 -74q-4 -14 -17.5 -59t-29 -95.5t-27.5 -93.5t-12 -51q0 -16 6 -20 t18 -4q10 0 29.5 15t39 35.5t36 40t22.5 27.5q12 12 21 7l24 -19q6 -6 0 -24q-8 -16 -36.5 -51.5t-72.5 -71t-99.5 -63t-114.5 -27.5q-66 0 -66 53q0 10 3 26.5t12.5 47t26 82t44.5 130.5l-12 5q-33 -47 -79 -107.5t-101.5 -113t-116.5 -88t-125 -35.5q-20 0 -43 11 t-41 30.5t-30.5 46t-12.5 59.5zM246 184q0 -66 49 -65q29 0 80 48t103 111.5t95 126t58 91.5q23 43 36 89t13 95q0 25 -25.5 57.5t-68.5 32.5q-41 0 -84 -34t-84 -91q-43 -61 -76 -124.5t-54.5 -124t-31.5 -115t-10 -97.5z" />
<glyph unicode="b" horiz-adv-x="942" d="M49 123q0 29 9.5 63.5t19.5 59.5q102 256 201.5 500.5t195.5 480.5q12 33 12 49t-13 24.5t-36 8.5h-61q-23 0 -17 16l13 41q6 16 20 16h312q16 0 19 -10t-3 -24l-332 -742l17 -4q35 49 76.5 94t88.5 80t99.5 55.5t107.5 20.5q74 0 113 -51t39 -115q0 -39 -11.5 -94 t-39 -122t-75.5 -139.5t-120 -146.5q-41 -43 -88 -80.5t-103.5 -65.5t-125 -43t-154.5 -15q-72 0 -118 37.5t-46 105.5zM242 131q0 -70 73 -70q43 0 100.5 36t110.5 93q98 106 150.5 223t52.5 224q0 45 -18.5 68.5t-42.5 23.5q-47 0 -128 -69.5t-159 -184.5 q-29 -41 -53.5 -91t-44 -99t-30.5 -90t-11 -64z" />
<glyph unicode="c" horiz-adv-x="651" d="M76 182q0 106 39 225t104.5 217.5t151.5 163t182 64.5q39 0 66.5 -12.5t44 -30.5t23.5 -37.5t7 -34.5q0 -43 -27.5 -72.5t-58.5 -29.5q-25 0 -42 10t-27 39q-10 23 -24.5 42t-39.5 19q-63 0 -123 -139q-39 -92 -59.5 -184t-20.5 -176q0 -78 21.5 -113t62.5 -35 q25 0 51.5 10.5t49 24.5t41 29.5t28.5 25.5q8 16 17 9l28 -21q6 -4 8.5 -7t-4.5 -13q-12 -16 -40.5 -46t-70.5 -58.5t-94.5 -50t-109.5 -21.5q-31 0 -63.5 12t-59 36.5t-44 62.5t-17.5 91z" />
<glyph unicode="d" horiz-adv-x="983" d="M49 147q0 53 17.5 122t51.5 141.5t83 146.5t112 137q20 20 50 47t69 51.5t86 42t100 17.5q90 0 146 -66l137 445q10 29 -1 53.5t-52 24.5h-62q-12 0 -16 4t0 8l8 49q4 6 9.5 9t23.5 3h299q23 0 29 -12q4 -7 3 -14q0 -4 -1 -8q-6 -14 -24.5 -65.5t-45.5 -128.5t-59.5 -171 t-66.5 -193.5t-65.5 -195.5t-59 -178t-46 -140.5t-24.5 -82.5q-10 -47 -10.5 -69t22.5 -22q12 0 32.5 14.5t41 33t36.5 34.5l21 21q12 12 22 2l27 -23q6 -6 0 -20q-6 -8 -34.5 -38t-74 -62.5t-101.5 -58t-118 -25.5q-70 0 -69 53q0 37 25.5 118.5t56.5 167.5l-21 9 q-37 -59 -84 -122t-100 -113t-109.5 -81.5t-111.5 -31.5q-68 0 -110 50.5t-42 116.5zM258 176q0 -35 15.5 -52.5t37.5 -17.5q23 0 55.5 25t67.5 62.5t71 84t64 87.5q20 29 44 67.5t43.5 78.5t31.5 79t12 69q0 47 -28.5 83t-81.5 36q-37 0 -75 -32.5t-75 -86t-69.5 -120 t-58 -133t-40 -127t-14.5 -103.5z" />
<glyph unicode="e" horiz-adv-x="757" d="M70 197q0 59 16 127.5t48 139.5t79 137.5t111 123.5q61 55 142 91t165 36q72 0 107.5 -38t35.5 -83q0 -78 -49 -146.5t-139 -117.5q-84 -43 -162 -62.5t-137 -23.5q-6 -16 -13.5 -56t-7.5 -96q0 -61 34 -96t77 -35q72 0 129 38t92 85q10 10 16 4l31 -22q12 -6 6 -19 q-16 -29 -50 -63.5t-81 -66t-106.5 -53t-126.5 -21.5q-102 0 -159.5 54t-57.5 163zM303 446q29 0 90.5 18.5t114.5 59.5q35 29 60.5 71t25.5 85q0 29 -13.5 51.5t-48.5 22.5q-39 0 -75.5 -33t-67.5 -80t-54.5 -100.5t-31.5 -94.5z" />
<glyph unicode="f" horiz-adv-x="606" d="M-420 -481q0 41 25.5 69.5t68.5 28.5q49 0 74 -33t29 -73q6 -33 41 -33q72 0 144.5 132t146.5 415l184 692h-176q-18 0 -15 20l11 49q4 10 8 15.5t16 5.5h172q23 61 43.5 117.5t45 112t58 110.5t87.5 113q20 23 53 48t74 46.5t88 35t96 13.5q57 0 98 -12.5t68 -32t39 -44 t12 -46.5q0 -43 -28.5 -71t-65.5 -28q-59 0 -82 27t-29 68q-4 16 -18 37.5t-55 21.5q-59 0 -103.5 -50t-77 -126t-58.5 -167t-48 -173h209q18 0 12 -21l-10 -53q-2 -16 -23 -16h-205q-16 -59 -40.5 -150.5t-54 -195t-61.5 -210t-65 -194.5q-43 -117 -95 -221t-115.5 -183 t-139.5 -125t-166 -46q-80 0 -126 36t-46 91z" />
<glyph unicode="g" horiz-adv-x="921" d="M-135 -354q0 49 19.5 83.5t66.5 71.5q31 27 66.5 48.5t70.5 39t66.5 29.5t54.5 23q-47 35 -62.5 63.5t-15.5 58.5q0 66 176 152l4 8q-72 29 -120 81t-48 159q0 57 27 124.5t78 126t126 98.5t171 40q45 0 79.5 -10.5t59.5 -24.5t39 -29.5t22 -23.5q25 18 72 42.5t101 24.5 q49 0 69.5 -30.5t20.5 -59.5t-18.5 -51t-55.5 -22q-25 0 -41 8t-29 20q-14 20 -37 21q-12 0 -27.5 -7.5t-21.5 -17.5q6 -18 9.5 -48t3.5 -56q0 -37 -17.5 -94.5t-55.5 -114.5t-100.5 -103.5t-150.5 -60.5q-68 -12 -78 -12q-31 -16 -58.5 -43t-27.5 -51q0 -16 14.5 -32 t26.5 -26q29 -20 101.5 -59t181.5 -105q92 -55 123.5 -106t31.5 -98q0 -18 -5 -45t-20.5 -57t-45 -59.5t-76.5 -56.5q-59 -35 -135 -54t-193 -19q-90 0 -171 21.5t-141.5 56t-95 81t-34.5 95.5zM57 -322q0 -53 26 -93t68 -66.5t95 -40t110 -13.5q39 0 79 9.5t74 27t55.5 44 t21.5 63.5q0 68 -39 104.5t-105 75.5q-8 4 -32.5 19.5t-54 33t-56.5 33.5t-39 25q-94 -43 -148.5 -96.5t-54.5 -125.5zM328 393q0 -115 73 -114q47 0 85 38.5t65 97t41 125t14 122.5q0 59 -15.5 91.5t-58.5 32.5q-35 0 -60.5 -19t-51.5 -60q-31 -47 -48.5 -88t-27.5 -78 t-13 -73t-3 -75z" />
<glyph unicode="h" horiz-adv-x="995" d="M25 29l438 1142q27 70 26 97q0 18 -17 29.5t-46 11.5h-61q-6 0 -11.5 5t-1.5 15l8 37q4 10 8.5 13t20.5 3h324q25 0 24 -20q0 -10 -5 -25.5t-15 -38.5l-311 -733l12 -12q37 55 80 108.5t92 96.5t103.5 68.5t113.5 25.5q47 0 79 -16.5t50 -44t26.5 -61.5t8.5 -68 q0 -113 -40 -234t-95 -219q-68 -123 -153 -199t-187 -76q-49 0 -84 31t-35 80q0 37 22.5 69.5t63.5 32.5q37 0 53 -22.5t21 -46.5q4 -23 11 -39t30 -16q16 0 33.5 21.5t32.5 56t29.5 75.5t26.5 82q14 45 28.5 94t26 97.5t17.5 93.5t6 82q0 35 -12 65.5t-49 30.5 q-35 0 -77 -27.5t-85 -67.5t-80 -82t-57 -69q-37 -49 -66.5 -102.5t-48.5 -106.5l-106 -250q-6 -16 -25 -16h-131q-19 0 -19 15q0 6 3 14z" />
<glyph unicode="i" horiz-adv-x="598" d="M86 602q4 4 39 44t87 86t117.5 83t133.5 37q74 0 74 -66q0 -31 -17.5 -86t-44.5 -127l-115 -311q-23 -59 -29.5 -87t-6.5 -44q0 -29 24 -29q14 2 40 20.5t50.5 41t45 43t24.5 26.5q6 14 18 3l23 -23q6 -6 8 -10t-4 -10q-4 -6 -32.5 -40t-78 -73t-117 -69.5t-151.5 -30.5 q-33 0 -46 16t-13 41q0 31 26.5 112.5t87.5 251.5l58 160q16 41 24 71t8 48q0 25 -24 25q-12 0 -33.5 -17.5t-45 -40t-45 -46t-32.5 -36.5q-12 -12 -24 0l-21 19q-9 8 -9 14q0 2 1 4zM395 1210q0 41 34 76t81 35q61 0 93 -32t32 -70q0 -18 -8.5 -39t-24.5 -38.5t-38.5 -29.5 t-49.5 -12q-61 0 -90 35.5t-29 74.5z" />
<glyph unicode="j" horiz-adv-x="561" d="M-389 -344q0 43 25.5 77t68.5 34q53 0 77.5 -34t24.5 -65q4 -31 16.5 -47t29.5 -16q45 0 86 48t78.5 129t74.5 188.5t76 226.5l131 401q8 25 10 43t2 31q0 33 -28 33q-14 0 -36 -13.5t-44.5 -31t-43 -36t-28.5 -26.5t-18 2l-23 23q-6 6 0 16q10 14 46 49t88 72t118 64.5 t133 27.5q29 0 47.5 -18.5t18.5 -42.5q0 -16 -7.5 -49t-18.5 -76t-25.5 -90.5t-28.5 -88.5l-137 -381q-8 -23 -29 -73.5t-52.5 -115t-74.5 -133.5t-97.5 -125t-121 -93t-142.5 -37q-53 0 -89.5 12.5t-60.5 30.5t-35 41t-11 43zM395 1204q0 47 35 88t102 41q66 0 93.5 -34.5 t27.5 -73.5q0 -49 -40 -87t-89 -38q-53 0 -91 31.5t-38 72.5z" />
<glyph unicode="k" horiz-adv-x="933" d="M18 8q-2 3 -1 7q0 6 3 14l467 1194q14 37 -1 61.5t-64 24.5h-53q-18 0 -13 20l17 37q4 10 6 13t14 3h328q16 0 18 -12t-4 -27l-301 -700l12 -4q25 33 63 69.5t85 68.5t98 53.5t105 21.5q53 0 91 -27.5t38 -93.5q0 -59 -45 -116.5t-106.5 -104.5t-124 -82t-97.5 -49v-12 l139 -220q51 -78 88 -77q27 0 49.5 18t38.5 35q4 6 8.5 5t8.5 -5l24 -25q8 -8 -4 -20t-31.5 -29.5t-45 -33t-59.5 -25.5t-73 -10q-80 0 -119.5 27.5t-72.5 94.5l-98 209q-10 23 -32 28t-50 1l-123 -324q-6 -16 -29 -16h-139q-11 0 -15 8zM344 393q17 -3 35 -2q49 0 101 21 q71 29 129.5 74.5t95 99t36.5 94.5q0 23 -14 38t-43 15t-64.5 -19.5t-70.5 -44t-62.5 -50t-35.5 -37.5q-16 -16 -33 -36t-29 -38z" />
<glyph unicode="l" horiz-adv-x="528" d="M41 53q0 12 7 38t17.5 55.5t21.5 59.5t19 52l340 926q16 43 17 74q0 8 -1 15q-5 36 -52 36h-66q-12 0 -8 16l12 47q4 10 17 10h315q19 0 19 -16q0 -6 -3 -14l-413 -1119q-8 -20 -14.5 -41.5t-8.5 -40t2 -29.5t21 -11q14 0 35.5 12t43 29.5t39.5 35.5l29 29q10 6 21 -4 l24 -20q4 -6 5 -10.5t-5 -14.5q-4 -4 -35.5 -35t-82 -64.5t-115 -61t-131.5 -27.5q-29 0 -49.5 21t-20.5 52z" />
<glyph unicode="m" horiz-adv-x="1540" d="M88 25l141 381l37 94q18 47 33.5 86t25 66.5t9.5 39.5q0 29 -27 29q-10 0 -31.5 -15.5t-45 -37t-44 -42t-26.5 -28.5q-12 -12 -25 0l-24 20q-4 6 -6.5 10.5t1.5 10.5q14 18 48 54t80.5 71t100.5 61.5t109 26.5q47 0 67.5 -19.5t20.5 -54.5q0 -23 -18 -71t-40.5 -100 t-44 -99t-28.5 -66l17 -8q33 53 81 126t107.5 137.5t126 109.5t135.5 45q53 0 83 -29.5t30 -66.5q0 -29 -12.5 -73t-29.5 -91t-35.5 -91t-31.5 -71l17 -8q41 63 91 139t108.5 140.5t123 107.5t136.5 43q55 0 83.5 -38t28.5 -73q0 -45 -32.5 -132t-79.5 -220 q-31 -90 -56.5 -151.5t-25.5 -85.5q6 -29 24 -29q16 0 41 20.5t49.5 47t43 50t22.5 29.5q6 12 16 6l29 -18q7 -7 7 -14q0 -5 -3 -15q-4 -4 -34.5 -44t-82 -86t-117 -82.5t-135.5 -36.5q-35 0 -52 19t-17 42q0 35 31.5 128t91.5 241q47 121 67.5 179t20.5 83q0 41 -43 41 q-18 0 -56.5 -32t-85.5 -84t-99 -120.5t-99 -140.5q-10 -16 -33 -53t-45 -90l-64 -177q-6 -16 -30 -16h-129q-27 0 -21 20l129 340q20 53 39 104.5t33 92.5t23.5 70.5t9.5 40.5q2 18 -10.5 29.5t-32.5 11.5q-18 0 -55 -30t-83.5 -78t-95.5 -110.5t-94 -125.5 q-23 -31 -46.5 -74t-47.5 -98l-68 -177q-6 -16 -31 -16h-129q-10 0 -15 6q-3 3 -3 9q0 5 2 10z" />
<glyph unicode="n" horiz-adv-x="1085" d="M89 8q-1 4 -1 8q0 5 2 11l139 379q16 49 34 96t31 86t21.5 66.5t8.5 37.5q0 33 -31 33q-14 0 -34.5 -12.5t-42 -28.5t-41 -34.5t-32.5 -31.5q-6 -14 -18 -2l-23 23q-16 8 -4 20q10 14 40 46t76 65t105.5 57.5t129.5 24.5q45 0 61 -23.5t16 -46.5q0 -16 -10 -49 t-24.5 -71.5t-31 -79.5t-30.5 -74l12 -8q23 35 68 94t104.5 116.5t129 99.5t143.5 42q57 0 87 -36t30 -79q0 -20 -5.5 -49t-18.5 -72t-34.5 -101t-52.5 -138q-41 -102 -61.5 -160.5t-20.5 -81.5q0 -33 25 -33q10 0 28.5 11.5t38 27t35.5 32.5t25 28q14 6 24 -4l21 -17 q6 -3 6 -9t-6 -15q-10 -12 -40 -41t-75 -59.5t-103.5 -53t-121.5 -22.5q-35 0 -52.5 16t-17.5 45t37 125t86 231q12 33 26.5 75t29 82t23.5 69.5t9 40.5q0 49 -47 49q-23 0 -64 -28t-87 -72t-91 -98t-78 -105q-31 -49 -58.5 -98.5t-51.5 -110.5l-66 -189q-4 -6 -8 -9t-20 -3 h-132q-14 0 -17 8z" />
<glyph unicode="o" horiz-adv-x="839" d="M82 260q0 129 43 248t129 213q61 68 134 99.5t157 31.5q45 0 90 -14.5t82 -45t59.5 -79.5t22.5 -119q0 -49 -10.5 -111.5t-32 -127t-55 -127t-78.5 -113.5q-59 -68 -131 -101.5t-164 -33.5q-45 0 -89 17t-79 52t-56.5 87t-21.5 124zM213 186q0 -41 25.5 -68.5t60.5 -27.5 q59 0 116.5 45t116.5 146q29 49 54.5 102t44 104.5t30 94.5t11.5 71q0 35 -21.5 63.5t-66.5 28.5q-63 0 -125 -56t-137 -183q-51 -86 -80 -172.5t-29 -147.5z" />
<glyph unicode="p" horiz-adv-x="983" d="M-264 -602l10 45q8 16 16 16h50q53 0 89 36t66 124l383 1086q-37 -10 -72.5 -31t-67.5 -45.5t-56.5 -49t-38.5 -42.5q-12 -12 -25 -2l-24 18q-6 6 0 20q43 53 119.5 124t203.5 118l64 197q6 23 32 28l183 58q8 4 16 4t8 -8q0 -4 -2 -9l-4 -8l-102 -229q23 4 41 4h34 q74 0 130.5 -22.5t93.5 -59.5t56 -86t19 -104q0 -111 -55 -218.5t-194 -209.5q-74 -53 -188.5 -96.5t-241.5 -55.5l-140 -401q-19 -52 -18 -83q0 -16 5 -27q15 -30 75 -30h57q20 0 12 -18l-10 -43q-4 -12 -27 -12q-16 0 -68 3t-169 3q-63 0 -106.5 -1t-71 -2t-44 -2 t-24.5 -1q-18 0 -14 12zM307 74q76 12 156 49t146.5 95t109.5 137t43 171q0 61 -13.5 105.5t-35 71t-49 39t-54.5 12.5q-16 0 -30.5 -1t-30.5 -5z" />
<glyph unicode="q" horiz-adv-x="962" d="M82 211q0 37 7 96.5t31.5 131t68.5 149.5t118 149q72 68 140.5 91.5t154.5 23.5q66 0 107 -24.5t65 -49.5q6 -6 14.5 -5t14.5 5l143 70q18 12 36.5 12t18.5 -16q0 -9 -6 -25l-471 -1257q-15 -36 -14 -59q0 -12 4 -20q12 -24 43 -24h57q18 0 13 -20l-13 -37 q-6 -16 -20 -16q-18 0 -71.5 3t-157.5 3q-111 0 -167.5 -3t-74.5 -3q-16 0 -14 16l6 41q6 16 20 16h49q53 0 87 19.5t61 83.5l217 516l-17 8q-43 -47 -104 -76.5t-133 -29.5q-29 0 -65.5 9t-69.5 33.5t-55.5 69.5t-22.5 119zM250 162q0 -51 23.5 -80t64.5 -29q55 0 105.5 38 t93.5 97.5t77.5 131t59 138t38 120t13.5 73.5q0 41 -22.5 77t-67.5 36q-41 0 -69.5 -16.5t-69.5 -59.5q-49 -53 -94.5 -121.5t-79 -140.5t-53 -141.5t-19.5 -122.5z" />
<glyph unicode="r" horiz-adv-x="765" d="M74 623q-3 3 -3 8t3 12q14 23 42.5 58.5t69.5 69.5t94.5 57.5t116.5 23.5q47 0 64.5 -24.5t17.5 -53.5t-23.5 -102.5t-58.5 -175.5l15 -9q20 43 56 105.5t80 120t95 98.5t102 41q43 0 75 -27.5t32 -74.5t-28.5 -81t-57.5 -34q-39 0 -61 16q-12 10 -23.5 17.5t-34.5 7.5 t-52.5 -27.5t-62 -70.5t-64.5 -93.5t-54 -95.5q-16 -35 -32.5 -75t-33.5 -93l-69 -209q-6 -12 -25 -12h-135q-10 0 -15.5 5t-1.5 11l103 332q12 39 28.5 92.5t32 105.5t26.5 94t11 56q0 12 -10 22.5t-27 10.5q-14 0 -34.5 -13.5t-42 -31.5t-41 -38.5t-29.5 -35.5 q-6 -12 -21 -4z" />
<glyph unicode="s" horiz-adv-x="638" d="M0 98q0 37 21.5 61.5t56.5 24.5q37 0 61.5 -22.5t36.5 -59.5q10 -25 23.5 -39t42.5 -14q43 0 72.5 33t29.5 98q2 51 -28.5 99.5t-63.5 103.5q-16 27 -30.5 50.5t-25 47t-16.5 50t-4 59.5q0 49 20.5 96t59.5 84t95.5 59.5t127.5 22.5q27 0 54.5 -6t51 -19.5t39 -35 t15.5 -54.5q0 -41 -21.5 -63.5t-56.5 -22.5q-29 0 -50.5 14.5t-31.5 55.5q-6 18 -15 37.5t-34 19.5q-31 0 -58.5 -25.5t-27.5 -93.5q0 -27 11.5 -54t26.5 -52t31.5 -45.5t24.5 -32.5q31 -41 54.5 -95t23.5 -126q0 -121 -86 -197.5t-225 -76.5q-102 0 -153.5 32.5t-51.5 85.5 z" />
<glyph unicode="t" horiz-adv-x="651" d="M72 41q0 29 5 57.5t15 57.5l217 561h-151q-18 0 -13 20l17 54q6 16 20 16h158l84 217q6 16 15.5 20.5t37.5 8.5q14 2 36 8t43.5 15t37.5 17.5t22 12.5q10 4 18.5 8t14.5 4q10 0 14.5 -12t-1.5 -29l-134 -270h211q10 0 10 -10q0 -4 -1 -11l-17 -59q-2 -10 -20 -10h-213 l-181 -451q-12 -35 -24 -67.5t-12 -51.5q0 -16 9 -26t27 -10t48 16t59 36.5t52.5 39t27.5 22.5q10 10 20 0l23 -24q10 -4 4 -17q-10 -12 -46 -46t-90.5 -68.5t-121 -62t-135.5 -27.5q-47 0 -66.5 19t-19.5 42z" />
<glyph unicode="u" horiz-adv-x="1028" d="M90 639q-3 3 -3 7t3 9q12 14 42 46t75 66t101.5 59.5t121.5 25.5q43 0 64.5 -27.5t21.5 -58.5q0 -37 -28.5 -120t-88.5 -222q-39 -92 -67.5 -167t-28.5 -105q0 -16 10.5 -24.5t22.5 -8.5q27 0 73 39t95 92t92 108.5t63 87.5q29 43 51.5 86t43.5 103l61 184q4 10 11.5 11 t17.5 1h139q22 0 22 -16q0 -4 -1 -8l-144 -418q-43 -123 -62.5 -185.5t-19.5 -72.5q0 -16 5 -20.5t16 -4.5q10 0 28.5 12.5t39 31t39 38t28.5 33.5q6 12 20 2l25 -18q6 -6 0 -21q-8 -12 -38 -46t-76 -68.5t-104.5 -62t-121.5 -27.5q-31 0 -48.5 16t-17.5 45q0 10 14.5 53 t34 95.5t38 101.5t26.5 71l-14 9q-31 -43 -81 -109.5t-113.5 -129t-136.5 -107.5t-148 -45q-37 0 -66 31.5t-29 62.5q0 59 35 144t98 226q43 96 65.5 163t22.5 89q0 16 -10 24.5t-26 8.5q-12 0 -32 -11t-41.5 -28.5t-40.5 -37.5l-34 -34q-4 -6 -11 -6t-11 6z" />
<glyph unicode="v" horiz-adv-x="1101" d="M86 541q0 66 29.5 123t52.5 81q14 16 32.5 34t44 32t63.5 23.5t93 9.5q86 0 137.5 1t79 3t40 3t22.5 1q18 0 29.5 -9t-4.5 -32q-29 -47 -64 -100.5t-64.5 -114.5t-49 -133t-19.5 -154q0 -104 39 -149t80 -45q61 0 105 24.5t79 65.5q66 84 98.5 173t32.5 179q0 41 -5 68.5 t-22 50.5q-10 16 -19 37.5t-9 40.5q0 31 28.5 64.5t90.5 33.5q49 0 72.5 -44t23.5 -87q0 -90 -27.5 -196.5t-107.5 -241.5q-37 -61 -85 -116.5t-105.5 -96.5t-122 -65.5t-134.5 -24.5q-47 0 -82 17t-63 46q-23 20 -37 60t-14 90q0 55 14 116.5t39 114.5q43 98 106.5 183 t110.5 138l-12 13q-31 -31 -90.5 -46.5t-102.5 -15.5h-102q-59 0 -85 -21.5t-30 -56.5q4 -25 22.5 -38t34.5 -23q10 -6 27.5 -24.5t17.5 -53.5t-19 -56.5t-67 -21.5q-35 0 -68.5 33t-33.5 107z" />
<glyph unicode="w" horiz-adv-x="1552" d="M90 565q0 66 26.5 111t63.5 86q29 31 70 50t106 19h164l197 13q18 4 26.5 -9.5t-10.5 -31.5q-23 -27 -58.5 -85.5t-70.5 -132t-60.5 -152.5t-25.5 -146q0 -66 32 -105t85 -43q53 0 105.5 29t95.5 88q23 31 44 104.5t33 147.5q10 53 14.5 120.5t20.5 129.5q10 37 43 53 t64 16t48 -16t17 -41q0 -35 -28.5 -105.5t-57.5 -156.5q-16 -55 -31.5 -113.5t-15.5 -99.5q0 -59 38 -105.5t110 -46.5q51 0 98 27t84 74t58.5 111.5t21.5 140.5q0 53 -13.5 100t-29.5 63q-12 12 -33 42t-21 61q0 37 27 63.5t68 26.5q59 0 98 -46t39 -163q0 -115 -41 -244 t-115 -231q-25 -35 -53.5 -68.5t-65 -60.5t-83 -43t-105.5 -16q-49 0 -85 19t-60.5 50t-38 66t-17.5 65q-18 -25 -51 -59.5t-77 -65t-97 -53t-111 -22.5q-84 0 -140 54t-56 150q0 66 30.5 146t73.5 156.5t90.5 143t81.5 107.5l-10 13q-10 -4 -28.5 -15.5t-43 -23t-53 -19.5 t-59.5 -8h-164q-29 0 -51.5 -14.5t-22.5 -38.5q-2 -14 4 -24.5t15.5 -17.5t19.5 -12.5t19 -7.5q10 -6 27.5 -21.5t17.5 -55.5q0 -31 -21.5 -54.5t-64.5 -23.5q-37 0 -72 38.5t-35 112.5z" />
<glyph unicode="x" horiz-adv-x="952" d="M18 57q0 16 4.5 44t10.5 58.5t14 59.5t16 47q6 12 21 8l33 -8q8 0 8 -16q-12 -41 -14 -66.5t1 -40t11 -19.5t18 -5q16 0 49 27.5t73 68.5t81 89t76 91l-82 264q-8 29 -18.5 37.5t-20.5 8.5q-27 0 -58.5 -45.5t-66.5 -106.5q-8 -14 -20 -8l-33 14q-4 2 -4 19q2 6 13 28.5 t29.5 53t43 64.5t55.5 62.5t66.5 47t74.5 18.5q41 0 65.5 -26.5t41.5 -92.5l49 -198h8q47 70 96.5 137t79.5 102q25 25 61 51.5t89 26.5q35 0 52 -21.5t17 -52.5q0 -43 -15 -109.5t-38 -119.5q-8 -14 -20 -8l-27 8q-16 6 -16 16q22 74 21 108q0 36 -29 36q-16 0 -45 -22.5 t-63 -58.5t-71 -82t-73 -91l88 -291q8 -29 22.5 -43.5t30.5 -14.5q12 0 31.5 18.5t38 42t34 46.5t19.5 33q0 12 16 4l29 -12q14 -8 8 -21q-10 -16 -32.5 -56t-57.5 -80t-83 -70.5t-105 -30.5q-49 0 -76 27.5t-43 82.5l-62 221h-8q-37 -53 -80 -111.5t-86 -107.5t-85 -80.5 t-81 -31.5q-37 0 -59.5 18t-22.5 59z" />
<glyph unicode="y" horiz-adv-x="866" d="M-211 -502q0 47 29.5 75t64.5 32q29 0 43.5 -10.5t30.5 -26.5q29 -29 57 -29q16 0 40 7.5t52 27.5q35 25 67 57.5t57.5 65.5t46 62.5t32.5 47.5q24 40 24 96q0 21 -3 44q-2 16 -6.5 68.5t-10.5 122t-14 150.5t-15.5 152.5t-15.5 128t-14 78.5q-8 29 -14.5 41t-24.5 12 q-14 0 -29.5 -16t-31 -39.5t-27.5 -49.5t-18 -42q-4 -10 -7.5 -11t-11.5 1l-31 10q-10 0 -4 25q2 6 10.5 28.5t24.5 53t38 64.5t52.5 62.5t67.5 47t82 18.5q55 0 85.5 -48t41.5 -177q6 -88 11 -175t8 -164t5 -138.5t2 -100.5h11q14 25 40.5 77t55 113.5t53.5 121t35 98.5 q6 25 15 59.5t9 71.5q0 29 -5 52.5t-11 41.5t-13 38.5t-7 43.5q0 29 23.5 57.5t78.5 28.5q59 0 80.5 -38t21.5 -93q0 -35 -12 -83t-32.5 -103.5t-46 -114t-52.5 -109.5q-39 -76 -96.5 -175t-124 -201.5t-138 -197.5t-139.5 -159q-23 -23 -55.5 -54.5t-73.5 -60t-87 -50 t-93 -21.5q-68 0 -99.5 31.5t-31.5 74.5z" />
<glyph unicode="z" horiz-adv-x="987" d="M49 29q0 33 18.5 62.5t45 54t56.5 43t52 28.5l414 393l-8 13q-24 -3 -45 -4q-42 0 -73 14q-46 20 -83 51q-12 10 -27.5 25.5t-34 30t-37 24.5t-36.5 10q-25 0 -37 -10t-12 -23q0 -12 6 -19t18 -17q12 -6 24.5 -22.5t12.5 -47.5t-23.5 -56.5t-54.5 -25.5q-43 0 -74.5 27.5 t-31.5 83.5q0 33 14 65.5t44 60t75 45t104 17.5q78 0 133.5 -17.5t116.5 -52.5q37 -23 68 -36t59 -13q25 0 38 21.5t24 52.5q10 29 37.5 61.5t76.5 32.5q25 0 39.5 -17.5t14.5 -39.5q0 -29 -16.5 -56.5t-41 -53t-53.5 -47t-53 -36.5l-434 -409l4 -13q10 1 18 1q27 0 49 -5 q29 -6 53.5 -17t47 -27.5t49.5 -37.5q59 -53 96 -82.5t72 -29.5q31 0 52 17.5t21 37.5q0 16 -5 28.5t-15 28.5q-16 29 -20.5 48.5t-4.5 37.5q0 35 23.5 56.5t58.5 21.5q49 0 71.5 -30.5t22.5 -83.5q0 -41 -15 -84t-49 -79t-89 -59.5t-137 -23.5q-90 0 -149.5 24.5 t-112.5 61.5q-25 18 -63 48t-69 30q-25 0 -43 -16.5t-30 -57.5q-10 -31 -34 -50.5t-65 -19.5q-29 0 -41 19.5t-12 42.5z" />
<glyph unicode="{" horiz-adv-x="647" d="M150 -78q0 78 23.5 145.5t53.5 129.5q29 61 53.5 118.5t24.5 110.5q0 47 -6 68.5t-18 33.5q-10 16 -30 24.5t-44 12.5q-10 0 -17.5 8.5t-7.5 24.5q0 33 33 33q18 0 36.5 4t49.5 16q37 18 67.5 54t34.5 90q4 45 5 86v83q0 42 1 87t7 100q8 84 50 149.5t100.5 112.5t128 76 t134.5 39q31 6 54.5 7t40.5 1q33 0 32 -29q0 -41 -24 -41h-30q-17 0 -36 -4q-109 -18 -178.5 -88.5t-87.5 -218.5q-12 -84 -16 -164t-17 -139q-18 -115 -131 -193q-41 -25 -71.5 -40t-30.5 -37q0 -12 23.5 -27.5t41.5 -34.5q23 -23 38.5 -50.5t15.5 -68.5q0 -55 -26 -122.5 t-48 -126.5q-18 -53 -35.5 -108.5t-17.5 -129.5q0 -117 45 -181.5t110 -80.5q23 -6 43.5 -7t28.5 -1q14 0 14 -41q0 -29 -14 -29q-8 0 -29.5 1t-62.5 7q-39 4 -92.5 23.5t-102.5 59.5t-82.5 102.5t-33.5 154.5z" />
<glyph unicode="|" horiz-adv-x="512" d="M287 -512v2052q0 16 12 16h96q14 0 15 -20v-2048q0 -20 -13 -20h-98q-12 0 -12 20z" />
<glyph unicode="}" horiz-adv-x="647" d="M-147 -397q0 18 4 29.5t20 11.5q12 0 29.5 2t36.5 2q109 18 178 88.5t88 218.5q12 84 16 164t17 139q18 115 131 193q41 25 71.5 40t30.5 37q0 12 -23.5 26.5t-41.5 31.5q-25 25 -39.5 53.5t-14.5 69.5q0 55 26 122.5t48 126.5q18 53 35.5 108.5t17.5 129.5 q0 117 -47 181.5t-108 80.5q-23 6 -43.5 7t-30.5 1t-11 10.5t-1 26.5q0 33 16 33q10 0 29.5 -1t60.5 -7q39 -4 93.5 -23.5t103.5 -59.5t84 -102.5t35 -154.5q0 -78 -25 -145.5t-53 -129.5q-31 -61 -56.5 -118.5t-25.5 -110.5q0 -43 6 -64.5t18 -37.5q25 -31 74 -37 q10 0 17.5 -7.5t7.5 -25.5q0 -33 -33 -33q-18 0 -34.5 -2t-39.5 -14q-47 -23 -78.5 -60.5t-35.5 -87.5q-4 -47 -5 -87v-82q0 -42 -1 -87t-7 -100q-10 -84 -51 -149.5t-99.5 -112.5t-128 -76t-134.5 -39q-31 -6 -54.5 -7t-40.5 -1q-32 0 -32 29z" />
<glyph unicode="~" d="M135 328q0 78 17.5 137t48 99t70.5 59.5t85 19.5q37 0 73 -10t79 -35l86 -53q25 -18 55.5 -38t71.5 -20q49 0 73.5 39t24.5 129h119q0 -164 -61.5 -239.5t-147.5 -75.5q-47 0 -86 18.5t-86 42.5l-78 54q-29 16 -59.5 28.5t-67.5 12.5q-37 -4 -65.5 -40t-28.5 -128h-123z " />
<glyph unicode="&#xa1;" horiz-adv-x="548" d="M-102 -518q0 41 32 106q2 4 16.5 41t39 93.5t54.5 127t61.5 144.5t61.5 144.5t54.5 125.5t39.5 91t17 40q6 16 29 17q12 0 19.5 -11.5t1.5 -33.5q-6 -23 -21.5 -93.5t-34 -165t-39 -198t-38 -191.5t-29.5 -149.5t-15 -67.5q-25 -111 -135 -110q-59 0 -86.5 29.5 t-27.5 60.5zM270 725q0 53 35 90t88 37t82 -41t29 -78q0 -53 -33 -90t-94 -37q-10 0 -28.5 6t-36 19.5t-30 36t-12.5 57.5z" />
<glyph unicode="&#xa2;" d="M201 471q0 76 33.5 169t96 179t151.5 155.5t202 102.5l57 230q8 16 17 12l49 -8q10 -4 11 -9.5t1 -11.5l-49 -196q12 4 27 4h26q25 0 50.5 -6.5t47 -18.5t36 -33.5t14.5 -52.5q0 -43 -30 -66.5t-60 -23.5q-18 0 -32.5 10.5t-25.5 26.5q-16 25 -31.5 37t-50.5 16 l-155 -659q53 0 108.5 24.5t93.5 48.5q16 10 31 -4l12 -24q8 -16 -12 -33q-23 -16 -86 -55t-172 -56l-61 -245q-4 -16 -21 -13l-45 13q-14 4 -8 28l53 213q-133 4 -205.5 61.5t-72.5 184.5zM401 504q0 -68 31 -110t80 -54l152 643q-41 -10 -73 -35.5t-63 -66.5 q-29 -39 -52 -87.5t-39.5 -99.5t-26 -101t-9.5 -89z" />
<glyph unicode="&#xa3;" d="M-29 49q0 20 17.5 50t45 59.5t60.5 54.5t66 37q8 10 20.5 35.5t24.5 54.5t22.5 55.5t14.5 42.5h-140q-20 0 -20 17l8 49q6 12 21 12h155q8 20 23.5 73.5t36 121t42 137.5t42.5 121q27 72 70.5 136t102 112.5t130 76t155.5 27.5q57 0 101.5 -15.5t72 -38t42 -48 t14.5 -45.5q0 -43 -29 -65t-57 -22q-41 -4 -69 14.5t-50 72.5q-4 8 -8 20t-13.5 24.5t-25 20.5t-39.5 8q-27 0 -50.5 -16.5t-47 -54t-48 -98t-53.5 -148.5q-18 -55 -45.5 -122t-56.5 -128.5t-52.5 -106.5t-31.5 -57h274q23 0 17 -12l-8 -49q-4 -10 -8.5 -13.5t-16.5 -3.5 h-307q-6 -10 -21.5 -32.5t-34 -48t-37 -49t-30.5 -38.5l4 -8q74 8 132 4t107.5 -21.5t94.5 -50t92 -81.5q25 -29 55.5 -47.5t71.5 -18.5q25 0 49.5 19.5t28.5 42.5t-2 29.5t-35 6.5q-37 0 -63.5 20.5t-26.5 49.5q0 14 5 30.5t17.5 31t30.5 23.5t45 9q59 0 103.5 -38 t44.5 -105q0 -25 -13.5 -58.5t-47.5 -64.5t-90 -52.5t-140 -21.5q-102 0 -171 34t-128 99q-53 59 -94 83t-95 20q-10 -23 -25.5 -53.5t-39.5 -65.5q-29 -37 -59.5 -63.5t-67.5 -26.5q-62 0 -62 53z" />
<glyph unicode="&#xa4;" d="M92 242q-12 12 0 24l180 172q-12 12 -24 34t-23.5 48.5t-17.5 56t-6 58.5q0 66 20.5 129t65.5 106l-191 170q-14 14 0 29l56 57q10 12 22 0l191 -176q45 35 105 51.5t118 16.5q49 0 106.5 -16.5t91.5 -45.5l183 170q12 8 20 0l55 -51q14 -14 3 -26l-177 -170 q35 -37 57.5 -98.5t22.5 -114.5q0 -66 -19.5 -131.5t-56.5 -108.5l177 -168q10 -10 0 -20l-58 -62q-12 -12 -24 0l-183 168q-43 -31 -106.5 -45t-116.5 -14q-47 0 -108.5 15t-104.5 56l-176 -180q-4 -6 -12 -5t-12 5zM369 651q0 -111 58 -175t148 -64q96 0 151.5 64.5 t55.5 174.5q0 109 -57 172.5t-150 63.5q-98 0 -152 -66t-54 -170z" />
<glyph unicode="&#xa5;" d="M115 1227l6 57q2 12 18 12q8 0 24.5 -1t44.5 -2t68.5 -2t100.5 -1q86 0 136 3t69 3q18 0 18 -14l-6 -55q0 -12 -16 -13h-37q-27 0 -39.5 -8t-17.5 -20t-4 -23.5t3 -17.5l123 -502q4 -18 15.5 -21.5t17.5 13.5q4 8 26.5 42t53.5 81t65.5 102t66.5 105.5t54.5 91.5t28.5 57 q35 100 -62 100h-49q-18 0 -14 19l6 47q2 10 5 13t16 3q23 0 76 -3t137 -3q80 0 125 3t63 3q23 0 18 -20l-4 -45q-2 -16 -14 -17h-37q-41 0 -69.5 -21.5t-57.5 -51.5q-10 -10 -39.5 -52t-70.5 -98.5t-85 -121t-83 -122t-68 -98.5t-35 -51h254q18 0 17 -12l-9 -49 q-4 -18 -24 -19h-279l-28 -117h303q10 0 10 -12l-6 -51q-2 -12 -29 -12h-295l-33 -150q-14 -66 4.5 -83t49.5 -17h57q18 0 16 -17l-8 -45q0 -20 -20 -20q-23 0 -72 3t-141 3q-127 0 -178.5 -3t-67.5 -3q-18 0 -16 20l4 45q6 16 20 17h74q41 0 63.5 29.5t30.5 62.5l37 158 h-279q-14 0 -10 18l6 45q0 12 21 12h274l25 117h-281q-18 0 -14 17l6 53q0 10 19 10h249l-8 25l-166 518q-10 29 -34.5 51t-61.5 22h-47q-10 1 -10 13z" />
<glyph unicode="&#xa6;" horiz-adv-x="512" d="M287 338q0 20 14 20h96q12 0 13 -20v-676q0 -20 -15 -20h-96q-12 0 -12 20v676zM287 686v676q0 20 12 20h94q16 0 17 -20v-676q0 -20 -13 -20h-94q-16 0 -16 20z" />
<glyph unicode="&#xa7;" d="M8 -184q0 43 22.5 68.5t63.5 25.5t63.5 -15.5t39.5 -46.5q29 -53 94 -53q27 0 64.5 14.5t72.5 45t59.5 78t24.5 112.5q-4 43 -17.5 81t-38 76t-60.5 80t-85 95q-23 25 -47 54.5t-42.5 66.5t-31 81t-10.5 97q0 49 22.5 104.5t62.5 105.5t93.5 92t116.5 66q12 47 42 116 t110 140q74 66 151.5 84.5t155.5 18.5q84 0 128 -35t44 -76q0 -43 -25.5 -66.5t-68.5 -23.5q-41 0 -64.5 18.5t-42.5 59.5q-25 49 -74 49q-33 0 -65.5 -18.5t-60 -50t-45 -72.5t-17.5 -86q0 -33 6 -60.5t25.5 -60.5t54.5 -73t94 -97q25 -23 51.5 -52.5t49 -67.5t37 -86 t14.5 -105q0 -63 -22.5 -124t-62.5 -114t-95.5 -97t-118.5 -75q-12 -53 -27.5 -94t-37 -77t-52.5 -66.5t-76 -61.5q-59 -41 -129.5 -59.5t-173.5 -18.5q-74 0 -123 30t-49 73zM340 741q0 -41 17.5 -79.5t39.5 -67.5q43 -53 91.5 -105.5t89 -104.5t67.5 -107.5t27 -112.5 q74 47 102.5 112.5t28.5 133.5q0 55 -18.5 104t-71.5 117q-25 31 -64 66.5t-75.5 78.5t-64.5 92.5t-30 106.5q-72 -35 -105.5 -95.5t-33.5 -138.5z" />
<glyph unicode="&#xa8;" horiz-adv-x="665" d="M217 1194q0 10 4 25.5t16.5 29t32 22.5t49.5 9q37 0 66 -23.5t29 -70.5q0 -41 -27 -63.5t-68 -22.5q-16 0 -33.5 4t-32.5 14t-25.5 28.5t-10.5 47.5zM541 1194q0 10 4 25.5t16 29t31.5 22.5t50.5 9q37 0 65.5 -23.5t28.5 -70.5q0 -41 -26.5 -63.5t-67.5 -22.5 q-16 0 -33.5 4t-33 14t-25.5 28.5t-10 47.5z" />
<glyph unicode="&#xa9;" horiz-adv-x="1597" d="M176 686q0 152 55.5 283t151.5 227t226 151.5t280 55.5q154 0 284 -52.5t224 -146.5t147 -225t53 -289q0 -152 -50 -283t-142 -228t-223 -153.5t-293 -56.5q-164 0 -296 56.5t-224.5 153.5t-142.5 227t-50 280zM283 690q0 -176 59 -299t148.5 -199.5t196 -110.5 t202.5 -34q166 0 280.5 61.5t186 155.5t103.5 207t32 215q0 170 -59.5 292t-149.5 198.5t-195.5 112.5t-197.5 36q-127 0 -236.5 -46t-192.5 -130t-130 -201t-47 -258zM463 692q0 84 28.5 164t94.5 148q47 47 126 80.5t181 33.5q80 0 135 -22.5t74 -34.5q29 -12 37 4l4 20 q0 4 2 8.5t6 4.5q4 4 15 4h18q10 0 16 -17l29 -233q0 -16 -4 -16l-33 -9q-10 -4 -16 9q-16 29 -35 64.5t-56 70.5q-31 31 -77.5 56.5t-114.5 25.5q-66 0 -115 -31t-80.5 -79t-47 -106.5t-15.5 -115.5q0 -53 19.5 -131t78.5 -144q53 -55 107.5 -76.5t109.5 -21.5q90 0 160 45 t111 99q6 6 10 5t10 -5l25 -17q8 -8 -4 -20q-29 -39 -64 -74t-80 -62.5t-99 -44t-118 -16.5q-92 0 -173 28.5t-134 82.5q-131 124 -131 323z" />
<glyph unicode="&#xaa;" horiz-adv-x="720" d="M94 639q0 66 38 146.5t98.5 151.5t136 119t153.5 48q51 0 72.5 -19.5t34.5 -37.5q20 31 25 38t14 7h96q12 0 12 -9q0 -4 -2 -10l-4 -12q-2 -4 -11 -25.5t-21.5 -52.5t-28 -70t-29.5 -77q-29 -72 -50.5 -133.5t-21.5 -75.5q0 -18 17 -19q12 0 40.5 22.5t55.5 49.5 q12 12 22 2l21 -14q6 -6 0 -21q-12 -16 -38 -38.5t-59.5 -44t-74.5 -36t-86 -14.5q-51 0 -51 37q0 16 10 50t43 116l-14 6q-16 -27 -46 -62.5t-68 -68.5t-81 -55.5t-88 -22.5q-51 0 -83 33t-32 92zM248 676q0 -63 45 -64q16 0 44 19.5t60.5 52.5t64.5 72t54 80q53 90 53 141 q0 29 -14 48t-57 19t-87 -41.5t-80 -100t-59.5 -121t-23.5 -105.5z" />
<glyph unicode="&#xab;" horiz-adv-x="774" d="M106 459q0 4 9 12l319 299q8 8 12 8t4.5 -2t4.5 -6l24 -20q8 -8 8 -17q0 -2 -10 -18l-178 -248l117 -250q4 -10 7 -11t3 -5q0 -8 -8 -17l-25 -20q-4 -4 -6 -4h-2q-4 0 -9 1t-9 5l-252 280q-9 9 -9 13zM393 459q0 6 13 12l315 299q8 8 12 8t12 -8l21 -20q8 -8 8 -17 q0 -2 -10 -16l-178 -250l116 -250q4 -10 7.5 -11t3.5 -5q0 -8 -8 -17l-25 -20q0 -4 -8 -4t-13 8l-258 278q-8 9 -8 13z" />
<glyph unicode="&#xac;" d="M147 602v131h803v-479h-139v348h-664z" />
<glyph unicode="&#xad;" horiz-adv-x="851" d="M127 455v94q0 20 16 20h662q18 0 18 -16v-94q0 -20 -20 -21h-660q-16 1 -16 17z" />
<glyph unicode="&#xae;" horiz-adv-x="1060" d="M209 956q0 94 35 176t96 142.5t146 94.5t186 34q102 0 187 -33t146.5 -92t95.5 -141t34 -181q0 -94 -32 -175t-91.5 -141t-145.5 -95t-194 -35q-111 0 -197 35t-145.5 95t-90 141t-30.5 175zM295 961q0 -109 37 -181.5t92 -119t121.5 -66t126.5 -19.5q102 0 174 34 t116 88.5t63 122t19 136.5q0 106 -36.5 178t-92 116t-121 63.5t-122.5 19.5q-78 0 -146.5 -24.5t-120 -72.5t-81 -117.5t-29.5 -157.5zM442 709v26q0 4 7 4h18q18 0 27.5 6.5t9.5 34.5v185l4 73v25v35q0 18 -1 32.5t-3 18.5q0 33 -41 33h-12q-4 0 -5 6v31q0 4 7 4q2 0 15 -1 t28.5 -1t31 -1t21.5 -1q4 0 23.5 1t41 1t41 1t25.5 1q104 0 151 -41q23 -18 30 -43t7 -43q0 -35 -13 -61.5t-32.5 -45t-44 -29t-45.5 -12.5v-4q12 0 21 -8l12 -12q2 -4 12 -18.5t20.5 -30t19.5 -30t13 -16.5q2 -4 10.5 -15t18.5 -23l21 -25q10 -12 16 -14q12 -10 27.5 -11.5 t31.5 -1.5q6 0 7 -8v-20q0 -8 -9 -9q-6 0 -24.5 2.5t-36.5 2.5h-37q-20 0 -49 -5q-6 6 -17.5 19.5t-17.5 23.5q-2 4 -9 15.5t-15.5 26t-16.5 26.5t-10 16q-2 2 -8 12.5t-13.5 21.5t-13.5 21.5t-10 14.5q-12 12 -23.5 20.5t-34.5 8.5h-20v-33v-26v-38q0 -20 1 -37.5t1 -25.5 q2 -10 6 -19.5t21 -9.5h26q6 0 6 -4v-26q0 -6 -8 -7q-6 0 -36.5 2.5t-59.5 2.5t-63.5 -2.5t-40.5 -2.5q-9 1 -9 7zM598 969q6 -4 18 -4h23q41 0 66.5 14t39 33.5t17.5 40t4 30.5q0 47 -41 74q-18 12 -40.5 18.5t-45.5 6.5h-18q-12 0 -23 -4v-209z" />
<glyph unicode="&#xaf;" horiz-adv-x="573" d="M209 1057v78q0 10 5 11t15 1h394q10 0 15 -1t5 -11v-78q0 -12 -20 -13h-398q-16 1 -16 13z" />
<glyph unicode="&#xb0;" horiz-adv-x="512" d="M225 1214q4 74 61.5 131.5t155.5 57.5q102 0 157.5 -54.5t55.5 -134.5q0 -37 -15 -70.5t-43 -60t-68 -42t-87 -15.5q-104 0 -158.5 52t-58.5 136zM332 1214q0 -47 31.5 -80.5t78.5 -33.5t77 34.5t30 84.5q0 41 -30 73.5t-77 32.5q-49 0 -79.5 -34t-30.5 -77z" />
<glyph unicode="&#xb1;" d="M135 20v132h807v-132h-807zM135 598v131h332v275h143v-275h332v-131h-332v-291h-143v291h-332z" />
<glyph unicode="&#xb2;" horiz-adv-x="679" d="M98 813q0 6 5.5 14.5t11.5 14.5q57 45 136 106.5t150.5 129t121.5 140t50 142.5q0 43 -25.5 81t-84.5 38q-55 0 -92 -38t-56 -69q-10 -12 -16 -14t-12 -2l-21 12q-8 4 -8 21q8 20 29.5 54t55.5 65.5t82 54t112 22.5q102 0 153 -51t51 -143q0 -78 -49 -149t-117.5 -132 t-141.5 -109.5t-118 -76.5l-4 -9h201q49 0 77.5 19.5t53.5 62.5q12 12 21 4l20 -12q14 -6 4 -16q-10 -16 -24.5 -43t-26.5 -56.5t-22.5 -55t-12.5 -38.5q0 -12 -16 -12q-14 0 -25 16q-6 6 -27.5 7.5t-58.5 1.5h-348q-29 0 -29 20z" />
<glyph unicode="&#xb3;" horiz-adv-x="679" d="M123 918q0 29 14.5 49t42.5 20q43 0 54.5 -28.5t7.5 -57.5q0 -16 22.5 -36.5t63.5 -20.5q39 0 74.5 17.5t63.5 47t43 68.5t15 84q0 49 -23.5 88t-70.5 51q-20 10 -20 25q0 6 2 11t18 9q27 6 56.5 19.5t53 33t39 46t15.5 61.5q0 25 -19.5 55.5t-74.5 30.5q-41 0 -76 -23.5 t-59 -54.5q-18 -23 -29 -12l-21 16q-6 6 0 21q10 18 31 43.5t51.5 48t75.5 39t105 16.5q47 0 80.5 -11t55 -29.5t31 -39t9.5 -39.5q0 -74 -52.5 -127t-136.5 -90q72 -31 99.5 -76t27.5 -100q0 -63 -30.5 -116.5t-83 -93.5t-120 -62.5t-143.5 -22.5q-96 0 -144 45.5t-48 94.5 z" />
<glyph unicode="&#xb4;" horiz-adv-x="491" d="M182 981q-4 8 2 14l246 217q47 41 86 41q25 0 43.5 -18t22.5 -43t-8.5 -51.5t-49.5 -42.5l-311 -135q-12 -6 -16 0z" />
<glyph unicode="&#xb5;" d="M-184.5 -424.5q-10.5 21.5 24.5 55.5q33 33 63.5 91.5t58.5 123t51.5 126t39.5 102.5q4 8 23.5 58t45 116.5t53.5 137.5t50 120q35 78 48.5 132t13.5 79q4 23 -2 44t-6 38q4 23 28.5 38t89.5 15q43 0 69 -25.5t26 -60.5t-32 -118t-91 -222q-41 -92 -70 -166t-29 -104 q0 -41 45 -41q25 0 70 40t94 94t92 109.5t64 87.5q29 43 51.5 85t38.5 83q29 72 39 123t10 70q0 23 26.5 34t100.5 11q47 0 58.5 -18.5t11.5 -47.5q0 -35 -42 -136t-100 -265q-41 -121 -58 -172t-17 -74q0 -16 10 -26.5t22 -10.5t32 15.5t38 35t34.5 39t22.5 29.5q6 14 21 0 l20 -16q4 -10 0 -21q-2 -4 -26.5 -35.5t-66.5 -69.5t-96 -68.5t-114 -30.5q-90 0 -90 81q0 16 13.5 57.5t31 87.5t33.5 88t25 58l-21 13q-25 -37 -74 -104.5t-113.5 -132.5t-138 -111t-145.5 -37l-45 -119q-16 -45 -27.5 -78t-20.5 -58.5t-17.5 -47t-16.5 -42.5 q-12 -35 -61.5 -58t-126.5 -23q-31 0 -41.5 21.5z" />
<glyph unicode="&#x3bc;" d="M-184.5 -424.5q-10.5 21.5 24.5 55.5q33 33 63.5 91.5t58.5 123t51.5 126t39.5 102.5q4 8 23.5 58t45 116.5t53.5 137.5t50 120q35 78 48.5 132t13.5 79q4 23 -2 44t-6 38q4 23 28.5 38t89.5 15q43 0 69 -25.5t26 -60.5t-32 -118t-91 -222q-41 -92 -70 -166t-29 -104 q0 -41 45 -41q25 0 70 40t94 94t92 109.5t64 87.5q29 43 51.5 85t38.5 83q29 72 39 123t10 70q0 23 26.5 34t100.5 11q47 0 58.5 -18.5t11.5 -47.5q0 -35 -42 -136t-100 -265q-41 -121 -58 -172t-17 -74q0 -16 10 -26.5t22 -10.5t32 15.5t38 35t34.5 39t22.5 29.5q6 14 21 0 l20 -16q4 -10 0 -21q-2 -4 -26.5 -35.5t-66.5 -69.5t-96 -68.5t-114 -30.5q-90 0 -90 81q0 16 13.5 57.5t31 87.5t33.5 88t25 58l-21 13q-25 -37 -74 -104.5t-113.5 -132.5t-138 -111t-145.5 -37l-45 -119q-16 -45 -27.5 -78t-20.5 -58.5t-17.5 -47t-16.5 -42.5 q-12 -35 -61.5 -58t-126.5 -23q-31 0 -41.5 21.5z" />
<glyph unicode="&#xb6;" d="M177 665.5q-30 92.5 11 235.5q35 119 132.5 204t223.5 142.5t267 89t266 47.5q74 10 115 14.5t70 4.5q16 0 16 -17l-12 -43q-6 -16 -21 -16q-18 -4 -51 -8t-51 -8l-416 -1583q-2 -14 -18 -15h-58q-10 0 -11 4t3 21l406 1565q-18 -4 -58.5 -11.5t-64.5 -13.5l-398 -1548 q-2 -16 -14 -17h-72q-10 0 0 33l176 676q-84 0 -177 21.5t-163.5 75.5t-100.5 146.5z" />
<glyph unicode="&#xb7;" horiz-adv-x="512" d="M213 705q0 43 33 87t98 44q39 0 64.5 -14.5t41 -35t22.5 -44t7 -42.5q0 -49 -36.5 -88t-98.5 -39q-55 0 -93 36.5t-38 95.5z" />
<glyph unicode="&#xb8;" horiz-adv-x="573" d="M-94 -406q0 18 10 25.5t27 7.5q59 0 105 31t46 68q0 25 -20.5 49t-57.5 41l140 184h86l-107 -143q59 -18 89 -47t30 -76q0 -45 -36 -78t-85 -54.5t-101 -32.5t-85 -11q-25 0 -33 10t-8 26z" />
<glyph unicode="&#xb9;" horiz-adv-x="679" d="M145 790.5q-2 2.5 2 6.5l5 41q8 8 16 8h53q29 0 52.5 8t41.5 45q10 12 17.5 41t27.5 90l86 268q18 55 25.5 76t7.5 27q0 16 -16 16q-10 0 -26.5 -4t-47.5 -16l-70 -21q-10 -4 -16 8l-12 29q0 8 8 12l328 144q39 16 53 16q20 0 20 -16q0 -6 -2 -15.5t-6 -21.5 q-10 -23 -22.5 -58.5t-27.5 -77.5t-29.5 -87t-26.5 -82l-60 -180q-20 -61 -31.5 -98.5t-15.5 -53.5q-4 -25 5.5 -37t39.5 -12h54q10 0 11 -2t1 -6l-8 -41q0 -8 -13 -9q-4 0 -28.5 1.5t-57 1.5t-64.5 1t-46 1q-23 0 -57.5 -1t-69.5 -1t-62.5 -1.5t-31.5 -1.5q-5 0 -7 2.5z " />
<glyph unicode="&#xba;" horiz-adv-x="688" d="M135 735q0 45 17.5 107.5t58.5 121t109.5 99.5t171.5 41q47 0 84.5 -16.5t64.5 -43t41 -60.5t14 -69q0 -59 -18.5 -129.5t-59 -131t-108.5 -100.5t-166 -40q-37 0 -75 11.5t-67.5 38t-48 68.5t-18.5 103zM262 664q0 -29 20.5 -51.5t55.5 -22.5q41 0 84 43t78 102.5 t57.5 119.5t22.5 95q0 33 -20.5 53.5t-61.5 20.5q-43 0 -86 -38t-76 -93t-53.5 -117.5t-20.5 -111.5z" />
<glyph unicode="&#xbb;" horiz-adv-x="774" d="M66 201q0 2 10 16l178 250l-119 254l-6 9q-2 3 -2 7t8 13l25 24l2 2q2 0 3 1t3 1q4 0 12 -8l258 -278q8 -8 8 -13q0 -4 -12 -16l-315 -295q-8 -8 -13 -8q-8 0 -12 4l-20 24q-8 9 -8 13zM352 201q0 2 10 18l179 248l-119 254l-6 9q-2 3 -2 7t8 13l24 24q4 0 7 2q2 0 2 2 q8 0 16 -8l254 -278q8 -8 8 -13q0 -4 -2 -7l-6 -9l-319 -295q-8 -8 -13 -8q-4 0 -8 4l-25 24q-8 9 -8 13z" />
<glyph unicode="&#xbc;" horiz-adv-x="1490" d="M92 526q-2 2 2 6l4 41q8 8 17 9h53q29 0 52.5 8t41.5 45q10 12 18.5 41t26.5 90l86 268q18 55 25.5 75.5t7.5 27.5q0 16 -16 16q-10 0 -26.5 -4t-47.5 -16l-70 -21q-10 -4 -16 8l-12 29q0 8 8 12l327 144q33 16 54 16q20 0 20 -16q0 -6 -2 -15.5t-6 -21.5 q-10 -23 -22.5 -58.5t-27 -77.5t-29.5 -87.5t-28 -81.5l-61 -181q-18 -61 -29.5 -98t-15.5 -53q-4 -25 5 -37t40 -12h53q10 0 11.5 -2t1.5 -7l-9 -41q0 -8 -12 -8q-4 0 -28.5 1t-57.5 1t-64.5 1t-46.5 1q-23 0 -57.5 -1t-69 -1t-62.5 -1t-32 -1t-6 2zM332 27q0 6 8 20 l831 1266q8 8 17 8q8 0 12 -4l53 -33q8 -8 9 -12q0 -4 -9 -21l-831 -1265q-10 -16 -21 -17q-6 0 -16 8l-45 33q-8 9 -8 17zM766 225q0 25 37 49l598 500q6 6 19.5 12.5t25.5 6.5q18 0 24.5 -15.5t-0.5 -32.5l-176 -454h115q14 0 8 -21l-28 -61q-8 -16 -21 -16h-111l-61 -173 q-10 -20 -29 -20h-118q-6 0 -10.5 6t1.5 23l70 164h-307q-16 0 -26.5 7t-10.5 25zM923 299q-3 -8 7 -8h213l98 246q10 18 2 25t-26 -9l-279 -234q-12 -12 -15 -20z" />
<glyph unicode="&#xbd;" horiz-adv-x="1490" d="M92 526q-2 2 2 6l4 41q8 8 17 9h53q29 0 52.5 8t41.5 45q10 12 18.5 41t26.5 90l86 268q18 55 25.5 75.5t7.5 27.5q0 16 -16 16q-10 0 -26.5 -4t-47.5 -16l-70 -21q-10 -4 -16 8l-12 29q0 8 8 12l327 144q33 16 54 16q20 0 20 -16q0 -6 -2 -15.5t-6 -21.5 q-10 -23 -22.5 -58.5t-27 -77.5t-29.5 -87.5t-28 -81.5l-61 -181q-18 -61 -29.5 -98t-15.5 -53q-4 -25 5 -37t40 -12h53q10 0 11.5 -2t1.5 -7l-9 -41q0 -8 -12 -8q-4 0 -28.5 1t-57.5 1t-64.5 1t-46.5 1q-23 0 -57.5 -1t-69 -1t-62.5 -1t-32 -1t-6 2zM332 27q0 6 8 20 l831 1266q8 8 17 8q8 0 12 -4l53 -33q8 -8 9 -12q0 -4 -9 -21l-831 -1265q-10 -16 -21 -17q-6 0 -16 8l-45 33q-8 9 -8 17zM827 20q0 6 5.5 14.5t11.5 14.5q57 45 136 106.5t150.5 129t122 140.5t50.5 142q0 43 -26 81t-85 38q-55 0 -92 -38t-56 -68q-10 -12 -16 -14.5 t-12 -2.5l-21 12q-8 4 -8 21q8 20 29.5 54t55.5 66t82 54.5t112 22.5q102 0 153 -51.5t51 -143.5q0 -78 -49 -148.5t-117.5 -132t-141 -109.5t-118.5 -77l-4 -8h201q49 0 78 19.5t53 62.5q12 12 21 4l20 -12q14 -6 4 -17q-10 -16 -24.5 -42.5t-26.5 -56.5t-22.5 -55.5 t-12.5 -37.5q0 -12 -16 -13q-14 0 -25 17q-8 8 -86 8h-348q-29 0 -29 20z" />
<glyph unicode="&#xbe;" horiz-adv-x="1490" d="M86 653q0 29 14.5 49.5t42.5 20.5q43 0 54.5 -28.5t7.5 -57.5q0 -16 22.5 -36.5t63.5 -20.5q39 0 74.5 17t63.5 47t43 69t15 84q0 49 -23.5 88t-70.5 51q-20 10 -20 25q0 6 2 11t18 9q27 6 56.5 19.5t53 33t39 46t15.5 61.5q0 25 -19.5 55.5t-74.5 30.5q-41 0 -76 -23.5 t-59 -54.5q-18 -23 -29 -12l-20 16q-6 6 0 21q10 18 30.5 43.5t51 48t75.5 39t105 16.5q47 0 80.5 -11.5t55 -29.5t31 -38.5t9.5 -39.5q0 -74 -52.5 -127t-136.5 -90q72 -31 99.5 -76t27.5 -100q0 -63 -30.5 -116.5t-83 -93.5t-120 -62.5t-142.5 -22.5q-96 0 -144.5 45 t-48.5 94zM362 27q0 6 9 20l831 1266q8 8 17 8q8 0 12 -4l53 -33q8 -8 8 -12t-8 -21l-831 -1265q-10 -16 -21 -17q-6 0 -16 8l-45 33q-9 9 -9 17zM786 225q0 25 37 49l598 500q6 6 19.5 12.5t25.5 6.5q18 0 24.5 -15.5t0.5 -32.5l-176 -454h115q14 0 8 -21l-29 -61 q-8 -16 -20 -16h-111l-61 -173q-10 -20 -29 -20h-119q-6 0 -10 6t2 23l69 164h-307q-16 0 -26.5 7t-10.5 25zM943 299q-3 -8 7 -8h213l99 246q10 18 1.5 25t-26.5 -9l-279 -234q-12 -12 -15 -20z" />
<glyph unicode="&#xbf;" horiz-adv-x="872" d="M16 -340q0 100 33 176t88.5 133.5t126 97t146.5 68.5q109 43 173 82t64 94q0 90 -131 90q-33 0 -61.5 -8t-51 -20.5t-38 -24.5t-21.5 -20q-12 -6 -16 4l-21 20q-4 4 -4 8v9q10 14 31.5 35.5t51.5 42t65.5 35t76.5 14.5t79 -12.5t66.5 -39t46 -67.5t17.5 -98 q0 -72 -35.5 -128.5t-85 -99.5t-103.5 -73.5t-91 -51.5q-53 -31 -100.5 -58.5t-81 -60t-53 -74.5t-19.5 -100q0 -23 10 -50t31.5 -53t56.5 -43t86 -17q98 0 168 50t70 130q0 49 -22.5 67.5t-39.5 18.5q-23 0 -32 -17q6 -12 7 -20t1 -21q0 -35 -25.5 -68.5t-81.5 -33.5 q-43 0 -64.5 27.5t-21.5 62.5q0 37 16.5 65.5t42 49t57.5 31t65 10.5t64.5 -9.5t57 -29t42 -52t16.5 -77.5q0 -43 -21.5 -89t-64.5 -85t-104.5 -63.5t-141.5 -24.5q-102 0 -165.5 31.5t-98.5 75.5t-47.5 89t-12.5 72zM492 729q0 43 27.5 83t86.5 40q53 0 86 -35t33 -88 q0 -16 -8 -36.5t-23.5 -38t-36 -29t-47.5 -11.5q-43 0 -80.5 30t-37.5 85z" />
<glyph unicode="&#xc0;" horiz-adv-x="1331" d="M-156 14l9 45q2 16 16 17h29q55 0 122.5 39t120.5 104l957 1133q10 12 19 16t34 4q23 0 56.5 3t74.5 11q29 4 49.5 10.5t32.5 6.5q27 0 20 -25l-303 -1132q-6 -25 -13 -58.5t-7 -54.5q0 -25 21.5 -41t52.5 -16h51q18 0 14 -17l-8 -49q-4 -16 -27 -16q-16 0 -79.5 3 t-184.5 3q-59 0 -102 -1t-74 -2t-51.5 -2t-34.5 -1q-16 0 -12 22l8 43q2 16 18 17h35q27 0 50.5 4t42 20.5t34.5 49t33 88.5l106 376h-352l-237 -303q-43 -59 -75 -107t-32 -75q0 -53 78 -53h61q16 0 13 -17l-9 -47q-4 -18 -20 -18t-83 3t-196 3q-111 0 -167 -3t-74 -3 q-19 0 -17 20zM659 688h320l151 524q6 23 -11 26t-29 -9zM933 1743.5q9 25.5 31.5 44t45.5 18.5q29 0 49 -14t37 -31l233 -233q10 -10 4 -17l-16 -20q0 -6 -12 0l-320 151q-41 20 -51 48t-1 53.5z" />
<glyph unicode="&#xc1;" horiz-adv-x="1331" d="M-156 14l9 45q2 16 16 17h29q55 0 122.5 39t120.5 104l957 1133q10 12 19 16t34 4q23 0 56.5 3t74.5 11q29 4 49.5 10.5t32.5 6.5q27 0 20 -25l-303 -1132q-6 -25 -13 -58.5t-7 -54.5q0 -25 21.5 -41t52.5 -16h51q18 0 14 -17l-8 -49q-4 -16 -27 -16q-16 0 -79.5 3 t-184.5 3q-59 0 -102 -1t-74 -2t-51.5 -2t-34.5 -1q-16 0 -12 22l8 43q2 16 18 17h35q27 0 50.5 4t42 20.5t34.5 49t33 88.5l106 376h-352l-237 -303q-43 -59 -75 -107t-32 -75q0 -53 78 -53h61q16 0 13 -17l-9 -47q-4 -18 -20 -18t-83 3t-196 3q-111 0 -167 -3t-74 -3 q-19 0 -17 20zM659 688h320l151 524q6 23 -11 26t-29 -9zM1163 1513q-4 10 6 21l293 235q29 23 70 23q27 0 46 -20.5t23.5 -47t-8 -53t-45.5 -41.5l-356 -139q-12 -6 -16 2z" />
<glyph unicode="&#xc2;" horiz-adv-x="1331" d="M-156 14l9 45q2 16 16 17h29q55 0 122.5 39t120.5 104l957 1133q10 12 19 16t34 4q23 0 56.5 3t74.5 11q29 4 49.5 10.5t32.5 6.5q27 0 20 -25l-303 -1132q-6 -25 -13 -58.5t-7 -54.5q0 -25 21.5 -41t52.5 -16h51q18 0 14 -17l-8 -49q-4 -16 -27 -16q-16 0 -79.5 3 t-184.5 3q-59 0 -102 -1t-74 -2t-51.5 -2t-34.5 -1q-16 0 -12 22l8 43q2 16 18 17h35q27 0 50.5 4t42 20.5t34.5 49t33 88.5l106 376h-352l-237 -303q-43 -59 -75 -107t-32 -75q0 -53 78 -53h61q16 0 13 -17l-9 -47q-4 -18 -20 -18t-83 3t-196 3q-111 0 -167 -3t-74 -3 q-19 0 -17 20zM659 688h320l151 524q6 23 -11 26t-29 -9zM1018 1520q-4 4 6 14l293 276q16 16 29 -4l157 -278q6 -10 -6 -17l-20 -16q-8 -8 -21 2l-156 121l-251 -123q-10 -6 -15 4z" />
<glyph unicode="&#xc3;" horiz-adv-x="1331" d="M-156 14l9 45q2 16 16 17h29q55 0 122.5 39t120.5 104l957 1133q10 12 19 16t34 4q23 0 56.5 3t74.5 11q29 4 49.5 10.5t32.5 6.5q27 0 20 -25l-303 -1132q-6 -25 -13 -58.5t-7 -54.5q0 -25 21.5 -41t52.5 -16h51q18 0 14 -17l-8 -49q-4 -16 -27 -16q-16 0 -79.5 3 t-184.5 3q-59 0 -102 -1t-74 -2t-51.5 -2t-34.5 -1q-16 0 -12 22l8 43q2 16 18 17h35q27 0 50.5 4t42 20.5t34.5 49t33 88.5l106 376h-352l-237 -303q-43 -59 -75 -107t-32 -75q0 -53 78 -53h61q16 0 13 -17l-9 -47q-4 -18 -20 -18t-83 3t-196 3q-111 0 -167 -3t-74 -3 q-19 0 -17 20zM659 688h320l151 524q6 23 -11 26t-29 -9zM983 1548q-6 4 0 21q10 33 29.5 63.5t42 55t48 39t48.5 14.5q47 0 83 -8.5t85 -20.5q74 -12 119 -12q43 0 68.5 19.5t37.5 41.5q6 12 17 8l28 -16q6 -4 6 -11t-10 -26q-14 -27 -32.5 -52.5t-40 -47t-45 -34.5 t-50.5 -13q-31 0 -67.5 4t-79.5 16q-47 12 -81 16.5t-59 4.5t-55.5 -22.5t-46.5 -51.5q-4 -4 -8 -6t-8 2z" />
<glyph unicode="&#xc4;" horiz-adv-x="1331" d="M-156 14l9 45q2 16 16 17h29q55 0 122.5 39t120.5 104l957 1133q10 12 19 16t34 4q23 0 56.5 3t74.5 11q29 4 49.5 10.5t32.5 6.5q27 0 20 -25l-303 -1132q-6 -25 -13 -58.5t-7 -54.5q0 -25 21.5 -41t52.5 -16h51q18 0 14 -17l-8 -49q-4 -16 -27 -16q-16 0 -79.5 3 t-184.5 3q-59 0 -102 -1t-74 -2t-51.5 -2t-34.5 -1q-16 0 -12 22l8 43q2 16 18 17h35q27 0 50.5 4t42 20.5t34.5 49t33 88.5l106 376h-352l-237 -303q-43 -59 -75 -107t-32 -75q0 -53 78 -53h61q16 0 13 -17l-9 -47q-4 -18 -20 -18t-83 3t-196 3q-111 0 -167 -3t-74 -3 q-19 0 -17 20zM659 688h320l151 524q6 23 -11 26t-29 -9zM983 1638q0 10 4 25.5t16.5 30t34 25t56.5 10.5q41 0 71.5 -25t30.5 -74q0 -47 -29.5 -72.5t-72.5 -25.5q-16 0 -36 4t-36 15.5t-27.5 31.5t-11.5 55zM1368 1638q0 10 5 25.5t17.5 30t35 25t57.5 10.5q41 0 69.5 -25 t28.5 -74q0 -47 -28.5 -72.5t-69.5 -25.5q-16 0 -37 4t-38 15.5t-28.5 31.5t-11.5 55z" />
<glyph unicode="&#xc5;" horiz-adv-x="1331" d="M-156 14l9 45q2 16 16 17h29q55 0 122.5 39t120.5 104l957 1133q10 12 19 16t34 4q23 0 56.5 1t74.5 5q31 4 50.5 9.5t31.5 5.5q25 0 18 -25l-301 -1122q-6 -25 -13 -58.5t-7 -54.5q0 -25 21.5 -41t52.5 -16h51q18 0 14 -17l-8 -49q-4 -16 -27 -16q-16 0 -79.5 3 t-184.5 3q-59 0 -102 -1t-74 -2t-51.5 -2t-34.5 -1q-16 0 -12 22l8 43q2 16 18 17h35q27 0 50.5 4t42 20.5t34.5 49t33 88.5l106 376h-352l-237 -303q-43 -59 -75 -107t-32 -75q0 -53 78 -53h61q16 0 13 -17l-9 -47q-4 -18 -20 -18t-83 3t-196 3q-111 0 -167 -3t-74 -3 q-19 0 -17 20zM659 688h320l151 524q6 23 -11 26t-29 -9zM1030 1640q0 45 21.5 80t55.5 56.5t77 33t86 11.5t84 -9.5t71.5 -30t50 -52t19.5 -74.5q0 -39 -19.5 -70t-53 -51.5t-76.5 -31.5t-91 -11q-45 0 -86 10t-71.5 29.5t-49 47t-18.5 62.5zM1157 1655q0 -57 34 -82 t73 -25q35 0 69.5 24.5t34.5 84.5q0 31 -11 51.5t-27.5 32.5t-35 17t-34.5 5q-35 0 -69 -27.5t-34 -80.5z" />
<glyph unicode="&#xc6;" horiz-adv-x="1957" d="M-221 18l8 41q6 16 16 17h37q61 0 130 40t128 105l942 1041q10 10 6 22t-22 12h-78q-27 0 -18 19l16 51q2 12 23 12q10 0 46 -1t79 -1q43 -2 81.5 -3t55.5 -1h209q111 0 191.5 1t137.5 3q55 0 88 1t50 1q23 0 28.5 -8t12.5 -31l65 -278q2 -10 0 -12l-8 -9l-25 -12 q-14 -4 -24 12l-213 240q-6 12 -15.5 15t-21.5 3h-307l-193 -593h197q35 0 66.5 4t61.5 21.5t57.5 50t55.5 91.5q6 18 17 13l37 -8q12 -6 8 -17q-12 -29 -29.5 -85t-33 -117.5t-29 -119t-15.5 -87.5q-4 -10 -7 -11.5t-9 -1.5l-37 4q-10 0 -11 3.5t-1 13.5q0 55 -14.5 89 t-43 52t-70.5 24.5t-97 6.5h-123l-176 -557h446q53 0 93 18.5t87 59.5q16 14 43 43.5t54.5 62.5t52 62.5t35.5 44.5q12 12 24 4l25 -17q6 -4 8 -8t-4 -16l-103 -297q-10 -25 -18 -31t-27 -6q-14 0 -81.5 1t-165.5 3q-98 0 -214 1t-227 1h-188h-123q-47 0 -76 -2t-41 -3 t-18 -1q-12 0 -18.5 7t-2.5 17l4 41q6 16 17 17h78q59 0 93 27.5t50 80.5l139 447h-368l-287 -340q-47 -55 -77 -100.5t-30 -65.5q0 -25 18.5 -37t47.5 -12h61q18 0 13 -21l-4 -41q-4 -10 -8.5 -15t-16.5 -5q-16 0 -78.5 3t-171.5 3q-121 0 -178 -3t-76 -3q-16 -1 -16 24z M647 705h328l164 512q6 23 -2.5 25.5t-18.5 -9.5z" />
<glyph unicode="&#xc7;" horiz-adv-x="1359" d="M176 451q0 215 75 388t216 326q102 111 236.5 174.5t291.5 63.5q74 0 139.5 -17.5t131.5 -60.5q18 -16 44.5 -34.5t49.5 -18.5q41 0 53 53q6 18 21 12l32 -8q18 0 13 -20l-111 -426q-6 -16 -20 -13l-41 4q-12 0 -13 21q12 76 2 150.5t-44.5 134t-95 96.5t-148.5 37 q-109 0 -196 -53.5t-173 -180.5q-59 -84 -97 -172t-61.5 -172t-33 -159.5t-9.5 -135.5q0 -109 31 -180.5t75 -114.5t94 -60t91 -17q57 0 124 12t132.5 50t128 108.5t115.5 185.5q10 16 20 12l41 -12q10 -4 11.5 -7t1.5 -9l-148 -443q-6 -12 -20 -8l-41 8q-8 8 -4 17 q0 10 2 18t2 18q0 12 -8.5 22.5t-20.5 10.5q-31 0 -86 -24q-14 -6 -43 -15.5t-65.5 -18.5t-77.5 -15.5t-80 -6.5l-78 -110q74 -23 104.5 -53.5t30.5 -77.5q0 -41 -29.5 -76t-76 -62.5t-105.5 -43t-117 -15.5q-41 0 -41 33q0 12 6.5 22.5t18.5 10.5q20 0 49 5t56.5 18 t47 34.5t19.5 56.5q0 31 -27.5 54.5t-70.5 35.5l125 172q-102 10 -184.5 48t-141.5 100.5t-91 146t-32 181.5z" />
<glyph unicode="&#xc8;" horiz-adv-x="1386" d="M-10 10l8 53q2 12 14 13h66q61 0 94 28.5t49 79.5l314 973q12 41 7 68.5t-21.5 43t-40 21.5t-46.5 6h-65q-18 0 -13 21l13 45q4 10 8 13t16 3q10 0 43 -1t76 -1q45 -2 92 -3t84 -1h148h195q85 0 147 2q61 2 99 3t54 1q25 0 32 -8t13 -33l62 -274q4 -10 3 -13t-11 -10 l-25 -12q-8 -4 -25 12l-209 242q-16 16 -36 16h-320l-172 -530h176q33 0 64.5 4t61.5 20.5t58.5 51.5t57.5 94q6 12 16 12l37 -12q6 0 9 -4t-1 -8q-12 -29 -29.5 -86.5t-33 -119t-28.5 -118.5t-15 -86q-4 -10 -7 -11t-10 -1h-36q-10 4 -11.5 7t-1.5 13q0 55 -14 89t-43 51.5 t-71 23.5t-97 6h-102l-201 -620h459q53 0 96 21.5t84 56.5q16 14 44 43.5t55.5 62.5t52 62.5t36.5 44.5q8 14 25 4l24 -17q4 -4 6.5 -8t-1.5 -14l-107 -299q-6 -25 -16.5 -31t-28.5 -6q-12 0 -70.5 1t-146.5 3t-194 2h-212h-266q-47 0 -91 -1t-79 -1q-35 -2 -57.5 -3 t-32.5 -1q-14 0 -12 16zM695.5 1743.5q9.5 25.5 32 44t44.5 18.5q29 0 49.5 -14t36.5 -31l234 -233q10 -10 4 -17l-17 -20q0 -6 -12 0l-319 151q-41 20 -51.5 48t-1 53.5z" />
<glyph unicode="&#xc9;" horiz-adv-x="1386" d="M-10 10l8 53q2 12 14 13h66q61 0 94 28.5t49 79.5l314 973q12 41 7 68.5t-21.5 43t-40 21.5t-46.5 6h-65q-18 0 -13 21l13 45q4 10 8 13t16 3q10 0 43 -1t76 -1q45 -2 92 -3t84 -1h148h195q85 0 147 2q61 2 99 3t54 1q25 0 32 -8t13 -33l62 -274q4 -10 3 -13t-11 -10 l-25 -12q-8 -4 -25 12l-209 242q-16 16 -36 16h-320l-172 -530h176q33 0 64.5 4t61.5 20.5t58.5 51.5t57.5 94q6 12 16 12l37 -12q6 0 9 -4t-1 -8q-12 -29 -29.5 -86.5t-33 -119t-28.5 -118.5t-15 -86q-4 -10 -7 -11t-10 -1h-36q-10 4 -11.5 7t-1.5 13q0 55 -14 89t-43 51.5 t-71 23.5t-97 6h-102l-201 -620h459q53 0 96 21.5t84 56.5q16 14 44 43.5t55.5 62.5t52 62.5t36.5 44.5q8 14 25 4l24 -17q4 -4 6.5 -8t-1.5 -14l-107 -299q-6 -25 -16.5 -31t-28.5 -6q-12 0 -70.5 1t-146.5 3t-194 2h-212h-266q-47 0 -91 -1t-79 -1q-35 -2 -57.5 -3 t-32.5 -1q-14 0 -12 16zM885 1513q-4 10 6 21l293 235q29 23 69 23q27 0 46.5 -20.5t23.5 -47t-8 -53t-45 -41.5l-357 -139q-12 -6 -16 2z" />
<glyph unicode="&#xca;" horiz-adv-x="1386" d="M-10 10l8 53q2 12 14 13h66q61 0 94 28.5t49 79.5l314 973q12 41 7 68.5t-21.5 43t-40 21.5t-46.5 6h-65q-18 0 -13 21l13 45q4 10 8 13t16 3q10 0 43 -1t76 -1q45 -2 92 -3t84 -1h148h195q85 0 147 2q61 2 99 3t54 1q25 0 32 -8t13 -33l62 -274q4 -10 3 -13t-11 -10 l-25 -12q-8 -4 -25 12l-209 242q-16 16 -36 16h-320l-172 -530h176q33 0 64.5 4t61.5 20.5t58.5 51.5t57.5 94q6 12 16 12l37 -12q6 0 9 -4t-1 -8q-12 -29 -29.5 -86.5t-33 -119t-28.5 -118.5t-15 -86q-4 -10 -7 -11t-10 -1h-36q-10 4 -11.5 7t-1.5 13q0 55 -14 89t-43 51.5 t-71 23.5t-97 6h-102l-201 -620h459q53 0 96 21.5t84 56.5q16 14 44 43.5t55.5 62.5t52 62.5t36.5 44.5q8 14 25 4l24 -17q4 -4 6.5 -8t-1.5 -14l-107 -299q-6 -25 -16.5 -31t-28.5 -6q-12 0 -70.5 1t-146.5 3t-194 2h-212h-266q-47 0 -91 -1t-79 -1q-35 -2 -57.5 -3 t-32.5 -1q-14 0 -12 16zM739 1520q-4 4 6 14l293 276q16 16 29 -4l158 -278q6 -10 -6 -17l-21 -16q-8 -8 -20 2l-156 121l-252 -123q-10 -6 -14 4z" />
<glyph unicode="&#xcb;" horiz-adv-x="1386" d="M-10 10l8 53q2 12 14 13h66q61 0 94 28.5t49 79.5l314 973q12 41 7 68.5t-21.5 43t-40 21.5t-46.5 6h-65q-18 0 -13 21l13 45q4 10 8 13t16 3q10 0 43 -1t76 -1q45 -2 92 -3t84 -1h148h195q85 0 147 2q61 2 99 3t54 1q25 0 32 -8t13 -33l62 -274q4 -10 3 -13t-11 -10 l-25 -12q-8 -4 -25 12l-209 242q-16 16 -36 16h-320l-172 -530h176q33 0 64.5 4t61.5 20.5t58.5 51.5t57.5 94q6 12 16 12l37 -12q6 0 9 -4t-1 -8q-12 -29 -29.5 -86.5t-33 -119t-28.5 -118.5t-15 -86q-4 -10 -7 -11t-10 -1h-36q-10 4 -11.5 7t-1.5 13q0 55 -14 89t-43 51.5 t-71 23.5t-97 6h-102l-201 -620h459q53 0 96 21.5t84 56.5q16 14 44 43.5t55.5 62.5t52 62.5t36.5 44.5q8 14 25 4l24 -17q4 -4 6.5 -8t-1.5 -14l-107 -299q-6 -25 -16.5 -31t-28.5 -6q-12 0 -70.5 1t-146.5 3t-194 2h-212h-266q-47 0 -91 -1t-79 -1q-35 -2 -57.5 -3 t-32.5 -1q-14 0 -12 16zM684 1638q0 10 4 25.5t16.5 30t34 25t56.5 10.5q41 0 71.5 -25t30.5 -74q0 -47 -29.5 -72.5t-72.5 -25.5q-16 0 -36 4t-36 15.5t-27.5 31.5t-11.5 55zM1069 1638q0 10 5 25.5t17.5 30t35 25t57.5 10.5q41 0 69.5 -25t28.5 -74q0 -47 -28.5 -72.5 t-69.5 -25.5q-16 0 -37 4t-38 15.5t-28.5 31.5t-11.5 55z" />
<glyph unicode="&#xcc;" horiz-adv-x="765" d="M-20 14l12 45q0 16 16 17h78q45 0 71.5 8t42 25.5t26 45t20.5 66.5l258 940q20 76 0.5 105.5t-58.5 29.5h-94q-20 0 -20 17l12 53q0 12 25 12q18 0 97 -3t202 -3q133 0 200.5 3t89.5 3q31 0 25 -24l-12 -41q0 -16 -21 -17h-53q-66 0 -103.5 -24.5t-60.5 -112.5l-254 -944 q-20 -74 2.5 -106.5t87.5 -32.5h74q18 0 12 -21l-4 -41q-4 -12 -6 -16t-18 -4q-18 0 -94 3t-234 3q-129 0 -207 -3t-96 -3q-16 0 -16 20zM363.5 1743.5q9.5 25.5 32 44t44.5 18.5q29 0 49.5 -14t36.5 -31l234 -233q4 -4 6 -8t-2 -9l-16 -20q0 -6 -13 0l-319 151 q-41 20 -51.5 48t-1 53.5z" />
<glyph unicode="&#xcd;" horiz-adv-x="765" d="M-20 14l12 45q0 16 16 17h78q45 0 71.5 8t42 25.5t26 45t20.5 66.5l258 940q20 76 0.5 105.5t-58.5 29.5h-94q-20 0 -20 17l12 53q0 12 25 12q18 0 97 -3t202 -3q133 0 200.5 3t89.5 3q31 0 25 -24l-12 -41q0 -16 -21 -17h-53q-66 0 -103.5 -24.5t-60.5 -112.5l-254 -944 q-20 -74 2.5 -106.5t87.5 -32.5h74q18 0 12 -21l-4 -41q-4 -12 -6 -16t-18 -4q-18 0 -94 3t-234 3q-129 0 -207 -3t-96 -3q-16 0 -16 20zM655 1513q-4 10 7 21l292 235q29 23 70 23q27 0 46.5 -20.5t23.5 -47t-8.5 -53t-45.5 -41.5l-356 -139q-12 -6 -16 2z" />
<glyph unicode="&#xce;" horiz-adv-x="765" d="M-20 14l12 45q0 16 16 17h78q45 0 71.5 8t42 25.5t26 45t20.5 66.5l258 940q20 76 0.5 105.5t-58.5 29.5h-94q-20 0 -20 17l12 53q0 12 25 12q18 0 97 -3t202 -3q133 0 200.5 3t89.5 3q31 0 25 -24l-12 -41q0 -16 -21 -17h-53q-66 0 -103.5 -24.5t-60.5 -112.5l-254 -944 q-20 -74 2.5 -106.5t87.5 -32.5h74q18 0 12 -21l-4 -41q-4 -12 -6 -16t-18 -4q-18 0 -94 3t-234 3q-129 0 -207 -3t-96 -3q-16 0 -16 20zM449 1520q-4 4 6 14l293 276q16 16 28 -4l158 -278q6 -10 -6 -17l-21 -16q-8 -8 -20 2l-156 121l-252 -123q-10 -6 -14 4z" />
<glyph unicode="&#xcf;" horiz-adv-x="765" d="M-20 14l12 45q0 16 16 17h78q45 0 71.5 8t42 25.5t26 45t20.5 66.5l258 940q20 76 0.5 105.5t-58.5 29.5h-94q-20 0 -20 17l12 53q0 12 25 12q18 0 97 -3t202 -3q133 0 200.5 3t89.5 3q31 0 25 -24l-12 -41q0 -16 -21 -17h-53q-66 0 -103.5 -24.5t-60.5 -112.5l-254 -944 q-20 -74 2.5 -106.5t87.5 -32.5h74q18 0 12 -21l-4 -41q-4 -12 -6 -16t-18 -4q-18 0 -94 3t-234 3q-129 0 -207 -3t-96 -3q-16 0 -16 20zM414 1638q0 10 4 25.5t16 30t33.5 25t56.5 10.5q41 0 72 -25t31 -74q0 -47 -30 -72.5t-73 -25.5q-16 0 -35.5 4t-36 15.5t-27.5 31.5 t-11 55zM799 1638q0 10 5 25.5t17.5 30t35 25t56.5 10.5q41 0 70 -25t29 -74q0 -47 -29 -72.5t-70 -25.5q-16 0 -36.5 4t-38 15.5t-28.5 31.5t-11 55z" />
<glyph unicode="&#xd0;" horiz-adv-x="1630" d="M14 14l9 45q6 16 22 17h41q27 0 51.5 6t46 22.5t40 48t30.5 80.5l106 435h-204q-23 0 -17 16l17 53q6 12 20 13h205l108 444q6 29 1 48.5t-18 31.5t-31.5 17t-39.5 5h-90q-20 0 -16 17l12 45q2 14 27 14q104 0 202.5 3t196.5 3q102 0 205.5 -6t199 -26.5t179.5 -57.5 t149 -100q94 -98 123 -188.5t29 -184.5q0 -152 -42 -265.5t-101.5 -195.5t-124 -134t-111.5 -79q-98 -57 -198.5 -86.5t-190.5 -43t-166 -15.5t-127 -2q-23 0 -58.5 1t-74.5 2t-76 2t-57 1q-141 0 -195.5 -3t-66.5 -3q-19 0 -15 20zM471 131q0 -29 36 -42t79 -13 q154 0 291 35.5t245 126.5q49 39 95.5 100t81 137t56 161t21.5 175q0 98 -36.5 189.5t-98.5 150.5q-53 53 -100 79.5t-101 43.5q-74 20 -128 23t-76 3q-25 0 -56.5 -3t-38.5 -19l-127 -528h304q20 0 16 -17l-16 -53q-4 -12 -29 -12h-295l-111 -451q-12 -55 -12 -86z" />
<glyph unicode="&#xd1;" horiz-adv-x="1564" d="M-31 16l6 43q4 6 7.5 11.5t13.5 5.5h45q72 0 115 57t90 195l250 790q29 92 2 135t-92 43h-78q-23 0 -17 25l8 37q4 10 8.5 15t16.5 5q8 0 30.5 -1t62.5 -2t102.5 -2t152.5 -1q29 0 40 -15.5t22 -37.5l454 -946q12 -18 20.5 -13t20.5 41l217 664q41 125 31 178t-63 53h-62 q-27 0 -20 21l4 45q4 6 7 11t13 5q18 0 71.5 -3t162.5 -3q80 0 116.5 3t59.5 3q27 0 20 -28l-8 -37q0 -16 -16 -17h-53q-37 0 -69 -38.5t-63 -127.5l-376 -1077q-10 -25 -20.5 -37t-20.5 -16q-35 0 -54 41l-516 1053q-10 16 -19 15t-13 -19l-205 -684q-53 -176 -47 -253 t71 -77h78q20 0 21 -21l-9 -43q-4 -10 -6 -14t-18 -4t-78.5 3t-167.5 3q-109 0 -162 -3t-71 -3q-19 -1 -15 22zM844 1548q-6 4 0 21q10 33 29.5 63.5t42 55t48 39t48.5 14.5q47 0 82.5 -8.5t85.5 -20.5q74 -12 118 -12q43 0 69 19.5t38 41.5q6 12 16 8l29 -16q6 -4 6 -11 t-10 -26q-14 -27 -32.5 -52.5t-40 -47t-45 -34.5t-50.5 -13q-31 0 -67.5 4t-80.5 16q-47 12 -80.5 16.5t-58.5 4.5t-55.5 -22.5t-46.5 -51.5q-4 -4 -8 -6t-9 2z" />
<glyph unicode="&#xd2;" horiz-adv-x="1486" d="M190 575q0 160 55.5 309.5t155 264.5t235.5 184.5t300 69.5q123 0 225.5 -41t176 -118t114.5 -187.5t41 -251.5q0 -154 -52 -303.5t-150.5 -268t-238 -191.5t-313.5 -73q-31 0 -74.5 4t-93 17.5t-101.5 40t-99 73.5q-96 92 -138.5 212t-42.5 259zM399 436 q0 -96 23.5 -165.5t64.5 -115.5t96.5 -69t118.5 -23q113 0 215.5 79t180.5 206t125 289t49 328q0 154 -74 247t-213 93q-92 0 -166 -43t-129 -109q-63 -72 -116.5 -161t-92.5 -184t-60.5 -191.5t-21.5 -180.5zM662.5 1743.5q9.5 25.5 32 44t44.5 18.5q29 0 49.5 -14 t36.5 -31l234 -233q10 -10 4 -17l-16 -20q0 -6 -13 0l-319 151q-41 20 -51.5 48t-1 53.5z" />
<glyph unicode="&#xd3;" horiz-adv-x="1486" d="M190 575q0 160 55.5 309.5t155 264.5t235.5 184.5t300 69.5q123 0 225.5 -41t176 -118t114.5 -187.5t41 -251.5q0 -154 -52 -303.5t-150.5 -268t-238 -191.5t-313.5 -73q-31 0 -74.5 4t-93 17.5t-101.5 40t-99 73.5q-96 92 -138.5 212t-42.5 259zM399 436 q0 -96 23.5 -165.5t64.5 -115.5t96.5 -69t118.5 -23q113 0 215.5 79t180.5 206t125 289t49 328q0 154 -74 247t-213 93q-92 0 -166 -43t-129 -109q-63 -72 -116.5 -161t-92.5 -184t-60.5 -191.5t-21.5 -180.5zM954 1513q-4 10 7 21l292 235q29 23 70 23q27 0 46.5 -20.5 t23.5 -47t-8.5 -53t-45.5 -41.5l-356 -139q-12 -6 -16 2z" />
<glyph unicode="&#xd4;" horiz-adv-x="1486" d="M190 575q0 160 55.5 309.5t155 264.5t235.5 184.5t300 69.5q123 0 225.5 -41t176 -118t114.5 -187.5t41 -251.5q0 -154 -52 -303.5t-150.5 -268t-238 -191.5t-313.5 -73q-31 0 -74.5 4t-93 17.5t-101.5 40t-99 73.5q-96 92 -138.5 212t-42.5 259zM399 436 q0 -96 23.5 -165.5t64.5 -115.5t96.5 -69t118.5 -23q113 0 215.5 79t180.5 206t125 289t49 328q0 154 -74 247t-213 93q-92 0 -166 -43t-129 -109q-63 -72 -116.5 -161t-92.5 -184t-60.5 -191.5t-21.5 -180.5zM727 1520q-4 4 6 14l293 276q16 16 29 -4l157 -278 q6 -10 -6 -17l-20 -16q-8 -8 -21 2l-155 121l-252 -123q-10 -6 -15 4z" />
<glyph unicode="&#xd5;" horiz-adv-x="1486" d="M190 575q0 160 55.5 309.5t155 264.5t235.5 184.5t300 69.5q123 0 225.5 -41t176 -118t114.5 -187.5t41 -251.5q0 -154 -52 -303.5t-150.5 -268t-238 -191.5t-313.5 -73q-31 0 -74.5 4t-93 17.5t-101.5 40t-99 73.5q-96 92 -138.5 212t-42.5 259zM399 436 q0 -96 23.5 -165.5t64.5 -115.5t96.5 -69t118.5 -23q113 0 215.5 79t180.5 206t125 289t49 328q0 154 -74 247t-213 93q-92 0 -166 -43t-129 -109q-63 -72 -116.5 -161t-92.5 -184t-60.5 -191.5t-21.5 -180.5zM651 1548q-6 4 0 21q10 33 29.5 63.5t42 55t48.5 39t48 14.5 q47 0 83 -8.5t85 -20.5q74 -12 119 -12q43 0 68.5 19.5t37.5 41.5q6 12 17 8l28 -16q6 -4 6.5 -11t-10.5 -26q-14 -27 -32.5 -52.5t-40 -47t-45 -34.5t-50.5 -13q-31 0 -67.5 4t-79.5 16q-47 12 -81 16.5t-58 4.5q-25 0 -55.5 -22.5t-47.5 -51.5q-4 -4 -8 -6t-8 2z" />
<glyph unicode="&#xd6;" horiz-adv-x="1486" d="M190 575q0 160 55.5 309.5t155 264.5t235.5 184.5t300 69.5q123 0 225.5 -41t176 -118t114.5 -187.5t41 -251.5q0 -154 -52 -303.5t-150.5 -268t-238 -191.5t-313.5 -73q-31 0 -74.5 4t-93 17.5t-101.5 40t-99 73.5q-96 92 -138.5 212t-42.5 259zM399 436 q0 -96 23.5 -165.5t64.5 -115.5t96.5 -69t118.5 -23q113 0 215.5 79t180.5 206t125 289t49 328q0 154 -74 247t-213 93q-92 0 -166 -43t-129 -109q-63 -72 -116.5 -161t-92.5 -184t-60.5 -191.5t-21.5 -180.5zM692 1638q0 10 4 25.5t16.5 30t34 25t56.5 10.5q41 0 71.5 -25 t30.5 -74q0 -47 -29.5 -72.5t-72.5 -25.5q-16 0 -35.5 4t-36 15.5t-28 31.5t-11.5 55zM1077 1638q0 10 5 25.5t17.5 30t35 25t57.5 10.5q41 0 69.5 -25t28.5 -74q0 -47 -28.5 -72.5t-69.5 -25.5q-16 0 -36.5 4t-38 15.5t-29 31.5t-11.5 55z" />
<glyph unicode="&#xd7;" d="M147 188l295 287l-295 291l95 94l299 -299l295 299l90 -90l-295 -291l295 -291l-90 -98l-304 299l-299 -299z" />
<glyph unicode="&#xd8;" horiz-adv-x="1486" d="M190 555q0 166 53.5 319.5t152 270.5t237.5 187.5t311 70.5q92 0 175 -23.5t145 -70.5l86 104q4 10 16 4l49 -37q12 -6 0 -24l-86 -103q80 -78 122 -195.5t42 -240.5q0 -158 -51 -309.5t-148.5 -271t-236.5 -193.5t-314 -74q-29 0 -69.5 2t-87.5 13.5t-96.5 34 t-94.5 63.5l-82 -111q-10 -10 -20 -4l-45 41q-8 8 0 17l90 114q-78 86 -113 198t-35 218zM399 438q0 -59 8.5 -103t20.5 -85l762 962q-31 41 -83 67t-118 26q-92 0 -166.5 -42t-136.5 -114q-61 -68 -113.5 -157t-91.5 -185t-60.5 -192.5t-21.5 -176.5zM473 172 q41 -53 100.5 -82t124.5 -29q113 0 217.5 79t183.5 207t126 288t47 323q0 121 -37 177z" />
<glyph unicode="&#xd9;" horiz-adv-x="1474" d="M231 344q0 33 5.5 71t11.5 73.5t13 66.5t11 47l177 567q23 72 4 99.5t-62 27.5h-74q-6 0 -11 3.5t-1 13.5l8 49q4 10 8.5 13t20.5 3q18 0 79.5 -3t203.5 -3q123 0 180 3t74 3q20 0 20 -24l-8 -41q-4 -16 -21 -17h-57q-16 0 -32.5 -3t-33 -13t-31 -32.5t-26.5 -59.5 l-168 -549q-4 -16 -14 -51t-20.5 -76t-18.5 -83t-8 -75q0 -94 34.5 -148t81 -82t93.5 -36t69 -8q72 0 144.5 23.5t122.5 66.5q35 31 66.5 68.5t59 87t53 113t50.5 147.5l147 524q29 104 14.5 145t-63.5 41h-65q-23 0 -19 17l6 45q4 10 8.5 15t20.5 5q18 0 76.5 -3t157.5 -3 q90 0 129 3t55 3q27 0 20 -24l-8 -41q0 -16 -20 -17h-33q-49 0 -82 -42t-57 -119l-176 -562q-43 -135 -96.5 -246.5t-130.5 -191.5t-180 -123t-245 -43q-100 0 -185 23.5t-146.5 70t-96.5 117t-35 164.5zM759 1743.5q9 25.5 31.5 44t45.5 18.5q29 0 49 -14t37 -31l233 -233 q10 -10 4 -17l-16 -20q0 -6 -13 0l-319 151q-41 20 -51 48t-1 53.5z" />
<glyph unicode="&#xda;" horiz-adv-x="1474" d="M231 344q0 33 5.5 71t11.5 73.5t13 66.5t11 47l177 567q23 72 4 99.5t-62 27.5h-74q-6 0 -11 3.5t-1 13.5l8 49q4 10 8.5 13t20.5 3q18 0 79.5 -3t203.5 -3q123 0 180 3t74 3q20 0 20 -24l-8 -41q-4 -16 -21 -17h-57q-16 0 -32.5 -3t-33 -13t-31 -32.5t-26.5 -59.5 l-168 -549q-4 -16 -14 -51t-20.5 -76t-18.5 -83t-8 -75q0 -94 34.5 -148t81 -82t93.5 -36t69 -8q72 0 144.5 23.5t122.5 66.5q35 31 66.5 68.5t59 87t53 113t50.5 147.5l147 524q29 104 14.5 145t-63.5 41h-65q-23 0 -19 17l6 45q4 10 8.5 15t20.5 5q18 0 76.5 -3t157.5 -3 q90 0 129 3t55 3q27 0 20 -24l-8 -41q0 -16 -20 -17h-33q-49 0 -82 -42t-57 -119l-176 -562q-43 -135 -96.5 -246.5t-130.5 -191.5t-180 -123t-245 -43q-100 0 -185 23.5t-146.5 70t-96.5 117t-35 164.5zM1051 1513q-4 10 6 21l293 235q29 23 69 23q27 0 46.5 -20.5 t23.5 -47t-8.5 -53t-44.5 -41.5l-357 -139q-12 -6 -16 2z" />
<glyph unicode="&#xdb;" horiz-adv-x="1474" d="M231 344q0 33 5.5 71t11.5 73.5t13 66.5t11 47l177 567q23 72 4 99.5t-62 27.5h-74q-6 0 -11 3.5t-1 13.5l8 49q4 10 8.5 13t20.5 3q18 0 79.5 -3t203.5 -3q123 0 180 3t74 3q20 0 20 -24l-8 -41q-4 -16 -21 -17h-57q-16 0 -32.5 -3t-33 -13t-31 -32.5t-26.5 -59.5 l-168 -549q-4 -16 -14 -51t-20.5 -76t-18.5 -83t-8 -75q0 -94 34.5 -148t81 -82t93.5 -36t69 -8q72 0 144.5 23.5t122.5 66.5q35 31 66.5 68.5t59 87t53 113t50.5 147.5l147 524q29 104 14.5 145t-63.5 41h-65q-23 0 -19 17l6 45q4 10 8.5 15t20.5 5q18 0 76.5 -3t157.5 -3 q90 0 129 3t55 3q27 0 20 -24l-8 -41q0 -16 -20 -17h-33q-49 0 -82 -42t-57 -119l-176 -562q-43 -135 -96.5 -246.5t-130.5 -191.5t-180 -123t-245 -43q-100 0 -185 23.5t-146.5 70t-96.5 117t-35 164.5zM844 1520q-4 4 6 14l293 276q16 16 28 -4l158 -278q6 -10 -6 -17 l-20 -16q-8 -8 -21 2l-156 121l-252 -123q-10 -6 -14 4z" />
<glyph unicode="&#xdc;" horiz-adv-x="1474" d="M231 344q0 33 5.5 71t11.5 73.5t13 66.5t11 47l177 567q23 72 4 99.5t-62 27.5h-74q-6 0 -11 3.5t-1 13.5l8 49q4 10 8.5 13t20.5 3q18 0 79.5 -3t203.5 -3q123 0 180 3t74 3q20 0 20 -24l-8 -41q-4 -16 -21 -17h-57q-16 0 -32.5 -3t-33 -13t-31 -32.5t-26.5 -59.5 l-168 -549q-4 -16 -14 -51t-20.5 -76t-18.5 -83t-8 -75q0 -94 34.5 -148t81 -82t93.5 -36t69 -8q72 0 144.5 23.5t122.5 66.5q35 31 66.5 68.5t59 87t53 113t50.5 147.5l147 524q29 104 14.5 145t-63.5 41h-65q-23 0 -19 17l6 45q4 10 8.5 15t20.5 5q18 0 76.5 -3t157.5 -3 q90 0 129 3t55 3q27 0 20 -24l-8 -41q0 -16 -20 -17h-33q-49 0 -82 -42t-57 -119l-176 -562q-43 -135 -96.5 -246.5t-130.5 -191.5t-180 -123t-245 -43q-100 0 -185 23.5t-146.5 70t-96.5 117t-35 164.5zM809 1638q0 10 4 25.5t16.5 30t34 25t56.5 10.5q41 0 71.5 -25 t30.5 -74q0 -47 -29.5 -72.5t-72.5 -25.5q-16 0 -36 4t-36.5 15.5t-27.5 31.5t-11 55zM1194 1638q0 10 5 25.5t17.5 30t35 25t57.5 10.5q41 0 69.5 -25t28.5 -74q0 -47 -28.5 -72.5t-69.5 -25.5q-16 0 -37 4t-38 15.5t-28.5 31.5t-11.5 55z" />
<glyph unicode="&#xdd;" horiz-adv-x="1191" d="M147 1313l9 49q6 16 20 16q10 0 27.5 -1t45 -2t69.5 -2t104 -1q133 0 192.5 3t77.5 3q20 0 21 -16l-4 -49q-6 -16 -21 -17h-53q-49 0 -56.5 -29.5t3.5 -60.5l163 -551q6 -25 17.5 -25.5t23.5 21.5q6 10 33 50l64 96q37 55 76.5 116.5t75.5 117.5t61.5 98t29.5 59 q20 59 2 83.5t-71 24.5h-45q-18 0 -13 21l5 45q0 10 4 13t20 3q23 0 79 -3t142 -3q96 0 145.5 3t71.5 3q20 0 21 -20l-8 -41q0 -20 -17 -21h-37q-53 0 -86.5 -23.5t-64.5 -64.5q-8 -12 -42 -58t-79 -110.5t-97 -137.5t-98.5 -137.5t-79 -111.5t-38.5 -59q-23 -35 -38.5 -72 t-31.5 -104l-49 -228q-16 -80 2 -97t72 -17h45q16 0 16 -17l-8 -45q0 -20 -21 -20q-25 0 -82 3t-180 3q-70 0 -117 -1t-77.5 -2t-49 -2t-26.5 -1q-16 0 -16 20l8 45q0 16 20 17h45q72 0 98.5 29.5t36.5 74.5l66 303q6 23 4 55.5t-8 51.5l-213 629q-27 78 -127 77h-45 q-17 1 -17 17zM848 1513q-4 10 6 21l293 235q29 23 70 23q27 0 46 -20.5t23 -47t-8 -53t-45 -41.5l-356 -139q-12 -6 -17 2z" />
<glyph unicode="&#xde;" horiz-adv-x="1265" d="M37 14l8 45q0 16 16 17h45q33 0 56.5 13t39 34.5t26 50.5t18.5 59l246 926q6 25 9 48.5t-1 44t-18.5 32.5t-43.5 12h-86q-12 0 -12 21l14 45q4 16 19 16q16 0 93 -3t193 -3q98 0 165 3t89 3q16 0 20.5 -4t4.5 -16l-8 -41q-4 -10 -8 -15.5t-17 -5.5h-49q-47 0 -79 -32.5 t-48 -85.5l-20 -64h73q147 0 241.5 -20.5t168.5 -81.5q33 -27 56.5 -53.5t39 -57.5t21.5 -69.5t6 -90.5q0 -80 -34 -158.5t-107.5 -142t-188.5 -102.5t-276 -39q-68 0 -118 3t-91 13l-25 -94q-16 -57 -4 -101t61 -44h78q23 0 17 -21l-4 -45q-4 -10 -8.5 -13t-16.5 -3 q-18 0 -81.5 3t-197.5 3q-123 0 -183 -3t-79 -3q-20 0 -20 20zM522 395q27 -12 77 -18t93 -6q98 0 170 35.5t119 91t69.5 123t22.5 133.5q0 90 -31.5 146t-77.5 88t-96.5 43t-89.5 11h-45q-27 0 -43 -6z" />
<glyph unicode="&#xdf;" horiz-adv-x="972" d="M-475 -485q0 47 23.5 74.5t70.5 27.5q43 0 67.5 -31.5t30.5 -66.5q6 -41 50 -41q61 0 122.5 112.5t133.5 337.5q12 39 29.5 105.5t38 147.5t42 167t42 165t36.5 141.5t29 97.5q20 66 41.5 132t49 130.5t65.5 127t91 122.5q20 20 53 44.5t75 46t90.5 35t97.5 13.5 q123 0 182 -54.5t59 -131.5q0 -98 -58 -177t-138 -151q-20 -16 -42 -35.5t-40 -42.5t-29.5 -51.5t-11.5 -63.5q0 -59 28.5 -109t57.5 -91q12 -16 27.5 -41t30 -56.5t23.5 -68.5t9 -76q0 -59 -22.5 -109.5t-62.5 -87.5t-96 -57t-122 -20q-98 0 -151.5 32.5t-53.5 85.5 q0 31 21.5 58.5t56.5 27.5q37 0 59.5 -22.5t34.5 -59.5q12 -57 66 -57q47 0 76.5 35t29.5 100q2 27 -8 55.5t-24.5 56t-30 52.5t-23.5 45q-29 43 -55.5 94.5t-26.5 118.5q0 47 18.5 89t44 77t54.5 64.5t51 52.5q74 74 98.5 146.5t24.5 150.5q0 55 -31.5 97t-87.5 42 q-61 0 -105 -47t-78 -123t-60.5 -172t-53.5 -195q-18 -72 -45.5 -177t-59.5 -222t-67.5 -234.5t-70.5 -218.5q-35 -100 -86.5 -196t-116 -173t-143 -124t-166.5 -47q-72 0 -118 35t-46 88z" />
<glyph unicode="&#xe0;" horiz-adv-x="956" d="M45 127q0 68 22.5 148.5t62.5 161.5t93 156t115.5 132t131.5 92t136 35q68 0 102.5 -22.5t53.5 -47.5l33 58q10 16 32 16h111q18 0 12 -20q-14 -33 -36.5 -92.5t-46 -121t-43 -114.5t-25.5 -74q-4 -14 -17.5 -59t-29 -95.5t-27.5 -93.5t-12 -51q0 -16 6 -20t18 -4 q10 0 29.5 15t39 35.5t36 40t22.5 27.5q12 12 21 7l24 -19q6 -6 0 -24q-8 -16 -36.5 -51.5t-72.5 -71t-99.5 -63t-114.5 -27.5q-66 0 -66 53q0 10 3 26.5t12.5 47t26 82t44.5 130.5l-12 5q-33 -47 -79 -107.5t-101.5 -113t-116.5 -88t-125 -35.5q-20 0 -43 11t-41 30.5 t-30.5 46t-12.5 59.5zM246 184q0 -66 49 -65q29 0 80 48t103 111.5t95 126t58 91.5q23 43 36 89t13 95q0 25 -25.5 57.5t-68.5 32.5q-41 0 -84 -34t-84 -91q-43 -61 -76 -124.5t-54.5 -124t-31.5 -115t-10 -97.5zM444.5 1180.5q-6.5 25.5 1 48t27 38t43.5 15.5 q29 0 45.5 -15.5t32.5 -33.5l168 -236q8 -10 2 -16l-19 -18q-6 -6 -20 0l-246 172q-28 20 -34.5 45.5z" />
<glyph unicode="&#xe1;" horiz-adv-x="956" d="M45 127q0 68 22.5 148.5t62.5 161.5t93 156t115.5 132t131.5 92t136 35q68 0 102.5 -22.5t53.5 -47.5l33 58q10 16 32 16h111q18 0 12 -20q-14 -33 -36.5 -92.5t-46 -121t-43 -114.5t-25.5 -74q-4 -14 -17.5 -59t-29 -95.5t-27.5 -93.5t-12 -51q0 -16 6 -20t18 -4 q10 0 29.5 15t39 35.5t36 40t22.5 27.5q12 12 21 7l24 -19q6 -6 0 -24q-8 -16 -36.5 -51.5t-72.5 -71t-99.5 -63t-114.5 -27.5q-66 0 -66 53q0 10 3 26.5t12.5 47t26 82t44.5 130.5l-12 5q-33 -47 -79 -107.5t-101.5 -113t-116.5 -88t-125 -35.5q-20 0 -43 11t-41 30.5 t-30.5 46t-12.5 59.5zM246 184q0 -66 49 -65q29 0 80 48t103 111.5t95 126t58 91.5q23 43 36 89t13 95q0 25 -25.5 57.5t-68.5 32.5q-41 0 -84 -34t-84 -91q-43 -61 -76 -124.5t-54.5 -124t-31.5 -115t-10 -97.5zM621 981q-4 8 2 14l245 217q47 41 86 41q25 0 43.5 -18 t22.5 -43t-8.5 -51.5t-48.5 -42.5l-312 -135q-12 -6 -16 0z" />
<glyph unicode="&#xe2;" horiz-adv-x="956" d="M45 127q0 68 22.5 148.5t62.5 161.5t93 156t115.5 132t131.5 92t136 35q68 0 102.5 -22.5t53.5 -47.5l33 58q10 16 32 16h111q18 0 12 -20q-14 -33 -36.5 -92.5t-46 -121t-43 -114.5t-25.5 -74q-4 -14 -17.5 -59t-29 -95.5t-27.5 -93.5t-12 -51q0 -16 6 -20t18 -4 q10 0 29.5 15t39 35.5t36 40t22.5 27.5q12 12 21 7l24 -19q6 -6 0 -24q-8 -16 -36.5 -51.5t-72.5 -71t-99.5 -63t-114.5 -27.5q-66 0 -66 53q0 10 3 26.5t12.5 47t26 82t44.5 130.5l-12 5q-33 -47 -79 -107.5t-101.5 -113t-116.5 -88t-125 -35.5q-20 0 -43 11t-41 30.5 t-30.5 46t-12.5 59.5zM246 184q0 -66 49 -65q29 0 80 48t103 111.5t95 126t58 91.5q23 43 36 89t13 95q0 25 -25.5 57.5t-68.5 32.5q-41 0 -84 -34t-84 -91q-43 -61 -76 -124.5t-54.5 -124t-31.5 -115t-10 -97.5zM477 995q-6 6 4 17l269 293q18 18 28 -11l101 -295 q2 -10 -5 -14l-16 -10q-10 -6 -16 0l-123 135l-211 -133q-12 -6 -19 2z" />
<glyph unicode="&#xe3;" horiz-adv-x="956" d="M45 127q0 68 22.5 148.5t62.5 161.5t93 156t115.5 132t131.5 92t136 35q68 0 102.5 -22.5t53.5 -47.5l33 58q10 16 32 16h111q18 0 12 -20q-14 -33 -36.5 -92.5t-46 -121t-43 -114.5t-25.5 -74q-4 -14 -17.5 -59t-29 -95.5t-27.5 -93.5t-12 -51q0 -16 6 -20t18 -4 q10 0 29.5 15t39 35.5t36 40t22.5 27.5q12 12 21 7l24 -19q6 -6 0 -24q-8 -16 -36.5 -51.5t-72.5 -71t-99.5 -63t-114.5 -27.5q-66 0 -66 53q0 10 3 26.5t12.5 47t26 82t44.5 130.5l-12 5q-33 -47 -79 -107.5t-101.5 -113t-116.5 -88t-125 -35.5q-20 0 -43 11t-41 30.5 t-30.5 46t-12.5 59.5zM246 184q0 -66 49 -65q29 0 80 48t103 111.5t95 126t58 91.5q23 43 36 89t13 95q0 25 -25.5 57.5t-68.5 32.5q-41 0 -84 -34t-84 -91q-43 -61 -76 -124.5t-54.5 -124t-31.5 -115t-10 -97.5zM438 999q-6 6 0 21q10 29 28.5 58.5t42 53t49.5 38t52 14.5 q25 0 49.5 -6.5t61.5 -16.5q29 -8 50.5 -11t55.5 -3q35 0 58.5 19.5t36.5 41.5q6 12 16 9l29 -17q14 -6 -4 -37q-29 -53 -73 -96t-87 -43q-31 0 -60.5 6t-66.5 17q-31 8 -49.5 13t-40.5 5q-29 0 -59.5 -22.5t-47.5 -51.5q-6 -12 -16 -8z" />
<glyph unicode="&#xe4;" horiz-adv-x="956" d="M45 127q0 68 22.5 148.5t62.5 161.5t93 156t115.5 132t131.5 92t136 35q68 0 102.5 -22.5t53.5 -47.5l33 58q10 16 32 16h111q18 0 12 -20q-14 -33 -37.5 -92.5t-47 -121t-42 -114.5t-24.5 -74q-4 -14 -17.5 -59t-29 -95.5t-27.5 -93.5t-12 -51q0 -16 6 -20t18 -4 q10 0 29.5 15t39 35.5t36 40t22.5 27.5q12 12 21 7l24 -19q6 -6 0 -24q-8 -16 -36.5 -51.5t-72.5 -71t-99.5 -63t-114.5 -27.5q-66 0 -66 53q0 10 3 26.5t12.5 47t26 82t44.5 130.5l-12 5q-33 -47 -79 -107.5t-101.5 -113t-116.5 -88t-125 -35.5q-20 0 -43 11t-41 30.5 t-30.5 46t-12.5 59.5zM246 184q0 -66 49 -65q29 0 80 48t103 111.5t95 126t58 91.5q23 43 36 89t13 95q0 25 -25.5 57.5t-68.5 32.5q-41 0 -84 -34t-84 -91q-43 -61 -76 -124.5t-54.5 -124t-31.5 -115t-10 -97.5zM451 1194q0 10 4 25.5t16 29t31.5 22.5t50.5 9 q37 0 65.5 -23.5t28.5 -70.5q0 -41 -26.5 -63.5t-67.5 -22.5q-16 0 -33.5 4t-33 14t-25.5 28.5t-10 47.5zM774 1194q0 10 4 25.5t16.5 29t32 22.5t50.5 9q37 0 65.5 -23.5t28.5 -70.5q0 -41 -26.5 -63.5t-67.5 -22.5q-16 0 -34 4t-33 14t-25.5 28.5t-10.5 47.5z" />
<glyph unicode="&#xe5;" horiz-adv-x="956" d="M45 127q0 68 22.5 148.5t62.5 161.5t93 156t115.5 132t131.5 92t136 35q68 0 102.5 -22.5t53.5 -47.5l33 58q10 16 32 16h111q18 0 12 -20q-14 -33 -36.5 -92.5t-46 -121t-43 -114.5t-25.5 -74q-4 -14 -17.5 -59t-29 -95.5t-27.5 -93.5t-12 -51q0 -16 6 -20t18 -4 q10 0 29.5 15t39 35.5t36 40t22.5 27.5q12 12 21 7l24 -19q6 -6 0 -24q-8 -16 -36.5 -51.5t-72.5 -71t-99.5 -63t-114.5 -27.5q-66 0 -66 53q0 10 3 26.5t12.5 47t26 82t44.5 130.5l-12 5q-33 -47 -79 -107.5t-101.5 -113t-116.5 -88t-125 -35.5q-20 0 -43 11t-41 30.5 t-30.5 46t-12.5 59.5zM246 184q0 -66 49 -65q29 0 80 48t103 111.5t95 126t58 91.5q23 43 36 89t13 95q0 25 -25.5 57.5t-68.5 32.5q-41 0 -84 -34t-84 -91q-43 -61 -76 -124.5t-54.5 -124t-31.5 -115t-10 -97.5zM479 1139q0 39 20.5 69.5t52.5 52t71 32t77 10.5 q39 0 76 -9.5t65.5 -28t46 -48t17.5 -70.5q0 -37 -18.5 -65.5t-49 -49t-69.5 -31t-80 -10.5t-78 10.5t-66.5 29t-47 46t-17.5 62.5zM602 1143q0 -49 30 -74t64 -25q35 0 62.5 25t27.5 78q0 29 -9 48t-23.5 31.5t-30.5 17.5t-31 5q-31 0 -60.5 -25.5t-29.5 -80.5z" />
<glyph unicode="&#xe6;" horiz-adv-x="1167" d="M16 94q0 96 56.5 204t144.5 205t196.5 174t213.5 114q104 37 198.5 49t165.5 12q109 0 151 -42t42 -97q0 -66 -46 -127.5t-124 -120.5q-94 -72 -181.5 -118t-152.5 -81v-61q6 -35 31.5 -70t79.5 -35q72 0 127 36t90 85q10 10 20 0l25 -20q6 -4 8 -7.5t-4 -13.5 q-16 -27 -50 -61.5t-82 -65t-109.5 -52t-131.5 -21.5q-92 0 -142 49t-63 125q-35 -29 -77 -60t-87 -56.5t-93 -41.5t-95 -16t-79 36.5t-32 77.5zM217 184q0 -31 14.5 -50t42.5 -19q37 0 86.5 30.5t114.5 83.5q8 78 32.5 147.5t56.5 128t67 102.5t65 73q27 27 21 41 q0 10 -7.5 12t-13.5 2q-41 0 -124 -51t-166 -143q-47 -53 -81 -105.5t-57.5 -99.5t-36 -86t-14.5 -66zM688 340q35 23 100.5 66t124.5 102q37 37 64 82t27 92q0 76 -70 76q-35 0 -74 -36t-72.5 -94.5t-60.5 -134t-39 -153.5z" />
<glyph unicode="&#xe7;" horiz-adv-x="651" d="M-12 -406q0 18 10 25.5t27 7.5q59 0 105 31t46 68q0 25 -20.5 49t-57.5 41l129 170q-55 8 -103 56t-48 140q0 106 39 225t104.5 217.5t151.5 163t182 64.5q39 0 66.5 -12.5t44 -30.5t23.5 -37.5t7 -34.5q0 -43 -27.5 -72.5t-58.5 -29.5q-25 0 -42 10t-27 39 q-10 23 -24.5 42t-39.5 19q-63 0 -123 -139q-39 -92 -59.5 -184t-20.5 -176q0 -78 21.5 -113t62.5 -35q25 0 51.5 10.5t49 24.5t41 29.5t28.5 25.5q8 16 17 9l28 -21q6 -4 8.5 -7t-4.5 -13q-10 -14 -34.5 -40t-59.5 -51.5t-78 -48t-90 -30.5l-96 -129q59 -18 89 -47t30 -76 q0 -45 -36 -78t-85 -54.5t-101.5 -32.5t-84.5 -11q-25 0 -33 10t-8 26z" />
<glyph unicode="&#xe8;" horiz-adv-x="757" d="M70 197q0 59 16 127.5t48 139.5t79 137.5t111 123.5q61 55 142 91t165 36q72 0 107.5 -38t35.5 -83q0 -78 -49 -146.5t-139 -117.5q-84 -43 -162 -62.5t-137 -23.5q-6 -16 -13.5 -56t-7.5 -96q0 -61 34 -96t77 -35q72 0 129 38t92 85q10 10 16 4l31 -22q12 -6 6 -19 q-16 -29 -50 -63.5t-81 -66t-106.5 -53t-126.5 -21.5q-102 0 -159.5 54t-57.5 163zM303 446q29 0 90.5 18.5t114.5 59.5q35 29 60.5 71t25.5 85q0 29 -13.5 51.5t-48.5 22.5q-39 0 -75.5 -33t-67.5 -80t-54.5 -100.5t-31.5 -94.5zM364.5 1180.5q-6.5 25.5 1 48t27 38 t43.5 15.5q29 0 45.5 -15.5t32.5 -33.5l168 -236q8 -10 2 -16l-18 -18q-6 -6 -21 0l-246 172q-28 20 -34.5 45.5z" />
<glyph unicode="&#xe9;" horiz-adv-x="757" d="M70 197q0 59 16 127.5t48 139.5t79 137.5t111 123.5q61 55 142 91t165 36q72 0 107.5 -38t35.5 -83q0 -78 -49 -146.5t-139 -117.5q-84 -43 -162 -62.5t-137 -23.5q-6 -16 -13.5 -56t-7.5 -96q0 -61 34 -96t77 -35q72 0 129 38t92 85q10 10 16 4l31 -22q12 -6 6 -19 q-16 -29 -50 -63.5t-81 -66t-106.5 -53t-126.5 -21.5q-102 0 -159.5 54t-57.5 163zM303 446q29 0 90.5 18.5t114.5 59.5q35 29 60.5 71t25.5 85q0 29 -13.5 51.5t-48.5 22.5q-39 0 -75.5 -33t-67.5 -80t-54.5 -100.5t-31.5 -94.5zM520 981q-4 8 2 14l246 217q47 41 86 41 q25 0 43 -18t22.5 -43t-8 -51.5t-49.5 -42.5l-311 -135q-12 -6 -16 0z" />
<glyph unicode="&#xea;" horiz-adv-x="757" d="M70 197q0 59 16 127.5t48 139.5t79 137.5t111 123.5q61 55 142 91t165 36q72 0 107.5 -38t35.5 -83q0 -78 -49 -146.5t-139 -117.5q-84 -43 -162 -62.5t-137 -23.5q-6 -16 -13.5 -56t-7.5 -96q0 -61 34 -96t77 -35q72 0 129 38t92 85q10 10 16 4l31 -22q12 -6 6 -19 q-16 -29 -50 -63.5t-81 -66t-106.5 -53t-126.5 -21.5q-102 0 -159.5 54t-57.5 163zM303 446q29 0 90.5 18.5t114.5 59.5q35 29 60.5 71t25.5 85q0 29 -13.5 51.5t-48.5 22.5q-39 0 -75.5 -33t-67.5 -80t-54.5 -100.5t-31.5 -94.5zM397 995q-6 6 4 17l269 293q18 18 28 -11 l101 -295q2 -10 -4 -14l-17 -10q-10 -6 -16 0l-123 135l-211 -133q-12 -6 -18 2z" />
<glyph unicode="&#xeb;" horiz-adv-x="757" d="M70 197q0 59 16 127.5t48 139.5t79 137.5t111 123.5q61 55 142 91t165 36q72 0 107.5 -38t35.5 -83q0 -78 -49 -147.5t-139 -116.5q-84 -45 -162 -63.5t-137 -22.5q-6 -16 -13.5 -56t-7.5 -96q0 -61 34 -96t77 -35q72 0 129 38t92 85q10 10 16 4l31 -22q12 -6 6 -19 q-16 -29 -50 -63.5t-81 -66t-106.5 -53t-126.5 -21.5q-102 0 -159.5 54t-57.5 163zM303 446q29 0 90.5 18.5t114.5 59.5q35 29 60.5 71t25.5 85q0 29 -13.5 51.5t-48.5 22.5q-39 0 -75.5 -33t-67.5 -80t-54.5 -100.5t-31.5 -94.5zM393 1194q0 10 4 25.5t16.5 29t32 22.5 t50.5 9q37 0 65.5 -23.5t28.5 -70.5q0 -41 -26.5 -63.5t-67.5 -22.5q-16 0 -34 4t-33 14t-25.5 28.5t-10.5 47.5zM717 1194q0 10 4 25.5t16.5 29t31.5 22.5t50 9q37 0 65.5 -23.5t28.5 -70.5q0 -41 -26.5 -63.5t-67.5 -22.5q-16 0 -33.5 4t-33 14t-25.5 28.5t-10 47.5z" />
<glyph unicode="&#xec;" horiz-adv-x="598" d="M86 602q4 4 39 44t87 86t117.5 83t133.5 37q74 0 74 -66q0 -31 -16.5 -86t-45.5 -127l-115 -311q-23 -59 -29.5 -87t-6.5 -44q0 -29 24 -29q14 2 40 20.5t50.5 41t45 43t24.5 26.5q6 14 18 3l23 -23q6 -6 8 -10t-4 -10q-4 -6 -32.5 -40t-78 -73t-117 -69.5t-151.5 -30.5 q-33 0 -46 16t-13 41q0 31 27.5 111.5t86.5 252.5l58 160q12 43 22 72t10 47q0 25 -24 25q-12 0 -33.5 -17.5t-45 -40t-45 -46t-32.5 -36.5q-12 -12 -24 0l-21 19q-12 10 -8 18zM203 1180.5q-6 25.5 1 48t26.5 38t43.5 15.5q29 0 45.5 -15.5t32.5 -33.5l168 -236 q8 -10 2 -16l-18 -18q-6 -6 -21 0l-245 172q-29 20 -35 45.5z" />
<glyph unicode="&#xed;" horiz-adv-x="598" d="M86 602q4 4 39 44t87 86t117.5 83t133.5 37q74 0 74 -66q0 -31 -16.5 -86t-45.5 -127l-115 -311q-23 -59 -29.5 -87t-6.5 -44q0 -29 24 -29q14 2 40 20.5t50.5 41t45 43t24.5 26.5q6 14 18 3l23 -23q6 -6 8 -10t-4 -10q-4 -6 -32.5 -40t-78 -73t-117 -69.5t-151.5 -30.5 q-33 0 -46 16t-13 41q0 31 27.5 111.5t86.5 252.5l58 160q12 43 22 72t10 47q0 25 -24 25q-12 0 -33.5 -17.5t-45 -40t-45 -46t-32.5 -36.5q-12 -12 -24 0l-21 19q-12 10 -8 18zM399 981q-4 8 2 14l246 217q47 41 86 41q25 0 43.5 -18t22.5 -43t-8.5 -51.5t-49.5 -42.5 l-311 -135q-12 -6 -16 0z" />
<glyph unicode="&#xee;" horiz-adv-x="598" d="M86 602q4 4 39 44t87 86t117.5 83t133.5 37q74 0 74 -66q0 -31 -16.5 -86t-45.5 -127l-115 -311q-23 -59 -29.5 -87t-6.5 -44q0 -29 24 -29q14 2 40 20.5t50.5 41t45 43t24.5 26.5q6 14 18 3l23 -23q6 -6 8 -10t-4 -10q-4 -6 -32.5 -40t-78 -73t-117 -69.5t-151.5 -30.5 q-33 0 -46 16t-13 41q0 31 27.5 111.5t86.5 252.5l58 160q12 43 22 72t10 47q0 25 -24 25q-12 0 -33.5 -17.5t-45 -40t-45 -46t-32.5 -36.5q-12 -12 -24 0l-21 19q-12 10 -8 18zM256 995q-6 6 4 17l268 293q18 18 29 -11l100 -295q2 -10 -4 -14l-16 -10q-10 -6 -16 0 l-123 135l-211 -133q-12 -6 -19 2z" />
<glyph unicode="&#xef;" horiz-adv-x="598" d="M86 602q4 4 39 44t87 86t117.5 83t133.5 37q74 0 74 -66q0 -31 -17.5 -86t-44.5 -127l-115 -311q-23 -59 -29.5 -87t-6.5 -44q0 -29 24 -29q14 2 40 20.5t50.5 41t45 43t24.5 26.5q6 14 18 3l23 -23q6 -6 8 -10t-4 -10q-4 -6 -32.5 -40t-78 -73t-117 -69.5t-151.5 -30.5 q-33 0 -46 16t-13 41q0 31 26.5 112.5t87.5 251.5l58 160q16 41 24 71t8 48q0 25 -24 25q-12 0 -33.5 -17.5t-45 -40t-45 -46t-32.5 -36.5q-12 -12 -24 0l-21 19q-12 10 -8 18zM252 1194q0 10 4 25.5t16.5 29t32 22.5t49.5 9q37 0 66 -23.5t29 -70.5q0 -41 -27 -63.5 t-68 -22.5q-16 0 -33.5 4t-33 14t-25.5 28.5t-10 47.5zM575 1194q0 10 4.5 25.5t16.5 29t31.5 22.5t50.5 9q37 0 65.5 -23.5t28.5 -70.5q0 -41 -26.5 -63.5t-67.5 -22.5q-16 0 -33.5 4t-33 14t-26 28.5t-10.5 47.5z" />
<glyph unicode="&#xf0;" horiz-adv-x="872" d="M78 262q0 88 27.5 190.5t84 191.5t142.5 148.5t205 59.5q70 0 114 -33h13q0 39 -12.5 114t-41.5 146l-215 -75q-14 -6 -20 10l-15 45q-4 14 9 16l217 76q-23 53 -57.5 107.5t-65.5 95.5q-6 4 -5 8t5 8l37 29q8 8 16 0q20 -14 47 -38t53.5 -52.5t50 -58t38.5 -56.5l167 61 q14 6 19 -6l18 -47q8 -14 -8 -18l-160 -54q59 -113 81 -227.5t22 -206.5q0 -102 -30 -226t-91 -233.5t-155.5 -183t-223.5 -73.5q-37 0 -83 9t-87 39.5t-68.5 86t-27.5 147.5zM238 168q0 -16 4 -35.5t15 -37t30.5 -30t48.5 -12.5q35 0 74 34t74.5 89t67.5 124t55.5 137.5 t37.5 131t14 103.5q0 49 -26.5 73.5t-67.5 24.5q-25 0 -54.5 -15.5t-62 -52t-67.5 -99t-70 -157.5q-35 -86 -54 -157.5t-19 -120.5z" />
<glyph unicode="&#xf1;" horiz-adv-x="1085" d="M89 8q-3 8 1 19l139 379q16 49 34 96t31 86t21.5 66.5t8.5 37.5q0 33 -31 33q-14 0 -34.5 -12.5t-42 -28.5t-41 -34.5t-32.5 -31.5q-6 -14 -18 -2l-23 23q-16 8 -4 20q10 14 40 46t76 65t105.5 57.5t129.5 24.5q45 0 61 -23.5t16 -46.5q0 -16 -10 -49t-24.5 -71.5 t-31 -79.5t-30.5 -74l12 -8q23 35 68 94t104.5 116.5t129 99.5t143.5 42q57 0 87 -36t30 -79q0 -20 -5.5 -49t-18.5 -72t-34.5 -101t-52.5 -138q-41 -102 -61.5 -160.5t-20.5 -81.5q0 -33 25 -33q10 0 28.5 11.5t38 27t35.5 32.5t25 28q14 6 24 -4l21 -17q12 -6 0 -24 q-10 -12 -40 -41t-75 -59.5t-103.5 -53t-121.5 -22.5q-35 0 -52.5 16t-17.5 45t37 125t86 231q12 33 26.5 75t29 82t23.5 69.5t9 40.5q0 49 -47 49q-23 0 -64 -28t-87 -72t-91 -98t-78 -105q-31 -49 -58.5 -98.5t-51.5 -110.5l-66 -189q-4 -6 -8 -9t-20 -3h-132q-14 0 -17 8 zM502 999q-6 6 0 21q10 29 28.5 58.5t42 53t49 38t52.5 14.5q25 0 49.5 -6.5t60.5 -16.5q29 -8 50.5 -11t56.5 -3t58.5 19.5t35.5 41.5q6 12 16 9l29 -17q14 -6 -4 -37q-29 -53 -73 -96t-87 -43q-31 0 -60.5 6t-66.5 17q-31 8 -49 13t-41 5q-29 0 -59.5 -22.5t-46.5 -51.5 q-6 -12 -17 -8z" />
<glyph unicode="&#xf2;" horiz-adv-x="839" d="M82 260q0 129 43 248t129 213q61 68 134 99.5t157 31.5q45 0 90 -14.5t82 -45t59.5 -79.5t22.5 -119q0 -49 -10.5 -111.5t-32 -127t-55 -127t-78.5 -113.5q-59 -68 -131 -101.5t-164 -33.5q-45 0 -89 17t-79 52t-56.5 87t-21.5 124zM213 186q0 -41 25.5 -68.5t60.5 -27.5 q59 0 116.5 45t116.5 146q29 49 54.5 102t44 104.5t30 94.5t11.5 71q0 35 -21.5 63.5t-66.5 28.5q-63 0 -125 -56t-137 -183q-51 -86 -80 -172.5t-29 -147.5zM344 1180.5q-6 25.5 1 48t26.5 38t44.5 15.5q29 0 45 -15.5t33 -33.5l168 -236q8 -10 2 -16l-19 -18q-6 -6 -20 0 l-246 172q-29 20 -35 45.5z" />
<glyph unicode="&#xf3;" horiz-adv-x="839" d="M82 260q0 129 43 248t129 213q61 68 134 99.5t157 31.5q45 0 90 -14.5t82 -45t59.5 -79.5t22.5 -119q0 -49 -10.5 -111.5t-32 -127t-55 -127t-78.5 -113.5q-59 -68 -131 -101.5t-164 -33.5q-45 0 -89 17t-79 52t-56.5 87t-21.5 124zM213 186q0 -41 25.5 -68.5t60.5 -27.5 q59 0 116.5 45t116.5 146q29 49 54.5 102t44 104.5t30 94.5t11.5 71q0 35 -21.5 63.5t-66.5 28.5q-63 0 -125 -56t-137 -183q-51 -86 -80 -172.5t-29 -147.5zM520 981q-4 8 2 14l246 217q47 41 86 41q25 0 43 -18t22.5 -43t-8 -51.5t-49.5 -42.5l-311 -135q-12 -6 -16 0z " />
<glyph unicode="&#xf4;" horiz-adv-x="839" d="M82 260q0 129 43 248t129 213q61 68 134 99.5t157 31.5q45 0 90 -14.5t82 -45t59.5 -79.5t22.5 -119q0 -49 -10.5 -111.5t-32 -127t-55 -127t-78.5 -113.5q-59 -68 -131 -101.5t-164 -33.5q-45 0 -89 17t-79 52t-56.5 87t-21.5 124zM213 186q0 -41 25.5 -68.5t60.5 -27.5 q59 0 116.5 45t116.5 146q29 49 54.5 102t44 104.5t30 94.5t11.5 71q0 35 -21.5 63.5t-66.5 28.5q-63 0 -125 -56t-137 -183q-51 -86 -80 -172.5t-29 -147.5zM377 995q-6 6 4 17l268 293q18 18 29 -11l100 -295q2 -10 -4 -14l-16 -10q-10 -6 -17 0l-123 135l-210 -133 q-12 -6 -19 2z" />
<glyph unicode="&#xf5;" horiz-adv-x="839" d="M82 260q0 129 43 248t129 213q61 68 134 99.5t157 31.5q45 0 90 -14.5t82 -45t59.5 -79.5t22.5 -119q0 -49 -10.5 -111.5t-32 -127t-55 -127t-78.5 -113.5q-59 -68 -131 -101.5t-164 -33.5q-45 0 -89 17t-79 52t-56.5 87t-21.5 124zM213 186q0 -41 25.5 -68.5t60.5 -27.5 q59 0 116.5 45t116.5 146q29 49 54.5 102t44 104.5t30 94.5t11.5 71q0 35 -21.5 63.5t-66.5 28.5q-63 0 -125 -56t-137 -183q-51 -86 -80 -172.5t-29 -147.5zM317 999q-6 6 0 21q10 29 29 58.5t42.5 53t49 38t51.5 14.5q25 0 49.5 -6.5t61.5 -16.5q29 -8 50.5 -11t56.5 -3 t58 19.5t36 41.5q6 12 16 9l29 -17q14 -6 -4 -37q-29 -53 -73 -96t-87 -43q-31 0 -60.5 6t-66.5 17q-31 8 -49.5 13t-40.5 5q-29 0 -59.5 -22.5t-47.5 -51.5q-6 -12 -16 -8z" />
<glyph unicode="&#xf6;" horiz-adv-x="839" d="M82 260q0 129 43 248t129 213q61 68 134 99.5t157 31.5q45 0 90 -14.5t82 -45t59.5 -79.5t22.5 -119q0 -49 -10.5 -110.5t-32 -126t-55 -128t-78.5 -114.5q-59 -66 -131 -100.5t-164 -34.5q-45 0 -89 17t-79 52t-56.5 87t-21.5 124zM213 186q0 -41 25.5 -68.5t60.5 -27.5 q59 0 116.5 45t116.5 146q29 49 54.5 102t44 104.5t30 94.5t11.5 71q0 35 -21.5 63.5t-66.5 28.5q-63 0 -125 -56t-137 -183q-51 -86 -80 -172.5t-29 -147.5zM393 1194q0 10 4 25.5t16.5 29t32 22.5t50.5 9q37 0 65.5 -23.5t28.5 -70.5q0 -41 -26.5 -63.5t-67.5 -22.5 q-16 0 -34 4t-33 14t-25.5 28.5t-10.5 47.5zM717 1194q0 10 4 25.5t16.5 29t31.5 22.5t50 9q37 0 65.5 -23.5t28.5 -70.5q0 -41 -26.5 -63.5t-67.5 -22.5q-16 0 -33.5 4t-33 14t-25.5 28.5t-10 47.5z" />
<glyph unicode="&#xf7;" d="M135 434v131h807v-131h-807zM422 178q0 49 35 82t84 33t81.5 -33t32.5 -82t-32.5 -78.5t-81.5 -29.5t-84 29.5t-35 78.5zM422 817q0 47 32.5 80t86.5 33q49 0 81.5 -33t32.5 -80t-32.5 -78.5t-81.5 -31.5q-55 0 -87 31.5t-32 78.5z" />
<glyph unicode="&#xf8;" horiz-adv-x="839" d="M49 8q-6 6 4 17l70 73q-16 35 -28.5 76t-12.5 84q0 121 41 246t127 217q125 131 295 131q47 0 92 -15.5t80 -50.5l57 74q8 12 17 4l40 -33q10 -10 0 -20l-65 -78q12 -31 22.5 -65.5t10.5 -77.5q0 -47 -10.5 -107.5t-32 -124t-53 -126t-76.5 -113.5q-61 -68 -136 -103.5 t-167 -35.5q-86 0 -152 65l-63 -74q-12 -12 -23 0zM211 188l2 -2l434 527q-4 12 -20.5 22t-44.5 10q-31 0 -60.5 -11t-60.5 -37.5t-66 -71.5t-76 -113q-33 -49 -54 -97t-33.5 -91t-16.5 -78t-4 -58zM240 119q25 -29 59 -29q59 0 120.5 52.5t121.5 144.5q27 39 51 88t43.5 97 t32 91t14.5 70l-6 6z" />
<glyph unicode="&#xf9;" horiz-adv-x="1028" d="M90 639q-6 6 0 16q12 14 42 46t75 66t101.5 59.5t121.5 25.5q43 0 64.5 -27.5t21.5 -58.5q0 -37 -28.5 -120t-88.5 -222q-39 -92 -67.5 -167t-28.5 -105q0 -16 10.5 -24.5t22.5 -8.5q27 0 73 39t95 92t92 108.5t63 87.5q29 43 51.5 86t43.5 103l61 184q4 10 11.5 11 t17.5 1h139q27 0 21 -24l-144 -418q-43 -123 -62.5 -185.5t-19.5 -72.5q0 -16 5 -20.5t16 -4.5q10 0 28.5 12.5t39 31t39 38t28.5 33.5q6 12 20 2l25 -18q6 -6 0 -21q-8 -12 -38 -46t-76 -68.5t-104.5 -62t-121.5 -27.5q-31 0 -48.5 16t-17.5 45q0 10 14.5 53t34 95.5 t38 101.5t26.5 71l-14 9q-31 -43 -81 -109.5t-113.5 -129t-136.5 -107.5t-148 -45q-37 0 -66 31.5t-29 62.5q0 59 35 144t98 226q43 96 65.5 163t22.5 89q0 16 -10 24.5t-26 8.5q-12 0 -32 -11t-41.5 -28.5t-40.5 -37.5l-34 -34q-4 -6 -11 -6t-11 6zM438 1180.5 q-6 25.5 1 48t26.5 38t44.5 15.5q29 0 45 -15.5t33 -33.5l168 -236q8 -10 2 -16l-19 -18q-6 -6 -20 0l-246 172q-29 20 -35 45.5z" />
<glyph unicode="&#xfa;" horiz-adv-x="1028" d="M90 639q-6 6 0 16q12 14 42 46t75 66t101.5 59.5t121.5 25.5q43 0 64.5 -27.5t21.5 -58.5q0 -37 -28.5 -120t-88.5 -222q-39 -92 -67.5 -167t-28.5 -105q0 -16 10.5 -24.5t22.5 -8.5q27 0 73 39t95 92t92 108.5t63 87.5q29 43 51.5 86t43.5 103l61 184q4 10 11.5 11 t17.5 1h139q27 0 21 -24l-144 -418q-43 -123 -62.5 -185.5t-19.5 -72.5q0 -16 5 -20.5t16 -4.5q10 0 28.5 12.5t39 31t39 38t28.5 33.5q6 12 20 2l25 -18q6 -6 0 -21q-8 -12 -38 -46t-76 -68.5t-104.5 -62t-121.5 -27.5q-31 0 -48.5 16t-17.5 45q0 10 14.5 53t34 95.5 t38 101.5t26.5 71l-14 9q-31 -43 -81 -109.5t-113.5 -129t-136.5 -107.5t-148 -45q-37 0 -66 31.5t-29 62.5q0 59 35 144t98 226q43 96 65.5 163t22.5 89q0 16 -10 24.5t-26 8.5q-12 0 -32 -11t-41.5 -28.5t-40.5 -37.5l-34 -34q-4 -6 -11 -6t-11 6zM655 981q-4 8 2 14 l246 217q47 41 86 41q25 0 43.5 -18t22.5 -43t-8.5 -51.5t-49.5 -42.5l-311 -135q-12 -6 -16 0z" />
<glyph unicode="&#xfb;" horiz-adv-x="1028" d="M90 639q-6 6 0 16q12 14 42 46t75 66t101.5 59.5t121.5 25.5q43 0 64.5 -27.5t21.5 -58.5q0 -37 -28.5 -120t-88.5 -222q-39 -92 -67.5 -167t-28.5 -105q0 -16 10.5 -24.5t22.5 -8.5q27 0 73 39t95 92t92 108.5t63 87.5q29 43 51.5 86t43.5 103l61 184q4 10 11.5 11 t17.5 1h139q27 0 21 -24l-144 -418q-43 -123 -62.5 -185.5t-19.5 -72.5q0 -16 5 -20.5t16 -4.5q10 0 28.5 12.5t39 31t39 38t28.5 33.5q6 12 20 2l25 -18q6 -6 0 -21q-8 -12 -38 -46t-76 -68.5t-104.5 -62t-121.5 -27.5q-31 0 -48.5 16t-17.5 45q0 10 14.5 53t34 95.5 t38 101.5t26.5 71l-14 9q-31 -43 -81 -109.5t-113.5 -129t-136.5 -107.5t-148 -45q-37 0 -66 31.5t-29 62.5q0 59 35 144t98 226q43 96 65.5 163t22.5 89q0 16 -10 24.5t-26 8.5q-12 0 -32 -11t-41.5 -28.5t-40.5 -37.5l-34 -34q-4 -6 -11 -6t-11 6zM492 995q-6 6 4 17 l268 293q18 18 29 -11l100 -295q2 -10 -4 -14l-17 -10q-10 -6 -16 0l-123 135l-211 -133q-12 -6 -18 2z" />
<glyph unicode="&#xfc;" horiz-adv-x="1028" d="M90 639q-6 6 0 16q12 14 42 46t75 66t101.5 59.5t121.5 25.5q43 0 64.5 -27.5t21.5 -58.5q0 -37 -28.5 -120t-88.5 -222q-39 -92 -67.5 -167t-28.5 -105q0 -16 10.5 -24.5t22.5 -8.5q27 0 73 39t95 92t92 108.5t63 87.5q29 43 51.5 86t43.5 103l61 184q4 10 11.5 11 t17.5 1h139q29 0 21 -24l-144 -418q-43 -123 -62.5 -185.5t-19.5 -72.5q0 -16 5 -20.5t16 -4.5q10 0 28.5 12.5t39 31t39 38t28.5 33.5q6 12 20 2l25 -18q6 -6 0 -21q-8 -12 -38 -46t-76 -68.5t-104.5 -62t-121.5 -27.5q-31 0 -48.5 16t-17.5 45q0 10 14.5 53t34 95.5 t38 101.5t26.5 71l-14 9q-31 -43 -81 -109.5t-113.5 -129t-136.5 -107.5t-148 -45q-37 0 -66 31.5t-29 62.5q0 59 35 144t98 226q43 96 65.5 163t22.5 89q0 16 -10 24.5t-26 8.5q-12 0 -32 -11t-41.5 -28.5t-40.5 -37.5l-34 -34q-4 -6 -11 -6t-11 6zM487 1194q0 10 4.5 25.5 t16.5 29t31.5 22.5t50.5 9q37 0 65.5 -23.5t28.5 -70.5q0 -41 -26.5 -63.5t-67.5 -22.5q-16 0 -33.5 4t-33 14t-26 28.5t-10.5 47.5zM811 1194q0 10 4 25.5t16.5 29t32 22.5t49.5 9q37 0 66 -23.5t29 -70.5q0 -41 -27 -63.5t-68 -22.5q-16 0 -33.5 4t-33 14t-25.5 28.5 t-10 47.5z" />
<glyph unicode="&#xfd;" horiz-adv-x="866" d="M-211 -502q0 47 29.5 75t64.5 32q29 0 43.5 -10.5t30.5 -26.5q29 -29 57 -29q16 0 40 7.5t52 27.5q35 25 67 57.5t57.5 65.5t46 62.5t32.5 47.5q33 55 21 140q-2 16 -6.5 68.5t-10.5 122t-14 150.5t-15.5 152.5t-15.5 128t-14 78.5q-8 29 -14.5 41t-24.5 12 q-14 0 -29.5 -16t-31 -39.5t-27.5 -49.5t-18 -42q-4 -10 -7.5 -11t-11.5 1l-31 10q-10 0 -4 25q2 6 10.5 28.5t24.5 53t38 64.5t52.5 62.5t67.5 47t82 18.5q55 0 85.5 -48t41.5 -177q6 -88 11 -175t8 -164t5 -138.5t2 -100.5h11q14 25 40.5 77t55 113.5t53.5 121t35 98.5 q6 25 15 59.5t9 71.5q0 29 -5 52.5t-11 41.5t-13 38.5t-7 43.5q0 29 23.5 57.5t78.5 28.5q59 0 80.5 -38t21.5 -93q0 -35 -12 -83t-32.5 -103.5t-46 -114t-52.5 -109.5q-39 -76 -96.5 -175t-124 -201.5t-138 -197.5t-139.5 -159q-23 -23 -55.5 -54.5t-73.5 -60t-87 -50 t-93 -21.5q-68 0 -99.5 31.5t-31.5 74.5zM555 981q-4 8 2 14l246 217q47 41 86 41q25 0 43 -18t22 -43t-8 -51.5t-49 -42.5l-311 -135q-12 -6 -17 0z" />
<glyph unicode="&#xfe;" horiz-adv-x="983" d="M-283 -598l9 41q4 6 7 11t13 5h33q61 0 98 37t70 123l405 1086q-35 -10 -71.5 -31t-69.5 -45.5t-59.5 -49t-40.5 -42.5q-10 -10 -23 0l-22 16q-6 14 0 20q43 55 121.5 125t201.5 117l180 490q12 31 33 36l180 58q6 0 11.5 2t9.5 2t6 -4t2 -8t-2 -8.5t-2 -8.5l-221 -526 q18 4 39 4h39q141 0 215.5 -75t74.5 -193q0 -104 -53 -209t-164 -195q-86 -72 -212 -120t-259 -60l-143 -401q-29 -80 -14.5 -110t79.5 -30h54q12 0 12 -16l-16 -45q-4 -6 -8.5 -9t-16.5 -3q-16 0 -68.5 3t-169.5 3q-63 0 -106 -1t-70.5 -2t-44 -2t-24.5 -1q-19 0 -13 16z M297 74q74 8 156 46t149.5 99.5t111.5 143t44 180.5q0 59 -14.5 100t-36 66.5t-47 37t-50.5 11.5q-16 0 -30 -2l-29 -4z" />
<glyph unicode="&#xff;" horiz-adv-x="866" d="M-211 -502q0 47 29.5 75t64.5 32q29 0 43.5 -10.5t30.5 -26.5q29 -29 57 -29q16 0 40 7.5t52 27.5q35 25 67 57.5t57.5 65.5t46 62.5t32.5 47.5q33 55 21 140q-2 16 -6.5 68.5t-10.5 122t-14 150.5t-15.5 152.5t-15.5 128t-14 78.5q-8 29 -14.5 41t-24.5 12 q-14 0 -29.5 -16t-31 -39.5t-27.5 -49.5t-18 -42q-4 -10 -7.5 -11t-11.5 1l-31 10q-10 0 -4 25q2 6 10.5 28.5t24.5 53t38 64.5t52.5 62.5t67.5 47t82 18.5q55 0 85.5 -48t41.5 -177q6 -88 11 -175t8 -164t5 -138.5t2 -100.5h11q14 25 40.5 77t55 113.5t53.5 121t35 98.5 q6 25 15 59.5t9 71.5q0 29 -5 52.5t-11 41.5t-13 38.5t-7 43.5q0 29 23.5 57.5t78.5 28.5q59 0 80.5 -38t21.5 -93q0 -35 -12 -83t-32.5 -103.5t-46 -114t-52.5 -109.5q-39 -76 -96.5 -175t-124 -201.5t-138 -197.5t-139.5 -159q-23 -23 -55.5 -54.5t-73.5 -60t-87 -50 t-93 -21.5q-68 0 -99.5 31.5t-31.5 74.5zM344 1194q0 10 4 25.5t16.5 29t32 22.5t49.5 9q37 0 66 -23.5t29 -70.5q0 -41 -27 -63.5t-68 -22.5q-16 0 -33.5 4t-32.5 14t-25.5 28.5t-10.5 47.5zM668 1194q0 10 4 25.5t16 29t31.5 22.5t50.5 9q37 0 65.5 -23.5t28.5 -70.5 q0 -41 -26.5 -63.5t-67.5 -22.5q-16 0 -33.5 4t-33 14t-25.5 28.5t-10 47.5z" />
<glyph unicode="&#x152;" horiz-adv-x="2213" d="M190 528q0 102 21.5 196.5t59.5 176.5t88.5 151.5t109.5 123.5q104 98 259 162.5t355 64.5q66 0 122.5 -5t109.5 -9q53 -6 101 -11.5t97 -5.5h197q100 0 177 1t132 3q55 0 90 1t52 1q23 0 28.5 -7t12.5 -32l65 -282q4 -10 -8 -17l-25 -12q-10 -4 -14 -1t-10 9l-213 248 q-10 16 -37 16h-307l-172 -534h176q33 0 64.5 4t60 21.5t56.5 50t56 92.5q10 16 21 16l33 -12q12 0 12 -16q-12 -29 -29.5 -84.5t-34 -117t-30 -118.5t-17.5 -86q0 -20 -16 -12h-37q-8 4 -8 20q-2 55 -17.5 89t-43 51.5t-69.5 23.5t-95 6h-103l-200 -620h446q55 0 94 20.5 t90 61.5q14 12 42 40.5t55.5 61.5t52 61.5t35.5 40.5q10 14 24 9l25 -17q6 -4 8 -8t-4 -20l-105 -295q-8 -23 -16 -29t-27 -6h-62q-50 0 -128 2q-76 2 -168 3t-190 1h-345q-43 0 -86 -5t-86 -11q-47 -4 -90 -9.5t-86 -5.5t-93 6.5t-99 21.5t-96.5 39.5t-83.5 61.5 q-86 84 -131.5 186.5t-45.5 243.5zM399 422q0 -90 26 -158.5t69 -114t97 -68t111 -22.5q139 0 245 54.5t149 189.5l266 848q12 39 -2 67.5t-47 48t-80 29t-100 9.5q-139 0 -240.5 -53.5t-181.5 -133.5q-68 -66 -125.5 -151.5t-98.5 -179t-64.5 -188.5t-23.5 -177z" />
<glyph unicode="&#x153;" horiz-adv-x="1224" d="M82 283q0 109 46 228.5t126 209.5q121 131 287 131q33 0 68.5 -9t66.5 -30.5t52.5 -56.5t29.5 -86h6q72 88 163 135t177 47q72 0 106.5 -37t34.5 -78q0 -84 -49 -149.5t-135 -114.5q-80 -47 -159 -65.5t-144 -24.5q-6 -16 -15.5 -57t-9.5 -101q0 -55 34 -91t77 -36 q78 0 132 35t93 88q10 10 21 0l24 -16q10 -10 0 -21q-16 -29 -47 -63.5t-75 -66t-101 -53t-125 -21.5t-119 36.5t-74 98.5q-23 -31 -54.5 -55.5t-66 -43t-70.5 -27.5t-67 -9q-29 0 -68.5 12t-76.5 46t-62.5 93.5t-25.5 151.5zM209 188q0 -41 26.5 -69.5t59.5 -28.5 q68 0 118 45t99 119q29 45 56.5 99.5t49 108.5t35 104t13.5 85q0 37 -21.5 63.5t-66.5 26.5q-57 0 -122 -59t-126 -164q-47 -82 -84 -172t-37 -158zM774 451q35 0 97.5 19t115.5 67q35 29 58.5 67.5t23.5 75.5q0 31 -14.5 54.5t-42.5 23.5q-43 0 -83 -35t-72 -84t-53.5 -101 t-29.5 -87z" />
<glyph unicode="&#x178;" horiz-adv-x="1191" d="M147 1313l9 49q6 16 20 16q10 0 27.5 -1t45 -2t69.5 -2t104 -1q133 0 192.5 3t77.5 3q20 0 21 -16l-4 -49q-6 -16 -21 -17h-53q-49 0 -56.5 -29.5t3.5 -60.5l163 -551q6 -25 17.5 -25.5t23.5 21.5q6 10 33 50l64 96q37 55 76.5 116.5t75.5 117.5t61.5 98t29.5 59 q20 59 2 83.5t-71 24.5h-45q-18 0 -13 21l5 45q0 10 4 13t20 3q23 0 79 -3t142 -3q96 0 145.5 3t71.5 3q20 0 21 -20l-8 -41q0 -20 -17 -21h-37q-53 0 -86.5 -23.5t-64.5 -64.5q-8 -12 -42 -58t-79 -110.5t-97 -137.5t-98.5 -137.5t-79 -111.5t-38.5 -59q-23 -35 -38.5 -72 t-31.5 -104l-49 -228q-16 -80 2 -97t72 -17h45q16 0 16 -17l-8 -45q0 -20 -21 -20q-25 0 -82 3t-180 3q-70 0 -117 -1t-77.5 -2t-49 -2t-26.5 -1q-16 0 -16 20l8 45q0 16 20 17h45q72 0 98.5 29.5t36.5 74.5l66 303q6 23 4 55.5t-8 51.5l-213 629q-27 78 -127 77h-45 q-17 1 -17 17zM606 1638q0 10 4 25.5t16.5 30t34 25t56.5 10.5q41 0 71.5 -25t30.5 -74q0 -47 -29.5 -72.5t-72.5 -25.5q-16 0 -35.5 4t-36 15.5t-28 31.5t-11.5 55zM991 1638q0 10 5 25.5t17.5 30t35 25t57.5 10.5q41 0 69.5 -25t28.5 -74q0 -47 -28.5 -72.5t-69.5 -25.5 q-16 0 -36.5 4t-38 15.5t-29 31.5t-11.5 55z" />
<glyph unicode="&#x2c6;" horiz-adv-x="573" d="M203 995q-6 6 4 17l268 293q18 18 29 -11l100 -295q2 -10 -4 -14l-16 -10q-10 -6 -17 0l-123 135l-211 -133q-12 -6 -18 2z" />
<glyph unicode="&#x2dc;" horiz-adv-x="614" d="M184 999q-6 6 0 21q10 29 28.5 58.5t42.5 53t49.5 38t51.5 14.5q25 0 49.5 -6.5t61.5 -16.5q29 -8 50.5 -11t55.5 -3q35 0 58.5 19.5t36.5 41.5q6 12 16 9l29 -17q14 -6 -4 -37q-29 -53 -73 -96t-87 -43q-31 0 -60.5 6t-66.5 17q-31 8 -49.5 13t-40.5 5 q-29 0 -59.5 -22.5t-47.5 -51.5q-6 -12 -16 -8z" />
<glyph unicode="&#x2000;" horiz-adv-x="909" />
<glyph unicode="&#x2001;" horiz-adv-x="1820" />
<glyph unicode="&#x2002;" horiz-adv-x="909" />
<glyph unicode="&#x2003;" horiz-adv-x="1820" />
<glyph unicode="&#x2004;" horiz-adv-x="606" />
<glyph unicode="&#x2005;" horiz-adv-x="454" />
<glyph unicode="&#x2006;" horiz-adv-x="303" />
<glyph unicode="&#x2007;" horiz-adv-x="303" />
<glyph unicode="&#x2008;" horiz-adv-x="227" />
<glyph unicode="&#x2009;" horiz-adv-x="362" />
<glyph unicode="&#x200a;" horiz-adv-x="100" />
<glyph unicode="&#x2010;" horiz-adv-x="851" d="M127 455v94q0 20 16 20h662q18 0 18 -16v-94q0 -20 -20 -21h-660q-16 1 -16 17z" />
<glyph unicode="&#x2011;" horiz-adv-x="851" d="M127 455v94q0 20 16 20h662q18 0 18 -16v-94q0 -20 -20 -21h-660q-16 1 -16 17z" />
<glyph unicode="&#x2012;" horiz-adv-x="851" d="M127 455v94q0 20 16 20h662q18 0 18 -16v-94q0 -20 -20 -21h-660q-16 1 -16 17z" />
<glyph unicode="&#x2013;" d="M33 438v131h1024v-131h-1024z" />
<glyph unicode="&#x2014;" horiz-adv-x="2048" d="M33 438v131h2048v-131h-2048z" />
<glyph unicode="&#x2018;" horiz-adv-x="364" d="M262 1108q0 82 40 139.5t92 91t99.5 49t63.5 15.5q23 0 25 -17q4 -16 -2.5 -22t-22.5 -10t-43 -18.5t-51.5 -36t-43 -48t-18.5 -57.5q0 -35 10.5 -54.5t34.5 -43.5q10 -6 34 -30t24 -60q0 -41 -23.5 -68t-66.5 -27q-39 0 -68 20.5t-47 51.5t-27.5 64.5t-9.5 60.5z" />
<glyph unicode="&#x2019;" horiz-adv-x="364" d="M203 934q-2 20 22 27q18 4 46 17t52.5 34.5t43 48t18.5 59.5q0 35 -12.5 52.5t-36.5 41.5q-6 10 -31.5 31t-25.5 55q0 43 24.5 73t65.5 30q39 0 68.5 -20.5t49 -51.5t28.5 -64.5t9 -60.5q0 -84 -40 -141t-92 -91t-101 -48.5t-66 -14.5q-18 0 -22 23z" />
<glyph unicode="&#x201a;" horiz-adv-x="364" d="M-37 -209q-4 16 2 20.5t19 8.5q18 4 45.5 18.5t52 36t43 48t18.5 57.5q0 37 -11 55t-34 43q-10 6 -33.5 28.5t-23.5 57.5q0 43 22.5 70.5t63.5 27.5q39 0 68.5 -20.5t49 -50t29 -64.5t9.5 -61q0 -84 -40 -139.5t-92.5 -89.5t-100.5 -48t-62 -14q-23 0 -25 16z" />
<glyph unicode="&#x201c;" horiz-adv-x="679" d="M262 1108q0 82 40 139.5t92 91t101.5 49t65.5 15.5q10 0 16.5 -2t8.5 -15q4 -16 -1 -22t-20 -10q-18 -4 -45.5 -18.5t-52.5 -36t-43 -48t-18 -57.5q0 -35 10 -54.5t35 -43.5q10 -6 33.5 -29t23.5 -57q0 -43 -23.5 -71t-66.5 -28q-41 0 -70 20.5t-48 50.5t-28.5 63.5 t-9.5 62.5zM573 1108q0 82 41 139.5t93.5 91t100.5 49t64 15.5q23 0 25 -17q4 -16 -2 -22t-18 -10q-18 -4 -46 -18.5t-52.5 -36t-43 -48t-18.5 -57.5q0 -35 10 -54.5t35 -43.5q10 -6 33.5 -29t23.5 -57q0 -43 -23.5 -71t-66.5 -28q-41 0 -69.5 20.5t-48 50.5t-29 63.5 t-9.5 62.5z" />
<glyph unicode="&#x201d;" horiz-adv-x="679" d="M203 928q-4 18 2 23t18 10q18 4 46 17t52.5 33.5t43 47t18.5 61.5t-11.5 52.5t-33.5 46.5q-10 6 -33.5 26.5t-23.5 54.5q0 43 22.5 73t63.5 30q39 0 68.5 -20.5t49 -51.5t28.5 -64.5t9 -60.5q0 -84 -40 -141t-92 -91t-101 -48.5t-66 -14.5h-13q-7 1 -7 17zM520 928 q-4 18 2 23t19 10q18 4 45.5 17t52.5 34.5t43 48t18 59.5q0 35 -11 52.5t-34 46.5q-10 6 -33.5 26.5t-23.5 54.5q0 43 22.5 73t63.5 30q39 0 68.5 -20.5t49 -51.5t29 -64.5t9.5 -60.5q0 -84 -40 -141t-92.5 -91t-101.5 -48.5t-65 -14.5h-12q-5 1 -9 17z" />
<glyph unicode="&#x201e;" horiz-adv-x="679" d="M-45 -209q0 16 6 20.5t19 8.5q18 4 45.5 17t52 35t43 48.5t18.5 59.5q0 37 -12 55t-37 43q-6 6 -31.5 28.5t-25.5 57.5q0 43 23.5 70.5t66.5 27.5q39 0 68.5 -20.5t49 -50t29 -64.5t9.5 -61q0 -84 -40 -139.5t-92.5 -89.5t-101.5 -48t-65 -14q-10 0 -17.5 3t-7.5 13z M274 -205q-2 12 4.5 16.5t18.5 8.5q18 4 46 18.5t52.5 36t43 48t18.5 57.5q0 37 -12.5 55t-36.5 43q-6 6 -32 28.5t-26 57.5q0 43 24.5 70.5t65.5 27.5q39 0 69 -20.5t49.5 -50t28.5 -64.5t9 -61q0 -84 -40 -139.5t-92 -89.5t-101.5 -48t-65.5 -14q-23 0 -23 20z" />
<glyph unicode="&#x2022;" horiz-adv-x="720" d="M197 647q0 57 19.5 104.5t53 81t78.5 53t98 19.5q115 0 182.5 -61.5t67.5 -175.5q0 -57 -20.5 -102.5t-56 -77t-84 -49t-101.5 -17.5q-45 0 -87 15.5t-75.5 44t-54 70.5t-20.5 95z" />
<glyph unicode="&#x2026;" horiz-adv-x="2048" d="M145 106q0 37 31 78t92 41q39 0 63.5 -13t40 -32.5t21.5 -41t6 -36.5q0 -47 -34.5 -84.5t-96.5 -37.5q-53 0 -88 35.5t-35 90.5zM827 106q0 18 7.5 39t22.5 39.5t38 29.5t55 11q37 0 61.5 -13t40 -32.5t22.5 -41t7 -36.5q0 -47 -35.5 -84.5t-95.5 -37.5q-53 0 -88 35.5 t-35 90.5zM1509 106q0 37 30 78t91 41q39 0 64.5 -13t41 -32.5t21.5 -41t6 -36.5q0 -47 -34.5 -84.5t-94.5 -37.5q-55 0 -90 35.5t-35 90.5z" />
<glyph unicode="&#x202f;" horiz-adv-x="362" />
<glyph unicode="&#x2039;" horiz-adv-x="487" d="M106 455q0 4 13 16l315 295q8 8 12 8q8 0 13 -4l20 -25q8 -8 8 -12t-1 -9t-7 -11l-180 -246l123 -252q4 -10 4 -18q0 -4 -8 -13l-25 -24q0 -2 -2 -2q-2 -2 -6 -2t-12 8l-258 278q-9 9 -9 13z" />
<glyph unicode="&#x203a;" horiz-adv-x="487" d="M66 201q0 2 10 18l178 248l-119 254l-6 9q-2 3 -2 7t8 13l25 24l2 2q2 0 3 1t3 1q4 0 12 -8l258 -278q8 -8 8 -13q0 -4 -12 -16l-315 -295q-8 -8 -13 -8q-8 0 -12 4l-20 24q-8 9 -8 13z" />
<glyph unicode="&#x205f;" horiz-adv-x="454" />
<glyph unicode="&#x20ac;" d="M81 484q-9 3 1 22l18 41q6 12 33 12h96q6 39 17.5 85t21.5 81h-106q-10 0 -19.5 3t0.5 22l21 41q2 12 33 12h100q25 66 61.5 130t71.5 114q94 135 204.5 204.5t219.5 69.5q53 0 91 -18.5t63.5 -41t41 -41t21.5 -18.5q14 0 22.5 6t16.5 35q6 16 16 12l27 -8q14 -4 8 -20 l-86 -305q-4 -14 -16 -13l-33 4q-10 0 -8 21q12 57 9 111.5t-21.5 95.5t-56.5 65.5t-95 24.5q-70 0 -137.5 -58.5t-134.5 -187.5q-20 -41 -40 -89t-36 -93h405q18 0 17 -12l-27 -54q-4 -12 -39 -12h-381q-10 -37 -20 -84t-19 -82h351q23 0 16 -12l-27 -53q-6 -10 -13 -11.5 t-28 -1.5h-309q-2 -6 -2 -20.5t-2 -20.5q-4 -57 -4 -122.5t16.5 -121t55.5 -92t110 -36.5q47 0 84 9t69 34.5t60.5 71.5t59.5 118q8 14 16 12l33 -12q12 -4 8 -16l-100 -301q-6 -31 -25 -25l-23 4q-10 4 -11 7t1 12q4 29 5 40t-17 11q-8 0 -23.5 -10.5t-42 -21.5 t-64.5 -21.5t-89 -10.5q-104 0 -174 48.5t-109 124t-48 165.5t3 174h-119q-10 0 -19 3z" />
<glyph unicode="&#x2122;" horiz-adv-x="1748" d="M188 1204q-6 6 0 17l20 40l26 55q13 28 23.5 50.5t12.5 26.5q6 16 17 16q8 0 18 -10l6 -6q10 -6 20.5 -9.5t28.5 -3.5q47 -4 98.5 -6t119.5 -2q66 0 128 2t109 6q29 0 53 13l21 12q4 4 12 4t8 -16q0 -4 -3 -27t-6 -51.5t-6 -58t-5 -48.5q0 -10 -8 -12l-25 -4 q-10 -4 -12 12q-4 18 -16.5 50t-36.5 49q-29 12 -76 12h-76l-94 -361q-18 -74 -29.5 -123t-15.5 -65q0 -18 5 -29.5t23 -11.5h47q14 0 11 -10l-11 -37q-4 -10 -14 -10t-61 2t-99 2q-20 0 -46.5 -1t-51 -1t-43 -1t-22.5 -1q-12 0 -9 12l9 37q2 8 14 8h51q31 0 45 29 q4 16 16.5 62t28.5 114l99 385q-29 0 -74 1t-74 -9q-35 -16 -65.5 -45t-49.5 -54q-12 -16 -20 -12zM778 680l8 33q2 12 13 12h20q25 0 46.5 16.5t31.5 40.5q12 27 25.5 68t26 87t24.5 91t22 82l41 147q6 31 -5 42.5t-36 11.5h-26q-14 0 -11 12l9 41q2 12 16 12q2 0 16.5 -1 t33 -1t36.5 -1t33 -1q43 0 73.5 2t53.5 2q33 0 33 -20l61 -451l8 2l303 449q10 14 21.5 15t23.5 1q70 0 112 1t66.5 1t34 1t13.5 1q12 0 8 -10l-6 -45q-4 -10 -13 -10h-28q-20 0 -31.5 -9.5t-15.5 -15.5q-4 -10 -13.5 -47t-19.5 -82t-20.5 -86t-12.5 -55q-4 -14 -12 -49 t-17.5 -73t-17.5 -72t-10 -44q-6 -23 -1 -38t21 -15h41q14 0 10 -14l-8 -31q-4 -12 -18 -12q-4 0 -20.5 1t-38 1t-45 1t-44.5 1q-23 0 -48 -1t-50 -1t-42 -1t-19 -1q-10 0 -11 12l7 33q2 12 14 12h39q25 0 38 11.5t23 29.5q8 14 15.5 44t14.5 64l14 70q7 35 14 64l81 303h-8 l-413 -602q-8 -10 -16.5 -17.5t-20.5 -7.5q-16 0 -17 16l-86 615h-8l-70 -275q-12 -49 -30.5 -118.5t-30.5 -122.5q-6 -43 7.5 -58.5t35.5 -15.5h23q10 0 8 -12l-8 -33q-4 -12 -15 -12q-10 0 -50 2t-71 2q-16 0 -37.5 -1t-40 -1t-33 -1t-16.5 -1q-12 0 -8 12z" />
<glyph unicode="&#xe000;" horiz-adv-x="850" d="M0 850h850v-850h-850v850z" />
<glyph unicode="&#xfb01;" horiz-adv-x="1073" d="M-428 -481q0 43 23.5 70.5t66.5 27.5t66.5 -29.5t27.5 -64.5q0 -18 15.5 -33.5t46.5 -15.5q45 0 85 46t75.5 128t70.5 192.5t72 239.5q10 31 26.5 86t34 121.5t37 137.5t35.5 131t28.5 104.5t18.5 56.5h-176q-6 0 -11 5t-1 15l14 56q2 14 18 14h177q23 61 44 120.5 t49.5 118t68.5 115t100 115.5q47 47 130 87t185 40q68 0 113 -15.5t71.5 -37t38 -46t11.5 -44.5q-4 -49 -28 -80t-71 -31q-43 0 -65.5 21.5t-32.5 43.5q-6 12 -10 24.5t-11 25.5q-6 31 -19 48t-42 17q-80 0 -139 -65q-31 -35 -58.5 -88.5t-52 -115t-45 -127t-37.5 -126.5 h238q53 0 90 5t61 11q29 6 46.5 13.5t39.5 7.5q18 0 24.5 -18.5t0.5 -47.5q0 -10 -7 -31.5t-16.5 -48t-19.5 -55.5t-18 -49l-119 -324q-10 -31 -21.5 -63.5t-11.5 -38.5q-10 -35 -5 -46t21 -11q14 0 40 19.5t52.5 45t48 49t27.5 33.5q6 12 21 2l28 -22q4 -6 5.5 -9.5 t-5.5 -7.5q-4 -10 -36.5 -49t-85 -82t-121 -76.5t-146.5 -33.5q-37 0 -53 15t-16 38q0 25 27.5 100.5t70.5 198.5l82 217l10 30l12 34q6 17 10.5 31.5t4.5 19.5q6 31 -14.5 42t-51.5 11h-233q-18 -55 -41 -131t-48.5 -164t-54 -182.5t-61.5 -184.5q-35 -100 -85 -215.5 t-117.5 -215t-153.5 -166t-193 -66.5q-86 0 -131 37t-45 90z" />
<glyph unicode="&#xfb02;" horiz-adv-x="1091" d="M-424 -489q0 47 24.5 76.5t61.5 29.5q23 0 40 -9t29.5 -23.5t18.5 -31t10 -30.5q12 -45 50 -45q25 0 50 13t44 32q35 41 67.5 107.5t62 147.5t56.5 172t51 183l156 584h-176q-18 0 -12 20l12 49q0 20 20 21h181q20 66 39.5 122t45 110.5t63.5 109.5t97 119q49 49 134 92 t208 43q43 0 91.5 -4t91.5 -12.5t78.5 -18.5t54.5 -22q29 -16 28 -35q0 -14 -9 -35t-19 -43l-396 -1016q-16 -47 -10 -74q0 -16 25 -16q14 0 38.5 16.5t49 38t45 41t27.5 27.5q6 14 20 0l25 -21q4 -6 5 -10t-5 -14l-40 -40q-36 -36 -91.5 -77t-123 -74.5t-135.5 -33.5 q-29 0 -47 21.5t-18 39.5q0 23 15.5 75t33.5 101l193 500h-340q-6 -23 -18.5 -69t-29 -105.5t-36 -126t-39 -130t-37 -117.5t-31.5 -89q-23 -76 -54.5 -158t-72.5 -160.5t-91 -150.5t-110 -125q-55 -47 -111 -70.5t-118 -23.5q-86 0 -129 38t-43 81zM514 807h354l140 352 q31 74 4 107q-18 23 -53 41t-101 18q-76 0 -143 -55q-61 -61 -103.5 -177t-97.5 -286z" />
<glyph unicode="&#xfb03;" horiz-adv-x="1585" d="M-379 -487q0 41 24.5 70.5t69.5 29.5q47 0 71 -32t30 -66q6 -35 41 -35q63 0 134.5 132t137.5 411l166 694h-174q-16 0 -15 20l9 56q2 14 16 14h182q25 80 62 179t99.5 187.5t156.5 148.5t231 60q51 0 89 -10t63.5 -26.5t40 -36t18.5 -37.5h2q16 18 46 40.5t70 42t86 34 t97 14.5q57 0 97 -13.5t67 -33t39 -44t12 -46.5q0 -43 -27.5 -71t-66.5 -28q-57 0 -80.5 27t-30.5 70q-4 16 -18 37.5t-55 21.5q-59 0 -103.5 -50t-78 -126t-57 -167t-44.5 -173h244q53 0 90 5t61 11q29 6 46.5 13.5t39.5 7.5q18 0 24.5 -18.5t0.5 -47.5q0 -10 -7 -31.5 t-16.5 -48t-19.5 -55.5t-18 -49l-119 -324q-10 -31 -21.5 -63.5t-11.5 -38.5q-10 -35 -5 -46t21 -11q14 0 40 19.5t52.5 45t48 49t27.5 33.5q6 12 21 2l28 -22q4 -6 5.5 -9.5t-5.5 -7.5q-4 -10 -35.5 -49t-84 -82t-121 -76.5t-146.5 -33.5q-35 0 -50 15t-15 38 q0 25 25.5 100.5t70.5 198.5l80 219q18 47 29.5 76.5t11.5 50.5q0 39 -72 39h-237q-16 -61 -41 -152.5t-53.5 -195t-60.5 -209t-64 -193.5q-43 -115 -96.5 -219t-120 -183t-147.5 -126t-177 -47q-51 0 -87 11t-59.5 29.5t-37 41t-17.5 45.5q0 4 -4 4q-35 -47 -103.5 -89 t-158.5 -42q-72 0 -117 37t-45 84zM115 -385h24q31 0 57.5 -26.5t39.5 -67.5q6 -23 22 -36t53 -13q59 0 107.5 49t89.5 133t77 195.5t68 236.5q6 20 18.5 69.5t29 112t34 132t33.5 133t28.5 112.5t18.5 72h-330q-25 -111 -52 -220.5t-57 -215t-60.5 -202.5t-61.5 -181 q-35 -96 -71.5 -169t-67.5 -114zM504 807h332q23 74 42 127t37.5 94t37 75t38.5 64q-29 0 -57.5 16.5t-44.5 49.5q-16 31 -41 50.5t-60 19.5q-57 0 -100 -40t-75.5 -108t-59 -158t-49.5 -190z" />
<glyph unicode="&#xfb04;" horiz-adv-x="1597" d="M-379 -487q0 41 24.5 70.5t69.5 29.5q47 0 71 -32t30 -66q6 -35 41 -35q63 0 134.5 132t137.5 411l166 694h-178q-18 0 -15 16l13 60q2 14 16 14h184q23 80 60 179t99.5 187.5t156.5 148.5t231 60q51 0 88 -10t62.5 -26.5t40 -36t20.5 -37.5h2q16 18 47 40.5t75 42 t100.5 34t123.5 14.5q43 0 91.5 -4t91.5 -12.5t78.5 -18.5t54.5 -22q29 -16 28 -35q0 -14 -10 -35t-20 -43l-394 -1016q-16 -47 -10 -74q0 -16 25 -16q14 0 38.5 16.5t49 38t44 41t25.5 27.5q10 12 23 0l25 -21q4 -6 5 -10t-5 -14q-4 -4 -39 -40t-90.5 -77t-122 -74.5 t-131.5 -33.5q-29 0 -47.5 21.5t-18.5 39.5q0 23 15.5 75t33.5 101l195 500h-346q-16 -61 -41 -152.5t-53.5 -195t-60.5 -209t-64 -193.5q-43 -115 -95.5 -219t-119 -183t-147.5 -126t-179 -47q-49 0 -85 11t-59.5 29.5t-37 41t-19.5 45.5q0 4 -4 4q-35 -47 -103.5 -89 t-158.5 -42q-72 0 -117 37t-45 84zM115 -385h24q29 0 55.5 -26.5t38.5 -67.5q8 -23 24.5 -36t53.5 -13q59 0 107.5 49t89.5 133t77 195.5t68 236.5q6 20 18.5 69.5t29 112t34 132t33.5 133t29.5 112.5t19.5 72h-330q-25 -111 -52 -220.5t-57 -215t-60.5 -202.5t-61.5 -181 q-35 -96 -72.5 -169t-68.5 -114zM504 807h334q23 74 42 127t36.5 94t36 75t38.5 64q-57 0 -100 68q-18 29 -43 48.5t-60 19.5q-57 0 -100 -40t-75.5 -108t-59 -158t-49.5 -190zM1026 807h363l137 352q29 74 2 107q-18 25 -50 44t-98 19q-47 0 -82.5 -15.5t-68.5 -45.5 q-63 -59 -105.5 -175t-97.5 -286z" />
</font>
</defs>
</svg>
