<?xml version="1.0" standalone="no"?>
<!DOCTYPE svg PUBLIC "-//W3C//DTD SVG 1.1//EN" "http://www.w3.org/Graphics/SVG/1.1/DTD/svg11.dtd" >
<svg xmlns="http://www.w3.org/2000/svg">
<metadata>
This is a custom SVG webfont generated by Font Squirrel.
Copyright   :  2000 Adobe Systems Incorporated All Rights Reserved
Designer    : Carol Twombly
Foundry URL : httpwwwadobecomtype
</metadata>
<defs>
<font id="AdobeCaslonProItalic" horiz-adv-x="1024" >
<font-face units-per-em="2048" ascent="1505" descent="-543" />
<missing-glyph horiz-adv-x="471" />
<glyph unicode=" "  horiz-adv-x="471" />
<glyph unicode="&#x09;" horiz-adv-x="471" />
<glyph unicode="&#xa0;" horiz-adv-x="471" />
<glyph unicode="!" horiz-adv-x="552" d="M70 86q0 45 29.5 78t76.5 33q25 0 43.5 -10.5t30.5 -26t18 -33.5t6 -33q0 -47 -29.5 -80.5t-80.5 -33.5q-10 0 -26.5 6t-32 18t-25.5 32.5t-10 49.5zM252 385q-6 10 2 33t24.5 94.5t38 165.5t44 199.5t41 195.5t31.5 151.5t16 69.5q12 55 39.5 82t62.5 27 q45 0 67.5 -28.5t22.5 -61.5q0 -14 -7 -40t-24 -67q-2 -6 -26.5 -67.5t-59.5 -150.5t-74.5 -191.5t-74.5 -191.5t-59.5 -149.5t-26.5 -64.5q-6 -12 -10.5 -14t-14.5 -2q-6 0 -12 10z" />
<glyph unicode="&#x22;" horiz-adv-x="479" d="M270 958q6 23 16.5 78.5t23 116.5t23.5 114.5t19 75.5q14 41 39 50.5t53 9.5q25 0 43.5 -17.5t18.5 -46.5q0 -10 -25.5 -65t-58.5 -122t-62.5 -127t-37.5 -83zM516 958q6 23 16.5 78.5t22.5 116.5t23.5 114.5t19.5 75.5q14 41 39 50.5t53 9.5q25 0 43.5 -17.5t18.5 -46.5 q0 -10 -26 -65t-58.5 -122t-62.5 -127t-38 -83z" />
<glyph unicode="#" d="M86 422l25 72q4 10 8 12t14 2h186l103 299h-195q-29 0 -26 14l24 76q2 12 23 12h198l136 394q6 18 20 18h82q10 0 9 -9t-5 -20l-131 -383h199l131 385q10 27 24 27h78q14 0 6 -27l-131 -385h191q18 0 16 -12l-24 -76q-4 -10 -8.5 -12t-20.5 -2h-182l-103 -299h209 q25 0 19 -16l-25 -78q-2 -8 -27 -8h-204l-142 -414q-6 -23 -20 -23h-84q-10 0 -4 21l143 416h-201l-139 -406q-10 -31 -20 -31h-84q-14 0 -7 27l142 410h-193q-16 0 -10 16zM426 508h201l102 299h-201z" />
<glyph unicode="$" d="M119 139l129 365q6 18 16 14l23 -6q14 -6 8 -25q-29 -117 -1 -194.5t81 -118.5l125 498q-66 66 -105 129t-39 149q0 43 18.5 93.5t54.5 93.5t89 74.5t125 37.5l41 160q2 8 4 12t12 2l37 -6q10 -6 4 -24l-36 -144q29 -2 52 -8t40 -12l41 170q4 14 18 12l33 -6q12 -2 6 -25 l-43 -178q20 -10 40.5 -23.5t33.5 -13.5q10 0 19 11.5t18 44.5q2 10 12 10h18q10 0 6 -19l-51 -317q-4 -12 -10 -12h-29q-10 0 -10 18q2 45 -11.5 106.5t-53.5 114.5l-111 -458q55 -53 98 -119t43 -158q0 -76 -24.5 -134t-64.5 -99t-92 -64.5t-108 -30.5l-47 -194 q-6 -25 -20 -19l-33 11q-12 2 -6 28l43 172q-59 4 -98 15l-54 -213q-4 -12 -16 -11l-35 9q-12 2 -6 24l53 215q-29 12 -49 28.5t-35.5 32t-28 27t-22.5 11.5q-16 0 -30.5 -14.5t-36.5 -59.5q-6 -10 -15 -8l-16 8q-10 4 -4 18zM430 137q23 -10 51.5 -15t44.5 -5l105 426 q-8 6 -20.5 19t-26 25.5t-23.5 21.5t-12 12zM483 999q0 -59 15.5 -98t44.5 -74l86 359q-70 -14 -108 -69t-38 -118zM590 778q16 -14 42.5 -38.5t39.5 -32.5l108 458q-37 23 -90 25zM592 127q68 16 110.5 70.5t42.5 126.5q0 53 -18 94t-47 71z" />
<glyph unicode="%" horiz-adv-x="1433" d="M156 762q0 90 32.5 189.5t89 181t133 135t167.5 53.5q104 0 155 -62.5t51 -160.5q0 -100 -32.5 -203.5t-89 -188.5t-131 -138.5t-160.5 -53.5q-109 0 -162 67.5t-53 180.5zM268 721q0 -76 32 -114t62 -38q66 0 122.5 61.5t98.5 149.5t65.5 185.5t23.5 171.5q0 59 -31 91 t-72 32q-59 0 -113.5 -58.5t-96.5 -142.5t-66.5 -176t-24.5 -162zM336 12q0 10 8 25l836 1276q6 8 12 8t14 -4l45 -29q8 -2 9 -10q0 -6 -7 -14l-839 -1280q-8 -14 -17 -15q-8 0 -16 6l-39 27q-6 2 -6 10zM817 233q0 90 33 189.5t89 181.5t133 135.5t167 53.5 q104 0 155.5 -62.5t51.5 -161.5q0 -100 -33 -203.5t-89 -188.5t-131 -138t-161 -53q-109 0 -162 67t-53 180zM930 193q0 -76 31.5 -114t62.5 -38q66 0 122 61.5t98 149.5t65.5 185.5t23.5 170.5q0 59 -30.5 91t-71.5 32q-59 0 -113.5 -58.5t-96.5 -142.5t-66.5 -175.5 t-24.5 -161.5z" />
<glyph unicode="&#x26;" horiz-adv-x="1744" d="M205 483q0 92 25.5 164t62.5 124t78 85t71 47q-41 53 -58 113.5t-17 130.5q0 57 21.5 110.5t61 94.5t96 65.5t128.5 24.5q86 0 142 -43t56 -119q0 -33 -11 -58.5t-27.5 -42t-33 -25.5t-24.5 -9q-12 0 -6 37q6 33 -2 58.5t-26.5 44t-43 27.5t-51.5 9q-84 0 -140 -65.5 t-56 -170.5q0 -43 13 -85t38 -76q31 10 71 10q14 0 32 -3t34 -9.5t27.5 -15.5t11.5 -21q0 -37 -17.5 -67t-42.5 -30q-12 0 -29.5 4.5t-33.5 10.5t-30.5 13t-20.5 13q-20 16 -30.5 19.5t-31.5 -8.5q-53 -35 -85.5 -109t-32.5 -168t41 -177t117.5 -144.5t188 -97t253.5 -35.5 q141 0 247.5 40.5t179 105t109.5 141.5t37 151q0 61 -22.5 118.5t-62.5 101.5t-96 71.5t-124 27.5q-61 0 -98 -23.5t-58.5 -55t-29 -63.5t-7.5 -46q0 -72 26 -110t40 -38q18 0 18 31q0 18 20.5 50t67.5 32q45 0 71 -28.5t26 -75.5q0 -12 -6.5 -29.5t-21.5 -33t-38.5 -27 t-58.5 -11.5q-31 0 -68 15.5t-70.5 46t-56 78t-22.5 112.5q0 51 18.5 103.5t57 93.5t98 67.5t139.5 26.5q59 0 125 -7t94 -7q166 0 247 47t81 133q0 27 -10.5 53.5t-27.5 46t-37.5 31.5t-41.5 12q-20 0 -23.5 -15t1.5 -30q2 -10 -2.5 -24.5t-13.5 -28.5t-26.5 -23.5 t-41.5 -9.5q-51 0 -69.5 26.5t-18.5 47.5q0 66 49 96.5t106 30.5q51 0 95 -18.5t75 -48t48.5 -68.5t17.5 -80q0 -143 -89 -217t-245 -94q-35 -4 -40 -16.5t11 -39.5q20 -31 47 -94t27 -172q0 -131 -53.5 -234.5t-144.5 -175t-210.5 -109.5t-250.5 -38q-215 0 -353.5 53 t-218.5 133t-110.5 172t-30.5 170z" />
<glyph unicode="'" horiz-adv-x="294" d="M281 958q6 23 16 78.5t22.5 116.5t23.5 114.5t19 75.5q14 41 39 50.5t54 9.5q25 0 43 -17.5t18 -46.5q0 -10 -25.5 -65t-58.5 -122t-62.5 -127t-37.5 -83z" />
<glyph unicode="(" horiz-adv-x="704" d="M176 141q0 197 49 384.5t140.5 357.5t220.5 317.5t288 267.5q12 10 20.5 6t18.5 -20t8.5 -24.5t-18.5 -22.5q-131 -109 -242.5 -252t-192.5 -314t-126 -361.5t-45 -389.5q0 -117 5 -196.5t11 -134t13.5 -88t13.5 -58.5q4 -12 -2 -17.5t-25 -11.5q-20 -8 -27 -6t-12 12 q-16 33 -32.5 93.5t-31.5 136.5t-24.5 158.5t-9.5 162.5z" />
<glyph unicode=")" horiz-adv-x="704" d="M-100 -377q2 8 18 23q131 106 242.5 250.5t192.5 315.5t126 360.5t45 390.5q0 117 -5 196.5t-11 134t-13.5 88t-13.5 58.5q-4 12 2 17t25 11q20 8 27.5 6.5t11.5 -12.5q14 -33 31.5 -93t33 -136t24.5 -159t9 -163q0 -197 -49 -384t-140 -357t-220.5 -318.5t-288.5 -267.5 q-12 -10 -20.5 -6t-18.5 21q-10 16 -8 24z" />
<glyph unicode="*" horiz-adv-x="614" d="M172 948q0 27 15.5 43.5t35.5 26.5q8 4 46 15t81 23.5t78 21.5t39 9v5q-4 0 -34 8t-65.5 17t-66.5 18.5t-37 11.5q-16 6 -34.5 16.5t-18.5 34.5q0 27 20.5 50.5t49.5 23.5q18 0 39.5 -14.5t46 -39t51 -55t55.5 -63.5l2 4q0 2 -3 34.5t-6 72.5t-6 78t-1 50q4 23 21.5 43.5 t51.5 20.5q53 0 54 -39q0 -16 -11.5 -51t-28 -75t-32.5 -77t-27 -57l2 -4q16 10 49 38.5t70 58.5t70 53.5t51 23.5q29 0 42 -20.5t13 -41.5q0 -12 -12 -31.5t-70 -35.5l-45 -11q-29 -7 -60.5 -15.5t-60 -14.5l-47.5 -10v-7q4 0 38 -10t74 -21.5t75 -22.5t41 -13 q10 -4 22.5 -13.5t12.5 -23.5q0 -20 -25 -49t-57 -29q-39 0 -83 51.5t-100 120.5l-4 -4q0 -4 3 -36.5t6.5 -72.5t5.5 -77t0 -47q-4 -23 -18.5 -45.5t-55.5 -22.5q-31 0 -41 14.5t-10 30.5t11 49t26.5 71t32 75t28.5 61l-4 4q-27 -23 -60.5 -54.5t-67.5 -59t-64.5 -47 t-49.5 -19.5q-14 0 -33.5 11t-19.5 40z" />
<glyph unicode="+" d="M147 436v111h338v354h121v-354h336v-111h-336v-354h-121v354h-338z" />
<glyph unicode="," horiz-adv-x="512" d="M-2 -242q-2 16 4 20.5t18 8.5q18 6 47 20.5t54.5 38t44 53t18.5 64.5q0 37 -12 57.5t-37 47.5q-8 8 -32.5 31.5t-24.5 60.5t23.5 65.5t66.5 28.5q35 0 62.5 -20.5t46 -51t28.5 -65.5t10 -62q0 -90 -39.5 -150.5t-91 -97t-99.5 -52t-62 -15.5q-8 0 -14.5 1t-10.5 17z" />
<glyph unicode="-" horiz-adv-x="856" d="M129 459v76q0 20 16 20h662q18 0 18 -16v-70q0 -16 -5 -20.5t-13 -4.5h-662q-16 1 -16 15z" />
<glyph unicode="." horiz-adv-x="512" d="M84 90q0 31 25.5 69t80.5 38q35 0 57.5 -13.5t36 -31t18.5 -36t5 -26.5q0 -41 -31.5 -75.5t-82.5 -34.5q-47 0 -78 31.5t-31 78.5z" />
<glyph unicode="/" horiz-adv-x="675" d="M-109 6q-10 6 7 27l983 1353q12 18 28 13l60 -27q14 -6 0 -29l-985 -1355q-16 -25 -31 -17z" />
<glyph unicode="0" d="M109 383q0 100 24.5 208.5t68.5 213t106.5 198t136 164t158.5 112.5t175 42q150 0 227.5 -105.5t77.5 -271.5q0 -113 -24.5 -228.5t-68.5 -224t-105.5 -203.5t-134 -166t-154.5 -112t-168 -41q-154 0 -236.5 113t-82.5 301zM256 315q0 -135 49 -199.5t115 -64.5 q74 0 142.5 48t125.5 128t104.5 181.5t81 209t51 211t17.5 187.5q0 111 -48 166t-128 55q-68 0 -132.5 -46t-120.5 -123t-103.5 -174t-81 -199.5t-53 -202t-19.5 -177.5z" />
<glyph unicode="1" d="M88 8l12 47q2 14 25 15h108q53 0 90 16t72 88q8 18 36 99t63 194l116 379q29 92 45.5 139t16.5 64q0 39 -33 38q-16 0 -47 -12t-80 -33l-111 -47q-18 -10 -28 6l-17 33q-6 14 15 25l460 241l37 16q12 5 25 5q8 0 15 -5t7 -16q0 -16 -16 -55q-2 -6 -18.5 -52t-40 -113.5 t-51 -149.5t-52.5 -160l-112 -358q-25 -76 -46.5 -146.5t-29.5 -97.5q-20 -55 -3 -76.5t91 -21.5h111q16 0 12 -21l-8 -43q-2 -12 -19 -12q-6 0 -55 1t-107.5 2t-109.5 2t-60 1q-12 0 -58 -1t-98 -2t-96.5 -2t-50.5 -1q-14 0 -10 14z" />
<glyph unicode="2" d="M-14 14q0 6 6 16.5t22 24.5q68 53 155 119t177 140.5t177 154.5t156 162t110.5 165t44.5 160q0 27 -6.5 69t-28 80t-61.5 65.5t-107 27.5q-61 0 -109.5 -27.5t-83.5 -64.5t-58.5 -76t-37.5 -61q-16 -27 -25 -23l-32 17q-8 6 0 28q16 43 53 99.5t91 107.5t125 87t157 36 q135 0 214 -86t79 -223q0 -90 -41 -178.5t-106.5 -171t-149.5 -158.5t-170 -142.5t-166 -123t-140 -99.5v-4h367q47 0 83 13.5t64.5 35t51 50t43.5 57.5q10 18 20 14l31 -14q4 -8 -6 -25q-18 -29 -43 -74t-46.5 -90t-36 -79.5t-16.5 -40.5q-10 -20 -24 -21q-23 0 -39 25 q-10 10 -40 12t-56 2h-465q-16 0 -33.5 -1t-34.5 -1q-16 -2 -27.5 -3t-21.5 -1q-16 0 -16 20z" />
<glyph unicode="3" d="M16 197q0 23 17.5 52.5t52.5 29.5q27 0 44 -12.5t25.5 -31t9.5 -39t-1 -34.5q-2 -20 9 -43t33.5 -42.5t55.5 -31.5t74 -12q78 0 146.5 31.5t119.5 87t81 129t30 159.5t-43 157t-113 95q-23 8 -30 14.5t-7 20.5q0 12 7.5 16.5t29.5 8.5q33 6 82 28.5t94 61.5t78 91t33 118 q0 14 -6.5 40.5t-24.5 53t-53 46t-90 19.5q-49 0 -93.5 -21.5t-78 -51t-58 -59t-32.5 -46.5q-12 -23 -29 -12l-25 16q-6 8 -3 17.5t9 19.5q18 31 51 73t82.5 81t114 66.5t146.5 27.5q61 0 107 -19.5t76 -49t44 -64.5t14 -66q0 -66 -22.5 -119t-60.5 -97t-86 -79.5t-97 -66.5 q76 -45 114 -121t38 -174q0 -106 -51.5 -197.5t-131.5 -157t-178 -103.5t-190 -38q-78 0 -136.5 20.5t-97.5 53.5t-59.5 73t-20.5 81z" />
<glyph unicode="4" d="M27 412q0 18 47 59l934 823q12 10 26.5 18.5t30.5 8.5q39 0 12 -72l-289 -760h213q12 0 14.5 -7t0.5 -15l-31 -61q-12 -25 -33 -25h-207l-131 -340q-10 -27 -18 -34t-31 -7h-92q-20 0 -2 49l131 332h-543q-14 0 -23 9.5t-9 21.5zM229 501.5q2 -12.5 19 -12.5h397l215 539 q10 29 3 36t-25 -9l-594 -529q-17 -12 -15 -24.5z" />
<glyph unicode="5" d="M59 63q0 23 13.5 41.5t38.5 18.5q29 0 53 -12.5t51 -32.5q14 -10 44 -18.5t69 -8.5q88 0 160.5 33t124 84t79 113.5t27.5 124.5q0 98 -44 164.5t-120 107.5q-14 8 -37.5 16t-50.5 14.5t-52.5 9.5t-45.5 3q-51 0 -60 10q-14 10 -4 37l193 504q4 12 12 15t18 3h373 q57 0 82 23.5t51 58.5q10 12 31 -4q25 -16 14 -31l-116 -176q-8 -10 -23.5 -13t-40.5 -3h-362l-113 -289l6 -4q8 0 37 -3t64.5 -10.5t75.5 -18.5t75 -27q55 -29 93 -66t59.5 -78t30.5 -85t9 -85q0 -76 -37.5 -165t-111.5 -165.5t-184.5 -128t-253.5 -51.5q-35 0 -75 5.5 t-74 16.5t-56.5 29t-22.5 43z" />
<glyph unicode="6" d="M152 313q0 117 34.5 227.5t94 211t137.5 188.5t163 159.5t172 125t165 82.5l27 9q15 5 26 5q25 0 24 -27q0 -10 -7 -16t-13 -10q-102 -51 -182 -110.5t-144.5 -127t-118 -145.5t-102.5 -166l4 -4q61 41 116.5 58.5t131.5 17.5q63 0 113.5 -23t86 -60.5t54 -90 t18.5 -109.5q0 -104 -41 -201.5t-108.5 -172.5t-156.5 -120t-185 -45q-80 0 -137.5 28t-96.5 74t-57 108t-18 134zM293 279q0 -35 6 -77t24.5 -78t54.5 -60.5t93 -24.5q80 0 139.5 51t99.5 123t59 151.5t19 139.5q0 39 -12 76.5t-34.5 66.5t-58.5 46.5t-81 17.5 q-53 0 -113.5 -27t-95.5 -74q-29 -39 -48 -82t-29.5 -87t-15.5 -84.5t-7 -77.5z" />
<glyph unicode="7" d="M252 1014l164 325q10 16 14 20.5t21 -1.5q12 -4 14 -10.5t0 -18.5q-4 -25 15.5 -32t70.5 -7h534q18 0 19 -16q0 -10 -2 -12t-8 -13q-4 -4 -32 -52t-62.5 -106.5t-65.5 -110.5t-39 -67q-6 -10 -35 -64t-70.5 -134t-91 -173t-94.5 -178t-80 -154t-49 -97 q-23 -49 -52.5 -96.5t-70.5 -47.5q-20 0 -42.5 12.5t-22.5 53.5q0 25 16 53.5t27 44.5q4 6 41 60.5t87 130t103 160.5t92 153q20 37 64.5 113.5t91.5 159.5t87 153t54 90h-395q-59 0 -96 -13.5t-63.5 -36t-48 -53t-48.5 -65.5q-12 -18 -37 0q-18 13 -10 29z" />
<glyph unicode="8" d="M123 244q0 84 41 147.5t99.5 109.5t123 79.5t113.5 60.5q-20 27 -48 60.5t-53.5 73.5t-44 83t-18.5 90q0 61 29.5 127t87 120t138.5 90t185 36q70 0 124 -20.5t92 -54.5t57.5 -78t19.5 -89q0 -84 -42 -153.5t-100.5 -122.5t-120 -91t-101.5 -59q25 -31 51 -63.5 t48.5 -69.5t37 -77t14.5 -85q0 -76 -30.5 -146.5t-87 -123.5t-134.5 -86t-170 -33q-98 0 -159.5 32t-95.5 76t-45 91t-11 76zM262 233q0 -49 17.5 -88t43 -65.5t57.5 -40.5t60 -14q70 0 119 27.5t81 68.5t46 85t14 79q0 55 -16 101t-41 84t-51.5 68.5t-46.5 55.5 q-39 -23 -88 -49.5t-92 -67.5t-73 -99.5t-30 -144.5zM485 1016q0 -82 45 -157t123 -157q59 31 110.5 65t90.5 76t60.5 94t21.5 118q0 25 -10.5 59.5t-34 65t-62 52t-94.5 21.5q-47 0 -91 -15t-80 -45t-57.5 -75t-21.5 -102z" />
<glyph unicode="9" d="M152 -4q0 18 14 27q121 55 210 116.5t155.5 128t116.5 137t93 146.5l-4 4q-47 -41 -94 -57.5t-127 -16.5q-86 0 -140 36t-85 86t-42 101.5t-11 81.5q0 90 34.5 185.5t97 173.5t151.5 127t200 49q158 0 232.5 -94t74.5 -254q0 -176 -74.5 -338t-192.5 -295t-261.5 -227.5 t-280.5 -132.5q-10 -4 -20.5 -7.5t-18.5 -3.5q-12 0 -20 8.5t-8 18.5zM395 768q0 -35 8.5 -73t29 -68.5t53 -50t79.5 -19.5q53 0 113.5 29.5t99.5 81.5q31 41 51.5 88t32.5 95t18.5 94t6.5 85q0 33 -6.5 71t-24.5 71.5t-53 56t-92 22.5q-84 0 -143.5 -53t-97.5 -129 t-56.5 -159t-18.5 -142z" />
<glyph unicode=":" horiz-adv-x="512" d="M57 90q0 31 26 69t81 38q35 0 57.5 -13.5t35.5 -31t18.5 -36t5.5 -26.5q0 -41 -32 -75.5t-83 -34.5q-47 0 -78 31.5t-31 78.5zM285 745q0 31 25.5 69t80.5 38q35 0 57.5 -13.5t36 -30.5t18.5 -35.5t5 -27.5q0 -41 -32 -75.5t-83 -34.5q-47 0 -77.5 31.5t-30.5 78.5z" />
<glyph unicode=";" horiz-adv-x="512" d="M4 -242q-2 16 4 20.5t19 8.5q18 6 46.5 20.5t54.5 38t44 53t18 64.5q0 37 -12 57.5t-37 47.5q-8 8 -32.5 31.5t-24.5 60.5t23.5 65.5t66.5 28.5q35 0 62.5 -20.5t46 -51t29 -65.5t10.5 -62q0 -90 -40 -150.5t-91.5 -97t-99.5 -52t-62 -15.5q-8 0 -14.5 1t-10.5 17z M250 745q0 31 25.5 69t80.5 38q35 0 57.5 -13.5t36 -30.5t18.5 -35.5t5 -27.5q0 -41 -31.5 -75.5t-83.5 -34.5q-47 0 -77.5 31.5t-30.5 78.5z" />
<glyph unicode="&#x3c;" d="M172 461v65l637 375v-135l-453 -262v-10l453 -273v-139z" />
<glyph unicode="=" d="M147 289v110h795v-110h-795zM147 598v111h795v-111h-795z" />
<glyph unicode="&#x3e;" d="M256 82v135l453 262v10l-453 273v139l637 -379v-65z" />
<glyph unicode="?" horiz-adv-x="878" d="M254 510q0 63 36 114.5t87 92.5t107.5 72.5t95.5 56.5q55 33 102 64.5t83 67.5t56.5 81t20.5 104q0 25 -11.5 53.5t-36 54t-63.5 43t-94 17.5q-49 0 -92 -14t-76 -39t-52.5 -59.5t-19.5 -73.5q0 -49 22.5 -70.5t39.5 -21.5q25 0 33 18q-4 10 -3.5 16.5t0.5 14.5 q0 12 5.5 27.5t17.5 31t31.5 25.5t48.5 10q41 0 58.5 -24.5t17.5 -45.5q0 -33 -15.5 -59.5t-39 -44.5t-52.5 -28.5t-57 -10.5q-29 0 -58.5 7t-54 25.5t-40 49.5t-15.5 76q0 43 20.5 89t60.5 85t98 63.5t134 24.5q96 0 155.5 -32t91.5 -75t43 -89t11 -72q0 -96 -36.5 -167 t-93 -123t-124 -89t-127.5 -68q-113 -57 -176 -100t-63 -111q0 -47 42 -74.5t101 -27.5q57 0 102.5 28.5t61.5 47.5q8 8 18 -5l15 -16q8 -8 4 -16q-12 -12 -34 -33t-50.5 -39t-63 -31.5t-71.5 -13.5t-74 12.5t-64.5 39t-45 66.5t-17.5 95zM264 80q0 35 24.5 70.5t78.5 35.5 q47 0 75.5 -31.5t28.5 -74.5q0 -14 -7 -31.5t-20.5 -33t-32 -25.5t-40.5 -10q-35 0 -71 25.5t-36 74.5z" />
<glyph unicode="@" horiz-adv-x="1433" d="M117 512q0 115 34.5 225.5t95 210t143.5 183t179.5 144t204 94.5t215.5 34q127 0 223.5 -37t162 -104.5t98 -162.5t32.5 -214q0 -96 -37.5 -192.5t-108.5 -175.5t-173.5 -128t-231.5 -49q-29 0 -50 19.5t-21 43.5q0 23 13 78.5t54 153.5l-8 4q-29 -41 -75 -92t-101 -97.5 t-114.5 -78t-114.5 -31.5q-37 0 -68 27.5t-31 85.5q0 96 54.5 207.5t136.5 207t179 157.5t181 62q57 0 83 -23.5t36 -43.5l25 37q10 14 18 14h74q12 0 13 -7t-3 -13q-10 -18 -31.5 -67.5t-44 -104t-42 -100.5t-23.5 -56q-10 -23 -23.5 -58.5t-27 -74.5t-22.5 -76t-9 -59 q0 -39 57 -39q39 0 93.5 29.5t104.5 90t84.5 152.5t34.5 217q0 215 -110.5 320.5t-308.5 105.5q-147 0 -276.5 -70.5t-224.5 -183t-150.5 -254t-55.5 -282.5q0 -119 38 -211t103.5 -155.5t154.5 -96.5t194 -33q94 0 189 13.5t179 66.5l27 -49q-23 -20 -67 -39t-101 -34 t-123 -24.5t-133 -9.5q-141 0 -254 40t-190.5 113t-118.5 172t-41 218zM573 489q0 -61 48 -61q29 0 66.5 21.5t76.5 54.5t77 73.5t68.5 79.5t53 71t30.5 48q51 102 51 152q0 41 -21.5 72.5t-57.5 31.5q-41 0 -85 -28.5t-88 -74.5t-83 -104.5t-70 -119t-48.5 -118 t-17.5 -98.5z" />
<glyph unicode="A" horiz-adv-x="1267" d="M-154 8l11 45q2 16 14 17h31q66 0 129 42t119 107l948 1133q8 10 18 14t39 6q23 2 51.5 6t44.5 8t36 10.5t32 6.5q22 0 22 -14q0 -3 -2 -7l-301 -1136q-6 -27 -13 -60.5t-7 -58.5t22.5 -41t53.5 -16h55q18 0 16 -21l-6 -37q-2 -10 -6 -14t-18 -4q-18 0 -80 3t-166 3 q-109 0 -162 -3t-78 -3t-20 20l8 39q4 16 16 17h39q29 0 53.5 5t46 21.5t39 50t33.5 91.5l103 378h-365l-287 -360q-33 -41 -58.5 -78t-25.5 -59q0 -49 72 -49h74q18 0 14 -21l-8 -39q-4 -16 -21 -16q-16 0 -81.5 3t-186.5 3q-102 0 -157.5 -3t-71.5 -3q-21 0 -19 14z M655 688h334l158 541q1 5 1 9q0 14 -14 16q-3 1 -7 1q-15 0 -25 -12z" />
<glyph unicode="B" horiz-adv-x="1267" d="M25 10l8 43q4 16 18 17h80q59 0 87 32.5t44 92.5l260 972q12 45 13 74q0 55 -113 55h-53q-20 0 -17 19l8 43q2 14 27 14h56q46 0 110 2q92 2 163.5 3t125.5 1q10 0 45 -1t81 -7t97 -20.5t94 -38.5q53 -33 91 -86.5t38 -124.5q0 -96 -39 -166t-98 -117t-131 -73.5 t-139 -38.5q-10 -2 -10.5 -5.5t6.5 -7.5q123 -39 200.5 -121t77.5 -211q0 -8 -3 -33.5t-14.5 -59.5t-35 -74.5t-66.5 -79.5q-57 -53 -158.5 -86t-273.5 -33q-70 0 -138.5 3t-137.5 3q-72 0 -142.5 -3t-142.5 -3q-20 0 -18 16zM424 125q4 -23 33 -41q8 -4 24.5 -9t36 -8.5 t36.5 -5.5t30 -2q102 0 176 29t121 75t69.5 105.5t22.5 122.5q0 82 -39 136.5t-96.5 86t-125 45t-124.5 13.5h-29l-125 -471q-11 -41 -11 -65q0 -6 1 -11zM578 741q27 -4 64.5 -6t57.5 -2q82 0 156 19.5t129 60.5t89 104.5t34 151.5q0 49 -22.5 93t-63.5 78t-100.5 53.5 t-133.5 19.5q-18 0 -32.5 -1t-26.5 -3z" />
<glyph unicode="C" horiz-adv-x="1363" d="M209 457q0 88 19.5 181t58.5 185t93 179.5t126 164.5q100 111 230 173.5t263 62.5q74 0 135.5 -18.5t135.5 -69.5q20 -14 46.5 -36t55.5 -22q18 0 30.5 14.5t22.5 49.5q6 18 19 12l26 -6q14 -2 14 -12q0 -4 -1 -8l-109 -424q-6 -16 -22 -13l-29 4q-14 2 -12 21 q10 45 9 90q0 31 -4 63q-11 77 -49 139t-101.5 102t-151.5 40q-125 0 -215 -61.5t-178 -188.5q-57 -84 -96.5 -172t-63 -172t-33.5 -160.5t-10 -138.5q0 -111 31.5 -183.5t80 -117.5t102.5 -63.5t99 -18.5q63 0 134 14.5t138.5 53.5t129 109.5t108.5 185.5q6 14 9 17t12 -1 l34 -10q10 -4 11.5 -7t-0.5 -12l-146 -438q-5 -11 -13 -11q-2 0 -5 1l-37 10q-10 4 -6 17l4 16q2 8 2 18q0 39 -33 39q-14 0 -37.5 -8t-52.5 -20q-16 -8 -49 -18.5t-73 -18.5t-82 -14.5t-79 -6.5q-102 0 -191 34t-155.5 97.5t-105.5 153.5t-39 203z" />
<glyph unicode="D" horiz-adv-x="1591" d="M8 10l12 45q4 14 21 15h61q27 0 53.5 6t48 23.5t40 49t30.5 82.5l236 963q5 19 5 35q0 32 -22 46q-34 22 -87 21h-93q-27 0 -20 17l12 45q4 10 9 12t24 2q18 0 64.5 1t105.5 5q66 2 128 4t93 2q98 0 198.5 -7t195 -28.5t177 -60.5t148.5 -102q94 -96 124 -186.5 t30 -184.5q0 -152 -42 -265.5t-101.5 -196.5t-124 -135t-111.5 -79q-96 -55 -194.5 -83.5t-186.5 -43t-163 -16.5t-126 -2q-20 0 -61 1t-87.5 2t-88.5 2t-62 1q-117 0 -167 -3t-62 -3q-21 0 -17 16zM430 131q0 -33 40 -47t105 -14q82 0 163 8t156 28.5t142.5 52t124.5 81.5 q47 39 92 99t80 136t56.5 161t21.5 173q0 100 -37 190.5t-94 149.5q-51 53 -112.5 85t-120.5 48q-84 23 -142.5 25t-81.5 2q-25 0 -61.5 -1t-52.5 -5l-265 -1086q-6 -29 -10 -49.5t-4 -36.5z" />
<glyph unicode="E" horiz-adv-x="1370" d="M-6 10l6 43q6 16 16 17h76q63 0 97 30.5t51 83.5l311 973q10 30 10 53q0 10 -2 18q-6 28 -24.5 45t-44 23.5t-52.5 6.5h-65q-18 0 -13 22l11 39q4 14 24 14q10 0 27.5 -1t50.5 -1q33 -2 82 -3t123 -1h131q117 0 205 1t151 3q63 0 102.5 1t55.5 1q23 0 30 -7t13 -32 l66 -280q2 -10 -13 -19l-22 -8q-8 -4 -11.5 -3t-9.5 9l-192 248q-10 16 -33 17h-373l-176 -539h197q45 0 79.5 3t64.5 19.5t53.5 51t45.5 98.5q4 12 15 10l30 -6q14 -4 13 -16l-111 -408q-2 -14 -14 -12l-33 4q-10 2 -8 16q2 20 2 38q0 37 -9 61q-13 35 -42 52t-74 20 t-106 3h-123l-199 -628h530q55 0 94.5 22.5t69.5 63.5l164 206q10 14 25 5l20 -13q6 -4 8 -9t-2 -19l-104 -297q-8 -23 -17.5 -29t-27.5 -6q-12 0 -73.5 1t-154.5 3q-92 0 -199.5 1t-213.5 1h-238q-72 0 -118 -1t-74 -1q-29 -2 -42.5 -3t-19.5 -1q-18 0 -17 10q0 2 1 6z" />
<glyph unicode="F" horiz-adv-x="1269" d="M18 10l9 43q4 16 20 17h59q102 0 142 125l321 1030q6 18 6 31q0 46 -63 47h-70q-20 0 -14 18l12 41q4 16 25 16q23 0 82 -3t143 -3q117 0 204 1t151.5 2t110.5 2t81 1q76 4 119 12.5t59 8.5q20 0 21 -33q0 -20 6 -69.5t13 -101.5t13 -96q2 -13 4.5 -26t3.5 -19.5t1 -10.5 q0 -11 -11 -15l-30 -12q-12 -6 -17 10q-4 12 -20.5 45t-38 71t-41 70.5t-27.5 42.5q-10 14 -16 20.5t-12.5 9.5t-16.5 4l-30 3q-10 0 -44 2t-80 3t-98.5 2t-98.5 2.5t-81 1.5h-45l-172 -549l305 4q51 0 82 14t51.5 42t33.5 67t28 88q4 10 10 11t14 -1l33 -6q12 -4 8 -19 l-121 -514q-6 -16 -20 -10l-35 4q-14 2 -12 19q8 55 11 96q1 11 1 21q0 27 -6 47q-8 28 -31.5 41.5t-66.5 15.5l-308 12l-139 -465q-14 -47 -17 -76.5t5 -46t25.5 -22.5t44.5 -6h57q23 0 18 -17l-14 -47q-2 -12 -25 -12q-18 0 -72.5 3t-176.5 3q-66 0 -109 -1t-71.5 -2 t-44 -2t-23.5 -1q-17 0 -15 16z" />
<glyph unicode="G" horiz-adv-x="1452" d="M209 543q0 182 69.5 338.5t185.5 272.5t267.5 182.5t315.5 66.5q66 0 120 -11.5t96 -27.5t70.5 -33.5t44.5 -30.5q20 -16 33.5 -20t22.5 -4q23 0 33 15.5t20 49.5q4 12 20 9l25 -7q14 -4 12 -16l-117 -412q-4 -14 -24 -12l-27 4q-18 4 -12 21q10 39 10 80q0 28 -5 57 q-11 72 -51 131t-107.5 98t-163.5 39q-139 0 -256 -66.5t-202 -180t-133 -264t-48 -318.5q0 -121 32.5 -208t86 -143.5t121 -83t138.5 -26.5q49 0 90.5 9t73 22.5t55 28t37.5 26.5t22.5 30.5t14.5 39.5l41 198q6 24 6 42q0 27 -14 38q-23 18 -74 19h-75q-20 0 -15 20l8 39 q2 16 23 16q23 0 79 -3t159 -3q51 0 87.5 1t61.5 2t41 2t27 1q20 0 18 -20l-6 -39q-2 -16 -19 -16h-32q-37 0 -59.5 -15.5t-32.5 -58.5l-72 -316q-6 -20 -13.5 -28t-23.5 -17q-23 -10 -65 -25.5t-96 -29.5t-115.5 -25.5t-120.5 -11.5q-135 0 -244 45t-185.5 122 t-117.5 181.5t-41 225.5z" />
<glyph unicode="H" horiz-adv-x="1605" d="M4 18l8 35q4 10 6 13.5t13 3.5h49q49 0 81 36.5t58 118.5l320 981q7 19 6 35q0 22 -14 37q-24 25 -64 25h-74q-18 0 -12 20l10 39q6 16 21 16q12 0 85.5 -3t172.5 -3q92 0 160.5 3t84.5 3q25 0 19 -16l-14 -45q-2 -14 -19 -14h-53q-66 0 -90.5 -24t-44.5 -85l-148 -457 h744l151 477q6 19 6 34q0 22 -13 34q-22 20 -58 21h-49q-18 0 -15 20l10 43q2 12 21 12q14 0 81.5 -3t149.5 -3q86 0 145.5 3t76.5 3q25 0 20 -14l-12 -45q-6 -16 -19 -16h-59q-41 0 -65.5 -23t-45.5 -86l-317 -981q-14 -40 -14 -71q0 -16 4 -30q10 -42 59 -42h74 q23 0 16 -21l-10 -41q-2 -14 -25 -14q-16 0 -71.5 3t-178.5 3q-113 0 -174 -3t-77 -3q-20 0 -17 24l4 31q4 20 19 21h57q31 0 55.5 8t44 27.5t36 54.5t32.5 88l135 416h-747l-148 -459q-18 -54 -18 -83q0 -18 7 -28q17 -25 73 -24h71q20 0 17 -17l-9 -41q-4 -18 -22 -18 q-16 0 -78.5 3t-181.5 3q-106 0 -161.5 -3t-70.5 -3q-16 0 -15 14q0 4 1 10z" />
<glyph unicode="I" horiz-adv-x="735" d="M-16 10l8 39q4 20 18 21h88q45 0 73 8t45 26.5t27.5 47t22.5 69.5l256 946q10 38 10 64.5t-10 41.5q-20 30 -73 30h-95q-20 0 -18 16l10 47q2 12 27 12q18 0 93 -3t183 -3q127 0 194.5 3t90.5 3q24 0 24 -14q0 -3 -2 -6l-10 -39q-2 -8 -6 -12t-16 -4h-39q-47 0 -78 -5.5 t-51.5 -20.5t-34.5 -44t-27 -76l-256 -948q-9 -34 -9 -59q0 -30 13 -48q25 -33 105 -32h71q16 0 13 -21l-6 -39q-2 -10 -5.5 -13t-19.5 -3t-89 3t-208 3q-125 0 -206 -3t-97 -3q-20 0 -16 16z" />
<glyph unicode="J" horiz-adv-x="706" d="M-266 -272q0 45 25.5 76.5t66.5 31.5q45 0 67.5 -29.5t22.5 -56.5q0 -12 -3 -26.5t-9 -24.5q-8 -12 0 -25q4 -4 18.5 -9t50.5 -5q43 0 79 33t65.5 84t53.5 115.5t42 127.5l334 1156q8 25 11 48t-4 40.5t-26.5 28t-56.5 10.5h-68q-20 0 -18 16l10 43q2 16 21 16 q12 0 79.5 -3t180.5 -3t175 3t77 3q20 0 18 -20l-8 -41q-2 -14 -20 -14h-54q-25 0 -46 -6.5t-39.5 -25t-36 -51t-31.5 -85.5l-265 -926q-16 -53 -36.5 -115.5t-46 -123t-54 -115t-57.5 -93.5q-133 -172 -322 -172q-59 0 -97 15.5t-59.5 37t-30.5 45.5t-9 40z" />
<glyph unicode="K" horiz-adv-x="1400" d="M23 16l8 37q2 8 6 12.5t16 4.5h58q41 0 75.5 29.5t55.5 93.5l315 978q13 40 13 68q0 19 -6 32q-15 32 -75 32h-51q-25 0 -18 20l14 43q4 12 25 12q14 0 69.5 -3t159.5 -3q123 0 177.5 3t72.5 3q16 0 12 -20l-6 -39q-2 -16 -24 -16h-50q-53 0 -83.5 -26t-49.5 -83 l-153 -483q33 0 55.5 2t40.5 8t35.5 17.5t38.5 29.5q68 61 143.5 127t144 129t125 118.5t86.5 92.5q23 29 15 49.5t-49 20.5h-25q-20 0 -16 20l8 37q6 16 22 16t75.5 -3t150.5 -3q92 0 138 3t60 3q27 0 23 -18l-8 -37q-4 -10 -7.5 -15t-13.5 -5h-63q-47 0 -87 -19.5 t-75 -48.5q-20 -16 -72.5 -61.5t-118 -103.5t-138.5 -121.5t-134 -120t-103 -95.5t-51 -47q4 -8 29 -45t61.5 -90t79.5 -115.5t82 -118t70 -98.5t43 -57q29 -33 71 -62.5t76 -29.5h60q23 0 18 -21l-8 -35q-4 -12 -8 -16t-19 -4q-18 0 -64 3t-145 3q-45 0 -88 -1t-77.5 -2 t-59 -2t-33.5 -1q-20 0 -18 22l4 33q2 20 19 21h30q35 0 55.5 17t6.5 40q-4 6 -26.5 41t-56.5 85t-72 109.5t-73.5 112.5t-63.5 94t-40 56q-14 16 -27.5 22t-44.5 6l-145 -448q-12 -35 -12 -61q0 -25 11 -41q22 -34 70 -33h52q16 0 14 -21l-8 -39q-4 -16 -27 -16 q-16 0 -81.5 3t-170.5 3q-117 0 -168 -3t-61 -3q-20 -1 -16 22z" />
<glyph unicode="L" horiz-adv-x="1280" d="M2 14l8 39q4 16 19 17h51q33 0 58.5 5t44 21.5t33.5 46t32 78.5l295 955q13 38 12 64q0 20 -7 33q-17 30 -93 30h-76q-20 0 -17 16l15 47q2 12 24 12q16 0 85 -3t198 -3q131 0 202.5 3t88.5 3q20 0 16 -16l-10 -43q-6 -16 -25 -16h-92q-29 0 -50 -5.5t-38.5 -20.5 t-31 -43t-27.5 -73l-320 -1032q-10 -35 3.5 -47t48.5 -12h81h117q68 0 131.5 1t112.5 3t63 4q29 4 44.5 13t27.5 20q14 14 41 50t53.5 74.5t46 71.5t23.5 39q4 12 20 4l21 -8q13 -5 13 -14q0 -5 -2 -11.5t-7 -19.5t-8 -26q-12 -44 -26.5 -97t-28 -102t-15.5 -70 q-6 -33 -24 -33q-10 0 -23.5 4t-30.5 9q-16 4 -35.5 8t-39.5 4q-16 0 -68.5 1t-122.5 2t-146.5 2t-142.5 1q-86 0 -173 -1t-157.5 -2t-118.5 -2t-57 -1q-18 0 -16 20z" />
<glyph unicode="M" horiz-adv-x="1921" d="M-12 10l8 43q2 16 14 17h41q41 0 68.5 10t45 29.5t30 45t22.5 56.5l336 967q14 39 14 67q0 29 -30.5 43.5t-75.5 14.5h-74q-29 0 -25 20l9 35q6 20 22 20q8 0 29.5 -1t68 -2t120 -2t184.5 -1q25 0 30.5 -10t10.5 -37l98 -989q5 -42 20 -43q12 0 31 26l723 1020 q10 16 21.5 24.5t31.5 8.5q86 0 142.5 1t92.5 2t55.5 2t29.5 1q23 0 18 -16l-8 -43q-2 -16 -20 -16h-62q-37 0 -59.5 -38t-44.5 -114l-265 -954q-8 -31 -7 -54q0 -26 9 -43q18 -31 60 -30h63q18 0 15 -17l-8 -43q-2 -10 -5.5 -13t-19.5 -3q-18 0 -72.5 3t-165.5 3 q-125 0 -187 -3t-79 -3q-14 0 -17 5t-1 15l4 35q2 10 6 15.5t16 5.5h54q78 0 114.5 40t55.5 105l274 989q6 25 -8.5 27t-24.5 -14l-839 -1186q-23 -35 -50.5 -33t-31.5 47l-117 1153q-4 29 -14.5 31t-18.5 -21l-336 -993q-16 -45 -17 -72.5t7 -44t23.5 -22.5t31.5 -6h72 q16 0 14 -21l-6 -39q-4 -16 -24 -16q-16 0 -66.5 3t-144.5 3q-86 0 -134.5 -3t-64.5 -3t-12 16z" />
<glyph unicode="N" horiz-adv-x="1527" d="M-31 16l6 37q4 16 19 17h55q76 0 116 48t77 163l282 901q8 25 9.5 46t-11 37.5t-40 27t-76.5 10.5h-78q-23 0 -17 24l8 31q4 10 7.5 15t15.5 5q10 0 31.5 -1t62.5 -2t103.5 -2t154.5 -1q23 0 29 -18.5t14 -34.5l441 -983q12 -27 20 -20.5t31 67.5l268 801q11 31 11 54 q0 21 -9 35q-18 30 -67 30h-72q-25 0 -23 22l6 37q4 16 21 16q18 0 70.5 -3t162.5 -3q80 0 117 3t60 3q20 0 19 -17q0 -4 -1 -9l-6 -33q-2 -16 -19 -16h-51q-39 0 -62.5 -19.5t-49.5 -93.5l-398 -1137q-16 -51 -40.5 -52t-43.5 40l-487 1087q-10 20 -20.5 20.5t-16.5 -22.5 l-262 -866q-19 -61 -19 -104q0 -21 5 -37q14 -49 84 -49h79q23 0 19 -21l-6 -39q-4 -10 -7.5 -13t-17.5 -3q-16 0 -80.5 3t-177.5 3q-106 0 -159.5 -3t-69.5 -3q-21 -1 -17 22z" />
<glyph unicode="O" horiz-adv-x="1452" d="M209 590q0 158 58.5 304t157.5 260t229 181.5t272 67.5q117 0 215 -44t169.5 -125t112.5 -194.5t41 -251.5q0 -143 -48 -288.5t-141 -263t-228.5 -192.5t-309.5 -75q-14 0 -52 1t-88 13.5t-107.5 41t-108.5 84.5q-92 92 -132 211.5t-40 269.5zM365 457 q0 -109 29.5 -186.5t76.5 -127t104.5 -72t114.5 -22.5q84 0 162 36t146.5 97.5t125 146.5t96.5 181t62.5 201.5t22.5 210.5q0 82 -21.5 153.5t-63.5 123.5t-105.5 83t-149.5 31q-94 0 -165 -41t-136 -107q-68 -68 -123.5 -157.5t-94 -186t-60 -190.5t-21.5 -174z" />
<glyph unicode="P" horiz-adv-x="1208" d="M41 14l4 35q4 20 23 21h43q41 0 68.5 13t45 35.5t28.5 52.5t19 62l244 926q6 25 10 49.5t-1 44t-22.5 31.5t-51.5 12h-97q-14 0 -10 21l10 39q4 10 8.5 13t20.5 3q8 0 69.5 1t136.5 2t140.5 2t81.5 1q145 0 238.5 -17.5t167.5 -78.5q33 -29 56 -56.5t38.5 -59t21.5 -71.5 t6 -91q0 -78 -33.5 -156t-105.5 -139.5t-183.5 -100.5t-266.5 -39q-68 0 -126.5 8.5t-80.5 16.5l-101 -375q-8 -29 -10 -56.5t4 -48t23.5 -32.5t48.5 -12h78q20 0 16 -21l-6 -39q-2 -16 -25 -16q-18 0 -83.5 3t-188.5 3q-104 0 -161.5 -3t-80.5 -3q-18 0 -16 20zM557 668 q47 -33 174 -33q115 0 197 36t133 92t74.5 123.5t23.5 133.5q0 92 -34.5 148.5t-87 89t-114 44t-112.5 11.5h-43q-27 0 -37 -4z" />
<glyph unicode="Q" horiz-adv-x="1515" d="M209 -248q0 31 50 66t121 67.5t145.5 59t121.5 39.5v8q-90 16 -167 62t-133 120t-88 175.5t-32 230.5q0 106 30 205.5t73 181.5t92 144.5t88 94.5q45 39 91 75t102.5 62.5t128 43t169.5 16.5q109 0 204 -36t167 -106.5t114 -179t42 -252.5q0 -74 -16.5 -154.5t-47 -161.5 t-76 -159t-102.5 -145q-43 -49 -92 -87t-99.5 -65.5t-96.5 -45t-80 -25.5q-66 -16 -138.5 -37t-140.5 -41.5t-122 -41t-83 -34.5l4 -10q35 4 82 8t107 4q88 0 152.5 -17.5t112.5 -44t83 -61.5t59 -67q31 -43 58.5 -64.5t62.5 -21.5q41 0 59.5 22.5t18.5 44.5q0 10 -3 18 l-9 21q-8 14 -12.5 27.5t-4.5 40.5q0 31 23.5 55.5t60.5 24.5q23 0 37 -9.5t23.5 -22.5t12.5 -26.5t3 -21.5q0 -59 -26.5 -104.5t-67.5 -76t-90.5 -47t-94.5 -16.5q-55 0 -106 21.5t-98 72.5q-35 37 -72 68t-87 53.5t-116.5 35.5t-159.5 13q-47 0 -70.5 -5t-37.5 -19 q-16 -16 -37.5 -30.5t-42.5 -14.5q-25 0 -37 20t-12 49zM395 477q0 -154 42 -239.5t99.5 -126.5t116 -50.5t88.5 -9.5q119 0 229.5 78t195.5 205t136.5 287.5t51.5 326.5q0 84 -23.5 155t-66.5 121t-105.5 77.5t-138.5 27.5q-98 0 -183 -44t-155 -115.5t-123 -163 t-90 -185.5t-55.5 -184t-18.5 -160z" />
<glyph unicode="R" horiz-adv-x="1421" d="M31 10l8 43q2 16 20 17h39q55 0 84 29.5t43 72.5l326 1022q10 30 10 52q0 14 -4 24q-10 27 -65 26h-80q-20 0 -17 17l11 43q2 10 6 13t20 3q80 0 158 1t140.5 2t105.5 2t55 1q55 0 134 -6t152.5 -35.5t125 -88t51.5 -163.5q0 -78 -38 -145.5t-102.5 -119.5t-147.5 -87 t-173 -45v-4q37 -12 61.5 -51t40.5 -72l29 -58t55.5 -112.5t60 -121t44.5 -81.5q39 -63 76.5 -90.5t103.5 -27.5h51q18 0 15 -21l-7 -39q-4 -16 -20 -16t-47 3t-105 3q-68 0 -101.5 -3t-49.5 -3q-12 0 -22.5 14.5t-33.5 50.5q-8 12 -26.5 51.5t-42 90.5t-50 109.5t-51 109.5 t-42 90t-23.5 51q-23 43 -53.5 64.5t-65.5 31t-69 9.5h-64l-145 -449q-17 -52 -17 -84q0 -22 7 -34q19 -30 85 -29h84q18 0 15 -17l-6 -47q-2 -12 -25 -12q-16 0 -87 3t-200 3q-92 0 -149.5 -3t-75.5 -3q-16 0 -12 16zM578 731q39 0 81 -1h18q35 0 73 3q47 4 98 15.5 t106 33.5q92 37 153.5 116t61.5 187q0 33 -15 72t-53 74t-100.5 58.5t-156.5 23.5h-47q-18 0 -37 -2z" />
<glyph unicode="S" horiz-adv-x="1032" d="M117 68l151 446q4 10 23 8l20 -6q8 -4 13.5 -8t1.5 -14q-18 -73 -19 -134q0 -35 6 -65q16 -84 55.5 -138.5t92.5 -81t100 -26.5q49 0 92 18.5t76 51.5t51.5 77t18.5 95t-17.5 93t-44 79t-61.5 71.5t-68 71.5q-47 51 -89 99.5t-72.5 98.5t-48 108.5t-17.5 129.5 q0 55 21.5 119t65.5 117t109.5 89t151.5 36q43 0 81 -11.5t69.5 -26.5t55 -30.5t36.5 -23.5q8 -4 13 -7.5t15 -3.5q12 0 19.5 19.5t13.5 52.5q2 8 21 6l26 -2q16 -2 15 -14l-74 -389q-4 -12 -16 -12l-29 2q-20 4 -19 18q2 14 2 33q0 24 -3 55q-5 57 -28.5 113.5t-70.5 98.5 t-127 42q-47 0 -85 -19.5t-64.5 -51t-40 -71.5t-13.5 -81q0 -57 15.5 -99.5t41 -78t59.5 -66.5t69 -68q35 -35 74.5 -75.5t72.5 -91t54.5 -114t21.5 -142.5q0 -102 -33 -176t-85 -123.5t-118.5 -73t-134.5 -23.5q-98 0 -168.5 47t-132.5 109q-27 27 -47 -4 q-10 -12 -21.5 -33.5t-21.5 -44.5q-6 -12 -20 -6l-27 10q-9 3 -9 13q0 4 1 8z" />
<glyph unicode="T" horiz-adv-x="1359" d="M219 1051q8 18 34 71.5t52.5 111.5t47 105t22.5 52q6 20 16 20q8 0 24.5 -6t52.5 -13.5t97.5 -13.5t159.5 -6h612q76 0 122 6t75 15q27 6 38 12t15 6q13 0 13 -16q0 -6 -1 -13.5t-2.5 -22.5t-3.5 -32q-4 -53 -7 -118.5t-5 -129.5q-1 -32 -1 -55.5t1 -38.5q0 -14 -16 -16 l-27 -2q-14 -2 -18 4t-9 22q-4 25 -12 63t-18.5 75.5t-22.5 73.5t-22 59q-23 8 -65 16t-89 14t-91 9.5t-69 3.5h-43l-338 -1061q-20 -64 -20 -103q0 -21 6 -34q16 -39 102 -39h80q18 0 15 -21l-9 -39q-2 -8 -6 -12t-20 -4q-23 0 -91.5 3t-215.5 3q-111 0 -187 -3t-92 -3 q-12 0 -15 5t-1 15l6 39q2 8 6 12.5t16 4.5h56q45 0 76.5 11t55 35.5t41 64.5t36.5 100l327 1026h-53q-150 0 -237 -13.5t-132 -27.5q-31 -27 -62.5 -61t-60 -67.5t-51 -63.5t-35.5 -50q-8 -12 -26 -6l-27 12q-7 4 -7 10q0 5 3 11z" />
<glyph unicode="U" horiz-adv-x="1497" d="M260 344q0 33 5 71t12.5 73.5t14.5 65.5t11 46l174 576q13 41 14 68q0 18 -7 30q-15 29 -64 29h-74q-16 0 -14 16l10 43q2 10 6 13t21 3q18 0 75.5 -3t167.5 -3q125 0 182.5 3t73.5 3q20 0 19 -20l-8 -39q-4 -16 -21 -16h-65q-18 0 -37 -3.5t-35 -14.5t-31.5 -34.5 t-27.5 -64.5l-168 -547q-4 -16 -14.5 -51t-20.5 -76t-17.5 -84t-7.5 -78q0 -96 41 -153.5t94.5 -87t107.5 -39t81 -9.5q68 0 142.5 29t123.5 74q35 31 65.5 69.5t58.5 89t53.5 115t51.5 150.5l181 590q11 35 10 58q0 27 -13 41q-26 26 -73 26h-78q-23 0 -18 16l6 39 q4 10 8 15t18 5q18 0 79 -3t171 -3q90 0 130 3t57 3q14 0 17 -5t1 -15l-6 -39q-2 -8 -6 -12t-17 -4h-43q-49 0 -75.5 -27t-42.5 -68l-201 -637q-43 -141 -100.5 -253.5t-133 -189.5t-171 -118t-216.5 -41q-102 0 -190 22.5t-151.5 70t-99.5 117t-36 165.5z" />
<glyph unicode="V" horiz-adv-x="1253" d="M295 1317l12 41l6 15q2 5 17 5q20 0 85.5 -3t176.5 -3q113 0 176 3t82 3q27 0 22 -16l-8 -43q-2 -16 -22 -16h-66q-55 0 -82.5 -20.5t-36.5 -70.5l-135 -868q-6 -39 9.5 -40t39.5 32l627 833q40 52 40 92q0 42 -44 42h-64q-27 0 -20 24l8 35q2 16 27 16q20 0 73.5 -3 t147.5 -3q88 0 132 3t65 3q27 0 22 -20l-8 -35q-6 -20 -18 -20h-62q-55 0 -107.5 -48.5t-105.5 -113.5l-889 -1147q-10 -12 -25.5 -23.5t-33.5 -11.5q-33 0 -33 46q0 11 2 26l168 1159q3 14 3 28q0 30 -13 52q-18 33 -80 33h-64q-26 0 -24 14z" />
<glyph unicode="W" horiz-adv-x="1789" d="M307 49l182 1145q5 24 5 43q0 23 -7 38q-12 28 -63 28h-49q-23 0 -21 20l8 39q2 8 6.5 12t18.5 4q16 0 72.5 -3t136.5 -3q96 0 153.5 3t75.5 3q23 0 21 -20l-8 -39q-4 -16 -21 -16h-45q-53 0 -74.5 -25t-33.5 -90l-162 -885q-4 -16 5 -18t25 14q8 8 51.5 66.5t105 142.5 t131 180t129 179t100.5 140.5t47 65.5q39 55 53 99.5t14 70.5q0 23 -16.5 41.5t-46.5 18.5h-35q-20 0 -16 12l10 47q2 16 24 16q16 0 57.5 -3t119.5 -3q86 0 130 3t62 3q25 0 18 -20l-10 -39q-6 -16 -22 -16h-45q-33 0 -48.5 -21.5t-23.5 -81.5l-109 -901q-4 -20 3.5 -24.5 t17.5 6.5q12 10 37.5 45.5t57.5 85t67 104.5t65.5 105.5t53 87t28.5 49.5q35 57 74 124.5t72.5 129t58.5 110.5t33 70q11 30 11 55q0 11 -2 22q-7 34 -50 34h-33q-14 0 -12 16l8 39q2 20 22 20t60.5 -3t111.5 -3q84 0 128 3t67 3t18 -20l-8 -39q-2 -16 -16 -16h-35 q-35 0 -63.5 -12.5t-55.5 -47.5q-6 -8 -32.5 -52t-64.5 -106.5t-82 -135t-84 -138.5t-71.5 -117t-44.5 -71q-14 -25 -44.5 -72t-70.5 -106.5t-85 -124t-87 -125t-78 -109.5t-59 -74q-14 -16 -31.5 -34.5t-35.5 -18.5q-20 0 -28.5 16.5t-4.5 44.5l98 918q4 23 -5 26t-19 -12 q-6 -6 -54.5 -73.5t-121 -166t-157.5 -213t-162 -218t-135 -179t-77 -96.5q-16 -18 -32.5 -32.5t-38.5 -14.5q-21 0 -21 42q-1 19 4 48z" />
<glyph unicode="X" horiz-adv-x="1415" d="M-66 10l9 39q4 10 7 15.5t13 5.5h45q37 0 66.5 11t54.5 28.5t48.5 39t47.5 39.5q8 6 49 44t97.5 90.5t120 113t122 114.5t101.5 96t55 54l-166 476q-20 57 -44.5 92t-84.5 35h-53q-18 0 -16 20l6 35q2 10 6 15t20 5q18 0 80 -3t135 -3q96 0 147.5 3t71.5 3q23 0 19 -20 l-6 -39q-2 -8 -5 -12t-14 -4h-39q-49 0 -56 -34q-2 -11 -2 -23q0 -24 9 -50l131 -385q16 14 50 47t75 74t85 86t83 85t65.5 70.5t35.5 43.5q16 29 4.5 57.5t-54.5 28.5h-30q-18 0 -17 16l6 39q2 20 25 20q20 0 74.5 -3t134.5 -3q82 0 128 3t62 3q25 0 21 -16l-6 -43 q-2 -16 -19 -16h-35q-37 0 -78.5 -25t-82.5 -53q-6 -4 -41 -38t-86.5 -83t-110.5 -106.5t-112.5 -109.5t-95.5 -92t-56 -55l203 -565q16 -47 55 -76.5t86 -29.5h47q16 0 16 -21l-2 -35q-2 -12 -5 -16t-17 -4q-16 0 -65.5 3t-147.5 3t-156.5 -3t-81.5 -3q-29 0 -22 24l6 35 q2 6 5 11.5t13 5.5h37q47 0 57.5 26.5t0.5 55.5q-2 6 -14.5 41.5t-30 87t-37 108.5t-37 108.5t-30.5 89.5t-17 48q-6 -8 -36 -38l-73 -73q-43 -43 -93 -94t-98 -100t-89 -93t-64 -73q-20 -25 -20 -52q0 -5 1 -11q5 -32 48 -31h39q14 0 10 -21l-4 -35q-2 -10 -5 -15t-20 -5 q-18 0 -74.5 3t-154.5 3q-76 0 -134.5 -3t-76.5 -3q-23 0 -19 16z" />
<glyph unicode="Y" horiz-adv-x="1105" d="M94 1319l8 43q2 16 21 16q20 0 66.5 -3t148.5 -3q117 0 174 3t78 3q20 0 18 -16l-4 -43q-2 -16 -18 -16h-54q-29 0 -45 -9.5t-22 -23t-5 -30.5t7 -36l190 -569q10 -35 31 -8q10 14 42 58t72 101.5t84 122t82 121.5t64.5 101.5t32.5 60.5q11 32 11 54q0 19 -8 31 q-17 26 -79 26h-41q-18 0 -14 20l4 39q2 16 25 16t80 -3t145 -3q86 0 133 3t68 3q25 0 20 -16l-6 -39q-2 -20 -17 -20h-38q-53 0 -86 -25t-74 -76q-8 -10 -41 -55t-78 -108.5t-97 -136.5t-97.5 -137.5t-78 -110.5t-40.5 -56q-16 -25 -29.5 -43t-23 -37.5t-17.5 -43 t-16 -58.5l-52 -232q-7 -33 -6 -55q0 -31 13 -41q23 -18 73 -18h62q18 0 14 -17l-6 -43q-2 -8 -6 -12t-17 -4q-23 0 -78 3t-169 3q-127 0 -183.5 -3t-72.5 -3q-18 0 -17 16l8 43q0 16 19 17h59q72 0 97.5 30.5t35.5 77.5l68 303q4 23 -1 60t-9 51l-221 633q-12 35 -42 56.5 t-83 21.5h-47q-17 0 -15 16z" />
<glyph unicode="Z" horiz-adv-x="1386" d="M124 21q0 6 2 12q3 8 7 12l1079 1253q-111 0 -212 -1t-183 -3t-142.5 -5t-86.5 -5q-74 -8 -124 -57t-71 -94q-8 -14 -18 -11l-29 11q-10 4 -8 16l78 233q2 6 7 13.5t13 7.5q12 0 35 -12q6 -4 44 -7.5t87 -5.5t95 -4t69 -2h664q27 0 26.5 -17.5t-10.5 -27.5l-1071 -1251 q141 0 245.5 1t183.5 4t139.5 8t113.5 15q82 14 130 57.5t95 123.5q8 12 21 6l28 -15q12 -4 6 -20l-96 -268q-4 -12 -18 -13q-18 0 -39 9q-14 4 -67.5 7t-117 5t-122 3t-80.5 1h-647q-14 0 -20 5q-6 6 -6 16z" />
<glyph unicode="[" horiz-adv-x="663" d="M31 -375l499 1835q4 20 33 21h400q20 0 16 -15l-14 -51q-2 -10 -29 -10h-262q-10 0 -17.5 -6t-11.5 -25l-461 -1681q-4 -20 13 -21h288q16 0 15 -14l-13 -47q-2 -14 -30 -14h-416q-20 -1 -10 28z" />
<glyph unicode="\" horiz-adv-x="655" d="M233 1356q-4 20 13 24l69 19q14 2 19 -10l274 -1369q6 -20 -10 -24l-70 -21q-10 -4 -12 2.5t-6 22.5z" />
<glyph unicode="]" horiz-adv-x="663" d="M-178 -389l14 51q2 10 21 10h270q10 0 17.5 6.5t11.5 24.5l460 1681q4 20 -12 21h-289q-16 0 -14 14l12 47q2 14 31 15h416q20 0 10 -29l-500 -1835q-6 -20 -32 -20h-400q-20 0 -16 14z" />
<glyph unicode="^" d="M98 532l432 871h66l434 -871h-133l-336 672h-10l-326 -672h-127z" />
<glyph unicode="_" d="M0 -154h1024v-102h-1024v102z" />
<glyph unicode="`" horiz-adv-x="481" d="M259 1180.5q-5 21.5 1 40t22.5 32t36.5 13.5q27 0 41.5 -13.5t30.5 -35.5l172 -228q8 -8 0 -16l-14 -17q-8 -10 -19 0l-245 187q-21 16 -26 37.5z" />
<glyph unicode="a" horiz-adv-x="931" d="M70 111q0 74 25.5 158.5t70.5 166.5t103.5 158t123 133t133 91t129.5 34q66 0 97.5 -22.5t48.5 -47.5l39 56q10 14 20 14h72q9 0 9 -10q0 -4 -3 -8q-14 -31 -39 -93.5t-49.5 -126t-43 -116t-22.5 -64.5t-20 -59t-33.5 -100.5t-31 -97.5t-13.5 -50q0 -25 23 -25 q8 0 30.5 17.5t45 39t42 42t25.5 26.5q12 12 16 4l19 -20q8 -8 4 -16q-8 -16 -43 -51t-81 -72t-98.5 -64.5t-95.5 -27.5q-18 0 -30.5 7t-12.5 27q0 12 4.5 32t15.5 54.5t30.5 89t48.5 136.5l-11 4q-33 -49 -85 -109.5t-112.5 -115t-122.5 -90t-118 -35.5q-18 0 -37.5 7 t-36 23.5t-26.5 41t-10 59.5zM219 160q0 -72 55 -72q25 0 63 24.5t79 63.5t83 87t77.5 93t62.5 83t35 57q23 45 36 85t13 85q0 20 -4 41.5t-15.5 39t-30 28.5t-46.5 11q-72 0 -143.5 -70.5t-131 -170t-96.5 -205.5t-37 -180z" />
<glyph unicode="b" horiz-adv-x="913" d="M72 115q0 25 9 57.5t21 60.5q115 266 220.5 512t203.5 482q14 35 15 55q0 31 -58 31h-59q-25 0 -18 20l12 33q6 16 20 16h260q14 0 17.5 -11t-2.5 -25l-330 -744l12 -4q37 47 84 93t96.5 82t98.5 57.5t92 21.5q78 0 111.5 -44t33.5 -112q0 -43 -13 -101t-45 -126 t-83 -141.5t-127 -149.5q-41 -41 -86 -76.5t-98 -62.5t-114.5 -43t-135.5 -16q-63 0 -100 39t-37 96zM219 137q0 -61 26.5 -74.5t61.5 -13.5q61 0 140 58.5t150 148.5t119 198.5t48 209.5q0 47 -20.5 67.5t-49.5 20.5t-69.5 -22.5t-86.5 -60.5t-92.5 -87.5t-85.5 -104.5 q-31 -43 -56 -93t-43.5 -97t-30 -87t-11.5 -63z" />
<glyph unicode="c" horiz-adv-x="618" d="M88 168q0 104 39 224t104.5 222.5t148.5 170t173 67.5q37 0 59.5 -12.5t34.5 -30.5t17.5 -37.5t5.5 -34.5q0 -37 -28 -61.5t-56 -24.5q-41 0 -54 45q-4 16 -21 35t-42 19q-80 0 -150 -142q-20 -45 -36.5 -97t-27.5 -102.5t-17.5 -92.5t-6.5 -66q0 -55 7.5 -89t19.5 -52.5 t26.5 -23.5t28.5 -5q31 0 59.5 13t52.5 31.5t42 37t27 28.5q10 14 18 9l23 -21q12 -8 2 -22q-10 -16 -40 -46t-70 -58.5t-88 -50t-97 -21.5q-27 0 -54.5 10t-49 32.5t-36 58.5t-14.5 87z" />
<glyph unicode="d" horiz-adv-x="964" d="M76 115q0 61 20.5 134t57 149.5t89 151.5t115.5 136q25 25 59 53.5t76 53t89 42t98 17.5q41 0 71.5 -18.5t57.5 -49.5l158 449q10 29 -0.5 54.5t-51.5 25.5h-63q-20 0 -16 14l12 43q2 12 24 12h252q23 0 27 -12q2 -5 2 -10q0 -7 -4 -14q-8 -18 -40 -102.5t-76 -202 t-94 -254t-95 -258t-78 -214t-41 -122.5q-14 -47 -14 -71t22 -24q12 0 35 15.5t46.5 34t40.5 35.5l22 22q14 10 22 -2l21 -21q10 -6 0 -20q-6 -6 -38 -36t-77 -62.5t-94 -58t-90 -25.5q-25 0 -40.5 9t-15.5 38q0 14 8.5 46.5t20.5 73.5t28.5 87.5t32.5 89.5l-16 4 q-37 -59 -90 -122t-111.5 -113t-119 -81.5t-111.5 -31.5q-53 0 -92 34.5t-39 100.5zM225 150q0 -33 18.5 -49.5t41.5 -16.5q33 0 75.5 27.5t88 69.5t88.5 91.5t73 92.5q20 29 44 66.5t44.5 76.5t32.5 76t12 67q0 72 -29.5 103.5t-78.5 31.5t-97.5 -33.5t-94.5 -89t-86 -125 t-68.5 -140t-46 -136t-17.5 -112.5z" />
<glyph unicode="e" horiz-adv-x="714" d="M90 180q0 63 19.5 135t55.5 141.5t84 136t103 122.5q25 25 56.5 49t68.5 43.5t75 32t75 12.5q59 0 87.5 -36t28.5 -73q0 -76 -52 -148.5t-138 -117.5q-84 -41 -162 -60.5t-135 -23.5q-8 -18 -17.5 -67.5t-9.5 -120.5q0 -35 11.5 -59.5t28 -40t35 -22.5t32.5 -7 q37 0 72.5 13t65.5 33.5t54.5 46.5t40.5 52q8 12 19 2l22 -18q14 -8 2 -19q-18 -27 -51 -62.5t-75 -67t-94 -54t-111 -22.5q-100 0 -145.5 49t-45.5 151zM272 453q3 0 8 -1q27 0 75 13q56 14 113.5 44t100.5 74t43 101q0 31 -15 54.5t-50 23.5q-49 0 -96.5 -38t-84 -89 t-62.5 -103t-32 -79z" />
<glyph unicode="f" horiz-adv-x="571" d="M-424 -487q0 35 23.5 61.5t64.5 26.5q45 0 68.5 -33t27.5 -60q6 -35 35 -34q74 0 155 133t165 418l207 696h-183q-16 0 -10 20l8 35q4 10 8.5 15.5t16.5 5.5h178q47 133 102.5 253.5t137.5 213.5q43 49 122.5 94t180.5 45q45 0 78.5 -12.5t57 -30t36 -39t12.5 -39.5 q0 -47 -25.5 -70.5t-56.5 -23.5q-49 0 -67.5 23.5t-22.5 58.5q-2 16 -19.5 37.5t-64.5 21.5q-72 0 -123 -51t-89 -129t-66.5 -172t-53.5 -180h199q18 0 12 -25l-10 -37q-2 -14 -23 -14h-194q-20 -61 -47 -154.5t-59.5 -200t-68.5 -218t-75 -209.5q-47 -121 -98.5 -221.5 t-110.5 -172t-129 -112.5t-151 -41q-61 0 -104.5 36t-43.5 85z" />
<glyph unicode="g" horiz-adv-x="884" d="M-106 -340q0 57 39.5 104.5t95 84t115 63.5t96.5 43q-45 33 -61.5 61.5t-16.5 57.5t35.5 60.5t138.5 90.5q-20 6 -48 22.5t-52.5 45.5t-42 71t-17.5 97q0 57 24.5 125.5t71.5 127t114 98.5t153 40q39 0 67.5 -10.5t50 -25.5t36 -31.5t20.5 -28.5q8 8 25.5 21.5t41 25.5 t51 20t56.5 8q25 0 42 -9t26.5 -21.5t13.5 -26.5t4 -22q0 -16 -13.5 -40t-52.5 -24q-29 0 -43 10.5t-24 20.5q-8 8 -18.5 11t-20.5 3q-14 0 -33.5 -9t-26.5 -19q2 -8 5.5 -22.5t6.5 -31t4 -33t1 -28.5q0 -37 -12.5 -93.5t-45 -112.5t-90 -102t-145.5 -61q-53 -8 -62 -14 q-14 -6 -32.5 -17.5t-35 -24.5t-27.5 -28.5t-11 -27.5q0 -16 12.5 -32t22.5 -24q27 -18 96.5 -63t169.5 -111q90 -59 121 -111.5t31 -109.5q0 -12 -11.5 -55t-56.5 -90.5t-132 -84t-237 -36.5q-80 0 -155.5 21.5t-134 57t-94 85t-35.5 104.5zM35 -326q0 -53 30.5 -94 t77.5 -68.5t103.5 -42t107.5 -14.5t98.5 9.5t82 30t55 51t20.5 73.5q0 33 -14 60.5t-34.5 50t-45 40t-43.5 29.5q-6 4 -31.5 20.5t-54.5 36t-56.5 37t-37.5 23.5q-127 -51 -192.5 -110.5t-65.5 -131.5zM307 408q0 -139 96 -140q55 0 97.5 41t70 101.5t42 129t14.5 124.5 q0 72 -26 104.5t-66 32.5q-47 0 -88 -40t-72 -99.5t-49.5 -128t-18.5 -125.5z" />
<glyph unicode="h" horiz-adv-x="956" d="M49 10l469 1161q18 47 22.5 68t4.5 33q0 18 -19.5 29.5t-48.5 11.5h-63q-10 0 -16.5 4t-2.5 14l11 35q4 8 7 12t15 4h277q25 0 24 -24q0 -16 -18 -62l-322 -753l10 -8q39 55 83 111t95.5 102.5t107.5 75t120 28.5q72 0 106.5 -50t34.5 -122q0 -125 -44 -250t-97 -225 q-31 -57 -67 -106.5t-74.5 -86.5t-80.5 -57.5t-85 -20.5q-45 0 -75 27t-30 62t20.5 67.5t53.5 32.5q31 0 49.5 -19.5t22.5 -42.5q2 -14 10 -27.5t24 -13.5t37 23t41.5 57.5t40 76.5t33.5 81q16 43 31.5 93t27 99.5t17.5 95.5t6 83q0 18 -2 38.5t-8 38t-18.5 27.5t-33.5 10 q-41 0 -92 -34.5t-100 -80.5t-90 -93.5t-62 -73.5q-76 -94 -135 -238l-86 -209q-4 -14 -28 -14h-89q-16 0 -15 6q0 2 1 4z" />
<glyph unicode="i" horiz-adv-x="587" d="M133 600q2 2 19.5 22.5t45 49t63.5 61.5t74 59.5t76 44.5q34 16 63 15h7q18 0 33.5 -12.5t15.5 -38.5q0 -29 -20.5 -91.5t-48.5 -136.5l-119 -311q-23 -57 -30 -91t-7 -44q0 -29 23 -35q16 2 41.5 22.5t52.5 45t46 47t24 29.5q8 10 22 -5l16 -14q6 -8 7.5 -12t-2.5 -12 q-4 -6 -35 -40t-79 -73t-108.5 -69.5t-124.5 -30.5q-35 4 -34 51q0 18 7 45.5t21.5 70.5t37 105.5t54.5 148.5l60 160q16 41 26.5 72t10.5 49q0 27 -29 27q-12 0 -34.5 -17.5t-47 -42t-47.5 -48t-35 -36.5q-12 -12 -22 -2l-17 19q-8 7 -8 12q0 3 2 6zM412 1225 q0 41 29.5 71.5t76.5 30.5q53 0 81 -31.5t28 -66.5q0 -12 -5.5 -29.5t-17.5 -34t-33.5 -28t-52.5 -11.5q-35 0 -55.5 12.5t-31.5 29t-15 33t-4 24.5z" />
<glyph unicode="j" horiz-adv-x="555" d="M-354 -354q0 35 23.5 64.5t62.5 29.5q45 0 64.5 -29.5t23.5 -52.5q4 -31 18.5 -45t32.5 -14q55 0 102 57t88 145t78 194.5t72 205.5l137 397q18 49 19 80q0 31 -23 31q-12 0 -34.5 -14.5t-46 -33t-45 -37t-30.5 -26.5q-8 -8 -16 0l-20 23q-8 8 -2 16q12 14 50 49t89 72 t108.5 65.5t108.5 28.5q25 0 34 -14.5t9 -24.5q0 -20 -11.5 -63t-26.5 -91.5t-32.5 -95.5t-27.5 -76l-158 -417q-2 -4 -16.5 -46t-42 -102.5t-66.5 -129t-89 -127t-112.5 -97.5t-134.5 -39q-53 0 -89 12.5t-57.5 29.5t-30.5 38t-9 37zM453 1219q0 41 29.5 77.5t86.5 36.5 q29 0 48.5 -10t32 -25.5t17.5 -33t5 -31.5q0 -47 -34 -77t-75 -30q-49 0 -79.5 29t-30.5 64z" />
<glyph unicode="k" horiz-adv-x="888" d="M41 23l483 1200q8 20 8 36.5t-8 28.5q-16 25 -73 25h-56q-16 0 -10 20l12 33q4 8 8.5 12t16.5 4h272q16 0 18.5 -12t-1.5 -22l-295 -711l10 -4q25 31 62.5 68.5t83.5 71.5t98.5 56.5t103.5 22.5q16 0 34.5 -5t35 -18.5t27 -37t10.5 -60.5q0 -61 -46.5 -119.5 t-108.5 -107.5t-125.5 -85t-98.5 -48v-9l133 -215q23 -39 48.5 -61.5t53.5 -22.5q29 0 54.5 18.5t42.5 35.5q10 14 18 2l20 -23q6 -6 -2 -18q-4 -4 -19 -20.5t-39 -34t-53.5 -30.5t-60.5 -13q-39 0 -65.5 5t-47 19t-38 38t-35.5 58l-113 215q-10 20 -34 24q-11 1 -25 1 q-19 0 -43 -2l-127 -324q-4 -14 -31 -14h-88q-14 0 -13 10q0 5 3 13zM315 387q16 -2 33 -2q58 0 117 23q76 29 139.5 75.5t103.5 103t40 103.5q0 25 -16.5 43.5t-41.5 18.5q-39 0 -83 -22.5t-82 -53.5t-67.5 -59.5t-39.5 -41.5q-12 -14 -28.5 -35.5t-27.5 -39.5z" />
<glyph unicode="l" horiz-adv-x="520" d="M72 39q0 12 8 38.5t20.5 59.5t24.5 67t22 56l359 924q19 50 19 83q0 6 -1 11q-4 35 -49 35h-59q-20 0 -13 18l13 37q4 14 20 14h254q21 0 21 -16q0 -6 -2 -14l-426 -1084q-6 -18 -17.5 -44.5t-18.5 -52.5t-6 -44t17 -18q12 0 33.5 13t45 30.5t43 35t30.5 27.5q6 6 10 5 t8 -5l23 -25q8 -10 -2 -20q-4 -6 -38 -37t-83 -64.5t-105.5 -61t-105.5 -27.5q-20 0 -32.5 12t-12.5 47z" />
<glyph unicode="m" horiz-adv-x="1497" d="M117 20l155 371q20 49 41 97.5t37.5 90.5t27.5 73.5t13 45.5q0 33 -20 33q-10 0 -36 -19.5t-53.5 -44t-52 -49t-30.5 -32.5q-10 -12 -25 2l-18 18q-10 10 -2 19q18 20 54 58t83 76t98 65.5t100 27.5q23 0 36.5 -16.5t13.5 -40.5q0 -18 -19.5 -71.5t-45 -114t-49.5 -115 t-32 -74.5l10 -2q35 55 90.5 130t120 142.5t134 114.5t135.5 47q51 0 70.5 -29.5t19.5 -58.5t-13.5 -76t-32 -99t-39 -100.5t-32.5 -78.5l10 -2q43 63 97.5 141t116 145.5t127 112.5t130.5 45q47 0 73 -32t26 -66q0 -27 -7.5 -57.5t-22.5 -72.5t-39 -99.5t-56 -135.5 q-35 -88 -60.5 -149.5t-25.5 -89.5q0 -27 22 -27q14 0 39 20.5t51.5 47t47 50t24.5 29.5q8 14 25 0l16 -16q6 -6 6 -14q0 -4 -2 -9q-2 -6 -39 -46t-90 -86t-114.5 -82.5t-110.5 -36.5q-16 0 -26.5 13t-10.5 36q0 39 39 138t100 251q45 111 71.5 178.5t26.5 112.5 q0 39 -43 39q-27 0 -73.5 -38t-103 -98.5t-114 -133t-104.5 -140.5q-10 -16 -36.5 -54t-47.5 -91l-69 -181q-4 -12 -29 -12h-82q-27 0 -18 16l139 340q20 53 41.5 105.5t39 98.5t28 82t10.5 58q0 41 -41 41q-27 0 -73 -34.5t-100.5 -90t-109.5 -121t-98 -126.5 q-23 -33 -51.5 -76t-51.5 -98l-73 -183q-6 -10 -12.5 -11t-20.5 -1h-78q-15 0 -15 10q1 4 3 10z" />
<glyph unicode="n" horiz-adv-x="1062" d="M125 18l145 379q18 47 37 96.5t34 92.5t25.5 75.5t10.5 45.5q0 35 -31 34q-14 0 -37.5 -16t-49.5 -37.5t-49.5 -45.5t-35.5 -38q-10 -10 -20 2l-19 19q-10 10 -4 20q12 14 44 48t77 69t99.5 62.5t109.5 27.5q35 0 50 -20.5t15 -40.5q0 -25 -14 -69t-31.5 -90t-35 -87 t-23.5 -60l8 -4q23 37 73 99.5t114.5 123t138 104.5t141.5 44q47 0 74.5 -21.5t27.5 -62.5q0 -68 -31.5 -153t-82.5 -209q-41 -102 -73 -180.5t-32 -102.5q0 -10 6.5 -18.5t18.5 -8.5t32.5 12.5t43 29t42 34.5t29.5 29q12 10 23 -4l14 -17q10 -10 2 -22q-10 -12 -43 -42 t-79 -59.5t-100 -53t-105 -23.5q-20 0 -35 9t-15 31q0 14 12.5 50t33 87.5t44 113t48.5 126.5q10 31 27.5 74t33.5 87t28.5 81t12.5 53q0 47 -51 47q-31 0 -80 -31.5t-102.5 -80.5t-105.5 -107.5t-85 -113.5q-14 -23 -27.5 -45.5t-28 -51t-30.5 -67.5t-37 -92l-51 -138 q-4 -6 -8 -9t-21 -3h-80q-24 0 -23 13q0 2 1 5z" />
<glyph unicode="o" horiz-adv-x="813" d="M106 244q0 96 35 203.5t96.5 197.5t147.5 148.5t188 58.5q104 0 162 -67.5t58 -172.5q0 -57 -14.5 -125.5t-43 -138t-69.5 -136.5t-93.5 -118t-117 -82.5t-138.5 -31.5q-43 0 -80.5 19t-66.5 54t-46.5 83.5t-17.5 107.5zM193 182q0 -49 28.5 -76.5t65.5 -27.5 q53 0 105 32.5t99.5 84t87 115t69.5 127t46 117.5q17 55 17 96q0 43 -25 74q-27 34 -78 34q-66 0 -142.5 -59.5t-154.5 -184.5q-53 -84 -85.5 -172t-32.5 -160z" />
<glyph unicode="p" horiz-adv-x="944" d="M-236 -602l13 41q4 16 14 16h47q59 0 91 38t65 128l401 1104q-37 -10 -75.5 -32.5t-72.5 -50.5t-61.5 -54.5t-44.5 -46.5q-4 -6 -9 -6t-9 4l-23 20q-10 10 -2 19q53 66 130 130t196 109l65 191q8 20 27 28l127 45q4 2 14 2q6 0 7 -8q0 -10 -5 -16l-94 -213q10 2 20.5 3 t20.5 1q10 2 22 2h19q74 0 127 -23.5t88 -62.5t51.5 -88t16.5 -98q0 -109 -54.5 -216.5t-189.5 -209.5q-35 -25 -82 -49.5t-102.5 -45t-116.5 -37t-125 -22.5l-145 -406q-19 -56 -19 -86q0 -15 4 -25q14 -28 80 -28h58q8 0 12 -6t2 -10l-14 -41l-9 -8q-4 -4 -16 -4 q-16 0 -66.5 3t-148.5 3q-106 0 -154.5 -3t-64.5 -3q-19 0 -15 12zM285 61q92 14 182 54.5t160.5 102t114.5 141t44 173.5q0 59 -16 103.5t-42 74t-59.5 44t-66.5 14.5q-23 0 -39 -2t-26 -4z" />
<glyph unicode="q" horiz-adv-x="929" d="M104 215q0 14 7.5 68.5t32 129t72.5 160.5t132 164q70 66 134.5 90.5t127.5 24.5q70 0 111 -25.5t70 -48.5q14 -10 28 0l105 68q18 12 34 12q14 0 14 -14q0 -9 -5 -23l-469 -1261q-15 -38 -15 -62q0 -13 4 -20q12 -23 45 -23h58q18 0 14 -16l-12 -37q-6 -16 -23 -16 q-18 0 -67 3t-133 3q-90 0 -142.5 -3t-68.5 -3q-20 0 -17 16l9 37q6 16 18 16h51q55 0 87 20.5t59 86.5l204 526h-8q-49 -47 -110.5 -77.5t-145.5 -30.5q-23 0 -57.5 6t-66 28.5t-54.5 69.5t-23 131zM229 162q0 -59 25 -94t72 -35q66 0 123 40t104 101.5t84 136t62.5 143 t39 124t13.5 77.5q0 53 -32 86t-79 33q-80 0 -164 -84q-53 -53 -98 -121.5t-78 -140.5t-52.5 -141.5t-19.5 -124.5z" />
<glyph unicode="r" horiz-adv-x="729" d="M100 633q-3 3 -3 7t3 9q16 25 46 58.5t70 66.5t88 55.5t102 22.5q31 0 44 -21.5t13 -55.5q0 -30 -21 -102q-23 -79 -53 -184l10 -4q20 43 59.5 105.5t85.5 121t96 99.5t93 41q45 0 70.5 -25.5t25.5 -66.5t-25.5 -67.5t-53.5 -26.5q-14 0 -26.5 4t-25.5 16 q-12 12 -22 18.5t-31 6.5q-20 0 -51 -30t-64.5 -76t-69.5 -100t-67 -106q-18 -29 -37.5 -68.5t-42.5 -109.5l-67 -207q-4 -10 -9.5 -12t-17.5 -2h-82q-27 0 -18 18l114 332q14 43 32 100.5t33 110.5t25.5 95t10.5 53q0 14 -10.5 22t-24.5 8q-16 0 -38.5 -15t-46.5 -35.5 t-45.5 -42t-31.5 -34.5q-4 -4 -8 -4t-8 4z" />
<glyph unicode="s" horiz-adv-x="602" d="M25 94q0 23 18 45.5t51 22.5q35 0 54.5 -19.5t29.5 -46.5t22.5 -42t51.5 -15q45 0 80 36t35 89q0 33 -10.5 64.5t-24 62.5t-28.5 58.5t-25 51.5q-10 27 -36 78q-24 47 -24 113v10q0 45 19.5 89t54.5 80t82 58.5t102 22.5q23 0 48.5 -5t47 -17.5t36 -32t14.5 -49.5 q0 -29 -20.5 -47.5t-43.5 -18.5q-18 0 -38.5 11.5t-31.5 37.5q-8 18 -15 37.5t-38 19.5t-65.5 -36.5t-34.5 -92.5q0 -29 10 -57.5t22.5 -55t25 -47t16.5 -30.5t17 -31.5t26.5 -53.5t23.5 -70t10 -78q0 -59 -22.5 -107.5t-59 -81.5t-86 -50t-102.5 -17q-90 0 -141 31.5 t-51 82.5z" />
<glyph unicode="t" horiz-adv-x="643" d="M86 29q0 23 6 48t17 48l258 596h-144q-18 0 -12 16l16 45q6 14 23 15h147l107 237q8 16 14 21.5t19 9.5q16 4 47.5 16.5t44.5 18.5q10 4 17 8t13 4q23 0 3 -41l-136 -274h209q11 0 11 -10q0 -5 -3 -13l-18 -43q-4 -10 -18 -10h-209l-199 -461q-18 -43 -32.5 -79 t-14.5 -52q0 -35 27 -35q23 0 55.5 18.5t64 42t56 44t28.5 26.5q8 10 19 0l22 -24q8 -8 2 -19q-10 -12 -48 -45t-90 -68.5t-114.5 -62t-121.5 -26.5q-39 0 -52.5 13t-13.5 36z" />
<glyph unicode="u" horiz-adv-x="991" d="M123 63q2 49 44 144.5t101 238.5q41 96 71 164t30 97t-33 28q-14 0 -38 -14t-48.5 -34.5t-45 -40t-28.5 -28.5q-10 -10 -18 0l-19 19q-10 6 2 18q6 6 37 38t77 68t99.5 63.5t102.5 27.5q31 0 45 -24.5t14 -49.5q0 -39 -35 -128t-98 -226q-20 -45 -39.5 -91t-35 -86 t-25 -72t-9.5 -48q0 -35 35 -35q41 0 97.5 43t114 101.5t104.5 118t69 91.5q29 43 53.5 85t40.5 90l72 196q4 14 29 14h84q20 0 19 -11q0 -3 -1 -7l-157 -426q-45 -121 -65.5 -188.5t-20.5 -77.5q0 -14 3 -17.5t13 -7.5q12 0 35.5 16.5t49 38t47.5 42t28 30.5q8 12 18 0 l21 -20q8 -8 0 -19q-2 -4 -36 -35.5t-83 -69.5t-107.5 -68.5t-111.5 -30.5q-23 0 -31 14t-8 33q0 8 16 54t39 103.5t44.5 111.5t31.5 81l-12 6q-33 -47 -87.5 -115.5t-122 -133t-144.5 -109.5t-152 -45q-31 0 -52.5 23t-23.5 60z" />
<glyph unicode="v" horiz-adv-x="1073" d="M104 545q0 31 8.5 60.5t20.5 56t26.5 48t24.5 33.5q14 16 33 34t44.5 32t63 23.5t93.5 9.5q78 0 125 2t72.5 3t38 3t20.5 2q20 0 31.5 -9t-5.5 -30q-16 -20 -56 -77.5t-81 -133.5t-72.5 -162t-31.5 -161q0 -53 12 -89t32.5 -58.5t47.5 -33t53 -10.5q66 0 129.5 46 t113.5 118t80.5 157t30.5 162q0 25 -3 53.5t-13 53.5q-12 29 -21.5 47t-9.5 37q0 41 23.5 65.5t69.5 24.5q43 0 61 -36t18 -73t-8 -91t-25.5 -116.5t-43 -128t-58.5 -122.5q-35 -59 -82 -114.5t-102 -97.5t-116.5 -67.5t-125.5 -25.5q-39 0 -74.5 12t-64.5 37.5t-46.5 65.5 t-17.5 95q0 72 29 152t72 159t93 148.5t95 122.5l-14 6q-16 -14 -43 -24.5t-54.5 -17.5t-53 -10t-40.5 -3h-106q-49 0 -80 -29.5t-33 -77.5q2 -29 16.5 -40t28.5 -19q10 -6 27.5 -21.5t17.5 -39.5q0 -25 -17 -46.5t-58 -21.5q-29 0 -62 25.5t-33 91.5z" />
<glyph unicode="w" horiz-adv-x="1509" d="M111 575q0 55 27.5 99.5t62.5 85.5q20 23 64 47t91 24h150l188 13q20 2 27.5 -10.5t-10.5 -30.5q-23 -25 -64 -87.5t-81 -141t-68.5 -164.5t-28.5 -158t35 -111t88 -39q70 0 132 37t107 107q12 20 24.5 52t24 67.5t19.5 72.5t14 70q10 59 16.5 128t18.5 124q12 39 38 52 t54 13q29 0 40.5 -15t11.5 -34q0 -27 -33 -112.5t-74 -202.5q-18 -55 -32.5 -100.5t-14.5 -86.5q0 -35 14.5 -64.5t39 -53t57 -37t69.5 -13.5q51 0 102.5 28t92.5 82t66.5 134t25.5 185q0 27 -9.5 68.5t-21.5 55.5q-14 14 -40.5 43t-26.5 68q0 37 26.5 59.5t63.5 22.5 q18 0 36.5 -8t33 -30.5t23.5 -63.5t9 -109q0 -55 -8 -117.5t-25.5 -126t-44 -122t-61.5 -107.5q-23 -29 -50.5 -61.5t-63.5 -60.5t-83 -47t-104 -19q-47 0 -84 19t-63.5 48t-42 61.5t-17.5 59.5q-14 -18 -46 -50t-77 -62.5t-99.5 -53t-111.5 -22.5q-33 0 -66.5 13t-60 38.5 t-43 64.5t-16.5 92q0 63 30.5 143.5t73.5 157t89 143t77 103.5l-14 15q-10 -4 -27.5 -10.5t-39 -11.5t-43 -9t-40.5 -4h-162q-29 0 -51 -19.5t-22 -48.5q-2 -29 11 -40t28 -21q10 -6 26.5 -19.5t16.5 -44.5q0 -29 -18.5 -48t-59.5 -19q-12 0 -29.5 6t-32 20.5t-24.5 37.5 t-10 56z" />
<glyph unicode="x" horiz-adv-x="964" d="M57 51q0 18 4.5 47t10.5 60.5t14 61.5t16 48q4 12 17 8l31 -8q12 -2 8 -16q-16 -47 -18.5 -76t2.5 -45t14.5 -21.5t17.5 -5.5q18 0 52 31t76 76t85 98t80 101l-88 258q-12 37 -37 37q-31 0 -63.5 -45.5t-65.5 -108.5q-6 -12 -20 -6l-29 14q-8 2 -4 16q2 8 26.5 53.5 t59.5 94.5t75.5 89t77.5 40q33 0 52.5 -21.5t42.5 -91.5l69 -235q68 86 121 157.5t92 110.5q25 25 60.5 52.5t81.5 27.5q29 0 44 -18.5t15 -45.5q0 -47 -16.5 -117.5t-38.5 -123.5q-6 -14 -21 -8l-24 8q-16 6 -15 16q26 77 26 117q0 43 -30 43q-16 0 -45 -25.5t-65.5 -66.5 t-77.5 -91.5t-82 -101.5l96 -274q20 -55 53 -55q18 0 40 18t42.5 43t33.5 47.5t17 30.5q2 8 19 2l24 -12q12 -6 7 -21q-10 -16 -33 -56t-56.5 -80t-74.5 -70.5t-86 -30.5q-68 0 -95 88l-86 276q-49 -66 -98 -130t-95 -116.5t-88 -85t-75 -32.5q-76 -1 -76 71z" />
<glyph unicode="y" horiz-adv-x="837" d="M-188 -512q0 39 26.5 60.5t55.5 23.5q27 2 43 -8t32 -25q10 -10 24.5 -17t26.5 -7q16 0 41 10t56 33q86 63 143 142t82 134q12 29 15 60.5t1 54.5q-2 12 -5 61t-8 120t-12 151.5t-14.5 156.5t-13.5 135.5t-12 85.5q-12 57 -35 58q-14 0 -31.5 -19.5t-35 -46t-32 -55.5 t-20.5 -45q-6 -10 -18 -6l-29 12q-8 4 -2 18q4 8 25.5 53.5t55.5 94.5t76 89t89 40t68.5 -48t33.5 -183q8 -88 14.5 -175.5t11.5 -166t8 -147.5t5 -118l8 2q20 35 52 93.5t63 122t57.5 123t36.5 96.5q8 27 19.5 69.5t11.5 108.5q0 16 -3 39.5t-7 36.5q-6 14 -14.5 33.5 t-8.5 39.5q0 25 17.5 49.5t66.5 24.5q41 0 61.5 -32t20.5 -70q0 -49 -13.5 -105.5t-32.5 -114t-44 -111.5t-47 -104q-35 -74 -89 -174t-120 -203.5t-136.5 -198.5t-137.5 -161q-20 -23 -55.5 -54.5t-76 -60t-88 -50t-92.5 -21.5q-59 0 -86.5 30.5t-27.5 65.5z" />
<glyph unicode="z" horiz-adv-x="976" d="M76 14q0 31 18.5 60.5t45 55.5t54 44.5t46.5 28.5l428 426l-9 8q-10 -1 -20 -1q-56 0 -93 20q-44 24 -71 40q-12 8 -30.5 24.5t-40 32t-45 27t-46.5 11.5q-35 0 -48 -13.5t-13 -23.5q0 -20 29 -37q10 -8 18 -21.5t8 -38.5q0 -29 -18.5 -50t-48.5 -21q-31 0 -60.5 24.5 t-29.5 75.5q0 23 10 51.5t34.5 54t62.5 43t93 17.5q33 0 60.5 -5t55.5 -14.5t57.5 -22.5t66.5 -32q33 -16 76 -31.5t77 -15.5q33 0 49.5 22.5t26.5 51.5t36 61.5t69 32.5q20 0 29.5 -16.5t9.5 -32.5q0 -27 -15.5 -52.5t-36 -47t-42 -37t-33.5 -23.5l-478 -473l7 -10 q47 0 94 -21.5t119 -68.5q66 -43 104.5 -67.5t79.5 -24.5q33 0 53.5 19t20.5 40q0 10 -1 24.5t-12 32.5q-14 25 -18 40.5t-4 25.5q0 35 21.5 54.5t45.5 19.5q41 0 62.5 -28t21.5 -73q0 -35 -15 -72.5t-46 -71.5t-78 -55.5t-111 -21.5q-68 0 -135 25.5t-123 52.5 q-10 4 -28.5 15t-40 22.5t-44 19.5t-42.5 8q-39 0 -54.5 -17t-27.5 -56q-8 -23 -30.5 -41.5t-57.5 -18.5q-18 0 -30.5 12.5t-12.5 32.5z" />
<glyph unicode="{" horiz-adv-x="663" d="M160 -84q0 74 24.5 137.5t53.5 126.5t52 119.5t23 110.5q0 47 -10 68.5t-20 35.5q-23 31 -68 37q-27 4 -27 33t27 28q37 0 74 15q53 23 86 60.5t37 90.5q4 45 5 86t1 82t2 85t8 95q8 76 49 136.5t98.5 104.5t124 71.5t129.5 36.5q31 4 55.5 5t39.5 1q35 0 34 -29 q0 -37 -24 -37q-12 0 -30.5 -1t-35.5 -3q-115 -16 -198.5 -82.5t-104.5 -202.5q-10 -74 -14 -147.5t-14 -140.5q-10 -76 -38 -115t-67 -72q-37 -29 -68.5 -46t-31.5 -38q0 -14 23.5 -29.5t37.5 -37.5q16 -25 23.5 -47.5t7.5 -53.5q0 -57 -19.5 -114.5t-42.5 -116.5 q-25 -63 -45 -120.5t-20 -131.5q0 -102 56.5 -165.5t129.5 -80.5q20 -4 41 -6t31 -2q14 0 14 -35q0 -31 -14 -30q-10 0 -31.5 1t-60.5 7q-37 4 -88 22.5t-99.5 55t-82 94t-33.5 139.5z" />
<glyph unicode="|" horiz-adv-x="512" d="M293 -512v2054q0 18 12 19h82q14 0 14 -25v-2048q0 -20 -10 -20h-86q-12 0 -12 20z" />
<glyph unicode="}" horiz-adv-x="663" d="M-127 -375q0 37 25 37q12 0 30.5 1t34.5 3q115 16 199 83t104 202q10 74 14.5 147.5t14.5 141.5q10 76 37.5 114.5t66.5 71.5q37 29 69 46t32 38q0 14 -23.5 29.5t-38.5 38.5q-16 25 -23 47t-7 53q0 57 19 114.5t42 116.5q25 63 45.5 120.5t20.5 131.5q0 102 -56.5 166 t-130.5 80q-20 4 -40.5 6t-31.5 2q-14 0 -14 35q0 31 14 31q10 0 32 -1t61 -7q37 -4 88 -23.5t99 -56.5t82 -93.5t34 -138.5q0 -74 -24.5 -137t-53.5 -127q-29 -63 -52.5 -119.5t-23.5 -109.5q0 -47 10.5 -68.5t20.5 -36.5q23 -31 67 -37q27 -4 27 -32q0 -29 -27 -29 q-37 0 -73 -14q-53 -23 -86 -61t-37 -91q-4 -47 -5 -87t-1 -81t-2 -85t-9 -95q-10 -76 -50 -136.5t-97 -104.5t-123.5 -71.5t-130.5 -35.5q-31 -4 -55.5 -5t-38.5 -1q-35 -1 -35 28z" />
<glyph unicode="~" d="M147 350q0 135 61.5 211t141.5 76q45 0 82 -10.5t82 -38.5l86 -58q29 -16 61.5 -38.5t67.5 -22.5q39 0 69.5 37t30.5 127h109q0 -135 -61.5 -211t-141.5 -76q-47 0 -87 19.5t-83 48.5l-80 55q-39 25 -69.5 35t-65.5 10q-14 0 -30.5 -8t-31 -27.5t-23.5 -51.5t-9 -77h-109 z" />
<glyph unicode="&#xa1;" horiz-adv-x="552" d="M-72 -518q0 14 7.5 39.5t23.5 66.5q2 6 26.5 67.5t59.5 151t75 191.5t74.5 191.5t59.5 149.5t27 64q6 12 10 14.5t14 2.5q6 0 12.5 -10.5t-2.5 -32.5q-8 -23 -24.5 -94.5t-38 -165.5t-44 -199.5t-40.5 -196t-31.5 -152t-15.5 -69.5q-12 -55 -40 -81.5t-63 -26.5 q-45 0 -67.5 28.5t-22.5 61.5zM291 741q0 45 29.5 78t76.5 33q25 0 43.5 -10.5t30.5 -25.5t18.5 -33.5t6.5 -32.5q0 -47 -30 -81t-81 -34q-10 0 -26.5 6t-32 18.5t-25.5 32.5t-10 49z" />
<glyph unicode="&#xa2;" d="M229 457q0 76 34 168t93.5 178t142.5 157.5t179 108.5l57 238q4 14 19 12l47 -10q14 -2 8 -21l-49 -196q33 6 71 6q43 0 85 -20.5t42 -67.5q0 -41 -27.5 -59.5t-56.5 -18.5q-27 0 -47 24q-12 12 -32.5 21.5t-59.5 11.5l-166 -670q61 6 108.5 29t84.5 47q12 8 18 5t13 -9 l8 -14q6 -8 6 -17.5t-14 -19.5q-12 -6 -33 -21.5t-51.5 -33t-71.5 -32.5t-90 -22l-62 -245q-4 -16 -18 -15l-43 13q-10 4 -9 10t3 16l53 215q-104 2 -173 55.5t-69 176.5zM375 483q0 -72 33.5 -112.5t87.5 -48.5l161 661q-82 -20 -145 -104q-29 -39 -53.5 -88.5t-43 -102.5 t-29.5 -106.5t-11 -98.5z" />
<glyph unicode="&#xa3;" d="M-14 33q0 27 17 58.5t45 62t60.5 56.5t61.5 40q8 10 22.5 34.5t27.5 54.5t24.5 56.5t15.5 42.5h-147q-23 0 -19 15l8 49q2 12 21 12h162q6 20 25.5 74.5t44 122t50 137.5t46.5 123q27 72 68.5 135t96 111.5t120 76t138.5 27.5q55 0 96.5 -15.5t69 -37t42 -45t14.5 -41.5 q0 -35 -26 -55.5t-54 -22.5q-35 0 -62.5 17.5t-48.5 58.5q-4 6 -7 18t-12 24.5t-26.5 21.5t-48.5 9q-59 0 -110.5 -72.5t-108.5 -250.5q-18 -55 -46 -123t-55.5 -129.5t-50 -106.5t-30.5 -57h297q20 0 18 -12l-10 -49q-2 -14 -25 -15h-319q-6 -10 -20.5 -33.5t-31 -49 t-34 -51t-31.5 -40.5l2 -4q68 8 121 4t99 -21.5t88 -50t89 -83.5q27 -29 64 -48.5t88 -19.5q35 0 59.5 22.5t32.5 38.5q10 25 5 32t-36 7q-47 0 -74.5 21.5t-27.5 44.5q0 20 19.5 51t72.5 31q57 0 101 -36t44 -95q0 -23 -13 -55.5t-44 -62.5t-83 -50.5t-130 -20.5 q-162 0 -278 140q-53 66 -111.5 85t-118.5 15q-10 -20 -28.5 -56t-44 -70t-56.5 -58.5t-65 -24.5q-20 0 -31.5 10.5t-11.5 22.5z" />
<glyph unicode="&#xa4;" d="M111 229q-8 12 4 25l188 184q-33 41 -51.5 91.5t-18.5 107.5q0 66 23 128t61 101l-200 191q-10 8 2 20l39 41q10 12 20 2l205 -192q41 37 100.5 53t120.5 16q51 0 105.5 -17t87.5 -46l198 184q8 12 19 2l39 -41q10 -12 0 -22l-193 -183q35 -35 58.5 -95t25.5 -117 q-6 -137 -82 -232l191 -178q12 -12 4 -23l-43 -49q-10 -10 -19 0l-202 185q-43 -31 -101.5 -48.5t-113.5 -17.5q-59 0 -117 19.5t-96 54.5l-187 -187q-14 -14 -22 -4zM350 649q0 -51 14.5 -99t43 -85t73.5 -59.5t107 -22.5q100 0 168.5 71.5t68.5 194.5q0 117 -65.5 190.5 t-171.5 73.5q-63 0 -108.5 -23.5t-74 -61t-42 -85t-13.5 -94.5z" />
<glyph unicode="&#xa5;" d="M125 1239l8 41q2 16 19 16q18 0 60 -3t122 -3q111 0 164 3t71 3q20 0 19 -16l-4 -41q-4 -12 -19 -12h-49q-29 0 -45 -8.5t-22.5 -22.5t-4.5 -30.5t7 -32.5l147 -502q4 -20 15.5 -20.5t17.5 10.5q8 12 33.5 50t59.5 89t73 107.5t71.5 107.5t57 91t28.5 54q18 55 3 80 t-72 25h-39q-14 2 -15 18l5 37q2 16 22 16q23 0 75 -3t128 -3q78 0 124 3t64 3q23 0 19 -16l-4 -37q-2 -16 -17 -16h-37q-49 0 -79.5 -23.5t-61.5 -70.5q-6 -10 -35.5 -50.5t-69.5 -97.5t-87.5 -121.5t-87 -121t-69.5 -97.5t-36 -49h274q18 0 17 -12l-8 -41q-2 -12 -27 -13 h-299l-31 -129h326q14 0 12 -14l-8 -41q-2 -10 -29 -10h-321l-33 -162q-8 -37 -6 -58.5t11 -33.5t24.5 -15.5t36.5 -3.5h61q18 0 14 -16l-6 -37q-4 -16 -20 -16q-23 0 -71 3t-138 3q-113 0 -163 -3t-67 -3q-18 0 -16 16l6 37q4 16 19 16h45q70 0 94.5 31t34.5 74l35 168 h-291q-12 0 -10 10l6 41q0 14 18 14h293l27 129h-297q-18 0 -17 15l4 39q2 10 7.5 11t13.5 1h268l-176 557q-10 29 -37 51.5t-78 22.5h-45q-16 0 -12 12z" />
<glyph unicode="&#xa6;" horiz-adv-x="512" d="M293 -338v676q0 20 18 20h78q12 0 12 -20v-676q0 -20 -18 -20h-78q-12 0 -12 20zM293 686v678q0 18 12 18h82q14 0 14 -24v-672q0 -20 -18 -20h-78q-12 0 -12 20z" />
<glyph unicode="&#xa7;" d="M8 -195q0 39 21.5 62.5t58.5 23.5q31 0 52.5 -14t37.5 -37q35 -51 96 -51q31 0 74 15.5t82 47t65.5 80t26.5 113.5q0 53 -13 96t-40 85t-64.5 84t-87.5 96q-51 53 -84.5 117.5t-33.5 150.5q0 45 20.5 100t59 107.5t94 98.5t127.5 75q8 41 36.5 108.5t104.5 134.5 q72 66 150.5 85.5t144.5 19.5q82 0 125 -30t43 -62q0 -43 -23.5 -65.5t-62.5 -22.5q-41 0 -58.5 17t-33.5 48q-27 47 -84 47q-37 0 -74 -19.5t-66.5 -52t-49 -76.5t-19.5 -91q0 -39 8 -72t28.5 -68.5t57.5 -77.5t96 -100q49 -47 91 -117.5t42 -162.5q0 -59 -20.5 -119 t-59 -116t-96 -104t-129.5 -85q-23 -92 -60.5 -155.5t-119.5 -123.5q-115 -82 -295 -82q-72 0 -120 28.5t-48 63.5zM322 737q0 -53 21.5 -98t51.5 -82q43 -51 89 -100t83 -100.5t61.5 -103.5t26.5 -110q86 57 126 128t40 139q0 66 -22.5 122t-83.5 127q-27 31 -63 66 t-68.5 77t-57 90t-26.5 105q-86 -45 -132 -112.5t-46 -147.5z" />
<glyph unicode="&#xa8;" horiz-adv-x="583" d="M324 1214q0 10 4 23.5t14 26t28.5 21.5t47.5 9q35 0 59.5 -22.5t24.5 -63.5q0 -39 -24.5 -60.5t-59.5 -21.5q-29 0 -61.5 17.5t-32.5 70.5zM602 1214q0 10 4 23.5t14.5 26t29 21.5t46.5 9q35 0 59.5 -22.5t24.5 -63.5q0 -39 -24.5 -60.5t-59.5 -21.5q-29 0 -61.5 17.5 t-32.5 70.5z" />
<glyph unicode="&#xa9;" horiz-adv-x="1597" d="M176 686q0 154 55.5 285t151.5 227t226 150.5t278 54.5q154 0 285 -52.5t225 -146.5t147 -226t53 -292q0 -152 -50 -282t-143 -227t-224 -152.5t-293 -55.5q-164 0 -295 56.5t-223.5 152.5t-142.5 227t-50 281zM279 686q0 -176 59 -300t150.5 -200.5t198 -111.5 t200.5 -35q166 0 281.5 61.5t188.5 156.5t105.5 210t32.5 219q0 172 -60.5 294t-151.5 201t-197.5 115.5t-198.5 36.5q-127 0 -237.5 -47t-192.5 -133t-130 -205t-48 -262zM461 692q0 82 29.5 162t95.5 147q47 47 126 82t179 35q41 0 78 -8t66.5 -19.5t51 -21.5t29.5 -14 q18 -10 25 0l8 32q2 6 29 7q18 0 20 -19l29 -221q2 -12 -4 -14l-23 -6q-10 -4 -16 4q-12 27 -33 62.5t-55 70.5q-41 39 -95.5 63.5t-113.5 24.5q-74 0 -128 -32t-90 -81t-52.5 -109.5t-16.5 -115.5q0 -27 5 -60.5t17.5 -71.5t33 -76t53.5 -71q53 -57 109 -80.5t116 -23.5 q106 0 181 48t118 106q4 4 16 -7l15 -10q8 -8 -2 -20q-29 -39 -65 -74t-80 -62.5t-98 -44t-118 -16.5q-94 0 -175 27.5t-134 81.5q-66 63 -98.5 142t-32.5 183z" />
<glyph unicode="&#xaa;" horiz-adv-x="663" d="M113 643q0 70 41 150.5t104.5 149.5t141 115t153.5 46q53 0 74.5 -19.5t27.5 -35.5l19 30q8 12 24 13h66q14 0 6 -17q-6 -14 -20.5 -48t-31 -73t-31.5 -77.5t-25 -61.5t-21.5 -54.5t-22 -61t-17.5 -53t-7 -25.5q0 -18 14 -19q8 0 22.5 10.5t30 22.5t28.5 25l20 20 q6 8 14 2l20 -20q8 -8 0 -17q-6 -10 -30.5 -31.5t-57 -44t-70.5 -39t-71 -16.5q-45 0 -45 29q0 18 11.5 54t47.5 128l-8 4q-16 -27 -50 -63.5t-75 -70.5t-87 -57.5t-87 -23.5q-108 0 -108 129zM236 680q0 -29 10 -54.5t39 -25.5t70.5 29.5t83.5 70.5t76 86t46 74 q39 84 39 123q0 31 -14.5 46t-50.5 15q-55 0 -108.5 -43t-95.5 -101t-68.5 -119.5t-26.5 -100.5z" />
<glyph unicode="&#xab;" horiz-adv-x="737" d="M115 434q0 4 10 15l317 296q8 8 13 9q4 0 10 -6l22 -23q8 -8 9 -14q0 -4 -13 -17l-215 -250l156 -251q4 -8 7 -10.5t3 -6.5q0 -6 -8 -14l-25 -23q-4 -4 -8 -4q-8 0 -14 8l-256 279q-8 8 -8 12zM381 434q0 4 10 15l318 296q8 8 12 9q4 0 10 -6l23 -23q8 -8 8 -14 q0 -4 -12 -17l-215 -250l155 -251q4 -8 7 -10.5t3 -6.5q0 -6 -8 -14l-24 -23q-4 -4 -9 -4q-8 0 -14 8l-256 279q-8 8 -8 12z" />
<glyph unicode="&#xac;" d="M147 598v111h795v-459h-119v348h-676z" />
<glyph unicode="&#xad;" horiz-adv-x="856" d="M129 459v76q0 20 16 20h662q18 0 18 -16v-70q0 -16 -5 -20.5t-13 -4.5h-662q-16 1 -16 15z" />
<glyph unicode="&#xae;" horiz-adv-x="1105" d="M229 956q0 94 35 176t96.5 142.5t146.5 94.5t185 34q104 0 189.5 -33t145.5 -91t94 -141t34 -182q0 -94 -31.5 -175t-91 -141t-145.5 -95t-195 -35q-111 0 -196.5 35t-145 95t-90.5 141t-31 175zM313 963q0 -109 37 -182.5t93.5 -120t123 -67t125.5 -20.5q104 0 176 36 t117 91.5t65.5 123t20.5 132.5q0 106 -38 180t-94 119t-122.5 64.5t-124.5 19.5q-78 0 -147.5 -25.5t-120.5 -74.5t-81 -118.5t-30 -157.5zM465 713v22q0 4 4 4h18q18 0 28.5 6.5t10.5 34.5v187l2 71v70q0 29 -2 45q0 35 -41 35h-14q-4 0 -4 6v25q0 6 4 6q2 0 16.5 -1t31 -1 t30.5 -1t20 -1q4 0 23.5 1t41 1t41 1t25.5 1q53 0 91 -12.5t61 -30.5t31 -42t8 -44q0 -35 -13.5 -61.5t-33 -44t-44 -28t-44.5 -12.5v-4q12 -4 19 -11l11 -11q2 -4 12.5 -18.5t21.5 -30t20.5 -30t11.5 -16.5t10 -13t18.5 -24.5t20.5 -24.5t17 -15q14 -10 27 -11.5t30 -1.5 q8 0 8 -10v-18q0 -4 -6 -4q-4 0 -24.5 1t-37.5 1q-16 0 -36.5 -1t-42.5 -1q-6 4 -17.5 17t-15.5 21q-4 4 -11.5 15.5t-15.5 24t-16 25.5t-12 19q-6 12 -21.5 38t-21.5 32q-16 16 -31 25.5t-37 9.5h-10q-6 0 -11 -2v-35v-76q0 -43 2 -53q0 -10 5.5 -19.5t19.5 -9.5h33 q4 0 4 -6v-20q0 -6 -4 -6h-18q-13 0 -28.5 1t-31.5 1h-29q-23 0 -57.5 -1t-40.5 -1t-6 6zM616 969q6 -2 19 -2h22q45 0 72 14t41 33.5t19.5 39t5.5 29.5q0 23 -11.5 43.5t-29.5 32.5q-43 29 -97 29q-8 0 -19 -1t-22 -3v-215z" />
<glyph unicode="&#xaf;" horiz-adv-x="522" d="M223 1057v61q0 12 21 12h368q20 0 21 -14v-59q0 -14 -19 -15h-374q-17 1 -17 15z" />
<glyph unicode="&#xb0;" horiz-adv-x="512" d="M233 1217q0 37 15.5 69.5t43 59t65.5 42t83 15.5q98 0 153.5 -54.5t55.5 -131.5q0 -37 -15.5 -72t-43 -60.5t-66.5 -42t-84 -16.5q-98 0 -152.5 53.5t-54.5 137.5zM324 1221q0 -59 34.5 -95t81.5 -36q49 0 84 35.5t35 95.5q0 47 -33.5 81.5t-85.5 34.5q-51 0 -83.5 -34.5 t-32.5 -81.5z" />
<glyph unicode="&#xb1;" d="M147 23v110h795v-110h-795zM147 594v111h338v282h121v-282h336v-111h-336v-293h-121v293h-338z" />
<glyph unicode="&#xb2;" horiz-adv-x="665" d="M104 809q0 14 17 27q57 47 140 108.5t159 132t129 144t53 145.5q0 20 -6 44t-19.5 44.5t-35 32.5t-52.5 12t-56 -14.5t-44.5 -33.5t-34 -42t-22.5 -37q-12 -20 -23 -16l-22 12q-10 6 -6 18q8 23 28.5 57t53 65.5t77.5 54t105 22.5q94 0 142 -51t48 -135q0 -80 -50 -156 t-123 -142.5t-153.5 -120.5t-142.5 -93l-4 -2v-2h230q51 0 80.5 24.5t52.5 61.5q10 12 20 8l17 -10q12 -4 2 -15q-12 -16 -26.5 -43.5t-27 -54.5t-21.5 -48.5t-9 -23.5q-4 -12 -19 -12q-10 0 -20 14q-4 6 -25.5 7.5t-52.5 1.5h-334q-16 0 -20.5 4t-4.5 12z" />
<glyph unicode="&#xb3;" horiz-adv-x="665" d="M150 915q0 18 13 37t40 19q37 0 46 -28t5 -50q-4 -16 23.5 -37.5t64.5 -21.5q43 0 83 17t68.5 48t46 72t17.5 88q0 49 -25.5 87t-68.5 54q-14 6 -17.5 10t-3.5 13q0 4 3.5 10t17.5 10q20 4 50 17.5t56.5 36t46 53t19.5 69.5q0 12 -4 26.5t-15.5 28t-30 22.5t-48.5 9 q-45 0 -79 -29.5t-55 -58.5q-18 -29 -30 -18l-21 16q-4 6 2 21q10 18 31 43.5t49.5 49t68.5 40t89 16.5q45 0 76.5 -12t51 -29.5t29 -38t9.5 -39.5q0 -72 -52.5 -125t-125.5 -92q59 -31 83.5 -76t24.5 -100q0 -63 -30.5 -116.5t-81 -93.5t-113 -62.5t-125.5 -22.5 q-92 0 -140 44t-48 93z" />
<glyph unicode="&#xb4;" horiz-adv-x="460" d="M199 977q-4 4 8 16l258 211q33 31 72 31q20 0 35.5 -15.5t18.5 -37t-8.5 -45t-43.5 -37.5l-310 -146q-12 -6 -16 2z" />
<glyph unicode="&#xb5;" d="M-142.5 -424.5q-7.5 21.5 27.5 55.5q35 35 65 88.5t55.5 115t48 122.5t44.5 111q8 20 23.5 58t39 98.5t59.5 148.5t85 209q37 90 40 149.5t3 75.5q0 45 88 45q35 0 52.5 -23.5t17.5 -50.5q0 -39 -42 -127t-97 -225q-18 -47 -37 -93t-33 -86t-23.5 -72t-9.5 -48 q0 -35 35 -35q41 0 97.5 43t113.5 101.5t104.5 118t69.5 91.5q29 43 53.5 85t42.5 85q35 84 42 129.5t7 61.5q0 45 84 45q35 0 47.5 -16.5t12.5 -44.5q0 -35 -44 -136.5t-106 -267.5q-23 -59 -37 -101t-23 -71t-12 -47t-3 -33q0 -18 13 -28.5t23 -10.5q12 0 32 16.5t39 38 t35.5 42t22.5 30.5q8 12 19 0l20 -20q8 -8 0 -19q-2 -4 -27.5 -35.5t-65.5 -69.5t-92 -68.5t-108 -30.5q-63 0 -63 65q0 18 13.5 62.5t31.5 95.5t36.5 99t29.5 75l-13 6q-31 -45 -85 -115.5t-123.5 -135t-149.5 -110t-166 -38.5l-45 -123q-33 -90 -51.5 -136.5t-32.5 -86.5 q-12 -35 -56 -59.5t-91 -24.5q-29 0 -36.5 21.5z" />
<glyph unicode="&#x3bc;" d="M-142.5 -424.5q-7.5 21.5 27.5 55.5q35 35 65 88.5t55.5 115t48 122.5t44.5 111q8 20 23.5 58t39 98.5t59.5 148.5t85 209q37 90 40 149.5t3 75.5q0 45 88 45q35 0 52.5 -23.5t17.5 -50.5q0 -39 -42 -127t-97 -225q-18 -47 -37 -93t-33 -86t-23.5 -72t-9.5 -48 q0 -35 35 -35q41 0 97.5 43t113.5 101.5t104.5 118t69.5 91.5q29 43 53.5 85t42.5 85q35 84 42 129.5t7 61.5q0 45 84 45q35 0 47.5 -16.5t12.5 -44.5q0 -35 -44 -136.5t-106 -267.5q-23 -59 -37 -101t-23 -71t-12 -47t-3 -33q0 -18 13 -28.5t23 -10.5q12 0 32 16.5t39 38 t35.5 42t22.5 30.5q8 12 19 0l20 -20q8 -8 0 -19q-2 -4 -27.5 -35.5t-65.5 -69.5t-92 -68.5t-108 -30.5q-63 0 -63 65q0 18 13.5 62.5t31.5 95.5t36.5 99t29.5 75l-13 6q-31 -45 -85 -115.5t-123.5 -135t-149.5 -110t-166 -38.5l-45 -123q-33 -90 -51.5 -136.5t-32.5 -86.5 q-12 -35 -56 -59.5t-91 -24.5q-29 0 -36.5 21.5z" />
<glyph unicode="&#xb6;" d="M176 664.5q-31 93.5 12 234.5q35 119 131.5 204t223.5 142.5t267 90t265 48.5q76 10 116 14.5t69 4.5q16 0 14 -14l-8 -35q-4 -14 -21 -17q-10 0 -25.5 -2t-32 -4t-31.5 -4t-23 -4l-416 -1593q-2 -16 -19 -17h-49q-10 0 -11 4t3 21l410 1577q-20 -4 -59.5 -11.5 t-61.5 -13.5l-400 -1548q-4 -16 -7 -22.5t-13 -6.5h-55q-10 0 -2 33l176 674q-88 0 -184.5 21.5t-167 75.5t-101.5 147.5z" />
<glyph unicode="&#xb7;" horiz-adv-x="512" d="M238 705q0 31 25.5 68.5t80.5 37.5q35 0 57.5 -13.5t36 -30.5t18.5 -35.5t5 -26.5q0 -41 -32 -76t-83 -35q-47 0 -77.5 32t-30.5 79z" />
<glyph unicode="&#xb8;" horiz-adv-x="440" d="M-170 -393q0 33 37 33q57 0 104 29.5t47 66.5q0 25 -20.5 48t-56.5 38l127 178h75l-96 -137q39 -18 61.5 -47t22.5 -72q0 -41 -32.5 -72.5t-75.5 -54.5t-87.5 -35t-66.5 -12q-23 0 -31 10.5t-8 26.5z" />
<glyph unicode="&#xb9;" horiz-adv-x="665" d="M143 797l7 32q4 10 14 11h65q33 0 56.5 8t44.5 49q4 10 14 40t31 91l86 270l27 83q9 28 10 36q0 16 -17 17q-18 0 -84 -27l-65 -27q-8 -4 -15 9l-12 24q-2 4 -1 7t9 7l291 144q31 14 45 14q18 0 19 -14q0 -4 -1 -12.5t-5 -20.5q-10 -25 -23.5 -61.5t-29 -79.5t-31 -87 t-27.5 -83l-57 -183q-18 -59 -28.5 -94t-12.5 -47q-10 -37 -1 -50t40 -13h55q14 0 10 -11l-6 -32q-4 -10 -14 -11q-4 0 -31 1t-59.5 2.5t-63.5 2.5t-41 1q-12 0 -42 -1t-62.5 -2.5t-58 -2.5t-29.5 -1q-13 1 -7 11z" />
<glyph unicode="&#xba;" horiz-adv-x="663" d="M162 700q0 59 21.5 130t66.5 131.5t112.5 101.5t157.5 41q84 0 134.5 -50t50.5 -120q0 -53 -19.5 -125t-63.5 -137.5t-113 -111.5t-167 -46q-31 0 -62.5 8t-57 29.5t-43 57.5t-17.5 91zM270 659q0 -33 19.5 -57t62.5 -24q35 0 80 40.5t85 99t66.5 123t24.5 111.5 q2 39 -19.5 61.5t-68.5 22.5t-92 -37.5t-80 -94t-56.5 -122.5t-21.5 -123z" />
<glyph unicode="&#xbb;" horiz-adv-x="737" d="M61 178q0 4 13 17l215 249l-156 252q-4 8 -7 10.5t-3 6.5q0 6 8 14l25 23q4 4 8 4q8 0 14 -9l256 -278q8 -8 8 -12t-10 -15l-317 -297q-8 -8 -13 -8q-4 0 -10 6l-22 23q-9 8 -9 14zM328 178q0 4 12 17l215 249l-156 252q-4 8 -7 10.5t-3 6.5q0 6 8 14l25 23q4 4 8 4 q8 0 14 -9l256 -278q8 -8 9 -12q0 -4 -11 -15l-317 -297q-8 -8 -12 -8t-11 6l-22 23q-8 8 -8 14z" />
<glyph unicode="&#xbc;" horiz-adv-x="1433" d="M82 532l6 33q4 10 14 10h66q33 0 56.5 8.5t43.5 49.5q4 10 14.5 39.5t30.5 91.5l86 270l28 83q9 28 9 36q0 16 -16 16q-18 0 -84 -26l-66 -27q-8 -4 -14 8l-12 25q-2 4 -1 7t9 7l291 144q31 14 45 14q18 0 18 -14q0 -4 -1 -12.5t-5 -20.5q-10 -25 -23.5 -61.5t-29 -79.5 t-30.5 -87.5t-28 -82.5l-57 -183q-20 -59 -29.5 -94t-11.5 -47q-10 -37 -1 -50.5t40 -13.5h55q14 0 11 -10l-7 -33q-4 -10 -14 -10q-4 0 -30.5 1t-59.5 2t-63.5 2t-40.5 1q-12 0 -42 -1t-63 -2t-58.5 -2t-29.5 -1q-12 0 -6 10zM313 12q0 10 9 25l835 1276q6 8 12 8t15 -4 l45 -29q8 -2 8 -10q0 -6 -6 -14l-840 -1280q-8 -14 -16 -15q-8 0 -17 6l-39 27q-6 2 -6 10zM768 244q0 10 6 17t23 22l567 493q16 16 45 17q16 0 24.5 -14.5t2.5 -28.5l-181 -457h129q14 0 5 -19l-19 -43q-4 -6 -9 -12t-11 -6h-121l-76 -188q-8 -18 -14 -21.5t-17 -3.5h-86 q-14 0 -2 29l78 184h-313q-31 0 -31 31zM913 293h224l118 282q10 23 4 27t-26 -14l-307 -264q-33 -31 -13 -31z" />
<glyph unicode="&#xbd;" horiz-adv-x="1433" d="M82 532l6 33q4 10 14 10h66q33 0 56.5 8.5t43.5 49.5q4 10 14.5 39.5t30.5 91.5l86 270l28 83q9 28 9 36q0 16 -16 16q-18 0 -84 -26l-66 -27q-8 -4 -14 8l-12 25q-2 4 -1 7t9 7l291 144q31 14 45 14q18 0 18 -14q0 -4 -1 -12.5t-5 -20.5q-10 -25 -23.5 -61.5t-29 -79.5 t-30.5 -87.5t-28 -82.5l-57 -183q-20 -59 -29.5 -94t-11.5 -47q-10 -37 -1 -50.5t40 -13.5h55q14 0 11 -10l-7 -33q-4 -10 -14 -10q-4 0 -30.5 1t-59.5 2t-63.5 2t-40.5 1q-12 0 -42 -1t-63 -2t-58.5 -2t-29.5 -1q-12 0 -6 10zM313 12q0 10 9 25l835 1276q6 8 12 8t15 -4 l45 -29q8 -2 8 -10q0 -6 -6 -14l-840 -1280q-8 -14 -16 -15q-8 0 -17 6l-39 27q-6 2 -6 10zM811 16q0 14 16 27q57 47 140.5 108.5t159 132t129 144.5t53.5 145q0 20 -6.5 44t-19.5 44.5t-34.5 33t-52.5 12.5t-56.5 -14.5t-45 -34t-33.5 -42t-23 -36.5q-12 -20 -22 -17 l-23 12q-10 6 -6 19q8 23 28.5 56.5t53.5 65.5t78 54.5t104 22.5q94 0 142.5 -51.5t48.5 -135.5q0 -80 -50.5 -155.5t-123 -142t-153.5 -121t-142 -93.5l-4 -2v-2h229q51 0 81 24.5t52 61.5q10 12 21 8l16 -10q12 -4 2 -14q-12 -16 -26.5 -44t-26.5 -54.5t-21.5 -48 t-9.5 -23.5q-4 -12 -18 -13q-10 0 -21 15q-4 6 -25.5 7t-52.5 1h-333q-16 0 -20.5 4t-4.5 12z" />
<glyph unicode="&#xbe;" horiz-adv-x="1433" d="M88 651q0 18 13.5 37t39.5 19q37 0 46.5 -28t5.5 -50q-4 -16 23.5 -38t64.5 -22q43 0 82.5 17.5t68.5 48.5t46.5 72t17.5 88q0 49 -26 87t-69 54q-14 6 -17 10t-3 12q0 4 3 10.5t17 10.5q20 4 50 17.5t57 36t46 53t19 69.5q0 12 -4 26.5t-15 28t-29.5 22.5t-49.5 9 q-45 0 -79 -29.5t-54 -58.5q-18 -29 -31 -18l-20 16q-4 6 2 20q10 18 30.5 44t49 49.5t68.5 40t89 16.5q45 0 77 -12.5t51.5 -29.5t28.5 -37.5t9 -39.5q0 -72 -52 -125t-126 -92q59 -31 84 -76t25 -100q0 -63 -31 -116.5t-81 -93.5t-112.5 -62.5t-126.5 -22.5q-92 0 -140 44 t-48 93zM334 12q0 10 8 25l836 1276q6 8 12 8t14 -4l45 -29q8 -2 8 -10q0 -6 -6 -14l-839 -1280q-8 -14 -17 -15q-8 0 -16 6l-39 27q-6 2 -6 10zM778 244q0 10 6.5 17t22.5 22l567 493q16 16 45 17q16 0 24.5 -14.5t2.5 -28.5l-180 -457h129q12 0 4 -19l-19 -43 q-4 -6 -9 -12t-11 -6h-121l-76 -188q-8 -18 -14 -21.5t-16 -3.5h-86q-14 0 -3 29l78 184h-313q-31 0 -31 31zM924 293h223l119 282q10 23 4 27t-27 -14l-307 -264q-32 -31 -12 -31z" />
<glyph unicode="&#xbf;" horiz-adv-x="878" d="M41 -340q0 96 37 167t93 123t123.5 89t127.5 67q113 57 176.5 100.5t63.5 108.5q0 57 -42 86t-102 29q-57 0 -102 -28.5t-62 -47.5q-8 -8 -18 4l-14 17q-8 8 -5 16q12 12 34 32.5t50.5 39t63.5 32t72 13.5t73.5 -12.5t64 -39t45 -67.5t17.5 -98q0 -66 -35.5 -119t-87 -94 t-107.5 -73t-95 -56q-55 -35 -102.5 -65.5t-83.5 -66.5t-56 -81t-20 -105q0 -25 11 -53.5t35.5 -54t63.5 -43t94 -17.5q49 0 92 14.5t76 39t52.5 58.5t19.5 75q0 49 -22.5 70.5t-39.5 21.5q-25 0 -32 -18q4 -10 3 -16.5t-1 -14.5q0 -12 -6.5 -27.5t-18.5 -31t-31.5 -25.5 t-46.5 -10q-41 0 -58 24.5t-17 44.5q0 33 15 59.5t38.5 45t52.5 29t57 10.5q27 0 56.5 -7.5t54.5 -26t41 -49t16 -75.5q0 -43 -20.5 -89t-60 -85t-98 -63.5t-134.5 -24.5q-96 0 -155.5 31.5t-92.5 74.5t-43 88t-10 74zM510 745q0 35 24.5 71t77.5 36q47 0 76 -32t29 -75 q0 -14 -7.5 -31.5t-20.5 -32.5t-31.5 -25.5t-41.5 -10.5q-35 0 -70.5 25.5t-35.5 74.5z" />
<glyph unicode="&#xc0;" horiz-adv-x="1267" d="M-154 8l11 45q2 16 14 17h31q66 0 129 42t119 107l948 1133q8 10 18 14t39 6q23 2 51.5 6t44.5 8t36 10.5t32 6.5q27 0 20 -21l-301 -1136q-6 -27 -13 -60.5t-7 -58.5t22.5 -41t53.5 -16h55q18 0 16 -21l-6 -37q-2 -10 -6 -14t-18 -4q-18 0 -80 3t-166 3q-109 0 -162 -3 t-78 -3t-20 20l8 39q4 16 16 17h39q29 0 53.5 5t46 21.5t39 50t33.5 91.5l103 378h-365l-287 -360q-33 -41 -58.5 -78t-25.5 -59q0 -49 72 -49h74q18 0 14 -21l-8 -39q-4 -16 -21 -16q-16 0 -81.5 3t-186.5 3q-102 0 -157.5 -3t-71.5 -3q-21 0 -19 14zM655 688h334l158 541 q6 23 -13.5 25.5t-31.5 -11.5zM917.5 1695.5q-8.5 24.5 0 47t27 39t40.5 16.5q18 0 40 -14.5t38 -30.5l240 -227q10 -6 4 -17l-15 -20q-4 -4 -14 0l-320 166q-32 16 -40.5 40.5z" />
<glyph unicode="&#xc1;" horiz-adv-x="1267" d="M-154 8l11 45q2 16 14 17h31q66 0 129 42t119 107l948 1133q8 10 18 14t39 6q23 2 51.5 6t44.5 8t36 10.5t32 6.5q27 0 20 -21l-301 -1136q-6 -27 -13 -60.5t-7 -58.5t22.5 -41t53.5 -16h55q18 0 16 -21l-6 -37q-2 -10 -6 -14t-18 -4q-18 0 -80 3t-166 3q-109 0 -162 -3 t-78 -3t-20 20l8 39q4 16 16 17h39q29 0 53.5 5t46 21.5t39 50t33.5 91.5l103 378h-365l-287 -360q-33 -41 -58.5 -78t-25.5 -59q0 -49 72 -49h74q18 0 14 -21l-8 -39q-4 -16 -21 -16q-16 0 -81.5 3t-186.5 3q-102 0 -157.5 -3t-71.5 -3q-21 0 -19 14zM655 688h334l158 541 q6 23 -13.5 25.5t-31.5 -11.5zM1157 1513q-4 10 6 21l293 227q33 25 70 25q25 0 42 -18.5t21 -44t-7 -50t-40 -37.5l-356 -145q-12 -6 -17 2z" />
<glyph unicode="&#xc2;" horiz-adv-x="1267" d="M-154 8l11 45q2 16 14 17h31q66 0 129 42t119 107l948 1133q8 10 18 14t39 6q23 2 51.5 6t44.5 8t36 10.5t32 6.5q27 0 20 -21l-301 -1136q-6 -27 -13 -60.5t-7 -58.5t22.5 -41t53.5 -16h55q18 0 16 -21l-6 -37q-2 -10 -6 -14t-18 -4q-18 0 -80 3t-166 3q-109 0 -162 -3 t-78 -3t-20 20l8 39q4 16 16 17h39q29 0 53.5 5t46 21.5t39 50t33.5 91.5l103 378h-365l-287 -360q-33 -41 -58.5 -78t-25.5 -59q0 -49 72 -49h74q18 0 14 -21l-8 -39q-4 -16 -21 -16q-16 0 -81.5 3t-186.5 3q-102 0 -157.5 -3t-71.5 -3q-21 0 -19 14zM655 688h334l158 541 q6 23 -13.5 25.5t-31.5 -11.5zM981 1522q-4 4 4 12l285 246q16 12 26 -4l146 -246q6 -10 -4 -17l-21 -18q-8 -6 -22 4l-142 123l-243 -127q-10 -4 -15 4z" />
<glyph unicode="&#xc3;" horiz-adv-x="1267" d="M-154 8l11 45q2 16 14 17h31q66 0 129 42t119 107l948 1133q8 10 18 14t39 6q23 2 51.5 6t44.5 8t36 10.5t32 6.5q27 0 20 -21l-301 -1136q-6 -27 -13 -60.5t-7 -58.5t22.5 -41t53.5 -16h55q18 0 16 -21l-6 -37q-2 -10 -6 -14t-18 -4q-18 0 -80 3t-166 3q-109 0 -162 -3 t-78 -3t-20 20l8 39q4 16 16 17h39q29 0 53.5 5t46 21.5t39 50t33.5 91.5l103 378h-365l-287 -360q-33 -41 -58.5 -78t-25.5 -59q0 -49 72 -49h74q18 0 14 -21l-8 -39q-4 -16 -21 -16q-16 0 -81.5 3t-186.5 3q-102 0 -157.5 -3t-71.5 -3q-21 0 -19 14zM655 688h334l158 541 q6 23 -13.5 25.5t-31.5 -11.5zM961 1546q-6 4 0 21q27 66 75.5 111.5t93.5 45.5t79 -7t75 -17q33 -6 62.5 -7t52.5 -1q41 0 66.5 21.5t37.5 43.5q6 14 17 8l30 -16q10 -4 -6 -35q-29 -53 -71.5 -94t-96.5 -41q-59 0 -135 16q-43 10 -77 13.5t-56 3.5q-27 0 -57.5 -23.5 t-46.5 -52.5q-8 -12 -17 -6z" />
<glyph unicode="&#xc4;" horiz-adv-x="1267" d="M-154 8l11 45q2 16 14 17h31q66 0 129 42t119 107l948 1133q8 10 18 14t39 6q23 2 51.5 6t44.5 8t36 10.5t32 6.5q27 0 20 -21l-301 -1136q-6 -27 -13 -60.5t-7 -58.5t22.5 -41t53.5 -16h55q18 0 16 -21l-6 -37q-2 -10 -6 -14t-18 -4q-18 0 -80 3t-166 3q-109 0 -162 -3 t-78 -3t-20 20l8 39q4 16 16 17h39q29 0 53.5 5t46 21.5t39 50t33.5 91.5l103 378h-365l-287 -360q-33 -41 -58.5 -78t-25.5 -59q0 -49 72 -49h74q18 0 14 -21l-8 -39q-4 -16 -21 -16q-16 0 -81.5 3t-186.5 3q-102 0 -157.5 -3t-71.5 -3q-21 0 -19 14zM655 688h334l158 541 q6 23 -13.5 25.5t-31.5 -11.5zM952 1628q0 10 4.5 25.5t15.5 29t31.5 22.5t51.5 9q37 0 64.5 -23.5t27.5 -68.5q0 -41 -26.5 -65.5t-65.5 -24.5q-16 0 -33.5 4t-33 14.5t-26 28.5t-10.5 49zM1317 1628q0 10 4 25.5t15.5 29t32 22.5t50.5 9q37 0 64.5 -23.5t27.5 -68.5 q0 -41 -26.5 -65.5t-65.5 -24.5q-16 0 -33.5 4t-33 14.5t-25.5 28.5t-10 49z" />
<glyph unicode="&#xc5;" horiz-adv-x="1267" d="M-154 8l11 45q2 16 14 17h31q66 0 129 42t119 107l948 1133q8 10 16 14t27 4q33 0 63.5 3t46.5 7q31 4 43.5 8.5t24.5 4.5q27 0 18 -31l-299 -1116q-6 -27 -13 -60.5t-7 -58.5t22.5 -41t53.5 -16h55q18 0 16 -21l-6 -37q-2 -10 -6 -14t-18 -4q-18 0 -80 3t-166 3 q-109 0 -162 -3t-78 -3t-20 20l8 39q4 16 16 17h39q29 0 53.5 5t46 21.5t39 50t33.5 91.5l103 378h-365l-287 -360q-33 -41 -58.5 -78t-25.5 -59q0 -49 72 -49h74q18 0 14 -21l-8 -39q-4 -16 -21 -16q-16 0 -81.5 3t-186.5 3q-102 0 -157.5 -3t-71.5 -3q-21 0 -19 14z M655 688h334l158 541q6 23 -13.5 25.5t-31.5 -11.5zM1034 1632q0 43 19.5 75t50.5 53.5t69.5 32.5t79.5 11q80 0 142.5 -39t62.5 -125q0 -35 -17.5 -61.5t-48 -47t-70.5 -30.5t-83 -10q-84 0 -144.5 37.5t-60.5 103.5zM1143 1647q0 -55 32.5 -80t71.5 -25q35 0 69 24.5 t34 82.5q0 31 -11.5 50t-28 31.5t-35 17.5t-32.5 5q-35 0 -67.5 -27.5t-32.5 -78.5z" />
<glyph unicode="&#xc6;" horiz-adv-x="1878" d="M-272 14l8 39q2 16 16 17h37q66 0 134.5 41t129.5 108l942 1047q10 10 9.5 23.5t-21.5 13.5h-133q-20 0 -12 16l18 49q4 10 23 10q12 0 37.5 -1t58.5 -1q33 -2 68.5 -3t70.5 -1h205q129 0 220 1t151 3q59 0 92 1t49 1q23 0 30 -7t13 -32l65 -280q2 -10 -12 -19l-22 -8 q-8 -4 -11.5 -3t-9.5 9l-192 248q-14 16 -35 17h-350l-195 -598h215q45 0 80 3t64.5 19t53 51t46.5 96q4 12 14 11l31 -6q14 -4 12 -17l-110 -407q-2 -14 -15 -13l-33 4q-10 2 -8 17q6 63 -7 98t-42 52.5t-74 21.5t-106 4h-139l-183 -569h510q29 0 50.5 4t39 13t35 25.5 t39.5 43.5l164 206q10 14 25 5l20 -13q6 -4 8 -9t-2 -19l-104 -297q-8 -23 -17.5 -29t-27.5 -6q-14 0 -83 1t-169 3q-100 0 -215 1t-223 1h-168q-72 0 -117 -1t-72 -1q-29 -2 -41 -3t-20 -1q-25 0 -21 22l6 37q2 16 17 17h76q63 0 97 30.5t50 83.5l145 455h-376l-326 -381 q-37 -43 -65.5 -80t-28.5 -59q0 -23 19.5 -36t53.5 -13h68q14 0 12 -21l-6 -39q-2 -8 -6 -12t-16 -4q-16 0 -82 3t-187 3q-102 0 -157.5 -3t-71.5 -3q-18 0 -16 20zM596 705h336l168 524q8 23 -2.5 25.5t-24.5 -11.5z" />
<glyph unicode="&#xc7;" horiz-adv-x="1335" d="M164 457q0 88 19.5 181t58.5 185t93 179.5t126 164.5q100 111 230 173.5t263 62.5q74 0 135.5 -18.5t135.5 -69.5q20 -14 46.5 -36t55.5 -22q18 0 30.5 14.5t22.5 49.5q6 18 19 12l26 -6q18 -2 13 -20l-109 -424q-6 -16 -22 -13l-29 4q-14 2 -12 21q16 76 5 152.5 t-49 139t-101.5 102.5t-151.5 40q-125 0 -215 -61.5t-179 -188.5q-57 -84 -96 -172t-62.5 -172t-33.5 -160.5t-10 -138.5q0 -111 31.5 -183.5t79.5 -117.5t102.5 -63.5t99.5 -18.5q63 0 134 14.5t138.5 53.5t129 109.5t108.5 185.5q6 14 9 17t12 -1l34 -10q10 -4 11.5 -7 t-0.5 -12l-146 -438q-6 -14 -18 -10l-37 10q-10 4 -8 12q4 10 6 19.5t2 26.5q0 12 -9.5 22t-23.5 10t-37.5 -8t-52.5 -20q-16 -8 -49 -18.5t-73 -18.5t-82 -14.5t-79 -6.5t-69 6l-68 -104q100 -37 100 -127q0 -39 -27.5 -75t-68.5 -63.5t-91 -44t-95 -16.5q-39 0 -39 31 q0 33 25 33q14 0 43.5 6t57.5 19.5t49.5 36t21.5 59.5q0 29 -32 52t-67 34l121 174q-78 18 -142.5 59t-110.5 101.5t-72.5 137.5t-26.5 169z" />
<glyph unicode="&#xc8;" horiz-adv-x="1370" d="M-6 10l6 43q6 16 16 17h76q63 0 97 30.5t51 83.5l311 973q14 43 8 70.5t-24.5 45t-44 24t-52.5 6.5h-65q-18 0 -13 22l11 39q4 14 24 14q10 0 27.5 -1t50.5 -1q33 -2 82 -3t123 -1h131q117 0 205 1t151 3q63 0 102.5 1t55.5 1q23 0 30 -7t13 -32l66 -280q2 -10 -13 -19 l-22 -8q-8 -4 -11.5 -3t-9.5 9l-192 248q-10 16 -33 17h-373l-176 -539h197q45 0 79.5 3t64.5 19.5t53.5 51t45.5 98.5q4 12 15 10l30 -6q14 -4 13 -16l-111 -408q-2 -14 -14 -12l-33 4q-10 2 -8 16q6 63 -7.5 98t-42 52.5t-73.5 20.5t-106 3h-123l-199 -628h530 q55 0 94.5 22.5t69.5 63.5l164 206q10 14 25 5l20 -13q6 -4 8 -9t-2 -19l-104 -297q-8 -23 -17.5 -29t-27.5 -6q-12 0 -73.5 1t-154.5 3q-92 0 -199.5 1t-213.5 1h-238q-72 0 -118 -1t-74 -1q-29 -2 -42.5 -3t-19.5 -1q-22 0 -16 16zM702.5 1695.5q-8.5 24.5 0 47t27 39 t40.5 16.5q18 0 39.5 -14.5t38.5 -30.5l239 -227q10 -6 5 -17l-15 -20q-4 -4 -14 0l-320 166q-32 16 -40.5 40.5z" />
<glyph unicode="&#xc9;" horiz-adv-x="1370" d="M-6 10l6 43q6 16 16 17h76q63 0 97 30.5t51 83.5l311 973q14 43 8 70.5t-24.5 45t-44 24t-52.5 6.5h-65q-18 0 -13 22l11 39q4 14 24 14q10 0 27.5 -1t50.5 -1q33 -2 82 -3t123 -1h131q117 0 205 1t151 3q63 0 102.5 1t55.5 1q23 0 30 -7t13 -32l66 -280q2 -10 -13 -19 l-22 -8q-8 -4 -11.5 -3t-9.5 9l-192 248q-10 16 -33 17h-373l-176 -539h197q45 0 79.5 3t64.5 19.5t53.5 51t45.5 98.5q4 12 15 10l30 -6q14 -4 13 -16l-111 -408q-2 -14 -14 -12l-33 4q-10 2 -8 16q6 63 -7.5 98t-42 52.5t-73.5 20.5t-106 3h-123l-199 -628h530 q55 0 94.5 22.5t69.5 63.5l164 206q10 14 25 5l20 -13q6 -4 8 -9t-2 -19l-104 -297q-8 -23 -17.5 -29t-27.5 -6q-12 0 -73.5 1t-154.5 3q-92 0 -199.5 1t-213.5 1h-238q-72 0 -118 -1t-74 -1q-29 -2 -42.5 -3t-19.5 -1q-22 0 -16 16zM922 1513q-4 10 6 21l293 227 q33 25 69 25q25 0 42.5 -18.5t21.5 -44t-7.5 -50t-39.5 -37.5l-357 -145q-12 -6 -16 2z" />
<glyph unicode="&#xca;" horiz-adv-x="1370" d="M-6 10l6 43q6 16 16 17h76q63 0 97 30.5t51 83.5l311 973q14 43 8 70.5t-24.5 45t-44 24t-52.5 6.5h-65q-18 0 -13 22l11 39q4 14 24 14q10 0 27.5 -1t50.5 -1q33 -2 82 -3t123 -1h131q117 0 205 1t151 3q63 0 102.5 1t55.5 1q23 0 30 -7t13 -32l66 -280q2 -10 -13 -19 l-22 -8q-8 -4 -11.5 -3t-9.5 9l-192 248q-10 16 -33 17h-373l-176 -539h197q45 0 79.5 3t64.5 19.5t53.5 51t45.5 98.5q4 12 15 10l30 -6q14 -4 13 -16l-111 -408q-2 -14 -14 -12l-33 4q-10 2 -8 16q6 63 -7.5 98t-42 52.5t-73.5 20.5t-106 3h-123l-199 -628h530 q55 0 94.5 22.5t69.5 63.5l164 206q10 14 25 5l20 -13q6 -4 8 -9t-2 -19l-104 -297q-8 -23 -17.5 -29t-27.5 -6q-12 0 -73.5 1t-154.5 3q-92 0 -199.5 1t-213.5 1h-238q-72 0 -118 -1t-74 -1q-29 -2 -42.5 -3t-19.5 -1q-22 0 -16 16zM725 1522q-4 4 4 12l285 246 q16 12 26 -4l146 -246q6 -10 -4 -17l-21 -18q-8 -6 -22 4l-142 123l-243 -127q-10 -4 -15 4z" />
<glyph unicode="&#xcb;" horiz-adv-x="1370" d="M-6 10l6 43q6 16 16 17h76q63 0 97 30.5t51 83.5l311 973q14 43 8 70.5t-24.5 45t-44 24t-52.5 6.5h-65q-18 0 -13 22l11 39q4 14 24 14q10 0 27.5 -1t50.5 -1q33 -2 82 -3t123 -1h131q117 0 205 1t151 3q63 0 102.5 1t55.5 1q23 0 30 -7t13 -32l66 -280q2 -10 -13 -19 l-22 -8q-8 -4 -11.5 -3t-9.5 9l-192 248q-10 16 -33 17h-373l-176 -539h197q45 0 79.5 3t64.5 19.5t53.5 51t45.5 98.5q4 12 15 10l30 -6q14 -4 13 -16l-111 -408q-2 -14 -14 -12l-33 4q-10 2 -8 16q6 63 -7.5 98t-42 52.5t-73.5 20.5t-106 3h-123l-199 -628h530 q55 0 94.5 22.5t69.5 63.5l164 206q10 14 25 5l20 -13q6 -4 8 -9t-2 -19l-104 -297q-8 -23 -17.5 -29t-27.5 -6q-12 0 -73.5 1t-154.5 3q-92 0 -199.5 1t-213.5 1h-238q-72 0 -118 -1t-74 -1q-29 -2 -42.5 -3t-19.5 -1q-22 0 -16 16zM696 1628q0 10 4.5 25.5t15.5 29 t31.5 22.5t51.5 9q37 0 64.5 -23.5t27.5 -68.5q0 -41 -26.5 -65.5t-65.5 -24.5q-16 0 -33.5 4t-33 14.5t-26 28.5t-10.5 49zM1061 1628q0 10 4 25.5t15.5 29t32 22.5t50.5 9q37 0 64.5 -23.5t27.5 -68.5q0 -41 -26.5 -65.5t-65.5 -24.5q-16 0 -33.5 4t-33 14.5t-25.5 28.5 t-10 49z" />
<glyph unicode="&#xcc;" horiz-adv-x="735" d="M-16 10l8 39q4 20 18 21h88q45 0 73 8t45 26.5t27.5 47t22.5 69.5l256 946q20 76 0 106t-73 30h-95q-20 0 -18 16l10 47q2 12 27 12q18 0 93 -3t183 -3q127 0 194.5 3t90.5 3q29 0 22 -20l-10 -39q-2 -8 -6 -12t-16 -4h-39q-47 0 -78 -5.5t-51.5 -20.5t-34.5 -44t-27 -76 l-256 -948q-20 -74 4.5 -106.5t104.5 -32.5h71q16 0 13 -21l-6 -39q-2 -10 -5.5 -13t-19.5 -3t-89 3t-208 3q-125 0 -206 -3t-97 -3q-20 0 -16 16zM385 1695.5q-8 24.5 0 47t26.5 39t41.5 16.5q18 0 39.5 -14.5t37.5 -30.5l240 -227q10 -6 4 -17l-14 -20q-4 -4 -15 0 l-319 166q-33 16 -41 40.5z" />
<glyph unicode="&#xcd;" horiz-adv-x="735" d="M-16 10l8 39q4 20 18 21h88q45 0 73 8t45 26.5t27.5 47t22.5 69.5l256 946q20 76 0 106t-73 30h-95q-20 0 -18 16l10 47q2 12 27 12q18 0 93 -3t183 -3q127 0 194.5 3t90.5 3q29 0 22 -20l-10 -39q-2 -8 -6 -12t-16 -4h-39q-47 0 -78 -5.5t-51.5 -20.5t-34.5 -44t-27 -76 l-256 -948q-20 -74 4.5 -106.5t104.5 -32.5h71q16 0 13 -21l-6 -39q-2 -10 -5.5 -13t-19.5 -3t-89 3t-208 3q-125 0 -206 -3t-97 -3q-20 0 -16 16zM645 1513q-4 10 6 21l293 227q33 25 70 25q25 0 42 -18.5t21 -44t-7 -50t-40 -37.5l-356 -145q-12 -6 -17 2z" />
<glyph unicode="&#xce;" horiz-adv-x="735" d="M-16 10l8 39q4 20 18 21h88q45 0 73 8t45 26.5t27.5 47t22.5 69.5l256 946q20 76 0 106t-73 30h-95q-20 0 -18 16l10 47q2 12 27 12q18 0 93 -3t183 -3q127 0 194.5 3t90.5 3q29 0 22 -20l-10 -39q-2 -8 -6 -12t-16 -4h-39q-47 0 -78 -5.5t-51.5 -20.5t-34.5 -44t-27 -76 l-256 -948q-20 -74 4.5 -106.5t104.5 -32.5h71q16 0 13 -21l-6 -39q-2 -10 -5.5 -13t-19.5 -3t-89 3t-208 3q-125 0 -206 -3t-97 -3q-20 0 -16 16zM449 1522q-4 4 4 12l284 246q16 12 27 -4l145 -246q6 -10 -4 -17l-20 -18q-8 -6 -23 4l-141 123l-244 -127q-10 -4 -14 4z " />
<glyph unicode="&#xcf;" horiz-adv-x="735" d="M-16 10l8 39q4 20 18 21h88q45 0 73 8t45 26.5t27.5 47t22.5 69.5l256 946q20 76 0 106t-73 30h-95q-20 0 -18 16l10 47q2 12 27 12q18 0 93 -3t183 -3q127 0 194.5 3t90.5 3q29 0 22 -20l-10 -39q-2 -8 -6 -12t-16 -4h-39q-47 0 -78 -5.5t-51.5 -20.5t-34.5 -44t-27 -76 l-256 -948q-20 -74 4.5 -106.5t104.5 -32.5h71q16 0 13 -21l-6 -39q-2 -10 -5.5 -13t-19.5 -3t-89 3t-208 3q-125 0 -206 -3t-97 -3q-20 0 -16 16zM420 1628q0 10 4 25.5t15.5 29t32 22.5t50.5 9q37 0 64.5 -23.5t27.5 -68.5q0 -41 -26.5 -65.5t-65.5 -24.5q-16 0 -33.5 4 t-33 14.5t-25.5 28.5t-10 49zM784 1628q0 10 4.5 25.5t15.5 29t31.5 22.5t51.5 9q37 0 64.5 -23.5t27.5 -68.5q0 -41 -26.5 -65.5t-65.5 -24.5q-16 0 -33.5 4t-33 14.5t-26 28.5t-10.5 49z" />
<glyph unicode="&#xd0;" horiz-adv-x="1591" d="M8 10l12 45q4 14 21 15h61q27 0 53.5 6t48 23.5t40 49t30.5 82.5l107 441h-221q-29 0 -23 18l17 45q2 12 26 13h221l109 446q16 59 -17.5 80.5t-86.5 21.5h-93q-27 0 -20 17l12 45q4 10 9 12t24 2q18 0 64.5 1t105.5 5q66 2 128 4t93 2q98 0 198.5 -7t195 -28.5 t177 -60.5t148.5 -102q94 -96 124 -186.5t30 -184.5q0 -152 -42 -265.5t-101.5 -196.5t-124 -135t-111.5 -79q-96 -55 -194.5 -83.5t-186.5 -43t-163 -16.5t-126 -2q-20 0 -61 1t-87.5 2t-88.5 2t-62 1q-117 0 -167 -3t-62 -3q-21 0 -17 16zM430 131q0 -33 40 -47t105 -14 q82 0 163 8t156 28.5t142.5 52t124.5 81.5q47 39 92 99t80 136t56.5 161t21.5 173q0 100 -37 190.5t-94 149.5q-51 53 -112.5 85t-120.5 48q-84 23 -142.5 25t-81.5 2q-25 0 -61.5 -1t-52.5 -5l-134 -555h293q31 0 21 -23l-15 -37q-4 -10 -10 -13t-26 -3h-283l-111 -455 q-6 -29 -10 -49.5t-4 -36.5z" />
<glyph unicode="&#xd1;" horiz-adv-x="1527" d="M-31 16l6 37q4 16 19 17h55q76 0 116 48t77 163l282 901q8 25 9.5 46t-11 37.5t-40 27t-76.5 10.5h-78q-23 0 -17 24l8 31q4 10 7.5 15t15.5 5q10 0 31.5 -1t62.5 -2t103.5 -2t154.5 -1q23 0 29 -18.5t14 -34.5l441 -983q12 -27 20 -20.5t31 67.5l268 801q20 59 2 89 t-67 30h-72q-25 0 -23 22l6 37q4 16 21 16q18 0 70.5 -3t162.5 -3q80 0 117 3t60 3q25 0 18 -26l-6 -33q-2 -16 -19 -16h-51q-39 0 -62.5 -19.5t-49.5 -93.5l-398 -1137q-16 -51 -40.5 -52t-43.5 40l-487 1087q-10 20 -20.5 20.5t-16.5 -22.5l-262 -866q-29 -92 -14.5 -141 t84.5 -49h79q23 0 19 -21l-6 -39q-4 -10 -7.5 -13t-17.5 -3q-16 0 -80.5 3t-177.5 3q-106 0 -159.5 -3t-69.5 -3q-21 -1 -17 22zM836 1546q-6 4 0 21q27 66 76 111.5t94 45.5t78.5 -7t74.5 -17q33 -6 62.5 -7t52.5 -1q41 0 66.5 21.5t37.5 43.5q6 14 17 8l30 -16 q10 -4 -6 -35q-29 -53 -71.5 -94t-96.5 -41q-59 0 -135 16q-43 10 -76.5 13.5t-56.5 3.5q-27 0 -57.5 -23.5t-46.5 -52.5q-8 -12 -17 -6z" />
<glyph unicode="&#xd2;" horiz-adv-x="1452" d="M209 590q0 158 58.5 304t157.5 260t229 181.5t272 67.5q117 0 215 -44t169.5 -125t112.5 -194.5t41 -251.5q0 -143 -48 -288.5t-141 -263t-228.5 -192.5t-309.5 -75q-14 0 -52 1t-88 13.5t-107.5 41t-108.5 84.5q-92 92 -132 211.5t-40 269.5zM365 457 q0 -109 29.5 -186.5t76.5 -127t104.5 -72t114.5 -22.5q84 0 162 36t146.5 97.5t125 146.5t96.5 181t62.5 201.5t22.5 210.5q0 82 -21.5 153.5t-63.5 123.5t-105.5 83t-149.5 31q-94 0 -165 -41t-136 -107q-68 -68 -123.5 -157.5t-94 -186t-60 -190.5t-21.5 -174zM682 1695.5 q-8 24.5 0 47t26.5 39t41.5 16.5q18 0 39.5 -14.5t37.5 -30.5l240 -227q10 -6 4 -17l-14 -20q-4 -4 -15 0l-319 166q-33 16 -41 40.5z" />
<glyph unicode="&#xd3;" horiz-adv-x="1452" d="M209 590q0 158 58.5 304t157.5 260t229 181.5t272 67.5q117 0 215 -44t169.5 -125t112.5 -194.5t41 -251.5q0 -143 -48 -288.5t-141 -263t-228.5 -192.5t-309.5 -75q-14 0 -52 1t-88 13.5t-107.5 41t-108.5 84.5q-92 92 -132 211.5t-40 269.5zM365 457 q0 -109 29.5 -186.5t76.5 -127t104.5 -72t114.5 -22.5q84 0 162 36t146.5 97.5t125 146.5t96.5 181t62.5 201.5t22.5 210.5q0 82 -21.5 153.5t-63.5 123.5t-105.5 83t-149.5 31q-94 0 -165 -41t-136 -107q-68 -68 -123.5 -157.5t-94 -186t-60 -190.5t-21.5 -174zM942 1513 q-4 10 6 21l293 227q33 25 70 25q25 0 42 -18.5t21 -44t-7 -50t-40 -37.5l-356 -145q-12 -6 -17 2z" />
<glyph unicode="&#xd4;" horiz-adv-x="1452" d="M209 590q0 158 58.5 304t157.5 260t229 181.5t272 67.5q117 0 215 -44t169.5 -125t112.5 -194.5t41 -251.5q0 -143 -48 -288.5t-141 -263t-228.5 -192.5t-309.5 -75q-14 0 -52 1t-88 13.5t-107.5 41t-108.5 84.5q-92 92 -132 211.5t-40 269.5zM365 457 q0 -109 29.5 -186.5t76.5 -127t104.5 -72t114.5 -22.5q84 0 162 36t146.5 97.5t125 146.5t96.5 181t62.5 201.5t22.5 210.5q0 82 -21.5 153.5t-63.5 123.5t-105.5 83t-149.5 31q-94 0 -165 -41t-136 -107q-68 -68 -123.5 -157.5t-94 -186t-60 -190.5t-21.5 -174zM705 1522 q-4 4 4 12l284 246q16 12 27 -4l145 -246q6 -10 -4 -17l-20 -18q-8 -6 -23 4l-141 123l-244 -127q-10 -4 -14 4z" />
<glyph unicode="&#xd5;" horiz-adv-x="1452" d="M209 590q0 158 58.5 304t157.5 260t229 181.5t272 67.5q117 0 215 -44t169.5 -125t112.5 -194.5t41 -251.5q0 -143 -48 -288.5t-141 -263t-228.5 -192.5t-309.5 -75q-14 0 -52 1t-88 13.5t-107.5 41t-108.5 84.5q-92 92 -132 211.5t-40 269.5zM365 457 q0 -109 29.5 -186.5t76.5 -127t104.5 -72t114.5 -22.5q84 0 162 36t146.5 97.5t125 146.5t96.5 181t62.5 201.5t22.5 210.5q0 82 -21.5 153.5t-63.5 123.5t-105.5 83t-149.5 31q-94 0 -165 -41t-136 -107q-68 -68 -123.5 -157.5t-94 -186t-60 -190.5t-21.5 -174zM705 1546 q-6 4 0 21q27 66 75.5 111.5t93.5 45.5t79 -7t75 -17q33 -6 62.5 -7t52.5 -1q41 0 66.5 21.5t37.5 43.5q6 14 17 8l30 -16q10 -4 -6 -35q-29 -53 -71.5 -94t-96.5 -41q-59 0 -135 16q-43 10 -77 13.5t-56 3.5q-27 0 -57.5 -23.5t-46.5 -52.5q-8 -12 -17 -6z" />
<glyph unicode="&#xd6;" horiz-adv-x="1452" d="M209 590q0 158 58.5 304t157.5 260t229 181.5t272 67.5q117 0 215 -44t169.5 -125t112.5 -194.5t41 -251.5q0 -143 -48 -288.5t-141 -263t-228.5 -192.5t-309.5 -75q-14 0 -52 1t-88 13.5t-107.5 41t-108.5 84.5q-92 92 -132 211.5t-40 269.5zM365 457 q0 -109 29.5 -186.5t76.5 -127t104.5 -72t114.5 -22.5q84 0 162 36t146.5 97.5t125 146.5t96.5 181t62.5 201.5t22.5 210.5q0 82 -21.5 153.5t-63.5 123.5t-105.5 83t-149.5 31q-94 0 -165 -41t-136 -107q-68 -68 -123.5 -157.5t-94 -186t-60 -190.5t-21.5 -174zM696 1628 q0 10 4.5 25.5t15.5 29t31.5 22.5t51.5 9q37 0 64.5 -23.5t27.5 -68.5q0 -41 -26.5 -65.5t-65.5 -24.5q-16 0 -33.5 4t-33 14.5t-26 28.5t-10.5 49zM1061 1628q0 10 4 25.5t15.5 29t32 22.5t50.5 9q37 0 64.5 -23.5t27.5 -68.5q0 -41 -26.5 -65.5t-65.5 -24.5q-16 0 -33.5 4 t-33 14.5t-25.5 28.5t-10 49z" />
<glyph unicode="&#xd7;" d="M168 176l293 289l-291 287l82 84l293 -295l293 295l77 -76l-294 -291l297 -293l-84 -86l-297 299l-297 -299z" />
<glyph unicode="&#xd8;" horiz-adv-x="1452" d="M209 590q0 158 58.5 304t157.5 260t229 181.5t272 67.5q188 0 321 -109l80 99q8 12 21 6l47 -35q14 -8 -9 -33l-77 -96q74 -80 114.5 -193.5t40.5 -253.5q0 -143 -48 -288.5t-141 -263t-228.5 -192.5t-309.5 -75q-14 0 -51 1t-86 13.5t-105.5 39t-107.5 79.5l-96 -118 q-12 -16 -23 -7l-43 39q-8 8 -2 19l109 133q-66 84 -94.5 188.5t-28.5 233.5zM365 457q0 -61 10 -111.5t26 -91.5l791 973q-82 86 -227 86q-94 0 -165 -41t-136 -107q-68 -68 -123.5 -157.5t-94 -186t-60 -190.5t-21.5 -174zM446 176q47 -66 113 -96.5t131 -30.5 q84 0 162 36t146.5 97.5t125 146.5t96.5 181t62.5 201.5t22.5 210.5q0 68 -14.5 128t-45.5 107z" />
<glyph unicode="&#xd9;" horiz-adv-x="1497" d="M260 344q0 33 5 71t12.5 73.5t14.5 65.5t11 46l174 576q23 70 7.5 98.5t-64.5 28.5h-74q-16 0 -14 16l10 43q2 10 6 13t21 3q18 0 75.5 -3t167.5 -3q125 0 182.5 3t73.5 3q20 0 19 -20l-8 -39q-4 -16 -21 -16h-65q-18 0 -37 -3.5t-35 -14.5t-31.5 -34.5t-27.5 -64.5 l-168 -547q-4 -16 -14.5 -51t-20.5 -76t-17.5 -84t-7.5 -78q0 -96 41 -153.5t94.5 -87t107.5 -39t81 -9.5q68 0 142.5 29t123.5 74q35 31 65.5 69.5t58.5 89t53.5 115t51.5 150.5l181 590q23 74 -3 99.5t-73 25.5h-78q-23 0 -18 16l6 39q4 10 8 15t18 5q18 0 79 -3t171 -3 q90 0 130 3t57 3q14 0 17 -5t1 -15l-6 -39q-2 -8 -6 -12t-17 -4h-43q-49 0 -75.5 -27t-42.5 -68l-201 -637q-43 -141 -100.5 -253.5t-133 -189.5t-171 -118t-216.5 -41q-102 0 -190 22.5t-151.5 70t-99.5 117t-36 165.5zM766 1695.5q-8 24.5 0 47t26.5 39t41.5 16.5 q18 0 39.5 -14.5t37.5 -30.5l240 -227q10 -6 4 -17l-14 -20q-4 -4 -15 0l-319 166q-33 16 -41 40.5z" />
<glyph unicode="&#xda;" horiz-adv-x="1497" d="M260 344q0 33 5 71t12.5 73.5t14.5 65.5t11 46l174 576q23 70 7.5 98.5t-64.5 28.5h-74q-16 0 -14 16l10 43q2 10 6 13t21 3q18 0 75.5 -3t167.5 -3q125 0 182.5 3t73.5 3q20 0 19 -20l-8 -39q-4 -16 -21 -16h-65q-18 0 -37 -3.5t-35 -14.5t-31.5 -34.5t-27.5 -64.5 l-168 -547q-4 -16 -14.5 -51t-20.5 -76t-17.5 -84t-7.5 -78q0 -96 41 -153.5t94.5 -87t107.5 -39t81 -9.5q68 0 142.5 29t123.5 74q35 31 65.5 69.5t58.5 89t53.5 115t51.5 150.5l181 590q23 74 -3 99.5t-73 25.5h-78q-23 0 -18 16l6 39q4 10 8 15t18 5q18 0 79 -3t171 -3 q90 0 130 3t57 3q14 0 17 -5t1 -15l-6 -39q-2 -8 -6 -12t-17 -4h-43q-49 0 -75.5 -27t-42.5 -68l-201 -637q-43 -141 -100.5 -253.5t-133 -189.5t-171 -118t-216.5 -41q-102 0 -190 22.5t-151.5 70t-99.5 117t-36 165.5zM1067 1513q-4 10 6 21l293 227q33 25 70 25 q25 0 42 -18.5t21 -44t-7 -50t-40 -37.5l-356 -145q-12 -6 -17 2z" />
<glyph unicode="&#xdb;" horiz-adv-x="1497" d="M260 344q0 33 5 71t12.5 73.5t14.5 65.5t11 46l174 576q23 70 7.5 98.5t-64.5 28.5h-74q-16 0 -14 16l10 43q2 10 6 13t21 3q18 0 75.5 -3t167.5 -3q125 0 182.5 3t73.5 3q20 0 19 -20l-8 -39q-4 -16 -21 -16h-65q-18 0 -37 -3.5t-35 -14.5t-31.5 -34.5t-27.5 -64.5 l-168 -547q-4 -16 -14.5 -51t-20.5 -76t-17.5 -84t-7.5 -78q0 -96 41 -153.5t94.5 -87t107.5 -39t81 -9.5q68 0 142.5 29t123.5 74q35 31 65.5 69.5t58.5 89t53.5 115t51.5 150.5l181 590q23 74 -3 99.5t-73 25.5h-78q-23 0 -18 16l6 39q4 10 8 15t18 5q18 0 79 -3t171 -3 q90 0 130 3t57 3q14 0 17 -5t1 -15l-6 -39q-2 -8 -6 -12t-17 -4h-43q-49 0 -75.5 -27t-42.5 -68l-201 -637q-43 -141 -100.5 -253.5t-133 -189.5t-171 -118t-216.5 -41q-102 0 -190 22.5t-151.5 70t-99.5 117t-36 165.5zM911 1522q-4 4 4 12l285 246q16 12 27 -4l145 -246 q6 -10 -4 -17l-20 -18q-8 -6 -23 4l-141 123l-244 -127q-10 -4 -14 4z" />
<glyph unicode="&#xdc;" horiz-adv-x="1497" d="M260 344q0 33 5 71t12.5 73.5t14.5 65.5t11 46l174 576q23 70 7.5 98.5t-64.5 28.5h-74q-16 0 -14 16l10 43q2 10 6 13t21 3q18 0 75.5 -3t167.5 -3q125 0 182.5 3t73.5 3q20 0 19 -20l-8 -39q-4 -16 -21 -16h-65q-18 0 -37 -3.5t-35 -14.5t-31.5 -34.5t-27.5 -64.5 l-168 -547q-4 -16 -14.5 -51t-20.5 -76t-17.5 -84t-7.5 -78q0 -96 41 -153.5t94.5 -87t107.5 -39t81 -9.5q68 0 142.5 29t123.5 74q35 31 65.5 69.5t58.5 89t53.5 115t51.5 150.5l181 590q23 74 -3 99.5t-73 25.5h-78q-23 0 -18 16l6 39q4 10 8 15t18 5q18 0 79 -3t171 -3 q90 0 130 3t57 3q14 0 17 -5t1 -15l-6 -39q-2 -8 -6 -12t-17 -4h-43q-49 0 -75.5 -27t-42.5 -68l-201 -637q-43 -141 -100.5 -253.5t-133 -189.5t-171 -118t-216.5 -41q-102 0 -190 22.5t-151.5 70t-99.5 117t-36 165.5zM883 1628q0 10 4 25.5t15 29t31.5 22.5t51.5 9 q37 0 64.5 -23.5t27.5 -68.5q0 -41 -26.5 -65.5t-65.5 -24.5q-16 0 -33.5 4t-33 14.5t-25.5 28.5t-10 49zM1247 1628q0 10 4 25.5t15.5 29t32 22.5t51.5 9q37 0 64.5 -23.5t27.5 -68.5q0 -41 -26.5 -65.5t-65.5 -24.5q-16 0 -34 4t-33 14.5t-25.5 28.5t-10.5 49z" />
<glyph unicode="&#xdd;" horiz-adv-x="1105" d="M94 1319l8 43q2 16 21 16q20 0 66.5 -3t148.5 -3q117 0 174 3t78 3q20 0 18 -16l-4 -43q-2 -16 -18 -16h-54q-29 0 -45 -9.5t-22 -23t-5 -30.5t7 -36l190 -569q10 -35 31 -8q10 14 42 58t72 101.5t84 122t82 121.5t64.5 101.5t32.5 60.5q20 59 3 85t-79 26h-41 q-18 0 -14 20l4 39q2 16 25 16t80 -3t145 -3q86 0 133 3t68 3q25 0 20 -16l-6 -39q-2 -20 -17 -20h-38q-53 0 -86 -25t-74 -76q-8 -10 -41 -55t-78 -108.5t-97 -136.5t-97.5 -137.5t-78 -110.5t-40.5 -56q-16 -25 -29.5 -43t-23 -37.5t-17.5 -43t-16 -58.5l-52 -232 q-16 -78 6.5 -96t73.5 -18h62q18 0 14 -17l-6 -43q-2 -8 -6 -12t-17 -4q-23 0 -78 3t-169 3q-127 0 -183.5 -3t-72.5 -3q-18 0 -17 16l8 43q0 16 19 17h59q72 0 97.5 30.5t35.5 77.5l68 303q4 23 -1 60t-9 51l-221 633q-12 35 -42 56.5t-83 21.5h-47q-17 0 -15 16zM791 1513 q-4 10 6 21l293 227q33 25 69 25q25 0 42.5 -18.5t21.5 -44t-7.5 -50t-39.5 -37.5l-357 -145q-12 -6 -16 2z" />
<glyph unicode="&#xde;" horiz-adv-x="1257" d="M41 14l4 35q2 20 23 21h43q41 0 68.5 13t45 35.5t28.5 52.5t19 62l244 926q6 25 10 50.5t-1 46t-22.5 34t-51.5 13.5h-95q-16 0 -12 20l12 41q4 14 23 14q23 0 81 -3t179 -3q104 0 161.5 3t80.5 3q20 0 25 -4t3 -16l-6 -35q-2 -20 -22 -20h-62q-49 0 -80.5 -34t-48.5 -93 l-18 -62q12 -2 26 -2h41q145 0 238.5 -17.5t167.5 -78.5q33 -29 56.5 -56.5t38.5 -59.5t21.5 -72t6.5 -91q0 -78 -34 -155.5t-105.5 -139t-183 -100.5t-267.5 -39q-70 0 -122 3t-93 11l-25 -98q-14 -59 -3 -104t73 -45h78q20 0 16 -21l-6 -39q-4 -10 -7 -13t-18 -3 q-18 0 -83.5 3t-188.5 3q-104 0 -161.5 -3t-76.5 -3q-22 0 -20 20zM479 387q29 -10 84 -14t96 -4q115 0 197 35.5t133 92t74.5 124t23.5 133.5q0 92 -34.5 148t-87 89t-113.5 44.5t-113 11.5h-43q-27 0 -41 -5z" />
<glyph unicode="&#xdf;" horiz-adv-x="937" d="M-461 -487q0 35 23.5 61.5t62.5 26.5q35 0 58.5 -28t27.5 -52q10 -47 47 -47q68 0 133.5 95t116.5 247q86 262 149.5 506.5t143.5 474.5q47 137 103.5 259t142.5 210q20 23 51 47t70 43.5t84 33t94 13.5q88 0 146.5 -46t58.5 -120q0 -102 -52.5 -181t-134.5 -157 q-16 -16 -39.5 -37.5t-46 -49.5t-38 -61.5t-15.5 -74.5q0 -35 10 -68t22.5 -60.5t25 -48t16.5 -30.5t17 -31.5t26.5 -53.5t24 -70t10.5 -78q0 -59 -23 -107.5t-59.5 -81.5t-86 -50t-102.5 -17q-90 0 -141 31.5t-51 82.5q0 23 18.5 45.5t50.5 22.5q35 0 54.5 -19.5 t29.5 -46.5t22.5 -42t51.5 -15q45 0 80 36t35 89q0 33 -10.5 64.5t-23.5 62.5t-28.5 58.5t-25.5 51.5q-10 27 -36 78t-26 125q0 53 21.5 99.5t50.5 84t60.5 67.5l52.5 50q63 63 88.5 130t25.5 153q0 59 -35.5 100t-95.5 41q-72 0 -121 -46t-86 -124t-67.5 -181.5 t-65.5 -217.5q-25 -78 -53.5 -178.5t-62 -211t-69.5 -223t-73 -210.5q-45 -123 -98 -223.5t-114.5 -172t-134.5 -110.5t-159 -39q-25 0 -48 9t-41.5 26.5t-30 39t-11.5 46.5z" />
<glyph unicode="&#xe0;" horiz-adv-x="931" d="M70 111q0 74 25.5 158.5t70.5 166.5t103.5 158t123 133t133 91t129.5 34q66 0 97.5 -22.5t48.5 -47.5l39 56q10 14 20 14h72q6 0 8 -6t-2 -12q-14 -31 -39 -93.5t-49.5 -126t-43 -116t-22.5 -64.5t-20 -59t-33.5 -100.5t-31 -97.5t-13.5 -50q0 -25 23 -25q8 0 30.5 17.5 t45 39t42 42t25.5 26.5q12 12 16 4l19 -20q8 -8 4 -16q-8 -16 -43 -51t-81 -72t-98.5 -64.5t-95.5 -27.5q-18 0 -30.5 7t-12.5 27q0 12 4.5 32t15.5 54.5t30.5 89t48.5 136.5l-11 4q-33 -49 -85 -109.5t-112.5 -115t-122.5 -90t-118 -35.5q-18 0 -37.5 7t-36 23.5t-26.5 41 t-10 59.5zM219 160q0 -72 55 -72q25 0 63 24.5t79 63.5t83 87t77.5 93t62.5 83t35 57q23 45 36 85t13 85q0 20 -4 41.5t-15.5 39t-30 28.5t-46.5 11q-72 0 -143.5 -70.5t-131 -170t-96.5 -205.5t-37 -180zM443.5 1180.5q-5.5 21.5 1 40t22.5 32t37 13.5q27 0 41 -13.5 t30 -35.5l173 -228q8 -8 0 -16l-15 -17q-8 -10 -18 0l-246 187q-20 16 -25.5 37.5z" />
<glyph unicode="&#xe1;" horiz-adv-x="931" d="M70 111q0 74 25.5 158.5t70.5 166.5t103.5 158t123 133t133 91t129.5 34q66 0 97.5 -22.5t48.5 -47.5l39 56q10 14 20 14h72q6 0 8 -6t-2 -12q-14 -31 -39 -93.5t-49.5 -126t-43 -116t-22.5 -64.5t-20 -59t-33.5 -100.5t-31 -97.5t-13.5 -50q0 -25 23 -25q8 0 30.5 17.5 t45 39t42 42t25.5 26.5q12 12 16 4l19 -20q8 -8 4 -16q-8 -16 -43 -51t-81 -72t-98.5 -64.5t-95.5 -27.5q-18 0 -30.5 7t-12.5 27q0 12 4.5 32t15.5 54.5t30.5 89t48.5 136.5l-11 4q-33 -49 -85 -109.5t-112.5 -115t-122.5 -90t-118 -35.5q-18 0 -37.5 7t-36 23.5t-26.5 41 t-10 59.5zM219 160q0 -72 55 -72q25 0 63 24.5t79 63.5t83 87t77.5 93t62.5 83t35 57q23 45 36 85t13 85q0 20 -4 41.5t-15.5 39t-30 28.5t-46.5 11q-72 0 -143.5 -70.5t-131 -170t-96.5 -205.5t-37 -180zM639 977q-4 4 8 16l258 211q33 31 72 31q20 0 35.5 -15.5t18.5 -37 t-8 -45t-44 -37.5l-309 -146q-12 -6 -17 2z" />
<glyph unicode="&#xe2;" horiz-adv-x="931" d="M70 111q0 74 25.5 158.5t70.5 166.5t103.5 158t123 133t133 91t129.5 34q66 0 97.5 -22.5t48.5 -47.5l39 56q10 14 20 14h72q6 0 8 -6t-2 -12q-14 -31 -39 -93.5t-49.5 -126t-43 -116t-22.5 -64.5t-20 -59t-33.5 -100.5t-31 -97.5t-13.5 -50q0 -25 23 -25q8 0 30.5 17.5 t45 39t42 42t25.5 26.5q12 12 16 4l19 -20q8 -8 4 -16q-8 -16 -43 -51t-81 -72t-98.5 -64.5t-95.5 -27.5q-18 0 -30.5 7t-12.5 27q0 12 4.5 32t15.5 54.5t30.5 89t48.5 136.5l-11 4q-33 -49 -85 -109.5t-112.5 -115t-122.5 -90t-118 -35.5q-18 0 -37.5 7t-36 23.5t-26.5 41 t-10 59.5zM219 160q0 -72 55 -72q25 0 63 24.5t79 63.5t83 87t77.5 93t62.5 83t35 57q23 45 36 85t13 85q0 20 -4 41.5t-15.5 39t-30 28.5t-46.5 11q-72 0 -143.5 -70.5t-131 -170t-96.5 -205.5t-37 -180zM489 989q-4 4 7 15l256 262q14 10 20 -9l92 -266q6 -10 -2 -16 l-16 -8q-10 -6 -17 0l-108 135l-205 -133q-10 -4 -14 2z" />
<glyph unicode="&#xe3;" horiz-adv-x="931" d="M70 111q0 74 25.5 158.5t70.5 166.5t103.5 158t123 133t133 91t129.5 34q66 0 97.5 -22.5t48.5 -47.5l39 56q10 14 20 14h72q6 0 8 -6t-2 -12q-14 -31 -39 -93.5t-49.5 -126t-43 -116t-22.5 -64.5t-20 -59t-33.5 -100.5t-31 -97.5t-13.5 -50q0 -25 23 -25q8 0 30.5 17.5 t45 39t42 42t25.5 26.5q12 12 16 4l19 -20q8 -8 4 -16q-8 -16 -43 -51t-81 -72t-98.5 -64.5t-95.5 -27.5q-18 0 -30.5 7t-12.5 27q0 12 4.5 32t15.5 54.5t30.5 89t48.5 136.5l-11 4q-33 -49 -85 -109.5t-112.5 -115t-122.5 -90t-118 -35.5q-18 0 -37.5 7t-36 23.5t-26.5 41 t-10 59.5zM219 160q0 -72 55 -72q25 0 63 24.5t79 63.5t83 87t77.5 93t62.5 83t35 57q23 45 36 85t13 85q0 20 -4 41.5t-15.5 39t-30 28.5t-46.5 11q-72 0 -143.5 -70.5t-131 -170t-96.5 -205.5t-37 -180zM444 993q-6 6 2 21q23 57 70 102t100 45q27 0 50.5 -5t52.5 -15 q16 -4 37.5 -8.5t56.5 -4.5q33 0 56.5 21.5t35.5 44.5q6 14 17 8l30 -16q6 -4 4 -11.5t-12 -23.5q-27 -47 -71 -85t-85 -38q-33 0 -60.5 6t-55.5 15q-23 6 -40.5 9t-39.5 3q-27 0 -58.5 -24.5t-48.5 -53.5q-8 -10 -14 -6z" />
<glyph unicode="&#xe4;" horiz-adv-x="931" d="M70 111q0 74 25.5 158.5t70.5 166.5t103.5 158t123 133t133 91t129.5 34q66 0 97.5 -22.5t48.5 -47.5l39 56q10 14 20 14h72q6 0 8 -6t-2 -12q-14 -31 -39 -93.5t-49.5 -126t-43 -116t-22.5 -64.5t-20 -59t-33.5 -100.5t-31 -97.5t-13.5 -50q0 -25 23 -25q8 0 30.5 17.5 t45 39t42 42t25.5 26.5q12 12 16 4l19 -20q8 -8 4 -16q-8 -16 -43 -51t-81 -72t-98.5 -64.5t-95.5 -27.5q-18 0 -30.5 7t-12.5 27q0 12 4.5 32t15.5 54.5t30.5 89t48.5 136.5l-11 4q-33 -49 -85 -109.5t-112.5 -115t-122.5 -90t-118 -35.5q-18 0 -37.5 7t-36 23.5t-26.5 41 t-10 59.5zM219 160q0 -72 55 -72q25 0 63 24.5t79 63.5t83 87t77.5 93t62.5 83t35 57q23 45 36 85t13 85q0 20 -4 41.5t-15.5 39t-30 28.5t-46.5 11q-72 0 -143.5 -70.5t-131 -170t-96.5 -205.5t-37 -180zM492 1214q0 10 4 23.5t14 26t28.5 21.5t47.5 9q35 0 59.5 -22.5 t24.5 -63.5q0 -39 -24.5 -60.5t-59.5 -21.5q-29 0 -61.5 17.5t-32.5 70.5zM770 1214q0 10 4 23.5t14.5 26t29 21.5t46.5 9q35 0 59.5 -22.5t24.5 -63.5q0 -39 -24.5 -60.5t-59.5 -21.5q-29 0 -61.5 17.5t-32.5 70.5z" />
<glyph unicode="&#xe5;" horiz-adv-x="931" d="M70 111q0 74 25.5 158.5t70.5 166.5t103.5 158t123 133t133 91t129.5 34q66 0 97.5 -22.5t48.5 -47.5l39 56q10 14 20 14h72q6 0 8 -6t-2 -12q-14 -31 -39 -93.5t-49.5 -126t-43 -116t-22.5 -64.5t-20 -59t-33.5 -100.5t-31 -97.5t-13.5 -50q0 -25 23 -25q8 0 30.5 17.5 t45 39t42 42t25.5 26.5q12 12 16 4l19 -20q8 -8 4 -16q-8 -16 -43 -51t-81 -72t-98.5 -64.5t-95.5 -27.5q-18 0 -30.5 7t-12.5 27q0 12 4.5 32t15.5 54.5t30.5 89t48.5 136.5l-11 4q-33 -49 -85 -109.5t-112.5 -115t-122.5 -90t-118 -35.5q-18 0 -37.5 7t-36 23.5t-26.5 41 t-10 59.5zM219 160q0 -72 55 -72q25 0 63 24.5t79 63.5t83 87t77.5 93t62.5 83t35 57q23 45 36 85t13 85q0 20 -4 41.5t-15.5 39t-30 28.5t-46.5 11q-72 0 -143.5 -70.5t-131 -170t-96.5 -205.5t-37 -180zM508 1124q0 39 17.5 70t47 51.5t66.5 30.5t78 10q80 0 134 -38 t54 -115q0 -68 -57 -109t-146 -41q-84 0 -139 37.5t-55 103.5zM606 1130q0 -49 33 -74.5t72 -25.5q35 0 65.5 25.5t30.5 79.5q0 29 -10.5 48t-25.5 31.5t-32.5 17.5t-31.5 5q-35 0 -68 -26t-33 -81z" />
<glyph unicode="&#xe6;" horiz-adv-x="1105" d="M33 82q0 70 39 153.5t106.5 170t158.5 166t195.5 142t216 100.5t220.5 38q92 0 129 -38t37 -89q0 -74 -52.5 -138.5t-130.5 -123.5q-92 -70 -175 -121t-156 -98q-2 -76 26.5 -122t79.5 -46q37 0 72 13t65.5 33.5t54 46.5t39.5 52q6 10 19 2l22 -18q8 -6 7.5 -9t-5.5 -10 q-18 -27 -50.5 -62.5t-74.5 -67t-94.5 -54t-111.5 -22.5q-104 0 -145.5 49t-45.5 125q-35 -29 -76 -58.5t-87 -56.5t-94 -43t-95 -16q-45 0 -69.5 32.5t-24.5 69.5zM182 152q0 -35 15.5 -51.5t38.5 -16.5q25 0 53 12.5t61 30.5t64.5 42t62.5 46q20 102 51 180t65 135.5 t66.5 96.5t57.5 65q23 23 17.5 32t-25.5 9q-31 0 -81 -27.5t-107.5 -74.5t-118 -107.5t-108.5 -125t-80 -129t-32 -117.5zM627 307q33 20 95 60.5t123.5 91.5t107.5 109.5t46 115.5q0 33 -17 55.5t-50 22.5q-45 0 -93 -36t-91 -97.5t-75 -144.5t-46 -177z" />
<glyph unicode="&#xe7;" horiz-adv-x="618" d="M-23 -393q0 33 37 33q57 0 104.5 29.5t47.5 66.5q0 25 -20.5 48t-57.5 38l117 164q-45 10 -81 53t-36 129q0 104 39 224t104.5 222.5t148.5 170t173 67.5q37 0 59.5 -12.5t34.5 -30.5t17.5 -37.5t5.5 -34.5q0 -37 -28 -61.5t-56 -24.5q-41 0 -54 45q-4 16 -21 35t-42 19 q-80 0 -150 -142q-20 -45 -36.5 -97t-27.5 -102.5t-17.5 -92.5t-6.5 -66q0 -55 7.5 -89t19.5 -52.5t26.5 -23.5t28.5 -5q31 0 59.5 13t52.5 31.5t42 37t27 28.5q10 14 18 9l23 -21q12 -8 2 -22t-35 -40t-59.5 -52.5t-76.5 -49t-85 -30.5l-86 -121q39 -18 61.5 -47t22.5 -72 q0 -41 -33 -72.5t-76 -54.5t-87 -35t-67 -12t-31 10.5t-8 26.5z" />
<glyph unicode="&#xe8;" horiz-adv-x="714" d="M90 180q0 63 19.5 135t55.5 141.5t84 136t103 122.5q25 25 56.5 49t68.5 43.5t75 32t75 12.5q59 0 87.5 -36t28.5 -73q0 -76 -52 -148.5t-138 -117.5q-84 -41 -162 -60.5t-135 -23.5q-8 -18 -17.5 -67.5t-9.5 -120.5q0 -35 11.5 -59.5t28 -40t35 -22.5t32.5 -7 q37 0 72.5 13t65.5 33.5t54.5 46.5t40.5 52q8 12 19 2l22 -18q14 -8 2 -19q-18 -27 -51 -62.5t-75 -67t-94 -54t-111 -22.5q-100 0 -145.5 49t-45.5 151zM272 453q27 -2 83.5 12t113.5 44t100 74t43 101q0 31 -15 54.5t-50 23.5q-49 0 -96.5 -38t-84 -89t-62.5 -103t-32 -79 zM376 1180.5q-5 21.5 1 40t22.5 32t36.5 13.5q27 0 41.5 -13.5t30.5 -35.5l172 -228q8 -8 0 -16l-14 -17q-8 -10 -19 0l-246 187q-20 16 -25 37.5z" />
<glyph unicode="&#xe9;" horiz-adv-x="714" d="M90 180q0 63 19.5 135t55.5 141.5t84 136t103 122.5q25 25 56.5 49t68.5 43.5t75 32t75 12.5q59 0 87.5 -36t28.5 -73q0 -76 -52 -148.5t-138 -117.5q-84 -41 -162 -60.5t-135 -23.5q-8 -18 -17.5 -67.5t-9.5 -120.5q0 -35 11.5 -59.5t28 -40t35 -22.5t32.5 -7 q37 0 72.5 13t65.5 33.5t54.5 46.5t40.5 52q8 12 19 2l22 -18q14 -8 2 -19q-18 -27 -51 -62.5t-75 -67t-94 -54t-111 -22.5q-100 0 -145.5 49t-45.5 151zM272 453q27 -2 83.5 12t113.5 44t100 74t43 101q0 31 -15 54.5t-50 23.5q-49 0 -96.5 -38t-84 -89t-62.5 -103t-32 -79 zM530 977q-4 4 9 16l258 211q33 31 71 31q20 0 36 -15.5t19 -37t-8.5 -45t-44.5 -37.5l-309 -146q-12 -6 -16 2z" />
<glyph unicode="&#xea;" horiz-adv-x="714" d="M90 180q0 63 19.5 135t55.5 141.5t84 136t103 122.5q25 25 56.5 49t68.5 43.5t75 32t75 12.5q59 0 87.5 -36t28.5 -73q0 -76 -52 -148.5t-138 -117.5q-84 -41 -162 -60.5t-135 -23.5q-8 -18 -17.5 -67.5t-9.5 -120.5q0 -35 11.5 -59.5t28 -40t35 -22.5t32.5 -7 q37 0 72.5 13t65.5 33.5t54.5 46.5t40.5 52q8 12 19 2l22 -18q14 -8 2 -19q-18 -27 -51 -62.5t-75 -67t-94 -54t-111 -22.5q-100 0 -145.5 49t-45.5 151zM272 453q27 -2 83.5 12t113.5 44t100 74t43 101q0 31 -15 54.5t-50 23.5q-49 0 -96.5 -38t-84 -89t-62.5 -103t-32 -79 zM422 989q-4 4 6 15l256 262q14 10 21 -9l92 -266q6 -10 -2 -16l-17 -8q-10 -6 -16 0l-109 135l-204 -133q-10 -4 -15 2z" />
<glyph unicode="&#xeb;" horiz-adv-x="714" d="M90 180q0 63 19.5 135t55.5 141.5t84 136t103 122.5q25 25 56.5 49t68.5 43.5t75 32t75 12.5q59 0 87.5 -36t28.5 -73q0 -76 -52 -148.5t-138 -117.5q-84 -41 -162 -60.5t-135 -23.5q-8 -18 -17.5 -67.5t-9.5 -120.5q0 -35 11.5 -59.5t28 -40t35 -22.5t32.5 -7 q37 0 72.5 13t65.5 33.5t54.5 46.5t40.5 52q8 12 19 2l22 -18q14 -8 2 -19q-18 -27 -51 -62.5t-75 -67t-94 -54t-111 -22.5q-100 0 -145.5 49t-45.5 151zM272 453q27 -2 83.5 12t113.5 44t100 74t43 101q0 31 -15 54.5t-50 23.5q-49 0 -96.5 -38t-84 -89t-62.5 -103t-32 -79 zM424 1214q0 10 4 23.5t14.5 26t28.5 21.5t47 9q35 0 59.5 -22.5t24.5 -63.5q0 -39 -24.5 -60.5t-59.5 -21.5q-29 0 -61.5 17.5t-32.5 70.5zM702 1214q0 10 4.5 23.5t14.5 26t28.5 21.5t47.5 9q35 0 59.5 -22.5t24.5 -63.5q0 -39 -25 -60.5t-59 -21.5q-29 0 -62 17.5 t-33 70.5z" />
<glyph unicode="&#xec;" horiz-adv-x="587" d="M133 600q2 2 19.5 22.5t45 49t63.5 61.5t74 59.5t76 44t70 15.5q18 0 33.5 -12.5t15.5 -38.5q0 -29 -20.5 -91.5t-48.5 -136.5l-119 -311q-20 -57 -28.5 -91t-8.5 -44q0 -29 23 -35q16 2 41.5 22.5t52.5 45t46 47t24 29.5q8 10 22 -5l16 -14q6 -8 7.5 -12t-2.5 -12 q-4 -6 -35 -40t-79 -73t-108.5 -69.5t-124.5 -30.5q-35 4 -34 51q0 18 7 45.5t21.5 70.5t38 105.5t53.5 148.5l60 160q16 41 26.5 72t10.5 49q0 27 -29 27q-12 0 -34.5 -17.5t-47 -42t-47.5 -48t-35 -36.5q-12 -12 -22 -2l-17 19q-12 10 -6 18zM230.5 1180.5q-5.5 21.5 1 40 t22.5 32t37 13.5q27 0 41 -13.5t30 -35.5l173 -228q8 -8 0 -16l-15 -17q-8 -10 -18 0l-246 187q-20 16 -25.5 37.5z" />
<glyph unicode="&#xed;" horiz-adv-x="587" d="M133 600q2 2 19.5 22.5t45 49t63.5 61.5t74 59.5t76 44t70 15.5q18 0 33.5 -12.5t15.5 -38.5q0 -29 -20.5 -91.5t-48.5 -136.5l-119 -311q-20 -57 -28.5 -91t-8.5 -44q0 -29 23 -35q16 2 41.5 22.5t52.5 45t46 47t24 29.5q8 10 22 -5l16 -14q6 -8 7.5 -12t-2.5 -12 q-4 -6 -35 -40t-79 -73t-108.5 -69.5t-124.5 -30.5q-35 4 -34 51q0 18 7 45.5t21.5 70.5t38 105.5t53.5 148.5l60 160q16 41 26.5 72t10.5 49q0 27 -29 27q-12 0 -34.5 -17.5t-47 -42t-47.5 -48t-35 -36.5q-12 -12 -22 -2l-17 19q-12 10 -6 18zM426 977q-4 4 8 16l258 211 q33 31 72 31q20 0 35.5 -15.5t18.5 -37t-8 -45t-44 -37.5l-309 -146q-12 -6 -17 2z" />
<glyph unicode="&#xee;" horiz-adv-x="587" d="M133 600q2 2 19.5 22.5t45 49t63.5 61.5t74 59.5t76 44t70 15.5q18 0 33.5 -12.5t15.5 -38.5q0 -29 -20.5 -91.5t-48.5 -136.5l-119 -311q-20 -57 -28.5 -91t-8.5 -44q0 -29 23 -35q16 2 41.5 22.5t52.5 45t46 47t24 29.5q8 10 22 -5l16 -14q6 -8 7.5 -12t-2.5 -12 q-4 -6 -35 -40t-79 -73t-108.5 -69.5t-124.5 -30.5q-35 4 -34 51q0 18 7 45.5t21.5 70.5t38 105.5t53.5 148.5l60 160q16 41 26.5 72t10.5 49q0 27 -29 27q-12 0 -34.5 -17.5t-47 -42t-47.5 -48t-35 -36.5q-12 -12 -22 -2l-17 19q-12 10 -6 18zM297 989q-4 4 6 15l256 262 q14 10 21 -9l92 -266q6 -10 -2 -16l-17 -8q-10 -6 -16 0l-109 135l-204 -133q-10 -4 -15 2z" />
<glyph unicode="&#xef;" horiz-adv-x="587" d="M133 600q2 2 19.5 22.5t45 49t63.5 61.5t74 59.5t76 44t70 15.5q18 0 33.5 -12.5t15.5 -38.5q0 -29 -20.5 -91.5t-48.5 -136.5l-119 -311q-23 -57 -30 -91t-7 -44q0 -29 23 -35q16 2 41.5 22.5t52.5 45t46 47t24 29.5q8 10 22 -5l16 -14q6 -8 7.5 -12t-2.5 -12 q-4 -6 -35 -40t-79 -73t-108.5 -69.5t-124.5 -30.5q-35 4 -34 51q0 18 7 45.5t21.5 70.5t37 105.5t54.5 148.5l60 160q16 41 26.5 72t10.5 49q0 27 -29 27q-12 0 -34.5 -17.5t-47 -42t-47.5 -48t-35 -36.5q-12 -12 -22 -2l-17 19q-12 10 -6 18zM299 1214q0 10 4 23.5 t14.5 26t29 21.5t46.5 9q35 0 59.5 -22.5t24.5 -63.5q0 -39 -24.5 -60.5t-59.5 -21.5q-29 0 -61.5 17.5t-32.5 70.5zM578 1214q0 10 4 23.5t14 26t28.5 21.5t47.5 9q35 0 59.5 -22.5t24.5 -63.5q0 -39 -24.5 -60.5t-59.5 -21.5q-29 0 -61.5 17.5t-32.5 70.5z" />
<glyph unicode="&#xf0;" horiz-adv-x="847" d="M115 254q0 88 28.5 192.5t85 194.5t139.5 150.5t193 60.5q74 0 117 -37q-4 47 -16.5 127t-47.5 172l-219 -74q-14 -6 -18 9l-12 45q-2 10 10 14l219 72q-23 45 -53.5 93t-57.5 75q-8 6 -8 11t4 9l35 31q8 4 18 -2q12 -8 33 -27.5t43.5 -46.5t45 -55.5t34.5 -55.5l152 52 q14 6 18 -7l14 -38q8 -14 -8 -19l-145 -49q57 -115 77.5 -232.5t20.5 -222.5q0 -68 -14.5 -147.5t-41 -159.5t-66.5 -153.5t-93 -131t-117.5 -91t-140.5 -33.5q-25 0 -63.5 7t-75.5 34.5t-63.5 82t-26.5 150.5zM229 166q0 -14 5.5 -34.5t17.5 -40t30.5 -34t47.5 -16.5 q45 0 89 35t83 89t71.5 122.5t56 137.5t37 132.5t13.5 108.5q0 63 -31 92.5t-76 29.5q-27 0 -60.5 -18t-71.5 -58t-76.5 -104.5t-73.5 -156.5q-33 -86 -47.5 -156t-14.5 -129z" />
<glyph unicode="&#xf1;" horiz-adv-x="1062" d="M125 18l145 379q18 47 37 96.5t34 92.5t25.5 75.5t10.5 45.5q0 35 -31 34q-14 0 -37.5 -16t-49.5 -37.5t-49.5 -45.5t-35.5 -38q-10 -10 -20 2l-19 19q-10 10 -4 20q12 14 44 48t77 69t99.5 62.5t109.5 27.5q35 0 50 -20.5t15 -40.5q0 -25 -14 -69t-31.5 -90t-35 -87 t-23.5 -60l8 -4q23 37 73 99.5t114.5 123t138 104.5t141.5 44q47 0 74.5 -21.5t27.5 -62.5q0 -68 -31.5 -153t-82.5 -209q-41 -102 -73 -180.5t-32 -102.5q0 -10 6.5 -18.5t18.5 -8.5t32.5 12.5t43 29t42 34.5t29.5 29q12 10 23 -4l14 -17q10 -10 2 -22q-10 -12 -43 -42 t-79 -59.5t-100 -53t-105 -23.5q-20 0 -35 9t-15 31q0 14 12.5 50t33 87.5t44 113t48.5 126.5q10 31 27.5 74t33.5 87t28.5 81t12.5 53q0 47 -51 47q-31 0 -80 -31.5t-102.5 -80.5t-105.5 -107.5t-85 -113.5q-14 -23 -27.5 -45.5t-28 -51t-30.5 -67.5t-37 -92l-51 -138 q-4 -6 -8 -9t-21 -3h-80q-28 0 -22 18zM530 993q-6 6 2 21q23 57 70 102t100 45q27 0 50.5 -5t52.5 -15q16 -4 37.5 -8.5t56.5 -4.5q33 0 56.5 21.5t35.5 44.5q6 14 17 8l30 -16q6 -4 4 -11.5t-12 -23.5q-27 -47 -71 -85t-85 -38q-33 0 -60.5 6t-55.5 15q-23 6 -40.5 9 t-39.5 3q-27 0 -58.5 -24.5t-48.5 -53.5q-8 -10 -14 -6z" />
<glyph unicode="&#xf2;" horiz-adv-x="813" d="M106 244q0 96 35 203.5t96.5 197.5t147.5 148.5t188 58.5q104 0 162 -67.5t58 -172.5q0 -57 -14.5 -125.5t-43 -138t-69.5 -136.5t-93.5 -118t-117 -82.5t-138.5 -31.5q-43 0 -80.5 19t-66.5 54t-46.5 83.5t-17.5 107.5zM193 182q0 -49 28.5 -76.5t65.5 -27.5 q53 0 105 32.5t99.5 84t87 115t69.5 127t46.5 117.5t16.5 89q2 47 -25 81t-78 34q-66 0 -142.5 -59.5t-154.5 -184.5q-53 -84 -85.5 -172t-32.5 -160zM363.5 1180.5q-5.5 21.5 1 40t22.5 32t37 13.5q27 0 41 -13.5t31 -35.5l172 -228q8 -8 0 -16l-15 -17q-8 -10 -18 0 l-246 187q-20 16 -25.5 37.5z" />
<glyph unicode="&#xf3;" horiz-adv-x="813" d="M106 244q0 96 35 203.5t96.5 197.5t147.5 148.5t188 58.5q104 0 162 -67.5t58 -172.5q0 -57 -14.5 -125.5t-43 -138t-69.5 -136.5t-93.5 -118t-117 -82.5t-138.5 -31.5q-43 0 -80.5 19t-66.5 54t-46.5 83.5t-17.5 107.5zM193 182q0 -49 28.5 -76.5t65.5 -27.5 q53 0 105 32.5t99.5 84t87 115t69.5 127t46.5 117.5t16.5 89q2 47 -25 81t-78 34q-66 0 -142.5 -59.5t-154.5 -184.5q-53 -84 -85.5 -172t-32.5 -160zM539 977q-4 4 8 16l258 211q33 31 72 31q20 0 35.5 -15.5t18.5 -37t-8.5 -45t-43.5 -37.5l-310 -146q-12 -6 -16 2z" />
<glyph unicode="&#xf4;" horiz-adv-x="813" d="M106 244q0 96 35 203.5t96.5 197.5t147.5 148.5t188 58.5q104 0 162 -67.5t58 -172.5q0 -57 -14.5 -125.5t-43 -138t-69.5 -136.5t-93.5 -118t-117 -82.5t-138.5 -31.5q-43 0 -80.5 19t-66.5 54t-46.5 83.5t-17.5 107.5zM193 182q0 -49 28.5 -76.5t65.5 -27.5 q53 0 105 32.5t99.5 84t87 115t69.5 127t46.5 117.5t16.5 89q2 47 -25 81t-78 34q-66 0 -142.5 -59.5t-154.5 -184.5q-53 -84 -85.5 -172t-32.5 -160zM410 989q-4 4 6 15l256 262q14 10 20 -9l92 -266q6 -10 -2 -16l-16 -8q-10 -6 -16 0l-109 135l-205 -133q-10 -4 -14 2z " />
<glyph unicode="&#xf5;" horiz-adv-x="813" d="M106 244q0 96 35 203.5t96.5 197.5t147.5 148.5t188 58.5q104 0 162 -67.5t58 -172.5q0 -57 -14.5 -125.5t-43 -138t-69.5 -136.5t-93.5 -118t-117 -82.5t-138.5 -31.5q-43 0 -80.5 19t-66.5 54t-46.5 83.5t-17.5 107.5zM193 182q0 -49 28.5 -76.5t65.5 -27.5 q53 0 105 32.5t99.5 84t87 115t69.5 127t46.5 117.5t16.5 89q2 47 -25 81t-78 34q-66 0 -142.5 -59.5t-154.5 -184.5q-53 -84 -85.5 -172t-32.5 -160zM344 993q-6 6 2 21q23 57 70 102t100 45q27 0 50.5 -5t51.5 -15q16 -4 38 -8.5t57 -4.5q33 0 56.5 21.5t35.5 44.5 q6 14 16 8l31 -16q6 -4 4 -11.5t-12 -23.5q-27 -47 -71 -85t-85 -38q-33 0 -60.5 6t-56.5 15q-23 6 -40 9t-39 3q-27 0 -59 -24.5t-48 -53.5q-8 -10 -14 -6z" />
<glyph unicode="&#xf6;" horiz-adv-x="813" d="M106 244q0 96 35 203.5t96.5 197.5t147.5 148.5t188 58.5q104 0 162 -67.5t58 -172.5q0 -57 -14.5 -125.5t-43 -138t-69.5 -136.5t-93.5 -118t-117 -82.5t-138.5 -31.5q-43 0 -80.5 19t-66.5 54t-46.5 83.5t-17.5 107.5zM193 182q0 -49 28.5 -76.5t65.5 -27.5 q53 0 105 32.5t99.5 84t87 115t68.5 127t46.5 117.5t17.5 89q0 47 -26 81t-77 34q-66 0 -142.5 -59.5t-154.5 -184.5q-53 -84 -85.5 -172t-32.5 -160zM432 1214q0 10 4 23.5t14.5 26t29 21.5t46.5 9q35 0 59.5 -22.5t24.5 -63.5q0 -39 -24.5 -60.5t-59.5 -21.5 q-29 0 -61.5 17.5t-32.5 70.5zM711 1214q0 10 4 23.5t14 26t28.5 21.5t47.5 9q35 0 59.5 -22.5t24.5 -63.5q0 -39 -24.5 -60.5t-59.5 -21.5q-29 0 -61.5 17.5t-32.5 70.5z" />
<glyph unicode="&#xf7;" d="M147 436v111h795v-111h-795zM432 170q0 45 33 77t82 32q47 0 79.5 -32t32.5 -77t-32.5 -74.5t-79.5 -29.5q-49 0 -82 29.5t-33 74.5zM432 811q0 47 33 77t82 30q47 0 79.5 -30t32.5 -77q0 -45 -32.5 -75.5t-79.5 -30.5q-49 0 -82 30.5t-33 75.5z" />
<glyph unicode="&#xf8;" horiz-adv-x="813" d="M37 2q-4 8 4 16l92 93q-10 29 -18.5 62.5t-8.5 70.5q0 98 35 205.5t97.5 196.5t149.5 147.5t190 58.5q55 0 96 -20.5t65 -53.5l74 86q10 10 18 4l41 -32q10 -6 0 -17l-96 -106q4 -18 10.5 -44t6.5 -57q0 -57 -14.5 -125.5t-42 -138t-68.5 -136.5t-93.5 -118t-116 -82.5 t-136.5 -31.5q-51 0 -87 19t-63 52l-84 -88q-8 -8 -14 0zM193 172l495 551q-10 14 -28.5 24.5t-47.5 10.5q-63 0 -140 -55.5t-163 -190.5q-63 -100 -91.5 -196.5t-24.5 -143.5zM221 106q23 -29 70 -28q51 0 101 30.5t96.5 81t86 113t69.5 126t47.5 121.5t19.5 101l-4 4z" />
<glyph unicode="&#xf9;" horiz-adv-x="991" d="M123 63q2 49 44 144.5t101 238.5q41 96 71 164t30 97t-33 28q-14 0 -38 -14t-48.5 -34.5t-45 -40t-28.5 -28.5q-10 -10 -18 0l-19 19q-10 6 2 18q6 6 37 38t77 68t99.5 63.5t102.5 27.5q31 0 45 -24.5t14 -49.5q0 -39 -35 -128t-98 -226q-20 -45 -39.5 -91t-35 -86 t-25 -72t-9.5 -48q0 -35 35 -35q41 0 97.5 43t114 101.5t104.5 118t69 91.5q29 43 53.5 85t40.5 90l72 196q4 14 29 14h84q25 0 18 -18l-157 -426q-45 -121 -65.5 -188.5t-20.5 -77.5q0 -14 3 -17.5t13 -7.5q12 0 35.5 16.5t49 38t47.5 42t28 30.5q8 12 18 0l21 -20 q8 -8 0 -19q-2 -4 -36 -35.5t-83 -69.5t-107.5 -68.5t-111.5 -30.5q-23 0 -31 14t-8 33q0 8 16 54t39 103.5t44.5 111.5t31.5 81l-12 6q-33 -47 -87.5 -115.5t-122 -133t-144.5 -109.5t-152 -45q-31 0 -52.5 23t-23.5 60zM454 1180.5q-5 21.5 1 40t22.5 32t36.5 13.5 q27 0 41 -13.5t31 -35.5l172 -228q8 -8 0 -16l-15 -17q-8 -10 -18 0l-246 187q-20 16 -25 37.5z" />
<glyph unicode="&#xfa;" horiz-adv-x="991" d="M123 63q2 49 44 144.5t101 238.5q41 96 71 164t30 97t-33 28q-14 0 -38 -14t-48.5 -34.5t-45 -40t-28.5 -28.5q-10 -10 -18 0l-19 19q-10 6 2 18q6 6 37 38t77 68t99.5 63.5t102.5 27.5q31 0 45 -24.5t14 -49.5q0 -39 -35 -128t-98 -226q-20 -45 -39.5 -91t-35 -86 t-25 -72t-9.5 -48q0 -35 35 -35q41 0 97.5 43t114 101.5t104.5 118t69 91.5q29 43 53.5 85t40.5 90l72 196q4 14 29 14h84q25 0 18 -18l-157 -426q-45 -121 -65.5 -188.5t-20.5 -77.5q0 -14 3 -17.5t13 -7.5q12 0 35.5 16.5t49 38t47.5 42t28 30.5q8 12 18 0l21 -20 q8 -8 0 -19q-2 -4 -36 -35.5t-83 -69.5t-107.5 -68.5t-111.5 -30.5q-23 0 -31 14t-8 33q0 8 16 54t39 103.5t44.5 111.5t31.5 81l-12 6q-33 -47 -87.5 -115.5t-122 -133t-144.5 -109.5t-152 -45q-31 0 -52.5 23t-23.5 60zM670 977q-4 4 8 16l258 211q33 31 72 31 q20 0 35.5 -15.5t18.5 -37t-8.5 -45t-43.5 -37.5l-310 -146q-12 -6 -16 2z" />
<glyph unicode="&#xfb;" horiz-adv-x="991" d="M123 63q2 49 44 144.5t101 238.5q41 96 71 164t30 97t-33 28q-14 0 -38 -14t-48.5 -34.5t-45 -40t-28.5 -28.5q-10 -10 -18 0l-19 19q-10 6 2 18q6 6 37 38t77 68t99.5 63.5t102.5 27.5q31 0 45 -24.5t14 -49.5q0 -39 -35 -128t-98 -226q-20 -45 -39.5 -91t-35 -86 t-25 -72t-9.5 -48q0 -35 35 -35q41 0 97.5 43t114 101.5t104.5 118t69 91.5q29 43 53.5 85t40.5 90l72 196q4 14 29 14h84q25 0 18 -18l-157 -426q-45 -121 -65.5 -188.5t-20.5 -77.5q0 -14 3 -17.5t13 -7.5q12 0 35.5 16.5t49 38t47.5 42t28 30.5q8 12 18 0l21 -20 q8 -8 0 -19q-2 -4 -36 -35.5t-83 -69.5t-107.5 -68.5t-111.5 -30.5q-23 0 -31 14t-8 33q0 8 16 54t39 103.5t44.5 111.5t31.5 81l-12 6q-33 -47 -87.5 -115.5t-122 -133t-144.5 -109.5t-152 -45q-31 0 -52.5 23t-23.5 60zM520 989q-4 4 6 15l256 262q14 10 21 -9l92 -266 q6 -10 -2 -16l-16 -8q-10 -6 -17 0l-108 135l-205 -133q-10 -4 -15 2z" />
<glyph unicode="&#xfc;" horiz-adv-x="991" d="M123 63q0 49 43 144.5t102 238.5q41 96 71 164t30 97t-33 28q-14 0 -38 -14t-48.5 -34.5t-45 -40t-28.5 -28.5q-10 -10 -18 0l-19 19q-10 6 2 18q6 6 37 38t77 68t99.5 63.5t102.5 27.5q31 0 45 -24.5t14 -49.5q0 -39 -35 -128t-98 -226q-20 -45 -39.5 -91t-35 -86 t-25 -72t-9.5 -48q0 -35 35 -35q41 0 97.5 43t114 101.5t104.5 118t69 91.5q29 43 53.5 85t40.5 90l72 196q4 14 29 14h84q25 0 18 -18l-157 -426q-45 -121 -65.5 -188.5t-20.5 -77.5q0 -14 3 -17.5t13 -7.5q12 0 35.5 16.5t49 38t47.5 42t28 30.5q8 12 18 0l21 -20 q8 -8 0 -19q-2 -4 -36 -35.5t-83 -69.5t-107.5 -68.5t-111.5 -30.5q-23 0 -31 14t-8 33q0 8 16 54t39 103.5t44.5 111.5t31.5 81l-12 6q-33 -47 -87.5 -115.5t-122 -133t-144.5 -109.5t-152 -45q-31 0 -53.5 23t-22.5 60zM522 1214q0 10 4 23.5t14.5 26t29 21.5t46.5 9 q35 0 59.5 -22.5t24.5 -63.5q0 -39 -24.5 -60.5t-59.5 -21.5q-29 0 -61.5 17.5t-32.5 70.5zM801 1214q0 10 4 23.5t14 26t28.5 21.5t47.5 9q35 0 59.5 -22.5t24.5 -63.5q0 -39 -24.5 -60.5t-59.5 -21.5q-29 0 -61.5 17.5t-32.5 70.5z" />
<glyph unicode="&#xfd;" horiz-adv-x="837" d="M-188 -512q0 39 26.5 60.5t55.5 23.5q27 2 43 -8t32 -25q10 -10 24.5 -17t26.5 -7q16 0 41 10t56 33q86 63 143 142t82 134q12 29 15 60.5t1 54.5q-2 12 -5 61t-8 120t-12 151.5t-14.5 156.5t-13.5 135.5t-12 85.5q-12 57 -35 58q-14 0 -31.5 -19.5t-35 -46t-32 -55.5 t-20.5 -45q-6 -10 -18 -6l-29 12q-8 4 -2 18q4 8 25.5 53.5t55.5 94.5t76 89t89 40t68.5 -48t33.5 -183q8 -88 14.5 -175.5t11.5 -166t8 -147.5t5 -118l8 2q20 35 52 93.5t63 122t57.5 123t36.5 96.5q8 27 19.5 69.5t11.5 108.5q0 16 -3 39.5t-7 36.5q-6 14 -14.5 33.5 t-8.5 39.5q0 25 17.5 49.5t66.5 24.5q41 0 61.5 -32t20.5 -70q0 -49 -13.5 -105.5t-32.5 -114t-44 -111.5t-47 -104q-35 -74 -89 -174t-120 -203.5t-136.5 -198.5t-137.5 -161q-20 -23 -55.5 -54.5t-76 -60t-88 -50t-92.5 -21.5q-59 0 -86.5 30.5t-27.5 65.5zM571 977 q-4 4 9 16l258 211q33 31 71 31q20 0 36 -15.5t19 -37t-8.5 -45t-44.5 -37.5l-309 -146q-12 -6 -16 2z" />
<glyph unicode="&#xfe;" horiz-adv-x="944" d="M-276 -602l10 37q6 20 18 20h47q59 0 92 38t68 128l438 1104q-37 -10 -75.5 -32.5t-73.5 -50.5t-63.5 -54.5t-45.5 -46.5q-4 -6 -9 -6t-9 4l-21 20q-10 10 -2 19q55 66 134 130t200 109l205 510q8 20 29 29l116 45q4 2 15 2q6 0 6 -8q0 -4 -4 -17l-226 -532q10 2 21.5 3 t26.5 1q16 2 29 2h24q59 0 106 -20.5t79 -55.5t49.5 -82t17.5 -100q0 -104 -51.5 -206.5t-147.5 -184.5q-109 -92 -233.5 -143.5t-253.5 -59.5l-160 -406q-31 -80 -17.5 -109.5t78.5 -29.5h58q16 0 12 -16l-14 -41l-9 -8q-4 -4 -16 -4q-16 0 -66.5 3t-148.5 3 q-106 0 -154.5 -3t-64.5 -3q-18 0 -14 12zM266 61q90 8 181.5 47t165 105t119.5 153t46 191q0 55 -14 95t-39 65.5t-56.5 38t-64.5 12.5q-20 0 -35.5 -2t-25.5 -4z" />
<glyph unicode="&#xff;" horiz-adv-x="837" d="M-188 -512q0 39 26.5 60.5t55.5 23.5q27 2 43 -8t32 -25q10 -10 24.5 -17t26.5 -7q16 0 41 10t56 33q86 63 143 142t82 134q12 29 15 60.5t1 54.5q-2 12 -5 61t-8 120t-12 151.5t-14.5 156.5t-13.5 135.5t-12 85.5q-12 57 -35 58q-14 0 -31.5 -19.5t-35 -46t-32 -55.5 t-20.5 -45q-6 -10 -18 -6l-29 12q-8 4 -2 18q4 8 25.5 53.5t55.5 94.5t76 89t89 40t68.5 -48t33.5 -183q8 -88 14.5 -175.5t11.5 -166t8 -147.5t5 -118l8 2q20 35 52 93.5t63 122t57.5 123t36.5 96.5q8 27 19.5 69.5t11.5 108.5q0 16 -3 39.5t-7 36.5q-6 14 -14.5 33.5 t-8.5 39.5q0 25 17.5 49.5t66.5 24.5q41 0 61.5 -32t20.5 -70q0 -49 -13.5 -105.5t-32.5 -114t-44 -111.5t-47 -104q-35 -74 -89 -173t-120 -202.5t-137.5 -199.5t-136.5 -162q-23 -20 -57 -52t-76 -61.5t-88 -51t-91 -21.5q-59 0 -86.5 30.5t-27.5 65.5zM383 1214 q0 10 4 23.5t14.5 26t29 21.5t46.5 9q35 0 59.5 -22.5t24.5 -63.5q0 -39 -24.5 -60.5t-59.5 -21.5q-29 0 -61.5 17.5t-32.5 70.5zM662 1214q0 10 4 23.5t14 26t28.5 21.5t47.5 9q35 0 59.5 -22.5t24.5 -63.5q0 -39 -24.5 -60.5t-59.5 -21.5q-29 0 -61.5 17.5t-32.5 70.5z " />
<glyph unicode="&#x152;" horiz-adv-x="2179" d="M188 524q0 115 28 213.5t71 178t94 142t100 107.5t112.5 88t140.5 76t166 53.5t187 20.5q63 0 115.5 -5t102.5 -9q47 -6 92 -11.5t92 -5.5h178q104 0 183 1t137 3q57 0 93 1t52 1q23 0 30 -7t13 -32l66 -280q2 -10 -13 -19l-22 -8q-8 -4 -11.5 -3t-9.5 9l-192 248 q-10 16 -33 17h-352l-176 -539h196q45 0 80 3t64.5 19.5t53 51t46.5 98.5q4 12 14 10l31 -6q14 -4 12 -16l-110 -408q-2 -14 -15 -12l-32 4q-10 2 -9 16q6 63 -7 98t-41.5 52.5t-74 20.5t-106.5 3h-123l-199 -628h510q57 0 89 16t75 70l164 206q10 14 25 5l20 -13q6 -4 8 -9 t-2 -19l-104 -297q-8 -23 -17.5 -29t-27.5 -6q-12 0 -66.5 1t-136.5 3q-82 0 -182.5 1t-204.5 1h-313q-45 0 -87 -5t-83 -9q-43 -6 -85 -11.5t-87 -5.5q-88 0 -181.5 32t-156.5 91q-86 80 -133.5 186.5t-47.5 245.5zM369 457q0 -109 27.5 -185.5t72.5 -126t100.5 -73 t110.5 -23.5q63 0 130 10.5t125 38t104 73.5t69 120l278 889q10 35 -5 61.5t-51 45t-88 27.5t-114 9q-152 0 -265 -60.5t-212 -150.5q-68 -63 -120 -144t-88.5 -168t-55 -175t-18.5 -168z" />
<glyph unicode="&#x153;" horiz-adv-x="1198" d="M106 254q0 98 36 203.5t97.5 193.5t144.5 144.5t177 56.5q82 0 141.5 -51t63.5 -156h4q31 43 72 81t86 65.5t92 44t90 16.5q59 0 88 -36t29 -73q0 -78 -52.5 -149.5t-138.5 -116.5q-84 -41 -161.5 -60.5t-137.5 -23.5q-8 -18 -17 -67.5t-9 -120.5q0 -35 11 -59.5 t27.5 -40t35 -22.5t34.5 -7q37 0 73 13t65.5 33.5t54 46.5t41.5 52q8 12 18 2l23 -18q14 -8 2 -19q-18 -27 -51 -62.5t-75 -67t-94.5 -54t-111.5 -22.5q-66 0 -114 38.5t-68 114.5q-25 -37 -59 -65.5t-69.5 -48t-70.5 -29.5t-59 -10q-12 0 -48 7t-74 34.5t-67 82t-29 150.5z M193 188q0 -55 26.5 -82.5t67.5 -27.5q90 0 165.5 64.5t130 154.5t84 188.5t29.5 165.5q0 49 -26.5 77t-67.5 28q-53 0 -131 -55.5t-160 -184.5q-18 -29 -38.5 -65.5t-39 -79.5t-29.5 -90.5t-11 -92.5zM754 453q27 -2 84 12t114.5 44t100.5 74t43 101q0 31 -15.5 54.5 t-50.5 23.5q-49 0 -96 -38t-85 -89t-63.5 -103t-31.5 -79z" />
<glyph unicode="&#x178;" horiz-adv-x="1105" d="M94 1319l8 43q2 16 21 16q20 0 66.5 -3t148.5 -3q117 0 174 3t78 3q20 0 18 -16l-4 -43q-2 -16 -18 -16h-54q-29 0 -45 -9.5t-22 -23t-5 -30.5t7 -36l190 -569q10 -35 31 -8q10 14 42 58t72 101.5t84 122t82 121.5t64.5 101.5t32.5 60.5q20 59 3 85t-79 26h-41 q-18 0 -14 20l4 39q2 16 25 16t80 -3t145 -3q86 0 133 3t68 3q25 0 20 -16l-6 -39q-2 -20 -17 -20h-38q-53 0 -86 -25t-74 -76q-8 -10 -41 -55t-78 -108.5t-97 -136.5t-97.5 -137.5t-78 -110.5t-40.5 -56q-16 -25 -29.5 -43t-23 -37.5t-17.5 -43t-16 -58.5l-52 -232 q-16 -78 6.5 -96t73.5 -18h62q18 0 14 -17l-6 -43q-2 -8 -6 -12t-17 -4q-23 0 -78 3t-169 3q-127 0 -183.5 -3t-72.5 -3q-18 0 -17 16l8 43q0 16 19 17h59q72 0 97.5 30.5t35.5 77.5l68 303q4 23 -1 60t-9 51l-221 633q-12 35 -42 56.5t-83 21.5h-47q-17 0 -15 16zM565 1628 q0 10 4 25.5t15.5 29t32 22.5t51.5 9q37 0 64.5 -23.5t27.5 -68.5q0 -41 -26.5 -65.5t-65.5 -24.5q-16 0 -34 4t-33 14.5t-25.5 28.5t-10.5 49zM930 1628q0 10 4 25.5t15.5 29t31.5 22.5t51 9q37 0 64.5 -23.5t27.5 -68.5q0 -41 -26.5 -65.5t-65.5 -24.5q-16 0 -33.5 4 t-33 14.5t-25.5 28.5t-10 49z" />
<glyph unicode="&#x2c6;" horiz-adv-x="522" d="M223 989q-4 4 6 15l256 262q14 10 21 -9l92 -266q6 -10 -2 -16l-16 -8q-10 -6 -17 0l-108 135l-205 -133q-10 -4 -14 2z" />
<glyph unicode="&#x2dc;" horiz-adv-x="583" d="M209 993q-6 6 2 21q23 57 70 102t100 45q27 0 50.5 -5t51.5 -15q16 -4 38 -8.5t57 -4.5q33 0 56 21.5t36 44.5q6 14 16 8l31 -16q6 -4 4 -11.5t-12 -23.5q-27 -47 -71 -85t-85 -38q-33 0 -60.5 6t-56.5 15q-23 6 -40 9t-40 3q-27 0 -58.5 -24.5t-47.5 -53.5 q-8 -10 -14 -6z" />
<glyph unicode="&#x2000;" horiz-adv-x="901" />
<glyph unicode="&#x2001;" horiz-adv-x="1804" />
<glyph unicode="&#x2002;" horiz-adv-x="901" />
<glyph unicode="&#x2003;" horiz-adv-x="1804" />
<glyph unicode="&#x2004;" horiz-adv-x="600" />
<glyph unicode="&#x2005;" horiz-adv-x="450" />
<glyph unicode="&#x2006;" horiz-adv-x="299" />
<glyph unicode="&#x2007;" horiz-adv-x="299" />
<glyph unicode="&#x2008;" horiz-adv-x="225" />
<glyph unicode="&#x2009;" horiz-adv-x="360" />
<glyph unicode="&#x200a;" horiz-adv-x="98" />
<glyph unicode="&#x2010;" horiz-adv-x="856" d="M129 459v76q0 20 16 20h662q18 0 18 -16v-70q0 -16 -5 -20.5t-13 -4.5h-662q-16 1 -16 15z" />
<glyph unicode="&#x2011;" horiz-adv-x="856" d="M129 459v76q0 20 16 20h662q18 0 18 -16v-70q0 -16 -5 -20.5t-13 -4.5h-662q-16 1 -16 15z" />
<glyph unicode="&#x2012;" horiz-adv-x="856" d="M129 459v76q0 20 16 20h662q18 0 18 -16v-70q0 -16 -5 -20.5t-13 -4.5h-662q-16 1 -16 15z" />
<glyph unicode="&#x2013;" d="M51 444v111h1024v-111h-1024z" />
<glyph unicode="&#x2014;" horiz-adv-x="2048" d="M51 444v111h2048v-111h-2048z" />
<glyph unicode="&#x2018;" horiz-adv-x="368" d="M295 1118q0 82 37 136.5t83 87t89 47t55 14.5h13q5 0 10 -17q2 -14 -4.5 -18t-16.5 -8q-16 -4 -41.5 -17.5t-49.5 -35t-40 -48t-16 -59.5t10 -51.5t33 -42.5q8 -6 30.5 -27.5t22.5 -54.5q0 -35 -21.5 -60.5t-60.5 -25.5q-33 0 -57.5 18.5t-42 46t-25.5 59t-8 56.5z" />
<glyph unicode="&#x2019;" horiz-adv-x="368" d="M209 954q-2 14 4 18.5t16 8.5q16 4 42 17.5t49.5 35t40 48t16.5 59.5t-10.5 51t-32.5 43q-8 6 -30.5 27.5t-22.5 54.5q0 35 21.5 60.5t59.5 25.5q33 0 57.5 -19.5t41 -47t26 -58.5t9.5 -55q0 -82 -37 -136.5t-83 -87t-89 -47t-56 -14.5h-13q-5 0 -9 16z" />
<glyph unicode="&#x201a;" horiz-adv-x="368" d="M4 -203q-2 14 4 18.5t17 8.5q16 4 41.5 17.5t49 35t40 48t16.5 59.5t-10 51t-33 43q-8 6 -30.5 27.5t-22.5 54.5q0 35 21.5 60.5t60.5 25.5q33 0 57.5 -19.5t40.5 -47t25.5 -58.5t9.5 -55q0 -82 -37 -136.5t-83 -87t-89 -47t-55 -14.5h-14q-5 0 -9 16z" />
<glyph unicode="&#x201c;" horiz-adv-x="655" d="M295 1118q0 82 37 136.5t83 87t89 47t55 14.5h13q5 0 10 -17q2 -14 -4.5 -18t-16.5 -8q-16 -4 -41.5 -17.5t-49.5 -35t-40 -48t-16 -59.5t10 -51.5t33 -42.5q8 -6 30.5 -27.5t22.5 -54.5q0 -35 -21.5 -60.5t-60.5 -25.5q-33 0 -57.5 18.5t-42 46t-25.5 59t-8 56.5z M582 1118q0 82 36.5 136.5t83 87t89.5 47t55 14.5h13q5 0 9 -17q2 -14 -4 -18t-16 -8q-16 -4 -42 -17.5t-49.5 -35t-40 -48t-16.5 -59.5t10.5 -51.5t32.5 -42.5q8 -6 31 -27.5t23 -54.5q0 -35 -21.5 -60.5t-60.5 -25.5q-33 0 -57.5 18.5t-42 46t-25.5 59t-8 56.5z" />
<glyph unicode="&#x201d;" horiz-adv-x="655" d="M209 954q-2 14 4 18.5t16 8.5q16 4 42 17.5t49.5 35t40 48t16.5 59.5t-10.5 51t-32.5 43q-8 6 -30.5 27.5t-22.5 54.5q0 35 21.5 60.5t59.5 25.5q33 0 57.5 -19.5t41 -47t26 -58.5t9.5 -55q0 -82 -37 -136.5t-83 -87t-89 -47t-56 -14.5h-13q-5 0 -9 16zM496 954 q-2 14 4 18.5t16 8.5q16 4 42 17.5t49.5 35t40 48t16.5 59.5t-10.5 51t-32.5 43q-8 6 -31 27.5t-23 54.5q0 35 21.5 60.5t60.5 25.5q33 0 57.5 -19.5t41 -47t25.5 -58.5t9 -55q0 -82 -36.5 -136.5t-83 -87t-89.5 -47t-55 -14.5h-13q-5 0 -9 16z" />
<glyph unicode="&#x201e;" horiz-adv-x="655" d="M4 -203q-2 14 4 18.5t17 8.5q16 4 41.5 17.5t49 35t40 48t16.5 59.5t-10 51t-33 43q-8 6 -30.5 27.5t-22.5 54.5q0 35 21.5 60.5t60.5 25.5q33 0 57.5 -19.5t40.5 -47t25.5 -58.5t9.5 -55q0 -82 -37 -136.5t-83 -87t-89 -47t-55 -14.5h-14q-5 0 -9 16zM291 -203 q-2 14 4 18.5t16 8.5q16 4 42 17.5t49.5 35t40 48t16.5 59.5t-10.5 51t-32.5 43q-8 6 -31 27.5t-23 54.5q0 35 22 60.5t60 25.5q33 0 57.5 -19.5t41 -47t26 -58.5t9.5 -55q0 -82 -37 -136.5t-83 -87t-89 -47t-56 -14.5h-13q-5 0 -9 16z" />
<glyph unicode="&#x2022;" horiz-adv-x="724" d="M221 649q0 49 18.5 91t49 74t71.5 49.5t89 17.5q102 0 162.5 -55.5t60.5 -157.5q0 -49 -19.5 -90t-51.5 -71t-75 -45.5t-90 -15.5q-41 0 -79 13.5t-68.5 40t-49 64.5t-18.5 85z" />
<glyph unicode="&#x2026;" horiz-adv-x="2048" d="M158 90q0 31 25.5 69t80.5 38q35 0 57.5 -13.5t36 -31t18.5 -36t5 -26.5q0 -41 -32 -75.5t-83 -34.5q-47 0 -77.5 31.5t-30.5 78.5zM842 90q0 31 25.5 69t80.5 38q35 0 57.5 -13.5t36 -31t18.5 -36t5 -26.5q0 -41 -32 -75.5t-83 -34.5q-47 0 -77.5 31.5t-30.5 78.5z M1526 90q0 31 25.5 69t80.5 38q35 0 57.5 -13.5t36 -31t18.5 -36t5 -26.5q0 -41 -31.5 -75.5t-83.5 -34.5q-47 0 -77.5 31.5t-30.5 78.5z" />
<glyph unicode="&#x202f;" horiz-adv-x="360" />
<glyph unicode="&#x2039;" horiz-adv-x="471" d="M104 434q0 4 11 15l317 296q8 8 12 9q4 0 11 -6l22 -23q8 -8 8 -14q0 -4 -12 -17l-215 -250l156 -251q4 -8 7 -10.5t3 -6.5q0 -6 -8 -14l-25 -23q-4 -4 -8 -4q-8 0 -14 8l-256 279q-9 8 -9 12z" />
<glyph unicode="&#x203a;" horiz-adv-x="471" d="M61 178q0 4 13 17l215 249l-156 252q-4 8 -7 10.5t-3 6.5q0 6 8 14l25 23q4 4 8 4q8 0 14 -9l256 -278q8 -8 8 -12t-10 -15l-317 -297q-8 -8 -13 -8q-4 0 -10 6l-22 23q-9 8 -9 14z" />
<glyph unicode="&#x205f;" horiz-adv-x="450" />
<glyph unicode="&#x20ac;" d="M65.5 488.5q-4.5 7.5 0.5 15.5l14 31q4 10 10 11t23 1h114q6 39 16.5 86t20.5 82h-114q-20 0 -24.5 6t-0.5 16l14 31q4 10 10.5 11t22.5 1h117q29 76 69.5 152t100.5 153q180 236 397 236q66 0 111 -21.5t74.5 -47t46 -47t26.5 -21.5q14 0 21.5 11t17.5 44q2 14 14 12 l23 -6q10 -4 11 -7t-3 -13l-84 -310q-4 -14 -18 -12l-25 4q-10 2 -10 6.5t2 14.5q8 45 4 99t-26.5 101.5t-65.5 79t-111 31.5q-90 0 -165.5 -57.5t-151.5 -184.5q-35 -57 -56.5 -110t-39.5 -107h491q23 0 16 -12l-18 -41q-4 -12 -27 -12h-483q-10 -39 -20.5 -86t-16.5 -82 h443q23 0 16 -12l-21 -41q-4 -12 -26 -13h-420q-2 -10 -3 -23.5t-1 -21.5q-8 -111 9.5 -183.5t48 -117.5t71.5 -63.5t78 -18.5q49 0 98 11.5t93 40t83 76.5t68 122q4 14 7 16.5t9 -0.5l29 -10q10 -4 10 -7t-4 -11l-104 -326q-6 -12 -15 -10l-33 10q-8 4 -2 17q2 8 2 12t2 14 q10 35 -14 37q-12 0 -34.5 -11t-56.5 -25.5t-78 -27t-97 -12.5q-96 0 -164 46t-108.5 120t-55 165t-4.5 181h-129q-20 0 -24.5 7.5z" />
<glyph unicode="&#x2122;" horiz-adv-x="1710" d="M190 1210q-6 0 0 7q6 14 18.5 41.5t25 56t22.5 50t12 26.5q8 18 15 18q6 0 10 -4l12 -10q14 -8 23.5 -11.5t29.5 -5.5q47 -2 97.5 -4t109.5 -2q57 0 118.5 2t109.5 4q18 2 29.5 4t27.5 9l22 14q4 2 5.5 3t5.5 1q6 0 6 -18q0 -4 -3 -26t-6 -50l-7 -58q-3 -29 -3 -45 q0 -8 -8 -12l-16 -2q-12 -2 -15 10q-4 14 -15 47t-34 48q-12 6 -37.5 10t-52 5t-48.5 1h-28l-88 -365q-18 -74 -28.5 -124t-14.5 -68q-2 -18 2.5 -28.5t22.5 -10.5h51q10 0 8 -10l-10 -37q0 -10 -12 -10q-4 0 -20.5 1t-38 1t-44 1t-36.5 1q-16 0 -40 -1t-47.5 -1t-42 -1 t-22.5 -1q-14 0 -10 10l8 37q2 10 12 10h56q33 0 38 25q6 20 17.5 67t28.5 113l92 391h-23q-18 0 -42.5 -1t-50.5 -3t-44 -8q-35 -12 -64.5 -43t-48.5 -54q-2 -14 -16 -8zM778 678l8 33q4 12 11 12h24q25 0 46.5 16.5t31.5 42.5q10 27 22.5 68t24.5 86t22.5 91t20.5 83 l37 160q6 31 -6 42t-37 11h-29q-10 0 -6 12l8 35q2 12 13 12q2 0 17 -1t34.5 -1t39 -1t32.5 -1q29 0 54 1t48 3q16 2 23.5 -1t9.5 -19l76 -492l327 494q10 16 39 16h95q38 0 59.5 1t31.5 1h15q8 0 4 -10l-6 -35q-6 -14 -13 -14h-20q-29 0 -39 -11.5t-14 -27.5 q-6 -18 -13.5 -50t-16.5 -69t-17.5 -74.5t-16.5 -70.5q-16 -61 -28.5 -126t-26.5 -118q-4 -23 1 -38t22 -15h47q6 0 6 -2t-2 -8l-6 -35q-4 -10 -15 -10h-20q-16 0 -38 1t-44 1h-37h-37q-23 0 -45 -1t-41 -1h-22q-10 0 -7 10l7 33q2 12 14 12h39q23 0 35 10t18 25 q8 18 16.5 49t15.5 65.5t13 69.5t12 64l74 303h-8l-404 -602q-8 -8 -15 -16.5t-15 -8.5q-16 0 -17 18l-100 613h-10l-62 -275l-30 -117q-18 -71 -27 -126q-4 -41 7 -56.5t40 -15.5h27q6 0 4 -12l-8 -33q-4 -10 -13 -10h-18q-14 0 -32.5 1t-38.5 1h-34q-12 0 -32.5 -1t-41 -1 t-37 -1t-18.5 -1q-6 4 -7 3t-1 9z" />
<glyph unicode="&#xe000;" horiz-adv-x="850" d="M0 850h850v-850h-850v850z" />
<glyph unicode="&#xfb01;" horiz-adv-x="1034" d="M-457 -479q0 33 23.5 56.5t58.5 27.5q35 -2 55.5 -26.5t24.5 -49.5q2 -23 18.5 -41t51.5 -18q59 0 107 64.5t90 163.5t80 221t77 237q70 203 118 339t83 226h-166q-14 0 -12 14l12 41q4 14 7 17.5t11 3.5h172q29 70 59.5 139.5t65.5 134t76 121.5t92 102q59 53 128 81 t171 28q63 0 104.5 -17.5t66 -41t34.5 -46t10 -34.5q0 -41 -22.5 -67t-53.5 -26q-53 0 -71.5 30t-18.5 56v31q0 14 -12 27q-10 10 -26.5 18t-57.5 8t-78 -14t-76 -49q-35 -31 -69.5 -84t-67.5 -119.5t-60.5 -138.5t-49.5 -139h366q49 0 80 11t47 11q20 0 -2 -59l-223 -559 q-23 -57 -18.5 -74.5t24.5 -17.5q12 0 40 23.5t58.5 54t57 60t35.5 42.5q4 10 18 -2l27 -23q6 -8 2 -12q-8 -12 -48 -56t-94.5 -92.5t-115 -86t-109.5 -37.5q-33 0 -48 12t-15 31q0 10 8 34.5t19 55t24.5 64.5t23.5 61l162 417q16 41 -4 53.5t-61 12.5h-277 q-39 -92 -84 -226.5t-106 -299.5q-45 -121 -94.5 -261.5t-115 -261.5t-156.5 -200.5t-218 -79.5q-76 0 -117 41t-41 88z" />
<glyph unicode="&#xfb02;" horiz-adv-x="1038" d="M-449 -498q0 37 24 64.5t58 27.5q35 0 54.5 -21.5t27.5 -43.5q23 -55 58 -55q27 0 59.5 17t52.5 40q49 57 90 147.5t77 192.5t67 207.5t59 191.5l144 453h-172q-18 0 -13 16l17 43q4 6 7 11.5t13 5.5h174q27 76 52.5 140.5t56 120.5t68.5 109.5t91 106.5q59 61 133 94 t177 33q90 0 170 -14.5t108 -26.5q10 -4 17.5 -11.5t7.5 -17.5q0 -16 -29 -73.5t-74 -167.5l-346 -854q-20 -47 -20 -74q0 -23 22 -23q12 0 40 22.5t56.5 50.5t51 51.5t24.5 27.5q6 10 21 0l20 -17q10 -8 4 -22q-2 -4 -22.5 -26.5t-53 -53.5t-73.5 -64.5t-83 -62.5t-83 -48 t-72 -19q-23 0 -32 10t-9 24t12.5 54.5t34.5 91.5l230 563h-383l-154 -475q-29 -92 -61.5 -191.5t-73.5 -197t-91 -184.5t-116 -154q-127 -129 -264 -129q-41 0 -69.5 12t-47 29.5t-28 37t-9.5 31.5zM485 799h394l141 348q14 33 17 54.5t3 37.5q0 10 -6 26.5t-23.5 32 t-48 25.5t-79.5 10q-94 0 -162 -55q-27 -23 -50.5 -54.5t-50 -87t-59.5 -137t-76 -200.5z" />
<glyph unicode="&#xfb03;" horiz-adv-x="1538" d="M-424 -487q0 35 23.5 61.5t64.5 26.5q45 0 68.5 -33t27.5 -60q6 -35 35 -34q74 0 155 133t165 418l207 696h-179q-18 0 -14 18l8 37q4 10 8.5 15.5t16.5 5.5h180q27 80 50.5 144.5t50 119.5t59.5 102t76 90q57 57 136 93t201 36q78 0 132.5 -31.5t70.5 -56.5 q25 25 59.5 44.5t69.5 35.5q35 14 75 21.5t97 7.5q49 0 85 -12.5t60.5 -30t37 -39t12.5 -39.5q0 -47 -25.5 -70.5t-56.5 -23.5q-49 0 -67.5 23.5t-22.5 58.5q-2 16 -22.5 37.5t-82.5 21.5q-72 0 -124 -51t-92 -129t-69.5 -172t-52.5 -180h369q49 0 80 11t47 11q20 0 -2 -59 l-223 -559q-23 -57 -19 -74.5t25 -17.5q12 0 39.5 23.5t58.5 54t57.5 60t34.5 42.5q4 10 19 -2l26 -23q6 -8 2 -12q-8 -12 -48 -56t-94 -92.5t-114.5 -86t-109.5 -37.5q-29 0 -44.5 12t-15.5 31q0 10 8.5 34.5t19.5 55t24.5 64.5t23.5 61l162 417q16 41 -4.5 53.5 t-65.5 12.5h-280q-20 -61 -47 -154.5t-59.5 -200t-68.5 -218t-75 -209.5q-47 -121 -97 -221.5t-112.5 -172t-139.5 -112.5t-173 -41q-63 0 -104.5 10t-67 25.5t-42 34t-30.5 34.5q-6 -8 -27.5 -25.5t-53.5 -35t-71.5 -30.5t-85.5 -13q-59 0 -102 36t-43 85zM39 -401l4 -5 q55 -10 84 -71q14 -31 46 -48.5t56 -17.5q37 0 79 13.5t77 46.5q92 82 156.5 238.5t132.5 404.5q18 70 39 137l41 135q20 68 41.5 139.5t44.5 149.5h-383q-4 -16 -18.5 -62.5t-35 -116t-48 -157.5t-58.5 -186t-66.5 -195.5t-71.5 -179.5t-68 -141t-52 -84zM477 797h383 q37 111 65.5 180.5t50 112.5t36 63.5t20.5 30.5q-49 6 -76 67q-27 57 -139 58q-35 0 -69.5 -11.5t-75.5 -52.5q-33 -31 -62.5 -87t-54.5 -121.5t-45.5 -130t-32.5 -109.5z" />
<glyph unicode="&#xfb04;" horiz-adv-x="1552" d="M-424 -487q0 35 23.5 61.5t64.5 26.5q45 0 68.5 -33t27.5 -60q6 -35 35 -34q74 0 155 133t165 418l207 696h-183q-16 0 -10 20l8 35q4 10 8.5 15.5t16.5 5.5h180q27 80 50.5 144.5t50 119.5t59.5 102t76 90q57 57 135 93t192 36q84 0 138.5 -33.5t74.5 -68.5 q61 57 137 90t189 33q43 0 85 -4t79 -10.5t64.5 -12.5t43.5 -12q27 -8 27 -31q0 -10 -27.5 -69.5t-75.5 -173.5l-346 -854q-20 -47 -20 -74q0 -23 22 -23q12 0 40 22.5t56.5 50.5t51 51.5t24.5 27.5q6 10 21 0l20 -17q10 -8 4 -22q-4 -6 -46 -50t-101 -94.5t-122.5 -90.5 t-108.5 -40q-23 0 -34 10.5t-11 24.5t12 54t35 92l229 563h-389q-18 -61 -45 -154.5t-59.5 -201t-69.5 -219t-76 -209.5q-47 -121 -99.5 -221.5t-115.5 -172t-143 -111.5t-181 -40q-57 0 -96 10t-64.5 25.5t-41 34t-27.5 34.5q-6 -8 -27.5 -25.5t-53.5 -35t-71.5 -30.5 t-85.5 -13q-59 0 -102 36t-43 85zM39 -401l4 -5q23 -4 47.5 -23.5t36.5 -47.5q14 -31 41 -48.5t51 -17.5q37 0 79 14.5t77 45.5q92 82 162.5 235.5t140.5 399.5q41 141 77 276t85 293h-383q-4 -12 -17.5 -59.5t-33 -117t-47 -157.5t-58.5 -186q-33 -98 -69.5 -196.5 t-72.5 -180.5t-68 -141t-52 -84zM477 797h383q31 98 57.5 165.5t49 111.5t40 68.5t29.5 37.5q-47 8 -80 73q-16 31 -53 43.5t-86 12.5q-35 0 -69.5 -11.5t-75.5 -52.5q-33 -31 -62.5 -87t-54.5 -121.5t-45.5 -130t-32.5 -109.5zM997 797h400l141 352q14 33 17.5 54.5 t3.5 37.5q0 14 -7.5 30.5t-25 31t-48 23.5t-77.5 9q-63 0 -105.5 -14t-78.5 -49q-25 -23 -50.5 -55.5t-51 -87t-55.5 -135t-63 -197.5z" />
</font>
</defs>
</svg>
