<?xml version="1.0" standalone="no"?>
<!DOCTYPE svg PUBLIC "-//W3C//DTD SVG 1.1//EN" "http://www.w3.org/Graphics/SVG/1.1/DTD/svg11.dtd" >
<svg xmlns="http://www.w3.org/2000/svg">
<metadata>
This is a custom SVG webfont generated by Font Squirrel.
Copyright   :  2000 Adobe Systems Incorporated All Rights Reserved
Designer    : Carol Twombly
Foundry URL : httpwwwadobecomtype
</metadata>
<defs>
<font id="AdobeCaslonProSemibold" horiz-adv-x="1024" >
<font-face units-per-em="2048" ascent="1505" descent="-543" />
<missing-glyph horiz-adv-x="430" />
<glyph unicode=" "  horiz-adv-x="430" />
<glyph unicode="&#x09;" horiz-adv-x="430" />
<glyph unicode="&#xa0;" horiz-adv-x="430" />
<glyph unicode="!" horiz-adv-x="528" d="M129 106q0 16 7 39t23.5 42.5t43 32.5t65.5 13q55 0 93 -37.5t38 -97.5q0 -55 -35.5 -89t-97.5 -34q-49 0 -93 29.5t-44 101.5zM135 1243q0 66 31 111t96 45q61 0 98 -34t33 -105q0 -23 -7 -78.5t-17.5 -131t-23.5 -162.5t-24.5 -171t-19.5 -159t-10 -122q0 -16 -17 -16 h-36q-10 0 -11.5 5t-1.5 15q-4 49 -11 122t-17.5 155t-21.5 166t-19.5 157.5t-14.5 126.5t-6 76z" />
<glyph unicode="&#x22;" horiz-adv-x="761" d="M102 1374q0 43 29 75t82 32q55 0 80.5 -31t25.5 -72q0 -23 -10 -82t-22 -130l-25 -141q-12 -71 -16 -118h-70q-4 47 -15 118t-24.5 141.5t-24 127.5t-10.5 80zM442 1374q0 43 29 75t82 32q55 0 80.5 -31t25.5 -72q0 -23 -10 -82t-22 -130l-25 -141q-12 -71 -16 -118h-70 q-4 47 -15.5 118t-24.5 141.5t-23.5 127.5t-10.5 80z" />
<glyph unicode="#" d="M-20 414l24 118q4 10 9 11.5t16 1.5h215l63 295h-205q-18 0 -23 3t-5 9l20 123q6 12 29 12h209l88 391q2 10 4 15.5t12 5.5h111q10 0 10 -7.5t-2 -17.5l-86 -387h205l82 387q2 10 6 17.5t14 7.5h111q6 2 9 -6.5t-1 -18.5l-82 -387h215q20 0 21 -12l-25 -123 q-4 -10 -8 -11t-21 -1h-209l-63 -295h215q25 0 25 -17l-25 -122q-4 -8 -29 -9h-215l-86 -403q-6 -25 -20 -25h-111q-14 0 -8 25l86 403h-205l-86 -399q-6 -29 -20 -29h-111q-14 0 -8 29l90 399h-223q-12 1 -12 17zM381 545h201l63 295h-201z" />
<glyph unicode="$" d="M106 123q2 25 7.5 74t9.5 101t8 98t8 63q0 16 13 16l41 -4q12 0 12 -12q0 -43 5 -89t40 -112q25 -37 54.5 -65.5t60.5 -45.5l16 480q-47 12 -89 33.5t-79 56.5q-49 47 -73.5 107.5t-24.5 150.5q0 102 39 164.5t92 105.5q31 25 72.5 44.5t78.5 25.5l4 115q0 20 13 20h41 q16 0 16 -20l-4 -107q29 4 57.5 2t53.5 -6v111q0 20 16 20h41q12 0 12 -25l-4 -118q31 -6 54.5 -12.5t47.5 -16.5q23 -6 37 4l21 25q10 6 14 7t14 1t13.5 -7.5t3.5 -17.5q0 -35 1 -81t1 -91t1 -83t1 -52q0 -16 -8 -16l-37 -4q-12 0 -12 4q-10 43 -26.5 95t-51.5 89 q-12 16 -29.5 34.5t-40.5 31.5l-16 -435q139 -37 213 -122t74 -250q0 -61 -20.5 -121t-59.5 -109t-96.5 -85t-131.5 -50v-111q0 -20 -16 -20h-37q-16 0 -16 20l4 103q-18 -4 -55 -1t-56 9l-4 -111q0 -20 -16 -20h-41q-10 0 -11.5 5t-1.5 15l5 123q-35 10 -69 28.5t-63 37.5 q-18 10 -28 15t-17 5q-14 0 -32 -37q-6 -10 -14.5 -11t-18.5 -1q-23 0 -17 29zM287 1036q0 -90 41 -143q12 -16 28.5 -25.5t28.5 -15.5l8 385q-61 -31 -83.5 -89.5t-22.5 -111.5zM434 119q12 -6 47 -9.5t64 1.5l12 471q-41 10 -64.5 16t-41.5 12zM455 823q16 -6 43.5 -12 t62.5 -12l12 442q-23 10 -53.5 14.5t-52.5 -2.5zM614 123q53 18 92 71.5t39 149.5q0 74 -29.5 129t-88.5 84z" />
<glyph unicode="%" horiz-adv-x="1585" d="M43 952q0 84 17.5 165t56.5 143.5t99 100.5t146 38q92 0 151.5 -42t93.5 -104.5t47.5 -137.5t15.5 -140q-4 -207 -85 -320.5t-235 -113.5q-100 0 -160.5 48t-93.5 113.5t-43 136t-10 113.5zM231 950q0 -164 25 -250q16 -43 46 -66.5t52 -23.5q72 0 103 78q12 41 16 113.5 t4 191.5q0 152 -27.5 244t-95.5 92q-25 0 -49 -16.5t-41 -52.5q-10 -29 -17 -68t-10.5 -82t-4.5 -85t-1 -75zM328 23q0 10 14 26l823 1335q6 14 17 15q10 0 16 -4l51 -29q12 -8 13 -14q0 -4 -3.5 -9.5t-7.5 -11.5l-827 -1339q-12 -23 -21 -23q-10 0 -18 6l-43 31 q-14 11 -14 17zM915 393q0 84 17.5 165t56.5 143.5t99.5 100.5t146.5 38q92 0 151.5 -42t93 -104.5t47 -137.5t15.5 -140q-4 -207 -85 -320.5t-234 -113.5q-100 0 -161 48t-93.5 113.5t-43 136t-10.5 113.5zM1104 391q0 -164 24 -250q16 -43 46 -66.5t53 -23.5q72 0 102 78 q12 41 16.5 113.5t4.5 191.5q0 152 -28 244t-95 92q-25 0 -49.5 -16.5t-40.5 -53.5q-10 -29 -17.5 -67.5t-10.5 -81.5t-4 -85t-1 -75z" />
<glyph unicode="&#x26;" horiz-adv-x="1798" d="M74 328q0 57 14 107t39 93t55.5 79t63.5 65q49 49 108.5 88t112.5 67q-209 135 -209 275q0 59 35 121.5t88 112.5t117.5 82t124.5 32q74 0 135 -25.5t104 -65.5t66.5 -90t21.5 -102q-2 -43 -25.5 -86t-58.5 -79.5t-75.5 -66.5t-77.5 -46q57 -27 114.5 -69t111.5 -93 t102.5 -108.5t88.5 -114.5q25 31 51.5 72.5t48 86t36 84t16.5 68.5q4 25 -13.5 43.5t-47.5 18.5h-33q-12 0 -12 16v45q0 14 12 14q8 0 30.5 -1t53.5 -2t66.5 -2t70.5 -1q27 0 61.5 1t65.5 2t54.5 2t27.5 1q16 0 16 -16v-43q0 -16 -16 -16h-33q-61 0 -90 -10.5t-49 -43.5 q-6 -10 -36 -56t-70 -106.5t-81.5 -123t-74.5 -103.5q10 -10 30.5 -33.5t43.5 -50.5l48 -53q24 -27 42 -43q14 -16 37.5 -38.5t54 -44t68.5 -37t81 -15.5q47 0 85 20.5t65.5 46t45 49t21.5 31.5q10 10 17 4l37 -24q8 0 0 -17q-12 -27 -43 -70.5t-81 -85.5t-121 -73t-165 -31 q-84 0 -148.5 27t-115.5 68.5t-92 91t-78 94.5q-35 -37 -78 -85t-101.5 -92t-134 -74t-174.5 -30q-92 0 -175 29t-144.5 78t-98 114.5t-36.5 137.5zM311 401q2 -63 31 -114t72 -88t94 -57.5t98 -20.5q72 0 129.5 20.5t101.5 50t76.5 63.5t57.5 60q-37 55 -87 121 t-108.5 129.5t-123 119.5t-128.5 93q-39 -23 -77.5 -60.5t-69.5 -86.5t-49.5 -108t-16.5 -122zM463 1147q0 -31 17.5 -61.5t45 -59.5t60 -53.5t65.5 -42.5q14 14 35 31.5t38 45t29.5 67.5t12.5 97q0 31 -10.5 66t-28.5 63.5t-45 48t-59 19.5q-39 0 -69 -19.5t-50.5 -50 t-30.5 -70.5t-10 -81z" />
<glyph unicode="'" horiz-adv-x="413" d="M98 1374q0 43 29 75t82 32q55 0 80.5 -31t25.5 -72q0 -23 -10 -82t-22 -130l-25 -141q-12 -71 -16 -118h-70q-4 47 -15.5 118t-24.5 141.5t-23.5 127.5t-10.5 80z" />
<glyph unicode="(" horiz-adv-x="671" d="M94 588q0 152 38 290t110 271q66 123 143.5 214t142.5 150q23 16 41 17q12 0 26.5 -11.5t14.5 -17.5q0 -16 -20 -37q-133 -154 -208 -370.5t-75 -501.5q0 -279 76 -502t211 -375q6 -10 11 -20t5 -17q0 -10 -14 -21t-27 -11q-18 0 -41 16q-68 59 -148.5 146.5 t-154.5 226.5q-61 115 -96 258t-35 295z" />
<glyph unicode=")" horiz-adv-x="671" d="M61 -322q0 12 21 33q133 158 208 374t75 503q0 274 -76 497.5t-211 374.5q-6 10 -11.5 20.5t-5.5 16.5q0 10 14.5 21.5t26.5 11.5q18 0 41 -17q68 -59 149 -146t154 -226q61 -115 96.5 -258.5t35.5 -290.5q0 -154 -38 -293t-110 -272q-66 -123 -143.5 -214.5 t-143.5 -150.5q-23 -16 -41 -16q-12 0 -26.5 11t-14.5 21z" />
<glyph unicode="*" horiz-adv-x="671" d="M38 1031q5 32 38 52q12 6 46 16.5t70.5 19.5t69.5 16.5t43 9.5v8q-14 4 -45 11t-65.5 14.5t-65.5 13.5t-43 10q-37 10 -47 42t4 61q18 37 48 45t59 -9q12 -6 38.5 -31.5t54 -54t49 -53t27.5 -28.5l9 4q-2 4 -13.5 35.5t-23.5 70.5t-22.5 75t-10.5 48q0 35 20.5 54.5 t57.5 19.5q78 0 78 -70q0 -14 -10.5 -50t-22.5 -76t-23.5 -71.5t-13.5 -35.5l8 -9q2 4 24.5 30t50.5 55.5t53.5 55t35.5 31.5q66 33 102 -28q18 -35 9 -62.5t-37 -44.5q-10 -4 -46 -12t-76 -16.5t-74 -14.5t-38 -6v-8q4 -2 38 -9t76 -16.5t80 -18.5t52 -18 q18 -10 31.5 -36.5t-10.5 -69.5q-18 -29 -50 -33t-61 13q-10 8 -35.5 34.5t-53.5 56t-48.5 53t-22.5 28.5l-8 -9q2 -4 13.5 -34.5t23.5 -67.5t22.5 -74t10.5 -53q0 -29 -17.5 -53.5t-60.5 -24.5q-37 0 -57.5 23.5t-20.5 54.5q0 12 9 47t21.5 74t24 70.5t13.5 37.5l-9 4 q-10 -10 -29.5 -33.5t-42 -49t-45 -50t-40.5 -39.5q-29 -23 -59.5 -16.5t-47.5 31.5q-20 28 -15 60z" />
<glyph unicode="+" d="M111 426v135h327v344h148v-344h327v-135h-327v-348h-148v348h-327z" />
<glyph unicode="," horiz-adv-x="548" d="M102 -352q0 12 17 28q18 14 43.5 41t50.5 61t41 73.5t16 82.5q0 25 -14 41.5t-27 20.5q-8 2 -26.5 9t-38 22.5t-34.5 40t-15 63.5q0 55 34.5 95t100.5 40q35 0 69.5 -16.5t62.5 -47t44 -73.5t16 -96q0 -82 -35.5 -149.5t-81.5 -118t-91.5 -83t-65.5 -42.5l-21 -9 q-10 -4 -20 -4q-25 1 -25 21z" />
<glyph unicode="-" horiz-adv-x="823" d="M102 494v106q0 16 17 16h573q25 0 25 -20v-96q0 -18 -25 -19h-573q-17 1 -17 13z" />
<glyph unicode="." horiz-adv-x="548" d="M131 119q0 18 7 41.5t24.5 44t46.5 35t70 14.5q55 0 97 -39t42 -104q0 -61 -40 -98.5t-95 -37.5t-103.5 35t-48.5 109z" />
<glyph unicode="/" horiz-adv-x="745" d="M12 12q-12 6 0 33l606 1430q6 18 25 12l86 -37q18 -6 4 -33l-608 -1435q-8 -16 -23 -11z" />
<glyph unicode="0" d="M57 621q0 174 32 317t92.5 245.5t145.5 159t193 56.5q131 0 217 -66.5t137.5 -169t72 -226.5t20.5 -239q0 -352 -115 -540.5t-328 -188.5q-88 0 -156.5 31t-120.5 83t-88 118.5t-58.5 139.5t-33 146t-10.5 134zM303 653q0 -147 10.5 -256.5t38.5 -181.5q35 -92 77 -128 t95 -36q49 0 90 30t66 109q25 74 35 201t10 348q0 121 -13.5 226.5t-39 183.5t-63.5 123t-89 45q-55 0 -91 -33t-60 -98q-18 -53 -30.5 -121t-21 -138.5t-11.5 -141.5t-3 -132z" />
<glyph unicode="1" d="M135 1116q-6 12 12 25l471 245q10 4 18.5 8.5t18.5 4.5q16 0 17 -33q0 -6 -1 -63.5t-3 -143.5t-3 -190.5t-1 -202.5v-86v-58q0 -40 1 -92.5t1 -108.5t1 -104.5t1 -82.5v-39q0 -41 3 -65t15 -36t37 -15t68 -3h73q20 0 21 -15v-51q0 -16 -21 -16q-6 0 -53 1t-104.5 2 t-107.5 2t-62 1h-39q-29 0 -66 -1t-77 -2t-74.5 -2t-57.5 -1h-26q-16 0 -17 14v53q0 14 23 15h80q45 0 72.5 2t43 13t20.5 33.5t7 63.5q0 14 1 47t2 76t1 90v91v75v47v404q0 47 -10 76.5t-39 29.5q-16 0 -36.5 -3t-49.5 -13l-123 -37q-14 -8 -20 4z" />
<glyph unicode="2" d="M2 4q-6 23 12 41q31 29 78 73t102.5 98t117 117.5t120.5 133.5q104 127 162.5 249t54.5 253q-6 121 -71.5 193.5t-174.5 68.5q-53 -2 -94 -19.5t-71.5 -42t-52 -54.5t-35.5 -56q-10 -20 -25 -12l-33 16q-4 4 -5 8t5 21q12 29 40 81t78 102t125 87t183 37q76 0 143.5 -29 t120 -78t83 -116.5t30.5 -147.5q0 -66 -15.5 -130t-49 -130t-88 -136.5t-130.5 -148.5q-98 -98 -184 -171.5t-139 -123.5h377q51 0 86.5 14.5t63.5 36t47.5 49t35.5 56.5q10 16 15.5 19.5t21.5 -7.5q29 -12 20 -32l-139 -353l-8 -16q-2 -4 -21 -4q-16 0 -19 4t-9 16 q-10 18 -39 23.5t-84 5.5h-447q-20 0 -40.5 -1t-40.5 -1q-20 -2 -40 -3t-42 -1q-10 0 -14.5 1t-10.5 9z" />
<glyph unicode="3" d="M47 133q0 47 23.5 70.5t54.5 27.5q29 0 49.5 -12t33.5 -27.5t20.5 -33t11.5 -25.5q4 -10 13 -23.5t27.5 -25.5t47 -20.5t71.5 -8.5q57 0 105.5 23.5t82.5 61.5t52 88.5t18 103.5q0 147 -75.5 236t-210.5 120q-29 10 -35 14.5t-6 22.5t6 23.5t22 9.5q111 23 184.5 94.5 t73.5 189.5q0 39 -12 77t-36.5 68t-59.5 47t-80 17q-98 0 -158.5 -60.5t-91.5 -143.5q-6 -16 -12 -20.5t-12 -4.5l-37 12q-14 6 -8 33q10 51 38.5 109.5t77.5 107.5t120 82t165 33q88 0 149.5 -26.5t101.5 -67.5t59.5 -89.5t21.5 -93.5q0 -63 -21.5 -114.5t-55.5 -94.5 t-79 -77.5t-90 -61.5q57 -12 113.5 -43t101.5 -77t72.5 -104t27.5 -126q0 -94 -42 -177t-115.5 -144.5t-174 -97.5t-217.5 -36q-92 0 -152 17.5t-97 43t-51.5 53t-14.5 50.5z" />
<glyph unicode="4" d="M16 381q0 18 8.5 31.5t20.5 29.5l705 924q10 12 21 22.5t28 10.5q16 0 22 -14.5t6 -53.5v-815h144q25 0 24 -20v-127q0 -10 -5 -15.5t-27 -5.5h-136v-319q0 -16 -5 -22.5t-23 -6.5h-168q-16 0 -20.5 4t-4.5 21v323h-540q-23 0 -36.5 8.5t-13.5 24.5zM213 525.5 q4 -13.5 29 -13.5h364v485q0 23 -11 27t-26 -14l-344 -453q-16 -18 -12 -31.5z" />
<glyph unicode="5" d="M49 84q0 31 15.5 48.5t37.5 17.5q31 -4 56.5 -16.5t54.5 -29.5q23 -12 61.5 -23t85.5 -11q49 0 102.5 18t96.5 55t71.5 92.5t28.5 129.5q0 98 -43 169.5t-122 106.5q-66 29 -134.5 40t-117.5 11h-37q-12 0 -17.5 10.5t-3.5 22.5l74 610q4 18 9 25.5t24 7.5h457q27 0 45 6 t31.5 18.5t24.5 32t25 45.5q4 10 10.5 13.5t22.5 -4.5q12 -6 18.5 -11.5t2.5 -17.5l-74 -250q-10 -25 -24.5 -33t-61.5 -8h-440l-37 -260q16 2 50 0t74 -7t81 -12.5t69 -15.5q137 -41 217 -140t80 -251q2 -106 -41 -198.5t-117.5 -160t-177 -106.5t-219.5 -39 q-53 0 -100 10.5t-82 25.5t-55.5 35.5t-20.5 43.5z" />
<glyph unicode="6" d="M70 485q0 201 78.5 373t211.5 299q92 86 182.5 138.5t174.5 82.5q35 10 55.5 15.5t30.5 5.5t19 -7.5t9 -17.5q0 -12 -7 -23.5t-25 -17.5q-61 -25 -133 -79t-138.5 -130.5t-118 -172t-71.5 -201.5l6 -9q41 37 104.5 61.5t141.5 24.5q96 0 164.5 -35.5t111.5 -90t63.5 -119 t20.5 -121.5q0 -141 -38 -224t-93 -137q-66 -66 -136.5 -98.5t-178.5 -32.5q-109 0 -181.5 33t-121.5 94q-41 49 -66.5 101.5t-40 102.5t-19.5 97t-5 88zM311 403q0 -41 6.5 -102t28 -118.5t62.5 -98.5t112 -41q20 0 53 8t64 42t53.5 99.5t22.5 180.5q0 70 -13.5 133 t-40 109.5t-65.5 74t-90 27.5q-61 0 -97 -18.5t-55 -47.5q-29 -35 -35 -97.5t-6 -150.5z" />
<glyph unicode="7" d="M81 1054q-1 3 5 19l127 357q4 10 9 13t24 3q16 0 22 -7t2 -30t17.5 -32t101.5 -9h598q6 0 13.5 -4t7.5 -16q0 -23 -29 -58q-8 -14 -37 -66.5t-65.5 -125t-76.5 -156.5t-71 -160q-27 -66 -57.5 -145.5t-62 -167.5t-62.5 -181t-55 -184q-16 -61 -54.5 -98t-93.5 -37 q-47 0 -74.5 30t-27.5 75q0 47 26.5 108.5t50.5 108.5q8 16 43 74.5t82.5 141.5t102.5 179t108.5 188.5t98.5 170t69 122.5h-479q-47 0 -76.5 -8t-51 -23.5t-39 -38t-38.5 -53.5q-10 -12 -19 -11t-22 7q-16 11 -17 14z" />
<glyph unicode="8" d="M102 1006q0 63 29 131.5t86 127t143 96.5t201 38q76 0 142.5 -23.5t114.5 -61.5t76 -87t28 -101q0 -66 -13.5 -117t-44 -97t-83 -90t-130.5 -93q63 -35 116.5 -73t91.5 -84t58.5 -103t20.5 -131q0 -61 -28.5 -127t-84 -119t-134.5 -88t-179 -35q-111 0 -186.5 27 t-122.5 68.5t-67.5 93t-20.5 100.5q0 135 71.5 223t194.5 162q-63 39 -114.5 78t-88.5 81t-56.5 92.5t-19.5 111.5zM283 301q0 -66 22.5 -114t57 -78.5t75.5 -46t78 -15.5q98 0 155.5 60.5t57.5 179.5q0 51 -18.5 93t-54 78t-88 69.5t-117.5 70.5q-74 -47 -121 -123 t-47 -174zM324 1057q0 -47 14 -84t45 -69t78 -63.5t112 -70.5q66 43 117 118t55 175q2 51 -13 96t-42.5 79t-66.5 52.5t-86 18.5q-51 0 -90 -20.5t-67 -55.5t-42 -81t-14 -95z" />
<glyph unicode="9" d="M74 940q0 43 12 93t33.5 98.5t49.5 89.5t56 67q123 111 279 111q121 0 196.5 -35t141.5 -115q35 -43 57.5 -90t34.5 -91t16 -81t4 -59q0 -102 -19.5 -208t-60 -206t-104 -191.5t-152.5 -164.5q-43 -35 -80.5 -61.5t-74.5 -48t-76 -37t-84 -29.5q-16 -4 -33.5 -8.5 t-27.5 -4.5q-12 0 -22.5 7.5t-10.5 25.5t20 33q66 25 138.5 78t136 129.5t109.5 175t63 213.5l-8 4q-31 -29 -87.5 -53.5t-146.5 -24.5q-98 0 -166.5 36t-111.5 92t-62.5 124t-19.5 131zM303 1004q0 -74 16.5 -137.5t45 -109.5t67.5 -72t84 -26q61 0 99 24t57 54 q23 31 28 98.5t5 133.5q0 70 -9.5 134t-31 113.5t-58.5 79t-94 29.5q-92 0 -150.5 -82.5t-58.5 -238.5z" />
<glyph unicode=":" horiz-adv-x="548" d="M131 119q0 18 7 41.5t24.5 44t46.5 35t70 14.5q55 0 97 -39t42 -104q0 -61 -40 -98.5t-95 -37.5t-103.5 35t-48.5 109zM131 743q0 18 7 42t24.5 44.5t46.5 35t70 14.5q55 0 97 -39t42 -105q0 -61 -40 -98t-95 -37t-103.5 34.5t-48.5 108.5z" />
<glyph unicode=";" horiz-adv-x="548" d="M102 -365q0 10 3.5 14.5t13.5 14.5q18 16 43.5 43t50.5 60.5t41 72.5t16 82q0 25 -14 41.5t-27 20.5q-8 2 -26.5 9t-38 22.5t-34.5 40t-15 63.5q0 55 34.5 97t100.5 42q35 0 69.5 -16.5t62.5 -47t44 -74.5t16 -100q0 -82 -35.5 -149.5t-81.5 -117.5t-91.5 -82.5 t-65.5 -43.5l-21 -8q-10 -4 -20 -4q-25 0 -25 20zM119 743q0 18 7 42t24.5 44.5t46 35t69.5 14.5q55 0 97.5 -39t42.5 -105q0 -61 -40 -98t-100 -37q-55 0 -101 34.5t-46 108.5z" />
<glyph unicode="&#x3c;" d="M172 455v77l631 373v-151l-438 -250v-8l438 -263v-155z" />
<glyph unicode="=" d="M111 287v135h802v-135h-802zM111 596v135h802v-135h-802z" />
<glyph unicode="&#x3e;" d="M221 78v151l438 250v13l-438 258v155l631 -377v-77z" />
<glyph unicode="?" horiz-adv-x="770" d="M98 1292q0 35 24.5 71t86.5 36q68 0 154 -49.5t161.5 -126t128 -174t52.5 -191.5q0 -102 -42 -157.5t-103.5 -80t-129.5 -28.5t-119 -4q-16 0 -16 -17v-188q0 -6 -1 -9t-11 -3h-45q-16 0 -17 12v401q0 27 29 21q31 -4 66 -4h65q27 0 61.5 6t65.5 23.5t52.5 46t21.5 75.5 t-32 89t-79 67q-61 41 -110.5 55.5t-114.5 14.5q-61 0 -104.5 30.5t-43.5 83.5zM143 94q0 47 34 85t102 38q53 0 92 -35t39 -88q0 -49 -34 -84t-102 -35q-61 0 -96 32t-35 87z" />
<glyph unicode="@" horiz-adv-x="1630" d="M49 543q0 121 37 237.5t101.5 221t153.5 191.5t194.5 151.5t224.5 100.5t239 36q143 0 253 -39t182.5 -109.5t109.5 -172t37 -226.5q0 -100 -42 -201.5t-120 -184.5t-190.5 -135.5t-253.5 -52.5q-37 0 -61.5 20.5t-24.5 49.5q0 23 13 78t48 147l-8 4q-29 -39 -71 -90 t-94 -97t-113.5 -79t-126.5 -33q-43 0 -79 31t-36 96q0 66 25.5 142t68.5 149.5t99.5 141t120 119t128 82t123.5 30.5q53 0 79 -22.5t36 -51.5l28 41q6 10 10.5 11t10.5 1h115q12 0 14 -9t-2 -19q-10 -16 -28.5 -62.5t-40 -100.5t-40 -105.5t-26.5 -75.5q-10 -25 -22.5 -62 t-24 -75.5t-19.5 -74.5t-8 -59t15.5 -32t37.5 -9q33 0 84 31t99.5 93.5t82 158.5t33.5 227q0 225 -117.5 334t-324.5 109q-158 0 -293 -74t-236.5 -190.5t-159 -264t-57.5 -295.5q0 -125 39 -221t109 -162.5t164 -100.5t205 -32q90 0 184 11.5t184 58.5q18 8 25 0l16 -37 q4 -4 -1 -10t-11 -10q-66 -43 -184.5 -73t-245.5 -30q-160 0 -284 43t-210 120t-130 181.5t-44 229.5zM618 541q0 -66 50 -66q33 0 82 45t98 103.5t89 116t50 83.5q49 104 49 160q0 41 -18.5 69.5t-54.5 28.5q-41 0 -82 -29.5t-79 -76.5t-72 -105.5t-58.5 -119t-39 -115.5 t-14.5 -94z" />
<glyph unicode="A" horiz-adv-x="1523" d="M-33 20v39q0 16 13 17h61q43 0 72.5 22.5t58.5 69.5q8 14 36 81.5t63.5 157t71.5 181.5t58 157q4 10 18.5 50.5t35 95.5t44 118.5t45 119t38 97.5t20.5 56q4 16 9 37.5t-5 32.5q-12 12 -12 24q0 14 20 21q25 6 56.5 19.5t60.5 28.5t52.5 29.5t33.5 24.5q20 20 31 21 q10 0 15 -13.5t9 -23.5q8 -33 27 -89.5t42.5 -125t48 -143t48 -143.5t41 -126t27.5 -90q18 -59 49 -152.5t62.5 -184.5t59.5 -165t38 -94q29 -53 64.5 -73.5t66.5 -20.5h65q16 0 17 -15v-43q0 -10 -4 -17t-17 -7q-14 0 -31.5 1t-49 2t-85 2t-137.5 1q-129 0 -191.5 -3 t-94.5 -3q-12 0 -16.5 7t-4.5 17v41q0 16 16 17h54q43 0 57 17.5t4 58.5q-6 27 -22.5 84t-36 120.5t-38 121t-26.5 85.5h-475q-4 -12 -14 -41.5t-23.5 -68.5t-28 -84t-27.5 -85t-22.5 -71t-11.5 -45q-4 -12 -4 -24v-19q0 -20 21.5 -34.5t52.5 -14.5h86q20 0 20 -10v-52 q0 -20 -16 -20q-23 0 -86.5 3t-171.5 3q-57 0 -95 -1t-64 -2t-41 -2t-25 -1t-11.5 8t-1.5 18zM459 645h426q-6 14 -19.5 59.5t-32 104.5t-38 125.5t-37 125t-30.5 100.5t-15 52q-12 37 -21 37q-18 0 -26 -26q-2 -6 -17.5 -48t-37 -102.5t-47 -130.5t-47 -132t-38 -107.5 t-20.5 -57.5z" />
<glyph unicode="B" horiz-adv-x="1388" d="M61 1391v47q0 18 17 18q23 0 96 -4q49 -3 123 -3q37 0 80 1q49 0 132 3t167 3q117 0 211 -12t149 -43q86 -47 121 -117t35 -162q0 -123 -66.5 -201.5t-212.5 -132.5v-10q176 -47 272.5 -142t96.5 -259q0 -41 -11 -88t-31.5 -90t-50.5 -78t-67 -55q-66 -37 -170 -54.5 t-276 -17.5q-31 0 -70 1t-80 2t-79.5 2t-69.5 1q-121 0 -188.5 -3t-100.5 -3q-14 0 -14 16v51q0 14 14 15h88q47 0 62.5 20.5t19.5 67.5q2 18 3 73.5t2 126t2 147.5t1 140v242q0 27 -1 82t-2 111.5t-2 104.5t-1 60q-2 45 -10 70t-21.5 37t-35 14t-50.5 2h-65q-17 1 -17 17z M516 332q0 -145 39 -209t137 -64q59 0 114.5 15.5t98.5 53.5t68.5 100.5t25.5 156.5q0 127 -55 206t-141 114q-59 25 -119.5 30.5t-114.5 5.5h-53v-127v-282zM516 807q25 -2 47 -2h47q68 0 125.5 15.5t91.5 43.5q59 47 83 110.5t24 131.5q0 59 -20.5 115.5t-69.5 93.5 q-55 41 -121 56t-113 15h-32q-16 0 -29 -4q-23 -8 -27 -32q0 -14 -1 -52t-2 -91.5t-2 -117t-1 -126.5v-156z" />
<glyph unicode="C" horiz-adv-x="1536" d="M106 715q0 152 50.5 292t158.5 257q41 45 95.5 83.5t121 68.5t145.5 47.5t171 17.5q141 0 249.5 -34t164.5 -65q23 -12 29.5 -12t11.5 12l16 54q4 10 9 11t24 1q18 0 23 -5t5 -28q0 -14 6.5 -73.5t15.5 -130t16 -135t12 -87.5q2 -18 -9 -20l-39 -13q-12 -6 -22 21 q-18 55 -56 127t-104 139q-68 66 -151.5 109t-204.5 43q-123 0 -211 -51.5t-143.5 -134.5t-82 -188.5t-26.5 -215.5q0 -47 8 -113.5t29.5 -139.5t57.5 -145.5t93 -134.5q51 -53 98.5 -84.5t91.5 -48t85 -21.5t78 -5q84 0 158.5 19.5t138 52t111.5 75.5t81 90q16 23 25 15 l34 -31q6 -6 7 -13q0 -4 -2 -8q-47 -66 -106.5 -128t-135.5 -110t-168 -77t-201 -29q-98 0 -176 14.5t-142.5 39t-117.5 60.5t-100 79q-57 51 -98.5 118.5t-69 141.5t-41 149.5t-13.5 143.5z" />
<glyph unicode="D" horiz-adv-x="1712" d="M53 12v51q0 12 17 13h118q59 0 68 51q2 10 3 52t3 102.5t3 132t2 141.5t2 131.5t1 99.5v156q0 20 -1 76.5t-3 119t-4 115t-4 64.5q-4 37 -23.5 47t-50.5 10h-110q-16 0 -17 15v55q0 12 19 12q45 0 122.5 -3t186.5 -3q78 0 153.5 3t153.5 3q102 0 195.5 -7t178.5 -26.5 t162 -56.5t148 -96q102 -84 166 -212t64 -308q0 -88 -12.5 -162t-37 -138.5t-62.5 -123t-89 -113.5q-76 -82 -168 -126t-184 -64.5t-174 -24.5t-134 -4q-29 0 -79 1t-106 2t-110.5 2t-93.5 1q-135 0 -201.5 -3t-88.5 -3q-13 0 -13 18zM528 741q0 -10 1 -70.5t1 -140 t1 -160.5t1 -128q0 -31 7.5 -57.5t29.5 -57.5q18 -29 69.5 -42t111.5 -13q121 0 234.5 52t191.5 155q66 84 106.5 204.5t40.5 261.5q0 61 -12.5 124t-34 121.5t-52 109.5t-65.5 92q-84 90 -208 141t-251 51q-35 0 -70.5 -2t-60.5 -18q-23 -12 -30 -35.5t-7 -54.5 q-2 -33 -3 -92.5t-1 -120.5v-111v-61v-148z" />
<glyph unicode="E" horiz-adv-x="1404" d="M86 10v49q0 16 20 17h70q35 0 55.5 3t30.5 12t13.5 26.5t3.5 46.5v487v201q0 63 -1.5 137t-2.5 140.5t-2 114.5t-3 59q-6 41 -24.5 56t-65.5 15h-78q-12 0 -12 15v53q0 14 12 14q35 0 98 -4q42 -3 112 -3q35 0 77 1h57h74q51 0 115.5 1t136.5 1t136.5 1t115.5 1h74 q25 0 49 1t33 1q12 0 16 -12q2 -10 16.5 -59.5t31 -105.5t29.5 -104.5t17 -56.5q6 -16 -6 -22l-37 -17q-10 -4 -18 11q-4 4 -33 36.5t-65.5 71.5t-72.5 75t-54 46q-33 18 -73 34.5t-83 18.5l-311 8l-5 -592q23 0 59 2l72 2q36 1 64.5 3t38.5 4q35 6 55.5 21.5t38.5 51.5 q10 20 21.5 53t11.5 62q0 16 16 17l54 -5q14 0 12 -16q-2 -12 -3 -41t-1 -62v-66v-52q0 -61 4 -126t8 -99q0 -12 -16 -15l-45 -8q-10 -2 -17 14q-6 25 -15 54.5t-18 48.5q-14 31 -40.5 50t-61.5 24q-55 6 -121.5 9t-116.5 3l3 -123q0 -41 1 -95.5t2 -106.5t2 -92t1 -54 q0 -80 23.5 -115t58.5 -45q25 -6 62.5 -11t96.5 -5q14 0 37 1t47.5 2t48 2t39.5 3q29 4 78 19.5t90 49.5q14 12 40 41t54.5 62t55 64.5t41.5 50.5q10 14 22 8l33 -21q6 -4 6 -11q0 -4 -2 -9l-98 -307q-10 -31 -45 -31q-8 0 -47 1t-135 3q-98 0 -261 1t-421 1q-57 0 -99.5 -1 t-75.5 -1q-31 -2 -52 -3t-36 -1q-16 0 -16 16z" />
<glyph unicode="F" horiz-adv-x="1286" d="M61 1384v60q0 12 17 12q8 0 27.5 -1t58.5 -2t98.5 -2t147.5 -1h52q46 0 112.5 1t146.5 1t155.5 1t138.5 1h95q29 0 50.5 4t27.5 4q12 -6 12 -28q2 -12 14.5 -63.5t26.5 -110t25.5 -108.5t15.5 -58q1 -4 1 -7q0 -7 -7 -10l-39 -16q-8 -4 -25 16q-16 29 -54 78t-93 111 q-25 35 -61.5 59.5t-77.5 34.5q-20 4 -73.5 7t-116 6t-121 4t-87.5 1v-655h54q33 0 65.5 2t60 3t40.5 5q57 6 108 80q12 20 21.5 48t15.5 57q4 16 16 16l41 -4q12 0 13 -12q-2 -14 -3.5 -48t-1.5 -72v-71v-43q0 -55 4.5 -118.5t8.5 -94.5q2 -16 -13 -20l-45 -9q-14 0 -16 17 q0 6 -4 18t-8 27.5t-9.5 30t-9.5 20.5q-39 72 -102 84q-59 10 -124 11t-112 1v-510q0 -43 14.5 -54t51.5 -11h111q16 0 16 -15v-51q0 -16 -16 -16t-84 3t-220 3q-139 0 -203.5 -3t-86.5 -3q-12 0 -13 14v55q0 12 13 13h82q37 0 51 8t16 35q0 14 1 68.5t2 140.5t2 197.5 t1 244.5v143q0 33 -1 97.5t-1 130t-1 117t-1 59.5q0 57 -82 57h-102q-17 0 -17 10z" />
<glyph unicode="G" horiz-adv-x="1710" d="M106 764q0 141 59.5 279.5t174.5 236.5q111 98 253 149.5t329 51.5q147 0 257.5 -37t159.5 -74q18 -14 28.5 -11t21.5 15l24 33q14 20 29 20q16 0 20 -8t4 -20l21 -410q0 -27 -8 -28l-49 -9q-14 -2 -21 17q-23 61 -62.5 139t-101.5 143q-53 55 -138 99.5t-202 44.5 q-96 0 -180 -32t-168 -128q-74 -84 -121 -206t-47 -257q0 -182 47 -330.5t137 -238.5q74 -72 152 -106t176 -34t161.5 12.5t117.5 41.5q35 18 42 63t7 125v150q0 55 -16.5 74.5t-57.5 19.5h-86q-16 0 -16 18v47q0 16 12 17q18 0 91 -3t200 -3q129 0 187.5 3t74.5 3 q20 0 20 -15v-51q0 -16 -16 -16h-70q-29 0 -45 -15.5t-16 -60.5v-270q0 -23 4 -38t4 -28q0 -20 -33 -33q-63 -33 -126.5 -57t-134 -41.5t-149.5 -27t-171 -9.5q-76 0 -158 13.5t-161 42t-149.5 73.5t-121.5 109q-96 104 -142.5 239.5t-46.5 317.5z" />
<glyph unicode="H" horiz-adv-x="1757" d="M57 1393v43q0 6 4.5 13t16.5 7q14 0 34.5 -1t55.5 -2t86 -2t127 -1q139 0 202.5 3t92.5 3q20 0 20 -18v-43q0 -20 -20 -21h-74q-55 0 -68.5 -26.5t-15.5 -85.5q0 -10 -2 -59.5t-4 -108t-3 -111.5t-1 -74v-82q0 -29 24 -28h676q25 0 33 6t8 22v62q0 27 -1 87t-3 123.5 t-4 114t-2 58.5q-2 49 -11 75.5t-44 26.5h-94q-16 0 -17 19v47q0 16 17 16q29 0 98 -3t192 -3q117 0 181.5 3t89.5 3q16 0 20 -5t4 -13v-43q0 -10 -4 -15.5t-20 -5.5h-74q-47 0 -56.5 -25.5t-9.5 -78.5q0 -10 -1 -60.5t-1 -112t-1 -118.5t-1 -82v-221q0 -35 1 -100.5 t1 -139.5t1 -144.5t1 -113.5q0 -55 17.5 -78.5t64.5 -23.5h82q16 0 17 -15v-47q0 -20 -21 -20q-25 0 -86 3t-192 3q-72 0 -122 -1t-86 -2t-61.5 -2t-46.5 -1q-10 0 -13 6t-3 12v47q0 16 16 17h111q37 0 44 25.5t9 66.5q2 37 3 108.5t2 145.5t2 134t1 75v57q0 25 -45 25h-667 q-29 0 -29 -27v-88q0 -29 1 -83t2 -118.5t2 -131t3 -120.5q2 -70 70 -69h73q20 0 21 -15v-47q0 -20 -21 -20q-29 0 -88 3t-186 3q-76 0 -127 -1t-85 -2t-55.5 -2t-35.5 -1q-20 0 -21 18v47q0 16 21 17h106q37 0 47.5 30.5t10.5 65.5q0 37 1 95.5t1 124t1 130t1 113.5v262 q0 23 -1 76t-1 109.5t-1 102.5t-1 58q0 78 -14.5 104.5t-63.5 26.5h-90q-21 1 -21 19z" />
<glyph unicode="I" horiz-adv-x="794" d="M53 1389v53q0 14 13 14q18 0 99 -3t232 -3q74 0 124 1t84 2t53.5 2t29.5 1q16 0 17 -18v-47q0 -16 -17 -17h-78q-35 0 -56.5 -13t-21.5 -42v-43q0 -37 -1 -89t-1 -113.5t-1 -115t-1 -91.5v-44v-159v-44q0 -38 1 -93.5t1 -119t1 -119t1 -93.5v-45q0 -49 23 -61.5t59 -12.5 h86q16 0 17 -15v-51q0 -16 -21 -16q-18 0 -85.5 3t-213.5 3q-154 0 -226.5 -3t-88.5 -3t-16 14v55q0 12 16 13h82q31 0 59.5 9t34.5 50q0 6 1 45t2 94.5t2 121t2 128t1 113.5v80v143q0 18 -1 86t-2 144.5t-2 140t-1 74.5q-4 37 -22.5 53t-61.5 16h-106q-17 1 -17 15z" />
<glyph unicode="J" horiz-adv-x="716" d="M-188 -315q0 49 32.5 83.5t85.5 34.5q68 0 109 -42t63 -97q35 4 65 37t46 86q10 37 16.5 107.5t9.5 157.5t3 182.5t-1 182.5t-2 156.5t-1 106.5v143v41v80q0 47 -1 101.5t-2.5 104.5t-2.5 92t-3 63q-4 35 -19 52t-71 17h-82q-12 0 -12 10v56q0 16 12 16q8 0 28.5 -1 t57.5 -2t92.5 -2t137.5 -1q72 0 123 1t84.5 2t54 2t33.5 1q16 0 16 -14v-51q0 -16 -16 -17h-86q-43 0 -58.5 -13t-17.5 -42q0 -12 -1 -63.5t-2 -127t-2 -168t-1 -186.5v-94q0 -96 -1 -181t-3 -151.5t-3 -112t-1 -63.5q0 -90 -16.5 -167t-65.5 -161q-35 -55 -82 -108 t-103.5 -94t-123 -67t-142.5 -26q-16 0 -42 7.5t-49.5 24t-39.5 42t-16 62.5z" />
<glyph unicode="K" horiz-adv-x="1474" d="M111 8v55q0 12 12 13h74q51 0 55 39q0 6 1 71.5t2 160.5t2 205t1 206v119v44q0 36 -1 84t-1 102t-1 101t-1 80v37q0 18 -12.5 33.5t-48.5 15.5h-62q-16 0 -16 15v55q0 12 16 12q8 0 25.5 -1t48.5 -2t77 -2t111 -1q121 0 176.5 3t77.5 3q16 0 17 -14v-51q0 -16 -17 -17 h-65q-31 0 -46.5 -12t-15.5 -47q0 -12 -1 -70.5t-3 -130.5t-3 -142.5t-1 -107.5v-90h37q35 0 69 29q10 8 43 47t78 92t94.5 114.5t93.5 116t73.5 92.5t35.5 46q23 31 9.5 48t-41.5 17h-31q-10 0 -10 15v49q0 16 12 16q18 0 78.5 -3t163.5 -3q61 0 109 3t67 3q16 0 16 -14 v-51q0 -16 -16 -17h-41q-23 0 -53.5 -7t-61.5 -28q-25 -16 -62.5 -52t-82.5 -83t-93.5 -100t-91.5 -103.5t-78.5 -93.5t-54.5 -67q20 -27 65.5 -84.5t102.5 -131t119.5 -153.5t119 -151.5t98.5 -124t56 -70.5q29 -35 64 -42t59 -7h45q16 0 17 -15v-51q0 -16 -17 -16 q-16 0 -78.5 3t-203.5 3q-129 0 -192.5 -3t-86.5 -3q-12 0 -12 16v51q0 12 12 13h29q29 0 34 20.5t-1 32.5q-6 10 -34 52t-68 100.5t-86 125t-87 124t-71.5 98.5t-39.5 49q-29 29 -69 29h-37v-152q0 -39 1 -106.5t2 -136t2 -123t1 -66.5q2 -23 15.5 -34t31.5 -11h78 q16 0 16 -10v-56q0 -16 -12 -16q-18 0 -74.5 3t-187.5 3q-133 0 -189.5 -3t-72.5 -3q-12 0 -12 14z" />
<glyph unicode="L" horiz-adv-x="1372" d="M78 12v47q0 10 1 13.5t11 3.5h82q55 0 70.5 17.5t15.5 37.5q0 8 1 53t1 109.5t2 140.5t2 147.5t1 131t1 90.5v115q0 49 -1 110.5t-2 117.5t-2 99t-3 55q-4 41 -14.5 57.5t-50.5 16.5h-87q-10 0 -13 7.5t-3 11.5v47q0 16 16 16t79 -3t204 -3q166 0 238.5 3t85.5 3 q20 0 20 -18v-47q0 -16 -20 -17h-111q-47 0 -58.5 -17.5t-11.5 -58.5q0 -10 -1 -66t-3 -130t-3 -152t-1 -131v-176v-49v-94q0 -55 1 -121t2 -125t2 -107.5t3 -70.5h115h90q47 0 93.5 1t88.5 3t72 6q43 6 87 49t82 98.5t66.5 109.5t39.5 83q6 6 10 9t14 -1l37 -12q4 -4 4 -21 q-2 -4 -9 -30.5t-17.5 -67.5t-22.5 -89t-22.5 -92t-18.5 -79t-12 -49q-14 0 -67.5 1t-130.5 2t-170 1t-183 1t-170 1h-131q-139 0 -201.5 -3t-81.5 -3q-12 0 -14 4t-2 14z" />
<glyph unicode="M" horiz-adv-x="2039" d="M25 12v51q0 4 1 8.5t11 4.5h94q27 0 44.5 12t29.5 32.5t18 47.5t10 53q4 35 8.5 97.5t8.5 135t6 149.5t4 140.5t3 108.5t1 53v350q0 55 -16.5 87t-83.5 32h-90q-16 0 -17 15v55q0 4 3 8t14 4q8 0 23.5 -1t48 -2t85 -2t134.5 -1q74 0 117.5 3t62.5 3q35 0 49 -35 q18 -49 52 -133t76 -185.5t87 -211t86 -208.5t73.5 -180t47.5 -122q6 14 33.5 75.5t61.5 140.5t67.5 156.5t54.5 123.5q8 20 28.5 67t45 104.5t51 120t50.5 115.5t39 92t17 49q4 16 23.5 20.5t56.5 4.5h185q72 0 114.5 2t63 3t30.5 1q12 0 13 -18v-43q0 -20 -17 -21h-90 q-41 0 -49 -23.5t-10 -56.5q0 -12 -1 -50t-1 -90v-111v-111v-92v-54v-143q0 -47 1 -118.5t1 -142.5t1 -127t1 -69q2 -59 15.5 -84.5t41.5 -25.5h111q10 0 11 -5t1 -10v-47q0 -10 -2 -15t-14 -5q-18 0 -93 3t-210 3q-152 0 -218.5 -3t-89.5 -3q-16 0 -16 18v47q0 16 16 17 h127q29 0 42.5 13t17.5 58q0 8 1 60.5t2 125.5t2 152.5t1 141.5v114v64v113v133q0 70 -1 129t-2 98t-1 41h-8q-4 -8 -27 -57.5t-53.5 -120t-66.5 -153.5t-67.5 -155.5t-55 -127t-29.5 -66.5q-8 -16 -29 -63.5t-47.5 -108.5t-56 -129t-55 -126t-43 -98t-19.5 -44 q-6 -12 -17.5 -28.5t-27.5 -16.5q-20 0 -33 36q-2 2 -23.5 52.5t-52.5 123t-66.5 158.5t-66.5 161t-52.5 128t-25.5 61q-10 23 -29.5 74t-46 112.5t-54 128t-52.5 123t-43.5 95.5t-24.5 45q-2 -8 -4 -51t-3 -104.5t-1 -131t-1 -130t-1 -103.5v-49v-37v-76v-99 q0 -54 2 -108.5t3 -103.5t5 -82q6 -72 28 -122t71 -50h90q16 0 16 -15v-51q0 -16 -20 -16q-16 0 -66.5 3t-167.5 3q-133 0 -191.5 -3t-74.5 -3q-12 0 -14 4t-2 14z" />
<glyph unicode="N" horiz-adv-x="1654" d="M29 1389v55q0 12 12 12q8 0 21.5 -1t41.5 -3q29 -2 72 -2h111q27 0 49 1t41 3q20 0 33.5 1t23.5 1q18 0 28.5 -4t20.5 -14q4 -6 38 -47t82 -100.5t103.5 -129t105.5 -133t87 -111t47 -61.5q6 -8 36 -43t69 -84t84 -105.5t85 -105.5t69.5 -86t37.5 -47h8v213v122v100 q0 46 -1 85t-3 78q-2 29 -4 77t-5 96t-6 88t-7 52q-10 37 -41 57.5t-68 20.5h-65q-10 0 -11.5 5t-1.5 14v47q0 10 2 13t15 3q18 0 71.5 -3t157.5 -3q92 0 135 3t62 3q20 0 20 -14v-47q0 -20 -12 -21h-57q-59 0 -68 -108q-4 -53 -9 -138.5t-10.5 -182.5t-8.5 -195.5 t-3 -176.5v-540q0 -23 -3 -40.5t-21 -17.5q-23 0 -40.5 10.5t-29.5 22.5q-6 8 -28.5 34t-56.5 65.5t-78 91t-91 108.5q-53 66 -107.5 132.5t-100.5 121.5t-78.5 95t-41.5 53q-8 6 -36.5 41.5t-68.5 85t-86 106.5t-86 106.5t-68.5 84t-35.5 43.5h-12v-250q0 -131 3 -248 t6 -209t6.5 -154.5t5.5 -87.5q4 -78 25.5 -114.5t76.5 -36.5h53q12 0 14.5 -5t2.5 -14v-47q0 -10 -2 -13t-15 -3q-8 0 -32.5 1t-56.5 2t-67.5 2t-64.5 1q-20 0 -53 -1l-66 -2q-33 -1 -59.5 -2t-34.5 -1q-12 0 -12 18v51q0 4 3 8.5t9 4.5h70q41 0 62.5 38t29.5 132 q0 14 3 71.5t5 145.5t4 199.5t2 234.5v260q0 92 -46 154.5t-114 62.5h-65q-12 3 -12 15z" />
<glyph unicode="O" horiz-adv-x="1740" d="M106 711q0 45 8.5 103t29 125t57.5 137.5t94 142.5q68 82 141.5 134t148 79.5t148.5 38t139 10.5q57 0 116 -6.5t120 -24.5t122.5 -50t125.5 -83q57 -47 108.5 -108.5t89 -137.5t59 -166t21.5 -194q0 -115 -33.5 -230.5t-117.5 -220.5q-49 -61 -108.5 -114.5 t-133.5 -92.5t-166 -61.5t-207 -22.5q-92 0 -216 31t-246 104q-55 33 -108.5 90.5t-95.5 135.5t-69 174t-27 207zM385 780q0 -201 54.5 -338t131 -222t162.5 -123t152 -38q102 0 178 35t129 90.5t87 126t52.5 140t25.5 133t7 106.5q0 168 -50 298t-126 219t-163 136.5 t-161 47.5q-14 0 -42 1h-5q-26 0 -61 -9q-39 -9 -87 -32.5t-100 -74.5q-47 -45 -81.5 -105.5t-57 -126t-34 -134.5t-11.5 -130z" />
<glyph unicode="P" horiz-adv-x="1259" d="M66 1389v51q0 16 12 16q18 0 83.5 -3t219.5 -3q14 0 41 1t59 2l66 2q33 1 59 1q92 0 163 -5t127 -16.5t102 -32t92 -50.5q72 -53 113.5 -134t41.5 -178q0 -193 -141 -303t-404 -110q-53 0 -98 1t-86 7v-90v-101v-128q0 -65 1 -114.5t1 -60.5q8 -66 64 -65h114 q12 0 14.5 -5t2.5 -10v-47q0 -10 -2 -15t-15 -5q-10 0 -29.5 1t-55.5 2t-92 2t-138 1q-135 0 -200.5 -3t-82.5 -3q-12 0 -14 5t-2 9v51q0 10 1 13.5t11 3.5h66q53 0 70.5 11t21.5 52q0 8 1 65.5t2 141.5t2 182.5t1 188.5v237v113v117q0 55 -1 96t-1 49q-4 27 -20.5 36 t-51.5 9h-106q-12 1 -12 15zM516 709q29 -10 68 -13.5t80 -3.5q33 0 68.5 12.5t69.5 32t61.5 44t45.5 50.5q31 47 40 102.5t9 110.5q0 104 -36.5 171t-88 105t-106.5 52t-92 14q-29 0 -61.5 -1t-57.5 -13v-663z" />
<glyph unicode="Q" horiz-adv-x="1740" d="M106 735q0 158 61.5 299.5t172.5 245.5q59 53 129 92t139.5 63.5t133.5 35.5q55 10 102 10h16h25q185 0 316 -58q140 -61 237 -163q104 -111 152 -244t48 -271q0 -164 -62.5 -305t-154.5 -231t-175 -140.5t-185 -80.5v-8q141 -57 279.5 -97.5t310.5 -79.5 q143 -31 236 -46t151.5 -21t89.5 -6h51q47 0 84 18.5t55 34.5q12 12 21 4l24 -25q3 -3 4 -7q0 -6 -8 -13q-12 -18 -43.5 -53t-73.5 -70t-91.5 -60.5t-94.5 -25.5q-33 0 -77 3t-103 13.5t-139 29t-185 48.5q-84 25 -172 55.5t-186 70.5t-209 90.5t-240 115.5q-16 8 -60 19.5 t-105.5 36t-134 69.5t-142.5 121q-84 84 -140.5 218t-56.5 312zM385 778q0 -104 19.5 -195t48 -165t64.5 -130.5t69 -90.5q41 -43 84 -72t82 -45.5t70.5 -23.5t54.5 -7q96 0 169.5 35t128 90t90 126t56 140.5t30 134t9.5 107.5q0 186 -52.5 325.5t-123.5 219.5 q-78 86 -159 125t-177 39q-80 0 -155 -32t-136 -91q-51 -49 -85 -107.5t-53.5 -123t-26.5 -131.5t-7 -128z" />
<glyph unicode="R" horiz-adv-x="1464" d="M102 12v47q0 16 13 17h69q35 0 56.5 13t21.5 54q4 154 4 299v291v539q0 53 -18.5 77.5t-46.5 24.5h-80q-14 0 -15 12v56q0 14 15 14q6 0 22.5 -1t48 -2t83 -2t126.5 -1q43 0 96.5 1t105.5 2t96 2t67 1q123 0 217 -37t156 -92q55 -49 82.5 -109.5t27.5 -119.5 q0 -96 -27.5 -166t-77.5 -118t-121 -75.5t-155 -42.5v-8q43 -16 72 -40.5t51 -53.5q8 -12 34 -49t53.5 -79t51 -78t29.5 -44q4 -8 27.5 -41t52.5 -73t55.5 -74.5t38.5 -44.5q29 -27 69 -33t77 -6q16 0 16 -15v-43q0 -20 -16 -20q-12 0 -57.5 3t-143.5 3q-43 0 -94 -2t-86 -4 q-18 14 -44 49t-46 68q-14 20 -35 56t-40.5 71.5t-36.5 66.5t-24 43q-8 14 -21 37t-28.5 48.5t-32 50t-28.5 40.5q-39 53 -79 90t-105 37q-6 0 -28 -1t-38 -3v-110q0 -47 1 -107.5t2 -118t2 -101.5t3 -56q4 -31 16.5 -54.5t36.5 -23.5h103q16 0 16 -15v-49q0 -18 -22 -18 q-10 0 -25.5 1t-45.5 2t-80 2t-130 1q-76 0 -124 -1t-78.5 -2t-45 -2t-22.5 -1q-17 0 -17 18zM516 721q23 -4 41 -6t37 -2q119 0 194.5 42t117.5 99t57.5 116.5t15.5 94.5q0 72 -25.5 133.5t-64.5 95.5q-55 49 -124 68.5t-147 19.5q-53 0 -73 -12q-12 -8 -18.5 -24.5 t-6.5 -34.5z" />
<glyph unicode="S" horiz-adv-x="1130" d="M111 63q0 6 3 35t7 70t8 86t8 86t7 69.5t3 34.5q2 16 13 17l45 -4q12 0 12 -17q4 -49 19.5 -107.5t58.5 -125.5q47 -74 119.5 -111t150.5 -37q41 0 88 13.5t87 43t65.5 75t25.5 108.5q0 70 -16 119t-53 86t-94.5 66.5t-139.5 60.5q-25 8 -60.5 23.5t-76.5 37t-83 49 t-79 62.5q-53 49 -77.5 123.5t-24.5 169.5q0 174 143 286q61 53 131 76t160 23q102 0 164.5 -18.5t93.5 -30.5q27 -10 43 6l27 26q12 12 29 13q16 0 16 -33q0 -12 5 -64.5t11 -111t11.5 -107.5t5.5 -57q0 -12 -13 -14l-32 -11q-14 -4 -21 13q-16 43 -44 100t-83 117 q-41 43 -91 64.5t-122 21.5q-61 0 -105 -21.5t-72 -53.5t-40 -67.5t-12 -64.5q0 -53 10 -98.5t47 -85.5q20 -20 50 -39t64 -35.5t69.5 -30.5t66.5 -22q90 -29 162.5 -64t132.5 -96q49 -53 75.5 -121t26.5 -172q0 -94 -29.5 -177t-86 -144.5t-137.5 -97.5t-181 -36 q-127 0 -207 25.5t-141 73.5q-18 12 -28.5 18t-20.5 6t-16.5 -10t-16.5 -27q-10 -16 -17.5 -20t-19.5 -4q-24 -1 -24 32z" />
<glyph unicode="T" horiz-adv-x="1478" d="M7 1209q15 58 31 120l28 111q12 49 16 59q4 23 11 30t13 7q10 0 16.5 -5t16.5 -15q31 -31 64 -41.5t76 -12.5q41 -2 79.5 -4t84.5 -4t101.5 -3t131.5 -1h110q84 0 144.5 1t106.5 3t83 4t72 4q14 0 34.5 5.5t42 13.5t40 17t30.5 18q12 10 19.5 15t17.5 5q14 0 21 -33 q2 -14 9 -62t16.5 -108.5t19.5 -121t16 -97.5q0 -2 1 -4q0 -11 -9 -14l-41 -15q-8 -2 -18 17q-10 20 -29 53t-41.5 66.5t-47 63.5t-44.5 46q-23 12 -64 19.5t-88 11.5t-92 5t-72 1h-57v-1092q0 -117 16.5 -156.5t53.5 -39.5h118q12 0 13 -19v-43q0 -20 -21 -20q-8 0 -25.5 1 t-52 2t-91 2t-138.5 1q-158 0 -229.5 -3t-93.5 -3q-16 0 -17 18v47q0 16 14 17h117q31 0 48.5 16.5t19.5 38.5q2 12 3 68.5t1 133.5t1 164t1 162v129v64v512h-57h-63q-38 0 -80 -3t-83 -9t-73 -17q-25 -10 -50.5 -38.5t-50 -62.5t-46 -70t-36.5 -62q-12 -18 -22 -15l-41 15 q-9 5 -9 16q0 10 3.5 23t10 33.5t10.5 34.5z" />
<glyph unicode="U" horiz-adv-x="1525" d="M23 1393v47q0 16 20 16q16 0 92 -3t223 -3q129 0 203 3t92 3q16 0 17 -14v-51q0 -16 -17 -17h-86q-47 0 -72.5 -23.5t-27.5 -56.5q0 -10 -1 -35.5t-2 -62.5t-2 -80t-1 -88v-254v-83q0 -44 1 -87t2 -81t3 -62q4 -72 19.5 -138.5t52.5 -115.5q53 -72 128.5 -99.5 t149.5 -27.5q72 0 148.5 25.5t126.5 72.5q119 119 118 346v369q0 61 -3 123.5t-6 116t-7 93.5t-6 58q-4 41 -26.5 65.5t-57.5 24.5h-74q-16 0 -16 15v51q0 16 16 16t82 -3t168 -3q96 0 146.5 3t62.5 3q14 0 17 -4t3 -12v-47q0 -18 -12 -19h-74q-29 0 -44 -9t-24 -22.5 t-12.5 -26.5t-5.5 -22q-2 -6 -2 -31.5t-1 -60.5t-1 -76v-75v-62v-33v-38q0 -31 -1 -76t-2 -98.5t-2 -102.5t-3 -90t-4 -62q-10 -127 -49 -223t-123 -170q-66 -59 -161 -93t-212 -34q-74 0 -154.5 12.5t-140.5 36.5q-178 74 -241 275q-10 33 -17.5 77t-11.5 103t-6 136 t-2 177v486q0 53 -14.5 77.5t-55.5 24.5h-94q-16 1 -16 19z" />
<glyph unicode="V" horiz-adv-x="1474" d="M33 1393v47q0 16 12 16q8 0 26.5 -1t53.5 -2t89 -2t134 -1q145 0 218 3t85 3q20 0 21 -16v-45q0 -20 -17 -21h-98q-41 0 -63.5 -14t-22.5 -37q0 -12 1 -29.5t5 -40.5q6 -29 21.5 -83t35 -117.5t40 -126t36.5 -107.5q10 -29 34 -97.5t50.5 -146t51 -152.5t36.5 -116h4v4 q18 43 49 121t62 158t56.5 147.5t33.5 89.5q12 37 39 105.5t53.5 143.5t47 142.5t20.5 98.5q0 18 -17.5 37.5t-60.5 19.5h-55q-14 0 -15 19v47q0 16 17 16q12 0 77.5 -3t163.5 -3q129 0 179.5 3t62.5 3q16 0 17 -14v-51q0 -16 -17 -17h-49q-37 0 -76 -19.5t-74 -74.5 q-25 -41 -58.5 -114.5t-68 -156.5t-67.5 -162t-53 -130q-10 -23 -36 -83.5t-57.5 -137t-67.5 -162.5l-67 -160q-31 -74 -53 -126t-27 -62q-14 -27 -40 -27q-18 0 -27.5 14.5t-18.5 32.5q-27 66 -68.5 177.5t-86.5 233.5t-87 236.5t-69 186.5q-20 55 -44.5 126.5t-49.5 140.5 t-44.5 124t-27.5 78q-14 35 -33.5 50t-54.5 15h-49q-12 1 -12 19z" />
<glyph unicode="W" horiz-adv-x="2162" d="M-14 1389v53q0 14 16 14q6 0 21.5 -1t46 -2t78 -2t116.5 -1q111 0 174.5 3t79.5 3t17 -14v-51q0 -16 -19 -17h-39q-31 0 -45 -19.5t-4 -51.5l301 -947l4 -2q4 10 26.5 74t55.5 155t70 195.5t67.5 198.5t51 162.5t22.5 89.5q0 29 -10 58.5t-27 49.5q-12 18 -31.5 27.5 t-37.5 9.5h-43q-14 0 -15 15v51q0 16 17 16q12 0 72.5 -3t193.5 -3q129 0 191.5 3t76.5 3t14 -18v-47q0 -16 -14 -17h-72q-31 0 -42 -26.5t-3 -53.5l295 -946h8q14 45 43 127t62 179.5t66.5 203t61.5 198.5t45 162.5t17 98.5q0 23 -16 40t-53 17h-56q-14 0 -14 17v49 q0 16 17 16q16 0 68 -3t149 -3q86 0 133 3t59 3t12 -10v-55q0 -16 -14 -17h-43q-25 0 -49.5 -16.5t-40.5 -50.5q-4 -8 -24.5 -64.5t-53.5 -142.5t-73 -195.5t-81.5 -223.5t-82.5 -225.5t-75 -203.5t-57.5 -156.5t-31.5 -83.5q-6 -16 -18.5 -34.5t-35.5 -18.5t-34 13.5 t-17 31.5l-370 1077h-9q-4 -10 -21.5 -61t-45 -128t-62 -172t-69.5 -193.5t-69 -191.5t-60.5 -167t-43 -120t-18.5 -50q-6 -16 -20.5 -27.5t-32.5 -11.5q-31 0 -41 33l-459 1308q-16 43 -38.5 58.5t-47.5 15.5h-57q-12 1 -12 15z" />
<glyph unicode="X" horiz-adv-x="1437" d="M-35 10v49q0 16 17 17h57q25 0 63.5 15t75.5 48q43 37 94.5 99.5t106.5 138.5t115.5 160t121.5 163q-23 33 -59.5 91.5t-79.5 127t-88 139t-85 131t-68.5 103.5t-40.5 54q-16 16 -44 22t-51 6h-77q-12 0 -13 15v51q0 16 13 16q16 0 89.5 -3t221.5 -3q154 0 224.5 3 t86.5 3t17 -16v-47q0 -18 -21 -19h-57q-47 0 -57.5 -20.5t-2.5 -46.5q2 -8 18.5 -39t40 -74t51.5 -92t53.5 -94t46 -80t30.5 -47q18 27 46 65.5t58.5 82.5t61.5 90t56.5 85t43 67.5t19.5 41.5q4 23 -5.5 42t-46.5 19h-47q-14 0 -14 17v49q0 16 12 16q18 0 80 -3t166 -3 q86 0 139 3t70 3q16 0 16 -14v-53q0 -14 -16 -15h-66q-37 0 -61.5 -7t-48.5 -24q-18 -14 -67.5 -72.5t-111 -138t-126 -165.5t-113.5 -156q20 -35 57 -94.5t80 -129t90 -144t89 -138t73 -112t45 -64.5q29 -35 61.5 -44t61.5 -9h66q16 0 16 -15v-49q0 -18 -18 -18 q-6 0 -23.5 1t-51.5 2t-88.5 2t-133.5 1q-123 0 -201 -3t-90 -3q-16 0 -17 18v47q0 16 13 17h53q35 0 49 8t10 31q-2 6 -20.5 40.5t-46 84t-61.5 108t-66.5 112.5t-59 99t-39.5 68q-20 -31 -49.5 -75t-63.5 -93t-68 -100.5t-61.5 -95.5t-46 -75.5t-20.5 -42.5 q-8 -31 5.5 -50t41.5 -19h70q16 0 16 -17v-47q0 -18 -16 -18t-79.5 3t-186.5 3q-92 0 -149.5 -3t-69.5 -3q-15 0 -15 16z" />
<glyph unicode="Y" horiz-adv-x="1433" d="M23 1389v55q0 12 16 12q12 0 83 -3t187 -3q78 0 132.5 1t90 2t54 2t26.5 1q16 0 17 -14v-47q0 -20 -17 -21h-53q-58 0 -58 -49q0 -19 20 -60q19 -40 49 -98.5t65 -126t68.5 -132t61.5 -118t42 -81.5q16 29 48 80t70 112.5t75.5 127t69.5 121.5t52.5 97t22.5 53 q4 29 -9.5 51.5t-60.5 22.5h-53q-16 0 -16 17v51q0 14 12 14q16 0 78.5 -3t171.5 -3q98 0 139 3t57 3t17 -14v-47q0 -20 -17 -21h-45q-23 0 -54.5 -10t-55.5 -37q-8 -10 -39 -55t-75 -111.5t-95 -144.5t-98.5 -153t-86 -137t-57.5 -95v-250q0 -29 1 -67t2 -72.5t2 -61 t1 -35.5q4 -49 26.5 -59t53.5 -10h68q14 0 14 -15v-47q0 -20 -14 -20q-16 0 -83 3t-206 3q-76 0 -127 -1t-84 -2t-50.5 -2t-23.5 -1q-14 0 -14 18v47q0 16 14 17h84q41 0 55.5 14t16.5 37t4 129t2 252v98q-8 14 -39 69.5t-73 129.5t-90 159t-92 159.5t-78.5 131t-49.5 74.5 q-18 23 -48 34t-54 11h-37q-16 1 -16 15z" />
<glyph unicode="Z" horiz-adv-x="1441" d="M59 18q0 20 13 39q238 330 474 658.5t472 660.5h-475q-23 0 -47.5 -7t-53.5 -28q-16 -10 -53 -48t-77 -84t-75.5 -90t-50.5 -66q-10 -16 -24 -9l-29 17q-8 0 -8 16l131 365q4 14 11 18t14 4q10 0 21 -1t24 -3q37 -4 104.5 -6t146 -3t159.5 -1h147q78 0 144.5 2t125.5 2 q53 4 100 6t76 2q23 0 30 -16t-5 -33q-244 -336 -482.5 -667.5t-480.5 -667.5h545q25 0 66.5 1t64.5 11q27 10 71 51t88 89.5t80.5 90t47.5 56.5q10 10 24 4l33 -16q7 -7 7 -10q0 -4 -3 -11q-10 -16 -32.5 -66.5t-46 -106.5t-44.5 -108l-28 -71q-8 -23 -29 -23q-12 0 -49 6 q-43 6 -120 10.5t-166 7.5t-180 5t-161 2h-469q-31 0 -31 18z" />
<glyph unicode="[" horiz-adv-x="720" d="M172 -332v1837q0 16 5 20.5t16 4.5h430q6 0 9 -4t3 -8v-50q0 -16 -17 -16h-229q-20 0 -20 -22v-1678q0 -29 16 -28h254q16 0 16 -17v-45q0 -16 -16 -16h-442q-25 -1 -25 22z" />
<glyph unicode="\" horiz-adv-x="745" d="M12 1430q-6 18 4 24l95 41q10 4 13 -1t7 -11l602 -1446q6 -20 -4 -25l-94 -41q-10 -4 -19 13z" />
<glyph unicode="]" horiz-adv-x="720" d="M66 -293q0 10 2 13.5t14 3.5h258q12 0 12 22v1681q0 16 -5 20.5t-15 4.5h-230q-16 0 -16 16v50q0 12 12 12h430q20 0 21 -21v-1839q0 -25 -25 -24h-438q-20 0 -20 16v45z" />
<glyph unicode="^" d="M37 512l434 856h82l434 -856h-156l-319 643h-8l-316 -643h-151z" />
<glyph unicode="_" d="M0 -154h1024v-102h-1024v102z" />
<glyph unicode="`" horiz-adv-x="565" d="M63.5 1283q8.5 26 29 43t48.5 17q35 0 60.5 -18t44.5 -47l164 -246q6 -6 0 -12l-29 -25q-6 -6 -12 0l-265 185q-31 20 -40 48.5t-0.5 54.5z" />
<glyph unicode="a" horiz-adv-x="907" d="M74 596q0 43 23.5 88t70.5 80q66 49 147.5 82t184.5 33q43 0 72.5 -4.5t51 -12.5t36 -18t28.5 -23q35 -31 42 -71.5t7 -81.5l4 -324v-98q0 -84 12.5 -114t41.5 -30q23 0 41 10.5t24 22.5q6 10 10 11t11 -3l24 -16q9 -6 9 -14q0 -7 -5 -19q-8 -14 -21.5 -34.5t-36 -39 t-54 -32t-76.5 -13.5q-59 0 -104.5 30t-67.5 95h-8q-35 -37 -77 -63.5t-102 -46.5q-35 -10 -67.5 -12.5t-63.5 -2.5q-57 0 -99 45.5t-42 131.5q0 72 39 137t150 114q96 47 155.5 75t93.5 52v107q-4 31 -9 63.5t-23 51.5q-16 16 -42 23t-61 7q-29 0 -61.5 -9t-57.5 -28 q-10 -8 -13 -17t-2 -21.5t4 -27.5t3 -34q0 -55 -28.5 -87t-94.5 -32q-29 0 -49 17.5t-20 52.5zM303 213q0 -63 28.5 -94t65.5 -31q20 2 44 12.5t43.5 24.5t31.5 30.5t12 30.5v269q-35 -23 -73.5 -41.5t-72.5 -45t-56.5 -63.5t-22.5 -92z" />
<glyph unicode="b" horiz-adv-x="1062" d="M2 1305v20q0 10 21 16q31 10 66.5 25.5t72.5 31t69.5 31t57.5 27.5q23 12 36 18.5t25 6.5q27 0 21 -33q0 -6 -1 -49t-3 -104.5t-4.5 -134.5t-2.5 -140l-2 -246q53 51 128 78t153 27q96 0 174 -48.5t125 -123.5q29 -43 44 -106.5t15 -149.5q0 -84 -34.5 -169t-96 -153 t-143.5 -111t-176 -43q-92 0 -155.5 15.5t-106.5 38.5l-80 -47q-8 -4 -14.5 -5.5t-12.5 -1.5l-28 9q-8 4 -9 16q2 10 3 45t2 84t1 107v112l-4 748q0 51 -4 83.5t-15 52t-27.5 30t-41.5 18.5l-24 8q-18 4 -23.5 7.5t-5.5 9.5zM358 442q0 -66 1 -111.5t4.5 -79.5t8.5 -59.5 t15 -48.5q18 -37 58 -64.5t94 -27.5q49 0 100 22.5t86 82.5q33 55 43 108t10 121q0 180 -68.5 275.5t-191.5 95.5q-43 0 -84 -15.5t-76 -46.5v-252z" />
<glyph unicode="c" horiz-adv-x="856" d="M66 393q0 98 36.5 196.5t114.5 170.5q131 119 299 119q88 0 145.5 -20.5t89 -49.5t44 -60.5t12.5 -54.5q0 -37 -23.5 -63.5t-66.5 -26.5q-53 0 -80 31t-43 72q-23 53 -54.5 68.5t-72.5 15.5q-31 0 -63.5 -16.5t-59.5 -47.5t-44 -75t-17 -99q0 -47 2 -87t9 -79t23.5 -79 t44.5 -87q41 -68 101.5 -89t109.5 -21q78 0 129.5 22.5t92.5 54.5q8 8 18 -2l25 -28q5 -5 5 -11.5t-5 -13.5q-18 -25 -54 -52.5t-82.5 -51t-99.5 -39t-110 -15.5q-104 0 -186.5 31t-141.5 105t-78.5 139t-19.5 143z" />
<glyph unicode="d" horiz-adv-x="1083" d="M66 377q0 106 31.5 195.5t111.5 175.5q61 66 136 98.5t167 32.5q59 0 107.5 -8.5t85.5 -20.5l-7 397q0 27 -5 45.5t-18 32.5t-39 23.5t-67 17.5q-16 6 -16 16v37q0 10 16 17q39 4 81 9t82 9t74 9t54 10q18 4 29.5 6t23.5 2q6 0 11.5 -9.5t1.5 -27.5q-4 -39 -5 -109.5 t-2 -161t-1 -191.5v-200v-446q0 -59 4 -111.5t16 -68.5q16 -18 39.5 -25.5t46.5 -11.5q23 0 30 -3t11 -10l4 -24q2 -5 2 -9q0 -12 -14 -16l-275 -77q-23 -8 -28 20l-29 94q-25 -27 -59.5 -48t-73.5 -36.5t-79 -25t-75 -9.5q-59 0 -123.5 21.5t-121.5 79.5q-66 63 -96.5 133 t-30.5 168zM281 492q0 -88 21.5 -162t56 -127t80.5 -83t93 -30q61 0 100.5 24.5t55.5 49.5q16 33 17 82v358q0 25 -4.5 50.5t-16.5 47.5q-23 39 -69 68t-111 29q-37 0 -75 -12.5t-67 -49.5q-47 -57 -64 -119.5t-17 -125.5z" />
<glyph unicode="e" horiz-adv-x="888" d="M66 424q0 43 3 79t14 71.5t30.5 72.5t52.5 80q63 82 143 117t213 35q88 0 147.5 -39t95.5 -93.5t51 -109.5t15 -86q0 -23 -14 -28t-43 -5h-495v-63q0 -78 25.5 -139.5t64.5 -104.5t86 -65.5t90 -22.5q96 0 155.5 35t92.5 84q10 18 24 10l31 -19q9 -5 9 -13t-9 -27 q-16 -29 -45 -67t-73 -72t-107.5 -56.5t-147.5 -22.5q-98 0 -170 25t-125 86q-72 82 -93 162t-21 176zM285 592h247q68 0 68 29q0 23 -5 54.5t-18.5 60t-39 48t-64.5 19.5q-147 0 -188 -211z" />
<glyph unicode="f" horiz-adv-x="645" d="M39 10v47q0 12 20 13h82q31 0 42.5 17t11.5 52v613h-140q-12 0 -10 22l8 70q0 10 27 10h115v41q0 158 42 262.5t109 175.5q84 80 168 114t176 34q84 0 142.5 -31t58.5 -96q0 -43 -36 -71t-67 -28q-18 0 -35.5 3.5t-29.5 13.5q-18 6 -32.5 21.5t-24.5 31.5q-35 53 -82 53 q-37 0 -68 -12t-59 -53q-20 -29 -29.5 -71t-13.5 -94t-4 -111v-115v-68h243q12 0 14.5 -6t2.5 -12l-11 -74q-2 -10 -26 -10h-223v-179v-131v-132v-112q0 -50 2 -71q6 -57 57 -57h94q20 0 21 -19v-37q0 -20 -13 -20q-10 0 -72.5 3t-197.5 3q-92 0 -162.5 -3t-83.5 -3 q-16 0 -16 16z" />
<glyph unicode="g" horiz-adv-x="1011" d="M20 -332q0 41 19.5 77t50.5 64.5t69 50t74 38.5v12q-68 16 -103.5 59t-35.5 92q0 41 18.5 75t46 60.5t58.5 45t53 28.5v4q-29 16 -60.5 42t-57 63t-42 86t-16.5 115q0 51 22.5 104t68.5 96t118 71t170 28q66 0 115 -15.5t83 -35t53 -38.5l28 -28q37 29 85 52.5t89 23.5 q57 0 84 -29q23 -25 23 -59q0 -5 -1 -11q0 -31 -23.5 -56.5t-58.5 -25.5q-23 0 -38 9.5t-25 19.5q-12 10 -24.5 17.5t-24.5 7.5q-10 0 -23.5 -1t-26.5 -12q10 -18 17.5 -52t7.5 -83q0 -59 -19.5 -118.5t-66.5 -108.5q-49 -53 -118.5 -73.5t-141.5 -20.5q-35 0 -59.5 1 t-57.5 7q-29 -12 -58.5 -39t-29.5 -64q0 -61 62 -70q37 -6 100 -6q42 0 96 3q35 2 67 2q74 0 132 -10q82 -14 149 -70q61 -47 82 -100.5t21 -100.5q0 -68 -30 -126t-97 -111q-25 -20 -64 -41t-90 -38.5t-113 -27.5q-52 -9 -111 -8h-24q-74 0 -163 12.5t-156 50.5 q-55 33 -79 73t-24 89zM203 -287q0 -43 22.5 -84t50.5 -57q25 -14 48.5 -23.5t51 -15.5t61.5 -8t79 -2q39 0 88 11t92 34.5t72 57.5t27 79q0 90 -68 140q-60 45 -184 45q-15 0 -31 -1l-184 -12q-43 -12 -84 -57.5t-41 -106.5zM299 520q0 -49 12.5 -94t38.5 -68 q23 -23 48.5 -34t68.5 -11q39 0 66.5 24.5t44 64.5t23.5 91.5t7 106.5q0 61 -14 101t-31 61q-14 16 -36.5 28.5t-59.5 12.5q-68 0 -111 -51q-35 -43 -46 -108t-11 -124z" />
<glyph unicode="h" horiz-adv-x="1116" d="M27 1300v21q0 6 5 10t23 15q23 6 59 20t73.5 32.5t73.5 36t61 29.5q18 6 29 11.5t28 5.5q23 0 16 -49q-2 -10 -2 -47t-1 -90.5t-1 -114.5v-120v-107v-72v-127h12q43 59 118 92t147 33q68 0 112.5 -20.5t91.5 -61.5q35 -31 53.5 -66t27 -72.5t9.5 -78.5t1 -84v-123v-271 q0 -23 22.5 -27.5t46.5 -4.5h37q20 0 21 -15v-45q0 -16 -17 -16q-10 0 -59 3t-144 3q-92 0 -146 -3t-71 -3q-16 0 -16 14v49q0 12 14 13h35q18 0 35.5 8t21.5 33q2 10 3.5 33.5t1.5 52.5v59v55v138q0 80 -6.5 156.5t-47.5 117.5q-25 25 -51.5 37t-62.5 12q-41 0 -79 -19.5 t-73 -54.5q-12 -16 -24.5 -43.5t-12.5 -56.5v-442q0 -49 7.5 -67.5t29.5 -18.5h49q20 0 21 -19v-37q0 -20 -17 -20q-12 0 -72.5 3t-140.5 3q-96 0 -152.5 -3t-68.5 -3q-16 0 -16 16v45q0 14 18 15h51q25 0 44.5 7t23.5 25q2 14 4 43t4 64t2 74v73l-4 731q0 86 -21.5 124 t-72.5 61l-37 12q-16 6 -16 16z" />
<glyph unicode="i" horiz-adv-x="555" d="M35 14v39q0 16 20 17h90q16 0 23.5 8t9.5 33q2 47 3 94t1 90v289q0 45 -18.5 76.5t-87.5 50.5q-14 4 -17.5 8t-3.5 10v23q0 10 15 16q10 4 48 18.5t82 29.5t84 29.5t52 20.5q31 12 49 13q18 0 16 -25q-4 -25 -4 -115v-219v-221v-109q0 -49 4 -67q6 -53 33 -53h82 q20 0 21 -15v-41q0 -20 -17 -20q-12 0 -77.5 3t-170.5 3q-90 0 -146 -3t-75 -3q-16 0 -16 20zM127 1204q0 45 38 80t99 35t91 -36t30 -71q0 -45 -31.5 -83.5t-101.5 -38.5q-47 0 -86 30.5t-39 83.5z" />
<glyph unicode="j" horiz-adv-x="528" d="M-178 -446q0 31 24.5 66.5t65.5 35.5q37 0 64.5 -20.5t50.5 -49.5q18 -25 31.5 -35t29.5 -10q70 0 80 148q8 104 10 228q1 62 1 120.5t-1 114.5l-4 403q0 33 -4 53.5t-16.5 35.5t-32 26.5t-49.5 23.5l-21 8q-12 6 -12 17v20q0 10 16 17q10 4 50 18t86 33l88 35 q41 16 51 24q18 10 30.5 11.5t22.5 1.5q23 0 16 -33q-4 -16 -6 -112.5t-2 -237.5v-254q0 -47 -1 -107.5t-4 -124t-9 -123t-15 -100.5q-16 -78 -55 -140.5t-91 -108.5t-115.5 -70.5t-127.5 -24.5q-61 0 -106 29t-45 82zM113 1221q0 20 10 42.5t29.5 42t49 32t66.5 12.5 q49 0 92 -34t43 -95q0 -49 -37.5 -90t-109.5 -41q-53 0 -98 32.5t-45 98.5z" />
<glyph unicode="k" horiz-adv-x="1044" d="M35 1325v29q0 14 28 20q20 4 60.5 17.5t80.5 28t73.5 25.5t44.5 15q47 20 61 21q12 0 15 -7.5t1 -25.5q-4 -37 -6 -107.5t-3 -159.5t-2 -187.5t-1 -190.5v-311q18 0 42 6t40 18q18 16 47 45t56.5 59.5t51 58.5t33.5 42q14 20 15 37q0 10 -10.5 18t-28.5 8h-19 q-14 0 -14 17v43q0 16 16 16q10 0 62.5 -3t142.5 -3q86 0 126 3t52 3q14 0 15 -22v-37q0 -16 -17 -17h-20q-23 0 -57.5 -8t-69.5 -26q-16 -10 -52 -39t-76 -64t-79 -68.5t-59 -54.5q23 -27 82 -91t123.5 -135t121 -129t74.5 -71q25 -16 56.5 -22t50.5 -6q16 0 16 -19v-41 q0 -16 -21 -16q-12 0 -59 3t-149 3q-90 0 -149.5 -3t-72.5 -3q-16 0 -16 20v35q0 16 16 17h17q27 0 20 28q-2 4 -16 25.5t-38 50.5t-51.5 63.5t-54 66.5t-48 57.5t-33.5 39.5q-16 16 -35 20.5t-31 4.5v-303q0 -49 41 -49h45q20 0 21 -19v-41q0 -16 -17 -16q-10 0 -60 3 t-136 3q-98 0 -150.5 -3t-60.5 -3q-14 0 -15 20v39q0 16 21 17h53q23 0 32 15t9 34q2 14 3 52t2 84t1 91v76l-4 739q0 29 -3 51.5t-13.5 41t-32 31.5t-60.5 24q-28 12 -28 16z" />
<glyph unicode="l" horiz-adv-x="532" d="M4 1309v24q0 10 16 17q31 8 74 22t86 30.5t83 33t65 32.5q37 12 45 13q10 0 15 -7.5t5 -29.5q-2 -29 -2 -79t-1 -113.5t-2 -132t-2 -131t-1 -114.5v-79v-295v-88v-107q0 -53 1 -100t3 -70q4 -29 11.5 -47t41.5 -18h78q16 0 20.5 -4.5t4.5 -14.5v-37q0 -20 -13 -20 q-12 0 -76.5 3t-172.5 3q-117 0 -179.5 -3t-74.5 -3q-16 0 -17 20v39q0 10 5.5 13.5t23.5 3.5h78q16 0 33.5 15t17.5 58v562v79q0 53 -1 110.5t-2 110t-2 92.5t-3 60q-4 53 -30 80t-75 43l-41 12q-10 4 -11 7.5t-1 9.5z" />
<glyph unicode="m" horiz-adv-x="1671" d="M63 12v43q0 14 25 15h62q31 0 36 53v123v301q0 49 -12 78.5t-49 52.5l-43 22q-14 8 -14 19v20q0 8 14 17l227 110q25 12 41 13q23 0 25 -29l12 -119h8q47 59 125 103.5t170 44.5t148.5 -42t93.5 -110h12q49 66 125 109t162 43q61 0 104 -13.5t84 -56.5q20 -23 38 -41 t30 -46t19 -69t7 -108v-234q0 -23 -1 -49t-1 -53t-1 -48.5t-1 -29.5q0 -35 15.5 -48t38.5 -13h53q16 0 16 -15v-43q0 -18 -16 -18q-10 0 -55 3t-142 3q-86 0 -138 -3t-62 -3q-16 0 -17 16v43q0 16 17 17h32q16 0 28.5 9t12.5 32q4 35 6 84t2 96v239q0 74 -8 117t-37 68 q-45 45 -122 45q-43 0 -84 -27.5t-62 -56.5q-23 -33 -27 -76t-4 -84v-381q0 -66 37 -65h54q20 0 20 -15v-45q0 -16 -12 -16t-57.5 3t-143.5 3q-96 0 -146.5 -3t-60.5 -3q-14 0 -14 16v39q0 20 16 21h45q23 0 36 19.5t13 74.5v350q0 111 -15 155t-38 62q-18 16 -49 22.5 t-61 6.5q-35 0 -77 -19.5t-71 -66.5q-23 -31 -28 -66t-5 -80v-364q0 -55 11.5 -74.5t29.5 -19.5h45q20 0 21 -13v-47q0 -16 -17 -16q-12 0 -59 3t-145 3q-92 0 -142.5 -3t-62.5 -3q-17 0 -17 18z" />
<glyph unicode="n" horiz-adv-x="1124" d="M68 719v16q0 14 20 21l225 106q12 6 21.5 11.5t19.5 5.5q18 0 25 -25l16 -106h13q18 23 44.5 44t57.5 37q37 23 77 36.5t87 13.5q53 0 99 -10.5t81 -39.5q68 -49 90.5 -98t22.5 -113v-294q0 -49 -1 -107.5t-1 -89.5q0 -35 15 -46t34 -11h57q25 0 25 -15v-47 q0 -14 -17 -14q-12 0 -62 3t-159 3q-92 0 -141 -3t-60 -3q-16 0 -16 24v35q0 10 4 13.5t21 3.5h41q12 0 22 10t14 39q4 41 6.5 86t2.5 106v236q0 61 -8.5 103t-45.5 73q-31 29 -59.5 33t-63.5 4q-25 0 -59.5 -9.5t-71.5 -43.5q-25 -25 -34 -65t-9 -81v-422q0 -70 39 -69h37 q20 0 21 -19v-37q0 -20 -17 -20q-10 0 -55 3t-137 3q-96 0 -145.5 -3t-59.5 -3q-12 0 -12 20v39q0 16 20 17h41q18 0 35.5 8t17.5 33v460q0 47 -24.5 74t-61.5 45l-16 8q-16 7 -16 21z" />
<glyph unicode="o" horiz-adv-x="1044" d="M66 440q0 37 9 81t30.5 89t53 89t79.5 81q76 61 151.5 80t138.5 19q104 0 180 -35t130 -86q141 -141 141 -324q0 -86 -34 -166t-93 -145q-63 -72 -151.5 -110t-192.5 -38q-98 0 -180 32t-152 116q-68 80 -89 151.5t-21 165.5zM299 434q0 -90 11.5 -154.5t51.5 -129.5 q27 -41 64 -65t98 -24q51 0 89 30t63.5 81t39 120.5t13.5 147.5q0 84 -20.5 150.5t-51 113t-68.5 70t-73 23.5q-80 0 -129 -56q-47 -53 -67.5 -123.5t-20.5 -183.5z" />
<glyph unicode="p" horiz-adv-x="1071" d="M31 -502q0 14 12 15h74q39 0 45 53q4 35 4 100v182v707q0 47 -11.5 72.5t-58.5 50.5l-45 24q-16 10 -16 21v20q0 10 16 17l234 102q18 8 31.5 12.5t25.5 4.5q14 0 18 -27l15 -100h4q41 49 114.5 88t163.5 39q74 0 131.5 -27t106.5 -76q61 -66 86 -130t25 -163 q0 -111 -35 -204t-95.5 -160.5t-141.5 -105.5t-175 -38q-35 0 -84 7.5t-96 29.5l4 -372q0 -45 4 -71t10 -38t16.5 -15t26.5 -3h74q16 0 16 -17v-43q0 -16 -20 -16q-12 0 -64.5 3t-173.5 3q-102 0 -157.5 -3t-67.5 -3q-16 0 -16 16v45zM379 217q0 -35 11 -65.5t42 -49.5 q59 -47 160 -47q37 0 72.5 16.5t64.5 51.5t46.5 92t19.5 137q0 72 -13.5 144.5t-42 131t-73.5 95.5t-111 37q-49 0 -97 -23.5t-79 -66.5v-453z" />
<glyph unicode="q" horiz-adv-x="1036" d="M66 391q0 92 42 196.5t136 190.5q63 57 136 79t140 22q68 0 116 -11.5t105 -33.5l156 45q5 3 9 3t7 -3l21 -17q6 -6 0 -33q-4 -25 -9 -87t-8.5 -132.5t-5.5 -132t-2 -84.5v-463q0 -47 1 -101t2 -104.5t2 -92.5t4 -62q6 -57 45 -57h53q20 0 20 -11v-49q0 -16 -16 -16 q-12 0 -69.5 3t-157.5 3q-109 0 -163.5 -3t-66.5 -3q-10 0 -13 5t-3 23v31q0 10 4 13.5t20 3.5h66q29 0 39 9t14 27q2 10 3 53.5t2 98.5t1 115v102v143h-8q-45 -37 -108.5 -61.5t-149.5 -24.5q-59 0 -122.5 20.5t-118 69t-89 128t-34.5 198.5zM289 508q-1 -22 -1 -42 q0 -40 3 -72q4 -48 15 -88t30.5 -74.5t48.5 -69.5q27 -35 67 -55.5t70 -20.5q49 0 95.5 17.5t76.5 48.5v473q-12 92 -68.5 137t-111.5 45q-59 -2 -101 -35t-70 -79t-41 -97t-13 -88z" />
<glyph unicode="r" horiz-adv-x="733" d="M43 8v45q0 16 18 17h72q53 0 53 55v401q0 72 -15 104t-62 56l-37 21q-16 6 -17 16v12q0 10 17 19l247 116q10 4 16.5 6.5t16.5 2.5t13.5 -7.5t5.5 -17.5l18 -147h8q53 86 115.5 135t130.5 49q49 0 78 -30t29 -73t-35 -76.5t-76 -33.5q-23 0 -40 5t-30 11q-23 16 -57 17 q-18 0 -43 -13.5t-43 -46.5q-12 -23 -18.5 -51.5t-6.5 -48.5v-395q0 -49 13.5 -67.5t44.5 -18.5h90q16 0 16 -15v-47q0 -14 -14 -14q-10 0 -75.5 3t-178.5 3q-109 0 -168 -3t-72 -3q-14 0 -14 14z" />
<glyph unicode="s" horiz-adv-x="757" d="M80 258q-1 4 -1 6q0 7 7 10l39 13q14 4 18 -6l68 -115q29 -47 64.5 -79t111.5 -32q59 0 102 34t43 91q0 61 -44 95t-152 65q-53 14 -98 35.5t-79 52.5t-53.5 72t-19.5 96q0 68 25.5 122t78.5 93q53 37 101.5 52.5t111.5 15.5q76 0 123 -14.5t76 -30.5q23 -12 30 -19.5 t9 -17.5l27 -140q4 -16 -2 -22l-39 -19q-10 -4 -17 9l-98 110q-18 20 -48 42t-81 22q-57 0 -99 -32t-42 -85q0 -63 46 -90t138 -51q72 -18 118 -41t87 -66q35 -35 48 -72.5t13 -91.5q0 -66 -24.5 -119t-69.5 -93t-108.5 -61.5t-139.5 -21.5q-82 0 -143.5 19.5t-77.5 34.5 q-14 14 -16 22z" />
<glyph unicode="t" horiz-adv-x="677" d="M33 770q0 25 39 39q20 8 61 36.5t84 67.5t81 80t54 74q10 20 33 20q25 0 25 -28l-9 -203h271q18 0 14 -16l-20 -86q-4 -12 -21 -13h-248q-4 -66 -5 -136t-1 -138v-184q0 -59 11.5 -97.5t27.5 -60t34.5 -28.5t35.5 -7q35 0 65.5 7t52.5 18q20 8 25 -4l12 -25q4 -16 -8 -29 q-10 -8 -31.5 -21t-54.5 -26.5t-76 -24t-96 -10.5q-47 0 -86 16.5t-67.5 43t-45 59.5t-16.5 66q0 27 1 68.5t2 86.5t2 88t1 72v266h-119q-28 0 -28 29z" />
<glyph unicode="u" horiz-adv-x="1077" d="M27 801v37q0 10 4 13t20 3h246q14 0 31 4q16 4 22 4q10 0 15.5 -7t5.5 -17q0 -16 -4.5 -83t-4.5 -173v-127q0 -31 -1 -71v-27q0 -27 1 -55q2 -42 11.5 -82t29.5 -73q14 -23 31 -35t33 -17t34 -5h34q37 0 77.5 21.5t65.5 56.5q6 10 14 28.5t8 36.5v482q0 41 -25.5 53 t-62.5 16q-29 4 -35 7.5t-6 9.5v37q0 16 25 16h254q10 0 18.5 1t16.5 3t14 3t12 1q10 0 13.5 -7t3.5 -13q0 -8 -2 -23.5t-4 -46.5t-4.5 -81t-2.5 -126v-147v-140q0 -67 5 -98q6 -47 19 -58t26 -11h28q18 0 37 4q23 2 25 -9l6 -32q2 -14 -10 -19l-254 -71q-10 -4 -19.5 -6.5 t-21.5 -2.5q-27 0 -29 25l-12 115h-13q-16 -29 -45.5 -53.5t-66.5 -44t-78 -31t-80 -11.5q-55 0 -106.5 11.5t-104.5 79.5q-29 37 -43 69.5t-22.5 66.5t-9.5 70.5t-1 79.5q0 74 1 126t1 85v83q0 46 -4 65q-4 39 -23.5 54t-47.5 19q-25 4 -35 5.5t-10 11.5z" />
<glyph unicode="v" horiz-adv-x="929" d="M-35 801v43q0 16 21 16q8 0 21 -1t38 -2t63.5 -2t102.5 -1q96 0 141 3t64 3q20 0 20 -16v-39q0 -20 -16 -21h-33q-18 0 -31.5 -9t-13.5 -25q0 -14 9 -48t22 -71l23 -71q11 -34 16 -48q2 -6 17 -46t32.5 -86t33 -86t19.5 -48h12q6 14 19.5 46t31 74t37 90t37 93t30.5 83 t21 62q6 19 6 35q0 18 -8 31q-14 25 -43 24h-32q-12 0 -13 17v45q0 14 17 14q18 0 57 -3t123 -3q72 0 109.5 3t50.5 3q20 0 20 -14v-45q0 -16 -14 -17h-35q-18 0 -39.5 -4t-38.5 -18q-14 -14 -36.5 -54t-47.5 -90l-49 -98q-25 -49 -39 -82q-6 -14 -22.5 -49t-37 -81t-42 -96 t-41 -92t-32.5 -73t-15 -35q-10 -20 -21.5 -31.5t-29.5 -11.5t-29.5 12.5t-24.5 34.5q-4 4 -16 34t-30.5 72t-40 91t-40 94t-34 80t-19.5 47q-6 14 -21.5 56t-33 87.5t-33.5 84t-23 49.5q-25 43 -41 58t-45 15h-38q-15 1 -15 17z" />
<glyph unicode="w" horiz-adv-x="1388" d="M-35 799v45q0 16 17 16q18 0 60 -3t153 -3q74 0 113.5 3t62.5 3q16 0 16 -16v-45q0 -14 -16 -15h-21q-16 0 -22 -12t2 -35l147 -479h12l160 401q10 23 4 48.5t-20 44.5q-10 12 -23.5 16t-29.5 4h-23q-14 0 -14 14v45q0 16 18 17q10 0 61.5 -3t149.5 -3q72 0 107.5 3 t48.5 3q20 0 20 -17v-43q0 -16 -16 -16h-33q-16 0 -25.5 -13.5t-3.5 -33.5l152 -442h8l135 370q16 43 16 71q0 17 -5 29q-14 32 -52 31h-28q-12 0 -13 15v45q0 16 17 16q10 0 54 -3t118 -3q68 0 99.5 3t47.5 3t17 -14v-45q0 -16 -15 -17h-30q-25 0 -46.5 -9t-31.5 -25 q-6 -10 -28.5 -64.5t-55.5 -132.5t-70 -168t-69.5 -171t-57 -141.5t-33.5 -76.5q-8 -16 -19 -21.5t-24 -5.5q-16 0 -23 10.5t-18 32.5l-204 553h-13l-237 -561q-16 -35 -49 -35q-23 0 -39 43l-281 719q-12 31 -32.5 42t-45.5 11h-34q-15 1 -15 15z" />
<glyph unicode="x" horiz-adv-x="884" d="M-55 12v41q0 16 16 17h41q51 0 88 30q14 12 51 54.5t77 93.5t76 96t50 64q-31 51 -67.5 106t-71.5 103.5t-63.5 86t-43.5 54.5q-14 14 -33.5 20t-37.5 6h-41q-16 0 -17 15v45q0 16 17 16q12 0 59 -3t150 -3q72 0 124 3t64 3t12 -16v-41q0 -14 -10 -15h-14 q-23 0 -22 -21.5t18 -45.5l106 -176l123 164q18 25 13 52t-29 27h-25q-12 0 -12 11v47q0 14 14 14t51 -3t123 -3q66 0 92.5 3t38.5 3q16 0 17 -14v-45q0 -16 -17 -17h-24q-25 0 -45.5 -6t-40.5 -22q-10 -10 -38 -40t-63 -69t-69.5 -82t-61.5 -80q57 -88 125 -190t135 -180 q18 -23 38 -34t44 -11h31q10 0 10 -15v-47q0 -14 -14 -14q-6 0 -18.5 1t-34 2t-57.5 2t-89 1q-90 0 -138 -3t-67 -3q-16 0 -16 16v43q0 16 16 17h17q18 0 25.5 19.5t-9.5 41.5l-127 207q-20 -25 -46 -58.5t-48.5 -66.5t-38.5 -59.5t-20 -34.5q-10 -20 -6 -34.5t32 -14.5h31 q10 0 10 -19v-41q0 -16 -16 -16q-12 0 -52 3t-112 3q-80 0 -112.5 -3t-51.5 -3q-16 0 -16 18z" />
<glyph unicode="y" horiz-adv-x="897" d="M-31 801v45q0 14 17 14q6 0 19 -1t38 -2t63.5 -2t96.5 -1q90 0 138 3t67 3q16 0 16 -16v-45q0 -14 -14 -15h-31q-16 0 -25.5 -10t-5.5 -33q2 -10 12.5 -48t24.5 -90t31.5 -111.5t34 -112.5t30 -92t17.5 -49h8q8 18 25.5 58t38 88t42 100.5t39 98.5t30.5 79.5t15 44.5 q10 41 -2 59t-41 18h-32q-16 0 -17 15v45q0 16 17 16q18 0 55 -3t121 -3q53 0 88 3t49 3t14 -16v-43q0 -16 -12 -17h-25q-16 0 -36.5 -6t-36.5 -28q-16 -20 -48 -84t-76 -158t-96.5 -210t-107.5 -241q-39 -84 -74 -159.5t-63.5 -138t-51 -109.5t-36.5 -72 q-12 -20 -26.5 -43.5t-36 -44t-51.5 -34t-71 -13.5q-55 0 -89 30.5t-34 80.5q0 43 29 72.5t70 29.5q25 0 48 -7t42 -18q12 -6 27.5 -6t25.5 10q8 8 30.5 50.5t47.5 94.5t46.5 103t31.5 80q-4 14 -23.5 72.5t-47.5 137.5t-60.5 168t-61 165t-48 130t-23.5 62q-16 41 -35 63.5 t-49 22.5h-41q-17 1 -17 17z" />
<glyph unicode="z" horiz-adv-x="909" d="M27 596l123 291q29 -6 55 -11.5t55 -9.5q27 -4 50.5 -6t53 -3t70.5 -2t105 -1h299q16 0 23 -10t-3 -23l-512 -751h234q20 0 48.5 8t65.5 32.5t83 67.5t102 111q10 12 22 6l27 -21q6 -5 6 -11q0 -4 -2 -9l-148 -279q-29 10 -85 13.5t-128 7.5t-133 4h-84h-262 q-16 0 -20 10t12 35l496 743h-181q-45 0 -76.5 -6t-65.5 -28.5t-75 -67.5t-102 -123q-10 -12 -21 -6l-28 16q-6 4 -7 12q1 5 3 11z" />
<glyph unicode="{" horiz-adv-x="720" d="M78 610q0 37 33 37q45 0 77 17q31 16 46.5 54t15.5 93q0 47 -12.5 95t-24.5 98q-16 49 -28.5 100t-12.5 102q0 141 95 222t261 98q29 0 54.5 2t48.5 2t30 -8.5t7 -20.5q0 -18 -4.5 -27.5t-20.5 -9.5h-27q-14 0 -30 -4q-98 -12 -155.5 -70.5t-57.5 -156.5q0 -53 6 -99.5 t16 -89.5q10 -41 16.5 -79.5t6.5 -79.5q0 -74 -29 -128.5t-65 -76.5q-31 -25 -54.5 -39t-23.5 -31q0 -23 25.5 -35t56.5 -43q43 -35 66.5 -84t23.5 -116q0 -41 -6 -83t-17 -85q-23 -96 -22 -191q0 -59 17.5 -104t47 -76t66.5 -48t78 -26q18 -6 35.5 -7t29.5 -1q16 0 18.5 -9 t2.5 -28q0 -12 -5.5 -20t-23.5 -8q-16 0 -33.5 2t-36.5 2q-86 4 -158.5 24.5t-126 60.5t-83 99.5t-29.5 140.5q0 59 10.5 110.5t26.5 98.5q16 53 28.5 100.5t12.5 96.5q0 53 -14.5 98t-51.5 70q-16 12 -33.5 16t-39.5 8q-33 6 -33 37z" />
<glyph unicode="|" horiz-adv-x="716" d="M295 -512v2052q0 16 12 16h105q14 0 14 -20v-2048q0 -20 -12 -20h-107q-12 0 -12 20z" />
<glyph unicode="}" horiz-adv-x="720" d="M53 -322q0 33 25 33h31q14 0 30 4q96 12 152.5 76t56.5 168q0 68 -7 121t-13 96q-10 43 -17.5 81t-7.5 75q0 78 28.5 129t65.5 76q31 25 54.5 40t23.5 33t-25.5 30.5t-56.5 43.5q-43 35 -66.5 84t-23.5 117q0 37 7 76.5t18 82.5q6 43 13 86.5t7 88.5q0 51 -17.5 93 t-47 72.5t-67.5 49t-77 26.5q-16 0 -32.5 2t-28.5 2q-25 0 -25 33q0 16 7.5 24.5t29.5 8.5q12 0 29.5 -2t36.5 -2q82 -4 154.5 -25.5t124.5 -61.5t83 -97.5t31 -133.5q0 -55 -12.5 -104t-28.5 -96l-25 -86q-12 -43 -12 -86q0 -53 14.5 -98.5t51.5 -69.5q16 -12 33.5 -16.5 t35.5 -8.5q18 0 27.5 -10t9.5 -23q0 -41 -37 -41q-23 0 -39 -3t-35 -9q-35 -16 -48 -56t-13 -95q0 -43 12.5 -89.5t24.5 -99.5q16 -53 28.5 -109.5t12.5 -121.5q0 -147 -97.5 -233.5t-263.5 -102.5q-25 0 -47 -2t-51 -2q-37 -1 -37 32z" />
<glyph unicode="~" d="M111 328q0 80 17 139t47 99t69 60.5t80 20.5q43 0 77.5 -10t77.5 -35l90 -57l56 -37q31 -20 71 -21q43 0 69 39t21 129h127q0 -84 -17 -143t-45 -99t-65.5 -58.5t-76.5 -18.5q-53 0 -93.5 16.5t-83.5 44.5l-77 54q-31 18 -62 31.5t-65 13.5q-16 0 -34 -9.5t-30 -29 t-20 -52t-6 -77.5h-127z" />
<glyph unicode="&#xa1;" horiz-adv-x="528" d="M129 743q0 20 7 44t22.5 44.5t42 34t67.5 13.5q59 0 95 -39t36 -101q0 -53 -36.5 -88t-98.5 -35q-23 0 -47 8.5t-43.5 24t-32 38.5t-12.5 56zM135 -401q0 16 7.5 69t17.5 126t23.5 160t24.5 171t19.5 158.5t10.5 122.5q0 10 1 13t11 3h37q16 0 16 -21q2 -49 9 -121.5 t17.5 -155.5t21.5 -167t20.5 -156.5t15.5 -127t6 -74.5q0 -66 -30.5 -111t-96.5 -45t-100.5 36t-30.5 120z" />
<glyph unicode="&#xa2;" d="M90 647q0 80 27.5 160t83 145.5t137.5 111.5t190 58l9 201q0 16 12 16h57q12 0 12 -20l-8 -193q88 -2 146.5 -22.5t92.5 -48t47 -56t13 -49.5q-6 -86 -94 -86q-47 0 -74.5 22.5t-44.5 59.5q-18 47 -38.5 67.5t-51.5 26.5l-33 -696q18 -2 31.5 -3t26.5 -1q78 0 133 21.5 t108 68.5q14 6 21 0l25 -24q12 -12 0 -29q-23 -25 -57 -51.5t-78 -49t-98 -38t-116 -17.5l-12 -229q0 -20 -12 -21h-58q-14 0 -8 21l8 233q-92 6 -161.5 37t-128.5 98q-68 80 -87.5 146.5t-19.5 140.5zM311 741q0 -109 28 -182.5t71 -128.5q31 -43 86 -61l28 680 q-41 -2 -78.5 -22.5t-67.5 -59.5t-48.5 -95.5t-18.5 -130.5z" />
<glyph unicode="&#xa3;" d="M-78 37q0 29 17.5 62.5t45 64.5t58.5 53.5t59 32.5q10 10 24.5 36.5t30 60.5t29 68t23.5 60h-148q-10 0 -13 1t-3 11v54q0 6 1 9t11 3h176q8 18 29 79.5t44 137.5l47 152q24 76 42 125q27 72 72 136t104.5 112t129 76t147.5 28q61 0 106 -15.5t74 -40t43 -52t14 -52.5 q0 -41 -26.5 -63.5t-63.5 -22.5q-43 0 -75.5 16.5t-51.5 57.5q-6 14 -10 30.5t-11 32t-20.5 25.5t-40.5 10q-25 0 -45 -15.5t-39.5 -52t-39 -97t-41.5 -152.5q-16 -66 -46 -137.5t-62 -136t-60.5 -113t-42.5 -68.5h290q20 0 21 -12v-54q0 -12 -21 -12h-335 q-35 -55 -83.5 -113.5t-86.5 -93.5l6 -6q88 8 147.5 4t104.5 -22.5t83.5 -51t90.5 -81.5q31 -29 60.5 -47.5t70.5 -18.5q29 0 48 20.5t25 36.5q10 25 2 33t-30 8q-49 0 -78 21.5t-29 52.5q0 37 29 72t78 35q59 0 103 -41t44 -103q0 -31 -13 -68.5t-46 -70.5t-86 -55.5 t-133 -22.5q-59 0 -104.5 7t-84.5 24.5t-73.5 46.5t-73.5 70q-49 53 -87 73.5t-85 16.5q-12 -45 -58 -115q-29 -41 -61.5 -65.5t-73.5 -24.5q-49 0 -49 41z" />
<glyph unicode="&#xa4;" d="M35 283q-12 12 0 24l180 172q-12 12 -24.5 34t-23.5 48.5t-17.5 56t-6.5 58.5q0 66 20.5 129t65.5 106l-190 170q-14 14 0 29l55 57q10 12 23 0l190 -176q45 35 105.5 51.5t117.5 16.5q49 0 106.5 -16.5t92.5 -45.5l182 170q12 8 21 0l55 -51q14 -14 2 -26l-176 -170 q35 -37 57.5 -98.5t22.5 -114.5q0 -66 -19.5 -131.5t-56.5 -108.5l176 -168q10 -10 0 -20l-57 -62q-12 -12 -25 0l-182 168q-43 -31 -106.5 -45t-116.5 -14q-47 0 -108.5 15t-104.5 56l-176 -180q-4 -6 -12.5 -5t-12.5 5zM311 692q0 -111 58.5 -175t148.5 -64 q96 0 151.5 64.5t55.5 174.5q0 109 -57.5 172.5t-149.5 63.5q-98 0 -152.5 -66t-54.5 -170z" />
<glyph unicode="&#xa5;" d="M-66 1307v51q0 16 17 16q12 0 73.5 -3t147.5 -3q121 0 183.5 3t78.5 3q12 0 12 -14v-47q0 -20 -14 -21h-35q-47 0 -61 -18.5t-6 -44.5q2 -10 17 -47t38 -88.5t49.5 -109.5t51 -112.5t45 -97.5t30.5 -61h4q8 18 28.5 61t47.5 96.5t56.5 111.5t54 108.5t41 86t18.5 46.5 q6 31 -11.5 50t-58.5 19h-49q-16 0 -16 19v47q0 16 16 16q12 0 68.5 -3t136.5 -3q90 0 129 3t55 3t17 -14v-47q0 -20 -17 -21h-41q-23 0 -45 -13t-39 -32q-6 -6 -27.5 -41t-52 -86t-66.5 -113.5t-72 -126t-68.5 -122t-55.5 -99.5h279q16 0 16 -12v-53q0 -12 -16 -12h-291 v-136h291q16 0 16 -12v-53q0 -12 -16 -12h-291l2 -228q0 -43 21.5 -54t50.5 -11h74q16 0 16 -13v-53q0 -16 -16 -16q-18 0 -70.5 3t-167.5 3q-135 0 -189.5 -3t-72.5 -3q-12 0 -12 20v49q0 12 16 13h86q57 0 57 51v242h-295q-10 0 -11 3t-1 9v53q0 12 12 12h295v136h-295 q-12 0 -12 16v49q0 12 16 12h275q-12 25 -37 73t-55.5 107.5t-64.5 124t-63.5 122t-53 99.5t-33.5 58q-12 18 -37 33.5t-49 15.5h-37q-17 1 -17 15z" />
<glyph unicode="&#xa6;" horiz-adv-x="716" d="M295 -338v676q0 20 14 20h105q12 0 12 -20v-676q0 -20 -14 -20h-105q-12 0 -12 20zM295 686v676q0 20 12 20h103q16 0 16 -20v-676q0 -20 -12 -20h-103q-16 0 -16 20z" />
<glyph unicode="&#xa7;" horiz-adv-x="1105" d="M143 709q0 53 15.5 98t40 80t55.5 59.5t61 40.5q-31 37 -42 90t-11 105q0 55 23.5 103t58.5 85q61 68 136 89.5t171 21.5q102 0 168 -40t66 -95q0 -47 -29 -66.5t-70 -19.5q-47 0 -68.5 21.5t-49.5 64.5q-18 29 -41 45t-54 16t-60.5 -12.5t-52 -36t-36.5 -55t-14 -70.5 q0 -55 22.5 -96t63.5 -77t99 -71t130 -80q117 -78 179.5 -159.5t58.5 -192.5q2 -63 -14.5 -110.5t-44 -82t-62.5 -59t-68 -39.5q43 -49 60.5 -100t17.5 -111q0 -72 -25.5 -131t-72.5 -106q-53 -53 -132 -73.5t-147 -20.5q-53 0 -100 8t-82 24.5t-55.5 40t-20.5 53.5 q0 43 24.5 67t65.5 24t68.5 -17.5t50.5 -52.5q23 -31 47.5 -48.5t58.5 -17.5q25 0 52.5 8.5t50 28t38 51t15.5 78.5q0 70 -30.5 120t-81 93t-115 85t-129.5 96q-189 151 -189 344zM279 782q0 -53 26.5 -100t91.5 -100q129 -104 218.5 -164t113.5 -94q37 12 65.5 54t28.5 85 q0 18 -3 40.5t-16 49.5t-41 58.5t-79 68.5q-78 53 -134 90t-95 64.5t-64.5 50t-42.5 45.5q-69 -46 -69 -148z" />
<glyph unicode="&#xa8;" horiz-adv-x="712" d="M59 1202q0 14 5.5 32.5t19.5 36t37.5 30t58.5 12.5q43 0 76 -30t33 -89q0 -51 -31 -77.5t-78 -26.5q-16 0 -37.5 5t-40 17t-31 33.5t-12.5 56.5zM424 1202q0 14 5 32.5t19.5 36t38 30t58.5 12.5q43 0 75.5 -30t32.5 -89q0 -51 -32.5 -77.5t-75.5 -26.5q-16 0 -38 5 t-40 17t-30.5 33.5t-12.5 56.5z" />
<glyph unicode="&#xa9;" horiz-adv-x="1671" d="M86 723q0 162 58.5 300t160 239.5t237.5 160t294 58.5q162 0 300 -55.5t237.5 -155t155.5 -237.5t56 -306q0 -158 -53 -296t-151.5 -240.5t-236.5 -162t-308 -59.5q-172 0 -310.5 59.5t-237 161t-150.5 238.5t-52 295zM205 727q0 -184 61.5 -311t155.5 -207t204.5 -115 t209.5 -35q174 0 293.5 63.5t193.5 161t106.5 214t32.5 225.5q0 180 -62.5 307t-155.5 207t-203.5 117t-204.5 37q-133 0 -248 -48.5t-200 -135.5t-134 -208.5t-49 -271.5zM385 733q0 86 32 169t103 151q59 59 142 93t186 34q80 0 141.5 -22.5t79.5 -39.5q20 -16 29 0l6 29 q2 12 26 12q14 0 18.5 -3t6.5 -7q2 -12 6 -50t10.5 -81t10.5 -80t6 -49q0 -14 -8 -17l-29 -6q-14 -4 -16 6q-16 37 -39 77t-60 75q-41 43 -87 62.5t-105 19.5t-108.5 -28.5t-83.5 -77t-51 -111t-15 -127.5q2 -29 6 -64.5t14 -72.5t27.5 -74t46.5 -64q53 -53 106.5 -77.5 t106.5 -24.5q104 0 178 43t121 92q10 10 18 2l23 -18q4 -6 -4 -21q-29 -41 -67 -78.5t-85 -66.5t-104.5 -46.5t-124.5 -17.5q-98 0 -183 30t-141 85q-68 68 -103.5 150.5t-35.5 193.5z" />
<glyph unicode="&#xaa;" horiz-adv-x="716" d="M57 989q0 29 20.5 60.5t82.5 66.5q49 25 98 37t111 12q61 0 96 -12t59 -29q31 -23 44.5 -62.5t13.5 -80.5q0 -6 -1 -31.5t-1 -55.5t-1 -54.5t-1 -28.5v-49q0 -86 12 -115t28 -29q18 0 28.5 14.5t21.5 26.5q0 14 12 9l29 -13q10 0 4 -16q-4 -10 -14.5 -27.5t-29 -33 t-46 -26.5t-66.5 -11q-59 0 -88 23.5t-47 58.5v4q-31 -29 -71 -52.5t-77 -29.5q-18 -4 -37 -4h-49q-47 0 -82.5 40t-35.5 87q0 43 30.5 88t128.5 88q10 4 37 15t56.5 23.5t55 21.5t36.5 14l4 75q0 45 -33 78q-12 10 -34.5 17.5t-47.5 7.5q-23 0 -46.5 -8.5t-35.5 -24.5 t-8 -33.5t4 -36.5q0 -25 -22.5 -45t-71.5 -20q-35 0 -50.5 16t-15.5 45zM242 700q0 -41 17 -57t48 -16q29 0 61.5 19.5t49.5 41.5l-4 168q-23 -8 -51.5 -20.5t-56 -31t-46 -44t-18.5 -60.5z" />
<glyph unicode="&#xab;" horiz-adv-x="868" d="M57 434q0 12 13 25l303 307q8 8 12 8t8 -4l41 -33q4 -4 4 -8t-2 -6t-2 -6l-155 -283l155 -282q4 -4 4 -13q0 -8 -4 -8l-41 -33q-4 -4 -6 -4h-2q-4 0 -7 2l-9 6l-299 312q-13 12 -13 20zM406 434q0 12 12 25l303 307q8 8 12 8t8 -4l41 -33q4 -4 4 -8t-2 -6t-2 -6 l-155 -283l155 -282q4 -4 4 -13q0 -8 -4 -8l-41 -33q-4 -4 -6 -4h-2q-4 0 -12 8l-303 312q-12 12 -12 20z" />
<glyph unicode="&#xac;" d="M111 596v135h802v-479h-147v344h-655z" />
<glyph unicode="&#xad;" horiz-adv-x="823" d="M102 494v106q0 16 17 16h573q25 0 25 -20v-96q0 -18 -25 -19h-573q-17 1 -17 13z" />
<glyph unicode="&#xae;" horiz-adv-x="1155" d="M92 1010q0 100 37 186t102.5 149.5t154.5 99.5t194 36q106 0 195 -35t153.5 -96.5t99.5 -147.5t35 -190q0 -98 -34 -184.5t-96.5 -150t-151.5 -100t-201 -36.5q-115 0 -206 36.5t-153.5 100t-95.5 149t-33 183.5zM186 1012q0 -115 38 -192t96.5 -123t127 -66.5 t132.5 -20.5q113 0 187.5 38t120.5 96.5t65.5 129t19.5 136.5q-2 109 -40 185.5t-95.5 124.5t-126 69.5t-131.5 21.5q-84 0 -157 -27.5t-125 -80t-82 -126t-30 -165.5zM338 754v20q0 8 6 8h14q18 0 29.5 6.5t11.5 34.5v275v123q0 37 -41 36h-12q-8 0 -8 5v24q0 8 8 8 q2 0 15.5 -1t31 -1t33.5 -1t23 -1q4 0 24.5 1t44 1t44 1t26.5 1q61 0 105 -12t63 -33q37 -43 37 -90q0 -39 -14.5 -66.5t-36 -46t-45 -28.5t-44.5 -14v-5q8 -4 19.5 -12t21.5 -18q33 -39 63.5 -90.5t63.5 -83.5q10 -10 22.5 -11.5t20.5 -1.5q10 0 10 -10v-18q0 -8 -8 -9 q-6 0 -25.5 2.5t-45.5 2.5q-23 0 -41.5 -2.5t-30.5 -2.5q-8 6 -22.5 24.5t-29 39t-26.5 41t-16 31.5q-6 12 -19.5 37.5t-27.5 42.5q-8 10 -19.5 18t-23.5 8h-25v-41v-80q0 -45 2 -55q2 -12 6 -20.5t17 -8.5h32q8 0 9 -8v-20q0 -8 -13 -9q-6 0 -45 2.5t-69 2.5 q-29 0 -64 -2.5t-41 -2.5q-10 1 -10 9zM514 1024h33q39 -2 64.5 12.5t39 35t18.5 41t5 30.5q0 23 -8.5 43t-22.5 33q-20 16 -41.5 27t-50.5 11q-6 0 -16.5 -1t-20.5 -3v-229z" />
<glyph unicode="&#xaf;" horiz-adv-x="610" d="M61 1098v104q0 12 17 12h450q20 0 21 -12v-104q0 -6 -7 -9.5t-18 -3.5h-446q-17 1 -17 13z" />
<glyph unicode="&#xb0;" horiz-adv-x="638" d="M82 1260q0 92 64.5 156.5t172.5 64.5q115 0 176.5 -60.5t61.5 -152.5q0 -96 -65.5 -161t-176.5 -65t-172 61t-61 157zM188 1264q0 -61 41 -102.5t90 -41.5q53 0 92.5 41t39.5 103q0 59 -41 97t-91 38q-49 0 -90 -38t-41 -97z" />
<glyph unicode="&#xb1;" d="M111 16v136h802v-136h-802zM111 596v135h327v273h148v-273h327v-135h-327v-289h-148v289h-327z" />
<glyph unicode="&#xb2;" horiz-adv-x="712" d="M7 830.5q-3 11.5 9 23.5q41 35 117 103.5t154 160.5q59 70 97 138.5t38 140.5q0 68 -38 107.5t-93 39.5q-61 0 -102.5 -28.5t-65.5 -57.5q-12 -18 -25 -12l-24 16q-10 4 -4 17q8 18 28.5 49t57.5 61.5t89 52t124 21.5q49 0 94 -14.5t80 -42t55 -69.5t20 -99 q0 -68 -36.5 -140.5t-135.5 -162.5q-86 -80 -137 -119t-80 -62v-4h209q76 0 110 19.5t58 54.5q6 12 13.5 12t19.5 -4q16 -6 18 -11t-2 -17l-82 -197q-4 -10 -11 -11t-17 -1t-16.5 1t-12.5 11q-10 16 -110 16h-271q-35 0 -69.5 -2t-45.5 -2q-10 0 -13 11.5z" />
<glyph unicode="&#xb3;" horiz-adv-x="712" d="M49 928q0 31 18.5 52t47.5 21q20 0 32.5 -7t19.5 -18t12 -23.5t9 -20.5q6 -25 31 -43.5t68 -18.5q33 0 60.5 13.5t49 36t33.5 50t12 58.5q0 84 -41 134t-114 67q-33 6 -33 28q0 29 25 29q61 6 98 52t37 100q0 53 -32 88t-79 35q-53 0 -91 -30t-60 -73q-14 -23 -25 -16 l-29 8q-8 4 -8 20q8 27 26.5 61t52.5 63.5t83 49t117 19.5q61 0 103 -16.5t68.5 -41t38 -53t11.5 -53.5q0 -78 -48 -131t-116 -78v-8q41 -6 79 -23.5t66.5 -45t46 -62.5t17.5 -76q0 -121 -99.5 -195.5t-269.5 -74.5q-66 0 -107.5 11t-66 29.5t-34 40.5t-9.5 42z" />
<glyph unicode="&#xb4;" horiz-adv-x="565" d="M156 1016q-8 8 0 16l166 246q20 29 44.5 48.5t55.5 16.5q29 2 50.5 -16t29.5 -44t-1 -55.5t-42 -51.5l-262 -181q-8 -8 -17 0z" />
<glyph unicode="&#xb5;" horiz-adv-x="1089" d="M139 821q0 33 33 33h164q37 0 37 -37q0 -4 -1 -33.5t-1 -68.5t-1 -79t-1 -63v-159q0 -72 1 -135.5t29 -118.5q20 -37 49 -55.5t76 -18.5q41 0 84 24.5t72 61.5q20 27 20 66l-4 411q0 68 -4 108t-4 64q0 33 33 33h151q45 0 46 -33q0 -16 -2.5 -83.5t-2.5 -172.5v-147v-242 q4 -49 17.5 -67.5t32.5 -18.5q31 0 65 21q6 6 11 2t10 -11l12 -24q6 -10 1 -16.5t-18 -16.5q-29 -29 -71.5 -49.5t-108.5 -20.5q-59 0 -99 46.5t-52 101.5h-8q-37 -66 -105 -107t-129 -41q-31 0 -68.5 11.5t-62.5 46.5l-4 -4q0 -98 3 -184.5t7 -154t7 -111.5t3 -58 q0 -16 -4 -23.5t-20 -13.5l-131 -33q-10 -4 -21.5 -6t-15.5 -2q-10 0 -13.5 7t-3.5 13q6 449 7 899v119q0 129 -7.5 220t-7.5 120z" />
<glyph unicode="&#x3bc;" horiz-adv-x="1089" d="M139 821q0 33 33 33h164q37 0 37 -37q0 -4 -1 -33.5t-1 -68.5t-1 -79t-1 -63v-159q0 -72 1 -135.5t29 -118.5q20 -37 49 -55.5t76 -18.5q41 0 84 24.5t72 61.5q20 27 20 66l-4 411q0 68 -4 108t-4 64q0 33 33 33h151q45 0 46 -33q0 -16 -2.5 -83.5t-2.5 -172.5v-147v-242 q4 -49 17.5 -67.5t32.5 -18.5q31 0 65 21q6 6 11 2t10 -11l12 -24q6 -10 1 -16.5t-18 -16.5q-29 -29 -71.5 -49.5t-108.5 -20.5q-59 0 -99 46.5t-52 101.5h-8q-37 -66 -105 -107t-129 -41q-31 0 -68.5 11.5t-62.5 46.5l-4 -4q0 -98 3 -184.5t7 -154t7 -111.5t3 -58 q0 -16 -4 -23.5t-20 -13.5l-131 -33q-10 -4 -21.5 -6t-15.5 -2q-10 0 -13.5 7t-3.5 13q6 449 7 899v119q0 129 -7.5 220t-7.5 120z" />
<glyph unicode="&#xb6;" horiz-adv-x="1175" d="M102 958q0 150 55.5 246t158 150.5t249 75t328.5 20.5h184q23 0 28 -3t5 -9v-41q0 -10 -4 -11.5t-16 -5.5h-119v-1640q0 -16 -17 -16h-61q-10 0 -11 5t-1 27v1620q-10 0 -28.5 -1t-40 -2t-42 -2t-33.5 -3v-1616q0 -16 -1 -22t-11 -6h-61q-16 0 -17 32v723 q-70 4 -163 22.5t-178 69t-144.5 142t-59.5 245.5z" />
<glyph unicode="&#xb7;" horiz-adv-x="548" d="M131 729q0 18 7 42t24.5 45.5t46.5 36.5t70 15q55 0 97 -40t42 -107q0 -61 -40 -98t-95 -37t-103.5 35.5t-48.5 107.5z" />
<glyph unicode="&#xb8;" horiz-adv-x="602" d="M61 -442q0 18 18.5 23t47.5 5q27 0 54.5 7.5t51 20.5t39 33.5t15.5 49.5q0 78 -131 102l159 201h107l-119 -135q68 -16 110 -57t42 -91q0 -47 -31 -85t-81 -63.5t-113.5 -38.5t-127.5 -13q-25 0 -33 11.5t-8 29.5z" />
<glyph unicode="&#xb9;" horiz-adv-x="712" d="M78 1479q-4 10 8 16l332 154q10 4 19 9t20 5q14 0 14 -21q0 -4 -1 -38.5t-1 -86t-1 -114t-1 -121.5v-319q0 -49 12.5 -61.5t65.5 -12.5h45q12 0 12 -10v-48q0 -12 -12 -12q-4 0 -26.5 1t-55.5 1t-72 1t-76 1q-35 0 -73.5 -1t-70.5 -1t-54.5 -1t-26.5 -1q-16 0 -16 12v48 q0 10 20 10h58q57 0 69.5 11t12.5 54q0 6 1 41t1 78t1 83t1 56v54v27v43q0 24 -1 48.5t-3 40.5q-2 18 -9.5 31.5t-23.5 13.5q-20 0 -58 -12l-69 -24q-18 -6 -21 0z" />
<glyph unicode="&#xba;" horiz-adv-x="786" d="M55 854q0 49 22.5 114.5t84.5 114.5q68 55 130 68.5t111 13.5q66 0 131.5 -23.5t102.5 -54.5q49 -43 71.5 -101t22.5 -122q0 -72 -26.5 -131t-72.5 -102t-111.5 -66.5t-141.5 -23.5q-68 0 -132.5 26.5t-113.5 75.5q-78 78 -78 211zM244 889q0 -74 8 -124t24 -85 q18 -43 52 -60.5t63 -17.5q35 -2 62.5 15.5t46 48t29 71.5t10.5 88q0 139 -43 209t-97 70q-23 0 -49 -9.5t-45 -27.5q-31 -31 -46 -81t-15 -97z" />
<glyph unicode="&#xbb;" horiz-adv-x="868" d="M82 139q0 4 8 13l156 282l-160 283q0 4 -2 6t-2 6q0 8 8 8l41 33q0 4 8 4q4 0 13 -8l303 -311q12 -12 12 -21q0 -8 -16 -24l-299 -308q-8 -8 -13 -8q-4 0 -12 8l-37 29q-4 4 -6 4t-2 4zM430 139q0 4 8 13l156 282l-160 283q0 4 -2 6t-2 6q0 8 8 8l41 33q0 4 8 4 q4 0 13 -8l303 -311q12 -12 12 -21q0 -8 -16 -24l-299 -308q-8 -8 -13 -8q-4 0 -12 8l-37 29q-4 4 -6 4t-2 4z" />
<glyph unicode="&#xbc;" horiz-adv-x="1585" d="M49 1214q-4 10 8 17l332 153q10 4 19.5 9.5t19.5 5.5q14 0 14 -21q0 -4 -1 -38.5t-1 -86t-1 -114t-1 -121.5v-320q0 -49 12.5 -61t65.5 -12h45q12 0 12 -11v-49q0 -12 -12 -12q-4 0 -32.5 1t-65.5 2l-74 2q-37 1 -57 1q-16 0 -51 -1t-73 -2t-67.5 -2t-34.5 -1 q-16 0 -16 12v49q0 10 21 11h57q57 0 69.5 11t12.5 54q0 6 1 41t1 78t1 83t1 56v53v28v43q0 24 -1 48.5t-3 40.5q-4 18 -10.5 31.5t-22.5 13.5q-20 0 -57 -12l-70 -25q-18 -6 -20 0zM360 18q0 6 4.5 12.5t8.5 16.5l827 1335q8 16 17 17q4 0 6 -2t6 -2q10 -4 18 -11 q8 -4 15.5 -8t11.5 -6q20 -16 20 -20t-8 -21l-831 -1339q-6 -20 -17 -21q-6 0 -11 1t-17 7q-4 4 -20.5 16.5t-20.5 12.5q-9 8 -9 12zM817 213q0 16 7 26.5t18 20.5l456 555q6 8 17.5 16.5t23.5 8.5q33 0 33 -45v-484h111q12 0 12 -16v-90q0 -20 -20 -21h-103v-159 q0 -16 -4 -20.5t-16 -4.5h-127q-16 0 -17 20v164h-362q-29 0 -29 29zM988 322.5q3 -11.5 20 -11.5h200v254q0 16 -10 19.5t-27 -15.5l-178 -225q-8 -10 -5 -21.5z" />
<glyph unicode="&#xbd;" horiz-adv-x="1585" d="M29 1214q-4 10 8 17l332 153q10 4 19 9.5t20 5.5q14 0 14 -21q0 -4 -1 -38.5t-1 -86t-1 -114t-1 -121.5v-320q0 -49 12 -61t66 -12h45q12 0 12 -11v-49q0 -12 -12 -12q-4 0 -33 1t-66 2l-73 2q-37 1 -58 1q-16 0 -51 -1t-72.5 -2t-67.5 -2t-34 -1q-16 0 -16 12v49 q0 10 20 11h57q57 0 69.5 11t12.5 54q0 6 1 41t1 78t1 83t1 56v53v28v43q0 24 -1 48.5t-3 40.5q-4 18 -10 31.5t-22 13.5q-20 0 -58 -12l-69 -25q-18 -6 -21 0zM311 18q0 6 2 12.5t6 16.5l828 1335q8 16 16 17q4 0 6 -2t7 -2q4 0 22.5 -10.5t22.5 -14.5q16 -10 18 -13t2 -7 t-1 -9.5t-7 -11.5l-827 -1339q-6 -10 -10.5 -15.5t-10.5 -5.5q-4 0 -9 1t-16 7q-8 4 -24 17l-17 12q-8 4 -8 12zM872 8q0 16 17 25q37 35 112.5 102.5t153.5 159.5q61 68 98 137.5t37 140.5q0 68 -38 108t-93 40q-61 0 -102 -28.5t-64 -57.5q-14 -18 -26 -12l-25 16 q-8 8 -4 16q8 18 28.5 49t57.5 62t89 52.5t124 21.5q49 0 94 -14.5t80 -42t55.5 -69.5t20.5 -100q0 -68 -37 -140.5t-135 -162.5q-86 -80 -137.5 -118.5t-79.5 -61.5v-4h209q76 0 109.5 19.5t58.5 54.5q6 12 13 12t19 -4q16 -6 19.5 -11t-2.5 -18l-82 -196 q-4 -10 -11.5 -11.5t-17.5 -1.5t-16 1t-13 12q-10 16 -110 16h-270q-35 0 -70 -2t-45 -2q-17 0 -17 12z" />
<glyph unicode="&#xbe;" horiz-adv-x="1585" d="M49 664q0 31 18.5 52t47.5 21q20 0 32.5 -7t19.5 -18.5t12 -23.5t9 -20q6 -25 31 -43.5t68 -18.5q33 0 60.5 13.5t49 36t33.5 50t12 58.5q0 84 -41 134t-114 67q-33 6 -33 28q0 29 25 29q61 6 98 52t37 100q0 53 -32 87.5t-79 34.5q-53 0 -92 -29.5t-61 -76.5 q-10 -23 -23 -16l-31 12q-10 4 -6 20q8 27 26.5 60.5t52.5 63.5t83 49.5t117 19.5q61 0 103 -16.5t68.5 -41t38 -53t11.5 -53.5q0 -78 -48 -131t-116 -78v-8q41 -6 79 -23.5t66.5 -45t46 -62.5t17.5 -76q0 -121 -99.5 -195.5t-269.5 -74.5q-66 0 -107.5 11t-66 29.5 t-34 40.5t-9.5 42zM360 23q0 6 4.5 12t8.5 16l827 1331q8 16 17 17q4 0 9 -1t15 -7q6 -4 25.5 -14.5t23.5 -14.5t4 -8t-8 -21l-827 -1339q-12 -25 -21 -25q-4 0 -6 2t-6 2l-20 13q-8 4 -14.5 9t-10.5 7q-21 15 -21 21zM817 213q0 16 7 26.5t18 20.5l456 555q6 8 17.5 16.5 t23.5 8.5q33 0 33 -45v-484h111q12 0 12 -16v-90q0 -20 -20 -21h-103v-159q0 -16 -4 -20.5t-16 -4.5h-127q-16 0 -17 20v164h-362q-29 0 -29 29zM988 322.5q3 -11.5 20 -11.5h200v254q0 16 -10 19.5t-27 -15.5l-178 -225q-8 -10 -5 -21.5z" />
<glyph unicode="&#xbf;" horiz-adv-x="753" d="M70 -16q0 102 42 156.5t103 79t128 28.5t116 6q12 0 14 5t2 11v185q0 16 17 16h45q12 0 12 -16v-398q0 -18 -6 -23t-23 -1q-29 6 -63.5 7t-63.5 1t-64.5 -7t-66.5 -23.5t-52.5 -44t-21.5 -68.5q0 -61 33 -100.5t82 -67.5q61 -41 108.5 -53.5t112.5 -12.5q66 0 109 -31.5 t43 -87.5q0 -31 -26.5 -66.5t-88.5 -35.5q-68 0 -152.5 48t-160.5 125t-127 174.5t-51 193.5zM365 756q0 47 33.5 85t101.5 38q53 0 92 -35t39 -88q0 -49 -34 -84t-101 -35q-61 0 -96 32t-35 87z" />
<glyph unicode="&#xc0;" horiz-adv-x="1523" d="M-33 20v39q0 16 13 17h61q43 0 72.5 22.5t58.5 69.5q8 14 36 81.5t63.5 157t71.5 181.5t58 157q4 10 18.5 50.5t35 95.5t44 118.5t45 119t38 97.5t20.5 56q4 16 9 37.5t-5 32.5q-12 12 -12 24q0 14 20 21q25 6 56.5 19.5t60.5 28.5t52.5 29.5t33.5 24.5q20 20 31 21 q10 0 15 -13.5t9 -23.5q8 -33 27 -89.5t42.5 -125t48 -143t48 -143.5t41 -126t27.5 -90q18 -59 49 -152.5t62.5 -184.5t59.5 -165t38 -94q29 -53 64.5 -73.5t66.5 -20.5h65q16 0 17 -15v-43q0 -10 -4 -17t-17 -7q-14 0 -31.5 1t-49 2t-85 2t-137.5 1q-129 0 -191.5 -3 t-94.5 -3q-12 0 -16.5 7t-4.5 17v41q0 16 16 17h54q43 0 57 17.5t4 58.5q-6 27 -22.5 84t-36 120.5t-38 121t-26.5 85.5h-475q-4 -12 -14 -41.5t-23.5 -68.5t-28 -84t-27.5 -85t-22.5 -71t-11.5 -45q-4 -12 -4 -24v-19q0 -20 21.5 -34.5t52.5 -14.5h86q20 0 20 -10v-52 q0 -20 -16 -20q-23 0 -86.5 3t-171.5 3q-57 0 -95 -1t-64 -2t-41 -2t-25 -1t-11.5 8t-1.5 18zM365 1831q0 31 26.5 62.5t67.5 31.5q25 0 48 -11t38 -26l274 -266q10 -10 4 -16l-22 -31q-6 -8 -19 -2l-348 160q-29 14 -49 41.5t-20 56.5zM459 645h426q-6 14 -19.5 59.5 t-32 104.5t-38 125.5t-37 125t-30.5 100.5t-15 52q-12 37 -21 37q-18 0 -26 -26q-2 -6 -17.5 -48t-37 -102.5t-47 -130.5t-47 -132t-38 -107.5t-20.5 -57.5z" />
<glyph unicode="&#xc1;" horiz-adv-x="1523" d="M-33 20v39q0 16 13 17h61q43 0 72.5 22.5t58.5 69.5q8 14 36 81.5t63.5 157t71.5 181.5t58 157q4 10 18.5 50.5t35 95.5t44 118.5t45 119t38 97.5t20.5 56q4 16 9 37.5t-5 32.5q-12 12 -12 24q0 14 20 21q25 6 56.5 19.5t60.5 28.5t52.5 29.5t33.5 24.5q20 20 31 21 q10 0 15 -13.5t9 -23.5q8 -33 27 -89.5t42.5 -125t48 -143t48 -143.5t41 -126t27.5 -90q18 -59 49 -152.5t62.5 -184.5t59.5 -165t38 -94q29 -53 64.5 -73.5t66.5 -20.5h65q16 0 17 -15v-43q0 -10 -4 -17t-17 -7q-14 0 -31.5 1t-49 2t-85 2t-137.5 1q-129 0 -191.5 -3 t-94.5 -3q-12 0 -16.5 7t-4.5 17v41q0 16 16 17h54q43 0 57 17.5t4 58.5q-6 27 -22.5 84t-36 120.5t-38 121t-26.5 85.5h-475q-4 -12 -14 -41.5t-23.5 -68.5t-28 -84t-27.5 -85t-22.5 -71t-11.5 -45q-4 -12 -4 -24v-19q0 -20 21.5 -34.5t52.5 -14.5h86q20 0 20 -10v-52 q0 -20 -16 -20q-23 0 -86.5 3t-171.5 3q-57 0 -95 -1t-64 -2t-41 -2t-25 -1t-11.5 8t-1.5 18zM459 645h426q-6 14 -19.5 59.5t-32 104.5t-38 125.5t-37 125t-30.5 100.5t-15 52q-12 37 -21 37q-18 0 -26 -26q-2 -6 -17.5 -48t-37 -102.5t-47 -130.5t-47 -132t-38 -107.5 t-20.5 -57.5zM657 1606q-8 8 5 16l280 268q16 16 40 25.5t46 9.5q37 0 62.5 -29.5t25.5 -64.5q0 -27 -19.5 -54.5t-56.5 -43.5l-344 -160q-8 -6 -14 0z" />
<glyph unicode="&#xc2;" horiz-adv-x="1523" d="M-33 20v39q0 16 13 17h61q43 0 72.5 22.5t58.5 69.5q8 14 36 81.5t63.5 157t71.5 181.5t58 157q4 10 18.5 50.5t35 95.5t44 118.5t45 119t38 97.5t20.5 56q4 16 9 37.5t-5 32.5q-12 12 -12 24q0 14 20 21q25 6 56.5 19.5t60.5 28.5t52.5 29.5t33.5 24.5q20 20 31 21 q10 0 15 -13.5t9 -23.5q8 -33 27 -89.5t42.5 -125t48 -143t48 -143.5t41 -126t27.5 -90q18 -59 49 -152.5t62.5 -184.5t59.5 -165t38 -94q29 -53 64.5 -73.5t66.5 -20.5h65q16 0 17 -15v-43q0 -10 -4 -17t-17 -7q-14 0 -31.5 1t-49 2t-85 2t-137.5 1q-129 0 -191.5 -3 t-94.5 -3q-12 0 -16.5 7t-4.5 17v41q0 16 16 17h54q43 0 57 17.5t4 58.5q-6 27 -22.5 84t-36 120.5t-38 121t-26.5 85.5h-475q-4 -12 -14 -41.5t-23.5 -68.5t-28 -84t-27.5 -85t-22.5 -71t-11.5 -45q-4 -12 -4 -24v-19q0 -20 21.5 -34.5t52.5 -14.5h86q20 0 20 -10v-52 q0 -20 -16 -20q-23 0 -86.5 3t-171.5 3q-57 0 -95 -1t-64 -2t-41 -2t-25 -1t-11.5 8t-1.5 18zM459 645h426q-6 14 -19.5 59.5t-32 104.5t-38 125.5t-37 125t-30.5 100.5t-15 52q-12 37 -21 37q-18 0 -26 -26q-2 -6 -17.5 -48t-37 -102.5t-47 -130.5t-47 -132t-38 -107.5 t-20.5 -57.5zM487 1597q-8 10 2 21l263 258q10 6 16 11t12 5q8 0 33 -24l268 -252q8 -8 0 -17l-14 -18q-4 -10 -16 -4l-275 111l-254 -111q-14 -6 -20 0z" />
<glyph unicode="&#xc3;" horiz-adv-x="1523" d="M-33 20v39q0 16 13 17h61q43 0 72.5 22.5t58.5 69.5q8 14 36 81.5t63.5 157t71.5 181.5t58 157q4 10 18.5 50.5t35 95.5t44 118.5t45 119t38 97.5t20.5 56q4 16 9 37.5t-5 32.5q-12 12 -12 24q0 14 20 21q25 6 56.5 19.5t60.5 28.5t52.5 29.5t33.5 24.5q20 20 31 21 q10 0 15 -13.5t9 -23.5q8 -33 27 -89.5t42.5 -125t48 -143t48 -143.5t41 -126t27.5 -90q18 -59 49 -152.5t62.5 -184.5t59.5 -165t38 -94q29 -53 64.5 -73.5t66.5 -20.5h65q16 0 17 -15v-43q0 -10 -4 -17t-17 -7q-14 0 -31.5 1t-49 2t-85 2t-137.5 1q-129 0 -191.5 -3 t-94.5 -3q-12 0 -16.5 7t-4.5 17v41q0 16 16 17h54q43 0 57 17.5t4 58.5q-6 27 -22.5 84t-36 120.5t-38 121t-26.5 85.5h-475q-4 -12 -14 -41.5t-23.5 -68.5t-28 -84t-27.5 -85t-22.5 -71t-11.5 -45q-4 -12 -4 -24v-19q0 -20 21.5 -34.5t52.5 -14.5h86q20 0 20 -10v-52 q0 -20 -16 -20q-23 0 -86.5 3t-171.5 3q-57 0 -95 -1t-64 -2t-41 -2t-25 -1t-11.5 8t-1.5 18zM439 1596.5q-3 7.5 1 29.5q12 90 60.5 149.5t120.5 59.5q41 0 79.5 -10t100.5 -27q53 -12 87 -22.5t64 -10.5q37 0 52.5 22.5t21.5 51.5q0 12 12 12h37q6 0 7 -7t-3 -29 q-4 -35 -16 -70t-32.5 -62.5t-48.5 -45t-62 -17.5q-41 0 -84 10t-109 27q-53 16 -83 22.5t-60 6.5q-29 0 -50.5 -20.5t-31.5 -63.5q-6 -12 -17 -13h-36q-7 0 -10 7.5zM459 645h426q-6 14 -19.5 59.5t-32 104.5t-38 125.5t-37 125t-30.5 100.5t-15 52q-12 37 -21 37 q-18 0 -26 -26q-2 -6 -17.5 -48t-37 -102.5t-47 -130.5t-47 -132t-38 -107.5t-20.5 -57.5z" />
<glyph unicode="&#xc4;" horiz-adv-x="1523" d="M-33 20v39q0 16 13 17h61q43 0 72.5 22.5t58.5 69.5q8 14 36 81.5t63.5 157t71.5 181.5t58 157q4 10 18.5 50.5t35 95.5t44 118.5t45 119t38 97.5t20.5 56q4 16 9 37.5t-5 32.5q-12 12 -12 24q0 14 20 21q25 6 56.5 19.5t60.5 28.5t52.5 29.5t33.5 24.5q20 20 31 21 q10 0 15 -13.5t9 -23.5q8 -33 27 -89.5t42.5 -125t48 -143t48 -143.5t41 -126t27.5 -90q18 -59 49 -152.5t62.5 -184.5t59.5 -165t38 -94q29 -53 64.5 -73.5t66.5 -20.5h65q16 0 17 -15v-43q0 -10 -4 -17t-17 -7q-14 0 -31.5 1t-49 2t-85 2t-137.5 1q-129 0 -191.5 -3 t-94.5 -3q-12 0 -16.5 7t-4.5 17v41q0 16 16 17h54q43 0 57 17.5t4 58.5q-6 27 -22.5 84t-36 120.5t-38 121t-26.5 85.5h-475q-4 -12 -14 -41.5t-23.5 -68.5t-28 -84t-27.5 -85t-22.5 -71t-11.5 -45q-4 -12 -4 -24v-19q0 -20 21.5 -34.5t52.5 -14.5h86q20 0 20 -10v-52 q0 -20 -16 -20q-23 0 -86.5 3t-171.5 3q-57 0 -95 -1t-64 -2t-41 -2t-25 -1t-11.5 8t-1.5 18zM436 1733q0 12 6.5 30.5t20.5 35t38.5 28.5t61.5 12q41 0 74 -29.5t33 -85.5q0 -49 -32 -81.5t-75 -32.5q-18 0 -40.5 5t-41 19.5t-32 38t-13.5 60.5zM459 645h426 q-6 14 -19.5 59.5t-32 104.5t-38 125.5t-37 125t-30.5 100.5t-15 52q-12 37 -21 37q-18 0 -26 -26q-2 -6 -17.5 -48t-37 -102.5t-47 -130.5t-47 -132t-38 -107.5t-20.5 -57.5zM870 1733q0 12 6.5 30.5t20.5 35t39 28.5t61 12q41 0 76 -29.5t35 -85.5q0 -49 -34 -81.5 t-77 -32.5q-18 0 -40.5 5t-41 19.5t-32 38t-13.5 60.5z" />
<glyph unicode="&#xc5;" horiz-adv-x="1523" d="M-33 20v39q0 16 13 17h61q43 0 72.5 22.5t58.5 69.5q8 14 36 81.5t63.5 157t71.5 181.5t58 157q4 10 18.5 50.5t35 95.5t44 118.5t45 119t38 97.5t20.5 56q4 16 9 37.5t-5 32.5q-12 12 -12 24q0 16 20 19q53 6 97.5 10t76.5 14q29 10 44.5 20.5t29.5 10.5t20.5 -12.5 t16.5 -40.5q4 -10 18.5 -52t33.5 -101l43 -129q24 -71 45.5 -137.5t39 -122.5t27.5 -89q18 -59 49 -152.5t62.5 -184.5t59.5 -165t38 -94q29 -53 64.5 -73.5t66.5 -20.5h65q16 0 17 -15v-43q0 -10 -4 -17t-17 -7q-14 0 -31.5 1t-49 2t-85 2t-137.5 1q-129 0 -191.5 -3 t-94.5 -3q-12 0 -16.5 7t-4.5 17v41q0 16 16 17h54q43 0 57 17.5t4 58.5q-6 27 -22.5 84t-36 120.5t-38 121t-26.5 85.5h-475q-4 -12 -14 -41.5t-23.5 -68.5t-28 -84t-27.5 -85t-22.5 -71t-11.5 -45q-4 -12 -4 -24v-19q0 -20 21.5 -34.5t52.5 -14.5h86q20 0 20 -10v-52 q0 -20 -16 -20q-23 0 -86.5 3t-171.5 3q-57 0 -95 -1t-64 -2t-41 -2t-25 -1t-11.5 8t-1.5 18zM459 645h426q-6 14 -19.5 59.5t-32 104.5t-38 125.5t-37 125t-30.5 100.5t-15 52q-12 37 -21 37q-18 0 -26 -26q-2 -6 -17.5 -48t-37 -102.5t-47 -130.5t-47 -132t-38 -107.5 t-20.5 -57.5zM520 1714q0 41 19.5 76t54.5 59.5t80 38t98 13.5q111 0 168 -48.5t57 -117.5q0 -53 -24.5 -90t-60 -58.5t-78.5 -31t-80 -9.5q-98 0 -166 45t-68 123zM670 1724q0 -49 23.5 -79.5t70.5 -30.5q94 0 94 110q0 53 -27.5 81t-62.5 28q-51 -2 -74.5 -35t-23.5 -74z " />
<glyph unicode="&#xc6;" horiz-adv-x="1918" d="M-139 8v53q0 14 16 15h62q31 0 58.5 28.5t51.5 63.5q12 14 51 81.5t88.5 155t100.5 180.5t88 160q27 49 73 131t94 165t85 151t45 86q23 49 13.5 73.5t-36.5 24.5h-37q-16 0 -16 15v47q0 18 25 18q10 0 42.5 -1t77.5 -1q45 -2 93.5 -3t85.5 -1h688q16 0 29.5 1t23.5 3 q10 0 17.5 1t11.5 1q12 0 16 -10q2 -10 16.5 -60.5t29.5 -106.5t28.5 -104.5t15.5 -56.5q4 -16 -4 -20l-35 -21q-4 -4 -11 0t-11 13q-2 2 -32 36.5t-68 74.5t-72.5 76t-44.5 42q-29 25 -70 39t-78 14l-307 4l-4 -645q23 0 59 1l74 2q37 1 65.5 3t38.5 4q33 8 55.5 20.5 t39.5 49.5q2 6 8 22.5t11 34t9 34t4 24.5q0 16 17 16l53 -4q20 0 16 -16q-4 -14 -5 -43t-2 -63t-1 -65v-51q0 -66 4 -130t9 -95q0 -14 -17 -16l-45 -10q-10 -2 -16 14q-2 8 -7.5 23.5t-10.5 32t-9 30.5t-6 20q-8 29 -37 48.5t-65 23.5q-55 8 -124 8h-118v-55q0 -41 1 -95.5 t3 -106.5t3 -92t1 -54q0 -86 19.5 -118t54.5 -42q25 -6 68.5 -11t103.5 -5q12 0 32.5 1t43.5 2l45 2q23 1 39 3q35 4 76.5 22.5t82.5 46.5q12 8 40 39t58.5 67t56.5 67.5t34 44.5q10 12 24 4l29 -17q12 -6 12 -16l-104 -313q-8 -29 -39 -29q-10 0 -47 1t-126 2t-242.5 2 t-395.5 1q-123 0 -184.5 -3t-90.5 -3q-20 0 -20 18v49q0 14 20 15h107q35 0 44 17.5t9 70.5v485h-393q-33 -59 -67.5 -129.5t-65.5 -134t-52.5 -111t-27.5 -61.5q-20 -53 -20 -92q0 -25 19 -35t38 -10h78q20 0 20 -17v-51q0 -14 -20 -14q-18 0 -65.5 3t-164.5 3 q-96 0 -149 -3t-72 -3q-16 0 -16 14zM471 731h348v551q0 29 -16 29q-10 0 -16.5 -3t-14.5 -18z" />
<glyph unicode="&#xc7;" horiz-adv-x="1482" d="M86 715q0 152 50 292t159 257q41 45 95 83.5t121 68.5t145.5 47.5t170.5 17.5q141 0 250 -34t164 -65q23 -12 30 -12t11 12l16 54q4 10 9.5 11t23.5 1t23.5 -5t5.5 -28q0 -14 6 -73.5t15.5 -130t16.5 -135t11 -87.5q2 -18 -8 -20l-39 -13q-12 -6 -23 21q-18 55 -56 127 t-103 139q-68 66 -152 109t-205 43q-123 0 -211 -51.5t-143 -134.5t-82 -188.5t-27 -215.5q0 -47 8.5 -113.5t30 -139.5t57.5 -145.5t93 -134.5q51 -53 98 -84.5t91 -48t85 -21.5t78 -5q84 0 159 19.5t138.5 52t111.5 75.5t81 90q16 23 24 15l35 -31q10 -10 4 -21 q-45 -63 -102.5 -123.5t-130 -107.5t-159.5 -77t-190 -34l-98 -118q80 -16 124 -57.5t44 -90.5q0 -47 -32.5 -85t-86 -63.5t-122 -39t-140.5 -13.5q-29 0 -37 12.5t-8 28.5q0 23 21.5 28t52.5 5q25 0 52.5 7t50 20.5t37.5 34t15 49.5q0 78 -127 102l146 182 q-80 4 -145.5 19.5t-121 40t-101.5 57.5t-89 72q-57 51 -98 118.5t-68.5 141.5t-41 149.5t-13.5 143.5z" />
<glyph unicode="&#xc8;" horiz-adv-x="1404" d="M86 10v49q0 16 20 17h70q35 0 55.5 3t30.5 12t13.5 26.5t3.5 46.5v487v201q0 63 -1.5 137t-2.5 140.5t-2 114.5t-3 59q-6 41 -24.5 56t-65.5 15h-78q-12 0 -12 15v53q0 14 12 14q35 0 97.5 -4t189.5 -2h57h74q51 0 115.5 1t136.5 1t136.5 1t115.5 1h74q25 0 49 1t33 1 q12 0 16 -12q2 -10 16.5 -59.5t31 -105.5t29.5 -104.5t17 -56.5q6 -16 -6 -22l-37 -17q-10 -4 -18 11q-4 4 -33 36.5t-65.5 71.5t-72.5 75t-54 46q-33 18 -73 34.5t-83 18.5l-311 8l-5 -592q23 0 59 2l72 2q36 1 64.5 3t38.5 4q35 6 55.5 21.5t38.5 51.5q10 20 21.5 53 t11.5 62q0 16 16 17l54 -5q14 0 12 -16q-2 -12 -3 -41t-1 -62v-66v-52q0 -61 4 -126t8 -99q0 -12 -16 -15l-45 -8q-10 -2 -17 14q-6 25 -15 54.5t-18 48.5q-14 31 -40.5 50t-61.5 24q-55 6 -121.5 9t-116.5 3l3 -123q0 -41 1 -95.5t2 -106.5t2 -92t1 -54q0 -80 23.5 -115 t58.5 -45q25 -6 62.5 -11t96.5 -5q14 0 37 1t47.5 2t48 2t39.5 3q29 4 78 19.5t90 49.5q14 12 40 41t54.5 62t55 64.5t41.5 50.5q10 14 22 8l33 -21q10 -6 4 -20l-98 -307q-10 -31 -45 -31q-8 0 -47 1t-135 3q-98 0 -261 1t-421 1q-57 0 -99.5 -1t-75.5 -1q-31 -2 -52 -3 t-36 -1q-16 0 -16 16zM408 1831q0 31 26.5 62.5t67.5 31.5q25 0 48 -11t38 -26l274 -266q10 -10 4 -16l-22 -31q-6 -8 -19 -2l-348 160q-29 14 -49 41.5t-20 56.5z" />
<glyph unicode="&#xc9;" horiz-adv-x="1404" d="M86 10v49q0 16 20 17h70q35 0 55.5 3t30.5 12t13.5 26.5t3.5 46.5v487v201q0 63 -1.5 137t-2.5 140.5t-2 114.5t-3 59q-6 41 -24.5 56t-65.5 15h-78q-12 0 -12 15v53q0 14 12 14q35 0 97.5 -4t189.5 -2h57h74q51 0 115.5 1t136.5 1t136.5 1t115.5 1h74q25 0 49 1t33 1 q12 0 16 -12q2 -10 16.5 -59.5t31 -105.5t29.5 -104.5t17 -56.5q6 -16 -6 -22l-37 -17q-10 -4 -18 11q-4 4 -33 36.5t-65.5 71.5t-72.5 75t-54 46q-33 18 -73 34.5t-83 18.5l-311 8l-5 -592q23 0 59 2l72 2q36 1 64.5 3t38.5 4q35 6 55.5 21.5t38.5 51.5q10 20 21.5 53 t11.5 62q0 16 16 17l54 -5q14 0 12 -16q-2 -12 -3 -41t-1 -62v-66v-52q0 -61 4 -126t8 -99q0 -12 -16 -15l-45 -8q-10 -2 -17 14q-6 25 -15 54.5t-18 48.5q-14 31 -40.5 50t-61.5 24q-55 6 -121.5 9t-116.5 3l3 -123q0 -41 1 -95.5t2 -106.5t2 -92t1 -54q0 -80 23.5 -115 t58.5 -45q25 -6 62.5 -11t96.5 -5q14 0 37 1t47.5 2t48 2t39.5 3q29 4 78 19.5t90 49.5q14 12 40 41t54.5 62t55 64.5t41.5 50.5q10 14 22 8l33 -21q10 -6 4 -20l-98 -307q-10 -31 -45 -31q-8 0 -47 1t-135 3q-98 0 -261 1t-421 1q-57 0 -99.5 -1t-75.5 -1q-31 -2 -52 -3 t-36 -1q-16 0 -16 16zM639 1606q-8 8 4 16l281 268q16 16 39.5 25.5t46.5 9.5q37 0 62.5 -29.5t25.5 -64.5q0 -27 -19.5 -54.5t-56.5 -43.5l-344 -160q-8 -6 -14 0z" />
<glyph unicode="&#xca;" horiz-adv-x="1404" d="M86 10v49q0 16 20 17h70q35 0 55.5 3t30.5 12t13.5 26.5t3.5 46.5v487v201q0 63 -1.5 137t-2.5 140.5t-2 114.5t-3 59q-6 41 -24.5 56t-65.5 15h-78q-12 0 -12 15v53q0 14 12 14q35 0 97.5 -4t189.5 -2h57h74q51 0 115.5 1t136.5 1t136.5 1t115.5 1h74q25 0 49 1t33 1 q12 0 16 -12q2 -10 16.5 -59.5t31 -105.5t29.5 -104.5t17 -56.5q6 -16 -6 -22l-37 -17q-10 -4 -18 11q-4 4 -33 36.5t-65.5 71.5t-72.5 75t-54 46q-33 18 -73 34.5t-83 18.5l-311 8l-5 -592q23 0 59 2l72 2q36 1 64.5 3t38.5 4q35 6 55.5 21.5t38.5 51.5q10 20 21.5 53 t11.5 62q0 16 16 17l54 -5q14 0 12 -16q-2 -12 -3 -41t-1 -62v-66v-52q0 -61 4 -126t8 -99q0 -12 -16 -15l-45 -8q-10 -2 -17 14q-6 25 -15 54.5t-18 48.5q-14 31 -40.5 50t-61.5 24q-55 6 -121.5 9t-116.5 3l3 -123q0 -41 1 -95.5t2 -106.5t2 -92t1 -54q0 -80 23.5 -115 t58.5 -45q25 -6 62.5 -11t96.5 -5q14 0 37 1t47.5 2t48 2t39.5 3q29 4 78 19.5t90 49.5q14 12 40 41t54.5 62t55 64.5t41.5 50.5q10 14 22 8l33 -21q10 -6 4 -20l-98 -307q-10 -31 -45 -31q-8 0 -47 1t-135 3q-98 0 -261 1t-421 1q-57 0 -99.5 -1t-75.5 -1q-31 -2 -52 -3 t-36 -1q-16 0 -16 16zM438 1597q-8 10 2 21l262 258q10 6 16.5 11t12.5 5q8 0 33 -24l268 -252q8 -8 0 -17l-14 -18q-4 -10 -17 -4l-274 111l-254 -111q-14 -6 -20 0z" />
<glyph unicode="&#xcb;" horiz-adv-x="1404" d="M86 10v49q0 16 20 17h70q35 0 55.5 3t30.5 12t13.5 26.5t3.5 46.5v487v201q0 63 -1.5 137t-2.5 140.5t-2 114.5t-3 59q-6 41 -24.5 56t-65.5 15h-78q-12 0 -12 15v53q0 14 12 14q35 0 97.5 -4t189.5 -2h57h74q51 0 115.5 1t136.5 1t136.5 1t115.5 1h74q25 0 49 1t33 1 q12 0 16 -12q2 -10 16.5 -59.5t31 -105.5t29.5 -104.5t17 -56.5q6 -16 -6 -22l-37 -17q-10 -4 -18 11q-4 4 -33 36.5t-65.5 71.5t-72.5 75t-54 46q-33 18 -73 34.5t-83 18.5l-311 8l-5 -592q23 0 59 2l72 2q36 1 64.5 3t38.5 4q35 6 55.5 21.5t38.5 51.5q10 20 21.5 53 t11.5 62q0 16 16 17l54 -5q14 0 12 -16q-2 -12 -3 -41t-1 -62v-66v-52q0 -61 4 -126t8 -99q0 -12 -16 -15l-45 -8q-10 -2 -17 14q-6 25 -15 54.5t-18 48.5q-14 31 -40.5 50t-61.5 24q-55 6 -121.5 9t-116.5 3l3 -123q0 -41 1 -95.5t2 -106.5t2 -92t1 -54q0 -80 23.5 -115 t58.5 -45q25 -6 62.5 -11t96.5 -5q14 0 37 1t47.5 2t48 2t39.5 3q29 4 78 19.5t90 49.5q14 12 40 41t54.5 62t55 64.5t41.5 50.5q10 14 22 8l33 -21q10 -6 4 -20l-98 -307q-10 -31 -45 -31q-8 0 -47 1t-135 3q-98 0 -261 1t-421 1q-57 0 -99.5 -1t-75.5 -1q-31 -2 -52 -3 t-36 -1q-16 0 -16 16zM387 1733q0 12 6 30.5t20.5 35t39 28.5t61.5 12q41 0 74 -29.5t33 -85.5q0 -49 -32 -81.5t-75 -32.5q-18 0 -40.5 5t-41 19.5t-32 38t-13.5 60.5zM821 1733q0 12 6.5 30.5t20.5 35t38.5 28.5t61.5 12q41 0 76 -29.5t35 -85.5q0 -49 -34 -81.5 t-77 -32.5q-18 0 -40.5 5t-41 19.5t-32 38t-13.5 60.5z" />
<glyph unicode="&#xcc;" horiz-adv-x="794" d="M41 1831q0 31 26.5 62.5t67.5 31.5q25 0 48.5 -11t37.5 -26l275 -266q10 -10 4 -16l-23 -31q-6 -8 -18 -2l-348 160q-29 14 -49.5 41.5t-20.5 56.5zM53 1389v53q0 14 13 14q18 0 99 -3t232 -3q74 0 124 1t84 2t53.5 2t29.5 1q16 0 17 -18v-47q0 -16 -17 -17h-78 q-35 0 -56.5 -13t-21.5 -42v-43q0 -37 -1 -89t-1 -113.5t-1 -115t-1 -91.5v-44v-159v-44q0 -38 1 -93.5t1 -119t1 -119t1 -93.5v-45q0 -49 23 -61.5t59 -12.5h86q16 0 17 -15v-51q0 -16 -21 -16q-18 0 -85.5 3t-213.5 3q-154 0 -226.5 -3t-88.5 -3t-16 14v55q0 12 16 13h82 q31 0 59.5 9t34.5 50q0 6 1 45t2 94.5t2 121t2 128t1 113.5v80v143q0 18 -1 86t-2 144.5t-2 140t-1 74.5q-4 37 -22.5 53t-61.5 16h-106q-17 1 -17 15z" />
<glyph unicode="&#xcd;" horiz-adv-x="794" d="M53 1389v53q0 14 13 14q18 0 99 -3t232 -3q74 0 124 1t84 2t53.5 2t29.5 1q16 0 17 -18v-47q0 -16 -17 -17h-78q-35 0 -56.5 -13t-21.5 -42v-43q0 -37 -1 -89t-1 -113.5t-1 -115t-1 -91.5v-44v-159v-44q0 -38 1 -93.5t1 -119t1 -119t1 -93.5v-45q0 -49 23 -61.5t59 -12.5 h86q16 0 17 -15v-51q0 -16 -21 -16q-18 0 -85.5 3t-213.5 3q-154 0 -226.5 -3t-88.5 -3t-16 14v55q0 12 16 13h82q31 0 59.5 9t34.5 50q0 6 1 45t2 94.5t2 121t2 128t1 113.5v80v143q0 18 -1 86t-2 144.5t-2 140t-1 74.5q-4 37 -22.5 53t-61.5 16h-106q-17 1 -17 15z M293 1606q-8 8 4 16l281 268q16 16 39.5 25.5t46.5 9.5q37 0 62.5 -29.5t25.5 -64.5q0 -27 -19.5 -54.5t-56.5 -43.5l-344 -160q-8 -6 -15 0z" />
<glyph unicode="&#xce;" horiz-adv-x="794" d="M53 1389v53q0 14 13 14q18 0 99 -3t232 -3q74 0 124 1t84 2t53.5 2t29.5 1q16 0 17 -18v-47q0 -16 -17 -17h-78q-35 0 -56.5 -13t-21.5 -42v-43q0 -37 -1 -89t-1 -113.5t-1 -115t-1 -91.5v-44v-159v-44q0 -38 1 -93.5t1 -119t1 -119t1 -93.5v-45q0 -49 23 -61.5t59 -12.5 h86q16 0 17 -15v-51q0 -16 -21 -16q-18 0 -85.5 3t-213.5 3q-154 0 -226.5 -3t-88.5 -3t-16 14v55q0 12 16 13h82q31 0 59.5 9t34.5 50q0 6 1 45t2 94.5t2 121t2 128t1 113.5v80v143q0 18 -1 86t-2 144.5t-2 140t-1 74.5q-4 37 -22.5 53t-61.5 16h-106q-17 1 -17 15z M102 1597q-8 10 2 21l263 258q10 6 16 11t12 5q8 0 33 -24l268 -252q8 -8 0 -17l-14 -18q-4 -10 -16 -4l-275 111l-254 -111q-14 -6 -20 0z" />
<glyph unicode="&#xcf;" horiz-adv-x="794" d="M53 1389v53q0 14 13 14q18 0 99 -3t232 -3q74 0 124 1t84 2t53.5 2t29.5 1q16 0 17 -18v-47q0 -16 -17 -17h-78q-35 0 -56.5 -13t-21.5 -42v-43q0 -37 -1 -89t-1 -113.5t-1 -115t-1 -91.5v-44v-159v-44q0 -38 1 -93.5t1 -119t1 -119t1 -93.5v-45q0 -49 23 -61.5t59 -12.5 h86q16 0 17 -15v-51q0 -16 -21 -16q-18 0 -85.5 3t-213.5 3q-154 0 -226.5 -3t-88.5 -3t-16 14v55q0 12 16 13h82q31 0 59.5 9t34.5 50q0 6 1 45t2 94.5t2 121t2 128t1 113.5v80v143q0 18 -1 86t-2 144.5t-2 140t-1 74.5q-4 37 -22.5 53t-61.5 16h-106q-17 1 -17 15z M61 1733q0 12 6.5 30.5t20.5 35t39 28.5t61 12q41 0 74 -29.5t33 -85.5q0 -49 -32 -81.5t-75 -32.5q-18 0 -40.5 5t-41 19.5t-32 38t-13.5 60.5zM496 1733q0 12 6 30.5t20.5 35t39 28.5t61.5 12q41 0 75.5 -29.5t34.5 -85.5q0 -49 -33.5 -81.5t-76.5 -32.5q-18 0 -41 5 t-41.5 19.5t-31.5 38t-13 60.5z" />
<glyph unicode="&#xd0;" horiz-adv-x="1712" d="M53 10v49q0 16 17 17h118q59 0 68 51q2 10 5 63.5t5 127t3 157.5t1 156v57h-184q-12 0 -12 17v53q0 16 16 16h180v168q0 20 -1 76.5t-3 119t-4 115t-4 64.5q-4 37 -23.5 47t-50.5 10h-110q-16 0 -17 15v51q0 16 17 16q18 0 87.5 -3t223.5 -3q27 0 71 1t90 2t87 2t59 1 q106 0 200.5 -7t178.5 -27.5t160 -57.5t145 -94q102 -84 166 -212t64 -308q0 -88 -12.5 -162t-37 -138.5t-62.5 -123t-89 -113.5q-74 -84 -166 -128t-184 -64.5t-174 -23.5t-136 -3q-12 0 -60 1t-108 2l-121 2q-60 1 -100 1q-133 0 -201.5 -3t-84.5 -3q-17 0 -17 16z M528 651q0 -23 1 -73t1 -110t1 -121.5t1 -104.5q0 -31 7.5 -57.5t27.5 -55.5q20 -31 71.5 -44t111.5 -13q129 0 238.5 54t187.5 153q66 84 106.5 204.5t40.5 261.5q0 61 -12.5 124t-34 121.5t-52 109.5t-65.5 92q-84 90 -203.5 140t-255.5 50q-35 0 -70.5 -2t-60.5 -14 q-23 -10 -30 -32.5t-7 -59.5q-2 -33 -3 -92.5t-1 -120.5v-111v-61v-115h316q16 0 16 -12v-62q0 -12 -16 -12h-316v-37z" />
<glyph unicode="&#xd1;" horiz-adv-x="1654" d="M29 1389v55q0 12 12 12q8 0 21.5 -1t41.5 -3q29 -2 72 -2h111q27 0 49 1t41 3q20 0 33.5 1t23.5 1q18 0 28.5 -4t20.5 -14q4 -6 38 -47t82 -100.5t103.5 -129t105.5 -133t87 -111t47 -61.5q6 -8 36 -43t69 -84t84 -105.5t85 -105.5t69.5 -86t37.5 -47h8v213v122v100 q0 46 -1 85t-3 78q-2 29 -4 77t-5 96t-6 88t-7 52q-10 37 -41 57.5t-68 20.5h-65q-10 0 -11.5 5t-1.5 14v47q0 10 2 13t15 3q18 0 71.5 -3t157.5 -3q92 0 135 3t62 3q20 0 20 -14v-47q0 -20 -12 -21h-57q-59 0 -68 -108q-4 -53 -9 -138.5t-10.5 -182.5t-8.5 -195.5 t-3 -176.5v-540q0 -23 -3 -40.5t-21 -17.5q-23 0 -40.5 10.5t-29.5 22.5q-6 8 -28.5 34t-56.5 65.5t-78 91t-91 108.5q-53 66 -107.5 132.5t-100.5 121.5t-78.5 95t-41.5 53q-8 6 -36.5 41.5t-68.5 85t-86 106.5t-86 106.5t-68.5 84t-35.5 43.5h-12v-250q0 -131 3 -248 t6 -209t6.5 -154.5t5.5 -87.5q4 -78 25.5 -114.5t76.5 -36.5h53q12 0 14.5 -5t2.5 -14v-47q0 -10 -2 -13t-15 -3q-8 0 -32.5 1t-56.5 2t-67.5 2t-64.5 1q-20 0 -53 -1l-66 -2q-33 -1 -59.5 -2t-34.5 -1q-12 0 -12 18v51q0 4 3 8.5t9 4.5h70q41 0 62.5 38t29.5 132 q0 14 3 71.5t5 145.5t4 199.5t2 234.5v260q0 92 -46 154.5t-114 62.5h-65q-12 3 -12 15zM546 1596.5q-3 7.5 1 29.5q12 90 60 149.5t120 59.5q41 0 80 -10t100 -27q53 -12 87 -22.5t65 -10.5q37 0 52 22.5t22 51.5q0 12 12 12h37q6 0 7 -7t-3 -29q-4 -35 -16.5 -70 t-33 -62.5t-48 -45t-62.5 -17.5q-41 0 -84 10t-108 27q-53 16 -83 22.5t-61 6.5q-29 0 -50.5 -20.5t-31.5 -63.5q-6 -12 -16 -13h-37q-6 0 -9 7.5z" />
<glyph unicode="&#xd2;" horiz-adv-x="1740" d="M106 711q0 45 8.5 103t29 125t57.5 137.5t94 142.5q68 82 141.5 134t148 79.5t148.5 38t139 10.5q57 0 116 -6.5t120 -24.5t122.5 -50t125.5 -83q57 -47 108.5 -108.5t89 -137.5t59 -166t21.5 -194q0 -115 -33.5 -230.5t-117.5 -220.5q-49 -61 -108.5 -114.5 t-133.5 -92.5t-166 -61.5t-207 -22.5q-92 0 -216 31t-246 104q-55 33 -108.5 90.5t-95.5 135.5t-69 174t-27 207zM385 780q0 -201 54.5 -338t131 -222t162.5 -123t152 -38q102 0 178 35t129 90.5t87 126t52.5 140t25.5 133t7 106.5q0 168 -50 298t-126 219t-163 136.5 t-161 47.5q-14 0 -41.5 1t-66.5 -8.5t-87 -33t-100 -74.5q-47 -45 -81.5 -105.5t-57 -126t-34 -134.5t-11.5 -130zM535 1831q0 31 26.5 62.5t67.5 31.5q25 0 48 -11t38 -26l274 -266q10 -10 4 -16l-22 -31q-6 -8 -19 -2l-348 160q-29 14 -49 41.5t-20 56.5z" />
<glyph unicode="&#xd3;" horiz-adv-x="1740" d="M106 711q0 45 8.5 103t29 125t57.5 137.5t94 142.5q68 82 141.5 134t148 79.5t148.5 38t139 10.5q57 0 116 -6.5t120 -24.5t122.5 -50t125.5 -83q57 -47 108.5 -108.5t89 -137.5t59 -166t21.5 -194q0 -115 -33.5 -230.5t-117.5 -220.5q-49 -61 -108.5 -114.5 t-133.5 -92.5t-166 -61.5t-207 -22.5q-92 0 -216 31t-246 104q-55 33 -108.5 90.5t-95.5 135.5t-69 174t-27 207zM385 780q0 -201 54.5 -338t131 -222t162.5 -123t152 -38q102 0 178 35t129 90.5t87 126t52.5 140t25.5 133t7 106.5q0 168 -50 298t-126 219t-163 136.5 t-161 47.5q-14 0 -41.5 1t-66.5 -8.5t-87 -33t-100 -74.5q-47 -45 -81.5 -105.5t-57 -126t-34 -134.5t-11.5 -130zM725 1606q-8 8 4 16l281 268q16 16 39.5 25.5t46.5 9.5q37 0 62.5 -29.5t25.5 -64.5q0 -27 -19.5 -54.5t-56.5 -43.5l-344 -160q-8 -6 -14 0z" />
<glyph unicode="&#xd4;" horiz-adv-x="1740" d="M106 711q0 45 8.5 103t29 125t57.5 137.5t94 142.5q68 82 141.5 134t148 79.5t148.5 38t139 10.5q57 0 116 -6.5t120 -24.5t122.5 -50t125.5 -83q57 -47 108.5 -108.5t89 -137.5t59 -166t21.5 -194q0 -115 -33.5 -230.5t-117.5 -220.5q-49 -61 -108.5 -114.5 t-133.5 -92.5t-166 -61.5t-207 -22.5q-92 0 -216 31t-246 104q-55 33 -108.5 90.5t-95.5 135.5t-69 174t-27 207zM385 780q0 -201 54.5 -338t131 -222t162.5 -123t152 -38q102 0 178 35t129 90.5t87 126t52.5 140t25.5 133t7 106.5q0 168 -50 298t-126 219t-163 136.5 t-161 47.5q-14 0 -41.5 1t-66.5 -8.5t-87 -33t-100 -74.5q-47 -45 -81.5 -105.5t-57 -126t-34 -134.5t-11.5 -130zM575 1597q-8 10 3 21l262 258q10 6 16 11t12 5q8 0 33 -24l268 -252q8 -8 0 -17l-14 -18q-4 -10 -16 -4l-275 111l-254 -111q-14 -6 -20 0z" />
<glyph unicode="&#xd5;" horiz-adv-x="1740" d="M106 711q0 45 8.5 103t29 125t57.5 137.5t94 142.5q68 82 141.5 134t148 79.5t148.5 38t139 10.5q57 0 116 -6.5t120 -24.5t122.5 -50t125.5 -83q57 -47 108.5 -108.5t89 -137.5t59 -166t21.5 -194q0 -115 -33.5 -230.5t-117.5 -220.5q-49 -61 -108.5 -114.5 t-133.5 -92.5t-166 -61.5t-207 -22.5q-92 0 -216 31t-246 104q-55 33 -108.5 90.5t-95.5 135.5t-69 174t-27 207zM385 780q0 -201 54.5 -338t131 -222t162.5 -123t152 -38q102 0 178 35t129 90.5t87 126t52.5 140t25.5 133t7 106.5q0 168 -50 298t-126 219t-163 136.5 t-161 47.5q-14 0 -41.5 1t-66.5 -8.5t-87 -33t-100 -74.5q-47 -45 -81.5 -105.5t-57 -126t-34 -134.5t-11.5 -130zM548 1596.5q-3 7.5 1 29.5q12 90 60 149.5t120 59.5q41 0 80 -10t100 -27q53 -12 87 -22.5t65 -10.5q37 0 52 22.5t22 51.5q0 12 12 12h37q6 0 7 -7t-3 -29 q-4 -35 -16.5 -70t-33 -62.5t-48 -45t-62.5 -17.5q-41 0 -84 10t-108 27q-53 16 -83 22.5t-61 6.5q-29 0 -50 -20.5t-32 -63.5q-6 -12 -16 -13h-37q-6 0 -9 7.5z" />
<glyph unicode="&#xd6;" horiz-adv-x="1740" d="M106 711q0 45 8.5 103t29 125t57.5 137.5t94 142.5q68 82 141.5 134t148 79.5t148.5 38t139 10.5q57 0 116 -6.5t120 -24.5t122.5 -50t125.5 -83q57 -47 108.5 -108.5t89 -137.5t59 -166t21.5 -194q0 -115 -33.5 -230.5t-117.5 -220.5q-49 -61 -108.5 -114.5 t-133.5 -92.5t-166 -61.5t-207 -22.5q-92 0 -216 31t-246 104q-55 33 -108.5 90.5t-95.5 135.5t-69 174t-27 207zM385 780q0 -201 54.5 -338t131 -222t162.5 -123t152 -38q102 0 178 35t129 90.5t87 126t52.5 140t25.5 133t7 106.5q0 168 -50 298t-126 219t-163 136.5 t-161 47.5q-14 0 -41.5 1t-66.5 -8.5t-87 -33t-100 -74.5q-47 -45 -81.5 -105.5t-57 -126t-34 -134.5t-11.5 -130zM535 1733q0 12 6 30.5t20 35t39 28.5t62 12q41 0 73.5 -29.5t32.5 -85.5q0 -49 -31.5 -81.5t-74.5 -32.5q-18 0 -41 5t-41.5 19.5t-31.5 38t-13 60.5z M969 1733q0 12 6 30.5t20.5 35t39 28.5t61.5 12q41 0 75.5 -29.5t34.5 -85.5q0 -49 -33.5 -81.5t-76.5 -32.5q-18 0 -41 5t-41.5 19.5t-31.5 38t-13 60.5z" />
<glyph unicode="&#xd7;" d="M123 205l291 287l-291 286l98 103l295 -299l295 299l90 -99l-295 -286l295 -291l-94 -107l-299 303l-303 -303z" />
<glyph unicode="&#xd8;" horiz-adv-x="1740" d="M106 711q0 47 7.5 106.5t29 125t57.5 137t95 143.5q68 82 141.5 132t148 77.5t148.5 38t139 10.5q57 0 117 -6.5t121 -24.5t127 -53t135 -90l168 168q6 14 16 4l5 -4l53 -41q0 -4 2 -7q0 -2 2 -2q8 -8 0 -16l-176 -176q84 -92 138 -223t54 -303q0 -111 -35.5 -224.5 t-115.5 -222.5q-47 -63 -105.5 -116.5t-133.5 -92.5t-168 -60.5t-208 -21.5q-47 0 -103 8.5t-115.5 23.5t-120 38.5t-111.5 54.5q-16 10 -29 20l-29 21l-155 -155q-12 -12 -17 -9q-4 0 -12 9l-41 40q-8 8 -8 13q-2 2 4 16l156 156q-74 86 -127.5 215t-53.5 291zM385 774 q0 -123 20.5 -219t57.5 -174l766 778q-80 119 -180.5 175.5t-184.5 56.5q-14 0 -42.5 1t-66.5 -7.5t-85 -32t-97 -72.5q-47 -47 -82.5 -108.5t-59 -129t-35 -137.5t-11.5 -131zM512 291q43 -61 93 -105.5t99.5 -72t96.5 -41t84 -13.5q102 0 178 34t129 89.5t86 125t52.5 139 t26.5 133t7 108.5q0 115 -22.5 210t-59.5 175z" />
<glyph unicode="&#xd9;" horiz-adv-x="1525" d="M23 1393v47q0 16 20 16q16 0 92 -3t223 -3q129 0 203 3t92 3q16 0 17 -14v-51q0 -16 -17 -17h-86q-47 0 -72.5 -23.5t-27.5 -56.5q0 -10 -1 -35.5t-2 -62.5t-2 -80t-1 -88v-254v-83q0 -44 1 -87t2 -81t3 -62q4 -72 19.5 -138.5t52.5 -115.5q53 -72 128.5 -99.5 t149.5 -27.5q72 0 148.5 25.5t126.5 72.5q119 119 118 346v369q0 61 -3 123.5t-6 116t-7 93.5t-6 58q-4 41 -26.5 65.5t-57.5 24.5h-74q-16 0 -16 15v51q0 16 16 16t82 -3t168 -3q96 0 146.5 3t62.5 3q14 0 17 -4t3 -12v-47q0 -18 -12 -19h-74q-29 0 -44 -9t-24 -22.5 t-12.5 -26.5t-5.5 -22q-2 -6 -2 -31.5t-1 -60.5t-1 -76v-75v-62v-33v-38q0 -31 -1 -76t-2 -98.5t-2 -102.5t-3 -90t-4 -62q-10 -127 -49 -223t-123 -170q-66 -59 -161 -93t-212 -34q-74 0 -154.5 12.5t-140.5 36.5q-178 74 -241 275q-10 33 -17.5 77t-11.5 103t-6 136 t-2 177v486q0 53 -14.5 77.5t-55.5 24.5h-94q-16 1 -16 19zM489 1831q0 31 27 62.5t68 31.5q25 0 48 -11t38 -26l274 -266q10 -10 4 -16l-22 -31q-6 -8 -19 -2l-348 160q-29 14 -49.5 41.5t-20.5 56.5z" />
<glyph unicode="&#xda;" horiz-adv-x="1525" d="M23 1393v47q0 16 20 16q16 0 92 -3t223 -3q129 0 203 3t92 3q16 0 17 -14v-51q0 -16 -17 -17h-86q-47 0 -72.5 -23.5t-27.5 -56.5q0 -10 -1 -35.5t-2 -62.5t-2 -80t-1 -88v-254v-83q0 -44 1 -87t2 -81t3 -62q4 -72 19.5 -138.5t52.5 -115.5q53 -72 128.5 -99.5 t149.5 -27.5q72 0 148.5 25.5t126.5 72.5q119 119 118 346v369q0 61 -3 123.5t-6 116t-7 93.5t-6 58q-4 41 -26.5 65.5t-57.5 24.5h-74q-16 0 -16 15v51q0 16 16 16t82 -3t168 -3q96 0 146.5 3t62.5 3q14 0 17 -4t3 -12v-47q0 -18 -12 -19h-74q-29 0 -44 -9t-24 -22.5 t-12.5 -26.5t-5.5 -22q-2 -6 -2 -31.5t-1 -60.5t-1 -76v-75v-62v-33v-38q0 -31 -1 -76t-2 -98.5t-2 -102.5t-3 -90t-4 -62q-10 -127 -49 -223t-123 -170q-66 -59 -161 -93t-212 -34q-74 0 -154.5 12.5t-140.5 36.5q-178 74 -241 275q-10 33 -17.5 77t-11.5 103t-6 136 t-2 177v486q0 53 -14.5 77.5t-55.5 24.5h-94q-16 1 -16 19zM782 1606q-8 8 4 16l281 268q16 16 39.5 25.5t46.5 9.5q37 0 62.5 -29.5t25.5 -64.5q0 -27 -19.5 -54.5t-56.5 -43.5l-344 -160q-8 -6 -14 0z" />
<glyph unicode="&#xdb;" horiz-adv-x="1525" d="M23 1393v47q0 16 20 16q16 0 92 -3t223 -3q129 0 203 3t92 3q16 0 17 -14v-51q0 -16 -17 -17h-86q-47 0 -72.5 -23.5t-27.5 -56.5q0 -10 -1 -35.5t-2 -62.5t-2 -80t-1 -88v-254v-83q0 -44 1 -87t2 -81t3 -62q4 -72 19.5 -138.5t52.5 -115.5q53 -72 128.5 -99.5 t149.5 -27.5q72 0 148.5 25.5t126.5 72.5q119 119 118 346v369q0 61 -3 123.5t-6 116t-7 93.5t-6 58q-4 41 -26.5 65.5t-57.5 24.5h-74q-16 0 -16 15v51q0 16 16 16t82 -3t168 -3q96 0 146.5 3t62.5 3q14 0 17 -4t3 -12v-47q0 -18 -12 -19h-74q-29 0 -44 -9t-24 -22.5 t-12.5 -26.5t-5.5 -22q-2 -6 -2 -31.5t-1 -60.5t-1 -76v-75v-62v-33v-38q0 -31 -1 -76t-2 -98.5t-2 -102.5t-3 -90t-4 -62q-10 -127 -49 -223t-123 -170q-66 -59 -161 -93t-212 -34q-74 0 -154.5 12.5t-140.5 36.5q-178 74 -241 275q-10 33 -17.5 77t-11.5 103t-6 136 t-2 177v486q0 53 -14.5 77.5t-55.5 24.5h-94q-16 1 -16 19zM551 1597q-8 10 2 21l262 258q10 6 16.5 11t12.5 5q8 0 33 -24l268 -252q8 -8 0 -17l-15 -18q-4 -10 -16 -4l-274 111l-254 -111q-14 -6 -21 0z" />
<glyph unicode="&#xdc;" horiz-adv-x="1525" d="M23 1393v47q0 16 20 16q16 0 92 -3t223 -3q129 0 203 3t92 3q16 0 17 -14v-51q0 -16 -17 -17h-86q-47 0 -72.5 -23.5t-27.5 -56.5q0 -10 -1 -35.5t-2 -62.5t-2 -80t-1 -88v-254v-83q0 -44 1 -87t2 -81t3 -62q4 -72 19.5 -138.5t52.5 -115.5q53 -72 128.5 -99.5 t149.5 -27.5q72 0 148.5 25.5t126.5 72.5q119 119 118 346v369q0 61 -3 123.5t-6 116t-7 93.5t-6 58q-4 41 -26.5 65.5t-57.5 24.5h-74q-16 0 -16 15v51q0 16 16 16t82 -3t168 -3q96 0 146.5 3t62.5 3q14 0 17 -4t3 -12v-47q0 -18 -12 -19h-74q-29 0 -44 -9t-24 -22.5 t-12.5 -26.5t-5.5 -22q-2 -6 -2 -31.5t-1 -60.5t-1 -76v-75v-62v-33v-38q0 -31 -1 -76t-2 -98.5t-2 -102.5t-3 -90t-4 -62q-10 -127 -49 -223t-123 -170q-66 -59 -161 -93t-212 -34q-74 0 -154.5 12.5t-140.5 36.5q-178 74 -241 275q-10 33 -17.5 77t-11.5 103t-6 136 t-2 177v486q0 53 -14.5 77.5t-55.5 24.5h-94q-16 1 -16 19zM510 1733q0 12 6 30.5t20.5 35t39 28.5t61.5 12q41 0 73.5 -29.5t32.5 -85.5q0 -49 -31.5 -81.5t-74.5 -32.5q-18 0 -41 5t-41 19.5t-31.5 38t-13.5 60.5zM944 1733q0 12 6 30.5t20.5 35t39 28.5t61.5 12 q41 0 76 -29.5t35 -85.5q0 -49 -34 -81.5t-77 -32.5q-18 0 -40.5 5t-41 19.5t-32 38t-13.5 60.5z" />
<glyph unicode="&#xdd;" horiz-adv-x="1433" d="M23 1389v55q0 12 16 12q12 0 83 -3t187 -3q78 0 132.5 1t90 2t54 2t26.5 1q16 0 17 -14v-47q0 -20 -17 -21h-53q-63 0 -57 -59q0 -10 19.5 -50t49 -98.5t64.5 -126t68.5 -132t61.5 -118t42 -81.5q16 29 48 80t70 112.5t75.5 127t69.5 121.5t52.5 97t22.5 53 q4 29 -9.5 51.5t-60.5 22.5h-53q-16 0 -16 17v51q0 14 12 14q16 0 78.5 -3t171.5 -3q98 0 139 3t57 3t17 -14v-47q0 -20 -17 -21h-45q-23 0 -54.5 -10t-55.5 -37q-8 -10 -39 -55t-75 -111.5t-95 -144.5t-98.5 -153t-86 -137t-57.5 -95v-250q0 -29 1 -67t2 -72.5t2 -61 t1 -35.5q4 -49 26.5 -59t53.5 -10h68q14 0 14 -15v-47q0 -20 -14 -20q-16 0 -83 3t-206 3q-76 0 -127 -1t-84 -2t-50.5 -2t-23.5 -1q-14 0 -14 18v47q0 16 14 17h84q41 0 55.5 14t16.5 37t4 129t2 252v98q-8 14 -39 69.5t-73 129.5t-90 159t-92 159.5t-78.5 131t-49.5 74.5 q-18 23 -48 34t-54 11h-37q-16 1 -16 15zM786 1606q-8 8 5 16l280 268q16 16 40 25.5t46 9.5q37 0 62.5 -29.5t25.5 -64.5q0 -27 -19.5 -54.5t-56.5 -43.5l-344 -160q-8 -6 -14 0z" />
<glyph unicode="&#xde;" horiz-adv-x="1290" d="M66 1389v51q0 16 12 16q8 0 27.5 -1t54.5 -2t90 -2t139 -1q141 0 209 3t90 3q16 0 17 -14v-49q0 -18 -21 -19h-106q-31 0 -44.5 -7t-17.5 -24q-4 -25 -4 -68v-116q31 0 62.5 2t72.5 2q78 0 141.5 -4t115.5 -16.5t97.5 -31.5t88.5 -50q74 -53 110.5 -130t36.5 -157 q0 -94 -36 -170t-102.5 -129t-160.5 -81.5t-213 -28.5q-133 0 -213 12v-66v-42v-50q0 -25 1 -46t1 -32q8 -66 72 -65h106q16 0 17 -15v-47q0 -20 -17 -20q-10 0 -29.5 1t-54.5 2t-88 2t-131 1t-129 -1t-85 -2t-51.5 -2t-25.5 -1q-16 0 -16 14v51q0 16 12 17h82q41 0 56.5 11 t19.5 52q0 8 1 65.5t2 141.5t2 182.5t1 188.5v237v113v117q0 55 -1 96t-1 49q-2 45 -80 45h-94q-16 1 -16 15zM512 455q29 -12 65.5 -16.5t98.5 -4.5q57 0 107.5 24.5t88 68.5t60 103.5t22.5 131.5q0 98 -37.5 162.5t-89 101.5t-102.5 52.5t-78 15.5q-31 0 -68.5 -1 t-66.5 -12v-626z" />
<glyph unicode="&#xdf;" horiz-adv-x="1153" d="M39 14v43q0 12 20 13h82q31 0 42.5 16t11.5 53l-2 578l-121 8q-10 0 -11.5 5t-1.5 11v54q0 12 17 14l117 10v72q-2 147 37.5 250.5t107.5 171.5q90 90 176 129t164 39q49 0 95 -15.5t81 -44t56.5 -72.5t21.5 -100q0 -72 -36 -138.5t-95 -127.5q-47 -47 -70.5 -87 t-23.5 -93q0 -29 13 -51.5t37.5 -42t57.5 -39t72 -39.5q119 -68 172 -145.5t53 -206.5q-2 -59 -26.5 -113.5t-67.5 -96.5t-103.5 -68t-134.5 -26q-53 0 -100 18.5t-64 31.5q-6 6 -11 12t-5 12l-16 148q-4 18 8 20l37 12q12 2 20 -12l41 -78q41 -80 123 -80q49 0 92 36 t43 102q0 72 -32.5 124t-98.5 93q-47 29 -91 57.5t-80 62t-57.5 77.5t-21.5 106q0 49 17.5 93t40 82t46 69.5t36.5 58.5q23 43 32 90t9 90q0 70 -47.5 122t-112.5 52q-37 0 -68 -14t-59 -55q-25 -33 -36 -81t-15 -104.5t-3 -115t1 -111.5v-315q0 -182 4 -309.5t4 -149.5 q0 -49 33 -49h40q16 0 20.5 -3.5t4.5 -11.5v-37q0 -25 -16 -24q-10 0 -70.5 3t-126.5 3q-33 0 -73 -1t-76.5 -2t-63.5 -2t-33 -1q-16 0 -16 20z" />
<glyph unicode="&#xe0;" horiz-adv-x="907" d="M74 596q0 43 23.5 88t70.5 80q66 49 147.5 82t184.5 33q43 0 72.5 -4.5t51 -12.5t36 -18t28.5 -23q35 -31 42 -71.5t7 -81.5l4 -324v-98q0 -84 12.5 -114t41.5 -30q23 0 41 10.5t24 22.5q6 10 10 11t11 -3l24 -16q6 -4 8 -10t-4 -23q-8 -14 -21.5 -34.5t-36 -39t-54 -32 t-76.5 -13.5q-59 0 -104.5 30t-67.5 95h-8q-35 -37 -77 -63.5t-102 -46.5q-35 -10 -67.5 -12.5t-63.5 -2.5q-57 0 -99 45.5t-42 131.5q0 72 39 137t150 114q96 47 155.5 75t93.5 52v107q-4 31 -9 63.5t-23 51.5q-16 16 -42 23t-61 7q-29 0 -61.5 -9t-57.5 -28 q-10 -8 -13 -17t-2 -21.5t4 -27.5t3 -34q0 -55 -28.5 -87t-94.5 -32q-29 0 -49 17.5t-20 52.5zM244 1283q8 26 28.5 43t49.5 17q35 0 60.5 -18t43.5 -47l164 -246q6 -6 0 -12l-29 -25q-6 -6 -12 0l-264 185q-31 20 -40 48.5t-1 54.5zM303 213q0 -63 28.5 -94t65.5 -31 q20 2 44 12.5t43.5 24.5t31.5 30.5t12 30.5v269q-35 -23 -73.5 -41.5t-72.5 -45t-56.5 -63.5t-22.5 -92z" />
<glyph unicode="&#xe1;" horiz-adv-x="907" d="M74 596q0 43 23.5 88t70.5 80q66 49 147.5 82t184.5 33q43 0 72.5 -4.5t51 -12.5t36 -18t28.5 -23q35 -31 42 -71.5t7 -81.5l4 -324v-98q0 -84 12.5 -114t41.5 -30q23 0 41 10.5t24 22.5q6 10 10 11t11 -3l24 -16q6 -4 8 -10t-4 -23q-8 -14 -21.5 -34.5t-36 -39t-54 -32 t-76.5 -13.5q-59 0 -104.5 30t-67.5 95h-8q-35 -37 -77 -63.5t-102 -46.5q-35 -10 -67.5 -12.5t-63.5 -2.5q-57 0 -99 45.5t-42 131.5q0 72 39 137t150 114q96 47 155.5 75t93.5 52v107q-4 31 -9 63.5t-23 51.5q-16 16 -42 23t-61 7q-29 0 -61.5 -9t-57.5 -28 q-10 -8 -13 -17t-2 -21.5t4 -27.5t3 -34q0 -55 -28.5 -87t-94.5 -32q-29 0 -49 17.5t-20 52.5zM303 213q0 -63 28.5 -94t65.5 -31q20 2 44 12.5t43.5 24.5t31.5 30.5t12 30.5v269q-35 -23 -73.5 -41.5t-72.5 -45t-56.5 -63.5t-22.5 -92zM410 1016q-8 8 0 16l165 246 q20 29 45 48.5t56 16.5q29 2 50.5 -16t29.5 -44t-1.5 -55.5t-41.5 -51.5l-262 -181q-8 -8 -17 0z" />
<glyph unicode="&#xe2;" horiz-adv-x="907" d="M74 596q0 43 23.5 88t70.5 80q66 49 147.5 82t184.5 33q43 0 72.5 -4.5t51 -12.5t36 -18t28.5 -23q35 -31 42 -71.5t7 -81.5l4 -324v-98q0 -84 12.5 -114t41.5 -30q23 0 41 10.5t24 22.5q6 10 10 11t11 -3l24 -16q6 -4 8 -10t-4 -23q-8 -14 -21.5 -34.5t-36 -39t-54 -32 t-76.5 -13.5q-59 0 -104.5 30t-67.5 95h-8q-35 -37 -77 -63.5t-102 -46.5q-35 -10 -67.5 -12.5t-63.5 -2.5q-57 0 -99 45.5t-42 131.5q0 72 39 137t150 114q96 47 155.5 75t93.5 52v107q-4 31 -9 63.5t-23 51.5q-16 16 -42 23t-61 7q-29 0 -61.5 -9t-57.5 -28 q-10 -8 -13 -17t-2 -21.5t4 -27.5t3 -34q0 -55 -28.5 -87t-94.5 -32q-29 0 -49 17.5t-20 52.5zM238 1020q-8 8 2 20l219 279q16 16 24 16q10 0 25 -20l227 -277q10 -10 2 -18l-16 -16q-4 -10 -16 -5l-226 136l-205 -131q-6 -4 -10 -6.5t-10 1.5zM303 213q0 -63 28.5 -94 t65.5 -31q20 2 44 12.5t43.5 24.5t31.5 30.5t12 30.5v269q-35 -23 -73.5 -41.5t-72.5 -45t-56.5 -63.5t-22.5 -92z" />
<glyph unicode="&#xe3;" horiz-adv-x="907" d="M74 596q0 43 23.5 88t70.5 80q66 49 147.5 82t184.5 33q43 0 72.5 -4.5t51 -12.5t36 -18t28.5 -23q35 -31 42 -71.5t7 -81.5l4 -324v-98q0 -84 12.5 -114t41.5 -30q23 0 41 10.5t24 22.5q6 10 10 11t11 -3l24 -16q6 -4 8 -10t-4 -23q-8 -14 -21.5 -34.5t-36 -39t-54 -32 t-76.5 -13.5q-59 0 -104.5 30t-67.5 95h-8q-35 -37 -77 -63.5t-102 -46.5q-35 -10 -67.5 -12.5t-63.5 -2.5q-57 0 -99 45.5t-42 131.5q0 72 39 137t150 114q96 47 155.5 75t93.5 52v107q-4 31 -9 63.5t-23 51.5q-16 16 -42 23t-61 7q-29 0 -61.5 -9t-57.5 -28 q-10 -8 -13 -17t-2 -21.5t4 -27.5t3 -34q0 -55 -28.5 -87t-94.5 -32q-29 0 -49 17.5t-20 52.5zM160 1044q12 84 57 138.5t107 54.5q43 0 82.5 -11.5t68.5 -21.5q41 -12 72 -20t59 -8q35 0 49.5 18t20.5 43q2 12 12 12h37q6 0 8 -7t-2 -30q-6 -29 -19.5 -58.5t-34 -54 t-49 -41t-63.5 -16.5q-47 0 -84 11.5t-67 21.5q-74 25 -119 25q-25 0 -48.5 -18.5t-29.5 -61.5q0 -8 -12 -8h-39q-12 -1 -6 32zM303 213q0 -63 28.5 -94t65.5 -31q20 2 44 12.5t43.5 24.5t31.5 30.5t12 30.5v269q-35 -23 -73.5 -41.5t-72.5 -45t-56.5 -63.5t-22.5 -92z" />
<glyph unicode="&#xe4;" horiz-adv-x="907" d="M74 596q0 43 23.5 88t70.5 80q66 49 147.5 82t184.5 33q43 0 72.5 -4.5t51 -12.5t36 -18t28.5 -23q35 -31 42 -71.5t7 -81.5l4 -324v-98q0 -84 12.5 -114t41.5 -30q23 0 41 10.5t24 22.5q6 10 10 11t11 -3l24 -16q6 -4 8 -10t-4 -23q-8 -14 -21.5 -34.5t-36 -39t-54 -32 t-76.5 -13.5q-59 0 -104.5 30t-67.5 95h-8q-35 -37 -77 -63.5t-102 -46.5q-35 -10 -67.5 -12.5t-63.5 -2.5q-57 0 -99 45.5t-42 131.5q0 72 39 136t150 115q98 45 156.5 74t92.5 53v107q-4 31 -9 63.5t-23 51.5q-16 16 -42 23t-61 7q-29 0 -61.5 -9t-57.5 -28 q-10 -8 -13 -17t-2 -21.5t4 -27.5t3 -34q0 -55 -28.5 -87t-94.5 -32q-29 0 -49 17.5t-20 52.5zM158 1202q0 14 5 32.5t19.5 36t38 30t58.5 12.5q43 0 75.5 -30t32.5 -89q0 -51 -30.5 -77.5t-77.5 -26.5q-16 0 -38 5t-40.5 17t-30.5 33.5t-12 56.5zM303 213q0 -63 28.5 -95 t65.5 -30q20 0 44 10.5t43.5 25.5t31.5 31.5t12 30.5v269q-35 -23 -73.5 -41.5t-72.5 -45t-56.5 -63.5t-22.5 -92zM522 1202q0 14 5 32.5t19.5 36t38 30t58.5 12.5q43 0 76 -30t33 -89q0 -51 -33 -77.5t-76 -26.5q-16 0 -37.5 5t-40 17t-31 33.5t-12.5 56.5z" />
<glyph unicode="&#xe5;" horiz-adv-x="907" d="M74 596q0 43 23.5 88t70.5 80q66 49 147.5 82t184.5 33q43 0 72.5 -4.5t51 -12.5t36 -18t28.5 -23q35 -31 42 -71.5t7 -81.5l4 -324v-98q0 -84 12.5 -114t41.5 -30q23 0 41 10.5t24 22.5q6 10 10 11t11 -3l24 -16q6 -4 8 -10t-4 -23q-8 -14 -21.5 -34.5t-36 -39t-54 -32 t-76.5 -13.5q-59 0 -104.5 30t-67.5 95h-8q-35 -37 -77 -63.5t-102 -46.5q-35 -10 -67.5 -12.5t-63.5 -2.5q-57 0 -99 45.5t-42 131.5q0 72 39 137t150 114q96 47 155.5 75t93.5 52v107q-4 31 -9 63.5t-23 51.5q-16 16 -42 23t-61 7q-29 0 -61.5 -9t-57.5 -28 q-10 -8 -13 -17t-2 -21.5t4 -27.5t3 -34q0 -55 -28.5 -87t-94.5 -32q-29 0 -49 17.5t-20 52.5zM236 1167q0 78 67.5 125t163.5 47t155.5 -43t59.5 -108q2 -41 -15.5 -74t-50 -55.5t-75.5 -34.5t-90 -12q-96 0 -155.5 43.5t-59.5 111.5zM303 213q0 -63 28.5 -94t65.5 -31 q20 2 44 12.5t43.5 24.5t31.5 30.5t12 30.5v269q-35 -23 -73.5 -41.5t-72.5 -45t-56.5 -63.5t-22.5 -92zM369 1176q0 -47 23.5 -75t66.5 -28q41 0 67.5 26.5t26.5 80.5q0 47 -26.5 70.5t-63.5 23.5q-43 0 -68.5 -27.5t-25.5 -70.5z" />
<glyph unicode="&#xe6;" horiz-adv-x="1341" d="M74 592q0 37 18.5 83t79.5 89q59 47 141 81t174 34q59 0 92 -15.5t56 -34.5q12 -12 23.5 -27.5t19.5 -37.5q53 61 119.5 88t156.5 27q100 0 166 -38t104 -90.5t52 -107.5t14 -92q0 -23 -13 -34t-32 -13l-502 -27v-47q0 -63 19.5 -119.5t55.5 -97.5t85 -65.5t111 -24.5 q92 0 144 35t77 71q10 16 16 20.5t13 0.5l30 -19q14 -8 2 -30q-18 -39 -50 -79t-77 -73t-103 -53.5t-128 -20.5q-231 0 -336 156h-12q-59 -70 -108.5 -97.5t-92.5 -39.5q-35 -10 -66.5 -14.5t-84.5 -4.5q-66 0 -109 46.5t-43 130.5q0 80 43 143t158 117q96 45 158.5 75.5 t86.5 47.5v102q0 29 -3 54.5t-25 53.5q-16 16 -42 26.5t-69 10.5q-29 0 -61.5 -9t-57.5 -28q-25 -18 -16.5 -45.5t8.5 -62.5q0 -53 -29.5 -82t-89.5 -29q-31 0 -52 17.5t-21 48.5zM299 221q0 -78 28.5 -103.5t69.5 -25.5q37 0 84 27.5t82 83.5q-16 51 -23.5 110.5 t-7.5 137.5q-35 -18 -75.5 -36t-75.5 -42.5t-58.5 -60.5t-23.5 -91zM748 553l256 18q39 4 48 19.5t9 34.5q0 31 -6 62.5t-21.5 57t-40 42t-61.5 16.5q-63 0 -113.5 -55.5t-70.5 -194.5z" />
<glyph unicode="&#xe7;" horiz-adv-x="860" d="M66 393q0 98 36.5 196.5t114.5 170.5q131 119 299 119q88 0 145.5 -20.5t89 -49.5t44 -60.5t12.5 -54.5q0 -37 -23.5 -63.5t-66.5 -26.5q-53 0 -80 31t-43 72q-23 53 -54.5 68.5t-72.5 15.5q-31 0 -63.5 -16.5t-59.5 -47.5t-44 -75t-17 -99q0 -47 2 -87t9 -79t23.5 -79 t44.5 -87q41 -68 101.5 -89t109.5 -21q78 0 129.5 22.5t92.5 54.5q8 8 18 -2l25 -28q10 -10 0 -25q-16 -20 -45 -43.5t-67 -45t-82 -39t-91 -23.5l-102 -117q68 -16 109.5 -57t41.5 -91q0 -47 -30.5 -85t-81 -63.5t-114 -38.5t-126.5 -13q-25 0 -33 11t-8 30q0 18 18.5 23 t46.5 5q27 0 54.5 7.5t51 20.5t39 33.5t15.5 49.5q0 78 -131 102l143 181q-90 4 -159.5 34.5t-122.5 96.5q-59 74 -78.5 139t-19.5 143z" />
<glyph unicode="&#xe8;" horiz-adv-x="888" d="M66 424q0 43 3 79t14 71.5t30.5 72.5t52.5 80q63 82 143 117t213 35q88 0 147.5 -39t95.5 -93.5t51 -109.5t15 -86q0 -23 -14 -28t-43 -5h-495v-63q0 -78 25.5 -139.5t64.5 -104.5t86 -65.5t90 -22.5q96 0 155.5 35t92.5 84q10 18 24 10l31 -19q8 -4 9 -12t-9 -28 q-16 -29 -45 -67t-73 -72t-107.5 -56.5t-147.5 -22.5q-98 0 -170 25t-125 86q-72 82 -93 162t-21 176zM233.5 1283q8.5 26 29 43t48.5 17q35 0 60.5 -18t44.5 -47l164 -246q6 -6 0 -12l-29 -25q-6 -6 -12 0l-265 185q-31 20 -40 48.5t-0.5 54.5zM285 592h247q68 0 68 29 q0 23 -5 54.5t-18.5 60t-39 48t-64.5 19.5q-147 0 -188 -211z" />
<glyph unicode="&#xe9;" horiz-adv-x="888" d="M66 424q0 43 3 79t14 71.5t30.5 72.5t52.5 80q63 82 143 117t213 35q88 0 147.5 -39t95.5 -93.5t51 -109.5t15 -86q0 -23 -14 -28t-43 -5h-495v-63q0 -78 25.5 -139.5t64.5 -104.5t86 -65.5t90 -22.5q96 0 155.5 35t92.5 84q10 18 24 10l31 -19q8 -4 9 -12t-9 -28 q-16 -29 -45 -67t-73 -72t-107.5 -56.5t-147.5 -22.5q-98 0 -170 25t-125 86q-72 82 -93 162t-21 176zM285 592h247q68 0 68 29q0 23 -5 54.5t-18.5 60t-39 48t-64.5 19.5q-147 0 -188 -211zM399 1016q-8 8 0 16l166 246q20 29 45 48.5t56 16.5q29 2 50 -16t29.5 -44 t-1 -55.5t-42.5 -51.5l-262 -181q-8 -8 -16 0z" />
<glyph unicode="&#xea;" horiz-adv-x="888" d="M66 424q0 43 3 79t14 71.5t30.5 72.5t52.5 80q63 82 143 117t213 35q88 0 147.5 -39t95.5 -93.5t51 -109.5t15 -86q0 -23 -14 -28t-43 -5h-495v-63q0 -78 25.5 -139.5t64.5 -104.5t86 -65.5t90 -22.5q96 0 155.5 35t92.5 84q10 18 24 10l31 -19q8 -4 9 -12t-9 -28 q-16 -29 -45 -67t-73 -72t-107.5 -56.5t-147.5 -22.5q-98 0 -170 25t-125 86q-72 82 -93 162t-21 176zM236 1020q-8 8 2 20l219 279q16 16 24 16q10 0 25 -20l227 -277q10 -10 2 -18l-16 -16q-4 -10 -17 -5l-225 136l-205 -131q-6 -4 -10 -6.5t-10 1.5zM285 592h247 q68 0 68 29q0 23 -5 54.5t-18.5 60t-39 48t-64.5 19.5q-147 0 -188 -211z" />
<glyph unicode="&#xeb;" horiz-adv-x="888" d="M66 424q0 43 3 79t14 71.5t30.5 72.5t52.5 80q63 82 143 117t213 35q88 0 147.5 -39t95.5 -93.5t51 -109.5t15 -86q0 -23 -14 -28t-43 -5h-495v-63q0 -78 25.5 -139.5t64.5 -104.5t86 -65.5t90 -22.5q96 0 155.5 35t92.5 84q10 18 24 10l31 -19q8 -4 9 -12t-9 -28 q-16 -29 -45 -67t-73 -72t-107.5 -56.5t-147.5 -22.5q-98 0 -170 25t-125 86q-72 82 -93 162t-21 176zM188 1202q0 14 5.5 32.5t19.5 36t37.5 30t58.5 12.5q43 0 76 -30t33 -89q0 -51 -31 -77.5t-78 -26.5q-16 0 -37.5 5t-40 17t-31 33.5t-12.5 56.5zM285 592h247 q68 0 68 29q0 23 -5 54.5t-18.5 60t-39 48t-64.5 19.5q-147 0 -188 -211zM553 1202q0 14 5 32.5t19.5 36t38 30t58.5 12.5q43 0 75.5 -30t32.5 -89q0 -51 -32.5 -77.5t-75.5 -26.5q-16 0 -38 5t-40 17t-30.5 33.5t-12.5 56.5z" />
<glyph unicode="&#xec;" horiz-adv-x="555" d="M17.5 1283q7.5 26 29 43t49.5 17q35 0 60.5 -18t44.5 -47l164 -246q6 -6 0 -12l-29 -25q-6 -6 -12 0l-265 185q-31 20 -40 48.5t-1.5 54.5zM35 14v39q0 16 20 17h90q16 0 24.5 8t8.5 33q4 47 4 94v90v289q0 45 -18.5 76.5t-87.5 50.5q-14 4 -17.5 8t-3.5 10v23 q0 10 15 16q10 4 48 18.5t82 29.5t84 29.5t52 20.5q31 12 49 13q18 0 16 -25q-4 -25 -4 -115v-219v-221v-109q0 -49 4 -67q6 -53 33 -53h82q20 0 21 -15v-41q0 -20 -17 -20q-12 0 -77.5 3t-170.5 3q-90 0 -146 -3t-75 -3q-16 0 -16 20z" />
<glyph unicode="&#xed;" horiz-adv-x="555" d="M35 14v39q0 16 20 17h90q16 0 24.5 8t8.5 33q4 47 4 94v90v289q0 45 -18.5 76.5t-87.5 50.5q-14 4 -17.5 8t-3.5 10v23q0 10 15 16q10 4 48 18.5t82 29.5t84 29.5t52 20.5q31 12 49 13q18 0 16 -25q-4 -25 -4 -115v-219v-221v-109q0 -49 4 -67q6 -53 33 -53h82 q20 0 21 -15v-41q0 -20 -17 -20q-12 0 -77.5 3t-170.5 3q-90 0 -146 -3t-75 -3q-16 0 -16 20zM172 1016q-8 8 0 16l166 246q20 29 45 48.5t55 16.5q29 2 50.5 -16t29.5 -44t-1 -55.5t-42 -51.5l-262 -181q-8 -8 -16 0z" />
<glyph unicode="&#xee;" horiz-adv-x="555" d="M18 1020q-8 8 2 20l220 279q16 16 24 16q10 0 25 -20l227 -277q10 -10 2 -18l-16 -16q-4 -10 -17 -5l-225 136l-205 -131q-6 -4 -10 -6.5t-10 1.5zM35 14v39q0 16 20 17h90q16 0 24.5 8t8.5 33q4 47 4 94v90v289q0 45 -18.5 76.5t-87.5 50.5q-14 4 -17.5 8t-3.5 10v23 q0 10 15 16q10 4 48 18.5t82 29.5t84 29.5t52 20.5q31 12 49 13q18 0 16 -25q-4 -25 -4 -115v-219v-221v-109q0 -49 4 -67q6 -53 33 -53h82q20 0 21 -15v-41q0 -20 -17 -20q-12 0 -77.5 3t-170.5 3q-90 0 -146 -3t-75 -3q-16 0 -16 20z" />
<glyph unicode="&#xef;" horiz-adv-x="555" d="M-18 1202q0 14 5 32.5t19 36t38 30t58 12.5q43 0 76 -30t33 -89q0 -51 -30.5 -77.5t-78.5 -26.5q-16 0 -37.5 5t-40 17t-30.5 33.5t-12 56.5zM35 14v39q0 16 20 17h90q16 0 23.5 8t9.5 33q2 47 3 94t1 90v289q0 45 -18.5 76.5t-87.5 50.5q-14 4 -17.5 8t-3.5 10v23 q0 10 15 16q10 4 48 18.5t82 29.5t84 29.5t52 20.5q31 12 49 13q18 0 16 -25q-4 -25 -4 -115v-219v-221v-109q0 -49 4 -67q6 -53 33 -53h82q20 0 21 -15v-41q0 -20 -17 -20q-12 0 -77.5 3t-170.5 3q-90 0 -146 -3t-75 -3q-16 0 -16 20zM346 1202q0 14 5 32.5t19.5 36t38 30 t58.5 12.5q43 0 75.5 -30t32.5 -89q0 -51 -32.5 -77.5t-75.5 -26.5q-16 0 -37.5 5t-40 17t-31 33.5t-12.5 56.5z" />
<glyph unicode="&#xf0;" horiz-adv-x="1019" d="M66 408q0 41 9 90t30.5 98t54.5 96t80 86q66 53 132 77t156 24q39 0 78 -11.5t72 -36.5l12 9q-20 68 -51 143.5t-74 140.5q-12 18 -26.5 37t-32.5 35l-250 -154q-12 -8 -23 7l-30 49q-10 12 6 20l240 148q-41 43 -100.5 85t-115.5 70q-10 4 -10 13q0 4 4 12l27 49 q4 8 10 8q4 0 7 -2t8 -4q63 -23 134.5 -60.5t164.5 -101.5l198 121q14 8 23 -4l32 -47q10 -16 -4 -25l-184 -106q27 -25 51.5 -53.5t63.5 -81.5q74 -104 122 -241.5t54 -311.5q4 -104 -17.5 -213t-77 -197t-146.5 -144.5t-226 -56.5q-72 0 -128 12.5t-122 61.5 q-74 59 -112.5 141.5t-38.5 217.5zM287 451q0 -35 6 -77t15 -82t22.5 -76t29.5 -60q31 -51 71 -75t81 -24q55 0 93 30t60.5 77t33 104.5t10.5 112.5q0 119 -10.5 203t-36.5 125q-23 35 -61 61.5t-85 26.5q-41 0 -77 -13.5t-70 -48.5q-35 -35 -58.5 -112.5t-23.5 -171.5z" />
<glyph unicode="&#xf1;" horiz-adv-x="1124" d="M68 719v16q0 14 20 21l225 106q12 6 21.5 11.5t19.5 5.5q18 0 25 -25l16 -106h13q18 23 44.5 44t57.5 37q37 23 77 36.5t87 13.5q53 0 99 -10.5t81 -39.5q68 -49 90.5 -98t22.5 -113v-294q0 -49 -1 -107.5t-1 -89.5q0 -35 15 -46t34 -11h57q25 0 25 -15v-47 q0 -14 -17 -14q-12 0 -62 3t-159 3q-92 0 -141 -3t-60 -3q-16 0 -16 24v35q0 10 4 13.5t21 3.5h41q12 0 22 10t14 39q4 41 6.5 86t2.5 106v236q0 61 -8.5 103t-45.5 73q-31 29 -59.5 33t-63.5 4q-25 0 -59.5 -9.5t-71.5 -43.5q-25 -25 -34 -65t-9 -81v-422q0 -70 39 -69h37 q20 0 21 -19v-37q0 -20 -17 -20q-10 0 -55 3t-137 3q-96 0 -145.5 -3t-59.5 -3q-12 0 -12 20v39q0 16 20 17h41q18 0 35.5 8t17.5 33v460q0 47 -24.5 74t-61.5 45l-16 8q-16 7 -16 21zM299 1044q12 84 57 138.5t107 54.5q43 0 83 -11.5t68 -21.5q41 -12 72 -20t59 -8 q35 0 49.5 18t20.5 43q2 12 12 12h37q6 0 8 -7t-2 -30q-6 -29 -19 -58.5t-33.5 -54t-49.5 -41t-63 -16.5q-47 0 -84 11.5t-68 21.5q-74 25 -119 25q-25 0 -48.5 -18.5t-29.5 -61.5q0 -8 -12 -8h-39q-12 -1 -6 32z" />
<glyph unicode="&#xf2;" horiz-adv-x="1044" d="M66 440q0 37 9 81t30.5 89t53 89t79.5 81q76 61 151.5 80t138.5 19q104 0 180 -35t130 -86q141 -141 141 -324q0 -86 -34 -166t-93 -145q-63 -72 -151.5 -110t-192.5 -38q-98 0 -180 32t-152 116q-68 80 -89 151.5t-21 165.5zM291 1283q8 26 28.5 43t49.5 17 q35 0 60.5 -18t43.5 -47l164 -246q6 -6 0 -12l-29 -25q-6 -6 -12 0l-264 185q-31 20 -40 48.5t-1 54.5zM299 434q0 -90 11.5 -154.5t51.5 -129.5q27 -41 64 -65t98 -24q51 0 89 30t63.5 81t39 120.5t13.5 147.5q0 84 -20.5 150.5t-51 113t-68.5 70t-73 23.5q-80 0 -129 -56 q-47 -53 -67.5 -123.5t-20.5 -183.5z" />
<glyph unicode="&#xf3;" horiz-adv-x="1044" d="M66 440q0 37 9 81t30.5 89t53 89t79.5 81q76 61 151.5 80t138.5 19q104 0 180 -35t130 -86q141 -141 141 -324q0 -86 -34 -166t-93 -145q-63 -72 -151.5 -110t-192.5 -38q-98 0 -180 32t-152 116q-68 80 -89 151.5t-21 165.5zM299 434q0 -90 11.5 -154.5t51.5 -129.5 q27 -41 64 -65t98 -24q51 0 89 30t63.5 81t39 120.5t13.5 147.5q0 84 -20.5 150.5t-51 113t-68.5 70t-73 23.5q-80 0 -129 -56q-47 -53 -67.5 -123.5t-20.5 -183.5zM436 1016q-8 8 0 16l166 246q20 29 45 48.5t55 16.5q29 2 50.5 -16t30 -44t-1 -55.5t-42.5 -51.5l-262 -181 q-8 -8 -16 0z" />
<glyph unicode="&#xf4;" horiz-adv-x="1044" d="M66 440q0 37 9 81t30.5 89t53 89t79.5 81q76 61 151.5 80t138.5 19q104 0 180 -35t130 -86q141 -141 141 -324q0 -86 -34 -166t-93 -145q-63 -72 -151.5 -110t-192.5 -38q-98 0 -180 32t-152 116q-68 80 -89 151.5t-21 165.5zM272 1020q-8 8 2 20l220 279q16 16 24 16 q10 0 25 -20l227 -277q10 -10 2 -18l-16 -16q-4 -10 -17 -5l-225 136l-205 -131q-6 -4 -10 -6.5t-10 1.5zM299 434q0 -90 11.5 -154.5t51.5 -129.5q27 -41 64 -65t98 -24q51 0 89 30t63.5 81t39 120.5t13.5 147.5q0 84 -20.5 150.5t-51 113t-68.5 70t-73 23.5 q-80 0 -129 -56q-47 -53 -67.5 -123.5t-20.5 -183.5z" />
<glyph unicode="&#xf5;" horiz-adv-x="1044" d="M66 440q0 37 9 81t30.5 89t53 89t79.5 81q76 61 151.5 80t138.5 19q104 0 180 -35t130 -86q141 -141 141 -324q0 -86 -34 -166t-93 -145q-63 -72 -151.5 -110t-192.5 -38q-98 0 -180 32t-152 116q-68 80 -89 151.5t-21 165.5zM238 1044q12 84 57 138.5t106 54.5 q43 0 83 -11.5t69 -21.5q41 -12 71.5 -20t59.5 -8q35 0 49.5 18t20.5 43q2 12 12 12h37q6 0 8 -7t-2 -30q-6 -29 -19.5 -58.5t-34 -54t-49 -41t-63.5 -16.5q-47 0 -84 11.5t-67 21.5q-74 25 -119 25q-25 0 -48.5 -18.5t-29.5 -61.5q0 -8 -12 -8h-39q-12 -1 -6 32zM299 434 q0 -90 11.5 -154.5t51.5 -129.5q27 -41 64 -65t98 -24q51 0 89 30t63.5 81t39 120.5t13.5 147.5q0 84 -20.5 150.5t-51 113t-68.5 70t-73 23.5q-80 0 -129 -56q-47 -53 -67.5 -123.5t-20.5 -183.5z" />
<glyph unicode="&#xf6;" horiz-adv-x="1044" d="M66 440q0 37 9 81t30.5 89t53 89t79.5 81q76 61 151.5 80t138.5 19q104 0 180 -35t130 -86q141 -141 141 -324q0 -86 -34 -166t-93 -145q-63 -72 -151.5 -110t-192.5 -38q-98 0 -180 32t-152 116q-68 80 -89 151.5t-21 165.5zM225 1202q0 14 5.5 32.5t19.5 36t37.5 30 t58.5 12.5q43 0 76 -30t33 -89q0 -51 -31 -77.5t-78 -26.5q-16 0 -37.5 5t-40 17t-31 33.5t-12.5 56.5zM299 434q0 -90 11.5 -154.5t51.5 -129.5q27 -41 64 -65t98 -24q51 0 89 30t63.5 81t39 120.5t13.5 147.5q0 84 -20.5 150.5t-51 113t-68.5 70t-73 23.5q-80 0 -129 -56 q-47 -53 -67.5 -123.5t-20.5 -183.5zM590 1202q0 14 5 32.5t19.5 36t38 30t58.5 12.5q43 0 75.5 -30t32.5 -89q0 -51 -32.5 -77.5t-75.5 -26.5q-16 0 -38 5t-40.5 17t-30.5 33.5t-12 56.5z" />
<glyph unicode="&#xf7;" d="M111 432v135h802v-135h-802zM393 180q0 49 35 82t88 33q49 0 84 -33t35 -82t-35 -79.5t-84 -30.5q-53 0 -88 30.5t-35 79.5zM393 819q0 49 35 80t88 31q49 0 84 -31t35 -80t-35 -81.5t-84 -32.5q-55 0 -89 32.5t-34 81.5z" />
<glyph unicode="&#xf8;" horiz-adv-x="1044" d="M66 444q0 35 9 78t30.5 87t53 87t79.5 80q78 63 154.5 83t135.5 20q90 0 157 -27t110 -68l86 99q10 8 18 0l43 -39q10 -10 2 -21l-86 -90q59 -66 90 -139.5t31 -163.5q0 -84 -34 -165t-93 -146q-63 -72 -152.5 -108t-191.5 -36q-78 0 -149.5 20.5t-131.5 70.5l-86 -86 q-10 -10 -20 2l-35 34q-10 10 0 21l84 88q-27 35 -46.5 67.5t-32.5 70.5t-19 82t-6 99zM295 434q0 -49 3 -90t13 -80l373 410q-20 51 -69.5 87t-98.5 36q-31 0 -64.5 -11.5t-60.5 -40.5q-51 -57 -73.5 -127.5t-22.5 -183.5zM342 180q6 -12 17.5 -32.5t32 -40t53 -33 t79.5 -13.5t86 30t67 82t42 123t14 150q0 86 -12 146z" />
<glyph unicode="&#xf9;" horiz-adv-x="1077" d="M27 801v37q0 10 4 13t20 3h246q14 0 31 4q16 4 22 4q10 0 15.5 -7t5.5 -17q0 -16 -4.5 -83t-4.5 -173v-127q0 -31 -1 -71t1.5 -82t11.5 -82t29 -73q14 -23 31 -35t33 -17t34 -5h34q37 0 77.5 21.5t65.5 56.5q6 10 14 28.5t8 36.5v482q0 41 -25.5 53t-62.5 16 q-29 4 -35 7.5t-6 9.5v37q0 16 25 16h254q10 0 18.5 1t16.5 3t14 3t12 1q10 0 13.5 -7t3.5 -13q0 -8 -2 -23.5t-4 -46.5t-4.5 -81t-2.5 -126v-147v-140q0 -67 5 -98q6 -47 19 -58t26 -11h28q18 0 37 4q23 2 25 -9l6 -32q2 -14 -10 -19l-254 -71q-10 -4 -19.5 -6.5 t-21.5 -2.5q-27 0 -29 25l-12 115h-13q-16 -29 -45.5 -53.5t-66.5 -44t-78 -31t-80 -11.5q-55 0 -106.5 11.5t-104.5 79.5q-29 37 -43 69.5t-22.5 66.5t-9.5 70.5t-1 79.5q0 74 1 126t1 85v83q0 46 -4 65q-4 39 -23.5 54t-47.5 19q-25 4 -35 5.5t-10 11.5zM268 1283 q8 26 28.5 43t49.5 17q35 0 60.5 -18t44.5 -47l163 -246q6 -6 0 -12l-28 -25q-6 -6 -13 0l-264 185q-31 20 -40 48.5t-1 54.5z" />
<glyph unicode="&#xfa;" horiz-adv-x="1077" d="M27 801v37q0 10 4 13t20 3h246q14 0 31 4q16 4 22 4q10 0 15.5 -7t5.5 -17q0 -16 -4.5 -83t-4.5 -173v-127q0 -31 -1 -71t1.5 -82t11.5 -82t29 -73q14 -23 31 -35t33 -17t34 -5h34q37 0 77.5 21.5t65.5 56.5q6 10 14 28.5t8 36.5v482q0 41 -25.5 53t-62.5 16 q-29 4 -35 7.5t-6 9.5v37q0 16 25 16h254q10 0 18.5 1t16.5 3t14 3t12 1q10 0 13.5 -7t3.5 -13q0 -8 -2 -23.5t-4 -46.5t-4.5 -81t-2.5 -126v-147v-140q0 -67 5 -98q6 -47 19 -58t26 -11h28q18 0 37 4q23 2 25 -9l6 -32q2 -14 -10 -19l-254 -71q-10 -4 -19.5 -6.5 t-21.5 -2.5q-27 0 -29 25l-12 115h-13q-16 -29 -45.5 -53.5t-66.5 -44t-78 -31t-80 -11.5q-55 0 -106.5 11.5t-104.5 79.5q-29 37 -43 69.5t-22.5 66.5t-9.5 70.5t-1 79.5q0 74 1 126t1 85v83q0 46 -4 65q-4 39 -23.5 54t-47.5 19q-25 4 -35 5.5t-10 11.5zM453 1016 q-8 8 0 16l165 246q20 29 45 48.5t56 16.5q29 2 50.5 -16t29.5 -44t-1.5 -55.5t-41.5 -51.5l-262 -181q-8 -8 -17 0z" />
<glyph unicode="&#xfb;" horiz-adv-x="1077" d="M27 801v37q0 10 4 13t20 3h246q14 0 31 4q16 4 22 4q10 0 15.5 -7t5.5 -17q0 -16 -4.5 -83t-4.5 -173v-127q0 -31 -1 -71t1.5 -82t11.5 -82t29 -73q14 -23 31 -35t33 -17t34 -5h34q37 0 77.5 21.5t65.5 56.5q6 10 14 28.5t8 36.5v482q0 41 -25.5 53t-62.5 16 q-29 4 -35 7.5t-6 9.5v37q0 16 25 16h254q10 0 18.5 1t16.5 3t14 3t12 1q10 0 13.5 -7t3.5 -13q0 -8 -2 -23.5t-4 -46.5t-4.5 -81t-2.5 -126v-147v-140q0 -67 5 -98q6 -47 19 -58t26 -11h28q18 0 37 4q23 2 25 -9l6 -32q2 -14 -10 -19l-254 -71q-10 -4 -19.5 -6.5 t-21.5 -2.5q-27 0 -29 25l-12 115h-13q-16 -29 -45.5 -53.5t-66.5 -44t-78 -31t-80 -11.5q-55 0 -106.5 11.5t-104.5 79.5q-29 37 -43 69.5t-22.5 66.5t-9.5 70.5t-1 79.5q0 74 1 126t1 85v83q0 46 -4 65q-4 39 -23.5 54t-47.5 19q-25 4 -35 5.5t-10 11.5zM289 1020 q-8 8 2 20l219 279q16 16 25 16q10 0 24 -20l227 -277q10 -10 2 -18l-16 -16q-4 -10 -16 -5l-226 136l-204 -131q-6 -4 -10.5 -6.5t-10.5 1.5z" />
<glyph unicode="&#xfc;" horiz-adv-x="1077" d="M27 801v37q0 10 4 13t20 3h246q14 0 31 4q16 4 22 4q10 0 15.5 -7t5.5 -17q0 -16 -4.5 -83t-4.5 -173v-127q0 -31 -1 -71t1.5 -82t11.5 -82t29 -73q14 -23 31 -35t33 -17t34 -5h34q37 0 77.5 21.5t65.5 56.5q6 10 14 28.5t8 36.5v482q0 41 -25.5 53t-62.5 16 q-29 4 -35 7.5t-6 9.5v37q0 16 25 16h254q10 0 18.5 1t16.5 3t14 3t12 1q10 0 13.5 -7t3.5 -13q0 -8 -2 -23.5t-4 -46.5t-4.5 -81t-2.5 -126v-147v-140q0 -67 5 -98q6 -47 19 -58t26 -11h28q18 0 37 4q23 2 25 -9l6 -32q2 -14 -10 -19l-254 -71q-10 -4 -19.5 -6.5 t-21.5 -2.5q-27 0 -29 25l-12 115h-13q-16 -29 -45.5 -53.5t-66.5 -44t-78 -31t-80 -11.5q-55 0 -106.5 11.5t-104.5 79.5q-29 37 -43 69.5t-22.5 66.5t-9.5 70.5t-1 79.5q0 74 1 126t1 85v83q0 46 -4 65q-4 39 -23.5 54t-47.5 19q-25 4 -35 5.5t-10 11.5zM242 1202 q0 14 5 32.5t19.5 36t38 30t57.5 12.5q43 0 76 -30t33 -89q0 -51 -30.5 -77.5t-78.5 -26.5q-16 0 -37.5 5t-40 17t-30.5 33.5t-12 56.5zM606 1202q0 14 5 32.5t19.5 36t38 30t58.5 12.5q43 0 76 -30t33 -89q0 -51 -33 -77.5t-76 -26.5q-16 0 -37.5 5t-40 17t-31 33.5 t-12.5 56.5z" />
<glyph unicode="&#xfd;" horiz-adv-x="897" d="M-31 801v45q0 14 17 14q6 0 19 -1t38 -2t63.5 -2t96.5 -1q90 0 138 3t67 3q16 0 16 -16v-45q0 -14 -14 -15h-31q-16 0 -25.5 -10t-5.5 -33q2 -10 12.5 -48t24.5 -90t31.5 -111.5t34 -112.5t30 -92t17.5 -49h8q8 18 25.5 58t38 88t42 100.5t39 98.5t30.5 79.5t15 44.5 q10 41 -2 59t-41 18h-32q-16 0 -17 15v45q0 16 17 16q18 0 55 -3t121 -3q53 0 88 3t49 3t14 -16v-43q0 -16 -12 -17h-25q-16 0 -36.5 -6t-36.5 -28q-16 -20 -48 -84t-76 -158t-96.5 -210t-107.5 -241q-39 -84 -74 -159.5t-63.5 -138t-51 -109.5t-36.5 -72 q-12 -20 -26.5 -43.5t-36 -44t-51.5 -34t-71 -13.5q-55 0 -89 30.5t-34 80.5q0 43 29 72.5t70 29.5q25 0 48 -7t42 -18q12 -6 27.5 -6t25.5 10q8 8 30.5 50.5t47.5 94.5t46.5 103t31.5 80q-4 14 -23.5 72.5t-47.5 137.5t-60.5 168t-61 165t-48 130t-23.5 62q-16 41 -35 63.5 t-49 22.5h-41q-17 1 -17 17zM485 1016q-8 8 0 16l166 246q20 29 45 48.5t56 16.5q29 2 50 -16t29.5 -44t-1 -55.5t-42.5 -51.5l-262 -181q-8 -8 -16 0z" />
<glyph unicode="&#xfe;" horiz-adv-x="1069" d="M31 -504q0 16 16 17h66q29 0 39 12t12 37q4 68 5 126t1 119l-4 1227q0 86 -18.5 127t-59.5 58l-37 12q-16 6 -16 16v21q0 10 16 16q18 4 53 16.5t74 26.5t73 27.5t50 23.5q35 20 53 21q20 0 21 -41l-2 -602l8 -4q41 49 114.5 88t153.5 39q86 0 144.5 -24t107.5 -83 q25 -29 44.5 -57.5t31.5 -63.5t19.5 -77t7.5 -99q0 -106 -33 -197.5t-92.5 -159t-141.5 -105.5t-182 -38q-29 0 -79 7.5t-97 29.5l4 -377q0 -41 4 -65.5t11.5 -36.5t18.5 -16t27 -4h66q20 0 20 -17v-39q0 -20 -16 -20q-10 0 -68.5 3t-173.5 3q-109 0 -161 -3t-64 -3 q-16 0 -16 24v35zM379 217q0 -35 11 -67.5t42 -51.5q25 -16 64 -29.5t92 -13.5q39 0 75.5 16.5t65.5 52.5t45.5 92t16.5 134q0 98 -20.5 186.5t-57.5 137.5q-31 43 -71 64.5t-83 21.5q-49 0 -97 -23.5t-83 -70.5v-449z" />
<glyph unicode="&#xff;" horiz-adv-x="897" d="M-31 801v45q0 14 17 14q6 0 19 -1t38 -2t63.5 -2t96.5 -1q90 0 138 3t67 3q16 0 16 -16v-45q0 -14 -14 -15h-31q-16 0 -25.5 -10t-5.5 -33q2 -10 12.5 -48t24.5 -90t31.5 -111.5t34 -112.5t30 -92t17.5 -49h8q8 18 25.5 58t38 88t42 100.5t39 98.5t30.5 79.5t15 44.5 q10 41 -2 59t-41 18h-32q-16 0 -17 15v45q0 16 17 16q18 0 55 -3t121 -3q53 0 88 3t49 3t14 -16v-43q0 -16 -12 -17h-25q-16 0 -36.5 -6t-36.5 -28q-16 -20 -48 -84t-75 -158t-96.5 -210t-108.5 -241q-37 -84 -72 -159.5t-64.5 -138t-52 -109.5t-36.5 -72 q-12 -20 -26.5 -43.5t-36 -44t-51.5 -34t-71 -13.5q-55 0 -89 30.5t-34 80.5q0 43 29 72.5t70 29.5q25 0 48 -7t42 -18q12 -6 27.5 -6t25.5 10q8 8 30.5 50.5t47.5 94.5t46.5 103t31.5 80q-4 14 -23.5 72.5t-47.5 137.5t-60.5 168t-61 165t-48 130t-23.5 62q-16 41 -35 63.5 t-49 22.5h-41q-17 1 -17 17zM233 1202q0 14 5.5 32.5t19.5 36t37.5 30t58.5 12.5q43 0 76 -30t33 -89q0 -51 -31 -77.5t-78 -26.5q-16 0 -37.5 5t-40 17t-31 33.5t-12.5 56.5zM598 1202q0 14 5 32.5t19.5 36t38 30t58.5 12.5q43 0 75.5 -30t32.5 -89q0 -51 -32.5 -77.5 t-75.5 -26.5q-16 0 -38 5t-40 17t-30.5 33.5t-12.5 56.5z" />
<glyph unicode="&#x152;" horiz-adv-x="2332" d="M106 725q0 41 7.5 97.5t26 121t53 133t90.5 135.5q59 74 131.5 125.5t150.5 83t160 46t160 14.5q72 0 130 -4t111 -11q53 -6 101.5 -11t91.5 -5h688q23 0 37 1t27 3q10 2 19 3t15 1q12 0 17 -12q2 -10 16 -60.5t29.5 -106.5t29 -104.5t15.5 -56.5q4 -16 -4 -20l-29 -17 q-14 -8 -25 9q-4 4 -31.5 36.5t-64.5 71.5t-72.5 75t-52.5 46q-35 25 -73.5 39t-73.5 14l-324 8l-4 -592q20 0 58 2l73 2q37 1 67 3t40 4q33 8 54.5 22.5t39.5 50.5q10 18 21.5 52t11.5 63q0 16 16 17l49 -5q18 0 17 -16q-2 -12 -3 -41t-1 -62v-66v-52q0 -61 4 -126t8 -99 q0 -14 -17 -19l-45 -8q-10 -2 -16 18q-6 25 -16.5 54.5t-16.5 48.5q-16 31 -41.5 50t-60.5 24q-55 6 -124 9t-118 3v-123q0 -41 1 -95.5t3 -106.5t3 -92t1 -54q0 -86 17.5 -118t52.5 -42q59 -16 172 -16q14 0 37.5 1t49.5 2l51 2q26 1 42 3q35 0 77 17.5t79 47.5 q14 14 42 43t56.5 63t54 65.5t39.5 50.5q12 12 25 4l29 -17q12 -6 12 -16l-102 -311q-6 -12 -15.5 -21.5t-25.5 -9.5h-48q-39 0 -135 2t-259 3t-419 1q-53 0 -102 -5t-98 -11q-47 -6 -97.5 -10.5t-111.5 -4.5q-111 0 -239 28t-244 105q-55 39 -108.5 97.5t-96.5 136.5 t-69 175t-26 214zM385 774q0 -201 52 -339t129 -222t167 -121t168 -37q139 0 217 58.5t90 132.5v958q-23 53 -60.5 89t-81.5 57.5t-89 31t-84 9.5h-53q-35 0 -79 -9.5t-94.5 -32t-97.5 -67.5q-45 -43 -78.5 -100.5t-57 -124t-36 -139t-12.5 -144.5z" />
<glyph unicode="&#x153;" horiz-adv-x="1540" d="M66 434q0 35 8 77t27.5 87t50 89t77.5 85q78 66 158 86.5t145 20.5q115 0 188 -44t120 -104q53 68 130 108t185 40q98 0 161.5 -38t100.5 -90.5t52.5 -107.5t15.5 -92q0 -33 -51 -33h-494q-4 -16 -4 -31v-36q0 -152 79 -242t212 -90q82 0 135 38t82 85q10 20 24 10 l33 -23q14 -8 0 -28q-16 -33 -45 -72t-72 -72.5t-102 -57.5t-139 -24q-102 0 -187.5 36t-132.5 108h-8q-53 -74 -135 -109t-184 -35q-86 0 -169 30t-153 116q-59 72 -83.5 149.5t-24.5 163.5zM299 442q0 -104 13.5 -168.5t54.5 -126.5q29 -45 66.5 -67.5t90.5 -22.5 q90 0 145.5 99.5t55.5 277.5q0 94 -18.5 163t-47 114t-64.5 65.5t-73 20.5q-41 0 -74.5 -13.5t-64.5 -48.5q-41 -47 -62.5 -120t-21.5 -173zM944 594h254q33 0 46 10t13 27q0 70 -30.5 121t-112.5 51q-49 0 -98 -45t-72 -164z" />
<glyph unicode="&#x178;" horiz-adv-x="1433" d="M23 1389v55q0 12 16 12q12 0 83 -3t187 -3q78 0 132.5 1t90 2t54 2t26.5 1q16 0 17 -14v-47q0 -20 -17 -21h-53q-63 0 -57 -59q0 -10 19.5 -50t49 -98.5t64.5 -126t68.5 -132t61.5 -118t42 -81.5q16 29 48 80t70 112.5t75.5 127t69.5 121.5t52.5 97t22.5 53 q4 29 -9.5 51.5t-60.5 22.5h-53q-16 0 -16 17v51q0 14 12 14q16 0 78.5 -3t171.5 -3q98 0 139 3t57 3t17 -14v-47q0 -20 -17 -21h-45q-23 0 -54.5 -10t-55.5 -37q-8 -10 -39 -55t-75 -111.5t-95 -144.5t-98.5 -153t-86 -137t-57.5 -95v-250q0 -29 1 -67t2 -72.5t2 -61 t1 -35.5q4 -49 26.5 -59t53.5 -10h68q14 0 14 -15v-47q0 -20 -14 -20q-16 0 -83 3t-206 3q-76 0 -127 -1t-84 -2t-50.5 -2t-23.5 -1q-14 0 -14 18v47q0 16 14 17h84q41 0 55.5 14t16.5 37t4 129t2 252v98q-8 14 -39 69.5t-73 129.5t-90 159t-92 159.5t-78.5 131t-49.5 74.5 q-18 23 -48 34t-54 11h-37q-16 1 -16 15zM483 1733q0 12 6.5 30.5t20.5 35t38.5 28.5t61.5 12q41 0 74 -29.5t33 -85.5q0 -49 -32 -81.5t-75 -32.5q-18 0 -40.5 5t-41 19.5t-32 38t-13.5 60.5zM918 1733q0 12 6 30.5t20 35t39 28.5t61 12q41 0 76 -29.5t35 -85.5 q0 -49 -34 -81.5t-77 -32.5q-18 0 -40.5 5t-41 19.5t-31.5 38t-13 60.5z" />
<glyph unicode="&#x2c6;" horiz-adv-x="630" d="M66 1020q-8 8 2 20l219 279q16 16 24 16q10 0 25 -20l227 -277q10 -10 2 -18l-16 -16q-4 -10 -17 -5l-225 136l-205 -131q-6 -4 -10 -6.5t-10 1.5z" />
<glyph unicode="&#x2dc;" horiz-adv-x="700" d="M66 1044q12 84 57 138.5t106 54.5q43 0 83 -11.5t69 -21.5q41 -12 71.5 -20t59.5 -8q35 0 49 18t21 43q2 12 12 12h37q6 0 8 -7t-2 -30q-6 -29 -19.5 -58.5t-34 -54t-49 -41t-63.5 -16.5q-47 0 -84 11.5t-68 21.5q-74 25 -118 25q-25 0 -48.5 -18.5t-29.5 -61.5 q0 -8 -12 -8h-39q-12 -1 -6 32z" />
<glyph unicode="&#x2000;" horiz-adv-x="962" />
<glyph unicode="&#x2001;" horiz-adv-x="1925" />
<glyph unicode="&#x2002;" horiz-adv-x="962" />
<glyph unicode="&#x2003;" horiz-adv-x="1925" />
<glyph unicode="&#x2004;" horiz-adv-x="641" />
<glyph unicode="&#x2005;" horiz-adv-x="481" />
<glyph unicode="&#x2006;" horiz-adv-x="319" />
<glyph unicode="&#x2007;" horiz-adv-x="319" />
<glyph unicode="&#x2008;" horiz-adv-x="239" />
<glyph unicode="&#x2009;" horiz-adv-x="385" />
<glyph unicode="&#x200a;" horiz-adv-x="106" />
<glyph unicode="&#x2010;" horiz-adv-x="823" d="M102 494v106q0 16 17 16h573q25 0 25 -20v-96q0 -18 -25 -19h-573q-17 1 -17 13z" />
<glyph unicode="&#x2011;" horiz-adv-x="823" d="M102 494v106q0 16 17 16h573q25 0 25 -20v-96q0 -18 -25 -19h-573q-17 1 -17 13z" />
<glyph unicode="&#x2012;" horiz-adv-x="823" d="M102 494v106q0 16 17 16h573q25 0 25 -20v-96q0 -18 -25 -19h-573q-17 1 -17 13z" />
<glyph unicode="&#x2013;" d="M0 481v135h1024v-135h-1024z" />
<glyph unicode="&#x2014;" horiz-adv-x="2048" d="M0 481v135h2048v-135h-2048z" />
<glyph unicode="&#x2018;" horiz-adv-x="401" d="M41 1104q0 78 29.5 140.5t68.5 108.5t75 72.5t48 34.5q12 6 25.5 13.5t23.5 7.5q20 0 21 -17q0 -10 -4 -16t-17 -16q-12 -10 -31.5 -33t-38 -53.5t-31.5 -66.5t-13 -73q0 -47 28 -61q8 -4 25.5 -10.5t36 -19.5t32 -36.5t13.5 -60.5q0 -43 -31 -75t-84 -32 q-31 0 -62.5 12.5t-56 37t-41 60.5t-16.5 83z" />
<glyph unicode="&#x2019;" horiz-adv-x="401" d="M70 928q0 18 20 28q12 10 31.5 34t38 54.5t32 67.5t13.5 74q0 23 -8.5 38t-20.5 19q-8 4 -25.5 11.5t-36 20.5t-31.5 36.5t-13 62.5q0 43 30.5 75t83.5 32q31 0 63 -13.5t56.5 -38t40.5 -61.5t16 -84q0 -78 -29.5 -139.5t-68.5 -107.5t-74.5 -72.5t-48.5 -32.5 q-27 -20 -49 -21q-20 1 -20 17z" />
<glyph unicode="&#x201a;" horiz-adv-x="401" d="M70 143q0 41 30.5 72t83.5 31q31 0 63 -12.5t56.5 -37t40.5 -60.5t16 -83q0 -78 -29.5 -139t-68.5 -107.5t-74.5 -73t-48.5 -32.5q-27 -20 -49 -20q-20 0 -20 16q0 18 16 29q14 10 34.5 33.5t39 54t32 67.5t13.5 74q0 23 -8.5 38t-20.5 19q-8 4 -25.5 11.5t-36 20.5 t-31.5 36.5t-13 62.5z" />
<glyph unicode="&#x201c;" horiz-adv-x="782" d="M57 1104q0 78 30 140.5t69 108.5t74.5 72.5t48.5 34.5q12 6 24 13.5t25 7.5q20 0 20 -17q0 -10 -5 -16t-15 -16q-12 -10 -33 -33t-39 -53.5t-32.5 -66.5t-14.5 -73q0 -23 10 -39t23 -22q6 -4 22.5 -10.5t34.5 -19.5t31.5 -36.5t13.5 -60.5q0 -43 -28.5 -75t-82.5 -32 q-31 0 -62.5 12.5t-56 37t-41 60.5t-16.5 83zM418 1104q0 78 30.5 140.5t69.5 108.5t76 72.5t49 34.5q12 6 24.5 13.5t24.5 7.5q20 0 21 -17q0 -10 -5.5 -16t-15.5 -16q-12 -10 -32.5 -33t-39 -53.5t-33 -66.5t-14.5 -73q0 -23 10.5 -39t22.5 -22q6 -4 23.5 -10.5t36 -19.5 t33 -36.5t14.5 -60.5q0 -43 -33 -75t-82 -32q-31 0 -62.5 12.5t-58 37t-43 60.5t-16.5 83z" />
<glyph unicode="&#x201d;" horiz-adv-x="782" d="M70 928q0 18 16 28q14 10 34.5 34t39 54.5t32 67.5t13.5 74q0 23 -8.5 38t-20.5 19q-8 4 -25.5 11.5t-36 20.5t-31.5 36.5t-13 62.5q0 43 30.5 75t83.5 32q31 0 63 -13.5t56.5 -38t40.5 -61.5t16 -84q0 -78 -29.5 -139.5t-68.5 -107.5t-74.5 -72.5t-48.5 -32.5 q-27 -20 -49 -21q-20 1 -20 17zM434 928q0 14 21 28q14 10 34.5 34t39 54.5t31.5 67.5t13 74q0 23 -10 38t-22 19q-6 4 -22.5 11.5t-35 20.5t-32 36.5t-13.5 62.5q0 43 31 75t80 32q31 0 62.5 -13.5t58 -38t43 -61.5t16.5 -84q0 -78 -30.5 -139.5t-69.5 -107.5t-76 -72.5 t-49 -32.5q-27 -20 -49 -21q-21 1 -21 17z" />
<glyph unicode="&#x201e;" horiz-adv-x="782" d="M70 143q0 41 30.5 72t83.5 31q31 0 63 -12.5t56.5 -37t40.5 -60.5t16 -83q0 -78 -29.5 -139t-68.5 -107.5t-74.5 -73t-48.5 -32.5q-27 -20 -49 -20q-20 0 -20 16q0 18 16 29q14 10 34.5 33.5t39 54t32 67.5t13.5 74q0 23 -8.5 38t-20.5 19q-8 4 -25.5 11.5t-36 20.5 t-31.5 36.5t-13 62.5zM434 -303q0 14 21 29q14 10 34.5 33.5t39 54t31.5 67.5t13 74q0 23 -10 38t-22 19q-6 4 -22.5 11.5t-35 20.5t-32 36.5t-13.5 62.5q0 41 31 72t80 31q31 0 62.5 -12.5t58 -37t43 -60.5t16.5 -83q0 -78 -30.5 -139t-69.5 -107.5t-76 -73t-49 -32.5 q-27 -20 -49 -20q-21 0 -21 16z" />
<glyph unicode="&#x2022;" horiz-adv-x="696" d="M82 737q0 61 21.5 110.5t58.5 84.5t85 53.5t101 18.5t101.5 -18.5t85 -52.5t58 -83t21.5 -113q0 -59 -21.5 -105t-58 -78t-85 -49.5t-101.5 -17.5q-49 0 -97 17.5t-85 50.5t-60.5 79t-23.5 103z" />
<glyph unicode="&#x2026;" horiz-adv-x="2048" d="M199 119q0 18 8 41.5t24.5 44t44 35t68.5 14.5q59 0 100 -38t41 -105q0 -59 -38.5 -97.5t-98.5 -38.5q-55 0 -102 36t-47 108zM881 119q0 18 7 41.5t24.5 44t46 35t69.5 14.5q59 0 99 -38t40 -105q0 -61 -38.5 -98.5t-100.5 -37.5q-27 0 -52.5 9.5t-47 28t-34.5 45 t-13 61.5zM1563 119q0 18 7 41.5t24.5 44t46 35t69.5 14.5q55 0 97 -38t42 -105q0 -61 -40 -98.5t-95 -37.5t-103 36t-48 108z" />
<glyph unicode="&#x202f;" horiz-adv-x="385" />
<glyph unicode="&#x2039;" horiz-adv-x="536" d="M57 434q0 8 13 21l319 311q8 8 12 8t9 -4l41 -33q4 -4 4 -8t-2 -6t-2 -6l-168 -283l168 -282q4 -4 4 -13q0 -8 -4 -8l-41 -33q-4 -4 -7 -4h-2q-4 0 -7 2l-9 6l-315 316q-13 6 -13 16z" />
<glyph unicode="&#x203a;" horiz-adv-x="536" d="M82 139q0 4 8 13l164 282l-168 283q-4 4 -4 12t4 8l45 33q0 4 8 4q4 0 13 -8l319 -315q12 -6 12 -17q0 -6 -5 -10t-11 -10l-315 -312q-8 -8 -13 -8q-4 0 -12 8l-41 29q0 4 -2 4t-2 4z" />
<glyph unicode="&#x205f;" horiz-adv-x="481" />
<glyph unicode="&#x20ac;" d="M29 532l16 54q4 6 5 9t7 3h109q0 18 -1 43t-1 43q0 20 1 47t3 49h-115q-16 0 -12 13l16 53q4 12 13 12h106q10 72 37 157t76 169q59 102 148 158.5t206 56.5q41 0 74 -9.5t59.5 -23.5t46 -29.5t35.5 -29.5q14 -14 23.5 -13.5t11.5 13.5l10 47q4 10 10.5 11t18.5 1 q10 0 17 -5t7 -28q0 -14 2.5 -50t5.5 -78t6 -83t5 -63q0 -10 2 -24.5t-12 -18.5l-23 -6q-10 -4 -15 2t-14 30q-23 66 -45 117t-52 86t-69.5 53.5t-97.5 18.5q-98 0 -160.5 -108.5t-78.5 -350.5h442q20 0 16 -12l-16 -53q-2 -6 -4 -9.5t-12 -3.5h-430v-96q0 -18 1 -43t1 -43 h364q20 0 19 -12l-17 -54q-4 -4 -5 -8t-11 -4h-346q10 -244 74.5 -356.5t154.5 -112.5q68 0 114 21.5t77.5 60.5t52 92.5t35.5 116.5q6 23 20 18l23 -6q14 -4 14 -11v-17q-2 -20 -5 -62.5t-6 -87.5t-6.5 -86t-3.5 -57q0 -25 -7 -29t-17 -4q-12 0 -18.5 1t-10.5 11l-8 49 q-6 25 -35 2q-31 -25 -87 -59.5t-134 -34.5q-111 0 -201 56.5t-149 158.5q-51 86 -77 169t-38 167h-133q-16 0 -12 12z" />
<glyph unicode="&#x2122;" horiz-adv-x="1863" d="M10 1274q4 18 10.5 49t12.5 60.5t11 53t5 29.5q2 16 14 17q8 0 17 -8q6 -6 23.5 -15.5t52.5 -9.5q43 0 95 -2t118 -2q59 0 122.5 2t110.5 2q41 0 55.5 10t18.5 15q8 8 16 8q12 0 13 -17q0 -4 3 -27.5t7 -53t7 -61.5t7 -52q0 -12 -8 -15l-25 -8q-8 -2 -16 13 q-4 8 -13.5 24.5t-20.5 32.5t-24.5 30.5t-27.5 22.5q-14 6 -32.5 9t-39 5.5t-38.5 2.5h-29v-271q0 -43 -1 -93t-1 -95v-77q0 -32 2 -38q4 -18 11 -29.5t26 -11.5h45q12 0 12 -12v-37q0 -12 -14 -12q-4 0 -22.5 1t-42.5 1t-51.5 1t-49.5 1q-20 0 -47 -1t-52.5 -1t-45 -1 t-23.5 -1q-12 0 -13 8v41q0 12 11 12h51q16 0 26.5 13.5t10.5 48.5v553q-23 0 -61 -1.5t-66 -11.5q-35 -10 -57.5 -44t-41.5 -70q-4 -4 -7 -9.5t-9 -3.5l-29 8q-10 5 -6 17zM762 725v37q0 12 10 12h23q29 0 47 20.5t22 49.5q2 29 5 80t4 103t2.5 95t1.5 54v163q0 57 -58 58 h-24q-12 0 -13 10v35q0 12 13 12q2 0 15 -1t31.5 -1t39 -1t37.5 -1q49 0 89 2t62 2q18 0 25.5 -4t11.5 -16l176 -451l184 451q10 16 33 16h240q14 0 14 -8v-33q0 -12 -12 -12h-17q-29 0 -35 -13.5t-6 -31.5q0 -6 -1 -46t-1 -87.5t-1 -88t-1 -49.5q0 -8 1 -45t1 -80t1 -79.5 t1 -45.5q0 -25 9.5 -41t27.5 -16h39q10 0 10 -12v-37q0 -12 -10 -12q-6 0 -23.5 1t-40 1t-49 1t-49.5 1q-20 0 -45.5 -1t-49 -1t-42 -1t-22.5 -1q-12 0 -13 12v37q0 12 11 12h39q23 0 32 10.5t13 26.5v258v291h-9l-254 -602q-10 -25 -28 -25t-29 17l-242 606h-12v-254v-39 v-73q0 -40 1 -79t3 -55q6 -82 66 -82h22q10 0 11 -14v-35q0 -12 -11 -12q-10 0 -53 1t-76 1q-35 0 -78 -1t-55 -1q-14 0 -14 12z" />
<glyph unicode="&#xe000;" horiz-adv-x="860" d="M0 860h860v-860h-860v860z" />
<glyph unicode="&#xfb01;" horiz-adv-x="1130" d="M41 10v47q0 12 20 13h91q45 0 45 69l-2 613h-134q-12 0 -12 16l10 72q2 14 27 14h109v37q0 168 49 273.5t121 172.5q80 74 174 109t190 35q104 0 169 -43t65 -105q0 -49 -36 -81.5t-83 -32.5q-49 0 -81 23.5t-63 70.5q-23 29 -45 47t-53 18t-65.5 -14t-57.5 -39 q-29 -35 -43 -81t-20 -101.5t-6 -116.5v-129v-43h280q109 -4 197 14q29 4 49 7.5t33 3.5q23 0 16 -27q-6 -25 -7 -115t-1 -217v-221v-176q4 -29 11 -41t30 -12h74q20 0 20 -19v-37q0 -20 -20 -20q-12 0 -65.5 3t-143.5 3q-84 0 -136.5 -3t-68.5 -3t-16 16v43q0 16 20 17h39 q33 0 39 45q0 12 1 36.5t1 52.5v53v38v328q0 31 -3 54t-14.5 40.5t-33 26t-60.5 8.5h-241v-179q0 -180 -1 -291.5t3 -154.5q4 -57 47 -57h49q16 0 20 -4.5t4 -14.5v-37q0 -20 -16 -20q-10 0 -61.5 3t-155.5 3q-98 0 -163.5 -3t-78.5 -3q-16 0 -16 16z" />
<glyph unicode="&#xfb02;" horiz-adv-x="1116" d="M39 10v47q0 12 20 13h86q29 0 39.5 17t10.5 48l-2 617h-134q-12 0 -12 16l12 70q4 16 25 16h109v37q0 172 37.5 271.5t103.5 166.5q80 84 170 118t194 34q80 0 143.5 -12.5t98.5 -24.5q25 -10 36 -20.5t9 -28.5q-4 -47 -6 -131t-3 -174.5t-1 -171.5v-123v-295v-88v-107 q0 -53 1 -100t3 -70q2 -35 12 -50t39 -15h74q16 0 20 -4.5t4 -14.5v-37q0 -20 -12 -20q-10 0 -70.5 3t-162.5 3t-157.5 -3t-68.5 -3q-16 0 -16 20v39q0 10 4 13.5t21 3.5h45q23 0 37 14t14 55l-2 613h-352v-179q0 -180 -1 -291.5t3 -154.5q4 -57 39 -57h65q20 0 21 -19v-37 q0 -20 -13 -20q-10 0 -66.5 3t-166.5 3q-96 0 -158.5 -3t-75.5 -3q-16 0 -16 16zM408 854h352v283q0 104 -11.5 149t-39.5 66q-23 16 -47.5 21t-49.5 5q-47 0 -82.5 -13t-60.5 -48q-23 -31 -35 -75t-18 -98t-7 -116.5t-1 -130.5v-43z" />
<glyph unicode="&#xfb03;" horiz-adv-x="1691" d="M43 14v43q0 12 20 13h82q51 0 52 69l-2 613h-132q-18 0 -14 22l8 68q2 12 23 12h115v55q0 127 42 225.5t113 172.5q84 80 167 113.5t173 33.5q68 0 132.5 -28.5t92.5 -77.5l5 -2q82 72 165.5 103.5t202.5 31.5q109 0 175.5 -43t66.5 -109q0 -47 -37 -78.5t-86 -31.5 q-47 0 -78 23.5t-65 66.5q-18 29 -43 47t-60 18t-65.5 -14t-61.5 -55q-23 -29 -35 -72t-17 -93t-5 -107v-111v-68h274q53 0 103.5 2t93.5 12q29 4 49.5 6.5t32.5 2.5t15 -6.5t1 -18.5q-4 -25 -4 -115v-217v-221q0 -59 -2 -108.5t2 -67.5q0 -53 37 -53h74q20 0 20 -17v-39 q0 -20 -16 -20q-12 0 -67.5 3t-141.5 3t-137 -3t-68 -3q-16 0 -16 20v39q0 16 20 17h41q16 0 26.5 8t10.5 37q2 12 3 36.5t1 52.5v53v38v332q0 72 -32.5 98.5t-122.5 26.5h-197v-625q0 -29 13.5 -43t31.5 -14h53q16 0 20.5 -4.5t4.5 -14.5v-33q0 -25 -17 -24q-10 0 -59 3 t-129 3q-39 0 -77 -1t-68.5 -2t-52 -2t-27.5 -1q-16 0 -17 20v43q0 12 21 13h37q51 0 51 69l-2 613h-350v-179q0 -61 -1 -130.5t-1 -132t1 -113t3 -70.5q6 -57 57 -57h41q20 0 20 -15v-37q0 -25 -12 -24q-10 0 -65.5 3t-147.5 3q-96 0 -164.5 -3t-81.5 -3q-16 0 -16 20z M410 854h350v55q0 104 20.5 183t57.5 145l-2 4q-47 -2 -88 17.5t-66 48.5q-35 45 -90 45q-41 0 -72 -12.5t-59 -53.5q-23 -29 -33 -72t-14 -91t-4 -97v-92v-80z" />
<glyph unicode="&#xfb04;" horiz-adv-x="1681" d="M43 10v47q0 12 20 13h82q51 0 52 69l-2 613h-132q-18 0 -14 20l8 70q2 12 23 12h115v55q0 127 42 226.5t113 171.5q84 80 167 113.5t173 33.5q66 0 130.5 -26.5t97.5 -79.5h6q78 70 158.5 101.5t181.5 31.5q80 0 142 -11.5t99 -23.5q25 -8 34 -18.5t7 -32.5 q-4 -45 -5 -128t-2 -174.5t-1 -172.5v-125v-295v-88v-107q0 -53 1 -100t3 -70q0 -35 10.5 -50t38.5 -15h78q16 0 20.5 -4.5t4.5 -14.5v-37q0 -20 -17 -20q-10 0 -70.5 3t-158.5 3q-102 0 -157.5 -3t-67.5 -3q-16 0 -17 20v39q0 10 4 13.5t21 3.5h45q23 0 36 14t15 55 q0 6 1 46t1 98v121v124v103v57v64h-352v-625q0 -57 53 -57h49q16 0 20.5 -4.5t4.5 -14.5v-37q0 -20 -17 -20q-10 0 -60 3t-124 3q-41 0 -81 -1t-71.5 -2t-53 -2t-27.5 -1q-16 0 -17 16v47q0 12 21 13h37q51 0 51 69l-2 613h-350v-179q0 -61 -1 -130.5t-1 -132.5v-112 q0 -50 2 -71q4 -29 17 -43t42 -14h41q20 0 20 -19v-37q0 -20 -12 -20q-10 0 -65.5 3t-147.5 3q-96 0 -164.5 -3t-81.5 -3q-16 0 -16 16zM410 854h350v55q0 207 78 332l-2 4q-47 -4 -88 14.5t-66 47.5q-35 45 -90 45q-41 0 -72 -12.5t-59 -53.5q-23 -29 -33 -70.5t-14 -90 t-4 -98.5v-93v-80zM975 854h354v59v87q0 46 -1 90.5t-1 70.5q-2 94 -13 138t-42 65q-45 33 -90 33q-49 0 -84 -13.5t-62 -46.5q-25 -31 -38 -77t-18 -102t-5 -123v-138v-43z" />
</font>
</defs>
</svg>
