<?xml version="1.0" standalone="no"?>
<!DOCTYPE svg PUBLIC "-//W3C//DTD SVG 1.1//EN" "http://www.w3.org/Graphics/SVG/1.1/DTD/svg11.dtd" >
<svg xmlns="http://www.w3.org/2000/svg">
<metadata>
This is a custom SVG webfont generated by Fontspring.
Designer    : FontSite.com
Foundry URL : http://www.fontsite.com
</metadata>
<defs>
<font id="webfont0TejozW5" horiz-adv-x="495" >
<font-face units-per-em="1000" ascent="822" descent="-178" />
<missing-glyph horiz-adv-x="250" />
<glyph unicode=" "  horiz-adv-x="250" />
<glyph unicode="&#x09;" horiz-adv-x="250" />
<glyph unicode="&#xa0;" horiz-adv-x="250" />
<glyph unicode="!" horiz-adv-x="273" d="M117 187v56q0 71 -8 151q-3 28 -13 71l-16 74q-9 46 -9 67q0 33 18.5 53.5t47.5 20.5q28 0 46.5 -21t18.5 -53q0 -26 -14 -89l-11 -52q-11 -49 -15 -90q-6 -60 -6 -132v-56h-39zM73 51q0 26 18.5 44.5t44.5 18.5q27 0 45.5 -18.5t18.5 -44.5q0 -27 -18.5 -45.5 t-44.5 -18.5q-27 0 -45.5 18.5t-18.5 45.5z" />
<glyph unicode="&#x22;" horiz-adv-x="331" d="M222 433q-3 39 -20 106q-17 63 -17 85q0 25 15 40.5t38 15.5t38 -16t15 -41q0 -20 -23 -107q-12 -46 -14 -83h-32zM77 433q-4 43 -20 106q-17 63 -17 85q0 25 15 40.5t38 15.5t37.5 -16t14.5 -41q0 -22 -22 -107q-11 -42 -15 -83h-31z" />
<glyph unicode="#" d="M65 0l49 226h-74v47h84l21 100h-105v47h115l47 220h50l-47 -220h127l47 220h51l-47 -220h72v-47h-82l-21 -100h103v-47h-113l-49 -226h-50l48 226h-127l-48 -226h-51zM174 273h127l21 100h-126z" />
<glyph unicode="$" d="M38 146q0 29 16.5 46.5t42.5 17.5q21 0 36.5 -14t15.5 -32q0 -19 -19 -33q-16 -11 -16 -25q1 -23 33.5 -41t79.5 -22v260q-92 32 -120 55q-59 50 -59 132q0 76 50.5 125.5t128.5 50.5v83h38v-83q70 -5 116 -40.5t46 -86.5q0 -27 -17 -44t-43 -17q-22 0 -36.5 14t-14.5 34 q0 15 14 33q7 10 7 18q0 36 -72 50v-234q102 -29 146.5 -75t44.5 -124q0 -80 -51.5 -132t-139.5 -61v-83h-38v82q-82 4 -135.5 45.5t-53.5 100.5zM227 403v224q-51 -3 -81.5 -31.5t-30.5 -74.5q0 -42 25.5 -69t86.5 -49zM265 44q55 7 87.5 39.5t32.5 79.5q0 49 -26.5 77 t-93.5 51v-247z" />
<glyph unicode="%" horiz-adv-x="595" d="M156 295q-48 0 -85.5 59.5t-37.5 136.5q0 76 37.5 135.5t85.5 59.5t85 -59t37 -136t-37 -136.5t-85 -59.5zM103 -1l347 678h45l-346 -678h-46zM156 323q60 0 60 168q0 167 -60 167q-61 0 -61 -167q0 -168 61 -168zM317 182q0 76 37.5 135.5t85.5 59.5t85 -59t37 -136 q0 -76 -37.5 -135.5t-84.5 -59.5q-48 0 -85.5 59.5t-37.5 135.5zM378 182q0 -167 62 -167q61 0 61 167t-61 167q-62 0 -62 -167z" />
<glyph unicode="&#x26;" horiz-adv-x="778" d="M41 167q0 137 199 211q-43 106 -43 149q0 67 50.5 110t129.5 43q70 0 114.5 -34.5t44.5 -88.5q0 -66 -62 -109q-19 -14 -118 -60q-2 0 -17 -7q61 -132 155 -257q41 37 60 67q38 57 38 108q0 60 -86 63v37h236v-37q-47 -4 -66 -21.5t-40 -77.5q-18 -51 -44 -89.5 t-72 -81.5q44 -43 87 -43q56 0 120 76l33 -20q-73 -119 -175 -119q-40 0 -64.5 11t-62.5 45q-101 -56 -187 -56q-98 0 -164 52t-66 129zM322 417q74 42 101 67q46 41 46 84q0 35 -25 57t-64 22q-44 0 -73 -29t-29 -72q0 -44 44 -129zM145 191q0 -63 43 -106.5t107 -43.5 t133 33q-62 72 -90 116.5t-82 154.5q-111 -66 -111 -154z" />
<glyph unicode="'" horiz-adv-x="185" d="M77 433q-4 43 -20 106q-17 63 -17 85q0 25 15 40.5t38 15.5t37.5 -16t14.5 -41q0 -22 -22 -107q-11 -42 -15 -83h-31z" />
<glyph unicode="(" horiz-adv-x="333" d="M135 -35q-82 119 -82 285q0 190 111 323q60 71 126 107v-36q-83 -74 -119.5 -166t-36.5 -228t36.5 -228t119.5 -166v-36q-90 49 -155 145z" />
<glyph unicode=")" horiz-adv-x="333" d="M43 -144q83 74 119.5 166t36.5 228t-36.5 228t-119.5 166v36q90 -49 155 -145q82 -119 82 -285q0 -190 -111 -323q-60 -71 -126 -107v36z" />
<glyph unicode="*" horiz-adv-x="439" d="M141 376q-14 0 -23.5 10.5t-9.5 25.5q0 17 8 26.5t36 27.5q24 15 45 43q-31 8 -48 8h-13q-10 -1 -24 -1q-22 0 -36.5 11.5t-14.5 28.5q0 15 11 25t28 10q12 0 20.5 -4.5t30.5 -22.5q21 -17 55 -29q-2 35 -12 60q-12 29 -12 43q0 17 11 29.5t27 12.5q15 0 26 -12.5 t11 -29.5q0 -11 -13 -43q-10 -26 -11 -60q32 11 54 29t31 22.5t20 4.5q17 0 28.5 -10t11.5 -25q0 -17 -14 -29t-36 -12q-14 0 -22 1q-7 1 -17 1q-16 0 -48 -8q24 -29 45 -43q29 -18 36.5 -27.5t7.5 -26.5q0 -15 -9.5 -25.5t-23.5 -10.5q-21 0 -31.5 12.5t-19.5 48.5 q-7 26 -27 56q-19 -30 -26 -56q-9 -36 -20 -48.5t-32 -12.5z" />
<glyph unicode="+" d="M222 116v184h-182v47h182v184h51v-184h182v-47h-182v-184h-51z" />
<glyph unicode="," horiz-adv-x="247" d="M64 58q0 24 17 40t42 16q28 0 45.5 -21t17.5 -54q0 -41 -25 -83t-84 -100l-24 25l40 47q23 30 23 48q0 15 -20 27q-32 20 -32 55z" />
<glyph unicode="-" horiz-adv-x="193" d="M0 185v71h193v-71h-193z" />
<glyph unicode="." horiz-adv-x="247" d="M60 50q0 27 18.5 45.5t44.5 18.5q27 0 45.5 -18.5t18.5 -44.5q0 -27 -18.5 -45.5t-44.5 -18.5q-27 0 -45.5 18.5t-18.5 44.5z" />
<glyph unicode="/" horiz-adv-x="336" d="M-11 -167l252 834h55l-254 -834h-53z" />
<glyph unicode="0" d="M247 -13q-84 0 -145.5 99.5t-61.5 233.5q0 135 61.5 234.5t145.5 99.5t146 -99.5t62 -234.5q0 -134 -62 -233.5t-146 -99.5zM247 25q113 0 113 295q0 296 -113 296q-112 0 -112 -295q0 -296 112 -296z" />
<glyph unicode="1" d="M96 0v40q86 1 104.5 14t18.5 72v344q0 52 -5.5 63.5t-32.5 16.5q-24 4 -66 4h-29v37q56 10 93 21.5t123 47.5v-526q0 -39 2.5 -53t12.5 -21q25 -20 98 -20h11v-40h-330z" />
<glyph unicode="2" d="M39 0v36q56 107 180 240q73 78 99 123t26 95q0 55 -28.5 86.5t-77.5 31.5q-39 0 -66 -19t-27 -47q0 -9 13 -36q8 -16 8 -31q0 -23 -14.5 -39t-35.5 -16q-24 0 -40 19t-16 48q0 56 50 106q55 56 141 56q82 0 135 -46.5t53 -118.5q0 -58 -31 -105t-122 -125 q-71 -60 -103.5 -95.5t-66.5 -87.5h167q55 0 79 21.5t46 89.5l36 -10l-41 -176h-364z" />
<glyph unicode="3" d="M37 113q0 25 15.5 41.5t39.5 16.5t38.5 -16.5t14.5 -42.5q0 -11 -1 -17q-3 -13 -3 -21q0 -21 23.5 -34t61.5 -13q58 0 92 38.5t34 103.5q0 72 -32 111.5t-91 39.5q-18 0 -30 -1q-6 -1 -18 -1q-27 0 -27 22q0 23 28 23q11 0 18 -1q8 -1 20 -1q51 0 83.5 37.5t32.5 97.5 q0 56 -27 86.5t-77 30.5q-34 0 -55 -15.5t-21 -39.5q0 -4 2 -18t2 -19q0 -22 -14.5 -36.5t-36.5 -14.5t-36.5 15.5t-14.5 38.5q0 52 57.5 91t133.5 39q77 0 128.5 -43t51.5 -108q0 -59 -39.5 -103t-105.5 -58q54 -6 84 -25q38 -25 60.5 -64.5t22.5 -82.5q0 -79 -62.5 -131 t-158.5 -52q-83 0 -138 36t-55 90z" />
<glyph unicode="4" d="M35 153v42l278 452h42v-447h109v-47h-109v-59q0 -36 9.5 -45t45.5 -9h15v-40h-230v40h13q39 0 51.5 10.5t12.5 43.5v59h-237zM85 200h187v306z" />
<glyph unicode="5" d="M51 114q0 24 15.5 40.5t37.5 16.5q21 0 35.5 -15t14.5 -37q0 -6 -2 -18q-3 -17 -3 -24q0 -22 21.5 -37t52.5 -15q129 0 129 177q0 158 -109 158q-71 0 -133 -70l-33 15q7 73 11 168l2 49l1 49q1 38 2 51t1 18h323l-15 -73h-267l-9 -211q61 53 132 53q80 0 134.5 -58 t54.5 -143q0 -97 -63.5 -159.5t-161.5 -62.5q-70 0 -120.5 37.5t-50.5 90.5z" />
<glyph unicode="6" d="M255 -13q-95 0 -153 81t-58 213q0 154 75.5 263.5t181.5 109.5q53 0 92 -27t39 -64q0 -22 -14 -36t-36 -14t-35.5 13.5t-21.5 44.5q-11 42 -45 42q-59 0 -99.5 -84.5t-40.5 -205.5q68 87 150 87q71 0 117.5 -56t46.5 -142q0 -92 -59 -158.5t-140 -66.5zM253 22 q50 0 78 47.5t28 135.5q0 77 -23.5 113.5t-72.5 36.5q-38 0 -77 -32q-18 -16 -33 -36t-15 -29l-1 -26q-4 -91 30 -150.5t86 -59.5z" />
<glyph unicode="7" d="M161 49q0 53 57 183q47 104 97 195q14 26 69 116l15 24h-196q-49 0 -66 -18.5t-48 -106.5l-34 11l44 187h355v-43q-102 -186 -146.5 -303t-44.5 -201v-18v-13q0 -76 -52 -76q-22 0 -36 17.5t-14 45.5z" />
<glyph unicode="8" d="M37 149q0 52 34.5 93.5t111.5 82.5q-107 56 -107 157q0 73 52 122.5t129 49.5q73 0 122 -41t49 -103q0 -48 -30 -88t-83 -63q62 -25 96.5 -71.5t34.5 -107.5q0 -84 -58.5 -138.5t-149.5 -54.5q-89 0 -145 45t-56 117zM184 428q19 -15 81 -43q3 -2 7 -4l14 -6 q70 55 70 130q0 50 -29.5 80.5t-78.5 30.5q-46 0 -77.5 -29t-31.5 -73q0 -53 45 -86zM121 153q0 -58 33 -93t89 -35q58 0 97 36.5t39 89.5q0 70 -76 110l-92 46q-90 -61 -90 -154z" />
<glyph unicode="9" d="M66 78q0 21 15.5 36t36.5 15q38 0 52 -51q7 -28 17 -38t31 -10q37 0 68.5 36.5t50.5 103.5q18 60 23 157q-64 -96 -155 -96q-69 0 -116.5 56.5t-47.5 138.5q0 94 59 161t142 67q92 0 150 -82t58 -213q0 -156 -75 -264t-184 -108q-50 0 -87.5 27t-37.5 64zM230 288 q41 0 82 32q20 16 34 36q2 4 5 8q3 6 5 8l1 2v17q0 107 -31.5 166t-88.5 59q-48 0 -75.5 -48t-27.5 -133q0 -147 96 -147z" />
<glyph unicode=":" horiz-adv-x="247" d="M124 320q-27 0 -45.5 18.5t-18.5 45.5q0 26 18.5 44.5t44.5 18.5q27 0 45.5 -18.5t18.5 -44.5q0 -27 -18.5 -45.5t-44.5 -18.5zM60 50q0 27 18.5 45.5t44.5 18.5q27 0 45.5 -18.5t18.5 -44.5q0 -27 -18.5 -45.5t-44.5 -18.5q-27 0 -45.5 18.5t-18.5 44.5z" />
<glyph unicode=";" horiz-adv-x="247" d="M124 320q-27 0 -45.5 18.5t-18.5 45.5q0 26 18.5 44.5t45.5 18.5q26 0 44.5 -18.5t18.5 -44.5q0 -27 -18.5 -45.5t-44.5 -18.5zM64 58q0 24 17 40t42 16q28 0 45.5 -21t17.5 -54q0 -41 -25 -83t-84 -100l-24 25l40 47q23 30 23 48q0 15 -20 27q-32 20 -32 55z" />
<glyph unicode="&#x3c;" horiz-adv-x="500" d="M43 342v7l415 266v-40l-306 -199l306 -205v-106z" />
<glyph unicode="=" d="M40 373v47h415v-47h-415zM40 226v47h415v-47h-415z" />
<glyph unicode="&#x3e;" horiz-adv-x="500" d="M43 65v40l306 199l-306 205v106l415 -278v-7z" />
<glyph unicode="?" horiz-adv-x="375" d="M130 187v194q64 1 101.5 38t37.5 100q0 44 -19.5 73t-48.5 29q-13 0 -20.5 -4.5t-27.5 -24.5q-22 -22 -43 -22q-18 0 -30.5 13.5t-12.5 33.5q0 27 23.5 45t60.5 18q76 0 131.5 -59.5t55.5 -141.5q0 -74 -46.5 -124t-116.5 -52v-116h-45zM86 51q0 26 18.5 44.5t45.5 18.5 q26 0 44.5 -18.5t18.5 -44.5q0 -27 -18.5 -45.5t-44.5 -18.5q-27 0 -45.5 18.5t-18.5 45.5z" />
<glyph unicode="@" horiz-adv-x="751" d="M40 208q0 154 114.5 263t275.5 109q125 0 203 -72.5t78 -188.5q0 -105 -70.5 -188.5t-158.5 -83.5q-29 0 -45.5 15t-16.5 41q0 5 1 17q-42 -73 -98 -73q-42 0 -69.5 34.5t-27.5 88.5q0 87 62 168.5t129 81.5q20 0 37.5 -10.5t24.5 -28.5l11 38h63q-38 -141 -58 -243 q-11 -54 -11 -64q0 -21 21 -21q17 0 44.5 17t50.5 43q64 72 64 166q0 97 -64.5 159t-165.5 62q-139 0 -241 -98.5t-102 -233.5q0 -119 79 -199t197 -80q57 0 106 20t113 69l20 -27q-68 -56 -124.5 -79t-123.5 -23q-134 0 -226 92.5t-92 228.5zM295 142q0 -58 34 -58 q23 0 47.5 30t46.5 84q34 84 34 140q0 22 -11.5 36t-28.5 14q-46 0 -87 -98q-35 -82 -35 -148z" />
<glyph unicode="A" horiz-adv-x="595" d="M-7 0v39q36 1 51 16t31 63l178 543l81 25l181 -568q18 -56 29.5 -66.5t56.5 -12.5v-39h-250v39h26q51 0 51 32q0 15 -10 47l-34 112h-225l-34 -112q-5 -18 -5 -28q0 -28 17 -39.5t60 -11.5v-39h-204zM174 275h195l-93 316z" />
<glyph unicode="B" horiz-adv-x="613" d="M30 0v39h23q39 0 51.5 15t12.5 63v433q0 48 -12.5 63t-51.5 15h-23v39h227q94 0 151 -14q59 -14 94 -52t35 -90q0 -56 -44 -98.5t-116 -55.5q65 -8 102 -28q43 -23 68.5 -63.5t25.5 -84.5q0 -53 -32.5 -97t-85.5 -62q-63 -22 -150 -22h-275zM210 372h23q68 0 94.5 4.5 t53.5 19.5q55 31 55 109q0 125 -134 125q-56 0 -74 -13.5t-18 -54.5v-190zM210 111q0 -50 10 -61t53 -11q109 0 153 31.5t44 110.5q0 44 -16 79t-44 51q-41 24 -140 24q-31 0 -60 -1v-223z" />
<glyph unicode="C" horiz-adv-x="605" d="M40 298q0 154 84.5 268t199.5 114q46 0 85 -15q25 -9 35 -9q18 0 68 18l57 -174l-37 -15q-32 67 -90 111t-115 44q-83 0 -135 -80.5t-52 -210.5q0 -133 56.5 -212t151.5 -79q59 0 109 36.5t76 98.5l36 -15q-34 -88 -102 -139.5t-151 -51.5q-121 0 -198.5 87.5 t-77.5 223.5z" />
<glyph unicode="D" horiz-adv-x="667" d="M30 0v39h23q39 0 51.5 15t12.5 63v433q0 48 -12.5 63t-51.5 15h-23v39h225q95 0 134 -9q109 -23 173.5 -110.5t64.5 -211.5q0 -97 -42.5 -176t-116.5 -120q-74 -40 -206 -40h-232zM210 125q0 -54 14 -71t60 -17q127 0 183.5 71.5t56.5 233.5q0 152 -55 219.5t-178 67.5 q-47 0 -64 -15.5t-17 -59.5v-429z" />
<glyph unicode="E" horiz-adv-x="620" d="M30 0v39h23q39 0 51.5 15t12.5 63v433q0 48 -12.5 63t-51.5 15h-23v39h471l59 -162l-35 -12q-52 76 -101.5 105.5t-125.5 29.5q-54 0 -71 -12t-17 -49v-205h31q73 0 101 22.5t39 88.5h38v-265h-37q-10 69 -38.5 92t-105.5 23h-28v-220q0 -41 14 -53t63 -12 q83 0 141.5 33.5t120.5 116.5l31 -14l-65 -174h-485z" />
<glyph unicode="F" horiz-adv-x="567" d="M30 0v39h23q39 0 51.5 15t12.5 63v433q0 48 -12.5 63t-51.5 15h-23v39h470l62 -167l-32 -12q-83 140 -226 140q-59 0 -76.5 -12.5t-17.5 -53.5v-201h26q75 0 108 25t38 86h35v-263h-35q-5 66 -36 90t-111 24h-25v-206q0 -48 12.5 -63t51.5 -15h29v-39h-273z" />
<glyph unicode="G" horiz-adv-x="675" d="M40 318q0 149 85.5 255.5t206.5 106.5q37 0 84 -16q15 -5 30 -5q19 0 68 19l62 -167l-34 -17q-46 71 -101 110t-110 39q-86 0 -137 -87.5t-51 -233.5q0 -139 51.5 -219t141.5 -80q59 0 96.5 33t37.5 85v38q0 48 -12.5 63.5t-51.5 15.5h-29v39h262v-39h-16 q-39 0 -51.5 -15.5t-12.5 -63.5v-155h-24q-38 0 -89 -17q-63 -21 -114 -21q-128 0 -210 93t-82 239z" />
<glyph unicode="H" horiz-adv-x="683" d="M30 0v39h23q39 0 51.5 15t12.5 63v433q0 48 -12.5 63t-51.5 15h-23v39h260v-39h-16q-39 0 -51.5 -15t-12.5 -63v-186h264v186q0 48 -12.5 63t-51.5 15h-16v39h260v-39h-23q-39 0 -51.5 -15t-12.5 -63v-433q0 -48 12.5 -63t51.5 -15h23v-39h-260v39h16q39 0 51.5 15 t12.5 63v202h-264v-202q0 -48 12.5 -63t51.5 -15h16v-39h-260z" />
<glyph unicode="I" horiz-adv-x="327" d="M30 0v39h23q39 0 51.5 15t12.5 63v433q0 48 -12.5 63t-51.5 15h-23v39h267v-39h-23q-39 0 -51.5 -15t-12.5 -63v-433q0 -48 12.5 -63t51.5 -15h23v-39h-267z" />
<glyph unicode="J" horiz-adv-x="340" d="M10 -24q45 0 62 -54q6 -21 20 -21q41 0 41 77v572q0 48 -12.5 63t-51.5 15h-29v39h273v-39h-23q-39 0 -51.5 -15t-12.5 -63v-455q0 -113 -40 -171q-53 -78 -139 -78q-40 0 -67 20t-27 49q0 25 17 43t40 18z" />
<glyph unicode="K" horiz-adv-x="650" d="M30 0v39h23q39 0 51.5 15t12.5 63v433q0 48 -12.5 63t-51.5 15h-23v39h260v-39h-16q-39 0 -51.5 -15t-12.5 -63v-230l217 230q23 25 28.5 33t5.5 18q0 27 -43 27h-24v39h230v-39q-41 -2 -65 -15.5t-71 -62.5l-129 -134l189 -299q31 -50 51 -64t59 -14v-39h-258v39h29 q43 0 43 21q0 9 -31 57l-149 230l-82 -83v-147q0 -48 12.5 -63t51.5 -15h16v-39h-260z" />
<glyph unicode="L" horiz-adv-x="560" d="M30 0v39h23q39 0 51.5 15t12.5 63v433q0 48 -12.5 63t-51.5 15h-23v39h267v-39h-23q-39 0 -51.5 -15t-12.5 -63v-424q0 -55 11 -70t52 -15q70 0 103.5 12t78.5 52q43 38 72 82l33 -14l-62 -173h-468z" />
<glyph unicode="M" horiz-adv-x="840" d="M30 0v39l23 2q34 3 49 30.5t15 85.5v393q0 48 -12.5 63t-51.5 15h-23v39h205l188 -509l186 509h201v-39h-23q-39 0 -51.5 -15t-12.5 -63v-433q0 -49 12 -63.5t52 -14.5h23v-39h-267v39h23q39 0 51.5 15t12.5 63v487l-218 -604h-29l-219 596v-439q0 -62 14 -87.5t50 -28.5 l23 -2v-39h-221z" />
<glyph unicode="N" horiz-adv-x="683" d="M30 0v39l23 2q34 3 49 30.5t15 85.5v432q-30 34 -87 37v41h157l339 -488v331q0 59 -14.5 85t-49.5 30l-23 3v39h221v-39l-23 -3q-35 -4 -49.5 -30t-14.5 -85v-523h-31l-378 560v-390q0 -58 15 -85.5t49 -30.5l23 -2v-39h-221z" />
<glyph unicode="O" horiz-adv-x="654" d="M327 -13q-120 0 -203.5 102.5t-83.5 250.5q0 138 85 239t202 101q119 0 203 -101.5t84 -244.5q0 -144 -84 -245.5t-203 -101.5zM327 24q82 0 133 85.5t51 224.5q0 138 -51 223.5t-133 85.5t-133 -85.5t-51 -223.5q0 -139 51 -224.5t133 -85.5z" />
<glyph unicode="P" horiz-adv-x="574" d="M30 0v39h23q39 0 51.5 15t12.5 63v433q0 48 -12.5 63t-51.5 15h-23v39h242q72 0 112.5 -7.5t72.5 -27.5q87 -52 87 -148q0 -58 -33 -100.5t-92 -60.5q-44 -14 -121 -15h-5h-3h-3.5h-6.5h-12.5t-22.5 -0.5t-35 -0.5v-190q0 -48 12.5 -63t51.5 -15h29v-39h-273zM210 348h13 q3 0 6.5 -0.5t14.5 -0.5h29q52 0 75.5 5t45.5 21q47 32 47 112q0 145 -142 145q-55 0 -72 -13.5t-17 -56.5v-212z" />
<glyph unicode="Q" horiz-adv-x="655" d="M323 -13q-121 0 -202 98t-81 243q0 149 83 250.5t205 101.5t204.5 -99t82.5 -244q0 -204 -140 -301l23 -34q30 -48 68 -48q16 0 46 21l19 -22q-23 -30 -55.5 -47.5t-63.5 -17.5q-63 0 -96 59q-7 13 -20 52q-40 -12 -73 -12zM183 115q7 38 31.5 59t62.5 21q94 0 168 -120 q31 34 49 103.5t18 152.5q0 147 -50 232q-47 80 -136 80q-86 0 -134.5 -83.5t-48.5 -231.5q0 -110 40 -213zM213 100q0 -32 33 -54t79 -22q21 0 38 3q8 2 14 5q8 3 8 4q-10 55 -39.5 88.5t-68.5 33.5q-26 0 -45 -17.5t-19 -40.5z" />
<glyph unicode="R" horiz-adv-x="597" d="M30 0v39h23q39 0 51.5 15t12.5 63v433q0 48 -12.5 63t-51.5 15h-23v39h267q119 0 184.5 -44.5t65.5 -124.5q0 -67 -48.5 -113t-127.5 -54l117 -214q26 -48 47 -63t60 -15h14v-39h-159l-175 320h-65v-203q0 -48 12.5 -63t51.5 -15h16v-39h-260zM210 359h89 q68 0 106.5 37.5t38.5 104.5q0 129 -158 129q-46 0 -61 -14.5t-15 -58.5v-198z" />
<glyph unicode="S" horiz-adv-x="525" d="M99 -13l-66 181l32 16q45 -68 109.5 -111t121.5 -43q55 0 90 35.5t35 90.5t-36 86.5t-127 56.5q-108 29 -153.5 73.5t-45.5 121.5t52 131.5t126 54.5q20 0 29.5 -2t58.5 -17q15 -5 26 -5q10 0 26 7l34 17l62 -173l-32 -21q-44 72 -97 111.5t-107 39.5q-47 0 -78.5 -31.5 t-31.5 -79.5q0 -93 132 -127l37.5 -10l33 -9t18.5 -5q67 -20 105.5 -70t38.5 -117q0 -85 -57 -143t-140 -58q-42 0 -93 23q-25 11 -36 11q-12 0 -29 -10z" />
<glyph unicode="T" horiz-adv-x="593" d="M157 0v39h29q39 0 51.5 15t12.5 63v470q0 25 -7.5 33t-30.5 8q-94 0 -184 -141l-35 15l50 165h507l50 -165l-35 -15q-90 141 -184 141q-23 0 -30.5 -8t-7.5 -33v-470q0 -48 12.5 -63t51.5 -15h29v-39h-279z" />
<glyph unicode="U" horiz-adv-x="700" d="M117 203v44v303q0 49 -12 63.5t-51 14.5h-24v39h267v-39h-23q-38 0 -51 -15.5t-13 -62.5v-305q0 -65 4.5 -91.5t18.5 -51.5q44 -73 134 -73q55 0 95.5 25t57.5 69q16 43 16 138v249q0 57 -15 84t-49 31l-23 3v39h221v-39l-22 -3q-65 -9 -65 -112v-252q0 -124 -31 -178 q-55 -97 -201 -97q-112 0 -173 56.5t-61 160.5z" />
<glyph unicode="V" horiz-adv-x="585" d="M276 -20l-191 570q-16 48 -33 63t-54 15h-5v39h251v-39h-24q-49 0 -49 -31q0 -14 11 -47l135 -414l138 414q4 11 4 28q0 50 -67 50h-6v39h205v-39q-38 -1 -54 -16t-33 -62l-196 -570h-32z" />
<glyph unicode="W" horiz-adv-x="789" d="M222 -20l-165 596q-9 34 -20 43t-40 9h-4v39h234v-39h-36h-15q-28 0 -28 -22q0 -5 13 -56l100 -380l111 376q-14 53 -27.5 67.5t-49.5 14.5h-26v39h262v-39h-24q-52 0 -52 -31q0 -14 9 -47l101 -380l108 380q7 24 7 37q0 41 -48 41h-27v39h190v-39q-37 -2 -47.5 -13 t-26.5 -65l-168 -570h-25l-136 488l-141 -488h-29z" />
<glyph unicode="X" horiz-adv-x="585" d="M-7 0v39h12q63 0 113 78l132 209l-135 224q-26 43 -38 55q-23 23 -73 23h-4v39h261v-39h-22q-43 0 -43 -23q0 -13 26 -55l86 -145l85 145q21 35 21 48q0 30 -54 30h-12v39h223v-39h-8q-36 0 -58.5 -16t-53.5 -62l-119 -181l147 -252q28 -49 49 -63.5t60 -14.5h4v-39h-265 v39h26q49 0 47 21q0 8 -25 52l-100 176l-102 -171q-15 -25 -15 -44q0 -16 12 -25t32 -9h28v-39h-237z" />
<glyph unicode="Y" horiz-adv-x="540" d="M132 0v39h23q39 0 51.5 15t12.5 63v156l-164 327q-9 17 -19 22.5t-37 5.5h-6v39h234v-39h-20q-37 0 -44 -3t-7 -16q0 -6 26 -59l108 -219l105 219q15 32 15 45q0 18 -14 25.5t-47 7.5h-8v39h205v-39q-42 -4 -55 -14.5t-41 -63.5l-138 -265v-168q0 -48 12.5 -63t51.5 -15 h23v-39h-267z" />
<glyph unicode="Z" horiz-adv-x="544" d="M25 21l362 603h-83q-71 0 -126.5 -32.5t-103.5 -103.5l-32 15l60 164h390l15 -20l-363 -604h71q64 0 99 9t72 34q54 37 98 104l34 -15l-65 -175h-415z" />
<glyph unicode="[" horiz-adv-x="303" d="M90 -167v834h161v-42h-84v-750h89v-42h-166z" />
<glyph unicode="\" horiz-adv-x="336" d="M294 -167l-254 834h55l252 -834h-53z" />
<glyph unicode="]" horiz-adv-x="303" d="M47 -125h89v750h-84v42h161v-834h-166v42z" />
<glyph unicode="^" horiz-adv-x="500" d="M-25 285l278 415h6l266 -415h-40l-199 306l-205 -306h-106z" />
<glyph unicode="_" horiz-adv-x="500" d="M0 -88h500v-46h-500v46z" />
<glyph unicode="`" horiz-adv-x="500" d="M251 487l-136 81q-30 18 -30 39q0 13 10 22.5t23 9.5q18 0 42 -25l120 -121z" />
<glyph unicode="a" horiz-adv-x="433" d="M35 92q0 86 123 139q32 14 119 39v57q0 81 -63 81q-28 0 -42.5 -13t-28.5 -51q-15 -37 -50 -37q-18 0 -30.5 12.5t-12.5 30.5q0 40 49.5 68t118.5 28q84 0 117 -44q12 -16 15.5 -32t3.5 -54v-232q0 -31 2.5 -39.5t11.5 -8.5t27 17l22 -21q-36 -45 -81 -45t-55 56 q-72 -56 -133 -56q-49 0 -81 30t-32 75zM120 96q0 -28 15.5 -45t41.5 -17q42 0 100 43v156q-157 -53 -157 -137z" />
<glyph unicode="b" horiz-adv-x="483" d="M78 -12v546q0 41 -10.5 52.5t-52.5 15.5v28l140 44v-276q64 48 115 48q74 0 125 -65.5t51 -160.5q0 -98 -52 -165.5t-128 -67.5q-67 0 -121 59l-43 -63zM155 86q41 -49 94 -49t81.5 45t28.5 129t-29 133t-79 49q-46 0 -96 -43v-264z" />
<glyph unicode="c" horiz-adv-x="427" d="M38 202q0 100 63.5 172t152.5 72q55 0 98 -28t43 -63q0 -18 -14 -31t-34 -13q-33 0 -48 41q-12 32 -27.5 44.5t-42.5 12.5q-46 0 -75.5 -50t-29.5 -127q0 -88 35.5 -140t95.5 -52q70 0 124 80l31 -19q-71 -114 -179 -114q-83 0 -138 61t-55 154z" />
<glyph unicode="d" horiz-adv-x="485" d="M213 -13q-74 0 -125 67.5t-51 165.5q0 94 51 160t124 66q31 0 57 -12t61 -43v143q0 41 -10.5 52.5t-52.5 15.5v28l140 44v-577q0 -41 10 -52.5t47 -11.5v-33h-134v49q-53 -62 -117 -62zM230 36q25 0 53.5 17t46.5 43v249q-50 48 -96 48q-52 0 -81 -49.5t-29 -138.5 q0 -81 27.5 -125t78.5 -44z" />
<glyph unicode="e" horiz-adv-x="472" d="M38 201q0 100 62.5 173t148.5 73q77 0 127 -56t58 -153h-311q-1 -97 37.5 -147.5t112.5 -50.5t141 73l25 -20q-76 -106 -196 -106q-89 0 -147 60.5t-58 153.5zM129 278h218q-11 135 -102 135q-45 0 -76 -36t-40 -99z" />
<glyph unicode="f" horiz-adv-x="270" d="M13 0v37h13q38 0 48 10.5t10 50.5v295h-71v40h71q3 89 21 133q19 49 57 79.5t78 30.5q28 0 45 -13t17 -36q0 -19 -15 -33t-35 -14q-13 0 -19.5 3.5t-27.5 21.5q-6 6 -13 6q-16 1 -23.5 -34.5t-7.5 -111.5v-32h95v-40h-95v-295q0 -41 10 -51t53 -10h20v-37h-231z" />
<glyph unicode="g" horiz-adv-x="468" d="M23 -79q0 68 137 105q-100 11 -100 61q0 39 79 64q-85 43 -85 134q0 66 49.5 113.5t118.5 47.5q53 0 107 -38q36 48 76 48q19 0 32 -12.5t13 -31.5q0 -16 -10.5 -27t-25.5 -11q-14 0 -34 20q-5 5 -11 5q-8 0 -16 -9q41 -48 41 -101q0 -68 -50 -113.5t-126 -45.5 q-19 0 -50 8q-33 -9 -33 -27q0 -16 35 -23q66 -13 120 -21q77 -12 113.5 -40t36.5 -74q0 -57 -58 -88.5t-162 -31.5q-93 0 -145 23.5t-52 64.5zM224 161q41 0 66 35t25 93q0 55 -24.5 89t-64.5 34q-43 0 -68 -35t-25 -94q0 -55 25 -88.5t66 -33.5zM98 -73q0 -60 127 -60 q152 0 152 66q0 20 -13.5 31.5t-47.5 21.5q-21 6 -42 11q-17 4 -34.5 7.5l-22.5 4.5l-17 3l-14 -6q-49 -20 -68.5 -37.5t-19.5 -41.5z" />
<glyph unicode="h" horiz-adv-x="505" d="M26 0v37q41 -1 52 9.5t11 50.5v437q0 40 -10.5 51.5t-52.5 16.5v28l140 43v-299q72 73 136 73q31 0 58.5 -15t41.5 -41q17 -29 17 -95v-199q0 -39 10 -50t47 -10v-37h-191v37q37 -1 47 10t10 50v199q0 52 -15.5 75t-50.5 23q-56 0 -110 -64v-233q0 -39 10 -50t47 -10v-37 h-197z" />
<glyph unicode="i" horiz-adv-x="250" d="M129 567q-22 0 -37.5 15.5t-15.5 37.5t15.5 37.5t37.5 15.5t37.5 -15.5t15.5 -37.5t-15.5 -37.5t-37.5 -15.5zM31 0v37q42 -1 52.5 10t10.5 54v212q0 40 -10.5 51.5t-52.5 16.5v28l140 44v-352q0 -42 10 -53.5t47 -10.5v-37h-197z" />
<glyph unicode="j" horiz-adv-x="244" d="M130 567q-22 0 -37.5 15.5t-15.5 37.5t15.5 37.5t37.5 15.5t37.5 -15.5t15.5 -37.5t-15.5 -37.5t-37.5 -15.5zM14 -70q31 0 46 -30q8 -14 11 -14q23 0 23 90v337q0 40 -10.5 51.5t-52.5 17.5v27l140 44v-432q0 -66 -19 -107q-19 -39 -52.5 -63.5t-68.5 -24.5 q-28 0 -46.5 16t-18.5 41q0 20 14 33.5t34 13.5z" />
<glyph unicode="k" horiz-adv-x="471" d="M24 0v37q41 -1 52 9.5t11 50.5v437q0 40 -10.5 51.5t-52.5 16.5v28l140 43v-460l123 123q19 20 23.5 25.5t4.5 12.5q0 13 -10.5 17t-42.5 5v37h195v-37q-35 -1 -60 -13.5t-57 -46.5l-65 -68l108 -171q13 -21 18.5 -28.5t11 -16t11.5 -9.5t9 -3t16.5 -2t21.5 -1v-37h-196 v37h15q31 0 31 17q-1 8 -24 43l-78 121l-55 -54v-67q0 -39 10 -50t47 -10v-37h-197z" />
<glyph unicode="l" horiz-adv-x="243" d="M26 0v37q42 -1 52.5 9t10.5 51v437q0 40 -10.5 51t-52.5 17v28l140 43v-576q0 -39 10 -50t47 -10v-37h-197z" />
<glyph unicode="m" horiz-adv-x="757" d="M31 0v37q43 0 53 10.5t10 53.5v212q0 41 -10.5 52.5t-52.5 16.5v27l140 44v-79q64 73 137 73q77 0 111 -79q66 79 143 79q56 0 86 -36t30 -104v-206q0 -42 10 -53t47 -11v-37h-191v37q37 0 47 11t10 53v176q0 53 -7 73q-7 19 -24.5 31.5t-37.5 12.5q-47 0 -107 -62v-231 q0 -42 10 -53t47 -11v-37h-191v37q37 0 47 11t10 53v189q0 55 -16 79.5t-53 24.5q-45 0 -108 -62v-231q0 -41 10 -52.5t47 -11.5v-37h-197z" />
<glyph unicode="n" horiz-adv-x="503" d="M31 0v37q42 -1 52.5 9t10.5 51v216q0 41 -10.5 52.5t-52.5 16.5v27l140 44v-76q70 70 137 70q65 0 97 -53q19 -31 19 -101v-196q0 -39 10 -50t47 -10v-37h-191v37q37 -1 47 10t10 50v187q0 58 -16.5 84t-53.5 26q-47 0 -106 -58v-239q0 -39 10 -50t47 -10v-37h-197z" />
<glyph unicode="o" horiz-adv-x="483" d="M38 217q0 95 59.5 162t144.5 67t144 -67t59 -162q0 -96 -59 -163t-144 -67t-144.5 67t-59.5 163zM242 21q52 0 84 54t32 142q0 87 -32 141t-84 54t-84.5 -54t-32.5 -141q0 -88 32.5 -142t84.5 -54z" />
<glyph unicode="p" horiz-adv-x="499" d="M94 -69v382q0 41 -10.5 52.5t-52.5 16.5v27l140 44v-57q54 50 114 50q74 0 125 -66.5t51 -163.5q0 -96 -51.5 -163t-124.5 -67q-60 0 -114 50v-105q0 -41 10.5 -51.5t52.5 -9.5v-37h-203v37q41 -1 52 9.5t11 51.5zM171 79q46 -42 91 -42q54 0 83 45.5t29 130.5 q0 186 -111 186q-53 0 -92 -50v-270z" />
<glyph unicode="q" horiz-adv-x="485" d="M38 212q0 97 54.5 165.5t131.5 68.5q32 0 58.5 -12.5t60.5 -44.5l43 59l23 -7v-510q0 -40 10 -51t47 -10v-37h-197v37q42 -1 52.5 9.5t10.5 51.5v105q-61 -50 -114 -50q-78 0 -129 64t-51 162zM238 36q45 0 94 48v265q-47 48 -95 48q-53 0 -82.5 -48t-29.5 -134 t29.5 -132.5t83.5 -46.5z" />
<glyph unicode="r" horiz-adv-x="370" d="M24 0v37h11q38 0 48.5 10.5t10.5 49.5v216q0 40 -10.5 51.5t-52.5 17.5v27l140 44v-112q41 59 73 82.5t71 23.5q25 0 41 -13t16 -34t-13.5 -34t-34.5 -13q-13 0 -34 11q-15 8 -26 8q-20 0 -38 -15t-55 -63v-197q0 -40 10.5 -50t53.5 -10h33v-37h-244z" />
<glyph unicode="s" horiz-adv-x="407" d="M92 -17l-59 150l31 15q32 -54 81 -88t94 -34q31 0 53 20.5t22 49.5q0 34 -21.5 51t-78.5 31q-87 20 -126.5 54.5t-39.5 91.5q0 51 36.5 86.5t88.5 35.5q28 0 55 -10q21 -8 30 -8q15 0 28 10l17 12l55 -134l-30 -19q-32 50 -74 80t-79 30q-33 0 -53 -16.5t-20 -44.5 q0 -30 25 -48t86 -32q87 -20 124 -53t37 -91q0 -56 -38.5 -95.5t-92.5 -39.5q-22 0 -57 10q-31 8 -46 8q-16 0 -26 -7z" />
<glyph unicode="t" horiz-adv-x="310" d="M106 28q-14 25 -14 94v271h-61v31q46 16 67.5 51t32.5 108h38v-150h122v-40h-122v-253q0 -57 11.5 -79t42.5 -22q19 0 33.5 8t39.5 33l27 -19q-53 -75 -129 -75q-64 0 -88 42z" />
<glyph unicode="u" horiz-adv-x="497" d="M100 42q-9 19 -11 40t-2 80v151q0 40 -10.5 51.5t-52.5 17.5v27l140 44v-291q0 -62 10 -82q15 -33 57 -33q48 0 109 60v206q0 40 -10.5 51.5t-52.5 17.5v27l140 44v-356q0 -41 10 -52.5t47 -11.5v-33h-134v63q-68 -76 -139 -76q-33 0 -62 15.5t-39 39.5z" />
<glyph unicode="v" horiz-adv-x="433" d="M200 -20l-133 356q-14 36 -28.5 48t-45.5 12v37h195v-37q-34 -2 -43.5 -6t-8.5 -15q0 -5 12 -39l86 -239l87 239q6 16 6 26q0 34 -48 34h-17v37h177v-37q-30 0 -44 -11.5t-28 -48.5l-138 -356h-29z" />
<glyph unicode="w" horiz-adv-x="638" d="M184 -20l-118 356q-12 37 -26.5 48.5t-46.5 11.5v37h191v-37h-10q-38 0 -38 -22q0 -9 9 -38l71 -231l83 224q-13 43 -24.5 54t-45.5 13v37h186v-37q-30 0 -39.5 -4.5t-9.5 -18.5q0 -8 9 -37l72 -231l81 231q5 15 5 25q0 20 -14 28t-46 7v37h172v-37q-32 -2 -44 -12.5 t-25 -47.5l-129 -356h-32l-94 291l-105 -291h-32z" />
<glyph unicode="x" horiz-adv-x="446" d="M0 0v37q36 -1 57.5 11t50.5 49l85 109l-98 130q-30 40 -43 48t-52 12v37h204v-37h-18q-29 0 -29 -15q0 -7 8 -18q5 -6 20 -27l53 -76l51 76q22 33 22 39q0 20 -46 21v37h175v-37q-30 0 -51 -13t-48 -47l-82 -104l102 -135q23 -31 41 -43.5t44 -16.5v-37h-187v37h15 q28 0 28 16q0 6 -28 44l-60 82l-55 -82l-7 -10l-9 -14q-9 -15 -9 -19q0 -17 29 -17h22v-37h-185z" />
<glyph unicode="y" horiz-adv-x="434" d="M62 -78q20 0 39 -15q18 -13 26 -13q28 2 50 63l15 43l-136 365q-8 20 -19.5 26t-43.5 5v37h200v-37q-14 0 -18 -1q-38 -1 -38 -26q0 -9 9 -33l88 -245l86 245q7 21 7 27q0 18 -14.5 25t-50.5 8v37h178v-37q-30 1 -45 -11.5t-29 -48.5l-141 -370q-31 -82 -62.5 -113 t-81.5 -31q-28 0 -46 15.5t-18 40.5q0 19 13 31.5t32 12.5z" />
<glyph unicode="z" horiz-adv-x="407" d="M22 0v28l260 368h-38q-61 0 -95.5 -22t-81.5 -91l-28 15l54 135h272l10 -31l-255 -365h45q52 0 73 6.5t47 30.5q42 39 70 83l30 -15l-53 -142h-310z" />
<glyph unicode="{" horiz-adv-x="480" d="M191 -28q0 7 1 34.5t1 81.5v26l1 19v19l1 18q2 40 -20 56.5t-78 18.5v38q57 3 77.5 19t20.5 59v13q0 4 -0.5 12.5t-0.5 13.5q-2 80 -2 81q0 84 14 123t50 52q26 10 80 10h13q20 0 27.5 0.5t17.5 0.5h8v-39q-62 -2 -89 -14.5t-37 -46.5q-6 -19 -6.5 -26t-0.5 -66v-59v-56 q0 -39 -14.5 -58t-55.5 -35q-3 0 -8 -3l8 -3q30 -11 42.5 -23t20.5 -36q7 -21 7 -106v-22q0 -30 -1 -66q-2 -81 24.5 -108t109.5 -28v-39h-8q-7 0 -15 1h-45q-78 0 -110.5 31.5t-32.5 106.5z" />
<glyph unicode="|" horiz-adv-x="500" d="M221 -167v834h58v-834h-58z" />
<glyph unicode="}" horiz-adv-x="480" d="M78 -128q84 1 109.5 26.5t24.5 109.5l-1 88q-1 62 1.5 82t11.5 38q10 19 20 26.5t37 18.5l8 3l-34 14q-18 7 -31 30.5t-13 51.5v163q0 59 -28.5 81t-104.5 24v39h8q9 0 45 -1q62 -1 86.5 -8t41.5 -29t23 -53t6 -97q0 -1 -2 -79q0 -5 -0.5 -13.5t-0.5 -12.5v-13 q0 -43 20.5 -59t77.5 -19v-38q-56 -2 -77.5 -18.5t-20.5 -56.5l4 -198q2 -74 -31 -106t-112 -32h-45q-8 -1 -15 -1h-8v39z" />
<glyph unicode="~" horiz-adv-x="667" d="M140 612l-15 10q58 98 138 98q27 0 89 -22q53 -18 78 -18q54 0 98 54l15 -10q-24 -43 -61.5 -70t-73.5 -27q-17 0 -28 2.5t-64 20.5q-60 19 -86 19t-42.5 -10.5t-47.5 -46.5z" />
<glyph unicode="&#xa1;" horiz-adv-x="273" d="M137 320q-27 0 -45.5 18.5t-18.5 44.5q0 27 18.5 45.5t44.5 18.5q27 0 45.5 -18.5t18.5 -45.5q0 -26 -18.5 -44.5t-44.5 -18.5zM96 -32q11 49 15 90q6 60 6 132v56h39v-56q0 -71 8 -151q3 -26 13 -71l16 -74q9 -46 9 -67q0 -33 -18 -53.5t-47 -20.5t-47.5 21t-18.5 53 q0 26 14 89z" />
<glyph unicode="&#xa2;" d="M242 0v104q-79 6 -129 66.5t-50 149.5q0 88 51 157t128 85v105h35v-102h5q36 0 72 -14q32 -14 50.5 -34.5t18.5 -42.5q0 -17 -14.5 -30.5t-33.5 -13.5q-34 0 -48 40q-11 27 -20.5 38t-29.5 17v-369h3q73 0 126 82l32 -20q-65 -103 -161 -113v-105h-35zM242 162v365 q-41 -8 -66.5 -56.5t-25.5 -119.5q0 -73 24 -122.5t68 -66.5z" />
<glyph unicode="&#xa3;" d="M9 58q0 34 25.5 55.5t65.5 21.5q31 0 67 -20q3 19 3 28q0 49 -33 129h-95v39h79q-31 80 -31 140q0 94 59 154.5t149 60.5q67 0 110.5 -36t43.5 -90q0 -30 -16.5 -50t-41.5 -20q-20 0 -33.5 13t-13.5 32q0 28 30 39q14 5 14 17q0 21 -24 36t-59 15q-53 0 -90 -38.5 t-37 -93.5q0 -34 15 -84q3 -10 34 -84v-2q0 -2 1.5 -4.5t2.5 -4.5h115v-39h-104q9 -38 9 -65q0 -65 -30 -118q49 -26 101 -26q90 0 124 91l35 -8q-18 -81 -60 -124.5t-102 -43.5q-34 0 -56.5 11t-62.5 48l-8 6q-50 -57 -105 -57q-36 0 -58.5 20t-22.5 52zM57 58 q1 -11 9.5 -19t21.5 -8q20 0 33 8t29 31q-36 20 -58 20q-15 0 -25.5 -9.5t-9.5 -22.5z" />
<glyph unicode="&#xa4;" d="M72 115l-33 33l56 56q-41 56 -41 118q0 64 41 121l-56 56l33 33l56 -56q57 41 120 41t119 -41l56 56l33 -33l-56 -56q42 -54 42 -121q0 -65 -41 -119l55 -55l-33 -33l-56 56q-55 -42 -119 -42t-120 42zM249 183q57 0 98 41t41 98q0 59 -40.5 100t-98.5 41 q-59 0 -100 -41.5t-41 -99.5q0 -57 41.5 -98t99.5 -41z" />
<glyph unicode="&#xa5;" d="M121 0v39h24q36 0 47 15t11 65v137h-165v37h155l-38 80h-126v37h108l-79 167q-7 14 -16.5 18.5t-37.5 6.5v38h211v-38h-37q-30 0 -30 -21q0 -10 17 -44l7 -15l87 -186l85 186q14 33 14 46q0 34 -48 34h-17v38h197v-38q-35 -5 -48.5 -14.5t-27.5 -39.5l-13 -28l-55 -110 h119v-37h-138l-39 -80h168v-37h-173v-137q0 -50 11 -65t47 -15h24v-39h-244z" />
<glyph unicode="&#xa6;" horiz-adv-x="500" d="M221 330v337h58v-337h-58zM221 153h58v-320h-58v320z" />
<glyph unicode="&#xa7;" horiz-adv-x="439" d="M68 -66q0 26 16 43.5t41 17.5q22 0 37 -13.5t15 -33.5q0 -23 -24 -43q-9 -9 -9 -15q0 -12 21 -22t46 -10q37 0 59 20.5t22 54.5q0 31 -17 52t-86 76q-83 66 -116 112.5t-33 96.5q0 53 32.5 88.5t80.5 35.5q12 0 29 -4q-102 62 -102 150q0 56 39 91.5t101 35.5 q58 0 97.5 -28.5t39.5 -70.5q0 -27 -15.5 -43.5t-41.5 -16.5q-21 0 -35.5 14t-14.5 34q0 24 22 41q10 7 10 14q0 12 -16.5 20.5t-39.5 8.5q-37 0 -59 -19t-22 -50q0 -29 17.5 -51t82.5 -75q91 -73 122.5 -117t31.5 -97q0 -50 -30.5 -87t-73.5 -37q-17 0 -41 7 q104 -68 104 -151q0 -56 -42.5 -93t-106.5 -37q-58 0 -99.5 30t-41.5 71zM173 190q65 -57 101 -57q28 0 48 19.5t20 45.5q0 42 -60 99q-74 70 -120 70q-25 0 -44.5 -19t-19.5 -44q0 -26 16 -51t59 -63z" />
<glyph unicode="&#xa8;" horiz-adv-x="500" d="M330 513q-20 0 -34.5 14.5t-14.5 34.5t14.5 34t34.5 14t34 -14t14 -34t-14 -34.5t-34 -14.5zM171 513q-20 0 -34.5 14.5t-14.5 34.5t14 34t34 14t34.5 -14t14.5 -34t-14 -34.5t-34 -14.5z" />
<glyph unicode="&#xa9;" horiz-adv-x="773" d="M40 334q0 143 101.5 244.5t244.5 101.5q144 0 245.5 -101.5t101.5 -244.5q0 -144 -101.5 -245.5t-245.5 -101.5q-143 0 -244.5 101.5t-101.5 245.5zM77 334q0 -130 90.5 -222t218.5 -92t219 92t91 222t-91 221.5t-219 91.5t-218.5 -91.5t-90.5 -221.5zM215 316 q0 89 50.5 153.5t120.5 64.5q28 0 51 -9q15 -5 21 -5q12 0 41 12l35 -104l-27 -11q-19 39 -52 63.5t-67 24.5q-48 0 -77.5 -44.5t-29.5 -115.5q0 -73 32.5 -116.5t87.5 -43.5q34 0 62.5 20.5t44.5 56.5l27 -11q-22 -53 -62.5 -82.5t-91.5 -29.5q-72 0 -119 50t-47 127z" />
<glyph unicode="&#xaa;" horiz-adv-x="315" d="M114 376q-32 0 -53 18.5t-21 46.5q0 37 34 61t118 47v31q0 45 -36 45q-17 0 -25.5 -7t-16.5 -29q-10 -24 -35 -24q-13 0 -21.5 8.5t-8.5 20.5q0 25 32 42.5t77 17.5q48 0 68.5 -18.5t20.5 -62.5v-136q2 -24 6 -25q4 0 16 11l19 -17q-24 -30 -56 -30q-26 0 -36 30 q-42 -30 -82 -30zM134 411q24 0 58 23v86q-92 -31 -92 -76q0 -15 9 -24t25 -9zM40 294v41h242v-41h-242z" />
<glyph unicode="&#xab;" horiz-adv-x="389" d="M170 211v13q80 66 161 154l25 -16q-44 -76 -104 -139q45 -57 58.5 -76t42.5 -67l-21 -16q-29 30 -63 62q-11 10 -85 73zM131 126l-84 73l-14 12v13q86 72 161 154l24 -16q-43 -76 -104 -139q45 -57 59 -76t43 -67l-22 -16q-36 37 -63 62z" />
<glyph unicode="&#xac;" horiz-adv-x="500" d="M35 224v43h430v-267h-100v224h-330z" />
<glyph unicode="&#xad;" horiz-adv-x="193" d="M0 185v71h193v-71h-193z" />
<glyph unicode="&#xae;" horiz-adv-x="773" d="M40 334q0 143 101.5 244.5t244.5 101.5q144 0 245.5 -101.5t101.5 -244.5q0 -144 -101.5 -245.5t-245.5 -101.5q-143 0 -244.5 101.5t-101.5 245.5zM77 334q0 -130 90.5 -222t218.5 -92t219 92t91 222t-91 221.5t-219 91.5t-218.5 -91.5t-90.5 -221.5zM225 147v28h17 q21 0 27.5 8t6.5 33v242q0 25 -6.5 33t-27.5 8h-17v28h161q71 0 110.5 -25.5t39.5 -72.5q0 -38 -28.5 -65t-72.5 -32l66 -115q15 -26 26.5 -34t33.5 -8h12v-28h-99l-103 178h-33v-109q0 -25 6.5 -33t27.5 -8h13v-28h-160zM338 354h49q39 0 60.5 20t21.5 57q0 69 -90 69 q-25 0 -33 -7.5t-8 -30.5v-108z" />
<glyph unicode="&#xaf;" horiz-adv-x="500" d="M139 536v52h223v-52h-223z" />
<glyph unicode="&#xb0;" horiz-adv-x="300" d="M150 433q-46 0 -78 36t-32 88q0 51 32 87t78 36t78 -36t32 -87q0 -52 -32 -88t-78 -36zM150 480q23 0 37 21.5t14 55.5t-14 55t-37 21t-37 -21t-14 -55t14 -55.5t37 -21.5z" />
<glyph unicode="&#xb1;" d="M222 173v170h-182v47h182v171h51v-171h182v-47h-182v-170h-51zM40 86v47h415v-47h-415z" />
<glyph unicode="&#xb2;" horiz-adv-x="328" d="M30 256v25q33 64 114 143q46 46 62 72.5t16 55.5q0 30 -17 47.5t-46 17.5q-23 0 -39.5 -10.5t-16.5 -24.5q0 -5 8 -20q6 -10 6 -21q0 -14 -10.5 -24.5t-24.5 -10.5q-16 0 -27.5 12.5t-11.5 30.5q0 40 37 69.5t87 29.5q53 0 87.5 -28.5t34.5 -72.5q0 -35 -20 -63.5 t-78 -74.5q-42 -33 -62.5 -53.5t-40.5 -48.5h99q34 0 48.5 12.5t27.5 53.5l30 -7l-28 -110h-235z" />
<glyph unicode="&#xb3;" horiz-adv-x="328" d="M152 247q-53 0 -88.5 22.5t-35.5 56.5q0 16 11 26.5t27 10.5t26.5 -10.5t10.5 -27.5q0 -7 -1 -11q0 -2 -0.5 -5t-1 -4.5t-0.5 -2.5q0 -11 14 -18t36 -7q36 0 56.5 22t20.5 61t-20 61.5t-54 22.5q-11 0 -19 -1h-12q-20 0 -20 16q0 17 20 17h13q4 -1 12 -1q31 0 50.5 21.5 t19.5 55.5q0 65 -64 65q-18 0 -30.5 -8t-12.5 -20q0 -7 1 -11t1 -12q0 -14 -10 -23.5t-26 -9.5q-15 0 -25 10.5t-10 25.5q0 32 37.5 55.5t86.5 23.5q50 0 83.5 -26.5t33.5 -66.5q0 -31 -21 -56t-56 -38q40 -7 65.5 -36t25.5 -66q0 -49 -40.5 -80.5t-103.5 -31.5z" />
<glyph unicode="&#xb4;" horiz-adv-x="500" d="M219 493l120 121q24 25 42 25q13 0 23 -9.5t10 -22.5q0 -21 -30 -39l-136 -81z" />
<glyph unicode="&#xb5;" horiz-adv-x="448" d="M56 49q0 -38 1.5 -50t14.5 -91q5 -32 5 -49q0 -22 -11.5 -35.5t-29.5 -13.5q-16 0 -27.5 13.5t-11.5 33.5q0 17 7 61q14 75 21 174q7 77 7 183v158h77v-263q0 -74 20 -105.5t68 -31.5q62 0 116 77v323h76v-315q0 -46 8 -61.5t31 -15.5q15 0 31 10v-16l-86 -45 q-1 -1 -4 -1q-38 0 -48 64l-4 18q-54 -52 -83 -69t-65 -17q-44 0 -70.5 20.5t-42.5 67.5v-24z" />
<glyph unicode="&#xb6;" d="M110 -128h29q39 0 51.5 15t12.5 63v357q-51 0 -79 8.5t-48 28.5q-43 48 -43 139q0 100 56 150q22 20 44 27t60 7h274v-39h-23q-39 0 -51.5 -15t-12.5 -63v-600q0 -48 12.5 -63t51.5 -15h23v-39h-150v795h-51v-795h-156v39z" />
<glyph unicode="&#xb7;" horiz-adv-x="247" d="M124 157q-27 0 -45.5 18.5t-18.5 45.5q0 26 18.5 44.5t44.5 18.5q27 0 45.5 -18.5t18.5 -44.5q0 -27 -18.5 -45.5t-44.5 -18.5z" />
<glyph unicode="&#xb8;" horiz-adv-x="500" d="M167 -152q37 -17 65 -17q24 0 39.5 12.5t15.5 32.5q0 35 -39 35q-3 0 -25 -2l-10 5l36 86h27l-21 -63q16 5 28 5q29 0 48 -17.5t19 -44.5q0 -37 -31 -59t-83 -22q-42 0 -85 20z" />
<glyph unicode="&#xb9;" horiz-adv-x="328" d="M65 256v30q56 1 67 7.5t11 39.5v203q0 25 -1.5 30.5t-7.5 10.5q-14 6 -75 6v28q56 9 143 43v-316q0 -34 8 -40q15 -12 70 -12v-30h-215z" />
<glyph unicode="&#xba;" horiz-adv-x="343" d="M172 376q-55 0 -93.5 40.5t-38.5 98.5t38.5 98.5t93.5 40.5t93 -40.5t38 -98.5t-38 -98.5t-93 -40.5zM172 403q31 0 50.5 31t19.5 81t-19.5 81t-51.5 31q-31 0 -50.5 -31t-19.5 -81t19.5 -81t51.5 -31zM40 294v41h263v-41h-263z" />
<glyph unicode="&#xbb;" horiz-adv-x="389" d="M173 80q37 62 101 143q-60 63 -104 139l25 16q72 -80 161 -154v-13l-51 -42q-40 -32 -111 -105zM57 64l-21 16q29 49 42.5 68t58.5 75q-61 63 -104 139l25 16q70 -78 160 -154v-13l-51 -42q-43 -37 -110 -105z" />
<glyph unicode="&#xbc;" horiz-adv-x="723" d="M65 256v30q56 1 67 7.5t11 39.5v203q0 37 -9.5 42t-74.5 5v28q56 9 143 43v-316q0 -36 12.5 -44t65.5 -8v-30h-215zM175 0l327 640h45l-326 -640h-46zM421 90v29l177 269h31v-264h69v-34h-69v-31q0 -20 5 -24.5t27 -4.5h12v-30h-151v30h11q23 0 30 5.5t7 23.5v31h-149z M462 124h108v166z" />
<glyph unicode="&#xbd;" horiz-adv-x="723" d="M65 256v30q56 1 67 7.5t11 39.5v203q0 37 -9.5 42t-74.5 5v28q56 9 143 43v-316q0 -36 12.5 -44t65.5 -8v-30h-215zM175 0l327 640h45l-326 -640h-46zM424 0v25q34 62 114 143q46 46 62 72t16 55q0 31 -17 48.5t-46 17.5q-23 0 -39.5 -10.5t-16.5 -24.5q0 -5 8 -20 q6 -9 6 -20q0 -15 -10 -25.5t-25 -10.5q-17 0 -28 12.5t-11 32.5q0 38 37.5 67.5t86.5 29.5q53 0 87.5 -28.5t34.5 -72.5q0 -35 -20 -63t-78 -75q-44 -35 -64.5 -55.5t-38.5 -46.5h99q34 0 48.5 12.5t27.5 53.5l30 -7l-28 -110h-235z" />
<glyph unicode="&#xbe;" horiz-adv-x="723" d="M153 248q-53 0 -89 22t-36 55q0 17 11 27.5t28 10.5q16 0 26 -10.5t10 -27.5q0 -7 -1 -11l-2 -10q-1 -11 13.5 -18.5t36.5 -7.5q35 0 55.5 21.5t20.5 58.5q0 41 -19 63.5t-54 22.5q-12 0 -19 -1h-11q-21 0 -21 16q0 17 21 17q7 0 12 -1h12q31 0 50.5 21t19.5 55 q0 66 -63 66q-19 0 -31.5 -8t-12.5 -21q0 -6 1 -10t1 -11q0 -14 -10 -24t-24 -10q-16 0 -26.5 10t-10.5 25q0 32 37 56t87 24t83.5 -26.5t33.5 -65.5q0 -65 -77 -95q40 -7 65 -35.5t25 -66.5q0 -48 -40.5 -79.5t-101.5 -31.5zM175 0l327 640h46l-327 -640h-46zM421 90v29 l177 269h31v-264h69v-34h-69v-31q0 -20 5 -24.5t27 -4.5h12v-30h-151v30h11q23 0 30 5.5t7 23.5v31h-149zM462 124h108v166z" />
<glyph unicode="&#xbf;" horiz-adv-x="375" d="M225 320q-26 0 -44.5 18.5t-18.5 45.5q0 26 18.5 44.5t44.5 18.5q27 0 45.5 -18.5t18.5 -44.5q0 -27 -18.5 -45.5t-45.5 -18.5zM37 -45q0 74 46.5 124t116.5 52v116h45v-194q-64 -1 -101.5 -38t-37.5 -100q0 -44 19.5 -73t48.5 -29q13 0 20.5 4.5t27.5 24.5q22 22 43 22 q18 0 30.5 -13.5t12.5 -33.5q0 -27 -23.5 -45t-60.5 -18q-76 0 -131.5 59.5t-55.5 141.5z" />
<glyph unicode="&#xc0;" horiz-adv-x="595" d="M301 737l-151 46q-22 7 -30.5 15.5t-8.5 22.5q0 13 10 22.5t24 9.5q15 0 37 -14l146 -89zM-7 0v39q36 1 51 16t31 63l178 543l81 25l181 -568q18 -56 29.5 -66.5t56.5 -12.5v-39h-250v39h26q51 0 51 32q0 15 -10 47l-34 112h-225l-34 -112q-5 -18 -5 -28q0 -28 17 -39.5 t60 -11.5v-39h-204zM174 275h195l-93 316z" />
<glyph unicode="&#xc1;" horiz-adv-x="595" d="M292 737l-26 13l145 89q24 14 38 14t24 -9.5t10 -22.5q0 -14 -8.5 -22.5t-30.5 -15.5zM-7 0v39q36 1 51 16t31 63l178 543l81 25l181 -568q18 -56 29.5 -66.5t56.5 -12.5v-39h-250v39h26q51 0 51 32q0 15 -10 47l-34 112h-225l-34 -112q-5 -18 -5 -28q0 -28 17 -39.5 t60 -11.5v-39h-204zM174 275h195l-93 316z" />
<glyph unicode="&#xc2;" horiz-adv-x="595" d="M160 737l116 116h41l116 -116h-33l-103 62l-104 -62h-33zM-7 0v39q36 1 51 16t31 63l178 543l81 25l181 -568q18 -56 29.5 -66.5t56.5 -12.5v-39h-250v39h26q51 0 51 32q0 15 -10 47l-34 112h-225l-34 -112q-5 -18 -5 -28q0 -28 17 -39.5t60 -11.5v-39h-204zM174 275h195 l-93 316z" />
<glyph unicode="&#xc3;" horiz-adv-x="595" d="M153 753q15 47 33 67t46 20q16 0 83 -23q33 -12 51 -12q13 0 21.5 7.5t22.5 30.5l31 -10q-29 -85 -84 -85q-16 0 -54 13q-58 21 -76 21q-14 0 -23 -7t-19 -28zM-7 0v39q36 1 51 16t31 63l178 543l81 25l181 -568q18 -56 29.5 -66.5t56.5 -12.5v-39h-250v39h26q51 0 51 32 q0 15 -10 47l-34 112h-225l-34 -112q-5 -18 -5 -28q0 -28 17 -39.5t60 -11.5v-39h-204zM174 275h195l-93 316z" />
<glyph unicode="&#xc4;" horiz-adv-x="595" d="M413 747q-20 0 -34.5 14.5t-14.5 34.5t14.5 34t34.5 14q19 0 33.5 -14t14.5 -34t-14 -34.5t-34 -14.5zM183 747q-20 0 -34.5 14.5t-14.5 34.5t14 34t34 14t34.5 -14t14.5 -34t-14 -34.5t-34 -14.5zM-7 0v39q36 1 51 16t31 63l178 543l81 25l181 -568q18 -56 29.5 -66.5 t56.5 -12.5v-39h-250v39h26q51 0 51 32q0 15 -10 47l-34 112h-225l-34 -112q-5 -18 -5 -28q0 -28 17 -39.5t60 -11.5v-39h-204zM174 275h195l-93 316z" />
<glyph unicode="&#xc5;" horiz-adv-x="595" d="M297 730q-33 0 -56.5 23.5t-23.5 56.5t23.5 56.5t56.5 23.5t56.5 -23.5t23.5 -56.5t-23.5 -56.5t-56.5 -23.5zM297 772q16 0 27 11t11 27t-11 27t-27 11t-27 -11t-11 -27t11 -27t27 -11zM-7 0v39q36 1 51 16t31 63l178 543l81 25l181 -568q18 -56 29.5 -66.5t56.5 -12.5 v-39h-250v39h26q51 0 51 32q0 15 -10 47l-34 112h-225l-34 -112q-5 -18 -5 -28q0 -28 17 -39.5t60 -11.5v-39h-204zM174 275h195l-93 316z" />
<glyph unicode="&#xc6;" horiz-adv-x="985" d="M-6 0v39q35 6 53.5 20.5t49.5 58.5l334 485q8 12 8 16q0 10 -18 10h-52v38h497l59 -160l-35 -14q-47 73 -98 103.5t-125 30.5q-56 0 -73.5 -11t-17.5 -46v-208h28q76 0 106.5 23.5t36.5 87.5h37v-264h-37q-7 66 -37 90t-107 24h-27v-208q0 -50 12.5 -63.5t58.5 -13.5 q170 0 267 151l31 -13l-64 -176h-485v39h23q39 0 51.5 15t12.5 64v119h-254l-75 -119q-27 -44 -27 -56q0 -23 43 -23h36v-39h-212zM255 276h228v330z" />
<glyph unicode="&#xc7;" horiz-adv-x="605" d="M198 -137q60 -32 94 -32q22 0 36.5 12t14.5 31q0 32 -37 32q-9 0 -24 -3l-13 7l32 77q-116 7 -188.5 93t-72.5 217q0 155 84.5 269t199.5 114q46 0 85 -15q24 -9 35 -9q18 0 68 18l57 -174l-37 -15q-32 67 -90 111t-115 44q-83 0 -135 -80.5t-52 -210.5q0 -134 56.5 -213 t151.5 -79q59 0 109 37t76 99l36 -16q-32 -83 -93.5 -133t-140.5 -57l-15 -50q11 5 23 5q29 0 48.5 -18.5t19.5 -46.5q0 -37 -32 -60.5t-82 -23.5q-62 0 -117 38z" />
<glyph unicode="&#xc8;" horiz-adv-x="620" d="M163 783q-22 7 -30.5 15.5t-8.5 22.5q0 13 10 22.5t24 9.5q15 0 37 -14l146 -89l-27 -13zM30 0v39h23q39 0 51.5 15t12.5 63v433q0 48 -12.5 63t-51.5 15h-23v39h471l59 -162l-35 -12q-52 76 -101.5 105.5t-125.5 29.5q-54 0 -71 -12t-17 -49v-205h31q73 0 101 22.5 t39 88.5h38v-265h-37q-10 69 -38.5 92t-105.5 23h-28v-220q0 -41 14 -53t63 -12q83 0 141.5 33.5t120.5 116.5l31 -14l-65 -174h-485z" />
<glyph unicode="&#xc9;" horiz-adv-x="620" d="M305 737l-26 13l145 89q24 14 38 14t24 -9.5t10 -22.5q0 -14 -8.5 -22.5t-30.5 -15.5zM30 0v39h23q39 0 51.5 15t12.5 63v433q0 48 -12.5 63t-51.5 15h-23v39h471l59 -162l-35 -12q-52 76 -101.5 105.5t-125.5 29.5q-54 0 -71 -12t-17 -49v-205h31q73 0 101 22.5t39 88.5 h38v-265h-37q-10 69 -38.5 92t-105.5 23h-28v-220q0 -41 14 -53t63 -12q83 0 141.5 33.5t120.5 116.5l31 -14l-65 -174h-485z" />
<glyph unicode="&#xca;" horiz-adv-x="620" d="M173 737l116 116h41l116 -116h-33l-103 62l-104 -62h-33zM30 0v39h23q39 0 51.5 15t12.5 63v433q0 48 -12.5 63t-51.5 15h-23v39h471l59 -162l-35 -12q-52 76 -101.5 105.5t-125.5 29.5q-54 0 -71 -12t-17 -49v-205h31q73 0 101 22.5t39 88.5h38v-265h-37 q-10 69 -38.5 92t-105.5 23h-28v-220q0 -41 14 -53t63 -12q83 0 141.5 33.5t120.5 116.5l31 -14l-65 -174h-485z" />
<glyph unicode="&#xcb;" horiz-adv-x="620" d="M426 747q-20 0 -34.5 14.5t-14.5 34.5t14.5 34t34.5 14t34 -14t14 -34t-14 -34.5t-34 -14.5zM196 747q-20 0 -34.5 14.5t-14.5 34.5t14.5 34t33.5 14q20 0 34.5 -14t14.5 -34t-14 -34.5t-34 -14.5zM30 0v39h23q39 0 51.5 15t12.5 63v433q0 48 -12.5 63t-51.5 15h-23v39 h471l59 -162l-35 -12q-52 76 -101.5 105.5t-125.5 29.5q-54 0 -71 -12t-17 -49v-205h31q73 0 101 22.5t39 88.5h38v-265h-37q-10 69 -38.5 92t-105.5 23h-28v-220q0 -41 14 -53t63 -12q83 0 141.5 33.5t120.5 116.5l31 -14l-65 -174h-485z" />
<glyph unicode="&#xcc;" horiz-adv-x="327" d="M167 737l-151 46q-22 7 -30.5 15.5t-8.5 22.5q0 13 10 22.5t24 9.5q15 0 37 -14l146 -89zM29 0v39h23q39 0 51.5 15t12.5 63v433q0 48 -12.5 63t-51.5 15h-23v39h267v-39h-23q-39 0 -51.5 -15t-12.5 -63v-433q0 -48 12.5 -63t51.5 -15h23v-39h-267z" />
<glyph unicode="&#xcd;" horiz-adv-x="327" d="M159 737l-26 13l145 89q24 14 38 14t24 -9.5t10 -22.5q0 -14 -8.5 -22.5t-30.5 -15.5zM30 0v39h23q39 0 51.5 15t12.5 63v433q0 48 -12.5 63t-51.5 15h-23v39h267v-39h-23q-39 0 -51.5 -15t-12.5 -63v-433q0 -48 12.5 -63t51.5 -15h23v-39h-267z" />
<glyph unicode="&#xce;" horiz-adv-x="327" d="M27 737l116 116h41l116 -116h-33l-103 62l-104 -62h-33zM30 0v39h23q39 0 51.5 15t12.5 63v433q0 48 -12.5 63t-51.5 15h-23v39h267v-39h-23q-39 0 -51.5 -15t-12.5 -63v-433q0 -48 12.5 -63t51.5 -15h23v-39h-267z" />
<glyph unicode="&#xcf;" horiz-adv-x="327" d="M249 747q-20 0 -34.5 14.5t-14.5 34.5t14.5 34t34.5 14q19 0 33.5 -14t14.5 -34t-14 -34.5t-34 -14.5zM79 747q-20 0 -34.5 14.5t-14.5 34.5t14 34t34 14t34.5 -14t14.5 -34t-14 -34.5t-34 -14.5zM30 0v39h23q39 0 51.5 15t12.5 63v433q0 48 -12.5 63t-51.5 15h-23v39 h267v-39h-23q-39 0 -51.5 -15t-12.5 -63v-433q0 -48 12.5 -63t51.5 -15h23v-39h-267z" />
<glyph unicode="&#xd0;" horiz-adv-x="667" d="M30 0v39h23q39 0 51.5 15t12.5 63v203h-87v39h87v191q0 48 -12.5 63t-51.5 15h-23v39h225q95 0 134 -9q109 -23 173.5 -110t64.5 -212q0 -97 -42.5 -176t-116.5 -120q-74 -40 -207 -40h-231zM210 125q0 -54 14 -71t60 -17q127 0 183.5 71.5t56.5 233.5q0 152 -55 219.5 t-178 67.5q-47 0 -64 -15.5t-17 -59.5v-195h173v-39h-173v-195z" />
<glyph unicode="&#xd1;" horiz-adv-x="683" d="M197 753q15 47 33 67t46 20q16 0 83 -23q33 -12 51 -12q13 0 21.5 7.5t22.5 30.5l31 -10q-29 -85 -84 -85q-16 0 -54 13q-58 21 -76 21q-14 0 -23 -7t-19 -28zM30 0v39l23 2q34 3 49 30.5t15 85.5v432q-30 34 -87 37v41h157l339 -488v331q0 59 -14.5 85t-49.5 30l-23 3 v39h221v-39l-23 -3q-35 -4 -49.5 -30t-14.5 -85v-523h-31l-378 560v-390q0 -58 15 -85.5t49 -30.5l23 -2v-39h-221z" />
<glyph unicode="&#xd2;" horiz-adv-x="654" d="M180 783q-22 7 -30.5 15.5t-8.5 22.5q0 13 10 22.5t24 9.5q15 0 37 -14l146 -89l-27 -13zM327 -13q-120 0 -203.5 102.5t-83.5 250.5q0 138 85 239t202 101q119 0 203 -101.5t84 -244.5q0 -144 -84 -245.5t-203 -101.5zM327 24q82 0 133 85.5t51 224.5q0 138 -51 223.5 t-133 85.5t-133 -85.5t-51 -223.5q0 -139 51 -224.5t133 -85.5z" />
<glyph unicode="&#xd3;" horiz-adv-x="654" d="M322 737l-26 13l145 89q24 14 38 14t24 -9.5t10 -22.5q0 -14 -8.5 -22.5t-30.5 -15.5zM327 -13q-120 0 -203.5 102.5t-83.5 250.5q0 138 85 239t202 101q119 0 203 -101.5t84 -244.5q0 -144 -84 -245.5t-203 -101.5zM327 24q82 0 133 85.5t51 224.5q0 138 -51 223.5 t-133 85.5t-133 -85.5t-51 -223.5q0 -139 51 -224.5t133 -85.5z" />
<glyph unicode="&#xd4;" horiz-adv-x="654" d="M190 737l116 116h41l116 -116h-33l-103 62l-104 -62h-33zM327 -13q-120 0 -203.5 102.5t-83.5 250.5q0 138 85 239t202 101q119 0 203 -101.5t84 -244.5q0 -144 -84 -245.5t-203 -101.5zM327 24q82 0 133 85.5t51 224.5q0 138 -51 223.5t-133 85.5t-133 -85.5t-51 -223.5 q0 -139 51 -224.5t133 -85.5z" />
<glyph unicode="&#xd5;" horiz-adv-x="654" d="M183 753q15 47 33 67t46 20q16 0 83 -23q33 -12 51 -12q13 0 21.5 7.5t22.5 30.5l31 -10q-29 -85 -84 -85q-16 0 -54 13q-58 21 -76 21q-14 0 -23 -7t-19 -28zM327 -13q-120 0 -203.5 102.5t-83.5 250.5q0 138 85 239t202 101q119 0 203 -101.5t84 -244.5 q0 -144 -84 -245.5t-203 -101.5zM327 24q82 0 133 85.5t51 224.5q0 138 -51 223.5t-133 85.5t-133 -85.5t-51 -223.5q0 -139 51 -224.5t133 -85.5z" />
<glyph unicode="&#xd6;" horiz-adv-x="654" d="M443 747q-20 0 -34.5 14.5t-14.5 34.5t14.5 34t34.5 14q19 0 33.5 -14t14.5 -34t-14 -34.5t-34 -14.5zM213 747q-20 0 -34.5 14.5t-14.5 34.5t14 34t34 14t34.5 -14t14.5 -34t-14 -34.5t-34 -14.5zM327 -13q-120 0 -203.5 102.5t-83.5 250.5q0 138 85 239t202 101 q119 0 203 -101.5t84 -244.5q0 -144 -84 -245.5t-203 -101.5zM327 24q82 0 133 85.5t51 224.5q0 138 -51 223.5t-133 85.5t-133 -85.5t-51 -223.5q0 -139 51 -224.5t133 -85.5z" />
<glyph unicode="&#xd7;" d="M99 142l-33 33l148 148l-148 149l33 33l148 -149l149 149l33 -33l-149 -149l149 -148l-33 -33l-149 148z" />
<glyph unicode="&#xd8;" horiz-adv-x="655" d="M113 -17l41 73q-54 52 -84 125t-30 152q0 144 84 245.5t203 101.5q78 0 150 -50l32 57l33 -18l-36 -64q51 -50 80 -121.5t29 -149.5q0 -144 -84 -245.5t-203 -101.5q-76 0 -144 45l-39 -68zM189 119l258 458q-48 66 -120 66q-82 0 -133 -85.5t-51 -223.5q0 -133 46 -215z M212 83q47 -59 116 -59q82 0 133 85.5t51 223.5q0 123 -42 207z" />
<glyph unicode="&#xd9;" horiz-adv-x="700" d="M203 783q-22 7 -30.5 15.5t-8.5 22.5q0 13 10 22.5t24 9.5q15 0 37 -14l146 -89l-27 -13zM117 203v44v303q0 49 -12 63.5t-51 14.5h-24v39h267v-39h-23q-38 0 -51 -15.5t-13 -62.5v-305q0 -65 4.5 -91.5t18.5 -51.5q44 -73 134 -73q55 0 95.5 25t57.5 69q16 43 16 138 v249q0 57 -15 84t-49 31l-23 3v39h221v-39l-22 -3q-65 -9 -65 -112v-252q0 -124 -31 -178q-55 -97 -201 -97q-112 0 -173 56.5t-61 160.5z" />
<glyph unicode="&#xda;" horiz-adv-x="700" d="M345 737l-26 13l145 89q24 14 38 14t24 -9.5t10 -22.5q0 -14 -8.5 -22.5t-30.5 -15.5zM117 203v44v303q0 49 -12 63.5t-51 14.5h-24v39h267v-39h-23q-38 0 -51 -15.5t-13 -62.5v-305q0 -65 4.5 -91.5t18.5 -51.5q44 -73 134 -73q55 0 95.5 25t57.5 69q16 43 16 138v249 q0 57 -15 84t-49 31l-23 3v39h221v-39l-22 -3q-65 -9 -65 -112v-252q0 -124 -31 -178q-55 -97 -201 -97q-112 0 -173 56.5t-61 160.5z" />
<glyph unicode="&#xdb;" horiz-adv-x="700" d="M213 737l116 116h41l116 -116h-33l-103 62l-104 -62h-33zM117 203v44v303q0 49 -12 63.5t-51 14.5h-24v39h267v-39h-23q-38 0 -51 -15.5t-13 -62.5v-305q0 -65 4.5 -91.5t18.5 -51.5q44 -73 134 -73q55 0 95.5 25t57.5 69q16 43 16 138v249q0 57 -15 84t-49 31l-23 3v39 h221v-39l-22 -3q-65 -9 -65 -112v-252q0 -124 -31 -178q-55 -97 -201 -97q-112 0 -173 56.5t-61 160.5z" />
<glyph unicode="&#xdc;" horiz-adv-x="700" d="M466 747q-20 0 -34.5 14.5t-14.5 34.5t14.5 34t34.5 14t34 -14t14 -34t-14 -34.5t-34 -14.5zM236 747q-20 0 -34.5 14.5t-14.5 34.5t14.5 34t33.5 14q20 0 34.5 -14t14.5 -34t-14 -34.5t-34 -14.5zM117 203v44v303q0 49 -12 63.5t-51 14.5h-24v39h267v-39h-23 q-38 0 -51 -15.5t-13 -62.5v-305q0 -65 4.5 -91.5t18.5 -51.5q44 -73 134 -73q55 0 95.5 25t57.5 69q16 43 16 138v249q0 57 -15 84t-49 31l-23 3v39h221v-39l-22 -3q-65 -9 -65 -112v-252q0 -124 -31 -178q-55 -97 -201 -97q-112 0 -173 56.5t-61 160.5z" />
<glyph unicode="&#xdd;" horiz-adv-x="540" d="M265 737l-26 13l145 89q24 14 38 14t24 -9.5t10 -22.5q0 -14 -8.5 -22.5t-30.5 -15.5zM132 0v39h23q39 0 51.5 15t12.5 63v156l-164 327q-9 17 -19 22.5t-37 5.5h-6v39h234v-39h-20q-37 0 -44 -3t-7 -16q0 -6 26 -59l108 -219l105 219q15 32 15 45q0 18 -14 25.5t-47 7.5 h-8v39h205v-39q-42 -4 -55 -14.5t-41 -63.5l-138 -265v-168q0 -48 12.5 -63t51.5 -15h23v-39h-267z" />
<glyph unicode="&#xde;" horiz-adv-x="574" d="M30 0v39h23q39 0 51.5 15t12.5 63v433q0 48 -12.5 63t-51.5 15h-23v39h273v-39h-29q-39 0 -51.5 -15t-12.5 -63v-33h62q72 0 112.5 -7.5t72.5 -27.5q87 -52 87 -148q0 -58 -33 -100.5t-92 -60.5q-48 -15 -121 -15h-68l-20 -1v-40q0 -48 12.5 -63t51.5 -15h29v-39h-273z M210 198h13l7 -1h43q52 0 75.5 5t45.5 21q47 32 47 112q0 145 -142 145q-55 0 -72 -13.5t-17 -56.5v-212z" />
<glyph unicode="&#xdf;" horiz-adv-x="507" d="M33 0v37q37 -1 47 10t10 51v367q0 84 23 130q19 39 61.5 62t94.5 23q73 0 120.5 -45t47.5 -114q0 -59 -32 -96t-91 -47q74 -13 113 -64t39 -135q0 -92 -39.5 -142t-112.5 -50q-44 0 -73 23.5t-29 59.5q0 23 15 39t37 16q19 0 32 -13t13 -31q0 -21 -16 -38q-6 -7 -6 -12 q0 -15 22 -15q36 0 52.5 37.5t16.5 119.5q0 105 -27 146.5t-94 40.5q-14 0 -19 3t-5 13q0 22 26 22q4 0 20 -1q35 -2 57 29t22 85q0 135 -98 135q-50 0 -71.5 -36t-21.5 -121v-489h-134z" />
<glyph unicode="&#xe0;" horiz-adv-x="433" d="M218 487l-136 81q-30 18 -30 39q0 13 10 22.5t23 9.5q18 0 42 -25l120 -121zM35 92q0 86 123 139q32 14 119 39v57q0 81 -63 81q-28 0 -42.5 -13t-28.5 -51q-15 -37 -50 -37q-18 0 -30.5 12.5t-12.5 30.5q0 40 49.5 68t118.5 28q84 0 117 -44q12 -16 15.5 -32t3.5 -54 v-232q0 -31 2.5 -39.5t11.5 -8.5t27 17l22 -21q-36 -45 -81 -45t-55 56q-72 -56 -133 -56q-49 0 -81 30t-32 75zM120 96q0 -28 15.5 -45t41.5 -17q42 0 100 43v156q-157 -53 -157 -137z" />
<glyph unicode="&#xe1;" horiz-adv-x="433" d="M186 493l120 121q24 25 42 25q13 0 23 -9.5t10 -22.5q0 -21 -30 -39l-136 -81zM35 92q0 86 123 139q32 14 119 39v57q0 81 -63 81q-28 0 -42.5 -13t-28.5 -51q-15 -37 -50 -37q-18 0 -30.5 12.5t-12.5 30.5q0 40 49.5 68t118.5 28q84 0 117 -44q12 -16 15.5 -32t3.5 -54 v-232q0 -31 2.5 -39.5t11.5 -8.5t27 17l22 -21q-36 -45 -81 -45t-55 56q-72 -56 -133 -56q-49 0 -81 30t-32 75zM120 96q0 -28 15.5 -45t41.5 -17q42 0 100 43v156q-157 -53 -157 -137z" />
<glyph unicode="&#xe2;" horiz-adv-x="433" d="M91 487l105 150h41l105 -150h-33l-92 96l-92 -96h-34zM35 92q0 86 123 139q32 14 119 39v57q0 81 -63 81q-28 0 -42.5 -13t-28.5 -51q-15 -37 -50 -37q-18 0 -30.5 12.5t-12.5 30.5q0 40 49.5 68t118.5 28q84 0 117 -44q12 -16 15.5 -32t3.5 -54v-232q0 -31 2.5 -39.5 t11.5 -8.5t27 17l22 -21q-36 -45 -81 -45t-55 56q-72 -56 -133 -56q-49 0 -81 30t-32 75zM120 96q0 -28 15.5 -45t41.5 -17q42 0 100 43v156q-157 -53 -157 -137z" />
<glyph unicode="&#xe3;" horiz-adv-x="433" d="M118 513l-32 11q15 50 31 71t39 21q13 0 60 -22q52 -26 64 -26t18.5 7t13.5 30l2 6l32 -11q-15 -50 -31 -71t-39 -21q-15 0 -60 22q-51 26 -64 26q-12 0 -18.5 -7t-13.5 -30zM35 92q0 86 123 139q32 14 119 39v57q0 81 -63 81q-28 0 -42.5 -13t-28.5 -51q-15 -37 -50 -37 q-18 0 -30.5 12.5t-12.5 30.5q0 40 49.5 68t118.5 28q84 0 117 -44q12 -16 15.5 -32t3.5 -54v-232q0 -31 2.5 -39.5t11.5 -8.5t27 17l22 -21q-36 -45 -81 -45t-55 56q-72 -56 -133 -56q-49 0 -81 30t-32 75zM120 96q0 -28 15.5 -45t41.5 -17q42 0 100 43v156 q-157 -53 -157 -137z" />
<glyph unicode="&#xe4;" horiz-adv-x="433" d="M296 513q-20 0 -34.5 14.5t-14.5 34.5t14.5 34t34.5 14t34 -14t14 -34t-14 -34.5t-34 -14.5zM137 513q-20 0 -34.5 14.5t-14.5 34.5t14 34t34 14t34.5 -14t14.5 -34t-14 -34.5t-34 -14.5zM35 92q0 86 123 139q32 14 119 39v57q0 81 -63 81q-28 0 -42.5 -13t-28.5 -51 q-15 -37 -50 -37q-18 0 -30.5 12.5t-12.5 30.5q0 40 49.5 68t118.5 28q84 0 117 -44q12 -16 15.5 -32t3.5 -54v-232q0 -31 2.5 -39.5t11.5 -8.5t27 17l22 -21q-36 -45 -81 -45t-55 56q-72 -56 -133 -56q-49 0 -81 30t-32 75zM120 96q0 -28 15.5 -45t41.5 -17q42 0 100 43 v156q-157 -53 -157 -137z" />
<glyph unicode="&#xe5;" horiz-adv-x="433" d="M216 514q-33 0 -56.5 23.5t-23.5 56.5t23.5 56.5t56.5 23.5t56.5 -23.5t23.5 -56.5t-23.5 -56.5t-56.5 -23.5zM216 549q19 0 32 13t13 32t-13 32t-32 13t-32 -13t-13 -32t13 -32t32 -13zM35 92q0 86 123 139q32 14 119 39v57q0 81 -63 81q-28 0 -42.5 -13t-28.5 -51 q-15 -37 -50 -37q-18 0 -30.5 12.5t-12.5 30.5q0 40 49.5 68t118.5 28q84 0 117 -44q12 -16 15.5 -32t3.5 -54v-232q0 -31 2.5 -39.5t11.5 -8.5t27 17l22 -21q-36 -45 -81 -45t-55 56q-72 -56 -133 -56q-49 0 -81 30t-32 75zM120 96q0 -28 15.5 -45t41.5 -17q42 0 100 43 v156q-157 -53 -157 -137z" />
<glyph unicode="&#xe6;" horiz-adv-x="713" d="M35 94q0 58 59 100.5t184 75.5q1 34 1 54q0 85 -65 85q-26 0 -41 -12.5t-26 -43.5q-17 -47 -52 -47q-19 0 -32 13t-13 32q0 38 49 67t114 29q55 0 85.5 -15t49.5 -50q61 65 138 65q76 0 129.5 -59.5t58.5 -149.5h-313v-21q0 -81 41.5 -130.5t109.5 -49.5q74 0 143 76 l25 -19q-70 -107 -193 -107q-58 0 -97.5 20t-73.5 66q-50 -49 -86 -67.5t-78 -18.5q-51 0 -84 30t-33 77zM368 278h217q-10 134 -102 134q-46 0 -78 -37.5t-37 -96.5zM122 94q0 -27 16 -43.5t42 -16.5q57 0 123 61q-25 54 -25 118v20q-76 -24 -116 -60t-40 -79z" />
<glyph unicode="&#xe7;" horiz-adv-x="427" d="M176 -86l31 74q-76 11 -122.5 69.5t-46.5 144.5q0 100 64 172t152 72q55 0 98 -28t43 -63q0 -18 -14 -31t-34 -13q-33 0 -48 41q-12 32 -27.5 44.5t-42.5 12.5q-46 0 -75.5 -50t-29.5 -127q0 -88 35.5 -140t95.5 -52q70 0 124 80l31 -19q-68 -111 -176 -115l-16 -49 q16 5 28 5q29 0 48 -17.5t19 -44.5q0 -37 -31 -59t-83 -22q-44 0 -85 19l16 30q37 -17 65 -17q24 0 39.5 12.5t15.5 32.5q0 35 -39 35q-9 0 -25 -3z" />
<glyph unicode="&#xe8;" horiz-adv-x="472" d="M251 487l-136 81q-30 18 -30 39q0 13 10 22.5t23 9.5q18 0 42 -25l120 -121zM38 201q0 100 62.5 173t148.5 73q77 0 127 -56t58 -153h-311q-1 -97 37.5 -147.5t112.5 -50.5t141 73l25 -20q-76 -106 -196 -106q-89 0 -147 60.5t-58 153.5zM129 278h218q-11 135 -102 135 q-45 0 -76 -36t-40 -99z" />
<glyph unicode="&#xe9;" horiz-adv-x="472" d="M219 493l120 121q24 25 42 25q13 0 23 -9.5t10 -22.5q0 -21 -30 -39l-136 -81zM38 201q0 100 62.5 173t148.5 73q77 0 127 -56t58 -153h-311q-1 -97 37.5 -147.5t112.5 -50.5t141 73l25 -20q-76 -106 -196 -106q-89 0 -147 60.5t-58 153.5zM129 278h218q-11 135 -102 135 q-45 0 -76 -36t-40 -99z" />
<glyph unicode="&#xea;" horiz-adv-x="472" d="M124 487l105 150h41l105 -150h-33l-92 96l-92 -96h-34zM38 201q0 100 62.5 173t148.5 73q77 0 127 -56t58 -153h-311q-1 -97 37.5 -147.5t112.5 -50.5t141 73l25 -20q-76 -106 -196 -106q-89 0 -147 60.5t-58 153.5zM129 278h218q-11 135 -102 135q-45 0 -76 -36t-40 -99 z" />
<glyph unicode="&#xeb;" horiz-adv-x="472" d="M329 513q-20 0 -34.5 14.5t-14.5 34.5t14.5 34t34.5 14q19 0 33.5 -14t14.5 -34t-14 -34.5t-34 -14.5zM170 513q-20 0 -34.5 14.5t-14.5 34.5t14.5 34t33.5 14q20 0 34.5 -14t14.5 -34t-14 -34.5t-34 -14.5zM38 201q0 100 62.5 173t148.5 73q77 0 127 -56t58 -153h-311 q-1 -97 37.5 -147.5t112.5 -50.5t141 73l25 -20q-76 -106 -196 -106q-89 0 -147 60.5t-58 153.5zM129 278h218q-11 135 -102 135q-45 0 -76 -36t-40 -99z" />
<glyph unicode="&#xec;" horiz-adv-x="250" d="M126 487l-136 81q-30 18 -30 39q0 13 10 22.5t23 9.5q18 0 42 -25l120 -121zM31 0v37q42 -1 52.5 10t10.5 54v212q0 40 -10.5 51.5t-52.5 16.5v28l140 44v-352q0 -42 10 -53.5t47 -10.5v-37h-197z" />
<glyph unicode="&#xed;" horiz-adv-x="250" d="M95 493l120 121q24 25 42 25q13 0 23 -9.5t10 -22.5q0 -21 -30 -39l-136 -81zM31 0v37q42 -1 52.5 10t10.5 54v212q0 40 -10.5 51.5t-52.5 16.5v28l140 44v-352q0 -42 10 -53.5t47 -10.5v-37h-197z" />
<glyph unicode="&#xee;" horiz-adv-x="250" d="M0 487l105 150h41l105 -150h-33l-92 96l-92 -96h-34zM31 0v37q42 -1 52.5 10t10.5 54v212q0 40 -10.5 51.5t-52.5 16.5v28l140 44v-352q0 -42 10 -53.5t47 -10.5v-37h-197z" />
<glyph unicode="&#xef;" horiz-adv-x="250" d="M190 513q-20 0 -34 14t-14 34t14 33.5t34 13.5t33.5 -14t13.5 -33q0 -20 -13.5 -34t-33.5 -14zM64 513q-20 0 -34 14t-14 34t14 33.5t34 13.5t33.5 -14t13.5 -33q0 -20 -13.5 -34t-33.5 -14zM31 0v37q42 -1 52.5 10t10.5 54v212q0 40 -10.5 51.5t-52.5 16.5v28l140 44 v-352q0 -42 10 -53.5t47 -10.5v-37h-197z" />
<glyph unicode="&#xf0;" horiz-adv-x="483" d="M38 216q0 96 59.5 163t144.5 67q17 0 40 -4l-53 103l-73 -42l-18 32l74 42l-40 78l35 19l46 -74l78 43l18 -31l-77 -43l119 -193q54 -86 54 -162q0 -94 -59.5 -160.5t-143.5 -66.5q-85 0 -144.5 67t-59.5 162zM242 21q52 0 84 54t32 142q0 87 -32 141t-84 54t-84.5 -54 t-32.5 -141q0 -88 32.5 -142t84.5 -54z" />
<glyph unicode="&#xf1;" horiz-adv-x="503" d="M154 513l-32 11q15 50 31 71t39 21q13 0 60 -22q52 -26 64 -26t18.5 7t13.5 30l2 6l32 -11q-15 -50 -31 -71t-39 -21q-15 0 -60 22q-51 26 -64 26q-12 0 -18.5 -7t-13.5 -30zM31 0v37q42 -1 52.5 9t10.5 51v216q0 41 -10.5 52.5t-52.5 16.5v27l140 44v-76q70 70 137 70 q65 0 97 -53q19 -31 19 -101v-196q0 -39 10 -50t47 -10v-37h-191v37q37 -1 47 10t10 50v187q0 58 -16.5 84t-53.5 26q-47 0 -106 -58v-239q0 -39 10 -50t47 -10v-37h-197z" />
<glyph unicode="&#xf2;" horiz-adv-x="483" d="M243 487l-136 81q-30 18 -30 39q0 13 10 22.5t23 9.5q18 0 42 -25l120 -121zM38 217q0 95 59.5 162t144.5 67t144 -67t59 -162q0 -96 -59 -163t-144 -67t-144.5 67t-59.5 163zM242 21q52 0 84 54t32 142q0 87 -32 141t-84 54t-84.5 -54t-32.5 -141q0 -88 32.5 -142 t84.5 -54z" />
<glyph unicode="&#xf3;" horiz-adv-x="483" d="M211 493l120 121q24 25 42 25q13 0 23 -9.5t10 -22.5q0 -21 -30 -39l-136 -81zM38 217q0 95 59.5 162t144.5 67t144 -67t59 -162q0 -96 -59 -163t-144 -67t-144.5 67t-59.5 163zM242 21q52 0 84 54t32 142q0 87 -32 141t-84 54t-84.5 -54t-32.5 -141q0 -88 32.5 -142 t84.5 -54z" />
<glyph unicode="&#xf4;" horiz-adv-x="483" d="M116 487l105 150h41l105 -150h-33l-92 96l-92 -96h-34zM38 217q0 95 59.5 162t144.5 67t144 -67t59 -162q0 -96 -59 -163t-144 -67t-144.5 67t-59.5 163zM242 21q52 0 84 54t32 142q0 87 -32 141t-84 54t-84.5 -54t-32.5 -141q0 -88 32.5 -142t84.5 -54z" />
<glyph unicode="&#xf5;" horiz-adv-x="483" d="M143 513l-32 11q15 50 31 71t39 21q13 0 60 -22q52 -26 64 -26t18.5 7t13.5 30l2 6l32 -11q-15 -50 -31 -71t-39 -21q-15 0 -60 22q-51 26 -64 26q-12 0 -18.5 -7t-13.5 -30zM38 217q0 95 59.5 162t144.5 67t144 -67t59 -162q0 -96 -59 -163t-144 -67t-144.5 67 t-59.5 163zM242 21q52 0 84 54t32 142q0 87 -32 141t-84 54t-84.5 -54t-32.5 -141q0 -88 32.5 -142t84.5 -54z" />
<glyph unicode="&#xf6;" horiz-adv-x="483" d="M321 513q-20 0 -34.5 14.5t-14.5 34.5t14.5 34t34.5 14q19 0 33.5 -14t14.5 -34t-14 -34.5t-34 -14.5zM162 513q-20 0 -34.5 14.5t-14.5 34.5t14.5 34t33.5 14q20 0 34.5 -14t14.5 -34t-14 -34.5t-34 -14.5zM38 217q0 95 59.5 162t144.5 67t144 -67t59 -162 q0 -96 -59 -163t-144 -67t-144.5 67t-59.5 163zM242 21q52 0 84 54t32 142q0 87 -32 141t-84 54t-84.5 -54t-32.5 -141q0 -88 32.5 -142t84.5 -54z" />
<glyph unicode="&#xf7;" d="M247 441q-17 0 -29.5 12.5t-12.5 29.5t12.5 29.5t29.5 12.5t29.5 -12.5t12.5 -29.5t-12.5 -29.5t-29.5 -12.5zM40 300v47h415v-47h-415zM205 163q0 17 12.5 29.5t29.5 12.5t29.5 -12.5t12.5 -29.5t-12.5 -29.5t-29.5 -12.5t-29.5 12.5t-12.5 29.5z" />
<glyph unicode="&#xf8;" horiz-adv-x="483" d="M83 -33l37 65q-37 30 -59.5 80t-22.5 104q0 96 59.5 163t144.5 67q52 0 94 -26l35 63l29 -16l-37 -67q82 -69 82 -183q0 -96 -59 -163t-144 -67q-52 0 -95 26l-35 -63zM150 87l162 291q-29 34 -68 34q-54 0 -86.5 -53.5t-32.5 -142.5q0 -74 25 -129zM171 55 q29 -34 68 -34q54 0 86.5 53.5t32.5 142.5q0 77 -25 129z" />
<glyph unicode="&#xf9;" horiz-adv-x="497" d="M250 487l-136 81q-30 18 -30 39q0 13 10 22.5t23 9.5q18 0 42 -25l120 -121zM100 42q-9 19 -11 40t-2 80v151q0 40 -10.5 51.5t-52.5 17.5v27l140 44v-291q0 -62 10 -82q15 -33 57 -33q48 0 109 60v206q0 40 -10.5 51.5t-52.5 17.5v27l140 44v-356q0 -41 10 -52.5 t47 -11.5v-33l-134 -9v72q-68 -76 -139 -76q-33 0 -62 15.5t-39 39.5z" />
<glyph unicode="&#xfa;" horiz-adv-x="497" d="M218 493l120 121q24 25 42 25q13 0 23 -9.5t10 -22.5q0 -21 -30 -39l-136 -81zM100 42q-9 19 -11 40t-2 80v151q0 40 -10.5 51.5t-52.5 17.5v27l140 44v-291q0 -62 10 -82q15 -33 57 -33q48 0 109 60v206q0 40 -10.5 51.5t-52.5 17.5v27l140 44v-356q0 -41 10 -52.5 t47 -11.5v-33l-134 -9v72q-68 -76 -139 -76q-33 0 -62 15.5t-39 39.5z" />
<glyph unicode="&#xfb;" horiz-adv-x="497" d="M123 487l105 150h41l105 -150h-33l-92 96l-92 -96h-34zM100 42q-9 19 -11 40t-2 80v151q0 40 -10.5 51.5t-52.5 17.5v27l140 44v-291q0 -62 10 -82q15 -33 57 -33q48 0 109 60v206q0 40 -10.5 51.5t-52.5 17.5v27l140 44v-356q0 -41 10 -52.5t47 -11.5v-33l-134 -9v72 q-68 -76 -139 -76q-33 0 -62 15.5t-39 39.5z" />
<glyph unicode="&#xfc;" horiz-adv-x="497" d="M328 513q-20 0 -34.5 14.5t-14.5 34.5t14.5 34t34.5 14t34 -14t14 -34t-14 -34.5t-34 -14.5zM169 513q-20 0 -34.5 14.5t-14.5 34.5t14 34t34 14t34.5 -14t14.5 -34t-14 -34.5t-34 -14.5zM100 42q-9 19 -11 40t-2 80v151q0 40 -10.5 51.5t-52.5 17.5v27l140 44v-291 q0 -62 10 -82q15 -33 57 -33q48 0 109 60v206q0 40 -10.5 51.5t-52.5 17.5v27l140 44v-356q0 -41 10 -52.5t47 -11.5v-33l-134 -9v72q-68 -76 -139 -76q-33 0 -62 15.5t-39 39.5z" />
<glyph unicode="&#xfd;" horiz-adv-x="434" d="M186 493l120 121q24 25 42 25q13 0 22.5 -9.5t9.5 -22.5q0 -21 -29 -39l-136 -81zM62 -78q20 0 39 -15q18 -13 26 -13q28 2 50 63l15 43l-136 365q-8 20 -19.5 26t-43.5 5v37h200v-37q-14 0 -18 -1q-38 -1 -38 -26q0 -9 9 -33l88 -245l86 245q7 21 7 27q0 18 -14.5 25 t-50.5 8v37h178v-37q-30 1 -45 -11.5t-29 -48.5l-141 -370q-31 -82 -62.5 -113t-81.5 -31q-28 0 -46 15.5t-18 40.5q0 19 13 31.5t32 12.5z" />
<glyph unicode="&#xfe;" horiz-adv-x="499" d="M94 -69v603q0 41 -10.5 52.5t-52.5 15.5v28l140 43v-277q54 50 114 50q74 0 125 -66.5t51 -163.5q0 -96 -51.5 -163t-124.5 -67q-60 0 -114 50v-105q0 -41 10.5 -51.5t52.5 -9.5v-37h-203v37q41 -1 52 9.5t11 51.5zM171 79q46 -42 91 -42q54 0 83 45.5t29 130.5 q0 186 -111 186q-53 0 -92 -50v-270z" />
<glyph unicode="&#xff;" horiz-adv-x="434" d="M297 513q-20 0 -34.5 14.5t-14.5 34.5t14.5 34t34.5 14q19 0 33.5 -14t14.5 -34t-14 -34.5t-34 -14.5zM138 513q-20 0 -34.5 14.5t-14.5 34.5t14.5 34t33.5 14q20 0 34.5 -14t14.5 -34t-14 -34.5t-34 -14.5zM62 -78q20 0 39 -15q18 -13 26 -13q28 2 50 63l15 43l-136 365 q-8 20 -19.5 26t-43.5 5v37h200v-37q-14 0 -18 -1q-38 -1 -38 -26q0 -9 9 -33l88 -245l86 245q7 21 7 27q0 18 -14.5 25t-50.5 8v37h178v-37q-30 1 -45 -11.5t-29 -48.5l-141 -370q-31 -82 -62.5 -113t-81.5 -31q-28 0 -46 15.5t-18 40.5q0 19 13 31.5t32 12.5z" />
<glyph unicode="&#x152;" horiz-adv-x="965" d="M133 88q-93 99 -93 244q0 89 36 163.5t101 120.5q72 51 185 51h481l59 -157l-34 -17q-49 75 -97.5 106t-117.5 31q-52 0 -68 -12t-16 -50v-207h35q123 0 129 111h38v-263h-38q-8 64 -37.5 89.5t-93.5 25.5h-33v-214q0 -46 13 -59.5t58 -13.5q85 0 143.5 34t108.5 114 l34 -11l-65 -174h-501q-145 0 -227 88zM357 40q67 0 93 29t26 102v315q0 83 -27 111.5t-104 28.5q-103 0 -149 -69q-53 -82 -53 -224q0 -151 52 -222t162 -71z" />
<glyph unicode="&#x153;" horiz-adv-x="784" d="M38 215q0 97 60.5 164.5t146.5 67.5q108 0 157 -95q52 95 157 95q78 0 132 -59.5t58 -149.5h-306q0 -7 -0.5 -16t-0.5 -11q0 -76 39 -123.5t102 -47.5q77 0 141 79l27 -24q-74 -108 -195 -108q-110 0 -163 86q-53 -86 -149 -86q-89 0 -147.5 65t-58.5 163zM447 278h208 q-1 3 -1 7q-12 128 -99 128q-83 0 -108 -135zM239 23q51 0 82.5 56t31.5 147q0 187 -109 187q-52 0 -85.5 -54.5t-33.5 -140.5t32 -140.5t82 -54.5z" />
<glyph unicode="&#x178;" horiz-adv-x="540" d="M385 747q-20 0 -34.5 14.5t-14.5 34.5t14.5 34t34.5 14q19 0 33.5 -14t14.5 -34t-14 -34.5t-34 -14.5zM155 747q-20 0 -34.5 14.5t-14.5 34.5t14 34t34 14t34.5 -14t14.5 -34t-14 -34.5t-34 -14.5zM132 0v39h23q39 0 51.5 15t12.5 63v156l-164 327q-9 17 -19 22.5 t-37 5.5h-6v39h234v-39h-20q-37 0 -44 -3t-7 -16q0 -6 26 -59l108 -219l105 219q15 32 15 45q0 18 -14 25.5t-47 7.5h-8v39h205v-39q-42 -4 -55 -14.5t-41 -63.5l-138 -265v-168q0 -48 12.5 -63t51.5 -15h23v-39h-267z" />
<glyph unicode="&#x2c6;" horiz-adv-x="500" d="M125 487l105 150h41l105 -150h-33l-92 96l-92 -96h-34z" />
<glyph unicode="&#x2dc;" horiz-adv-x="500" d="M152 513l-32 11q15 50 31 71t39 21q13 0 60 -22q52 -26 64 -26t18.5 7t13.5 30l2 6l32 -11q-15 -50 -31 -71t-39 -21q-15 0 -60 22q-51 26 -64 26q-12 0 -18.5 -7t-13.5 -30z" />
<glyph unicode="&#x2000;" horiz-adv-x="445" />
<glyph unicode="&#x2001;" horiz-adv-x="890" />
<glyph unicode="&#x2002;" horiz-adv-x="445" />
<glyph unicode="&#x2003;" horiz-adv-x="890" />
<glyph unicode="&#x2004;" horiz-adv-x="296" />
<glyph unicode="&#x2005;" horiz-adv-x="222" />
<glyph unicode="&#x2006;" horiz-adv-x="148" />
<glyph unicode="&#x2007;" horiz-adv-x="148" />
<glyph unicode="&#x2008;" horiz-adv-x="111" />
<glyph unicode="&#x2009;" horiz-adv-x="178" />
<glyph unicode="&#x200a;" horiz-adv-x="49" />
<glyph unicode="&#x2010;" horiz-adv-x="193" d="M0 185v71h193v-71h-193z" />
<glyph unicode="&#x2011;" horiz-adv-x="193" d="M0 185v71h193v-71h-193z" />
<glyph unicode="&#x2013;" d="M41 193v55h413v-55h-413z" />
<glyph unicode="&#x2014;" horiz-adv-x="580" d="M0 193v55h580v-55h-580z" />
<glyph unicode="&#x2018;" horiz-adv-x="247" d="M124 422q-28 0 -46 21t-18 54q0 40 25 82.5t84 100.5l24 -25l-40 -47q-23 -30 -23 -48q0 -14 20 -27q33 -20 33 -55q0 -24 -17 -40t-42 -16z" />
<glyph unicode="&#x2019;" horiz-adv-x="247" d="M77 422l-24 25l40 47q23 30 23 48q0 15 -20 27q-32 20 -32 55q0 24 17 40t42 16q28 0 45.5 -21t17.5 -54q0 -41 -25 -83.5t-84 -99.5z" />
<glyph unicode="&#x201a;" horiz-adv-x="247" d="M64 58q0 24 17 40t42 16q28 0 45.5 -21t17.5 -54q0 -41 -25 -83t-84 -100l-24 25l40 47q23 30 23 48q0 15 -20 27q-32 20 -32 55z" />
<glyph unicode="&#x201c;" horiz-adv-x="403" d="M280 422q-28 0 -45.5 21t-17.5 54q0 41 25 83t84 100l24 -25l-40 -47q-23 -30 -23 -48q0 -15 20 -27q32 -20 32 -55q0 -24 -17 -40t-42 -16zM124 422q-28 0 -46 21t-18 54q0 40 25 82.5t84 100.5l24 -25l-40 -47q-23 -30 -23 -48q0 -14 20 -27q33 -20 33 -55 q0 -24 -17 -40t-42 -16z" />
<glyph unicode="&#x201d;" horiz-adv-x="403" d="M234 422l-24 25l40 47q23 30 23 48q0 14 -20 27q-33 20 -33 55q0 24 17 40t42 16q28 0 46 -21t18 -54q0 -40 -25 -82.5t-84 -100.5zM77 422l-24 25l40 47q23 30 23 48q0 15 -20 27q-32 20 -32 55q0 24 17 40t42 16q28 0 45.5 -21t17.5 -54q0 -41 -25 -83.5t-84 -99.5z " />
<glyph unicode="&#x201e;" horiz-adv-x="403" d="M220 58q0 24 17 40t42 16q28 0 46 -21t18 -54q0 -40 -25 -82t-84 -101l-24 25l40 47q23 30 23 48q0 14 -20 27q-33 20 -33 55zM64 58q0 24 17 40t42 16q28 0 45.5 -21t17.5 -54q0 -41 -25 -83t-84 -100l-24 25l40 47q23 30 23 48q0 15 -20 27q-32 20 -32 55z" />
<glyph unicode="&#x2022;" horiz-adv-x="667" d="M336 200q-58 0 -99 40.5t-41 98.5q0 57 41 97.5t99 40.5q56 0 96.5 -40.5t40.5 -97.5t-40.5 -98t-96.5 -41z" />
<glyph unicode="&#x2026;" horiz-adv-x="740" d="M553 50q0 27 18.5 45.5t45.5 18.5q26 0 44.5 -18.5t18.5 -44.5q0 -27 -18.5 -45.5t-44.5 -18.5q-27 0 -45.5 18.5t-18.5 44.5zM307 50q0 27 18.5 45.5t45.5 18.5q26 0 44.5 -18.5t18.5 -44.5q0 -27 -18.5 -45.5t-44.5 -18.5q-27 0 -45.5 18.5t-18.5 44.5zM60 50 q0 27 18.5 45.5t44.5 18.5q27 0 45.5 -18.5t18.5 -44.5q0 -27 -18.5 -45.5t-44.5 -18.5q-27 0 -45.5 18.5t-18.5 44.5z" />
<glyph unicode="&#x202f;" horiz-adv-x="178" />
<glyph unicode="&#x2039;" horiz-adv-x="252" d="M131 126l-84 73l-14 12v13q86 72 161 154l24 -16q-43 -76 -104 -139q45 -57 59 -76t43 -67l-22 -16q-36 37 -63 62z" />
<glyph unicode="&#x203a;" horiz-adv-x="252" d="M57 64l-21 16q29 49 42.5 68t58.5 75q-61 63 -104 139l25 16q70 -78 160 -154v-13l-51 -42q-43 -37 -110 -105z" />
<glyph unicode="&#x205f;" horiz-adv-x="222" />
<glyph unicode="&#x20ac;" horiz-adv-x="669" d="M40 283l16 38h45l4 38h-65l16 38h56q29 130 103.5 206.5t171.5 76.5q41 0 83 -15q25 -9 34 -9q20 0 69 18l56 -174l-36 -15q-33 69 -91 112t-118 43q-73 0 -121.5 -65t-59.5 -178h302l-16 -38h-288v-38h272l-16 -38h-253q13 -103 68.5 -164t137.5 -61q58 0 108 36.5 t76 98.5l35 -15q-16 -45 -48 -85q-84 -106 -206 -106q-116 0 -192.5 83t-81.5 213h-61z" />
<glyph unicode="&#x2122;" horiz-adv-x="883" d="M386 287v28l16 1q35 3 35 62v220q0 25 -6.5 33t-27.5 8h-17v28h126l109 -279l108 279h124v-28h-17q-21 0 -27.5 -8t-6.5 -33v-242q0 -26 6 -33.5t28 -7.5h17v-28h-164v28h17q21 0 27.5 8t6.5 33v254l-123 -323h-22l-124 319v-228q0 -33 7.5 -47t27.5 -15l16 -1v-28h-136z M97 287v28h21q21 0 27.5 8t6.5 33v263q0 13 -3.5 16.5t-15.5 3.5q-54 0 -107 -80l-26 11l31 97h304l31 -97l-26 -11q-52 80 -107 80q-13 0 -16 -3t-3 -17v-263q0 -25 6.5 -33t27.5 -8h21v-28h-172z" />
</font>
</defs>
</svg>
