<?xml version="1.0" standalone="no"?>
<!DOCTYPE svg PUBLIC "-//W3C//DTD SVG 1.1//EN" "http://www.w3.org/Graphics/SVG/1.1/DTD/svg11.dtd" >
<svg xmlns="http://www.w3.org/2000/svg">
<metadata>
This is a custom SVG webfont generated by Fontspring.
Designer    : FontSite.com
Foundry URL : http://www.fontsite.com
</metadata>
<defs>
<font id="webfontFzcZZYv9" horiz-adv-x="475" >
<font-face units-per-em="1000" ascent="822" descent="-178" />
<missing-glyph horiz-adv-x="250" />
<glyph unicode=" "  horiz-adv-x="250" />
<glyph unicode="&#x09;" horiz-adv-x="250" />
<glyph unicode="&#xa0;" horiz-adv-x="250" />
<glyph unicode="!" horiz-adv-x="274" d="M115 193l26 105q17 70 21.5 106t6.5 106q2 94 18 132t54 38q24 0 39 -16.5t15 -42.5q0 -44 -45 -135q-29 -59 -44 -104.5t-55 -197.5zM38 47q0 24 17.5 41.5t42.5 17.5q24 0 41.5 -17.5t17.5 -41.5q0 -25 -17.5 -42.5t-41.5 -17.5q-25 0 -42.5 17.5t-17.5 42.5z" />
<glyph unicode="&#x22;" horiz-adv-x="331" d="M280 433q7 36 8 106q0 80 15 105q20 36 59 36q18 0 29 -10t11 -27t-8.5 -37t-45.5 -90q-22 -42 -36 -83h-32zM135 433q7 36 8 106q0 80 14 105q21 36 60 36q18 0 29 -10t11 -27t-9.5 -38.5t-44.5 -88.5q-24 -45 -37 -83h-31z" />
<glyph unicode="#" d="M35 0l82 226h-83l13 47h86l36 100h-96l13 47h100l78 220h51l-79 -220h127l79 220h50l-78 -220h87l-13 -47h-91l-36 -100h100l-12 -47h-104l-82 -226h-50l81 226h-127l-81 -226h-51zM184 273h127l35 100h-126z" />
<glyph unicode="$" horiz-adv-x="469" d="M13 130q0 25 13.5 42.5t34.5 17.5q45 0 52 -86q3 -37 14.5 -54t41.5 -22l61 261q-66 33 -96 67t-30 99q0 90 64 145t144 49l17 78h42l-17 -78q48 -7 88 -45t40 -91q2 -23 -11 -41.5t-32 -18.5q-14 0 -23 6t-14 20t-6.5 23t-3.5 28q-5 61 -49 74l-53 -231 q66 -26 103.5 -67t37.5 -112q0 -36 -13.5 -71t-40 -66.5t-72.5 -51.5t-105 -21l-18 -80h-42l19 80q-58 8 -102 46t-44 100zM252 388l51 220q-58 0 -95 -29t-37 -91q0 -42 20.5 -63t60.5 -37zM210 25q59 -2 104 34.5t45 101.5q0 40 -20.5 64t-71.5 48z" />
<glyph unicode="%" horiz-adv-x="625" d="M180 289q-36 0 -57.5 34.5t-21.5 92.5q0 90 60.5 177t123.5 87q37 0 58.5 -34.5t21.5 -92.5q0 -90 -60.5 -177t-124.5 -87zM60 0l521 667h46l-520 -667h-47zM188 317q50 0 89 113q37 104 37 169q0 50 -36 53q-23 2 -46 -27.5t-43 -85.5q-37 -106 -37 -169q0 -25 9.5 -39 t26.5 -14zM320 114q0 90 60.5 177t123.5 87q36 0 57.5 -34.5t21.5 -92.5q0 -90 -60.5 -177t-123.5 -87q-36 0 -57.5 34.5t-21.5 92.5zM371 68q0 -25 9.5 -39t26.5 -14q50 0 89 113q36 101 36 169q0 50 -36 53q-23 2 -46.5 -27t-42.5 -86q-36 -103 -36 -169z" />
<glyph unicode="&#x26;" horiz-adv-x="687" d="M20 144q0 140 220 231q-7 41 -7 77q0 93 57 162t133 69q52 0 84.5 -31t32.5 -79q0 -90 -104 -149q-35 -19 -106 -49q14 -84 31 -131q23 -70 47 -107q43 42 73 85t30 62q0 17 -15.5 23.5t-64.5 10.5l10 39h234l-10 -39q-14 -2 -17 -2q-40 -6 -57 -20t-58 -73 q-54 -77 -102 -121q19 -28 35.5 -38.5t39.5 -10.5q50 0 105 60l27 -25q-84 -102 -173 -102q-50 0 -101 60q-34 -28 -81.5 -45.5t-90.5 -17.5q-73 0 -122.5 46.5t-49.5 114.5zM323 414q54 29 72.5 40.5t32.5 26.5q46 48 46 107q0 23 -13.5 39t-33.5 16q-45 0 -77.5 -47 t-32.5 -111q0 -26 6 -71zM117 172q0 -54 33 -91t80 -37q50 0 109 37q-58 89 -92 255q-49 -22 -73 -42q-26 -21 -41.5 -54.5t-15.5 -67.5z" />
<glyph unicode="'" horiz-adv-x="185" d="M135 433q7 36 8 106q0 80 14 105q21 36 60 36q18 0 29 -10t11 -27t-9.5 -38.5t-44.5 -88.5q-24 -45 -37 -83h-31z" />
<glyph unicode="(" horiz-adv-x="304" d="M118 82q0 -139 49 -253l-24 -19q-96 169 -96 331q0 119 45.5 230t127.5 193q73 73 152 120l18 -24q-122 -91 -183 -205q-38 -70 -63.5 -177t-25.5 -196z" />
<glyph unicode=")" horiz-adv-x="304" d="M114 39q39 73 64 179t25 200q0 134 -49 247l23 19q97 -168 97 -329q0 -120 -45.5 -231.5t-127.5 -193.5q-71 -70 -153 -120l-17 24q120 88 183 205z" />
<glyph unicode="*" horiz-adv-x="468" d="M209 408q-14 0 -24 10t-10 24q0 20 12 30.5t46 20.5q26 8 54 30q-32 18 -57 23q-36 8 -49.5 18t-13.5 31q0 15 10.5 24.5t26.5 9.5q15 0 25 -7.5t28 -33.5q14 -20 45 -43q6 26 6 42q0 12 -1 20q-3 19 -3 30q0 19 11.5 33t28.5 14q15 0 25.5 -11.5t10.5 -28.5t-25 -50 q-17 -24 -26 -56q38 4 60 14q34 15 44 15q17 0 29.5 -11t12.5 -26t-12.5 -26t-29.5 -11q-11 0 -39 9t-57 9h-7q14 -33 32 -52q20 -22 25 -30.5t5 -21.5q0 -17 -9.5 -28t-24.5 -11q-39 0 -42 56l-1 17q-1 32 -11 60q-28 -26 -40 -46q-16 -30 -26 -38.5t-29 -8.5z" />
<glyph unicode="+" d="M241 116v184h-182v47h182v184h51v-184h182v-47h-182v-184h-51z" />
<glyph unicode="," horiz-adv-x="239" d="M49 0q-30 22 -30 49q0 24 16 40t40 16q25 0 42 -18.5t17 -46.5q0 -89 -136 -171l-21 28q36 24 58.5 48t22.5 39q0 7 -9 16z" />
<glyph unicode="-" horiz-adv-x="163" d="M3 228l17 63h163l-17 -63h-163z" />
<glyph unicode="." horiz-adv-x="239" d="M15 47q0 24 17.5 41.5t42.5 17.5q24 0 41.5 -17.5t17.5 -41.5q0 -25 -17.5 -42.5t-41.5 -17.5q-25 0 -42.5 17.5t-17.5 42.5z" />
<glyph unicode="/" horiz-adv-x="383" d="M-55 -173h-57l518 840h59z" />
<glyph unicode="0" d="M192 -17q-68 0 -107.5 57.5t-39.5 157.5q0 79 36 177t92 171q80 104 161 104q65 0 106 -58.5t41 -152.5q0 -159 -114 -328q-87 -128 -175 -128zM115 126q0 -50 20.5 -77.5t57.5 -27.5t64.5 30t59.5 103q39 92 66.5 197.5t27.5 164.5q0 44 -21.5 70t-57.5 26 q-71 0 -119 -126q-46 -121 -78 -243q-20 -75 -20 -117z" />
<glyph unicode="1" d="M28 0l10 40q34 2 47.5 3t31.5 5.5t22.5 7.5t12.5 14.5t10.5 21l8.5 31.5l101 378q5 17 5 33q0 17 -12.5 24t-42.5 7h-69l10 39q95 12 134 23t107 44l-147 -548q-9 -34 -9 -50q0 -19 20.5 -25t98.5 -8l-10 -40h-329z" />
<glyph unicode="2" d="M-25 0l14 55q4 16 14 31t18.5 23.5l29 28l32.5 31.5q59 59 125 112q102 83 141 135.5t39 107.5q0 85 -81 85q-92 0 -95 -81q-2 -46 -14 -65.5t-40 -19.5q-22 0 -37.5 16t-15.5 39q0 57 65.5 104.5t144.5 47.5q73 0 119.5 -41t46.5 -105q0 -51 -26 -91.5t-90 -88.5 q-42 -32 -68 -50l-18 -12l-17 -12l-18 -12q-101 -68 -191 -162h180q66 0 92.5 17.5t67.5 85.5l30 -19l-63 -160h-385z" />
<glyph unicode="3" d="M20 122q0 27 14.5 44t37.5 17q24 0 39.5 -15.5t15.5 -39.5q0 -12 -5 -27q-7 -21 -7 -29q0 -23 20.5 -37t52.5 -14q65 0 106 64q42 68 42 140q0 39 -19 62t-51 23q-9 0 -31 -4q-3 -1 -10 -1q-42 0 -42 29q0 12 9 20t22 8q5 0 34 -6q12 -3 24 -3q50 0 89.5 54.5t39.5 122.5 q0 82 -72 82q-66 0 -83 -73q-8 -34 -20 -47t-34 -13q-23 0 -37.5 15t-14.5 38q0 46 55 82t125 36q75 0 122 -39.5t47 -102.5q0 -68 -52 -119.5t-127 -56.5q115 -39 115 -139q0 -87 -66.5 -148.5t-158.5 -61.5q-75 0 -127.5 40.5t-52.5 98.5z" />
<glyph unicode="4" d="M137 0l10 35q12 2 13 2q33 4 42.5 13t18.5 41l18 65h-235l10 38l380 456h64l-120 -448h113l-12 -46h-113l-18 -65q-4 -13 -4 -23q0 -16 13.5 -23t50.5 -9q10 0 18 -1l-9 -35h-240zM73 202h178l85 317z" />
<glyph unicode="5" d="M17 119q0 28 14.5 45t38.5 17q23 0 38 -15.5t15 -38.5q0 -10 -9 -37q-3 -8 -3 -16q0 -23 20 -38t51 -15q72 0 117 88q42 79 42 155q0 48 -23 75t-64 27q-68 0 -140 -76l-29 15l121 328h294l-36 -73h-239l-74 -196q54 48 118 48q71 0 116 -49t45 -127q0 -105 -71.5 -179 t-173.5 -74q-69 0 -118.5 40t-49.5 96z" />
<glyph unicode="6" d="M38 187q0 109 52.5 217.5t135.5 177t166 68.5q52 0 85.5 -21.5t33.5 -55.5q0 -22 -15 -37.5t-37 -15.5q-39 0 -60 56q-12 33 -39 33q-36 0 -74 -35t-72 -99q-37 -71 -68 -172q46 53 79.5 73.5t76.5 20.5q62 0 101.5 -43.5t39.5 -113.5q0 -100 -74 -178.5t-168 -78.5 q-74 0 -118.5 55.5t-44.5 148.5zM118 126q0 -48 21 -76.5t56 -28.5q61 0 109.5 74t48.5 167q0 40 -19 64.5t-51 24.5q-39 0 -85 -40q-31 -26 -53 -55l-13 -17q-14 -53 -14 -113z" />
<glyph unicode="7" d="M115 33q0 41 30.5 99t108.5 165q94 129 216 266h-134q-88 0 -122 -21t-83 -104l-32 17l90 178h363l-12 -46l-70 -86q-108 -133 -166.5 -237t-86.5 -216q-10 -37 -21.5 -51t-32.5 -14t-34.5 14t-13.5 36z" />
<glyph unicode="8" d="M6 142q0 126 188 186q-43 42 -57 69t-14 67q0 77 58.5 131.5t141.5 54.5q72 0 119 -41t47 -105q0 -55 -40 -101t-113 -75q90 -68 90 -152q0 -85 -61.5 -139t-159.5 -54q-88 0 -143.5 44.5t-55.5 114.5zM302 356l6 -4q50 23 78.5 65t28.5 94q0 46 -27 73.5t-72 27.5 q-51 0 -87 -33t-36 -80q0 -44 34 -80q7 -8 65 -54l5 -4zM89 129q0 -50 32 -79t88 -29q63 0 101.5 32t38.5 85q0 54 -49 102q-23 21 -56 45l-22 16q-62 -22 -97.5 -67.5t-35.5 -104.5z" />
<glyph unicode="9" d="M8 63q0 22 16 38t38 16q37 0 54 -47q9 -25 19.5 -34.5t27.5 -9.5q26 0 57.5 21t53.5 54q64 91 100 216q-70 -81 -152 -81q-60 0 -99.5 44.5t-39.5 113.5q0 97 73.5 176.5t164.5 79.5q77 0 123 -54.5t46 -145.5q0 -83 -36.5 -175.5t-100.5 -168.5q-48 -57 -109 -90 t-119 -33q-49 0 -83 23t-34 57zM246 284q43 0 94 47q25 24 42 46l10 12q18 79 18 121q0 47 -22 73.5t-62 26.5q-30 0 -58.5 -20t-46.5 -53q-50 -93 -50 -170q0 -37 21 -60t54 -23z" />
<glyph unicode=":" horiz-adv-x="239" d="M167 327q-25 0 -42.5 17.5t-17.5 42.5q0 24 17.5 41.5t42.5 17.5q24 0 41.5 -17.5t17.5 -41.5q0 -25 -17.5 -42.5t-41.5 -17.5zM15 47q0 24 17.5 41.5t42.5 17.5q24 0 41.5 -17.5t17.5 -41.5q0 -25 -17.5 -42.5t-41.5 -17.5q-25 0 -42.5 17.5t-17.5 42.5z" />
<glyph unicode=";" horiz-adv-x="239" d="M167 327q-25 0 -42.5 17.5t-17.5 42.5q0 24 17.5 41.5t42.5 17.5q24 0 41.5 -17.5t17.5 -41.5q0 -25 -17.5 -42.5t-41.5 -17.5zM49 0q-30 22 -30 49q0 24 16 40t40 16q25 0 42 -18.5t17 -46.5q0 -89 -136 -171l-21 28q36 24 58.5 48t22.5 39q0 7 -9 16z" />
<glyph unicode="&#x3c;" horiz-adv-x="500" d="M42 344v6l415 266v-41l-303 -197l303 -203v-110z" />
<glyph unicode="=" d="M59 373v47h415v-47h-415zM59 226v47h415v-47h-415z" />
<glyph unicode="&#x3e;" horiz-adv-x="500" d="M42 65v42l303 196l-303 203v110l415 -278v-7z" />
<glyph unicode="?" horiz-adv-x="408" d="M136 191l52 195q27 -4 40 -4q55 0 90 41.5t35 106.5q0 44 -17.5 72t-45.5 28q-16 0 -26 -7.5t-32 -36.5q-17 -24 -38 -24q-17 0 -29.5 13t-12.5 30q0 32 30 53.5t74 21.5q68 0 115 -54.5t47 -133.5q0 -82 -49.5 -136.5t-124.5 -54.5q-8 0 -32 2l-34 -122zM67 47 q0 24 17.5 41.5t42.5 17.5q24 0 41.5 -17.5t17.5 -41.5q0 -25 -17.5 -42.5t-41.5 -17.5q-25 0 -42.5 17.5t-17.5 42.5z" />
<glyph unicode="@" horiz-adv-x="751" d="M51 158q0 110 61 208t163 156t218 58q115 0 182 -60.5t67 -163.5q0 -114 -84.5 -211.5t-183.5 -97.5q-26 0 -40.5 12t-14.5 33q0 9 4 28q-51 -73 -107 -73q-36 0 -59.5 27t-23.5 69q0 87 72 178q36 46 77.5 72.5t76.5 26.5q20 0 36 -11t21 -28l16 38h63 q-51 -124 -79 -209l-15 -47q-16 -49 -16 -55q0 -17 18 -17t47.5 17.5t55.5 43.5q88 85 88 199q0 85 -55.5 136.5t-147.5 51.5q-154 0 -271.5 -114.5t-117.5 -265.5q0 -99 69 -165.5t172 -66.5q57 0 109 20t122 69l17 -27q-76 -56 -135 -79t-126 -23q-121 0 -200 77t-79 194z M299 125q0 -41 27 -41q26 0 59.5 38.5t63.5 101.5q40 87 40 124q0 38 -35 40q-43 3 -99 -98q-56 -100 -56 -165z" />
<glyph unicode="A" horiz-adv-x="637" d="M2 0l10 37q39 11 61 32t47 73l252 517q3 1 7 1q29 6 76 23l96 -570q9 -53 20 -63.5t57 -12.5l-10 -37h-240l10 37q11 0 14 1q37 1 49.5 9.5t12.5 30.5q0 14 -5 42l-19 111h-225l-48 -104q-16 -35 -16 -53q0 -19 16 -27t57 -10l-9 -37h-213zM235 274h198l-48 329z" />
<glyph unicode="B" horiz-adv-x="624" d="M-15 0l10 37l16 1q43 3 57.5 16t27.5 61l116 437q9 33 9 45q0 31 -51 32l-30 1l10 37h200q112 0 170 -18q49 -15 80.5 -52t31.5 -81q0 -58 -50.5 -99.5t-146.5 -62.5q144 -38 144 -155q0 -55 -36.5 -103.5t-93.5 -69.5q-43 -16 -83.5 -21t-125.5 -5h-255zM258 373 q122 0 161 9q50 12 83 56.5t33 99.5q0 90 -130 90q-50 0 -68.5 -14.5t-31.5 -65.5zM179 69q0 -19 14.5 -25.5t56.5 -6.5q113 0 160 35q31 23 52.5 70t21.5 90q0 75 -58 92q-32 10 -104 10h-74l-60 -223q-9 -31 -9 -42z" />
<glyph unicode="C" horiz-adv-x="625" d="M61 239q0 106 54 210t140 169.5t173 65.5q45 0 90 -20q30 -14 41 -14q18 0 63 24l26 -190l-39 -6q-34 89 -76 129t-101 40q-111 0 -191 -133q-78 -131 -78 -266q0 -90 46.5 -144t124.5 -54q136 0 231 154l32 -20q-56 -97 -130 -149t-158 -52q-107 0 -177.5 73t-70.5 183z " />
<glyph unicode="D" horiz-adv-x="661" d="M-15 0l10 37l16 1q43 3 57.5 16t27.5 61l116 437q9 32 9 44q0 32 -51 33l-30 1l10 37h198q88 0 133.5 -11t83.5 -42q95 -77 95 -210q0 -100 -51 -193.5t-137 -150.5q-92 -60 -238 -60h-249zM178 64q0 -15 14 -21t48 -6q159 0 236 121q36 57 61 144t25 155q0 82 -41.5 127 t-117.5 45q-62 0 -81 -30q-6 -10 -19 -58l-120 -447q-5 -22 -5 -30z" />
<glyph unicode="E" horiz-adv-x="637" d="M-15 0l10 37l16 1q43 3 57.5 16t27.5 61l116 437q9 36 9 44q0 32 -51 33l-30 1l10 37h467l27 -170l-34 -8q-37 79 -82.5 109t-126.5 30q-47 0 -64.5 -12.5t-28.5 -54.5l-52 -196h21q82 0 116 18.5t64 80.5h34l-70 -263h-34q4 31 4 46q0 43 -25 60t-95 20q-3 1 -12 1.5 t-13 0.5l-55 -208q-10 -36 -10 -49q0 -19 18 -25.5t70 -6.5q90 0 150.5 29t139.5 110l28 -18l-78 -161h-524z" />
<glyph unicode="F" horiz-adv-x="585" d="M-15 0l10 37l16 1q44 3 58 16t27 61l116 437q9 33 9 45q0 31 -51 32l-30 1l10 37h471l26 -180l-34 -10q-33 69 -54 92q-51 56 -155 56q-49 0 -67 -12.5t-29 -53.5l-52 -194q11 -1 25 -1q77 0 113 21t61 80h37l-71 -267h-38q3 40 3 47q0 43 -23.5 59.5t-87.5 18.5 q-4 0 -30 2l-56 -210q-9 -33 -9 -46q0 -30 52 -31l36 -1l-10 -37h-273z" />
<glyph unicode="G" horiz-adv-x="669" d="M64 241q0 106 52 209.5t135 168.5t168 65q43 0 97 -23q22 -10 36 -10q16 0 60 21l23 -189l-38 -5q-33 89 -73 129t-96 40q-58 0 -110 -43t-89 -122q-68 -144 -68 -285q0 -82 37.5 -129t102.5 -47q55 0 95.5 31.5t60.5 90.5q14 44 14 65q0 16 -12 23t-47 9q-2 0 -20 2 l9 35h247l-9 -35q-48 -2 -63.5 -16t-30.5 -71l-36 -135q-51 0 -68 -3t-74 -21q-35 -12 -75 -12q-101 0 -164.5 71.5t-63.5 185.5z" />
<glyph unicode="H" horiz-adv-x="705" d="M-15 0l9 37l17 1q43 2 57.5 15.5t27.5 61.5l116 437q9 32 9 46q0 30 -51 31l-30 1l10 37h267l-10 -37l-17 -1q-44 -2 -57 -14.5t-27 -62.5l-50 -185h272l49 185q9 34 9 44q0 32 -52 33l-29 1l10 37h267l-10 -37l-17 -1q-44 -2 -57.5 -15t-26.5 -62l-117 -437 q-9 -31 -9 -45q0 -31 52 -32l29 -1l-10 -37h-266l9 37l17 1q43 2 57.5 15.5t27.5 61.5l55 209h-271l-56 -209q-9 -36 -9 -47q0 -29 52 -30l30 -1l-10 -37h-267z" />
<glyph unicode="I" horiz-adv-x="340" d="M-15 0l10 37l16 1q44 3 58 16t27 61l117 437q8 32 8 44q0 32 -51 33l-30 1l10 37h267l-10 -37l-16 -1q-45 -3 -58.5 -15.5t-26.5 -61.5l-117 -437q-9 -35 -9 -47q0 -29 52 -30l30 -1l-10 -37h-267z" />
<glyph unicode="J" horiz-adv-x="309" d="M51 -12l151 564q8 29 8 44q0 32 -51 33l-30 1l10 37h260l-10 -37h-9q-38 0 -58 -18q-15 -14 -27 -60l-123 -458q-29 -105 -58 -152q-30 -49 -75.5 -81t-85.5 -32q-29 0 -49 17.5t-20 42.5q0 21 16 37.5t38 16.5q32 0 51 -39q5 -13 13 -13q12 0 19 15q18 37 30 82z" />
<glyph unicode="K" horiz-adv-x="660" d="M-15 0l10 37l16 1q44 3 58 16t27 61l117 437q8 32 8 44q0 32 -51 33l-30 1l10 37h267l-10 -37l-16 -1q-44 -3 -58 -15.5t-27 -61.5l-60 -226l265 234q36 32 36 48q0 13 -12 17t-52 5l10 37h226l-10 -37q-74 -14 -141 -73l-161 -144l111 -297q18 -47 35 -61t66 -18 l-10 -37h-264l10 37q4 0 9.5 0.5t7.5 0.5q39 2 52.5 9t13.5 24q0 11 -12 45l-88 239l-112 -102l-37 -138q-9 -33 -9 -46q0 -30 52 -31l30 -1l-10 -37h-267z" />
<glyph unicode="L" horiz-adv-x="575" d="M-15 0l10 37l16 1q44 3 58 16t27 61l117 437q8 32 8 44q0 32 -51 33l-30 1l10 37h267l-10 -37l-16 -1q-45 -3 -58.5 -15.5t-26.5 -61.5l-119 -445q-9 -35 -9 -41q0 -16 13.5 -21t55.5 -5q86 0 149.5 31.5t135.5 110.5l29 -18l-82 -164h-494z" />
<glyph unicode="M" horiz-adv-x="805" d="M-15 0l10 37q55 13 73.5 30.5t32.5 67.5l112 417q9 36 9 44q0 32 -52 33l-29 1l9 37h196l37 -505l300 505h199l-10 -37l-17 -1q-44 -2 -57.5 -15t-26.5 -62l-117 -437q-10 -39 -10 -45q0 -31 53 -32l29 -1l-10 -37h-266l9 37l17 1q43 2 57.5 15.5t27.5 61.5l129 485 l-355 -600h-27l-44 582l-116 -434q-12 -45 -12 -60q0 -25 14.5 -34.5t61.5 -16.5l-10 -37h-217z" />
<glyph unicode="N" horiz-adv-x="679" d="M-15 0l10 37q50 8 72.5 32.5t40.5 90.5l117 437q-11 18 -25.5 24t-58.5 9l10 37h154l209 -520l101 379q9 32 9 53q0 25 -13.5 34.5t-60.5 16.5l10 37h216l-10 -37q-53 -6 -72 -24t-35 -77l-146 -546h-29l-227 571l-108 -402q-11 -40 -11 -56q0 -28 15.5 -41.5t51.5 -16.5 q11 0 20 -1l-10 -37h-230z" />
<glyph unicode="O" horiz-adv-x="654" d="M61 246q0 107 52 209t136 165.5t172 63.5q94 0 163.5 -80t69.5 -190q0 -103 -52 -204t-135 -164t-168 -63q-100 0 -169 76t-69 187zM154 185q0 -74 38 -119.5t100 -45.5q115 0 188 136q78 143 78 307q0 81 -26 123q-17 28 -48 44.5t-65 16.5q-51 0 -96.5 -30.5 t-75.5 -84.5q-42 -76 -67.5 -171.5t-25.5 -175.5z" />
<glyph unicode="P" horiz-adv-x="567" d="M-15 0l10 37l16 1q44 3 58 16t27 61l117 437q8 32 8 43q0 18 -11.5 25.5t-39.5 8.5l-30 1l10 37h234q97 0 150 -26q35 -17 57 -51.5t22 -72.5q0 -70 -48 -125t-123 -72q-55 -13 -163 -13q-23 0 -38 1l-52 -193q-9 -33 -9 -47q0 -29 52 -30l36 -1l-10 -37h-273zM251 347 h40q98 0 138 20q35 17 60 69.5t25 108.5q0 46 -29.5 65.5t-98.5 19.5q-34 0 -49.5 -13t-25.5 -48z" />
<glyph unicode="Q" horiz-adv-x="647" d="M58 258q0 102 51.5 201.5t133.5 162t165 62.5q102 0 172 -79.5t70 -196.5q0 -113 -68.5 -226t-171.5 -170q13 -39 24 -53.5t27 -14.5q27 0 60 56l29 -14q-19 -47 -52.5 -75t-73.5 -28q-89 0 -104 103q-24 -3 -32 -3q-97 0 -163.5 79.5t-66.5 195.5zM160 140q30 80 101 80 q114 0 138 -170q74 79 114 188.5t40 233.5q0 83 -36.5 129t-103.5 46q-138 0 -215 -213q-46 -130 -46 -231q0 -32 8 -63zM187 105q0 -39 29.5 -63t77.5 -24l26 1q7 49 7 77q0 40 -18 63.5t-50 23.5q-29 0 -50.5 -23.5t-21.5 -54.5z" />
<glyph unicode="R" horiz-adv-x="611" d="M-15 0l10 37l16 1q44 3 58 16t27 61l117 437q9 36 9 44q0 32 -52 33l-29 1l9 37h233q243 0 243 -149q0 -51 -32 -96.5t-85 -70.5q-42 -19 -105 -23l65 -224q12 -41 26.5 -52.5t58.5 -13.5q2 0 5 -0.5t7.5 -1t7.5 -0.5l-10 -36h-160l-90 323h-69l-56 -208q-9 -33 -9 -47 q0 -27 52 -30l23 -1l-10 -37h-260zM254 359q17 -1 37 -1q103 0 146 20q38 18 64 63.5t26 95.5q0 53 -29 73t-105 20q-40 0 -57 -14t-28 -56z" />
<glyph unicode="S" horiz-adv-x="515" d="M44 -3l-18 193l38 10q73 -173 192 -173q60 0 101.5 40.5t41.5 98.5q0 65 -62 107q-23 16 -55 33l-18 10l-18 9l-17 10q-103 60 -103 155q0 80 58.5 137t141.5 57q44 0 90 -19q28 -12 41 -12q10 0 42 12q2 0 5 1.5t7.5 3l7.5 2.5l13 -184l-39 -5q-52 157 -168 157 q-51 0 -87 -33t-36 -80q0 -54 41 -85q9 -8 44 -28l28 -16l15 -8q51 -27 66.5 -37t32.5 -27q49 -47 49 -122q0 -90 -64 -155.5t-152 -65.5q-59 0 -117 33q-20 11 -29 11q-11 0 -44 -16z" />
<glyph unicode="T" horiz-adv-x="595" d="M107 0l10 37l23 1q41 1 56.5 15.5t28.5 61.5l122 457q5 22 5 30q0 27 -34 27q-67 0 -222 -141l-24 22l87 157h497l21 -172l-34 -7q-27 73 -62 107t-85 34q-24 0 -35.5 -13t-22.5 -54l-120 -447q-9 -36 -9 -45q0 -31 53 -32l35 -1l-10 -37h-280z" />
<glyph unicode="U" horiz-adv-x="671" d="M112 159q0 41 17 105l77 288q9 33 9 43q0 18 -11 25.5t-41 8.5l-22 1l10 37h260l-10 -37l-17 -1q-44 -2 -57.5 -15t-26.5 -62l-83 -310q-16 -59 -16 -92q0 -59 34 -92t94 -33q73 0 122.5 53t79.5 164l80 296q7 24 7 39q0 23 -16.5 34.5t-59.5 18.5l10 37h210l-10 -37 q-44 -7 -64.5 -26t-33.5 -66l-81 -303q-36 -134 -96 -192.5t-160 -58.5q-96 0 -150.5 46.5t-54.5 128.5z" />
<glyph unicode="V" horiz-adv-x="565" d="M233 -17l-102 584q-7 40 -15 47.5t-52 15.5l10 37h244l-11 -39q-52 -2 -68 -10.5t-16 -33.5q0 -15 2 -27l69 -427l218 426q12 22 12 39q0 28 -56 32q-9 0 -16 1l10 39h190l-10 -39q-29 -8 -47.5 -26t-39.5 -59l-288 -560h-34z" />
<glyph unicode="W" horiz-adv-x="793" d="M191 -17l-62 604q-3 26 -10.5 32.5t-41.5 10.5l10 37h219l-10 -37q-3 0 -7.5 -0.5t-5.5 -0.5q-39 -4 -50.5 -13.5t-11.5 -38.5q0 -4 2 -30l35 -387l177 380l-5 44q-4 32 -14 37.5t-69 8.5l10 37h256l-10 -37q-6 -1 -14 -1q-39 -4 -52 -12t-13 -29q0 -9 1 -16l37 -412 l175 374q17 35 17 56q0 20 -14.5 28t-57.5 12l10 37h201l-9 -37q-38 -8 -57.5 -25.5t-41.5 -63.5l-260 -558h-30l-51 481l-222 -481h-31z" />
<glyph unicode="X" horiz-adv-x="602" d="M-54 0l10 37q47 7 74.5 24.5t75.5 69.5l189 209l-71 203q-20 56 -36.5 70.5t-62.5 17.5l10 36h247l-9 -36q-46 -2 -61 -7t-15 -21q0 -7 6 -25l60 -174l144 165q22 25 22 39q0 13 -10 17t-48 6l9 36h203l-10 -36q-38 -8 -61 -23t-64 -59l-173 -186l89 -254 q19 -53 33 -62.5t74 -9.5l-10 -37h-269l9 37h15q40 0 53.5 6.5t13.5 25.5q0 10 -11 42l-63 182l-160 -176q-28 -31 -28 -48q0 -15 11 -22t39 -9q1 0 6.5 -0.5t8.5 -0.5l-9 -37h-231z" />
<glyph unicode="Y" horiz-adv-x="579" d="M77 0l10 37l23 1q41 1 56.5 15.5t28.5 61.5l40 149l-74 301q-10 40 -25 52t-59 13l9 37h247l-10 -37h-11q-36 0 -50.5 -7.5t-14.5 -25.5q0 -9 2 -14l63 -263l202 245q17 21 17 37q0 15 -10 20t-42 7q-2 0 -7.5 0.5t-9.5 0.5l10 37h213l-10 -37q-35 -5 -55.5 -18.5 t-54.5 -54.5l-233 -277l-44 -165q-9 -33 -9 -47q0 -29 52 -30l36 -1l-10 -37h-280z" />
<glyph unicode="Z" horiz-adv-x="554" d="M-7 0l-8 16l495 611h-59q-87 0 -151 -30.5t-130 -103.5l-31 16l78 158h417l8 -14l-491 -610h56q108 0 174.5 30.5t132.5 109.5l33 -18l-85 -165h-439z" />
<glyph unicode="[" horiz-adv-x="304" d="M67 -136h109l-10 -37h-184l225 840h171l-10 -37h-95z" />
<glyph unicode="\" horiz-adv-x="383" d="M237 -173l-70 840h51l67 -840h-48z" />
<glyph unicode="]" horiz-adv-x="304" d="M47 -136l206 766h-109l10 37h184l-225 -840h-171l10 37h95z" />
<glyph unicode="^" horiz-adv-x="500" d="M-25 285l278 415h7l266 -415h-42l-196 303l-203 -303h-110z" />
<glyph unicode="_" horiz-adv-x="500" d="M0 -89h500v-47h-500v47z" />
<glyph unicode="`" horiz-adv-x="500" d="M315 479l-80 80q-30 30 -30 47q0 13 10.5 23.5t23.5 10.5q10 0 16.5 -6.5t17.5 -26.5l66 -121z" />
<glyph unicode="a" horiz-adv-x="473" d="M12 104q0 108 87 220q43 56 94 89t95 33q58 0 72 -55l23 54h71l-4 -9l-3 -9l-4 -9q-5 -12 -30 -79q-43 -116 -75 -215q-18 -54 -19 -67q0 -13 10 -13q19 1 86 94l26 -19q-85 -133 -148 -133q-20 0 -34.5 15.5t-14.5 36.5q0 15 9 53q-69 -105 -140 -105q-44 0 -72.5 33.5 t-28.5 84.5zM88 78q0 -23 10 -37.5t26 -14.5q34 0 76.5 48t80.5 129q50 107 50 157q0 23 -13 38t-33 15q-59 0 -128 -125q-69 -126 -69 -210z" />
<glyph unicode="b" horiz-adv-x="421" d="M39 91q0 21 14 73l98 365q9 38 11 53q1 14 -9.5 21.5t-33.5 9.5q-7 0 -12 1l7 26l148 34l-76 -284q50 56 106 56q49 0 79.5 -38t30.5 -99q0 -73 -38.5 -148.5t-98 -124.5t-116.5 -49q-47 0 -78.5 29.5t-31.5 74.5zM114 84q0 -25 14.5 -40.5t38.5 -15.5q65 0 108 106 q17 40 29 98.5t12 98.5q0 65 -46 68q-30 2 -60 -33t-53 -98q-16 -43 -29.5 -102t-13.5 -82z" />
<glyph unicode="c" horiz-adv-x="361" d="M22 133q0 71 37 144.5t94.5 121t112.5 47.5q39 0 65 -21.5t26 -53.5q0 -22 -12 -35.5t-32 -13.5q-18 0 -30.5 13.5t-12.5 32.5q0 10 1 17q1 3 1 8q0 16 -18 16q-58 0 -103 -112q-19 -48 -33 -107.5t-14 -93.5q0 -29 14.5 -47t39.5 -18q49 0 137 101l25 -20 q-96 -125 -180 -125q-49 0 -83.5 43t-34.5 103z" />
<glyph unicode="d" horiz-adv-x="478" d="M19 119q0 110 90 224q84 103 165 103q38 0 71 -28l32 118q8 27 8 44q0 28 -41 32q-2 0 -20 2l7 26l163 34l-146 -543q-15 -57 -15 -67t7 -10q10 0 27 19.5t58 77.5l28 -20q-85 -138 -142 -138q-22 0 -36.5 16.5t-14.5 42.5q0 2 0.5 5.5t1 11.5t1.5 18q-62 -100 -135 -100 q-49 0 -79 36t-30 96zM105 97q0 -29 11.5 -46.5t31.5 -17.5q53 0 109 116q62 126 62 204q0 25 -12.5 40t-34.5 15q-54 0 -105 -93q-26 -48 -44 -110.5t-18 -107.5z" />
<glyph unicode="e" horiz-adv-x="357" d="M23 130q0 73 38 147t96.5 121.5t116.5 47.5q32 0 53.5 -20.5t21.5 -51.5q0 -68 -92 -145q-43 -36 -78 -54l-38 -20l-18 -10l-16 -9q-1 -11 -1 -26q0 -78 50 -78q28 0 62 25.5t89 87.5l25 -23q-106 -135 -196 -135q-50 0 -81.5 40t-31.5 103zM112 172l14 9q53 33 76 50.5 t41 40.5q44 54 44 105q0 36 -28 36q-44 0 -87.5 -71.5t-59.5 -169.5z" />
<glyph unicode="f" horiz-adv-x="257" d="M34 -36q6 18 21 91q6 29 29 133q8 40 16 71l36 134h-75l11 40h76q28 100 89 168t121 68q24 0 39 -12t15 -32q0 -17 -12.5 -29t-31.5 -12q-11 0 -41 18q-13 8 -21 8q-27 -2 -51 -60q-12 -33 -36 -117h88l-11 -40h-86l-35 -144q-14 -58 -20 -85q-1 -6 -4 -14q0 -2 -1 -4 q-43 -148 -103.5 -234t-122.5 -86q-19 0 -30 10.5t-11 28.5q0 20 14.5 33.5t36.5 13.5q1 0 8.5 -0.5t12.5 -0.5q6 -1 16 -1q25 0 38.5 11.5t24.5 42.5z" />
<glyph unicode="g" horiz-adv-x="446" d="M17 69q0 33 104 88q-48 33 -48 96q0 74 58.5 133.5t130.5 59.5q55 0 90 -28q47 44 87 44q18 0 29 -10.5t11 -27.5t-11 -28.5t-28 -11.5q-12 0 -29 10q-15 7 -22 7q-4 0 -16 -4q28 -32 28 -80q0 -72 -61 -129.5t-138 -57.5q-22 0 -52 10q-46 -28 -46 -38t19 -14l89 -24 q82 -22 112.5 -46.5t30.5 -65.5q0 -57 -57.5 -91t-152.5 -34q-89 0 -141.5 25.5t-52.5 68.5q0 68 134 103l-18 6q-29 10 -39.5 18.5t-10.5 20.5zM205 164q32 0 53 15.5t37 50.5q28 62 31 118q1 30 -14.5 47.5t-44.5 17.5q-54 0 -90 -72q-30 -60 -30 -112q0 -65 58 -65z M30 -76q0 -60 115 -60q67 0 103 17.5t36 49.5t-45 49q-39 15 -74 23q-6 1 -8.5 2t-6 1.5t-4 0.5h-1.5q-115 -29 -115 -83z" />
<glyph unicode="h" horiz-adv-x="487" d="M22 0l144 539q8 30 8 44q0 25 -38 29q-2 0 -16 2l7 26l155 33l-127 -476q61 116 95 163q33 47 60 67t56 20q28 0 46 -21t18 -53q0 -34 -49 -181l-28 -90l-8 -27q-4 -9 -4 -17q0 -10 7 -10q14 2 52 56l32 47l29 -20q-49 -79 -81.5 -111.5t-61.5 -32.5q-24 0 -40 16t-16 41 q0 26 48 170q43 131 44 155q1 8 -3.5 14t-10.5 6q-28 0 -84 -87q-36 -55 -109 -205l-13 -27l-13 -28l-13 -28l-2 -5l-2 -4l-2 -5h-80z" />
<glyph unicode="i" horiz-adv-x="283" d="M239 576q-20 0 -34 14t-14 34t14 34t34 14t34 -14t14 -34t-14 -34t-34 -14zM56 46q0 22 20 84l69 214q10 30 10 35q0 10 -8 10q-5 0 -23 -22q-14 -18 -51 -72q-1 -2 -11 -16l-31 21q48 77 83.5 111.5t67.5 34.5q23 0 36.5 -14t13.5 -37q0 -17 -14 -60l-54 -171 q-12 -39 -18.5 -56.5t-7.5 -21.5q-5 -18 -5 -26q0 -10 10 -10q21 1 89 107l28 -19q-88 -151 -155 -151q-21 0 -35 17t-14 42z" />
<glyph unicode="j" horiz-adv-x="294" d="M261 576q-20 0 -34 14t-14 34t14 34t34 14q19 0 33.5 -14t14.5 -34t-14 -34t-34 -14zM-13 -88q19 0 47 -19q4 -4 11 -4q8 0 13.5 9.5t12.5 37.5l106 394l4 15l4 16q2 10 2 12q0 6 -5 6q-11 -2 -40 -35.5t-54 -73.5l-32 24q42 67 86.5 109.5t72.5 42.5q23 0 37.5 -17.5 t14.5 -45.5q0 -17 -10 -54l-78 -288q-28 -102 -76.5 -160.5t-106.5 -58.5q-22 0 -37 14t-15 34q0 19 12 30.5t31 11.5z" />
<glyph unicode="k" horiz-adv-x="451" d="M12 0l145 542q7 28 7 40q1 14 -8 21t-29 9q-2 0 -18 2l7 26l156 33l-88 -328q83 102 163 102q39 0 66 -23t27 -56q0 -49 -44 -96q-17 -18 -35 -30t-59 -33l-14 -7l6 -46q5 -44 14.5 -72t19.5 -28t28 28.5t28 59.5l35 -15q-26 -68 -56.5 -105t-61.5 -37q-40 0 -61 54 q-8 22 -25 122l-3 17q-20 -5 -76 -15l-44 -165h-80zM146 202q93 17 153 59.5t60 89.5q0 18 -11.5 30.5t-27.5 12.5q-26 0 -60.5 -23.5t-61.5 -60.5q-27 -36 -52 -108z" />
<glyph unicode="l" horiz-adv-x="265" d="M33 44q0 20 14 73l111 416q11 39 11 56q0 24 -37 29q-2 0 -18 2l8 27l154 27l-144 -536q-16 -58 -16 -70q0 -15 12 -15q12 1 39 37q4 5 45 66l28 -18q-56 -87 -88 -119t-65 -32q-23 0 -38.5 16t-15.5 41z" />
<glyph unicode="m" horiz-adv-x="740" d="M36 0q34 70 82 217l36 118q8 32 8 37q0 13 -9 13q-12 -2 -43 -39l-54 -71l-29 19q30 47 67 89q54 64 91 64q22 0 35.5 -16t13.5 -42q0 -39 -45 -186q52 97 80 138q39 57 67.5 81.5t56.5 24.5q56 0 56 -69q0 -25 -20 -106q-11 -43 -24 -88q44 92 101 173q63 90 123 90 q23 0 38 -18t15 -46q0 -41 -41 -155l-49 -147q-5 -17 -5 -23q0 -12 7 -12q12 2 40 38q8 9 47 65l29 -20q-83 -142 -147 -142q-23 0 -39.5 16.5t-16.5 39.5q0 26 23 94q2 5 2 5.5t1 3t1 3.5t2.5 6.5t5 13t8 22.5l12.5 34q43 119 43 150q0 16 -11 16q-30 -2 -99 -112 q-49 -78 -94 -169l-55 -110h-74l24 72q79 248 79 298q0 22 -13 22q-23 0 -90 -109q-16 -27 -72 -129l-43 -82l-15 -30l-16 -31q0 -1 -5 -11h-85z" />
<glyph unicode="n" horiz-adv-x="529" d="M36 0q17 43 55 149q37 108 53 164q13 45 13 57q0 15 -10 15q-8 0 -31 -26q-12 -14 -25 -32l-20 -28l-11 -14l-9 -13l-28 19q63 91 96.5 123.5t63.5 32.5q22 0 34.5 -16.5t12.5 -44.5q0 -31 -27 -124q-15 -50 -24 -75q42 74 99 154q41 56 73.5 81t63.5 25q25 0 41.5 -18.5 t16.5 -44.5t-26 -109q-1 -4 -8.5 -26l-14.5 -41q-9 -24 -16.5 -48t-8.5 -27q-23 -60 -23 -76q0 -12 9 -12q20 0 88 106l29 -20q-87 -144 -153 -144q-23 0 -37.5 16.5t-14.5 41.5t20 81l36 104l24 71q17 50 17 65q0 20 -14 20q-24 0 -86 -85q-67 -93 -126 -204 q-45 -86 -52 -97h-80z" />
<glyph unicode="o" horiz-adv-x="412" d="M22 133q0 112 75.5 212.5t160.5 100.5q57 0 94 -45t37 -113q0 -107 -75.5 -204t-158.5 -97q-56 0 -94.5 42t-38.5 104zM101 104q0 -84 55 -84q34 0 60.5 29.5t51.5 94.5q43 116 43 197q0 33 -16 52.5t-42 19.5q-31 0 -56 -27t-49 -86q-19 -48 -33 -105.5t-14 -90.5z" />
<glyph unicode="p" horiz-adv-x="463" d="M29 -85l119 444q-41 -22 -91 -63l-23 25q57 53 128 91l46 172h80l-39 -145q25 8 47 8q63 0 100.5 -40.5t37.5 -109.5q0 -71 -40 -145.5t-102 -119.5q-63 -46 -164 -46l-16 -59q-7 -25 -7 -35q0 -14 10.5 -19t52.5 -11l-10 -35h-213l9 35q5 1 11 1q36 4 45.5 11.5 t18.5 40.5zM138 23q42 1 64.5 8.5t44.5 25.5q45 39 73.5 104t28.5 130q0 108 -80 108q-12 0 -32 -4z" />
<glyph unicode="q" horiz-adv-x="443" d="M21 114q0 53 25 114.5t68 114.5q40 49 84.5 76.5t82.5 27.5q43 0 71 -41l44 44l30 -8l-142 -529q-4 -13 -4 -23q0 -14 11.5 -20t51.5 -10l-9 -33h-213l9 33q5 1 11 1q31 2 43.5 13.5t21.5 45.5l43 160q-35 -52 -63 -72.5t-62 -20.5q-45 0 -74 36t-29 91zM101 90 q0 -58 39 -58q27 0 61 38t61 98q53 118 53 192q0 54 -40 54q-30 0 -62.5 -36t-61.5 -102q-50 -111 -50 -186z" />
<glyph unicode="r" horiz-adv-x="372" d="M41 0l104 310q13 39 13 52q0 22 -13 22q-12 0 -29.5 -20.5t-36 -50.5t-22.5 -35l-24 15q5 7 20.5 32t28 43t30 39.5t35.5 33t34 11.5q24 0 37 -16t13 -41q1 -38 -32 -132l-29 -78l2 -1q5 9 25 48t38.5 71.5t42.5 69t49 58t46 21.5q18 0 30.5 -12.5t12.5 -30.5 q1 -26 -18 -40.5t-47 -17.5q-25 -4 -37 -10.5t-28 -25.5q-47 -55 -124 -212l-53 -103h-68z" />
<glyph unicode="s" horiz-adv-x="349" d="M-4 77q0 19 13 32.5t30 13.5q21 0 32.5 -13.5t22.5 -48.5q9 -33 54 -33q35 0 58.5 20t23.5 51q0 24 -14 42t-56 47q-57 40 -77.5 66.5t-20.5 60.5q0 53 46 92t109 39q45 0 78.5 -24.5t33.5 -56.5q0 -17 -12 -28.5t-29 -11.5q-20 0 -30.5 10.5t-19.5 39.5q-9 32 -50 32 q-26 0 -44.5 -17t-18.5 -42q0 -20 14.5 -37.5t56.5 -46.5q57 -39 78.5 -67.5t21.5 -63.5q0 -60 -50.5 -103t-120.5 -43q-52 0 -90.5 27t-38.5 63z" />
<glyph unicode="t" horiz-adv-x="283" d="M45 45q0 23 11 63l76 285h-61l11 40h61l44 166h80l-44 -166h89l-10 -40h-90l-73 -273q-12 -45 -12 -63q0 -14 10 -14q22 1 76 82l11 17l27 -19q-81 -137 -147 -137q-27 0 -43 16t-16 43z" />
<glyph unicode="u" horiz-adv-x="529" d="M59 51q0 29 31 125q4 11 12 35.5l12 36.5l10 27l9 26l10 27q13 37 13 50q0 10 -8 10t-25 -17q-14 -15 -52 -72q-3 -3 -11 -16l-31 20q46 70 68 94q45 50 82 50q23 0 39 -17.5t16 -43.5q0 -21 -21 -84l-19 -56l-22 -63q-34 -98 -34 -114q0 -19 16 -19q25 0 92 95 q60 87 111 184l62 118h81q-8 -23 -29 -79q-93 -248 -93 -302q0 -13 7 -13q9 0 38 34.5t57 78.5l30 -21q-100 -156 -153 -156q-24 0 -38.5 17.5t-14.5 47.5q0 31 15 85l27 86l8 28l-31 -53q-125 -213 -199 -213q-27 0 -46 18.5t-19 45.5z" />
<glyph unicode="v" horiz-adv-x="409" d="M64 73q0 40 38 142q52 141 53 160q0 11 -8 11q-19 -2 -84 -96l-28 17q85 136 151 136q22 0 34.5 -15t12.5 -40q0 -29 -18 -83q-22 -65 -28 -80l-9 -22l-8 -23l-9 -23q-20 -50 -20 -80q0 -19 9 -30t25 -11q23 0 56 32.5t62 82.5q22 38 37.5 81.5t15.5 67.5q0 15 -3 23 t-18 36q-12 21 -12 40q0 20 12.5 33.5t31.5 13.5q22 0 35.5 -20t13.5 -52q0 -42 -18.5 -107t-45.5 -116q-40 -76 -91.5 -120t-100.5 -44q-36 0 -61 25t-25 61z" />
<glyph unicode="w" horiz-adv-x="609" d="M58 65q0 44 37 141l48 130q11 29 11 37q0 9 -7 9q-12 -1 -37 -30.5t-46 -67.5l-31 21q34 61 74 98t72 37q22 0 37 -16.5t15 -41.5q0 -32 -32 -113q-42 -110 -54 -150q-13 -44 -13 -58q0 -22 19 -22q37 0 103 118q44 80 89 192l32 84h73q-71 -237 -71 -344q0 -48 27 -48 q29 0 69 68q31 52 52 105.5t21 81.5q0 32 -17 59t-17 47q0 19 11 31.5t28 12.5q24 0 39 -21t15 -54q0 -48 -25.5 -126t-62.5 -144q-65 -115 -133 -115q-36 0 -58 30.5t-22 81.5q0 26 13 113q-43 -105 -93 -165t-94 -60q-30 0 -51 23t-21 56z" />
<glyph unicode="x" horiz-adv-x="389" d="M8 -11q-23 0 -38 13.5t-15 33.5q0 19 14.5 31t38.5 12h9h10q40 0 76 48q47 63 56 82l-9 58l-9 60l-4.5 27t-3 14t-2.5 5.5t-4 0.5q-9 -1 -29.5 -31.5t-34.5 -64.5l-33 17q28 67 64 109t66 42q28 0 39 -26t20 -113q35 57 68 94q37 43 75 43q20 0 34 -12.5t14 -31.5 q0 -43 -56 -46q-46 -2 -62 -15.5t-65 -90.5q5 -28 12 -84l2 -17q2 -19 3 -25.5l2.5 -15.5t3.5 -28q4 -28 12 -28q16 0 47 49q18 29 24 45l33 -16q-27 -66 -61 -103.5t-68 -37.5q-40 0 -50 46q-16 68 -20 120q-91 -164 -159 -164z" />
<glyph unicode="y" horiz-adv-x="387" d="M-24 -82q12 0 45 -8q14 -2 19 -2q23 0 49.5 23t74.5 84l-51 329q-4 23 -8 23q-15 0 -48 -83l-34 15q25 67 56 106t57 39q28 0 41 -37q8 -22 18 -99l28 -207l54 107q33 64 33 99q0 13 -13 45q-11 27 -11 45q0 21 12 35t30 14q47 0 47 -67q0 -64 -54 -178 q-87 -181 -174.5 -277.5t-166.5 -96.5q-23 0 -39 13.5t-16 33.5q0 19 14.5 31.5t36.5 12.5z" />
<glyph unicode="z" horiz-adv-x="361" d="M7 -13h-32q12 76 62 142t148 135q41 29 59 45.5t44 48.5q-26 -11 -42 -11q-23 0 -80 17q-9 3 -18 3q-20 0 -36 -15.5t-38 -55.5l-31 18q62 128 144 128q23 0 58 -16q32 -16 44 -16q13 0 21 7.5t18 29.5l30 -8q-8 -60 -56 -133q-29 -42 -59.5 -70.5t-100.5 -76.5 q-42 -29 -79 -66q36 12 55 12q23 0 40 -9t49 -39q24 -20 36 -22q13 0 13 9q0 3 -4 7q-19 25 -19 39q0 16 10 25.5t26 9.5q19 0 31.5 -14t12.5 -35q0 -36 -29 -62.5t-68 -26.5q-20 0 -33 4t-60 25q-40 19 -63 19q-18 0 -29 -10t-24 -38z" />
<glyph unicode="{" horiz-adv-x="480" d="M143 32l39 136q5 17 5 26q0 25 -18 35.5t-65 12.5l10 38q53 3 81 19q18 10 26 27t21 71q31 131 53.5 180t63.5 72q31 17 97 17h14q19 0 26.5 0.5t18.5 0.5h8l-11 -39q-56 -1 -84 -11t-48 -36q-22 -30 -33 -74l-4 -16q-1 -6 -21 -78q-18 -65 -24 -80q-13 -28 -30 -41.5 t-56 -27.5q-3 0 -9 -3q1 -1 4 -2l3 -1q28 -12 38 -25t10 -38q0 -20 -17 -85l-23 -86q-20 -72 -20 -94q0 -36 23.5 -49.5t86.5 -14.5l-10 -39h-8q-8 0 -15 1h-45q-63 0 -88.5 18t-25.5 61q0 31 27 125z" />
<glyph unicode="|" horiz-adv-x="500" d="M220 -167v834h60v-834h-60z" />
<glyph unicode="}" horiz-adv-x="480" d="M-17 -134q84 0 119 30q19 17 30 41t27 87q1 9 18 69q18 67 24.5 85t20.5 35q15 19 27 27t42 18l9 3q-4 3 -7 3q-30 13 -39.5 25t-9.5 36q0 20 19 88l6 21l11 41l4 16l5 16l4 16q5 22 5 38q0 38 -23 52t-87 15l10 39h8q10 0 17.5 -0.5t26.5 -0.5q71 -1 91 -10 q37 -16 37 -68q0 -28 -17 -98l-27 -93q-17 -60 -17 -70q0 -43 82 -47l-10 -38q-39 -1 -59 -7.5t-36 -22.5q-15 -15 -27 -63l-5 -19l-5 -19l-6 -26l-7 -27l-6 -26q-18 -78 -31 -107.5t-36 -53.5t-51.5 -33.5t-78.5 -9.5h-45q-8 -1 -15 -1h-8z" />
<glyph unicode="~" horiz-adv-x="667" d="M140 612l-15 10q59 99 137 99q26 0 89 -21q53 -19 78 -19q54 0 97 53l15 -10q-24 -44 -61.5 -71t-73.5 -27q-21 0 -91 23q-57 19 -85 19q-26 0 -43 -10t-47 -46z" />
<glyph unicode="&#xa1;" horiz-adv-x="274" d="M180 327q-24 0 -41.5 17.5t-17.5 42.5q0 24 17.5 41.5t41.5 17.5q25 0 42.5 -17.5t17.5 -41.5q0 -25 -17.5 -42.5t-42.5 -17.5zM28 -53q29 58 44 103.5t55 198.5l36 -9l-4 -15l-3 -16q-10 -53 -21 -103t-14.5 -69t-6.5 -47t-4 -67q-2 -94 -18.5 -132t-54.5 -38 q-24 0 -39 16.5t-15 42.5q0 44 45 135z" />
<glyph unicode="&#xa2;" d="M183 30l23 86q-41 13 -66.5 52t-25.5 90q0 96 67.5 194.5t145.5 116.5l18 67h32l-17 -64q38 0 63.5 -21.5t25.5 -54.5q0 -21 -12.5 -34.5t-31.5 -13.5q-18 0 -30.5 13t-12.5 32q0 9 1 13q1 5 1 13q0 15 -14 16l-102 -379q54 3 138 102l26 -20q-91 -120 -175 -126l-23 -82 h-31zM219 166l97 360q-43 -29 -73 -103q-19 -47 -33 -106.5t-14 -95.5q0 -35 23 -55z" />
<glyph unicode="&#xa3;" d="M55 -17q-33 0 -54.5 20.5t-21.5 52.5q0 33 24 56.5t58 23.5q31 0 83 -26q15 63 15 139q0 13 -1 23h-104l11 36h93q-1 16 -1 34q0 103 27 172q25 62 75 99t109 37q58 0 96 -32t38 -80q0 -31 -15.5 -50.5t-40.5 -19.5q-18 0 -30.5 12.5t-12.5 31.5q0 9 8 38q3 9 3 19 q0 20 -15.5 32.5t-41.5 12.5q-27 0 -54 -18.5t-40 -46.5q-17 -36 -17 -134v-28q0 -23 2 -79h152l-11 -36h-142q-3 -105 -59 -181q75 -36 121 -36q38 0 59 18.5t34 63.5h35q-48 -160 -163 -160q-31 0 -54.5 9t-57.5 34l-18 13q-43 -50 -89 -50zM22 57q0 -16 10.5 -25.5 t27.5 -9.5q28 0 53 35l-9 7q-29 24 -51 24q-13 0 -22 -9t-9 -22z" />
<glyph unicode="&#xa4;" d="M96 116l-32 32l54 53q-40 55 -40 114q0 63 40 116l-54 54l32 32l54 -54q52 39 115 39q62 0 114 -39l54 54l32 -32l-54 -54q40 -53 40 -116q0 -61 -40 -114l54 -53l-32 -32l-54 54q-51 -40 -114 -40q-64 0 -115 40zM265 186q54 0 92 38t38 91q0 55 -38 93t-92 38 q-55 0 -93 -38t-38 -93q0 -53 38.5 -91t92.5 -38z" />
<glyph unicode="&#xa5;" d="M48 0l10 37l22 1q42 2 57 16t28 61l37 140h-163l10 38h164l-13 80h-139l10 38h124l-20 133q-4 31 -18.5 41.5t-49.5 11.5l9 37h202l-10 -37h-8q-30 0 -40 -5.5t-10 -22.5q0 -11 2 -19l32 -205l150 202q13 16 13 27q0 13 -9 18t-35 5h-14l10 37h183l-9 -37q-28 -5 -48 -18 t-43 -43l-96 -125h113l-10 -38h-132l-61 -80h162l-11 -38h-161l-38 -140q-10 -37 -10 -46q0 -30 53 -31l36 -1l-9 -37h-270z" />
<glyph unicode="&#xa6;" horiz-adv-x="500" d="M220 329v338h60v-338h-60zM220 153h60v-320h-60v320z" />
<glyph unicode="&#xa7;" d="M14 -26q23 0 36.5 -16.5t26.5 -59.5q16 -52 82 -52q51 0 85.5 31t34.5 77q0 35 -19.5 61t-78.5 67q-76 53 -102 86.5t-26 76.5q0 56 42.5 99.5t112.5 58.5q-35 29 -49.5 54.5t-14.5 57.5q0 68 59 118.5t139 50.5q56 0 98.5 -30t42.5 -70q0 -19 -13 -31.5t-33 -12.5 q-22 0 -34 13t-23 49q-16 49 -77 49q-39 0 -66.5 -27t-27.5 -65q0 -31 20 -55t79 -66q75 -52 101.5 -85.5t26.5 -76.5q0 -57 -41 -99t-113 -59q66 -60 66 -124q0 -74 -64.5 -129t-150.5 -55q-69 0 -118.5 33t-49.5 79q0 21 14.5 36.5t34.5 15.5zM178 193q35 -28 55.5 -37.5 t43.5 -9.5q39 0 66.5 26t27.5 63q0 44 -61 93q-35 27 -55.5 37t-42.5 10q-39 0 -66.5 -25.5t-27.5 -62.5q0 -25 13.5 -46.5t46.5 -47.5z" />
<glyph unicode="&#xa8;" horiz-adv-x="500" d="M419 512q-19 0 -33.5 14t-14.5 34t14.5 34t33.5 14t33.5 -14t14.5 -34t-14.5 -34t-33.5 -14zM264 511q-20 0 -34 14.5t-14 33.5t14 33.5t34 14.5t34 -14t14 -34t-14 -34t-34 -14z" />
<glyph unicode="&#xa9;" horiz-adv-x="773" d="M71 334q0 143 101.5 244.5t244.5 101.5q144 0 245.5 -101.5t101.5 -244.5q0 -144 -101.5 -245.5t-245.5 -101.5q-143 0 -244.5 101.5t-101.5 245.5zM108 334q0 -130 90.5 -222t218.5 -92t219 92t91 222t-91 221.5t-219 91.5t-218.5 -91.5t-90.5 -221.5zM246 316 q0 89 50.5 153.5t120.5 64.5q29 0 51 -9q15 -5 21 -5q13 0 41 12l35 -104l-27 -11q-19 39 -52 63.5t-67 24.5q-48 0 -77.5 -44.5t-29.5 -115.5q0 -73 32.5 -116.5t87.5 -43.5q34 0 62.5 20.5t44.5 56.5l27 -11q-22 -53 -62.5 -82.5t-91.5 -29.5q-72 0 -119 50t-47 127z" />
<glyph unicode="&#xaa;" horiz-adv-x="321" d="M164 372q-30 0 -49 21t-19 54q0 62 54 129q60 74 120 74q29 0 46 -27l11 26h52q-42 -103 -79 -215l-3 -9q0 -2 -0.5 -4t-0.5 -3q0 -5 4 -5q9 0 53 56l21 -14q-56 -83 -97 -83q-15 0 -25 10t-10 24q0 7 3 16q-42 -50 -81 -50zM172 402q20 0 45 28t47 74q30 62 30 91 q0 13 -8 21t-20 8q-34 0 -75 -72q-40 -70 -40 -120q0 -30 21 -30zM58 296l11 43h248l-11 -43h-248z" />
<glyph unicode="&#xab;" horiz-adv-x="351" d="M201 199l-44 54l4 12q4 3 66 54l70 59l27 25l22 -18q-57 -74 -118 -132q27 -39 66 -126l-25 -13l-28 36zM155 114l-28 36q-3 4 -5.5 6.5t-3 3.5t-3 4t-7.5 10l-10 13l-11 12q-23 26 -33 39.5t-11 14.5l4 12q4 3 66 54l70 59l27 25l22 -18q-57 -74 -118 -132 q27 -39 66 -126z" />
<glyph unicode="&#xac;" horiz-adv-x="500" d="M35 222v45h431v-267h-104v222h-327z" />
<glyph unicode="&#xad;" horiz-adv-x="163" d="M3 228l17 63h163l-17 -63h-163z" />
<glyph unicode="&#xae;" horiz-adv-x="773" d="M71 334q0 143 101.5 244.5t244.5 101.5q144 0 245.5 -101.5t101.5 -244.5q0 -144 -101.5 -245.5t-245.5 -101.5q-143 0 -244.5 101.5t-101.5 245.5zM108 334q0 -130 90.5 -222t218.5 -92t219 92t91 222t-91 221.5t-219 91.5t-218.5 -91.5t-90.5 -221.5zM256 147v28h17 q21 0 27.5 8t6.5 33v242q0 25 -6.5 33t-27.5 8h-17v28h161q71 0 110.5 -25.5t39.5 -72.5q0 -38 -28.5 -65t-72.5 -32l66 -115q15 -26 26.5 -34t33.5 -8h12v-28h-99l-103 178h-33v-109q0 -25 6.5 -33t27.5 -8h13v-28h-160zM369 354h49q39 0 60.5 20t21.5 57q0 69 -90 69 q-25 0 -33 -7.5t-8 -30.5v-108z" />
<glyph unicode="&#xaf;" horiz-adv-x="500" d="M237 547l12 46h203l-12 -46h-203z" />
<glyph unicode="&#xb0;" horiz-adv-x="300" d="M220 433q-46 0 -78 36t-32 88q0 51 32 87t78 36t78 -36t32 -87q0 -52 -32 -88t-78 -36zM220 480q23 0 37 21.5t14 55.5t-14 55t-37 21t-37 -21t-14 -55t14 -55.5t37 -21.5z" />
<glyph unicode="&#xb1;" d="M218 173v170h-182v47h182v171h51v-171h182v-47h-182v-170h-51zM36 86v47h415v-47h-415z" />
<glyph unicode="&#xb2;" horiz-adv-x="316" d="M36 253l9 37q26 48 137 135q62 48 86 78t24 61q0 49 -49 49q-56 0 -56 -44q-1 -54 -37 -54q-15 0 -26 10t-11 24q0 37 41.5 66t94.5 29q46 0 77 -25.5t31 -63.5q0 -31 -16 -55t-54 -52q-19 -15 -78 -53q-71 -47 -113 -90h107q41 0 56.5 9.5t41.5 52.5l24 -14l-40 -100 h-249z" />
<glyph unicode="&#xb3;" horiz-adv-x="316" d="M180 243q-49 0 -83 25.5t-34 60.5q0 17 10.5 28t26.5 11t26.5 -10.5t10.5 -25.5q0 -7 -3 -16q-4 -11 -4 -15q0 -13 12.5 -21t32.5 -8q36 0 60 34q26 38 26 81q0 21 -11.5 34.5t-30.5 13.5q-5 0 -19 -2h-8q-28 0 -28 20q0 8 6.5 14t16.5 6q5 0 23 -4q10 -2 14 -2 q29 0 52 30.5t23 70.5q0 46 -44 46q-38 0 -48 -40q-4 -22 -12.5 -30.5t-24.5 -8.5q-15 0 -25.5 9.5t-10.5 23.5q0 29 35.5 52t80.5 23q49 0 80.5 -24.5t31.5 -62.5q0 -37 -27.5 -67t-69.5 -38l-2 -1q61 -22 61 -81q0 -52 -42.5 -89t-101.5 -37z" />
<glyph unicode="&#xb4;" horiz-adv-x="500" d="M303 486l127 121q33 32 51 32q11 0 19 -7t8 -17q0 -13 -10.5 -24t-44.5 -32l-130 -80z" />
<glyph unicode="&#xb5;" horiz-adv-x="450" d="M31 72q-15 -55 -18 -71t-10 -93q-5 -53 -20 -76t-43 -23q-12 0 -21 9t-9 22q0 19 26 78q75 175 123 355l49 174h80l-76 -277q-13 -48 -15 -79q-1 -24 16.5 -40.5t44.5 -16.5q34 0 65.5 17t72.5 58l93 338h79l-90 -328q-10 -36 -10 -49q0 -28 29 -28q13 0 32 10l-4 -17 l-101 -45q-1 -1 -4 -1q-33 0 -33 45q0 9 3 36q-68 -52 -101.5 -68.5t-72.5 -16.5q-81 0 -85 87z" />
<glyph unicode="&#xb6;" d="M120 -56l98 363q-73 0 -103.5 23t-30.5 78q0 56 24.5 114.5t62.5 94.5q30 28 59.5 39t73.5 11h273l-10 -39h-23q-39 0 -55.5 -15t-29.5 -63l-162 -606q-9 -34 -9 -46q0 -32 52 -32h22l-10 -39h-150l215 801h-50l-215 -801h-156l11 39h28q40 0 56 15t29 63z" />
<glyph unicode="&#xb7;" horiz-adv-x="239" d="M121 160q-25 0 -42.5 17.5t-17.5 42.5q0 24 17.5 41.5t42.5 17.5q24 0 41.5 -17.5t17.5 -41.5q0 -25 -17.5 -42.5t-41.5 -17.5z" />
<glyph unicode="&#xb8;" horiz-adv-x="500" d="M111 -130q45 -21 72 -21q23 0 37.5 11.5t14.5 30.5q0 16 -11.5 25.5t-30.5 9.5h-7q-8 0 -14 -1q-2 -1 -10 -1l32 76h30l-21 -49q17 6 29 6q28 0 47.5 -18t19.5 -43q0 -34 -32.5 -57.5t-80.5 -23.5q-40 0 -92 26z" />
<glyph unicode="&#xb9;" horiz-adv-x="316" d="M69 253l8 30q58 4 64 9q9 6 17 37l60 223q3 8 3 19q0 14 -33 15l-46 1l7 29q61 7 87 14t72 28l-88 -329q-5 -20 -5 -28q0 -10 13.5 -13t62.5 -5l-8 -30h-214z" />
<glyph unicode="&#xba;" horiz-adv-x="289" d="M192 372q-38 0 -63 26t-25 66q0 67 47.5 126.5t101.5 59.5q37 0 62 -27.5t25 -68.5q0 -66 -47 -124t-101 -58zM195 398q39 0 65 70q24 62 24 113q0 43 -35 43q-34 0 -61 -64q-27 -67 -27 -113q0 -49 34 -49zM43 296l11 43h248l-11 -43h-248z" />
<glyph unicode="&#xbb;" horiz-adv-x="351" d="M142 133q62 79 117 131q-34 52 -65 127l25 12l27 -35l19 -24l11 -13l10 -13q22 -28 45 -53l-4 -12l-66 -54q-23 -18 -70 -60q-16 -14 -27 -25zM50 114l-22 19q62 79 117 131q-34 52 -65 127l25 12l27 -35l40 -50q31 -38 45 -53l-4 -12l-66 -54q-23 -18 -70 -60 q-16 -14 -27 -25z" />
<glyph unicode="&#xbc;" horiz-adv-x="737" d="M69 253l8 30q54 4 63.5 9t17.5 37l60 223q3 8 3 18q0 16 -33 16h-46l7 30q63 7 87.5 13t71.5 28l-88 -328q-5 -18 -5 -28q0 -6 2.5 -8.5t11.5 -5t22 -3l40 -1.5l-8 -30h-214zM122 0l495 633h47l-495 -633h-47zM405 92l8 27l236 271h45l-70 -264h71l-9 -34h-71l-10 -35 q-2 -12 -2 -13q0 -9 9.5 -12.5t43.5 -4.5l-7 -27h-158l7 27q30 4 36 7.5t10 22.5l9 35h-148zM459 126h103l46 171z" />
<glyph unicode="&#xbd;" horiz-adv-x="737" d="M69 253l8 30q54 4 63.5 9t17.5 37l60 223q3 8 3 18q0 16 -33 16h-46l7 30q63 7 87.5 13t71.5 28l-88 -328q-5 -18 -5 -28q0 -6 2.5 -8.5t11.5 -5t22 -3l40 -1.5l-8 -30h-214zM122 0l495 633h47l-495 -633h-47zM389 0l9 37q36 57 137 135q63 49 86.5 79t23.5 61 q0 48 -50 48q-55 0 -55 -44q-1 -54 -37 -54q-15 0 -26 10.5t-11 24.5q0 36 41.5 65t93.5 29q47 0 78 -25t31 -64q0 -31 -16 -55.5t-57 -53.5l-43 -30l-11 -7l-10 -7l-11 -7q-63 -40 -113 -90h107q41 0 56.5 9.5t41.5 52.5l24 -14l-40 -100h-249z" />
<glyph unicode="&#xbe;" horiz-adv-x="737" d="M180 243q-49 0 -83 25t-34 60q0 16 10.5 27.5t25.5 11.5q16 0 27 -10t11 -25q0 -8 -3 -16q-3 -12 -3 -16q0 -12 12.5 -20t31.5 -8q35 0 60.5 34t25.5 82q0 22 -11.5 35t-30.5 13q-5 0 -19 -2q-2 -1 -7 -1q-29 0 -29 20q0 8 7 14t17 6q3 0 21 -3q6 -2 15 -2 q29 0 51.5 30.5t22.5 69.5q0 46 -43 46q-20 0 -31 -9t-16 -31q-8 -39 -37 -39q-16 0 -26 10t-10 24q0 29 35 51.5t81 22.5q48 0 79 -24t31 -62q0 -39 -27 -68t-71 -39q61 -22 61 -82q0 -52 -42.5 -88.5t-101.5 -36.5zM122 0l495 633h46l-494 -633h-47zM405 92l7 27l237 271 h45l-71 -264h72l-9 -34h-72l-9 -35q-2 -6 -2 -13q0 -9 9.5 -12.5t43.5 -4.5l-8 -27h-157l7 27q30 4 36 7.5t10 22.5l9 35h-148zM459 126h103l46 171z" />
<glyph unicode="&#xbf;" horiz-adv-x="408" d="M280 327q-24 0 -41.5 17.5t-17.5 42.5q0 24 17.5 41.5t41.5 17.5q25 0 42.5 -17.5t17.5 -41.5q0 -25 -17.5 -42.5t-42.5 -17.5zM-11 -59q0 82 49.5 136.5t124.5 54.5q3 0 14 -0.5t18 -0.5l34 122l42 -10l-52 -195q-31 3 -40 3q-54 0 -89.5 -42t-35.5 -106q0 -44 17.5 -72 t45.5 -28q16 0 26 7.5t32 37.5q17 24 38 24q16 0 29 -13t13 -30q0 -32 -30 -54t-74 -22q-68 0 -115 54.5t-47 133.5z" />
<glyph unicode="&#xc0;" horiz-adv-x="637" d="M417 728l-93 64q-25 17 -32 25t-7 20q0 14 9.5 24.5t22.5 10.5q14 0 35 -26l88 -107zM2 0l10 37q39 11 61 32t47 73l252 517q3 1 7 1q29 6 76 23l96 -570q9 -53 20 -63.5t57 -12.5l-10 -37h-240l10 37q11 0 14 1q37 1 49.5 9.5t12.5 30.5q0 14 -5 42l-19 111h-225 l-48 -104q-16 -35 -16 -53q0 -19 16 -27t57 -10l-9 -37h-213zM235 274h198l-48 329z" />
<glyph unicode="&#xc1;" horiz-adv-x="637" d="M401 736l-19 11l148 95q36 22 49 22q12 0 20.5 -7.5t8.5 -17.5q0 -15 -13 -24.5t-52 -24.5zM2 0l10 37q39 11 61 32t47 73l252 517q3 1 7 1q29 6 76 23l96 -570q9 -53 20 -63.5t57 -12.5l-10 -37h-240l10 37q11 0 14 1q37 1 49.5 9.5t12.5 30.5q0 14 -5 42l-19 111h-225 l-48 -104q-16 -35 -16 -53q0 -19 16 -27t57 -10l-9 -37h-213zM235 274h198l-48 329z" />
<glyph unicode="&#xc2;" horiz-adv-x="637" d="M277 737l136 126h48l79 -126h-23l-85 73l-125 -73h-30zM2 0l10 37q39 11 61 32t47 73l252 517q3 1 7 1q29 6 76 23l96 -570q9 -53 20 -63.5t57 -12.5l-10 -37h-240l10 37q11 0 14 1q37 1 49.5 9.5t12.5 30.5q0 14 -5 42l-19 111h-225l-48 -104q-16 -35 -16 -53 q0 -19 16 -27t57 -10l-9 -37h-213zM235 274h198l-48 329z" />
<glyph unicode="&#xc3;" horiz-adv-x="637" d="M278 758q25 47 47.5 67t48.5 20q16 0 76 -24q31 -12 48 -12q12 0 21.5 7.5t26.5 31.5l28 -11q-48 -85 -100 -85q-18 0 -51 13q-52 22 -70 22q-12 0 -21 -7t-24 -29zM2 0l10 37q39 11 61 32t47 73l252 517q3 1 7 1q29 6 76 23l96 -570q9 -53 20 -63.5t57 -12.5l-10 -37 h-240l10 37q11 0 14 1q37 1 49.5 9.5t12.5 30.5q0 14 -5 42l-19 111h-225l-48 -104q-16 -35 -16 -53q0 -19 16 -27t57 -10l-9 -37h-213zM235 274h198l-48 329z" />
<glyph unicode="&#xc4;" horiz-adv-x="637" d="M533 752q-19 0 -33.5 14t-14.5 34t14.5 34t33.5 14t33.5 -14t14.5 -34t-14.5 -34t-33.5 -14zM331 751q-19 0 -33.5 14.5t-14.5 33.5t14.5 33.5t33.5 14.5q20 0 34 -14t14 -34t-14 -34t-34 -14zM2 0l10 37q39 11 61 32t47 73l252 517q3 1 7 1q29 6 76 23l96 -570 q9 -53 20 -63.5t57 -12.5l-10 -37h-240l10 37q11 0 14 1q37 1 49.5 9.5t12.5 30.5q0 14 -5 42l-19 111h-225l-48 -104q-16 -35 -16 -53q0 -19 16 -27t57 -10l-9 -37h-213zM235 274h198l-48 329z" />
<glyph unicode="&#xc5;" horiz-adv-x="637" d="M428 721q-33 0 -56.5 23.5t-23.5 56.5t23.5 56.5t56.5 23.5t56.5 -23.5t23.5 -56.5t-23.5 -56.5t-56.5 -23.5zM428 758q18 0 30.5 12.5t12.5 30.5t-12.5 30.5t-30.5 12.5t-30.5 -12.5t-12.5 -30.5t12.5 -30.5t30.5 -12.5zM2 0l10 37q39 11 61 32t47 73l252 517q3 1 7 1 q29 6 76 23l96 -570q9 -53 20 -63.5t57 -12.5l-10 -37h-240l10 37q11 0 14 1q37 1 49.5 9.5t12.5 30.5q0 14 -5 42l-19 111h-225l-48 -104q-16 -35 -16 -53q0 -19 16 -27t57 -10l-9 -37h-213zM235 274h198l-48 329z" />
<glyph unicode="&#xc6;" horiz-adv-x="999" d="M-65 0l9 37q64 17 114 74l404 462q27 31 27 45q0 12 -22 12q-38 0 -56 1l17 36h523l28 -168l-35 -8q-37 78 -78 107t-114 29q-40 0 -56.5 -12.5t-26.5 -47.5l-54 -202h22q76 0 113 21t62 79h37l-71 -264h-36q2 18 2 22q2 26 2 32q0 73 -113 73q-1 0 -11 -0.5t-18 -0.5 l-59 -220q-8 -31 -8 -40q0 -17 14.5 -22.5t57.5 -5.5q99 0 165.5 31t137.5 111l32 -20l-81 -161h-517l10 37l14 1q44 3 57 15.5t27 61.5l31 113h-263l-95 -117q-19 -25 -19 -34q0 -18 15.5 -27t52.5 -13l-10 -37h-231zM257 271h239l89 333q5 17 5 20q0 8 -8 8t-16 -7.5 t-38 -41.5z" />
<glyph unicode="&#xc7;" horiz-adv-x="625" d="M178 -119q52 -33 93 -33q23 0 37 11t14 29q0 16 -11 25t-29 9q-10 0 -16 -1q-11 0 -19 -1l27 66q-96 13 -154.5 82.5t-58.5 170.5q0 106 54 210.5t140 169.5t173 65q45 0 90 -20q30 -14 41 -14q18 0 63 24l26 -190l-39 -6q-34 89 -76 129t-101 40q-111 0 -191 -133 q-78 -131 -78 -266q0 -90 46.5 -144t124.5 -54q135 0 231 154l32 -20q-113 -198 -291 -200l-14 -33q16 5 27 5q29 0 49 -18.5t20 -45.5q0 -34 -33 -57.5t-81 -23.5q-60 0 -115 40z" />
<glyph unicode="&#xc8;" horiz-adv-x="637" d="M417 728l-93 64q-25 17 -32 25t-7 20q0 14 9.5 24.5t22.5 10.5q14 0 35 -26l88 -107zM-15 0l10 37l16 1q43 3 57.5 16t27.5 61l116 437q9 36 9 44q0 32 -51 33l-30 1l10 37h467l27 -170l-34 -8q-37 79 -82.5 109t-126.5 30q-47 0 -64.5 -12.5t-28.5 -54.5l-52 -196h21 q82 0 116 18.5t64 80.5h34l-70 -263h-34q4 31 4 46q0 43 -25 60t-95 20q-3 1 -12 1.5t-13 0.5l-55 -208q-10 -36 -10 -49q0 -19 18 -25.5t70 -6.5q90 0 150.5 29t139.5 110l28 -18l-78 -161h-524z" />
<glyph unicode="&#xc9;" horiz-adv-x="637" d="M401 736l-19 11l148 95q36 22 49 22q12 0 20.5 -7.5t8.5 -17.5q0 -15 -13 -24.5t-52 -24.5zM-15 0l10 37l16 1q43 3 57.5 16t27.5 61l116 437q9 36 9 44q0 32 -51 33l-30 1l10 37h467l27 -170l-34 -8q-37 79 -82.5 109t-126.5 30q-47 0 -64.5 -12.5t-28.5 -54.5l-52 -196 h21q82 0 116 18.5t64 80.5h34l-70 -263h-34q4 31 4 46q0 43 -25 60t-95 20q-3 1 -12 1.5t-13 0.5l-55 -208q-10 -36 -10 -49q0 -19 18 -25.5t70 -6.5q90 0 150.5 29t139.5 110l28 -18l-78 -161h-524z" />
<glyph unicode="&#xca;" horiz-adv-x="637" d="M276 737l136 126h48l79 -126h-23l-85 73l-125 -73h-30zM-15 0l10 37l16 1q43 3 57.5 16t27.5 61l116 437q9 36 9 44q0 32 -51 33l-30 1l10 37h467l27 -170l-34 -8q-37 79 -82.5 109t-126.5 30q-47 0 -64.5 -12.5t-28.5 -54.5l-52 -196h21q82 0 116 18.5t64 80.5h34 l-70 -263h-34q4 31 4 46q0 43 -25 60t-95 20q-3 1 -12 1.5t-13 0.5l-55 -208q-10 -36 -10 -49q0 -19 18 -25.5t70 -6.5q90 0 150.5 29t139.5 110l28 -18l-78 -161h-524z" />
<glyph unicode="&#xcb;" horiz-adv-x="637" d="M533 752q-19 0 -33.5 14t-14.5 34t14.5 34t33.5 14t33.5 -14t14.5 -34t-14.5 -34t-33.5 -14zM331 751q-19 0 -33.5 14.5t-14.5 33.5t14.5 33.5t33.5 14.5q20 0 34 -14t14 -34t-14 -34t-34 -14zM-15 0l10 37l16 1q43 3 57.5 16t27.5 61l116 437q9 36 9 44q0 32 -51 33 l-30 1l10 37h467l27 -170l-34 -8q-37 79 -82.5 109t-126.5 30q-47 0 -64.5 -12.5t-28.5 -54.5l-52 -196h21q82 0 116 18.5t64 80.5h34l-70 -263h-34q4 31 4 46q0 43 -25 60t-95 20q-3 1 -12 1.5t-13 0.5l-55 -208q-10 -36 -10 -49q0 -19 18 -25.5t70 -6.5q90 0 150.5 29 t139.5 110l28 -18l-78 -161h-524z" />
<glyph unicode="&#xcc;" horiz-adv-x="340" d="M315 728l-93 64q-25 17 -32 25t-7 20q0 14 9.5 24.5t22.5 10.5q14 0 35 -26l88 -107zM-15 0l10 37l16 1q44 3 58 16t27 61l117 437q8 32 8 44q0 32 -51 33l-30 1l10 37h267l-10 -37l-16 -1q-45 -3 -58.5 -15.5t-26.5 -61.5l-117 -437q-9 -35 -9 -47q0 -29 52 -30l30 -1 l-10 -37h-267z" />
<glyph unicode="&#xcd;" horiz-adv-x="340" d="M299 736l-19 11l148 95q36 22 49 22q12 0 20.5 -7.5t8.5 -17.5q0 -15 -13 -24.5t-52 -24.5zM-15 0l10 37l16 1q44 3 58 16t27 61l117 437q8 32 8 44q0 32 -51 33l-30 1l10 37h267l-10 -37l-16 -1q-45 -3 -58.5 -15.5t-26.5 -61.5l-117 -437q-9 -35 -9 -47q0 -29 52 -30 l30 -1l-10 -37h-267z" />
<glyph unicode="&#xce;" horiz-adv-x="340" d="M174 737l136 126h48l79 -126h-23l-85 73l-125 -73h-30zM-15 0l10 37l16 1q44 3 58 16t27 61l117 437q8 32 8 44q0 32 -51 33l-30 1l10 37h267l-10 -37l-16 -1q-45 -3 -58.5 -15.5t-26.5 -61.5l-117 -437q-9 -35 -9 -47q0 -29 52 -30l30 -1l-10 -37h-267z" />
<glyph unicode="&#xcf;" horiz-adv-x="340" d="M398 752q-20 0 -34 14t-14 34t14 34t34 14t34 -14t14 -34t-14 -34t-34 -14zM256 751q-20 0 -34 14.5t-14 33.5t14 33.5t34 14.5t34 -14t14 -34t-14 -34t-34 -14zM-15 0l10 37l16 1q44 3 58 16t27 61l117 437q8 32 8 44q0 32 -51 33l-30 1l10 37h267l-10 -37l-16 -1 q-45 -3 -58.5 -15.5t-26.5 -61.5l-117 -437q-9 -35 -9 -47q0 -29 52 -30l30 -1l-10 -37h-267z" />
<glyph unicode="&#xd0;" horiz-adv-x="661" d="M-15 0l10 37l16 1q43 3 57.5 16t27.5 61l55 208h-79l9 37h80l52 192q8 28 8 44q0 32 -51 33l-30 1l10 37h198q88 0 133.5 -11t83.5 -42q95 -76 95 -210q0 -101 -51 -194t-137 -150q-92 -60 -238 -60h-249zM178 64q0 -15 14 -21t48 -6q159 0 236 120q36 58 61 144.5 t25 155.5q0 82 -41.5 127t-117.5 45q-62 0 -81 -30q-6 -10 -19 -58l-48 -181h151l-9 -37h-152l-62 -229q-5 -22 -5 -30z" />
<glyph unicode="&#xd1;" horiz-adv-x="679" d="M345 758q25 47 47.5 67t48.5 20q16 0 76 -24q31 -12 48 -12q12 0 21.5 7.5t26.5 31.5l28 -11q-48 -85 -100 -85q-18 0 -51 13q-52 22 -70 22q-12 0 -21 -7t-24 -29zM-15 0l10 37q50 8 72.5 32.5t40.5 90.5l117 437q-11 18 -25.5 24t-58.5 9l10 37h154l209 -520l101 379 q9 32 9 53q0 25 -13.5 34.5t-60.5 16.5l10 37h216l-10 -37q-53 -6 -72 -24t-35 -77l-146 -546h-29l-227 571l-108 -402q-11 -40 -11 -56q0 -28 15.5 -41.5t51.5 -16.5q11 0 20 -1l-10 -37h-230z" />
<glyph unicode="&#xd2;" horiz-adv-x="654" d="M425 728l-93 64q-25 17 -32 25t-7 20q0 14 9.5 24.5t22.5 10.5q14 0 35 -26l88 -107zM61 246q0 107 52 209t136 165.5t172 63.5q94 0 163.5 -80t69.5 -190q0 -103 -52 -204t-135 -164t-168 -63q-100 0 -169 76t-69 187zM154 185q0 -74 38 -119.5t100 -45.5q115 0 188 136 q78 143 78 307q0 81 -26 123q-17 28 -48 44.5t-65 16.5q-51 0 -96.5 -30.5t-75.5 -84.5q-42 -76 -67.5 -171.5t-25.5 -175.5z" />
<glyph unicode="&#xd3;" horiz-adv-x="654" d="M409 736l-19 11l148 95q36 22 49 22q12 0 20.5 -7.5t8.5 -17.5q0 -15 -13 -24.5t-52 -24.5zM61 246q0 107 52 209t136 165.5t172 63.5q94 0 163.5 -80t69.5 -190q0 -103 -52 -204t-135 -164t-168 -63q-100 0 -169 76t-69 187zM154 185q0 -74 38 -119.5t100 -45.5 q115 0 188 136q78 143 78 307q0 81 -26 123q-17 28 -48 44.5t-65 16.5q-51 0 -96.5 -30.5t-75.5 -84.5q-42 -76 -67.5 -171.5t-25.5 -175.5z" />
<glyph unicode="&#xd4;" horiz-adv-x="654" d="M285 737l136 126h48l79 -126h-23l-85 73l-125 -73h-30zM61 246q0 107 52 209t136 165.5t172 63.5q94 0 163.5 -80t69.5 -190q0 -103 -52 -204t-135 -164t-168 -63q-100 0 -169 76t-69 187zM154 185q0 -74 38 -119.5t100 -45.5q115 0 188 136q78 143 78 307q0 81 -26 123 q-17 28 -48 44.5t-65 16.5q-51 0 -96.5 -30.5t-75.5 -84.5q-42 -76 -67.5 -171.5t-25.5 -175.5z" />
<glyph unicode="&#xd5;" horiz-adv-x="654" d="M286 758q25 47 47.5 67t48.5 20q16 0 76 -24q31 -12 48 -12q12 0 21.5 7.5t26.5 31.5l28 -11q-48 -85 -100 -85q-18 0 -51 13q-52 22 -70 22q-12 0 -21 -7t-24 -29zM61 246q0 107 52 209t136 165.5t172 63.5q94 0 163.5 -80t69.5 -190q0 -103 -52 -204t-135 -164 t-168 -63q-100 0 -169 76t-69 187zM154 185q0 -74 38 -119.5t100 -45.5q115 0 188 136q78 143 78 307q0 81 -26 123q-17 28 -48 44.5t-65 16.5q-51 0 -96.5 -30.5t-75.5 -84.5q-42 -76 -67.5 -171.5t-25.5 -175.5z" />
<glyph unicode="&#xd6;" horiz-adv-x="654" d="M541 752q-19 0 -33.5 14t-14.5 34t14.5 34t33.5 14t33.5 -14t14.5 -34t-14.5 -34t-33.5 -14zM339 751q-19 0 -33.5 14.5t-14.5 33.5t14.5 33.5t33.5 14.5q20 0 34 -14t14 -34t-14 -34t-34 -14zM61 246q0 107 52 209t136 165.5t172 63.5q94 0 163.5 -80t69.5 -190 q0 -103 -52 -204t-135 -164t-168 -63q-100 0 -169 76t-69 187zM154 185q0 -74 38 -119.5t100 -45.5q115 0 188 136q78 143 78 307q0 81 -26 123q-17 28 -48 44.5t-65 16.5q-51 0 -96.5 -30.5t-75.5 -84.5q-42 -76 -67.5 -171.5t-25.5 -175.5z" />
<glyph unicode="&#xd7;" d="M118 142l-33 33l148 148l-148 149l33 33l148 -149l149 149l33 -33l-149 -149l149 -148l-33 -33l-149 148z" />
<glyph unicode="&#xd8;" horiz-adv-x="646" d="M69 18l45 55q-56 73 -56 175q0 105 52 207t135 165.5t168 63.5q86 0 152 -63l45 54l29 -24l-48 -60q59 -78 59 -178q0 -103 -52 -203.5t-134.5 -163.5t-166.5 -63q-90 0 -156 60l-42 -51zM158 127l374 453q-40 67 -119 67q-49 0 -95 -31t-75 -84q-42 -75 -67.5 -169.5 t-25.5 -173.5q0 -29 8 -62zM175 84q39 -64 115 -64q113 0 186 135q78 146 78 307q0 41 -7 76z" />
<glyph unicode="&#xd9;" horiz-adv-x="671" d="M481 728l-93 64q-25 17 -32 25t-7 20q0 14 9.5 24.5t22.5 10.5q14 0 35 -26l88 -107zM112 159q0 41 17 105l77 288q9 33 9 43q0 18 -11 25.5t-41 8.5l-22 1l10 37h260l-10 -37l-17 -1q-44 -2 -57.5 -15t-26.5 -62l-83 -310q-16 -59 -16 -92q0 -59 34 -92t94 -33 q73 0 122.5 53t79.5 164l80 296q7 24 7 39q0 23 -16.5 34.5t-59.5 18.5l10 37h210l-10 -37q-44 -7 -64.5 -26t-33.5 -66l-81 -303q-36 -134 -96 -192.5t-160 -58.5q-96 0 -150.5 46.5t-54.5 128.5z" />
<glyph unicode="&#xda;" horiz-adv-x="671" d="M446 747l148 95q36 22 49 22q12 0 20.5 -7.5t8.5 -17.5q0 -15 -13 -24.5t-52 -24.5l-142 -54zM112 159q0 41 17 105l77 288q9 33 9 43q0 18 -11 25.5t-41 8.5l-22 1l10 37h260l-10 -37l-17 -1q-44 -2 -57.5 -15t-26.5 -62l-83 -310q-16 -59 -16 -92q0 -59 34 -92t94 -33 q73 0 122.5 53t79.5 164l80 296q7 24 7 39q0 23 -16.5 34.5t-59.5 18.5l10 37h210l-10 -37q-44 -7 -64.5 -26t-33.5 -66l-81 -303q-36 -134 -96 -192.5t-160 -58.5q-96 0 -150.5 46.5t-54.5 128.5z" />
<glyph unicode="&#xdb;" horiz-adv-x="671" d="M340 737l136 126h48l79 -126h-23l-85 73l-125 -73h-30zM112 159q0 41 17 105l77 288q9 33 9 43q0 18 -11 25.5t-41 8.5l-22 1l10 37h260l-10 -37l-17 -1q-44 -2 -57.5 -15t-26.5 -62l-83 -310q-16 -59 -16 -92q0 -59 34 -92t94 -33q73 0 122.5 53t79.5 164l80 296 q7 24 7 39q0 23 -16.5 34.5t-59.5 18.5l10 37h210l-10 -37q-44 -7 -64.5 -26t-33.5 -66l-81 -303q-36 -134 -96 -192.5t-160 -58.5q-96 0 -150.5 46.5t-54.5 128.5z" />
<glyph unicode="&#xdc;" horiz-adv-x="671" d="M597 752q-19 0 -33.5 14t-14.5 34t14.5 34t33.5 14t33.5 -14t14.5 -34t-14.5 -34t-33.5 -14zM395 751q-19 0 -33.5 14.5t-14.5 33.5t14.5 33.5t33.5 14.5q20 0 34 -14t14 -34t-14 -34t-34 -14zM112 159q0 41 17 105l77 288q9 33 9 43q0 18 -11 25.5t-41 8.5l-22 1l10 37 h260l-10 -37l-17 -1q-44 -2 -57.5 -15t-26.5 -62l-83 -310q-16 -59 -16 -92q0 -59 34 -92t94 -33q73 0 122.5 53t79.5 164l80 296q7 24 7 39q0 23 -16.5 34.5t-59.5 18.5l10 37h210l-10 -37q-44 -7 -64.5 -26t-33.5 -66l-81 -303q-36 -134 -96 -192.5t-160 -58.5 q-96 0 -150.5 46.5t-54.5 128.5z" />
<glyph unicode="&#xdd;" horiz-adv-x="579" d="M418 736l-19 11l148 95q35 22 49 22q12 0 20.5 -7.5t8.5 -17.5q0 -15 -13 -25t-51 -24zM77 0l10 37l23 1q41 1 56.5 15.5t28.5 61.5l40 149l-74 301q-10 40 -25 52t-59 13l9 37h247l-10 -37h-11q-36 0 -50.5 -7.5t-14.5 -25.5q0 -9 2 -14l63 -263l202 245q17 21 17 37 q0 15 -10 20t-42 7q-2 0 -7.5 0.5t-9.5 0.5l10 37h213l-10 -37q-35 -5 -55.5 -18.5t-54.5 -54.5l-233 -277l-44 -165q-9 -33 -9 -47q0 -29 52 -30l36 -1l-10 -37h-280z" />
<glyph unicode="&#xde;" horiz-adv-x="567" d="M-15 0l10 37l16 1q44 3 58 16t27 61l117 437q8 29 8 43q0 18 -11.5 25.5t-39.5 8.5l-30 1l10 37h267l-10 -37l-16 -1q-47 -3 -61.5 -20t-31.5 -89h46q98 0 151 -26q35 -17 57 -51.5t22 -72.5q0 -70 -48 -125t-124 -72q-54 -13 -162 -13q-23 0 -38 1l-13 -46 q-9 -32 -9 -47q0 -29 52 -30l36 -1l-10 -37h-273zM212 200h39q99 0 139 20q35 17 60 69.5t25 108.5q0 46 -29.5 65.5t-98.5 19.5q-34 0 -50 -13t-26 -48z" />
<glyph unicode="&#xdf;" horiz-adv-x="464" d="M64 -56q-32 -56 -69.5 -88t-72.5 -32q-18 0 -30.5 12.5t-12.5 30.5t13.5 30.5t33.5 12.5q1 0 6.5 -0.5t9.5 -0.5q14 -2 19 -2q30 0 44 13.5t25 51.5t26 130q22 125 63 293q37 149 84.5 212.5t123.5 63.5q56 0 90 -36t34 -97q0 -66 -36 -111t-96 -52q47 -15 73 -57 t26 -103q0 -90 -54.5 -159t-125.5 -69q-38 0 -62 20.5t-24 54.5q0 25 13 40t33 15q19 0 31 -11.5t12 -30.5q0 -9 -4 -29q-2 -8 -2 -9q-2 -10 10 -10q31 0 60.5 75.5t29.5 155.5q0 52 -17 75t-63 31q-18 3 -18 19q0 8 6.5 14t14.5 6q1 0 11 -2q5 -1 16 -1q39 0 56 33 q29 60 29 127q0 33 -15.5 53t-41.5 20q-45 0 -72.5 -67.5t-68.5 -279.5q-46 -231 -108 -342z" />
<glyph unicode="&#xe0;" horiz-adv-x="473" d="M301 479l-80 80q-30 30 -30 47q0 13 10.5 23.5t23.5 10.5q10 0 16.5 -6.5t17.5 -26.5l66 -121zM12 104q0 108 87 220q43 56 94 89t95 33q58 0 72 -55l23 54h71l-4 -9l-3 -9l-4 -9q-5 -12 -30 -79q-43 -116 -75 -215q-18 -54 -19 -67q0 -13 10 -13q19 1 86 94l26 -19 q-85 -133 -148 -133q-20 0 -34.5 15.5t-14.5 36.5q0 15 9 53q-69 -105 -140 -105q-44 0 -72.5 33.5t-28.5 84.5zM88 78q0 -23 10 -37.5t26 -14.5q34 0 76.5 48t80.5 129q50 107 50 157q0 23 -13 38t-33 15q-59 0 -128 -125q-69 -126 -69 -210z" />
<glyph unicode="&#xe1;" horiz-adv-x="473" d="M290 486l127 121q33 32 51 32q11 0 19 -7t8 -17q0 -13 -10.5 -24t-44.5 -32l-130 -80zM12 104q0 108 87 220q43 56 94 89t95 33q58 0 72 -55l23 54h71l-4 -9l-3 -9l-4 -9q-5 -12 -30 -79q-43 -116 -75 -215q-18 -54 -19 -67q0 -13 10 -13q19 1 86 94l26 -19 q-85 -133 -148 -133q-20 0 -34.5 15.5t-14.5 36.5q0 15 9 53q-69 -105 -140 -105q-44 0 -72.5 33.5t-28.5 84.5zM88 78q0 -23 10 -37.5t26 -14.5q34 0 76.5 48t80.5 129q50 107 50 157q0 23 -13 38t-33 15q-59 0 -128 -125q-69 -126 -69 -210z" />
<glyph unicode="&#xe2;" horiz-adv-x="473" d="M183 483l136 152h49l64 -152h-23l-70 99l-126 -99h-30zM12 104q0 108 87 220q43 56 94 89t95 33q58 0 72 -55l23 54h71l-4 -9l-3 -9l-4 -9q-5 -12 -30 -79q-43 -116 -75 -215q-18 -54 -19 -67q0 -13 10 -13q19 1 86 94l26 -19q-85 -133 -148 -133q-20 0 -34.5 15.5 t-14.5 36.5q0 15 9 53q-69 -105 -140 -105q-44 0 -72.5 33.5t-28.5 84.5zM88 78q0 -23 10 -37.5t26 -14.5q34 0 76.5 48t80.5 129q50 107 50 157q0 23 -13 38t-33 15q-59 0 -128 -125q-69 -126 -69 -210z" />
<glyph unicode="&#xe3;" horiz-adv-x="473" d="M199 526q26 48 45.5 67.5t40.5 19.5q15 0 52 -21q42 -24 54 -24t18.5 6.5t22.5 33.5l27 -10q-25 -47 -45 -67t-41 -20q-15 0 -52 21q-42 24 -54 24q-11 0 -18 -6.5t-19 -28.5l-4 -5zM12 104q0 108 87 220q43 56 94 89t95 33q58 0 72 -55l23 54h71l-4 -9l-3 -9l-4 -9 q-5 -12 -30 -79q-43 -116 -75 -215q-18 -54 -19 -67q0 -13 10 -13q19 1 86 94l26 -19q-85 -133 -148 -133q-20 0 -34.5 15.5t-14.5 36.5q0 15 9 53q-69 -105 -140 -105q-44 0 -72.5 33.5t-28.5 84.5zM88 78q0 -23 10 -37.5t26 -14.5q34 0 76.5 48t80.5 129q50 107 50 157 q0 23 -13 38t-33 15q-59 0 -128 -125q-69 -126 -69 -210z" />
<glyph unicode="&#xe4;" horiz-adv-x="473" d="M406 512q-20 0 -34 14t-14 34t14 34t34 14t34 -14t14 -34t-14 -34t-34 -14zM251 511q-19 0 -33.5 14.5t-14.5 33.5t14.5 33.5t33.5 14.5q20 0 34 -14t14 -34t-14 -34t-34 -14zM12 104q0 108 87 220q43 56 94 89t95 33q58 0 72 -55l23 54h71l-4 -9l-3 -9l-4 -9 q-5 -12 -30 -79q-43 -116 -75 -215q-18 -54 -19 -67q0 -13 10 -13q19 1 86 94l26 -19q-85 -133 -148 -133q-20 0 -34.5 15.5t-14.5 36.5q0 15 9 53q-69 -105 -140 -105q-44 0 -72.5 33.5t-28.5 84.5zM88 78q0 -23 10 -37.5t26 -14.5q34 0 76.5 48t80.5 129q50 107 50 157 q0 23 -13 38t-33 15q-59 0 -128 -125q-69 -126 -69 -210z" />
<glyph unicode="&#xe5;" horiz-adv-x="473" d="M329 480q-33 0 -56.5 23.5t-23.5 56.5t23.5 56.5t56.5 23.5t56.5 -23.5t23.5 -56.5t-23.5 -56.5t-56.5 -23.5zM329 517q18 0 30.5 12.5t12.5 30.5t-12.5 30.5t-30.5 12.5t-30.5 -12.5t-12.5 -30.5t12.5 -30.5t30.5 -12.5zM12 104q0 108 87 220q43 56 94 89t95 33 q58 0 72 -55l23 54h71l-4 -9l-3 -9l-4 -9q-5 -12 -30 -79q-43 -116 -75 -215q-18 -54 -19 -67q0 -13 10 -13q19 1 86 94l26 -19q-85 -133 -148 -133q-20 0 -34.5 15.5t-14.5 36.5q0 15 9 53q-69 -105 -140 -105q-44 0 -72.5 33.5t-28.5 84.5zM88 78q0 -23 10 -37.5t26 -14.5 q34 0 76.5 48t80.5 129q50 107 50 157q0 23 -13 38t-33 15q-59 0 -128 -125q-69 -126 -69 -210z" />
<glyph unicode="&#xe6;" horiz-adv-x="639" d="M10 104q0 53 25 113.5t68 114.5q43 53 93.5 84t94.5 31q48 0 68 -45l24 41h71l-11 -35q42 39 86 39q33 0 54.5 -19t21.5 -49q0 -38 -33 -83t-89 -85q-38 -27 -124 -68v-32q0 -79 52 -79q49 0 146 112l27 -19q-109 -138 -195 -138q-97 0 -115 127q-92 -127 -165 -127 q-41 0 -70 34t-29 83zM361 173q80 47 116 81q29 28 47.5 63t18.5 63q0 15 -9 24.5t-23 9.5q-44 0 -90 -80q-34 -58 -60 -161zM87 79q0 -24 10.5 -38t28.5 -14q45 0 109 97q38 60 66 131.5t28 109.5q0 19 -13 32t-33 15q-30 2 -67 -38.5t-75 -115.5q-54 -106 -54 -179z" />
<glyph unicode="&#xe7;" horiz-adv-x="361" d="M92 -76l27 65q-43 10 -70 50t-27 93q0 71 37 145t94.5 121.5t112.5 47.5q39 0 65 -21.5t26 -53.5q0 -22 -12 -35.5t-32 -13.5q-18 0 -30.5 13.5t-12.5 32.5q0 10 1 17q1 3 1 8q0 16 -18 16q-58 0 -103 -112q-19 -48 -33 -107.5t-14 -93.5q0 -29 14.5 -47t39.5 -18 q51 0 137 102l25 -21q-49 -63 -88 -92t-84 -33l-15 -36q17 6 29 6q28 0 48 -17.5t20 -43.5q0 -35 -32.5 -58t-81.5 -23q-39 0 -92 27l17 28q45 -21 73 -21q23 0 37.5 11.5t14.5 30.5q0 16 -11.5 25.5t-30.5 9.5q-13 0 -22 -1q-1 0 -4.5 -0.5t-5.5 -0.5z" />
<glyph unicode="&#xe8;" horiz-adv-x="357" d="M277 479l-80 80q-30 30 -30 47q0 13 10.5 23.5t23.5 10.5q10 0 16.5 -6.5t17.5 -26.5l66 -121zM23 130q0 73 38 147t96.5 121.5t116.5 47.5q32 0 53.5 -20.5t21.5 -51.5q0 -68 -92 -145q-43 -36 -78 -54l-38 -20l-18 -10l-16 -9q-1 -11 -1 -26q0 -78 50 -78q28 0 62 25.5 t89 87.5l25 -23q-106 -135 -196 -135q-50 0 -81.5 40t-31.5 103zM112 172l14 9q53 33 76 50.5t41 40.5q44 54 44 105q0 36 -28 36q-44 0 -87.5 -71.5t-59.5 -169.5z" />
<glyph unicode="&#xe9;" horiz-adv-x="357" d="M232 486l127 121q33 32 51 32q11 0 19 -7t8 -17q0 -13 -10.5 -24t-44.5 -32l-130 -80zM23 130q0 73 38 147t96.5 121.5t116.5 47.5q32 0 53.5 -20.5t21.5 -51.5q0 -68 -92 -145q-43 -36 -78 -54l-38 -20l-18 -10l-16 -9q-1 -11 -1 -26q0 -78 50 -78q28 0 62 25.5t89 87.5 l25 -23q-106 -135 -196 -135q-50 0 -81.5 40t-31.5 103zM112 172l14 9q53 33 76 50.5t41 40.5q44 54 44 105q0 36 -28 36q-44 0 -87.5 -71.5t-59.5 -169.5z" />
<glyph unicode="&#xea;" horiz-adv-x="357" d="M139 483l136 152h49l64 -152h-23l-70 99l-126 -99h-30zM23 130q0 73 38 147t96.5 121.5t116.5 47.5q32 0 53.5 -20.5t21.5 -51.5q0 -68 -92 -145q-43 -36 -78 -54l-38 -20l-18 -10l-16 -9q-1 -11 -1 -26q0 -78 50 -78q28 0 62 25.5t89 87.5l25 -23q-106 -135 -196 -135 q-50 0 -81.5 40t-31.5 103zM112 172l14 9q53 33 76 50.5t41 40.5q44 54 44 105q0 36 -28 36q-44 0 -87.5 -71.5t-59.5 -169.5z" />
<glyph unicode="&#xeb;" horiz-adv-x="357" d="M348 512q-20 0 -34 14t-14 34t14 34t34 14t34 -14t14 -34t-14 -34t-34 -14zM193 511q-19 0 -33.5 14.5t-14.5 33.5t14.5 33.5t33.5 14.5q20 0 34 -14t14 -34t-14 -34t-34 -14zM23 130q0 73 38 147t96.5 121.5t116.5 47.5q32 0 53.5 -20.5t21.5 -51.5q0 -68 -92 -145 q-43 -36 -78 -54l-38 -20l-18 -10l-16 -9q-1 -11 -1 -26q0 -78 50 -78q28 0 62 25.5t89 87.5l25 -23q-106 -135 -196 -135q-50 0 -81.5 40t-31.5 103zM112 172l14 9q53 33 76 50.5t41 40.5q44 54 44 105q0 36 -28 36q-44 0 -87.5 -71.5t-59.5 -169.5z" />
<glyph unicode="&#xec;" horiz-adv-x="283" d="M206 479l-80 80q-30 30 -30 47q0 13 10.5 23.5t23.5 10.5q10 0 16.5 -6.5t17.5 -26.5l66 -121zM56 46q0 22 20 84l69 214q10 30 10 35q0 10 -8 10q-5 0 -23 -22q-14 -18 -51 -72q-1 -2 -11 -16l-31 21q48 77 83.5 111.5t67.5 34.5q23 0 36.5 -14t13.5 -37q0 -17 -14 -60 l-54 -171q-12 -39 -18.5 -56.5t-7.5 -21.5q-5 -18 -5 -26q0 -10 10 -10q21 1 89 107l28 -19q-88 -151 -155 -151q-21 0 -35 17t-14 42z" />
<glyph unicode="&#xed;" horiz-adv-x="283" d="M162 486l127 121q33 32 51 32q11 0 19 -7t8 -17q0 -13 -10.5 -24t-44.5 -32l-130 -80zM56 46q0 22 20 84l69 214q10 30 10 35q0 10 -8 10q-5 0 -23 -22q-14 -18 -51 -72q-1 -2 -11 -16l-31 21q48 77 83.5 111.5t67.5 34.5q23 0 36.5 -14t13.5 -37q0 -17 -14 -60l-54 -171 q-12 -39 -18.5 -56.5t-7.5 -21.5q-5 -18 -5 -26q0 -10 10 -10q21 1 89 107l28 -19q-88 -151 -155 -151q-21 0 -35 17t-14 42z" />
<glyph unicode="&#xee;" horiz-adv-x="283" d="M68 483l136 152h49l64 -152h-23l-70 99l-126 -99h-30zM56 46q0 22 20 84l69 214q10 30 10 35q0 10 -8 10q-5 0 -23 -22q-14 -18 -51 -72q-1 -2 -11 -16l-31 21q48 77 83.5 111.5t67.5 34.5q23 0 36.5 -14t13.5 -37q0 -17 -14 -60l-54 -171q-12 -39 -18.5 -56.5 t-7.5 -21.5q-5 -18 -5 -26q0 -10 10 -10q21 1 89 107l28 -19q-88 -151 -155 -151q-21 0 -35 17t-14 42z" />
<glyph unicode="&#xef;" horiz-adv-x="283" d="M289 512q-19 0 -33 14t-14 33t14 33t33 14t33 -14t14 -33t-14 -33t-33 -14zM167 511q-19 0 -33 13.5t-14 33.5t14 33.5t33 13.5t33 -13.5t14 -33.5t-14 -33.5t-33 -13.5zM56 46q0 22 20 84l69 214q10 30 10 35q0 10 -8 10q-5 0 -23 -22q-14 -18 -51 -72q-1 -2 -11 -16 l-31 21q48 77 83.5 111.5t67.5 34.5q23 0 36.5 -14t13.5 -37q0 -17 -14 -60l-54 -171q-12 -39 -18.5 -56.5t-7.5 -21.5q-5 -18 -5 -26q0 -10 10 -10q21 1 89 107l28 -19q-88 -151 -155 -151q-21 0 -35 17t-14 42z" />
<glyph unicode="&#xf0;" horiz-adv-x="412" d="M22 134q0 73 35 146t90.5 119.5t110.5 46.5q12 0 31 -4l-20 87l-86 -24l-11 39l87 24l-23 92l37 10l29 -89l87 25l11 -39l-85 -23l54 -163q18 -53 18 -95q0 -104 -75.5 -201.5t-156.5 -97.5q-57 0 -95 42t-38 105zM101 104q0 -84 55 -84q34 0 60.5 29.5t51.5 94.5 q43 116 43 197q0 33 -16 52.5t-42 19.5q-31 0 -56 -27t-49 -86q-19 -48 -33 -105.5t-14 -90.5z" />
<glyph unicode="&#xf1;" horiz-adv-x="529" d="M227 526q26 48 45.5 67.5t40.5 19.5q15 0 52 -21q42 -24 54 -24t18.5 6.5t22.5 33.5l27 -10q-25 -47 -45 -67t-41 -20q-15 0 -52 21q-42 24 -54 24q-11 0 -18 -6.5t-19 -28.5l-4 -5zM36 0q17 43 55 149q37 108 53 164q13 45 13 57q0 15 -10 15q-8 0 -31 -26 q-12 -14 -25 -32l-20 -28l-11 -14l-9 -13l-28 19q63 91 96.5 123.5t63.5 32.5q22 0 34.5 -16.5t12.5 -44.5q0 -31 -27 -124q-15 -50 -24 -75q42 74 99 154q41 56 73.5 81t63.5 25q25 0 41.5 -18.5t16.5 -44.5t-26 -109q-1 -4 -8.5 -26l-14.5 -41q-9 -24 -16.5 -48t-8.5 -27 q-23 -60 -23 -76q0 -12 9 -12q20 0 88 106l29 -20q-87 -144 -153 -144q-23 0 -37.5 16.5t-14.5 41.5t20 81l36 104l24 71q17 50 17 65q0 20 -14 20q-24 0 -86 -85q-67 -93 -126 -204q-45 -86 -52 -97h-80z" />
<glyph unicode="&#xf2;" horiz-adv-x="412" d="M271 479l-80 80q-30 30 -30 47q0 13 10.5 23.5t23.5 10.5q10 0 16.5 -6.5t17.5 -26.5l66 -121zM22 133q0 112 75.5 212.5t160.5 100.5q57 0 94 -45t37 -113q0 -107 -75.5 -204t-158.5 -97q-56 0 -94.5 42t-38.5 104zM101 104q0 -84 55 -84q34 0 60.5 29.5t51.5 94.5 q43 116 43 197q0 33 -16 52.5t-42 19.5q-31 0 -56 -27t-49 -86q-19 -48 -33 -105.5t-14 -90.5z" />
<glyph unicode="&#xf3;" horiz-adv-x="412" d="M259 486l127 121q33 32 51 32q11 0 19 -7t8 -17q0 -13 -10.5 -24t-44.5 -32l-130 -80zM22 133q0 112 75.5 212.5t160.5 100.5q57 0 94 -45t37 -113q0 -107 -75.5 -204t-158.5 -97q-56 0 -94.5 42t-38.5 104zM101 104q0 -84 55 -84q34 0 60.5 29.5t51.5 94.5 q43 116 43 197q0 33 -16 52.5t-42 19.5q-31 0 -56 -27t-49 -86q-19 -48 -33 -105.5t-14 -90.5z" />
<glyph unicode="&#xf4;" horiz-adv-x="412" d="M153 483l136 152h49l64 -152h-23l-70 99l-126 -99h-30zM22 133q0 112 75.5 212.5t160.5 100.5q57 0 94 -45t37 -113q0 -107 -75.5 -204t-158.5 -97q-56 0 -94.5 42t-38.5 104zM101 104q0 -84 55 -84q34 0 60.5 29.5t51.5 94.5q43 116 43 197q0 33 -16 52.5t-42 19.5 q-31 0 -56 -27t-49 -86q-19 -48 -33 -105.5t-14 -90.5z" />
<glyph unicode="&#xf5;" horiz-adv-x="412" d="M196 516l-27 10q26 48 45.5 67.5t40.5 19.5q15 0 52 -21q42 -24 54 -24t18.5 6.5t22.5 33.5l27 -10q-25 -47 -45 -67t-41 -20q-15 0 -52 21q-42 24 -54 24q-11 0 -18 -6.5t-19 -28.5zM22 133q0 112 75.5 212.5t160.5 100.5q57 0 94 -45t37 -113q0 -107 -75.5 -204 t-158.5 -97q-56 0 -94.5 42t-38.5 104zM101 104q0 -84 55 -84q34 0 60.5 29.5t51.5 94.5q43 116 43 197q0 33 -16 52.5t-42 19.5q-31 0 -56 -27t-49 -86q-19 -48 -33 -105.5t-14 -90.5z" />
<glyph unicode="&#xf6;" horiz-adv-x="412" d="M375 512q-19 0 -33.5 14t-14.5 34t14.5 34t33.5 14t33.5 -14t14.5 -34t-14.5 -34t-33.5 -14zM220 511q-20 0 -34 14.5t-14 33.5t14 33.5t34 14.5t34 -14t14 -34t-14 -34t-34 -14zM22 133q0 112 75.5 212.5t160.5 100.5q57 0 94 -45t37 -113q0 -107 -75.5 -204t-158.5 -97 q-56 0 -94.5 42t-38.5 104zM101 104q0 -84 55 -84q34 0 60.5 29.5t51.5 94.5q43 116 43 197q0 33 -16 52.5t-42 19.5q-31 0 -56 -27t-49 -86q-19 -48 -33 -105.5t-14 -90.5z" />
<glyph unicode="&#xf7;" d="M266 441q-17 0 -29.5 12.5t-12.5 29.5t12.5 29.5t29.5 12.5t29.5 -12.5t12.5 -29.5t-12.5 -29.5t-29.5 -12.5zM59 300v47h415v-47h-415zM224 163q0 17 12.5 29.5t29.5 12.5t29.5 -12.5t12.5 -29.5t-12.5 -29.5t-29.5 -12.5t-29.5 12.5t-12.5 29.5z" />
<glyph unicode="&#xf8;" horiz-adv-x="412" d="M6 -5l41 50q-25 38 -25 90q0 110 75.5 210.5t159.5 100.5q50 0 85 -35l38 47l24 -19l-42 -52q27 -43 27 -97q0 -70 -35 -141t-89.5 -116.5t-108.5 -45.5q-53 0 -90 35l-37 -46zM101 113l206 254q-13 46 -55 46q-65 0 -115 -140q-31 -90 -36 -160zM103 68q13 -48 54 -48 q71 0 120 148q21 62 33 155z" />
<glyph unicode="&#xf9;" horiz-adv-x="529" d="M329 479l-80 80q-30 30 -30 47q0 13 10.5 23.5t23.5 10.5q10 0 16.5 -6.5t17.5 -26.5l66 -121zM59 51q0 29 31 125q4 11 12 35.5l12 36.5l10 27l9 26l10 27q13 37 13 50q0 10 -8 10t-25 -17q-14 -15 -52 -72q-3 -3 -11 -16l-31 20q46 70 68 94q45 50 82 50q23 0 39 -17.5 t16 -43.5q0 -21 -21 -84l-19 -56l-22 -63q-34 -98 -34 -114q0 -19 16 -19q25 0 92 95q60 87 111 184l62 118h81q-8 -23 -29 -79q-93 -248 -93 -302q0 -13 7 -13q9 0 38 34.5t57 78.5l30 -21q-100 -156 -153 -156q-24 0 -38.5 17.5t-14.5 47.5q0 31 15 85l27 86l8 28l-31 -53 q-125 -213 -199 -213q-27 0 -46 18.5t-19 45.5z" />
<glyph unicode="&#xfa;" horiz-adv-x="529" d="M317 486l127 121q33 32 51 32q11 0 19 -7t8 -17q0 -13 -10.5 -24t-44.5 -32l-130 -80zM59 51q0 29 31 125q4 11 12 35.5l12 36.5l10 27l9 26l10 27q13 37 13 50q0 10 -8 10t-25 -17q-14 -15 -52 -72q-3 -3 -11 -16l-31 20q46 70 68 94q45 50 82 50q23 0 39 -17.5 t16 -43.5q0 -21 -21 -84l-19 -56l-22 -63q-34 -98 -34 -114q0 -19 16 -19q25 0 92 95q60 87 111 184l62 118h81q-8 -23 -29 -79q-93 -248 -93 -302q0 -13 7 -13q9 0 38 34.5t57 78.5l30 -21q-100 -156 -153 -156q-24 0 -38.5 17.5t-14.5 47.5q0 31 15 85l27 86l8 28l-31 -53 q-125 -213 -199 -213q-27 0 -46 18.5t-19 45.5z" />
<glyph unicode="&#xfb;" horiz-adv-x="529" d="M211 483l136 152h49l64 -152h-23l-70 99l-126 -99h-30zM59 51q0 29 31 125q4 11 12 35.5l12 36.5l10 27l9 26l10 27q13 37 13 50q0 10 -8 10t-25 -17q-14 -15 -52 -72q-3 -3 -11 -16l-31 20q46 70 68 94q45 50 82 50q23 0 39 -17.5t16 -43.5q0 -21 -21 -84l-19 -56 l-22 -63q-34 -98 -34 -114q0 -19 16 -19q25 0 92 95q60 87 111 184l62 118h81q-8 -23 -29 -79q-93 -248 -93 -302q0 -13 7 -13q9 0 38 34.5t57 78.5l30 -21q-100 -156 -153 -156q-24 0 -38.5 17.5t-14.5 47.5q0 31 15 85l27 86l8 28l-31 -53q-125 -213 -199 -213 q-27 0 -46 18.5t-19 45.5z" />
<glyph unicode="&#xfc;" horiz-adv-x="529" d="M433 512q-19 0 -33.5 14t-14.5 34t14.5 34t33.5 14t33.5 -14t14.5 -34t-14.5 -34t-33.5 -14zM278 511q-20 0 -34 14.5t-14 33.5t14 33.5t34 14.5t34 -14t14 -34t-14 -34t-34 -14zM59 51q0 29 31 125q4 11 12 35.5l12 36.5l10 27l9 26l10 27q13 37 13 50q0 10 -8 10 t-25 -17q-14 -15 -52 -72q-3 -3 -11 -16l-31 20q46 70 68 94q45 50 82 50q23 0 39 -17.5t16 -43.5q0 -21 -21 -84l-19 -56l-22 -63q-34 -98 -34 -114q0 -19 16 -19q25 0 92 95q60 87 111 184l62 118h81q-8 -23 -29 -79q-93 -248 -93 -302q0 -13 7 -13q9 0 38 34.5t57 78.5 l30 -21q-100 -156 -153 -156q-24 0 -38.5 17.5t-14.5 47.5q0 31 15 85l27 86l8 28l-31 -53q-125 -213 -199 -213q-27 0 -46 18.5t-19 45.5z" />
<glyph unicode="&#xfd;" horiz-adv-x="387" d="M247 486l127 121q33 32 51 32q11 0 19 -7t8 -17q0 -13 -10.5 -24t-44.5 -32l-130 -80zM-24 -82q12 0 45 -8q14 -2 19 -2q23 0 49.5 23t74.5 84l-51 329q-4 23 -8 23q-15 0 -48 -83l-34 15q25 67 56 106t57 39q28 0 41 -37q8 -22 18 -99l28 -207l54 107q33 64 33 99 q0 13 -13 45q-11 27 -11 45q0 21 12 35t30 14q47 0 47 -67q0 -64 -54 -178q-87 -181 -174.5 -277.5t-166.5 -96.5q-23 0 -39 13.5t-16 33.5q0 19 14.5 31.5t36.5 12.5z" />
<glyph unicode="&#xfe;" horiz-adv-x="463" d="M29 -85l119 444q-46 -26 -91 -62l-23 24q57 54 128 91l34 129q9 36 9 48q0 23 -36 29q-3 0 -19 2l8 27l154 27l-63 -235q25 8 47 8q63 0 100.5 -40.5t37.5 -109.5q0 -71 -40 -145.5t-102 -119.5q-63 -46 -164 -45l-16 -60q-7 -25 -7 -35q0 -14 10.5 -19t52.5 -11l-10 -35 h-213l9 35q5 1 11 1q36 4 45.5 11.5t18.5 40.5zM138 23q42 1 64.5 8.5t44.5 25.5q45 39 73.5 104t28.5 130q0 108 -80 108q-12 0 -32 -4z" />
<glyph unicode="&#xff;" horiz-adv-x="387" d="M363 512q-19 0 -33.5 14t-14.5 34t14.5 34t33.5 14t33.5 -14t14.5 -34t-14.5 -34t-33.5 -14zM208 511q-20 0 -34 14.5t-14 33.5t14 33.5t34 14.5t34 -14t14 -34t-14 -34t-34 -14zM-24 -82q12 0 45 -8q14 -2 19 -2q23 0 49.5 23t74.5 84l-51 329q-4 23 -8 23 q-15 0 -48 -83l-34 15q25 67 56 106t57 39q28 0 41 -37q8 -22 18 -99l28 -207l54 107q33 64 33 99q0 13 -13 45q-11 27 -11 45q0 21 12 35t30 14q47 0 47 -67q0 -64 -54 -178q-87 -181 -174.5 -277.5t-166.5 -96.5q-23 0 -39 13.5t-16 33.5q0 19 14.5 31.5t36.5 12.5z" />
<glyph unicode="&#x152;" horiz-adv-x="915" d="M190 23q-58 29 -91.5 95.5t-33.5 151.5q0 109 58 208t154 152q66 37 139 37h73h390l25 -171l-34 -7q-23 71 -66.5 104t-113.5 33q-44 0 -55 -8.5t-23 -51.5l-54 -201q86 0 120.5 18.5t62.5 79.5h36l-71 -262h-37q5 31 5 46q0 45 -26.5 62t-99.5 18l-62 -230 q-7 -25 -7 -33q-1 -14 13 -19.5t53 -5.5q95 0 156 30t129 111l30 -21l-80 -159h-445q-61 0 -88.5 4.5t-56.5 18.5zM153 208q0 -80 40.5 -125t111.5 -45q45 0 64.5 20t36.5 83l103 383q6 26 6 44q0 59 -89 59q-127 0 -206 -163q-67 -136 -67 -256z" />
<glyph unicode="&#x153;" horiz-adv-x="645" d="M23 137q0 71 35.5 143.5t91 119t110.5 46.5q83 0 114 -88q76 88 152 88q34 0 57 -21t23 -52q0 -34 -30 -77t-80 -81q-31 -24 -132 -76q-2 -15 -2 -36q0 -73 52 -73q54 0 149 114l25 -23q-110 -134 -195 -134q-40 0 -66 24t-29 64q-58 -88 -143 -88q-55 0 -93.5 43.5 t-38.5 106.5zM100 96q0 -76 55 -76q34 0 61 28.5t52 90.5q46 112 46 206q0 32 -15 50t-41 18q-61 0 -111 -116q-20 -48 -33.5 -105.5t-13.5 -95.5zM367 170q179 99 179 208q0 15 -9 24.5t-22 8.5q-49 -2 -92 -78q-31 -55 -56 -163z" />
<glyph unicode="&#x178;" horiz-adv-x="579" d="M504 752q-20 0 -34 14t-14 34t14 34t34 14t34 -14t14 -34t-14 -34t-34 -14zM302 751q-20 0 -34 14.5t-14 33.5t14 33.5t34 14.5t34 -14t14 -34t-14 -34t-34 -14zM77 0l10 37l23 1q41 1 56.5 15.5t28.5 61.5l40 149l-74 301q-10 40 -25 52t-59 13l9 37h247l-10 -37h-11 q-36 0 -50.5 -7.5t-14.5 -25.5q0 -9 2 -14l63 -263l202 245q17 21 17 37q0 15 -10 20t-42 7q-2 0 -7.5 0.5t-9.5 0.5l10 37h213l-10 -37q-35 -5 -55.5 -18.5t-54.5 -54.5l-233 -277l-44 -165q-9 -33 -9 -47q0 -29 52 -30l36 -1l-10 -37h-280z" />
<glyph unicode="&#x2c6;" horiz-adv-x="499" d="M196 483l136 152h49l64 -152h-23l-70 99l-126 -99h-30z" />
<glyph unicode="&#x2dc;" horiz-adv-x="500" d="M213 526q26 48 45.5 67.5t40.5 19.5q15 0 52 -21q42 -24 54 -24t18.5 6.5t22.5 33.5l27 -10q-25 -47 -45 -67t-41 -20q-15 0 -52 21q-42 24 -54 24q-11 0 -18 -6.5t-19 -28.5l-4 -5z" />
<glyph unicode="&#x2000;" horiz-adv-x="440" />
<glyph unicode="&#x2001;" horiz-adv-x="881" />
<glyph unicode="&#x2002;" horiz-adv-x="440" />
<glyph unicode="&#x2003;" horiz-adv-x="881" />
<glyph unicode="&#x2004;" horiz-adv-x="293" />
<glyph unicode="&#x2005;" horiz-adv-x="220" />
<glyph unicode="&#x2006;" horiz-adv-x="146" />
<glyph unicode="&#x2007;" horiz-adv-x="146" />
<glyph unicode="&#x2008;" horiz-adv-x="110" />
<glyph unicode="&#x2009;" horiz-adv-x="176" />
<glyph unicode="&#x200a;" horiz-adv-x="48" />
<glyph unicode="&#x2010;" horiz-adv-x="163" d="M3 228l17 63h163l-17 -63h-163z" />
<glyph unicode="&#x2011;" horiz-adv-x="163" d="M3 228l17 63h163l-17 -63h-163z" />
<glyph unicode="&#x2013;" d="M49 233l14 54h386l-14 -54h-386z" />
<glyph unicode="&#x2014;" horiz-adv-x="525" d="M4 233l14 54h526l-14 -54h-526z" />
<glyph unicode="&#x2018;" horiz-adv-x="235" d="M201 444q-25 0 -42 18.5t-17 46.5q0 89 136 171l21 -28q-36 -23 -58.5 -47t-22.5 -40q0 -7 9 -15q30 -23 30 -50q0 -24 -16 -40t-40 -16z" />
<glyph unicode="&#x2019;" horiz-adv-x="235" d="M143 444l-21 28q36 23 58.5 47t22.5 40q0 7 -9 15q-30 22 -30 50q0 24 16 40t40 16q25 0 42 -18.5t17 -46.5q0 -89 -136 -171z" />
<glyph unicode="&#x201a;" horiz-adv-x="235" d="M40 0q-30 22 -30 49q0 24 16 40t40 16q25 0 42 -18.5t17 -46.5q0 -89 -136 -171l-21 28q36 24 58.5 48t22.5 39q0 7 -9 16z" />
<glyph unicode="&#x201c;" horiz-adv-x="385" d="M351 444q-25 0 -42 18.5t-17 46.5q0 89 136 171l21 -28q-36 -23 -58.5 -47t-22.5 -40q0 -7 9 -15q30 -23 30 -50q0 -24 -16 -40t-40 -16zM201 444q-25 0 -42 18.5t-17 46.5q0 89 136 171l21 -28q-36 -23 -58.5 -47t-22.5 -40q0 -7 9 -15q30 -23 30 -50q0 -24 -16 -40 t-40 -16z" />
<glyph unicode="&#x201d;" horiz-adv-x="385" d="M293 444l-21 28q36 23 58.5 47t22.5 40q0 7 -9 15q-30 22 -30 50q0 24 16 40t40 16q25 0 42 -18.5t17 -46.5q0 -89 -136 -171zM143 444l-21 28q36 23 58.5 47t22.5 40q0 7 -9 15q-30 22 -30 50q0 24 16 40t40 16q25 0 42 -18.5t17 -46.5q0 -89 -136 -171z" />
<glyph unicode="&#x201e;" horiz-adv-x="385" d="M121 -89q36 23 58.5 47t22.5 40q0 8 -9 15q-30 23 -30 50q0 24 16 40t40 16q25 0 42 -18.5t17 -46.5q0 -89 -136 -171zM43 13q-30 23 -30 50q0 24 16 40t40 16q25 0 42 -18.5t17 -46.5q0 -89 -136 -171l-21 28q36 23 58.5 47t22.5 40q0 8 -9 15z" />
<glyph unicode="&#x2022;" horiz-adv-x="667" d="M336 200q-58 0 -99 40.5t-41 98.5q0 57 41 97.5t99 40.5q56 0 96.5 -40.5t40.5 -97.5t-40.5 -98t-96.5 -41z" />
<glyph unicode="&#x2026;" horiz-adv-x="718" d="M494 47q0 24 17.5 41.5t42.5 17.5q24 0 41.5 -17.5t17.5 -41.5q0 -25 -17.5 -42.5t-41.5 -17.5q-25 0 -42.5 17.5t-17.5 42.5zM254 47q0 24 17.5 41.5t42.5 17.5q24 0 41.5 -17.5t17.5 -41.5q0 -25 -17.5 -42.5t-41.5 -17.5q-25 0 -42.5 17.5t-17.5 42.5zM15 47 q0 24 17.5 41.5t42.5 17.5q24 0 41.5 -17.5t17.5 -41.5q0 -25 -17.5 -42.5t-41.5 -17.5q-25 0 -42.5 17.5t-17.5 42.5z" />
<glyph unicode="&#x202f;" horiz-adv-x="176" />
<glyph unicode="&#x2039;" horiz-adv-x="237" d="M155 114l-28 36q-3 4 -5.5 6.5t-3 3.5t-3 4t-7.5 10l-10 13l-11 12q-23 26 -33 39.5t-11 14.5l4 12q4 3 66 54l70 59l27 25l22 -18q-57 -74 -118 -132q27 -39 66 -126z" />
<glyph unicode="&#x203a;" horiz-adv-x="237" d="M50 114l-22 19q62 79 117 131q-34 52 -65 127l25 12l27 -35l40 -50q31 -38 45 -53l-4 -12l-66 -54q-23 -18 -70 -60q-16 -14 -27 -25z" />
<glyph unicode="&#x205f;" horiz-adv-x="220" />
<glyph unicode="&#x20ac;" horiz-adv-x="684" d="M103 238q0 9 2 45h-60l22 38h44q4 18 10 38h-64l22 38h55q48 124 144 205.5t194 81.5q41 0 88 -21q28 -13 40 -13q19 0 64 24l26 -190l-39 -6q-34 88 -76 128.5t-101 40.5q-76 0 -140.5 -66t-103.5 -184h298l-22 -38h-287l-8 -38h273l-22 -38h-255q-2 -28 -2 -36 q0 -90 46.5 -143.5t125.5 -53.5q133 0 230 153l32 -19q-56 -97 -130.5 -149t-158.5 -52q-106 0 -176.5 73t-70.5 182z" />
<glyph unicode="&#x2122;" horiz-adv-x="857" d="M408 287l7 26q33 8 43.5 16.5t17.5 36.5l62 233q5 22 5 24q0 15 -28 16l-21 1l7 27h121l26 -276l169 276h122l-7 -27l-12 -1q-25 -2 -32 -8t-14 -32l-65 -244q-5 -20 -5 -24q0 -17 29 -17h20l-7 -27h-164l7 26l13 1q23 2 30.5 8.5t14.5 32.5l67 251l-194 -319h-21 l-29 310l-60 -225q-7 -25 -7 -31q0 -14 8.5 -19t37.5 -9l-7 -26h-134zM128 287l7 27h17q21 0 29.5 8t15.5 33l69 255q2 8 2 16q0 13 -17 13q-40 0 -130 -80l-18 16l53 92h297l15 -102l-26 -5q-32 79 -85 79q-14 0 -19.5 -6t-11.5 -28l-67 -250q-5 -19 -5 -25q0 -16 29 -16 h24l-7 -27h-172z" />
</font>
</defs>
</svg>
