<?xml version="1.0" standalone="no"?>
<!DOCTYPE svg PUBLIC "-//W3C//DTD SVG 1.1//EN" "http://www.w3.org/Graphics/SVG/1.1/DTD/svg11.dtd" >
<svg xmlns="http://www.w3.org/2000/svg">
<metadata>
This is a custom SVG webfont generated by Font Squirrel.
Copyright   :  2000 Adobe Systems Incorporated All Rights Reserved
Designer    : Carol Twombly
Foundry URL : httpwwwadobecomtype
</metadata>
<defs>
<font id="AdobeCaslonProRegular" horiz-adv-x="1024" >
<font-face units-per-em="2048" ascent="1505" descent="-543" />
<missing-glyph horiz-adv-x="520" />
<glyph unicode=" "  horiz-adv-x="520" />
<glyph unicode="&#x09;" horiz-adv-x="520" />
<glyph unicode="&#xa0;" horiz-adv-x="520" />
<glyph unicode="!" horiz-adv-x="520" d="M139 96q0 12 6.5 31.5t20.5 38t38.5 32t63.5 13.5q43 0 79 -33t36 -90q0 -51 -34 -82t-81 -31q-16 0 -38.5 5.5t-43 19.5t-34 36.5t-13.5 59.5zM166 1278q0 47 28.5 84t69.5 37t74 -28t29 -93q0 -12 -5.5 -64.5t-13.5 -130t-17 -170t-17.5 -182.5t-14.5 -168t-6 -127 q0 -14 -14 -14h-37q-14 0 -15 20q-2 49 -6 124t-11 161t-15.5 175t-14.5 166t-10 133.5t-4 76.5z" />
<glyph unicode="&#x22;" horiz-adv-x="757" d="M121 1395q0 43 26.5 64.5t69.5 21.5q94 0 94 -84q0 -23 -9 -82.5t-19.5 -128t-19.5 -136t-11 -106.5h-70q-2 39 -11 105.5t-20.5 136t-20.5 128t-9 81.5zM449 1395q0 43 26.5 64.5t67.5 21.5q96 0 96 -84q0 -23 -9 -82.5t-20.5 -128t-20.5 -136t-11 -106.5h-68 q-2 39 -11.5 105.5t-20.5 136t-20 128t-9 81.5z" />
<glyph unicode="#" d="M-16 449l20 75q2 14 23 15h223l65 317h-213q-18 0 -24 3t-4 11l16 80q4 14 27 15h221l92 415q2 8 4 13.5t12 5.5h91q14 0 8 -21l-86 -413h221l86 415q4 8 7 13.5t13 5.5h91q14 0 10 -23l-86 -411h223q20 0 18 -15l-18 -80q-2 -14 -31 -14h-215l-67 -317h227q25 0 23 -17 l-21 -82q-2 -10 -25 -10h-227l-90 -436q-6 -25 -20 -25h-93q-14 0 -8 23l92 438h-223l-92 -428q-6 -33 -21 -33h-92q-14 0 -8 29l94 432h-231q-18 1 -12 19zM369 539h223l65 317h-221z" />
<glyph unicode="$" d="M133 117q2 16 7 61t10.5 95.5t9.5 95.5t6 63q0 14 14 14l31 -2q12 0 12 -14q2 -41 8.5 -88t47.5 -113q23 -35 46 -55t40 -31l14 523q-25 8 -64 27.5t-71 51.5q-47 45 -72 105.5t-25 144.5q0 86 40 144.5t87 99.5q31 29 64 45t57 25l4 116q0 20 15 21h41q14 0 14 -21 l-2 -106q27 4 55.5 2t52.5 -6l3 110q0 14 3 17.5t11 3.5h41q14 0 14 -25l-4 -118q27 -6 45.5 -13.5t28.5 -11.5q20 -10 37 2l20 20q14 12 29 13q12 0 14 -11.5t2 -19.5q0 -23 1 -63.5t2 -83.5t2 -81t1 -53q0 -10 -10 -14l-29 -6q-10 0 -12 6q-8 41 -26.5 94.5t-59.5 92.5 q-12 10 -22.5 18t-20.5 18l-16 -456q121 -35 191.5 -119t70.5 -232q0 -61 -19.5 -119.5t-56.5 -107.5t-89 -85t-116 -50l-2 -109q0 -20 -14 -20h-39q-14 0 -14 20l2 101h-24q-15 0 -31.5 1t-32 3t-23.5 4l-4 -111q0 -18 -14 -18h-41q-14 0 -15 20l4 125q-18 6 -45.5 21.5 t-56.5 38.5q-31 23 -43 22q-14 0 -31 -28q-10 -16 -17 -18.5t-17 -2.5q-21 0 -19 27zM281 1034q0 -47 8 -88t33 -76q16 -25 34.5 -34t28.5 -17l8 416q-29 -14 -50 -37.5t-35.5 -51.5t-20.5 -57.5t-6 -54.5zM434 117q10 -10 46 -13.5t65 -1.5l12 514q-41 10 -64.5 16.5 t-43.5 10.5zM453 795q16 -8 44.5 -14.5t63.5 -12.5l12 471q-23 10 -54.5 14t-53.5 0zM612 117q27 10 52.5 28.5t46 46t34 65.5t13.5 85q0 102 -37 162.5t-96 89.5z" />
<glyph unicode="%" horiz-adv-x="1536" d="M41 952q0 84 17.5 165t53 143.5t92 100.5t134.5 38q88 0 146.5 -42t93 -105.5t49 -138.5t18.5 -142q-4 -205 -84 -317.5t-213 -112.5q-100 0 -160.5 48t-93.5 113.5t-43 136t-10 113.5zM184 950q0 -80 10.5 -142.5t26.5 -105.5q23 -51 62 -75.5t65 -24.5q29 0 63.5 13.5 t55.5 70.5q29 90 29 275q0 61 -6.5 127.5t-23.5 122t-49 91t-85 35.5q-27 0 -56.5 -16t-48.5 -55q-14 -31 -22 -72t-13.5 -84t-6.5 -85t-1 -75zM307 10q0 8 10 25l832 1347q8 16 16 17q4 0 10.5 -2t22.5 -11q25 -14 30 -19t5 -9q0 -2 -8 -19l-832 -1343q-14 -27 -20 -27 q-4 0 -11.5 3t-25.5 14q-18 10 -23.5 14t-5.5 10zM891 393q0 84 17.5 165t53 143.5t92 100.5t134.5 38q88 0 146.5 -42t93 -105.5t49 -138.5t18.5 -142q-4 -205 -84 -317.5t-213 -112.5q-100 0 -160.5 48t-93.5 113.5t-43 136t-10 113.5zM1034 391q0 -80 10.5 -142.5 t26.5 -105.5q23 -51 61.5 -75.5t65.5 -24.5q29 0 63.5 13.5t55.5 70.5q29 90 29 274q0 61 -6.5 128t-24 122.5t-49 91t-84.5 35.5q-27 0 -56.5 -16.5t-48.5 -54.5q-14 -31 -22 -72t-13.5 -84t-6.5 -85t-1 -75z" />
<glyph unicode="&#x26;" horiz-adv-x="1689" d="M74 330q0 111 52 198.5t114 147.5q53 51 113.5 92t123.5 76q-106 61 -159.5 130.5t-53.5 125.5q0 61 35 122.5t86 112.5t108.5 83t102.5 32q57 0 109.5 -25.5t92.5 -65.5t63.5 -91t21.5 -103q-2 -41 -24.5 -83t-56.5 -80.5t-73 -70.5t-72 -48q53 -29 112.5 -74t118 -98.5 t111 -112.5t91.5 -115q25 31 58.5 79t65 97.5t54 92.5t24.5 65q4 25 -13 44.5t-50 19.5h-35q-14 0 -14 14v45q0 10 14 10q6 0 28.5 -1t51.5 -2t60.5 -2t58.5 -1q29 0 63.5 1t65 2t54 2t28.5 1q14 0 14 -14v-43q0 -14 -14 -14h-35q-39 0 -63.5 -2.5t-41 -8.5t-28 -18 t-23.5 -31q-4 -6 -22.5 -32.5t-45 -65.5t-58.5 -84t-62.5 -87t-55 -75t-39.5 -47q12 -12 34 -37.5t45.5 -51.5t45 -49.5t31.5 -33.5q18 -20 46 -47t63 -50.5t76.5 -40t91.5 -16.5q47 0 87 22.5t69.5 51.5t47 54.5t21.5 31.5q6 10 16 2l31 -18q6 -4 0 -19q-12 -25 -40 -68.5 t-74 -85.5t-112.5 -73t-154.5 -31q-84 0 -150.5 35t-120 86t-95 106.5t-74.5 98.5q-37 -47 -85 -103.5t-109.5 -105.5t-139.5 -83t-176 -34q-74 0 -151 23.5t-138 68.5t-101 113t-40 156zM242 399q2 -63 32.5 -119.5t79.5 -97.5t108.5 -65.5t119.5 -24.5q76 0 138 31 t110.5 72t83 82.5t55.5 64.5q-35 49 -83 112.5t-105.5 126t-124 121t-138.5 99.5q-55 -31 -106.5 -74t-89 -95t-60 -111t-20.5 -122zM406 1139q0 -29 19 -59.5t49 -59.5t67 -56.5t73 -50.5q18 14 44 35t49.5 50.5t39 71.5t15.5 101q0 27 -11.5 62t-33 66.5t-52 54 t-69.5 22.5q-37 0 -72 -20.5t-61.5 -54t-41.5 -75.5t-15 -87z" />
<glyph unicode="'" horiz-adv-x="421" d="M117 1395q0 43 26.5 64.5t69.5 21.5q94 0 94 -84q0 -23 -9 -82.5t-19.5 -128t-19.5 -136t-11 -106.5h-70q-2 39 -11 105.5t-20.5 136t-20.5 128t-9 81.5z" />
<glyph unicode="(" horiz-adv-x="675" d="M123 588q0 164 38 296t99 263q55 123 131 216t139 153q20 14 39 14q14 0 27.5 -10.5t13.5 -18.5q0 -6 -4 -16t-14 -21q-74 -76 -134.5 -166t-103.5 -197.5t-67.5 -235.5t-24.5 -277q0 -299 92 -512t240 -363q16 -20 16 -37q0 -8 -13 -19t-28 -11q-20 0 -39 16 q-63 59 -143 146.5t-145 222.5q-57 117 -88 256t-31 301z" />
<glyph unicode=")" horiz-adv-x="675" d="M66 -324q0 16 18 35q74 76 134.5 166t103.5 197.5t67.5 234.5t24.5 279q0 150 -24.5 276.5t-67.5 234t-104.5 197.5t-135.5 166q-16 20 -16 39q0 8 13 18.5t27 10.5q18 0 39 -14q63 -59 143.5 -147.5t145.5 -223.5q57 -117 88 -256t31 -301q0 -164 -38 -296t-99 -263 q-55 -123 -131 -215.5t-140 -151.5q-18 -16 -39 -16q-14 0 -27 11t-13 19z" />
<glyph unicode="*" horiz-adv-x="671" d="M38 1015.5q1 16.5 8 28t17.5 19.5t16.5 12q8 6 46 18.5t80 24.5t77.5 21.5t40.5 9.5v4q-4 0 -40 9t-80 21.5t-83 23t-47 14.5q-20 10 -34.5 32.5t3.5 55.5q18 35 47 33.5t51 -13.5q8 -4 38 -29.5t61.5 -55.5t57.5 -54.5t28 -26.5l4 4q0 2 -10.5 38t-20.5 79t-19.5 82 t-9.5 47q0 29 15.5 48.5t50.5 19.5q39 0 52 -17.5t13 -50.5q0 -10 -9 -49t-19.5 -82t-19.5 -79t-11 -38l4 -4q2 2 27.5 29t58.5 57.5t61.5 57t36.5 30.5q23 12 48.5 9t42.5 -31q23 -35 10 -56.5t-37 -35.5q-10 -6 -47 -17.5t-80 -23t-78 -19.5t-39 -8v-4q2 0 39 -10.5 t81 -22.5t83 -23.5t47 -15.5q10 -4 20.5 -11t15.5 -18.5t4 -27.5t-15 -39q-16 -29 -46 -29t-55 15q-8 4 -36.5 30.5t-59.5 56t-55.5 55.5t-26.5 30l-4 -4q2 -4 11 -38t19.5 -77t19.5 -82t9 -49q0 -23 -12 -47.5t-53 -24.5q-35 0 -50.5 21.5t-15.5 50.5q0 8 9.5 47t19.5 82 t20.5 77.5t10.5 39.5h-4q-8 -8 -35 -34t-55.5 -54.5t-54 -53t-34.5 -28.5q-27 -16 -54 -14.5t-44 30.5q-12 18 -11 34.5z" />
<glyph unicode="+" d="M115 434v115h338v352h122v-352h334v-115h-334v-352h-122v352h-338z" />
<glyph unicode="," horiz-adv-x="520" d="M109 -346q0 10 3 15t15 16q18 16 43 42.5t48.5 60.5t38.5 73t15 82q0 20 -11 38.5t-23 22.5q-8 2 -28 9t-39 22.5t-34.5 40t-15.5 63.5t29.5 68t85.5 29q27 0 58.5 -12.5t58 -37t44 -61.5t17.5 -86q0 -80 -32 -147.5t-73 -116.5t-81 -81t-54 -40q-10 -4 -20.5 -11.5 t-20.5 -7.5q-24 1 -24 19z" />
<glyph unicode="-" horiz-adv-x="827" d="M106 498v90q0 14 19 14h573q23 0 23 -22v-78q0 -14 -25 -15h-571q-19 -1 -19 11z" />
<glyph unicode="." horiz-adv-x="520" d="M139 96q0 12 5.5 31.5t19.5 38t38.5 32t63.5 13.5q45 0 80 -33t35 -90q0 -51 -34 -82t-81 -31q-16 0 -38.5 5.5t-42 19.5t-33 36.5t-13.5 59.5z" />
<glyph unicode="/" horiz-adv-x="716" d="M4 33l610 1440q8 18 27 12l66 -27q16 -6 8 -28l-613 -1442q-10 -25 -26 -17l-70 35q-12 7 -2 27z" />
<glyph unicode="0" d="M63 614q0 176 35 320.5t95.5 248t144.5 160t182 56.5q113 0 196 -65.5t137 -169t81 -227.5t27 -241q0 -176 -32 -311t-89.5 -227t-138 -140.5t-179.5 -48.5q-125 0 -212 65.5t-142 164t-80 211t-25 204.5zM242 649q0 -287 69 -432q47 -102 103.5 -138t109.5 -36 q47 0 101.5 27.5t95.5 117.5q16 37 28.5 86.5t19.5 116t11 152.5t4 198q0 113 -18 218.5t-54 186.5t-87.5 130t-116.5 49q-59 0 -104.5 -26.5t-79.5 -96.5q-29 -53 -44.5 -122.5t-24.5 -143.5t-11 -149t-2 -138z" />
<glyph unicode="1" d="M152 1118q-6 14 12 25l424 243q8 4 14 8.5t14 4.5q14 0 15 -29q0 -6 -1 -64.5t-2 -145.5t-2 -191.5t-1 -202.5v-86v-43v-88q0 -51 1 -110.5t1 -111.5v-89v-43q0 -41 4 -65t18.5 -36t43 -16t77.5 -4h74q20 0 20 -17v-47q0 -16 -18 -16q-6 0 -54.5 1t-103.5 2t-103 2t-55 1 q-6 0 -55 -1t-106.5 -2t-104.5 -2t-51 -1q-16 0 -16 16v51q0 12 28 13h94q49 0 77 3t42.5 14t17.5 33.5t5 63.5q0 6 1 42t1 86v108v107v87v48v73q0 20 1 91t-1 194q-2 53 -11.5 84t-37.5 31q-29 0 -82 -17l-144 -47q-16 -4 -20 6z" />
<glyph unicode="2" d="M12 4q-8 16 6 31q37 33 87.5 79t108.5 100t120.5 116.5t124.5 128.5q123 133 189.5 255t62.5 257q-4 137 -79 214t-186 75q-66 0 -111.5 -23t-77.5 -54.5t-52.5 -65.5t-32.5 -56q-10 -18 -25 -10l-28 12q-10 6 0 29q12 31 38.5 82t75 101t120 87t175.5 37q63 0 128 -25.5 t116 -74t83 -118t32 -155.5q0 -66 -13.5 -127t-44 -124.5t-79 -131.5t-117.5 -145q-53 -59 -107.5 -111.5t-106.5 -97.5t-98.5 -82t-78.5 -68h415q51 0 89 16.5t66 41t47.5 55.5t35.5 59q8 14 14 16.5t23 -5.5q27 -14 16 -29l-133 -320q-4 -8 -4 -13t-1 -7t-6 -2h-20 q-14 0 -17 3t-9 17q-10 20 -38 24.5t-75 4.5h-444q-27 0 -53.5 -1t-49.5 -3t-40 -3t-23 -1q-8 0 -13.5 1t-9.5 11z" />
<glyph unicode="3" d="M72 131q0 41 20.5 64.5t46.5 23.5q25 0 41.5 -12t25.5 -28.5t12 -31t5 -18.5q4 -8 14.5 -22.5t32 -27.5t56 -23.5t88.5 -10.5q70 0 126 23.5t95 62.5t59.5 90t20.5 105q0 78 -22.5 139t-62.5 107t-94.5 76t-115.5 44q-29 6 -33 7t-4 24q0 16 5 20.5t20 8.5q49 8 97 32.5 t85 62.5t60.5 87t23.5 108q0 98 -55.5 164t-153.5 66q-57 0 -100 -18.5t-76 -49t-56.5 -71.5t-39.5 -84q-8 -23 -21 -21l-37 8q-8 4 -2 31q10 53 40 111.5t77 107.5t114.5 81t153.5 32q84 0 141.5 -28t93 -67.5t52 -87t16.5 -86.5q0 -66 -20.5 -120t-54 -97t-74.5 -76.5 t-80 -58.5q51 -12 104.5 -45t96.5 -80t70.5 -106.5t27.5 -126.5q0 -98 -41 -181t-111.5 -143.5t-163 -93.5t-196.5 -33q-90 0 -149.5 17.5t-94.5 42t-49 52t-14 50.5z" />
<glyph unicode="4" d="M39 408q0 10 5 17t15 24l666 917q10 12 21.5 22.5t23.5 10.5q14 0 20.5 -13.5t6.5 -48.5v-819h166q25 0 24 -16v-99q0 -10 -6 -15t-27 -5h-157v-354q0 -16 -5.5 -22.5t-23.5 -6.5h-102q-25 0 -25 23v360h-571q-31 0 -31 25zM227 563q-39 -55 15 -55h401v563 q0 25 -12.5 29t-26.5 -17z" />
<glyph unicode="5" d="M55 84q0 23 12.5 38t32.5 15q29 0 54.5 -13t48.5 -28q23 -14 68.5 -26.5t93.5 -12.5q59 0 116.5 23.5t102.5 66.5t72.5 100.5t27.5 125.5q0 109 -40 189.5t-140 123.5q-84 37 -154.5 43t-111.5 2q-10 -2 -18.5 -2t-18.5 6q-12 6 -11 23l74 577q2 18 7 25.5t26 7.5h438 q53 0 76 25.5t49 76.5q8 16 25 11q16 -8 24.5 -11.5t3.5 -13.5l-73 -205q-10 -25 -25.5 -33t-62.5 -8h-426l-37 -329q18 2 51 0t67.5 -5.5t66.5 -8.5t48 -9q152 -41 234 -141.5t82 -239.5q0 -111 -41 -204t-112 -160.5t-165 -105.5t-198 -38q-57 0 -105.5 9.5t-84.5 25.5 t-56.5 36.5t-20.5 43.5z" />
<glyph unicode="6" d="M90 459q0 193 74 376t237 343q74 72 153 121t148 77q51 23 76 23q10 0 17.5 -5t7.5 -16q0 -25 -19 -32q-61 -29 -138 -84.5t-147.5 -135t-126 -185t-73.5 -230.5q49 43 115.5 68.5t156.5 25.5q96 0 165 -38t113 -93.5t64.5 -117.5t20.5 -112q0 -72 -10.5 -125t-26.5 -95 t-39.5 -73.5t-50.5 -58.5q-57 -61 -125 -92t-166 -31q-201 0 -295 113q-39 41 -63.5 90t-40 99.5t-21.5 98.5t-6 89zM264 393q0 -39 6 -100.5t33 -118.5t80 -98t145 -41q16 0 55.5 8t78 43t68.5 104.5t30 190.5q0 68 -16.5 129t-48 107.5t-78 73t-105.5 26.5q-92 0 -138 -31 t-65 -70q-23 -41 -34 -99t-11 -124z" />
<glyph unicode="7" d="M93 1081q-1 4 3 19l127 330q4 10 9.5 12t23.5 2q16 0 23.5 -7t3.5 -30t17.5 -31t98.5 -8h576q20 0 20 -18q0 -8 -2 -14.5t-12 -22.5q-4 -8 -33.5 -63.5t-69.5 -133.5t-83 -168t-74 -166q-8 -18 -40 -91t-74 -175t-87 -219t-76 -223q-18 -63 -45.5 -84t-56.5 -21 q-39 0 -59.5 20.5t-20.5 55.5q0 18 7 43t18.5 50.5t24 51t22.5 46.5q8 16 41 79.5t80 153.5t102 196.5t108.5 210t100.5 193.5t76 148h-486q-47 0 -76.5 -10.5t-51 -29t-40 -45t-41.5 -59.5q-14 -18 -38 -4q-15 8 -16 12z" />
<glyph unicode="8" d="M121 1006q0 68 27.5 137t83 125.5t137.5 93.5t190 37q70 0 133.5 -22.5t111.5 -59.5t75.5 -84t27.5 -98q0 -74 -13 -129.5t-46 -104.5t-87 -97t-136 -106q61 -29 114.5 -63.5t91 -79.5t60 -100.5t22.5 -124.5q0 -59 -28.5 -124t-80.5 -117t-127 -86t-167 -34 q-104 0 -176 28t-116 70t-63.5 94t-19.5 101q0 131 67.5 220t198.5 173q-57 33 -108 69t-89 79t-60.5 93.5t-22.5 109.5zM264 295q0 -68 23.5 -116t60.5 -78.5t83 -46t91 -15.5q111 0 177.5 60.5t66.5 189.5q0 61 -23.5 108t-64.5 85t-94.5 70t-114.5 64 q-98 -55 -151.5 -139t-53.5 -182zM281 1055q0 -55 17 -96t53 -76t87 -69t119 -73q37 25 75 59t67.5 74.5t49 89t23.5 99.5q2 55 -16.5 102t-51 80t-78.5 51.5t-100 18.5q-55 0 -100 -20.5t-77 -56.5t-50 -83t-18 -100z" />
<glyph unicode="9" d="M92 977q0 29 12.5 73t34 89t49 87t56.5 66q59 53 126.5 80t133.5 27q55 0 98 -8.5t80 -25.5t70.5 -45t68.5 -65q35 -39 56.5 -87t34 -94t16.5 -85t4 -63q0 -207 -77 -409t-257 -361q-39 -35 -74 -60.5t-69.5 -46t-71.5 -36t-80 -29.5q-16 -4 -34.5 -9.5t-28.5 -5.5 q-12 0 -21.5 6.5t-9.5 22.5q0 20 18 29q68 27 147 82t151.5 135t127 185.5t70.5 234.5l-2 4q-41 -39 -99.5 -70t-150.5 -31q-106 0 -179 37t-117 95.5t-63.5 131t-19.5 146.5zM256 987q0 -72 20.5 -133t54.5 -105t80 -69t99 -25q90 0 138 38t69 79q18 39 24.5 89t6.5 114 q0 68 -11.5 132t-38 114.5t-72.5 81t-116 30.5q-45 0 -90 -21.5t-82 -65.5t-59.5 -108.5t-22.5 -150.5z" />
<glyph unicode=":" horiz-adv-x="520" d="M139 96q0 12 5.5 31.5t19.5 38t38.5 32t63.5 13.5q45 0 80 -33t35 -90q0 -51 -34 -82t-81 -31q-16 0 -38.5 5.5t-42 19.5t-33 36.5t-13.5 59.5zM139 764q0 12 5.5 31.5t19.5 38t38.5 32t63.5 13.5q45 0 80 -33t35 -90q0 -51 -34 -82t-81 -31q-16 0 -38.5 5t-42 19.5 t-33 37t-13.5 59.5z" />
<glyph unicode=";" horiz-adv-x="520" d="M109 -346q0 10 3 15t15 16q18 16 43 42.5t48.5 60.5t38.5 73t15 82q0 20 -11 38.5t-23 22.5q-8 2 -28 9t-39 22.5t-34.5 40t-15.5 63.5t29.5 68t85.5 29q27 0 58.5 -12.5t58 -37t44 -61.5t17.5 -86q0 -80 -32 -147.5t-73 -116.5t-81 -81t-54 -40q-10 -4 -20.5 -11.5 t-20.5 -7.5q-24 1 -24 19zM109 764q0 12 6 31.5t20.5 38t39 32t61.5 13.5q45 0 79.5 -33t34.5 -90q0 -51 -33.5 -82t-80.5 -31q-16 0 -39 5t-42.5 19.5t-32.5 37t-13 59.5z" />
<glyph unicode="&#x3c;" d="M172 461v65l637 375v-135l-453 -262v-10l453 -273v-139z" />
<glyph unicode="=" d="M115 287v114h794v-114h-794zM115 596v115h794v-115h-794z" />
<glyph unicode="&#x3e;" d="M215 82v135l453 262v10l-453 273v139l637 -379v-65z" />
<glyph unicode="?" horiz-adv-x="757" d="M106 1319q0 6 3.5 18.5t14.5 26.5t30.5 24.5t50.5 10.5q63 0 146 -48t158 -125t126 -172.5t51 -189.5q0 -96 -42 -147t-101.5 -73.5t-124 -27t-107.5 -6.5q-16 0 -16 -16v-219q0 -14 -14 -15h-39q-14 0 -15 15v387q0 16 5.5 19t17.5 -1q35 -6 71 -6h64q25 0 61.5 7 t70.5 25.5t58.5 49.5t24.5 80q0 61 -34 105t-77 79q-39 31 -68.5 50.5t-56 30.5t-53 14.5t-59.5 3.5q-63 0 -104.5 29.5t-41.5 70.5zM168 82q0 47 30.5 80t84.5 33q43 0 77.5 -33t34.5 -78q0 -41 -31.5 -75t-84.5 -34q-45 0 -78 30t-33 77z" />
<glyph unicode="@" horiz-adv-x="1609" d="M63 543q0 182 79 351t209 300t295 209t337 78q133 0 235.5 -39t171 -109.5t103.5 -172t35 -226.5q0 -100 -40 -201.5t-115 -184.5t-183.5 -135.5t-243.5 -52.5q-29 0 -52.5 20.5t-23.5 47.5q0 23 15.5 81t56.5 163l-8 4q-31 -43 -80 -97.5t-106.5 -103.5t-121 -82 t-120.5 -33q-39 0 -72 30t-33 89q0 68 27 144.5t72 150.5t103.5 142.5t123 119.5t131 82t125.5 31t87 -24.5t38 -47.5l27 39q10 14 20 14h78q12 0 13 -7t-3 -13q-10 -18 -33.5 -70.5t-47 -110t-44 -106.5t-24.5 -59q-10 -23 -24.5 -60.5t-29 -78.5t-23.5 -80t-9 -64 q0 -41 59 -41q41 0 99.5 32t110.5 95.5t89 160.5t37 228q0 227 -117 339t-325 112q-158 0 -293.5 -75t-236.5 -194.5t-158.5 -268t-57.5 -298.5q0 -125 40 -222t108.5 -163.5t163 -101.5t204.5 -35q98 0 199.5 14.5t189.5 69.5l27 -51q-25 -23 -71 -42.5t-105.5 -35.5 t-129 -25.5t-141.5 -9.5q-150 0 -268.5 42t-200 119t-125 181.5t-43.5 231.5zM545 518q0 -66 49 -65q47 0 109.5 48t122 110.5t104.5 124t57 85.5q55 106 55 160q0 43 -22.5 76t-63.5 33q-43 0 -90 -30t-92 -79t-87 -110.5t-73.5 -125t-50 -124t-18.5 -103.5z" />
<glyph unicode="A" horiz-adv-x="1521" d="M-2 10v49q0 14 16 15h72q47 0 71.5 22.5t47.5 71.5q6 12 32.5 80.5t61.5 159t71 183.5t58 157q4 10 18.5 50t35 95t44 117.5t45 119t37 98.5t19.5 56q4 16 8 34.5t-6 35.5q-4 6 -9.5 13t-5.5 13q0 12 19 19q20 4 47 16t51.5 27.5t44 32t27.5 26.5l13 13q5 5 13 6 q10 0 14.5 -9.5t8.5 -25.5q14 -49 48 -148.5t71 -210t70.5 -211t48.5 -149.5q18 -59 48.5 -152.5t62.5 -185.5t59.5 -166t37.5 -96q27 -51 64 -71.5t76 -20.5h67q16 0 17 -15v-51q0 -14 -21 -14q-14 0 -30.5 1t-44 2t-68.5 2t-103 1q-127 0 -190.5 -3t-97.5 -3q-16 0 -17 18 v47q0 14 19 15h51q43 0 57.5 17.5t3.5 60.5q-6 27 -23.5 84t-37 121.5t-38.5 122.5l-30 89h-503q-8 -18 -30 -78.5t-46.5 -127t-44 -125t-23.5 -74.5q-2 -10 -4 -23.5t-2 -21.5q0 -45 70 -45h96q20 0 20 -15v-47q0 -18 -16 -18q-23 0 -82 3t-151 3q-55 0 -93.5 -1t-64 -2 t-40.5 -2t-26 -1q-14 0 -14 16zM475 643h453q-4 14 -19.5 63.5t-37 114t-44 136t-43 134t-35 105.5t-16.5 51q-4 10 -8 19.5t-8 9.5q-6 0 -12.5 -9.5t-10.5 -21.5q-2 -6 -18.5 -50t-40 -106.5t-50 -135t-50 -137t-40 -113t-20.5 -60.5z" />
<glyph unicode="B" horiz-adv-x="1351" d="M63 1391v51q0 14 17 14q25 0 93.5 -3t178.5 -3q25 0 58.5 1t69.5 2t71 2t61 1q121 0 215.5 -12t147.5 -43q88 -47 123 -117t35 -162q0 -76 -16.5 -126t-48.5 -87t-79 -65.5t-106 -59.5l6 -4q150 -49 241 -146t91 -259q0 -39 -11.5 -84t-32 -87t-50 -78t-64.5 -58 q-66 -41 -158 -57.5t-233 -16.5q-106 0 -174 3t-133 3q-39 0 -79 -1t-76 -2t-64.5 -2t-43.5 -1q-18 0 -23 3t-5 9v53q0 14 18 15h98q47 0 61.5 20.5t20.5 69.5q2 18 4.5 72.5t3.5 125t2 147.5t1 140v242q0 29 -1 84t-2 112.5t-2.5 104.5t-1.5 61q-2 45 -10 70t-23.5 37 t-40 14t-59.5 2h-63q-17 1 -17 15zM463 332q0 -141 44 -207t171 -66q63 0 123.5 16.5t105.5 55.5t73 100.5t28 153.5q0 125 -56.5 206t-148.5 116q-63 25 -133 29.5t-142 4.5h-65v-127v-282zM463 811q29 -4 55 -4h53q88 0 155 13.5t103 39.5q63 47 89 112.5t26 133.5 q0 59 -21.5 116.5t-78.5 98.5q-55 39 -129 54.5t-152 15.5q-23 0 -39 1h-6q-12 0 -22 -3q-29 -8 -29 -37q0 -16 -1 -54t-2 -91.5t-1 -116.5v-127v-152z" />
<glyph unicode="C" horiz-adv-x="1527" d="M98 731q0 143 49.5 284.5t159.5 258.5q39 41 92.5 79t119 66.5t141 45t159.5 16.5q70 0 133.5 -11.5t116.5 -29t94 -37t70 -35.5q20 -12 28.5 -11t12.5 11l16 59q4 10 8.5 11.5t18.5 1.5t18 -5t4 -28q0 -10 3.5 -39t8.5 -68.5t11 -85t11 -85t10.5 -72.5t7.5 -47 q4 -18 -9 -21l-30 -8q-8 -2 -12.5 1t-8.5 15q-23 51 -58.5 120t-101.5 134q-66 66 -149.5 112t-206.5 46q-137 0 -234.5 -55.5t-160 -144.5t-90 -200.5t-27.5 -224.5q0 -45 8 -107.5t29.5 -134t60.5 -145t99 -139.5q51 -59 100 -93t97 -51.5t96.5 -22.5t99.5 -5 q86 0 163 21.5t141.5 58.5t115.5 84t86 96q8 14 16 6l27 -20q7 -7 7 -10t-3 -9q-47 -68 -107.5 -129t-136.5 -109t-167 -77t-199 -29q-182 0 -304 52.5t-215 136.5q-55 51 -96 119.5t-68.5 145.5t-41 155.5t-13.5 152.5z" />
<glyph unicode="D" horiz-adv-x="1665" d="M59 8v53q0 12 17 13h137q59 0 66 49q2 10 3 52t3 102.5t3 133t2 142.5t2 132.5t1 100.5v154q0 20 -1 76.5t-3 120t-3 117t-3 65.5q-4 37 -25.5 47t-62.5 10h-113q-16 0 -16 15v55q0 10 14 10q20 0 91 -3t210 -3q20 0 63 1t91.5 2t90.5 2t60 1q98 0 189.5 -7t174.5 -27.5 t158.5 -56.5t143.5 -93q100 -86 163.5 -214t63.5 -308q0 -176 -51 -302t-152 -237q-74 -82 -161 -126t-173 -64.5t-164.5 -23.5t-138.5 -3q-98 0 -202.5 3t-174.5 3q-135 0 -200.5 -3t-87.5 -3q-15 0 -15 14zM481 670q0 -61 1 -141t2 -161t1 -128q0 -31 7.5 -57.5 t27.5 -57.5q25 -33 82 -49.5t135 -16.5q158 0 281 61.5t201 160.5q66 80 107.5 199.5t41.5 260.5q0 59 -12.5 123t-35 123.5t-53 112.5t-67.5 94q-80 88 -211 142.5t-303 54.5q-35 0 -86 -3.5t-78 -17.5q-23 -14 -30 -37.5t-9 -58.5q0 -33 -1 -92.5t-1 -120.5v-112v-62v-146 v-71z" />
<glyph unicode="E" horiz-adv-x="1413" d="M94 8v55q0 10 21 11h82q35 0 55 3t30.5 13t13.5 27.5t3 46.5v485v201q0 63 -1 138t-2 141.5t-2 112.5t-1 54q-6 49 -26.5 64.5t-78.5 15.5h-73q-16 0 -17 15v55q0 10 15 10q35 0 92 -3t160 -3h90q154 0 304 1t304 1q25 0 49.5 2t32.5 2q12 0 16 -10q2 -10 18.5 -60.5 t35 -107.5t34 -105.5t17.5 -56.5q4 -14 -6 -18l-31 -17q-4 -4 -9.5 -1t-7.5 7q-2 2 -26.5 35t-58 73t-67.5 77t-52 49q-33 23 -74 38t-82 17l-365 8v-600q6 0 44 1t83 3.5t84 4.5t50 4q45 8 62 25.5t32 64.5q4 16 9 43.5t7 56.5q0 14 14 14l52 -2q16 0 12 -16q-2 -12 -3 -46 t-2 -72t-1 -70v-45q0 -27 1 -57.5t3 -60.5t4 -54.5t4 -40.5q0 -14 -12 -17l-45 -6q-14 -2 -17 18q-4 20 -11 50t-11 47q-10 33 -28.5 54.5t-59.5 25.5q-37 4 -79 6t-80 3t-69 1h-43v-127q0 -41 1 -95.5t1 -105.5t1.5 -93t1.5 -56q2 -80 35.5 -115t80.5 -45q31 -6 72 -10 t80 -4h37q25 0 50 1l51 2q26 1 42 3q27 4 82 20.5t96 50.5q8 8 32 36t50.5 61.5t51 66.5t34.5 51q4 8 9 12.5t16 0.5l32 -19q7 -5 8 -14q0 -6 -3 -14l-109 -301q-10 -31 -45 -31q-8 0 -47 1t-131 3q-92 0 -247 1t-394 1q-57 0 -100.5 -1t-73.5 -1q-33 -2 -53.5 -3t-34.5 -1 q-19 0 -19 14z" />
<glyph unicode="F" horiz-adv-x="1224" d="M66 1389v55q0 12 14 12q10 0 29.5 -1t54.5 -1q35 -2 88 -3t127 -1h67h145h182q97 0 181 1t143.5 3t67.5 4q2 -12 13.5 -63.5t25 -111.5t25.5 -115q3 -15 8 -32.5l8 -28t3 -18.5q0 -7 -5 -10l-37 -14q-8 -2 -16 14q-14 25 -50 77t-81 112q-27 35 -62.5 60.5t-81.5 35.5 q-18 4 -80.5 8t-134 6t-136 3t-87.5 1v-42v-88q0 -52 -1 -114.5t-1 -122.5v-113v-83v-102q10 0 50 1t85 2t84 3t49 4q35 6 55.5 24.5t35.5 65.5q4 16 10 44t10 57q4 14 14 14l41 -2q12 0 13 -15q-2 -12 -3 -46.5t-1 -72.5v-71v-43q0 -55 3 -118.5t7 -94.5q0 -14 -15 -16 l-39 -9q-10 -2 -14 15q0 6 -3 19.5t-6 28.5t-7 29.5t-6 22.5q-20 72 -84 80q-37 4 -80 7t-83 4t-72 1h-44v-76v-52v-82q0 -46 1 -96t1 -93v-74v-39q0 -41 13.5 -53t66.5 -12h100q18 0 19 -13v-51q0 -16 -17 -16q-16 0 -80.5 3t-197.5 3q-121 0 -183.5 -3t-84.5 -3 q-12 0 -13 14v55q0 10 15 11h92q41 0 55 8t17 37q2 14 3 68.5t2 140.5t2 197.5t1 244.5v143q0 33 -1 97.5t-1 129t-1 116t-1 61.5q0 59 -84 59h-119q-14 1 -14 13z" />
<glyph unicode="G" horiz-adv-x="1675" d="M98 766q0 141 58.5 279.5t173.5 240.5q111 94 250 144.5t325 50.5q66 0 127.5 -11.5t114.5 -29t94 -38t68 -40.5q16 -14 26.5 -12t20.5 14l30 37l13 12q6 6 16 6q18 0 19 -24l6 -391q0 -18 -10 -19l-37 -4q-12 0 -17 16q-12 43 -40.5 110t-82.5 132q-23 29 -58.5 58.5 t-81.5 54t-104.5 40t-127.5 15.5q-106 0 -202.5 -34t-189.5 -132q-84 -88 -132 -210t-48 -261q0 -182 49.5 -331.5t145.5 -241.5q78 -74 169 -110t191 -36q123 0 203 19.5t133 50.5q35 23 45 61.5t10 118.5v152q0 55 -18 74.5t-66 19.5h-86q-14 0 -14 12v51q0 16 12 17 q23 0 89.5 -3t170.5 -3q111 0 165.5 3t76.5 3q16 0 17 -15v-49q0 -16 -15 -16h-80q-29 0 -46 -15.5t-17 -62.5v-270q0 -23 4 -38.5t4 -27.5q0 -20 -33 -33q-125 -63 -256 -97t-303 -34q-68 0 -146.5 13.5t-155.5 41t-147.5 72.5t-123.5 107q-94 106 -141.5 241.5 t-47.5 321.5z" />
<glyph unicode="H" horiz-adv-x="1746" d="M72 1393v49q0 14 16 14q31 0 91.5 -3t195.5 -3q121 0 182 3t90 3q20 0 21 -10v-53q0 -16 -17 -17h-104q-53 0 -66.5 -27.5t-13.5 -88.5q0 -10 -1 -60.5t-1 -115t-1 -130t-1 -108.5v-35q0 -16 24 -16h758q23 0 32 5t9 25v21q0 43 -1 111.5t-2 135t-2 118t-1 61.5 q0 49 -11.5 76.5t-56.5 27.5h-106q-14 0 -14 15v53q0 12 12 12q33 0 99.5 -3t170.5 -3t169 3t93 3q16 0 17 -16v-49q0 -14 -17 -15h-92q-45 0 -55 -26.5t-10 -81.5q0 -10 -1 -71.5t-1 -136.5t-1 -144.5t-1 -98.5v-69v-58q0 -41 1 -94t1 -114.5t1 -120t2 -107.5t1 -78 q0 -55 17.5 -78.5t64.5 -23.5h90q18 0 18 -15v-49q0 -16 -16 -16q-29 0 -87.5 3t-170.5 3q-68 0 -115 -1t-82 -2t-60.5 -2t-47.5 -1q-12 0 -13 14v51q0 14 17 15h129q37 0 46 26.5t9 67.5q0 37 1 108.5t2 149.5t2 145.5t1 96.5v28q0 16 -9 20.5t-36 4.5h-749q-29 0 -29 -21 v-43v-83q0 -62 1 -140t2 -157.5t1 -133.5q2 -70 65 -69h101q16 0 16 -15v-51q0 -14 -16 -14q-29 0 -88.5 3t-169.5 3q-66 0 -112 -1t-78.5 -2t-54 -2t-40.5 -1q-14 0 -14 14v53q0 12 14 13h121q39 0 48 30.5t9 67.5t1 119t2 171t2 162.5t1 94.5v88q0 47 -1 116.5t-1 136 t-1 119t-1 64.5q0 78 -16 105.5t-74 27.5h-96q-12 1 -12 17z" />
<glyph unicode="I" horiz-adv-x="759" d="M41 1389v55q0 12 14 12q18 0 97 -3t223 -3q68 0 116 1t79.5 2t51 2t29.5 1q14 0 15 -14v-51q0 -14 -17 -15h-96q-31 0 -51.5 -13t-20.5 -44v-43q0 -37 -1 -90t-2 -114.5t-2 -115t-1 -91.5v-44v-157v-44q0 -38 1 -93.5t2 -120t2 -120t1 -93.5v-46q0 -47 23.5 -60t73.5 -13 h84q16 0 16 -15v-53q0 -12 -19 -12q-18 0 -83.5 3t-200.5 3q-147 0 -218 -3t-87 -3t-17 12v55q0 12 17 13h114q31 0 58.5 9t33.5 50q0 8 2.5 46t3.5 94.5t2 122t2 127t1 113.5v79v143v48q0 36 -1 83t-2 100.5t-2 98.5t-2 77.5t-1 41.5q-4 37 -23.5 53t-79.5 16h-119 q-16 1 -16 13z" />
<glyph unicode="J" horiz-adv-x="679" d="M-158 -330q0 47 33 73t82 26q53 0 98 -31t62 -78q35 10 65.5 44t46.5 85q12 37 19.5 106.5t10.5 156.5t3 181.5t-1 181.5t-2 157.5t-1 107.5v143v77q0 65 -1 144.5t-2 154.5t-3 108q-2 35 -21.5 52t-78.5 17h-91q-14 0 -14 10v56q0 14 14 14q16 0 82 -3t211 -3 q131 0 192.5 3t84.5 3q16 0 16 -12v-51q0 -16 -16 -17h-103q-41 0 -57 -13t-18 -46q0 -12 -1 -63.5t-2 -127t-2.5 -168t-1.5 -184.5v-94q0 -98 -1 -183t-3 -150.5t-3 -111t-1 -63.5q0 -102 -14 -183t-62 -159q-31 -55 -72.5 -105.5t-90.5 -88t-104.5 -61.5t-112.5 -24 q-14 0 -38 6.5t-46.5 19.5t-39 35.5t-16.5 57.5z" />
<glyph unicode="K" horiz-adv-x="1458" d="M115 8v53q0 12 14 13h84q29 0 40 10t15 27q0 6 1 71.5t2 160.5t2 205.5t1 207.5v118v46q0 37 -1 85t-2 103t-2 102t-1 80v37q0 16 -11 32.5t-50 16.5h-72q-16 0 -16 15v53q0 12 16 12q18 0 71.5 -3t168.5 -3q104 0 157.5 3t73.5 3q16 0 17 -12v-53q0 -14 -15 -15h-86 q-31 0 -44 -13t-13 -50q0 -12 -1 -69.5t-2 -130.5t-2 -143.5t-1 -107.5v-102h37q25 0 43 6t41 22q10 8 47 50.5t84 99.5t100 123.5t98 124t77 98.5t36 47q14 23 8 36t-26 13h-29q-10 0 -10 15v47q0 14 12 14q18 0 74.5 -3t128.5 -3q45 0 91 3t64 3q14 0 15 -10v-55 q0 -14 -17 -15h-43q-23 0 -53.5 -9t-58.5 -30q-18 -14 -55.5 -51t-83.5 -86t-96 -106.5t-97 -111.5t-85 -101t-61 -76q4 -6 45 -57.5t101.5 -124t128 -158.5t128 -159t101.5 -124t45 -57q27 -33 67 -42t77 -9h71q14 0 15 -15v-51q0 -14 -17 -14q-16 0 -75.5 3t-176.5 3 q-129 0 -192.5 -3t-85.5 -3q-12 0 -12 12v53q0 12 12 13h31q29 0 35 19.5t-3 35.5q-4 10 -34.5 53t-73.5 101.5t-92.5 124t-93.5 122t-75.5 96.5t-37.5 44q-25 20 -46.5 25t-43.5 5h-39v-147q0 -39 1 -106.5t2 -137t2 -124t1 -64.5q4 -45 47 -45h90q16 0 16 -13v-53 q0 -14 -12 -14q-18 0 -69.5 3t-161.5 3q-123 0 -177.5 -3t-68.5 -3t-14 14z" />
<glyph unicode="L" horiz-adv-x="1355" d="M80 8v51q0 14 14 15h99q57 0 72.5 17.5t15.5 37.5v55q0 45 1 109.5t2 140.5t2 147.5t1 131.5v90v115q0 49 -1 110.5t-2 117.5t-2 99t-1 58q-4 41 -16.5 57t-59.5 16h-96q-14 0 -15 21v45q0 14 15 14q16 0 76.5 -3t189.5 -3q150 0 219.5 3t83.5 3q12 0 15 -4t3 -12v-47 q0 -16 -20 -17h-123q-47 0 -59.5 -17.5t-12.5 -62.5q0 -10 -1 -66t-2 -130t-2 -152t-1 -131v-176v-47v-95q0 -56 1 -120t1 -124t1 -107.5t3 -67.5q10 -2 49 -2t90.5 -1t110.5 -1h113q53 0 94 1t57 3q45 6 89 50t81 99.5t64.5 109.5t38.5 85q6 12 16 8l33 -12q5 -3 4 -12 q0 -3 -16 -69q-14 -56 -32 -126t-33 -134.5t-19 -84.5q-10 0 -43 1t-83.5 2t-112.5 1h-130q-68 0 -138.5 1t-134.5 1h-122h-99q-59 0 -104 -1t-78 -1q-31 -2 -50.5 -3t-29.5 -1q-16 0 -16 14z" />
<glyph unicode="M" horiz-adv-x="2009" d="M16 12v49q0 12 13 13h108q59 0 79 34.5t30 88.5q6 37 11 100t8 139t5 155t3 145.5t2 111.5t1 55v66v122q0 67 -1 127t-1 82q0 18 -2 32t-9 24t-24.5 15t-48.5 5h-124q-14 0 -15 15v53q0 12 15 12q8 0 23 -1t44 -2t73 -2t109 -1q72 0 114 3t60 3q23 0 34.5 -7t19.5 -28 l454 -1093q6 8 26.5 49t47.5 100.5t56.5 126t54 124.5t43 99t22.5 47t22.5 47.5t45 99.5t57.5 124.5t56.5 125t43 101.5t19.5 53q4 16 17.5 20.5t29.5 4.5q102 0 169 1t107.5 2t60 2t28.5 1q12 0 12 -14v-47q0 -18 -17 -19h-90q-47 0 -57 -24.5t-10 -59.5q0 -23 -1 -82 t-2 -132.5t-2 -148.5t-1 -126v-144q0 -39 1 -111.5t2 -148t2 -138t1 -77.5q0 -59 15.5 -84.5t53.5 -25.5h121q14 0 15 -15v-47q0 -10 -3.5 -14t-15.5 -4q-10 0 -23.5 1t-44 2t-83 2t-136.5 1q-141 0 -207.5 -3t-86.5 -3q-16 0 -17 18v47q0 14 17 15h139q27 0 40 13t17 60 q0 6 1 38t1 78t1 102.5t1 113.5v110v91v131v135q0 84 -1 167t-2 146.5t-3 69.5h-4q-6 -6 -30.5 -58t-59.5 -128t-75 -162t-73.5 -161t-57 -127t-26.5 -56q-4 -6 -22 -49t-45 -104.5t-57.5 -131t-57 -131t-45 -103.5t-20.5 -46q-6 -14 -17.5 -31.5t-23.5 -17.5 q-10 0 -17.5 10t-13.5 26q-2 4 -22.5 54.5t-50 125t-64.5 160.5t-65.5 161t-52.5 127t-24 58q-10 23 -30.5 74t-46 112.5t-54 128t-53 123t-44 95.5t-26.5 45q-2 -8 -4 -51t-3 -104.5t-2 -132t-2 -131t-1 -103.5v-49v-43v-89v-115v-119q0 -56 1 -100t3 -63 q8 -88 26.5 -118.5t68.5 -30.5h102q14 0 14 -15v-51q0 -6 -3 -10t-15 -4q-16 0 -68.5 3t-179.5 3q-131 0 -190.5 -3t-73.5 -3q-12 0 -15.5 3t-3.5 15z" />
<glyph unicode="N" horiz-adv-x="1628" d="M45 1391v53q0 12 12 12q8 0 21.5 -1t36.5 -1q23 -2 57.5 -3t87.5 -1t86 2t51 2q35 0 60 -27q2 -4 33.5 -44t77.5 -99t99.5 -129t100.5 -130t80 -104t39 -51q6 -8 35.5 -43.5t71.5 -88t91.5 -113l94.5 -115.5t78.5 -98t46.5 -60h8v244v122q0 54 -1 100t-2 85t-3 78 q0 31 -3 79l-7 96q-3 48 -7 88t-8 52q-25 80 -113 80h-65q-12 0 -12 15v53q0 12 12 12q23 0 75 -3t150 -3q92 0 135 3t64 3q16 0 16 -14v-51q0 -14 -12 -15h-55q-41 0 -58.5 -26.5t-21.5 -85.5q-4 -51 -5 -112.5t-2 -125t-1 -125.5v-110v-766q0 -23 -2.5 -36.5t-8.5 -13.5 q-18 0 -31.5 13.5t-17.5 19.5q0 2 -21.5 28.5t-56 71t-80 100.5t-92.5 116q-53 68 -106 133t-95 118.5t-71 88t-33 38.5q-6 4 -37.5 43t-77 94.5t-95.5 119t-94 119t-74.5 93t-33.5 41.5h-12v-454q0 -72 3 -163t6 -176t6.5 -148.5t5.5 -77.5q6 -59 20.5 -89t54.5 -30h62 q16 0 16 -19v-45q0 -16 -16 -16q-8 0 -31.5 1t-54.5 2l-62 2q-31 1 -51 1q-16 0 -47 -1t-63.5 -2t-59 -2t-35.5 -1q-10 0 -10 14v53q0 12 12 13h70q45 0 64.5 24.5t27.5 100.5q4 29 6 195.5t2 441.5v348q0 92 -39.5 140t-95.5 50l-84 2q-12 1 -12 15z" />
<glyph unicode="O" horiz-adv-x="1681" d="M98 711q0 47 7.5 105t29 125t58 137.5t96.5 142.5q68 82 138.5 133t142 78.5t140 38t134.5 10.5q49 0 103 -6.5t113.5 -23.5t120 -49t122.5 -83q55 -49 106 -110.5t90 -138.5t61.5 -167t22.5 -196q0 -113 -37 -226.5t-116 -222.5q-47 -61 -105.5 -114.5t-130.5 -92.5 t-160 -60.5t-194 -21.5q-37 0 -88.5 7.5t-109.5 22.5t-119.5 41t-123.5 62q-55 33 -108 90.5t-96 135.5t-70 174t-27 209zM307 776q0 -135 29 -241.5t75 -187.5t105 -138t120.5 -93t119 -52.5t100.5 -16.5q113 0 196 35t141 91t95 127t57.5 142.5t28.5 137t8 110.5 q0 168 -53 300t-135 224.5t-177 140.5t-181 48q-12 0 -42 2h-12q-26 0 -62 -7q-44 -9 -97.5 -35t-110.5 -81q-51 -49 -90 -110.5t-64.5 -128t-38 -135.5t-12.5 -132z" />
<glyph unicode="P" horiz-adv-x="1243" d="M63 1393v49q0 14 13 14q16 0 80.5 -3t210.5 -3q14 0 41.5 1t59.5 2t65.5 2t58.5 1q86 0 152.5 -5t118.5 -16.5t97.5 -31t88.5 -49.5q72 -49 113.5 -129t41.5 -168q0 -195 -137 -306.5t-383 -111.5q-57 0 -115.5 2t-107.5 8v-106v-101q0 -63 1 -126.5t2 -114.5t1 -62 q6 -66 67 -65h132q16 0 16 -15v-49q0 -8 -3 -12t-15 -4q-10 0 -30 1t-51.5 2t-81.5 2t-122 1q-135 0 -200.5 -3t-82.5 -3q-16 0 -16 14v51q0 14 12 15h88q53 0 69.5 12t20.5 53q0 8 2 65.5t3 141.5t2 182.5t1 188.5v235v114q0 62 -1 118.5t-2 97.5t-1 49q-4 31 -21.5 38 t-57.5 7h-117q-13 1 -13 17zM461 723q31 -10 80 -14t108 -4q94 0 171 43t118 96q35 45 44 99t9 108q0 100 -41 165.5t-99 104.5t-121.5 54.5t-108.5 15.5h-34q-22 0 -44 -2l-45 -5q-23 -2 -37 -8v-653z" />
<glyph unicode="Q" horiz-adv-x="1669" d="M98 750q0 147 61.5 288.5t174.5 245.5q59 53 127.5 91t135.5 62.5t126 35.5q49 9 86 8h14h23q166 0 295 -58q137 -61 233 -161q104 -111 153 -244q44 -123 44 -251v-22v-19q0 -72 -13 -140q-15 -78 -44 -146.5t-69 -128t-85 -104.5q-90 -90 -175 -139.5t-181 -81.5v-9 q160 -59 288.5 -93t235.5 -56q195 -43 312.5 -63.5t184.5 -27.5q53 -6 82 -6q8 0 15 1q29 2 43 2q43 0 75.5 15t51.5 30q12 12 18 2l14 -21q2 -3 3 -6q0 -7 -9 -14q-10 -10 -37.5 -37t-66.5 -55.5t-83 -51t-87 -22.5q-23 0 -60.5 2t-101 11.5t-157 28.5t-228.5 54 q-78 18 -170 48t-193.5 68t-209 83t-213.5 94q-16 6 -56.5 16.5t-95.5 37t-123.5 71.5t-138.5 121q-84 86 -141.5 220.5t-57.5 320.5zM305 766q0 -102 20.5 -190.5t52.5 -161t70.5 -127t75.5 -90.5q57 -55 106.5 -87t89.5 -49.5t69.5 -21.5t52.5 -4q102 0 182 35.5t138.5 93 t97 129.5t62.5 143.5t34 137t10 108.5q0 186 -47 329.5t-129 221.5q-94 90 -180 132t-199 42q-72 0 -157 -23.5t-171 -109.5q-51 -51 -84.5 -112.5t-54 -128t-30 -135.5t-9.5 -132z" />
<glyph unicode="R" horiz-adv-x="1427" d="M106 10v47q0 16 11 17h84q35 0 57.5 14t22.5 55q4 154 4 298v292v199v206q0 91 -2 136q-4 102 -78 102h-82q-12 0 -12 15v51q0 14 12 14q14 0 69.5 -3t184.5 -3q43 0 96 1t103.5 2t89.5 2t53 1q129 0 226 -35t157 -90q51 -49 78.5 -112.5t27.5 -120.5q0 -96 -22.5 -164 t-68.5 -116t-117.5 -78.5t-170.5 -51.5v-4q37 -14 59.5 -37.5t35.5 -40.5q8 -10 36.5 -48t59.5 -83t57.5 -83t32.5 -48q4 -8 26.5 -42t52.5 -73t58.5 -74.5t42.5 -45.5q33 -23 69 -29t79 -6q16 0 16 -17v-45q0 -18 -16 -18q-12 0 -52 3t-108 3q-45 0 -94 -2t-72 -4 q-8 8 -20.5 23.5t-24.5 33t-23.5 33.5t-17.5 27q-6 8 -26.5 43.5t-44 76.5t-43 75t-23.5 40t-21.5 31.5t-39 57.5t-42 61.5t-28.5 40.5q-20 25 -41 46t-45.5 37.5t-57 25.5t-77.5 9q-14 0 -29.5 -1t-38.5 -5v-114v-107q0 -61 1 -117.5t2 -100.5t1 -56q4 -33 16.5 -56.5 t34.5 -23.5h129q16 0 17 -17v-45q0 -10 -3 -14t-20 -4q-8 0 -23.5 1t-46 2t-77.5 2t-121 1q-70 0 -116 -1t-73.5 -2t-43 -2t-23.5 -1q-12 0 -14.5 4t-2.5 12zM469 729q23 -4 43 -6t49 -2q139 0 226 41t135.5 97t66 113.5t17.5 90.5q0 72 -29 134.5t-74 98.5q-59 47 -136 71 t-204 24q-18 0 -36.5 -3.5t-32.5 -13.5q-25 -18 -25 -65v-580z" />
<glyph unicode="S" horiz-adv-x="1122" d="M137 74q2 18 7.5 70.5t10.5 111.5t10 112.5t7 75.5q2 10 5 11.5t9 1.5l31 -2q12 0 12 -17q2 -49 12.5 -104t61.5 -133q47 -72 124 -112t163 -40q45 0 95 14.5t90 46t66.5 81t26.5 118.5q0 80 -26.5 135.5t-69.5 95.5t-100.5 66.5t-118.5 48.5q-25 8 -61.5 22.5t-78.5 35 t-84 47t-75 61.5q-51 51 -76.5 124t-25.5 175q0 78 39.5 147.5t87.5 114.5q55 53 128.5 76t157.5 23q88 0 151.5 -19.5t90.5 -31.5q25 -12 39 2l26 24q14 12 27 12q8 0 12 -10t4 -24q0 -27 4.5 -75t9.5 -98.5t10 -93.5t5 -59q0 -14 -10 -16l-25 -7q-10 -4 -12 7 q-12 45 -37.5 103t-89.5 124q-82 88 -223 88q-68 0 -116 -22.5t-76.5 -58.5t-42 -78t-13.5 -81q0 -43 12.5 -90t50.5 -88q23 -23 53.5 -42t63.5 -34.5t63.5 -28t53.5 -18.5q106 -35 190 -68.5t140 -101.5q41 -47 65.5 -111.5t24.5 -166.5q0 -90 -27.5 -172t-80 -143.5 t-131.5 -97.5t-179 -36q-109 0 -186.5 30t-139.5 77q-33 25 -47 24q-10 0 -16 -9t-16 -25t-18.5 -20.5t-18.5 -4.5t-17 8q-4 5 -3 13q-1 5 1 12z" />
<glyph unicode="T" horiz-adv-x="1437" d="M-14 1118q-2 1 -2 4t2 8q8 27 23.5 84.5t30.5 116t27.5 105.5t14.5 55q4 20 9 26.5t11 6.5q14 0 25 -8l27 -19q29 -20 50 -26.5t66 -8.5q41 -2 79 -4t83 -4t99.5 -3t125.5 -1h99q84 0 144.5 1t107.5 3t84.5 4t74.5 4q35 2 57.5 7.5t49.5 21.5l39 25q14 8 24 8 q8 0 11.5 -6.5t7.5 -26.5q2 -10 9 -56t16 -105l19 -117q2 -15 6.5 -35t6.5 -34.5t2 -24.5q0 -11 -12 -13l-33 -8q-6 -2 -9 1t-7 13q-6 14 -20.5 47t-34 70t-43 68.5t-48.5 43.5q-23 12 -66.5 18.5t-95 10.5t-103.5 5t-89 1h-57v-583v-56v-114v-147v-146q0 -68 1 -117t1 -57 q4 -39 18 -60.5t51 -21.5h129q14 0 17.5 -5.5t3.5 -15.5v-43q0 -8 -3 -12t-18 -4q-8 0 -25.5 1t-50 2t-84 2t-126.5 1q-147 0 -218 -3t-94 -3q-12 0 -15 5t-3 15v39q0 20 14 21h140q31 0 48 15t19 34q2 14 3 71.5t1 135.5t1 165t1 162v129v64v526h-51h-67q-42 0 -89 -3 t-92 -8t-76 -13q-35 -10 -63.5 -40t-51 -66t-40 -71.5t-27.5 -60.5q-6 -12 -20 -10l-37 10z" />
<glyph unicode="U" horiz-adv-x="1527" d="M16 1395v45q0 10 3.5 13t15.5 3q16 0 88 -3t192 -3q121 0 193 3t88 3q12 0 15 -3t3 -9v-53q0 -14 -16 -15h-102q-45 0 -70 -24.5t-29 -59.5q0 -6 -1 -34.5t-2 -66.5t-1 -82v-83v-135q0 -41 1 -104.5t3 -129t4 -121t2 -79.5q2 -72 16.5 -139.5t49.5 -120.5 q57 -84 146.5 -116t179.5 -32q88 0 171 28.5t136 84.5q59 66 82.5 156t23.5 204v439q0 117 -3 201.5t-7 123.5q-4 41 -27.5 65.5t-64.5 24.5h-90q-14 0 -15 17v49q0 14 15 14q16 0 81.5 -3t170.5 -3q106 0 158.5 3t66.5 3t17 -5t3 -9v-45q0 -20 -12 -21h-84q-29 0 -45 -9 t-25.5 -22.5t-12.5 -27.5t-5 -23q-2 -8 -3 -58t-1 -109v-110v-63v-40q0 -32 -1 -76.5t-2 -98t-2 -102.5t-2 -89t-3 -61q-10 -127 -48 -224t-124 -171q-61 -57 -155.5 -90t-229.5 -33q-80 0 -153 10.5t-124 32.5q-104 41 -161.5 108.5t-81.5 166.5q-10 35 -16.5 79t-9.5 103 t-5 137t-2 178v488q0 53 -15.5 78.5t-62.5 25.5h-96q-15 1 -15 19z" />
<glyph unicode="V" horiz-adv-x="1445" d="M57 1391v51q0 14 15 14q16 0 71.5 -3t175.5 -3q129 0 199 3t84 3t17.5 -4t3.5 -10v-47q0 -18 -17 -19h-98q-86 0 -86 -53q0 -12 2 -29.5t6 -40.5q4 -29 19.5 -83t34 -117.5t38 -126t33.5 -105.5q6 -20 19.5 -60t31 -91.5t37 -108.5t38.5 -112.5t35.5 -103.5t28.5 -79h5 q10 25 29.5 73t43 106.5t47 122t45 117.5t36 94t18.5 52q8 20 24 70l36 108l38 113q18 55 31 90q12 39 20 67t8 50q0 18 -13 32.5t-52 14.5h-53q-10 0 -11 19v47q0 14 13 14q14 0 78.5 -3t162.5 -3q113 0 159 3t60 3t15 -14v-51q0 -14 -15 -15h-55q-51 0 -84 -22.5 t-61 -57.5q-14 -16 -35 -59t-46.5 -99.5t-52 -120t-50 -120.5t-42 -103t-26.5 -69q-6 -16 -29.5 -76.5t-56.5 -140.5t-69 -170t-67.5 -167t-53 -129t-23.5 -56q-14 -27 -29 -27q-12 0 -19 13.5t-16 33.5q-16 47 -39.5 114.5t-50 142.5t-53.5 150.5t-50.5 141.5t-41 114 t-23.5 66l-20 70l-44 132q-26 77 -50.5 151.5t-46 136t-31.5 84.5q-16 35 -33.5 51t-50.5 16h-53q-11 1 -11 15z" />
<glyph unicode="W" horiz-adv-x="2140" d="M-35 1393v49q0 14 17 14q12 0 63 -3t156 -3q111 0 173 3t79 3q16 0 16 -12v-51q0 -16 -16 -17h-35q-41 0 -55.5 -19.5t-4.5 -53.5l330 -1037h4l17 49q14 43 36.5 110t50 149.5t57.5 169.5t57.5 173.5t50 157t37 120.5t16.5 67q2 12 -7.5 34.5t-23.5 40.5q-29 39 -82 39 h-51q-12 0 -12 17v49q0 14 14 14t71.5 -3t178.5 -3q129 0 191.5 3t78.5 3q14 0 14 -14v-51q0 -14 -14 -15h-82q-39 0 -53 -26.5t-4 -55.5l319 -1028h4q6 16 32 92t62 182.5t75.5 229.5t72.5 233.5t55.5 195.5t22.5 114q0 25 -15.5 44t-56.5 19h-55q-14 0 -14 19v47 q0 14 16 14t69.5 -3t149.5 -3q86 0 132 3t59 3q14 0 14 -14v-51q0 -6 -2 -10.5t-12 -4.5h-50q-27 0 -47 -15t-34 -40q-4 -6 -24.5 -60.5t-52.5 -142.5t-73 -198.5t-84 -227.5t-85 -230.5t-77 -207.5t-58.5 -158.5t-31.5 -83.5l-17 -35q-9 -18 -26 -18q-18 0 -27.5 11.5 t-17.5 33.5l-379 1124h-4q-4 -10 -22.5 -63t-47 -133t-63.5 -179.5t-70.5 -201.5t-70.5 -199.5t-62.5 -175.5t-46 -126t-20.5 -52q-8 -16 -17.5 -27.5t-23.5 -11.5q-27 0 -37 33l-457 1311q-16 43 -37.5 58t-50.5 15h-70q-12 1 -12 17z" />
<glyph unicode="X" horiz-adv-x="1427" d="M-47 12v47q0 14 12 15h80q25 0 55.5 16t61.5 43q47 41 111.5 123t130 172t126 173t97.5 128q-18 27 -53 80t-79 117.5t-91.5 133t-89.5 128t-72.5 102.5t-42.5 56q-31 31 -93 30h-90q-10 0 -10 17v47q0 16 10 16q16 0 87 -3t204 -3q154 0 224.5 3t84.5 3q16 0 17 -14v-47 q0 -10 -3 -14.5t-16 -4.5h-71q-35 0 -52.5 -9t-22.5 -22.5t0 -31t15 -33.5q6 -12 41 -68.5t76 -125t81 -133t58 -89.5q14 18 41 54t59.5 80t67.5 92.5t64.5 89.5t50 71.5t27.5 40.5q16 31 8 57.5t-49 26.5h-43q-12 0 -13 19v47q0 14 15 14q16 0 75.5 -3t147.5 -3q86 0 138 3 t69 3q16 0 16 -14v-47q0 -18 -12 -19h-86q-35 0 -53.5 -8t-32.5 -18q-10 -6 -41 -42t-74 -88.5t-92 -115t-95 -120.5t-83 -107.5t-58 -75.5q6 -10 40 -62.5t82 -125t102.5 -155.5t100.5 -155t80 -121t38 -53q35 -33 70.5 -44t64.5 -11h68q16 0 16 -15v-49q0 -16 -16 -16 q-12 0 -72 3t-189 3q-123 0 -200.5 -3t-87.5 -3q-16 0 -17 14v51q0 14 13 15h79q31 0 45.5 9t4.5 30q-4 8 -27 47t-56.5 95t-73.5 121.5t-77 124t-65.5 103.5t-38.5 60q-20 -29 -52 -74t-68 -97.5t-73 -106.5t-67.5 -100t-51 -79t-24.5 -41q-10 -28 -11 -48q0 -11 4 -20 q9 -25 46 -24h80q16 0 16 -13v-49q0 -18 -16 -18t-79 3t-188 3q-92 0 -149 -3t-72 -3q-12 0 -12 18z" />
<glyph unicode="Y" horiz-adv-x="1361" d="M-31 1391v53q0 12 15 12q14 0 79.5 -3t159.5 -3q80 0 134.5 1t90 2t54 2t26.5 1q14 0 15 -10v-51q0 -18 -15 -19h-67q-47 0 -57.5 -15t-4.5 -52q2 -8 21.5 -47t50.5 -95.5t67.5 -123t71.5 -130t63.5 -117t45.5 -81.5q18 29 53 81t75 113.5t82 127t77.5 119.5t58 92 t25.5 48q2 12 4 26.5t-3.5 27t-20.5 19.5t-48 7h-55q-14 0 -15 19v49q0 12 15 12q16 0 76.5 -3t164.5 -3q92 0 131 3t54 3q16 0 16 -12v-49q0 -18 -16 -19h-52q-23 0 -48 -10t-52 -35q-10 -10 -45 -56t-82 -112.5t-101.5 -144.5t-105.5 -150.5t-92 -131t-59 -87.5v-268 q0 -31 1 -68t2 -71.5t3 -61t2 -35.5q4 -49 26.5 -60t63.5 -11h80q10 0 12 -4t2 -11v-47q0 -10 -2 -14t-12 -4q-18 0 -83 3t-194 3q-70 0 -116.5 -1t-78.5 -2t-49.5 -2t-25.5 -1q-12 0 -12 16v49q0 14 14 15h100q41 0 55.5 14t16.5 37q0 10 1 45t2 85t2 114.5t1 136.5v119 q-6 12 -36.5 65t-72.5 125t-91.5 154t-94.5 155.5t-80.5 129t-50.5 73.5q-20 23 -51 36t-55 13h-51q-15 1 -15 15z" />
<glyph unicode="Z" horiz-adv-x="1437" d="M88 16q0 10 2 20.5t10 18.5q20 23 71.5 91.5t123.5 166t156 212t169 232t164.5 229.5t142 199t101.5 141t41 58h-555q-41 0 -82 -32q-16 -12 -52 -53.5t-75 -89.5t-73.5 -93t-49.5 -69q-8 -10 -18 -3l-27 13l-6 6q-2 2 2 12l129 369q8 23 25 22q6 0 17 -1t24 -3 q37 -4 103.5 -7t146 -4t160.5 -1h145q55 0 110 2l111 4q111 6 217 6q25 0 28 -14t-14 -35q-8 -8 -52 -67.5t-111.5 -151.5t-152.5 -208t-173 -235.5t-173 -236.5t-152.5 -211t-111.5 -155.5t-53 -73.5h721q29 18 73 62t89 93.5t80 92.5t45 55q8 8 18 4l29 -16q6 -4 6 -11 q0 -4 -2 -8q-10 -18 -31.5 -68.5t-45 -106.5t-43 -107.5t-25.5 -71.5q-6 -23 -27 -23q-6 0 -18.5 2t-32.5 6q-43 6 -120 10.5t-166 7.5t-181 4t-166 1h-432q-12 0 -25.5 2t-13.5 14z" />
<glyph unicode="[" horiz-adv-x="724" d="M186 -332v1843q0 18 21 19h420q12 0 12 -12v-50q0 -16 -16 -16h-277q-20 0 -20 -22v-1678q0 -29 14 -28h303q16 0 16 -19v-43q0 -16 -18 -16h-432q-23 -1 -23 22z" />
<glyph unicode="\" horiz-adv-x="716" d="M4 1432q-6 16 4 20l78 33q12 4 20 -10l607 -1450q8 -20 -4 -25l-76 -31q-6 -2 -11.5 2t-13.5 23z" />
<glyph unicode="]" horiz-adv-x="724" d="M66 -295q0 10 2 14.5t14 4.5h305q12 0 12 24v1682q0 23 -18 22h-279q-16 0 -16 16v50q0 12 12 12h420q20 0 21 -19v-1843q0 -23 -23 -22h-432q-18 0 -18 16v43z" />
<glyph unicode="^" d="M47 532l432 867h66l434 -867h-133l-336 672h-10l-326 -672h-127z" />
<glyph unicode="_" d="M0 -154h1024v-102h-1024v102z" />
<glyph unicode="`" horiz-adv-x="684" d="M64.5 1275.5q7.5 20.5 26 34t40.5 13.5q31 0 50.5 -17.5t33.5 -33.5l197 -244q4 -8 -2 -10l-25 -23q-6 -6 -12 0l-271 193q-29 20 -37 43.5t-0.5 44z" />
<glyph unicode="a" horiz-adv-x="874" d="M88 614q0 49 39 102.5t102 90.5q66 39 123.5 55.5t126.5 16.5q72 0 107 -17.5t57 -38.5q33 -33 39 -68.5t6 -76.5v-313v-121q0 -88 16.5 -121t45.5 -33q25 0 44 10.5t27 20.5q12 14 21 8l20 -16q6 -6 7 -16q0 -8 -9 -21q-6 -12 -17.5 -28.5t-29.5 -33t-46 -28t-67 -11.5 q-55 0 -93 37t-52 101h-4q-68 -80 -203 -125q-29 -10 -57.5 -11.5t-63.5 -1.5q-18 0 -39.5 8.5t-40 29t-31 52t-12.5 80.5q0 70 42 132.5t163 115.5q70 31 138.5 63.5t93.5 55.5v131q-4 27 -8.5 60.5t-20.5 54.5q-16 20 -47 32.5t-76 12.5q-31 0 -70.5 -11.5t-62.5 -31.5 t-16.5 -43t6.5 -51q0 -53 -22.5 -85t-86.5 -32q-49 -1 -49 65zM264 184q0 -57 30 -84.5t77 -27.5q23 0 51.5 12t55 30.5t44 41t17.5 43.5v252q-29 -20 -75 -41t-90 -49.5t-77 -71t-33 -105.5z" />
<glyph unicode="b" horiz-adv-x="1032" d="M4 1317v16q0 8 16 17q23 10 52.5 24.5t59.5 29.5t58.5 30.5t47.5 27.5q10 8 21 13.5t22 5.5q18 0 16 -35q0 -6 -1 -49t-1 -106v-136v-141v-238q49 47 128 75t155 28q68 0 134 -28t120.5 -82t87 -136t32.5 -193q0 -90 -33.5 -174t-92 -148.5t-135.5 -103.5t-165 -39 q-86 0 -146.5 15.5t-94.5 38.5l-82 -45q-12 -8 -27 -7l-24 7q-10 2 -9 16q2 10 3 45t1 84v107v112v756q0 51 -5 84t-15 53.5t-29.5 31.5t-46.5 21l-20 6q-16 4 -21.5 8.5t-5.5 8.5zM295 440q0 -63 1 -108t5 -79t9 -59.5t16 -50.5q8 -18 26.5 -36.5t45 -33t58 -23.5t64.5 -9 q45 0 94.5 17.5t89 58.5t65.5 108.5t26 167.5q0 74 -19.5 144.5t-58.5 124t-95.5 86t-132.5 32.5q-57 0 -108 -19.5t-86 -53.5v-267z" />
<glyph unicode="c" horiz-adv-x="841" d="M76 397q0 90 30.5 176t87 154t137.5 110t183 42q80 0 133 -19.5t86 -47.5t46.5 -55.5t13.5 -43.5q-2 -35 -22.5 -53.5t-53.5 -18.5q-68 0 -113 82q-35 63 -67.5 76.5t-69.5 13.5q-43 0 -87 -19.5t-78 -59.5t-55.5 -99.5t-21.5 -138.5q0 -84 32 -169t73 -143 q51 -66 110.5 -85t112.5 -19q78 0 125 19.5t100 68.5q8 8 17 0l20 -21q6 -6 6 -12.5t-6 -13.5q-23 -25 -57.5 -51.5t-77.5 -47t-93 -34t-102 -13.5q-41 0 -82 6.5t-81.5 21.5t-79.5 43t-74 73q-57 76 -74.5 142t-17.5 136z" />
<glyph unicode="d" horiz-adv-x="1067" d="M76 401q0 96 35.5 186.5t107.5 162.5q59 66 139 97.5t166 31.5q63 0 117.5 -8.5t101.5 -22.5v399q0 29 -4 49.5t-17 33.5t-39 22.5t-69 15.5q-14 2 -14 14v35q0 12 16 15q31 6 64 12t64.5 12t57 10t40.5 9q14 2 25.5 4t21.5 2q14 0 10 -37q-2 -39 -4 -109.5t-3 -161 t-1 -190.5v-199v-452q0 -57 4 -113.5t16 -73.5q14 -16 41 -24t49 -10q23 -2 30 -4.5t11 -10.5l5 -16q2 -16 -15 -23l-231 -77q-20 -6 -27 16l-26 90q-25 -25 -61 -45.5t-76 -34.5t-83 -22.5t-82 -8.5q-25 0 -52 1t-57 9.5t-62.5 28t-69.5 56.5q-78 76 -103.5 152.5 t-25.5 178.5zM229 463q0 -86 27 -160t68 -127t90 -83t94 -30q86 0 146.5 36t76.5 77q8 23 10 38t2 32v352q0 23 -2 49.5t-16 50.5q-23 41 -73 76t-142 35q-47 0 -96 -16.5t-90 -57.5q-59 -66 -77 -139.5t-18 -132.5z" />
<glyph unicode="e" horiz-adv-x="872" d="M76 444q0 31 5 70t18.5 82t39 88t66.5 86q66 68 140.5 88.5t152.5 20.5q88 0 146 -36t92 -85t48.5 -99.5t14.5 -80.5q0 -23 -16.5 -28t-41.5 -5h-505q-6 -29 -7 -99q0 -76 22.5 -140t61.5 -111.5t92.5 -74t114.5 -26.5q94 0 157.5 44t90.5 95q6 14 18 11l27 -15 q7 -3 7 -11q0 -7 -7 -19q-14 -31 -41 -70t-67.5 -72.5t-95 -57.5t-122.5 -24q-88 0 -176 31t-145 115q-27 39 -44.5 74.5t-27.5 72.5t-14 80t-4 96zM244 606h317q55 0 55 29q0 18 -6 49t-22.5 60.5t-48 51t-80.5 21.5q-68 0 -127 -48t-88 -163z" />
<glyph unicode="f" horiz-adv-x="634" d="M51 8v45q0 14 21 15h98q29 0 38 18t11 53v385v232h-141q-14 0 -10 22l8 62q2 14 24 14h119v39q0 154 39 256t98 170q82 90 166 126t170 36q37 0 70 -7.5t59.5 -21.5t42 -35.5t15.5 -50.5q0 -37 -31 -62.5t-55 -25.5q-33 0 -58 12q-14 8 -28.5 23.5t-20.5 23.5 q-39 47 -94 47q-41 0 -80 -14t-74 -57q-29 -37 -43 -86t-20 -105.5t-7 -115t-1 -111.5v-41h247q10 0 13.5 -7t1.5 -13l-11 -68q-2 -10 -26 -10h-225v-183v-169v-139q0 -60 1 -98t1 -46q4 -27 12 -40t41 -13h117q23 0 22 -17v-33q0 -25 -14 -24q-10 0 -68.5 3t-177.5 3 q-43 0 -82 -1t-70.5 -2t-53 -2t-27.5 -1q-17 0 -17 14z" />
<glyph unicode="g" horiz-adv-x="993" d="M29 -326q0 43 19.5 81t51 69t69.5 55.5t75 40.5v8q-66 14 -102 55.5t-36 88.5q0 37 18.5 68.5t46.5 56t60.5 42t59.5 27.5v4q-31 12 -63.5 37t-61.5 64t-47.5 91t-18.5 120q0 49 22.5 102t66.5 96t110 71t152 28q57 0 102 -15.5t77 -35t51 -40t28 -28.5q41 29 91 54.5 t101 25.5t75.5 -28t20.5 -58q0 -29 -22.5 -52.5t-56.5 -23.5q-27 0 -43.5 10t-28.5 21l-21 12q-10 6 -22 6q-10 0 -27.5 -1t-38.5 -11q12 -31 21.5 -67t9.5 -89q0 -59 -17.5 -116.5t-58.5 -104.5q-20 -23 -50 -41t-63.5 -32.5t-66.5 -21.5t-57 -7q-35 0 -58.5 2t-46.5 8 q-16 -6 -34.5 -16.5t-35 -26t-27.5 -33.5t-11 -39q0 -31 18.5 -47t49.5 -23q27 -5 64 -5h12q44 1 95 5q35 2 66 2q83 0 143 -12q82 -16 144 -63q33 -25 52 -51.5t29.5 -53t14.5 -50t4 -42.5q0 -72 -30 -133t-107 -119q-41 -29 -130 -62.5t-221 -33.5q-74 0 -156.5 12.5 t-156.5 52.5q-55 35 -79.5 75t-24.5 91zM152 -293q0 -39 24.5 -79t54.5 -62q51 -35 115 -46.5t172 -11.5q29 0 79 11.5t98 36t83 64.5q31 36 31 87v12q0 92 -72 151q-61 50 -181 50q-21 0 -44 -2l-197 -14q-25 -6 -53.5 -22.5t-53 -41t-40.5 -58.5t-16 -75zM246 522 q0 -109 65 -178q53 -51 123 -51q51 0 87 28.5t57.5 72.5t30.5 96.5t9 101.5q0 68 -13 110.5t-42 73.5q-20 20 -48 32.5t-50 12.5q-35 0 -72 -10t-74 -47q-49 -53 -61 -118t-12 -124z" />
<glyph unicode="h" horiz-adv-x="1103" d="M53 14v37q0 16 31 17h43q25 0 44 7t24 25q2 14 3 59.5t2 104t1 121.5v113v618q0 47 -5.5 76t-16.5 47t-30.5 28.5t-46.5 20.5l-34 12q-14 4 -15 13v18q0 6 5 9l20 12l213 112q12 6 23.5 11.5t23.5 5.5q23 0 16 -51q-2 -8 -2 -46t-1 -90.5t-2 -115t-1 -120.5v-107v-74 v-132h10q53 66 133 100t148 34q66 0 113 -20.5t90 -61.5q35 -33 53 -68t25.5 -74t8.5 -78.5t1 -80.5v-117q0 -43 1 -87t1 -82t1 -67.5t1 -44.5q0 -18 21.5 -24t54.5 -6h34q23 0 23 -19v-31q0 -25 -16 -24q-10 0 -59.5 3t-137.5 3q-76 0 -127 -3t-65 -3q-18 0 -19 22v35 q0 16 14 17h48q27 0 51 6t26 32v34v54v60v55v166q0 86 -11 148.5t-56 103.5q-59 57 -135 57q-45 0 -96.5 -18t-94.5 -68q-14 -16 -27.5 -43.5t-13.5 -56.5v-446q0 -49 8.5 -66.5t36.5 -17.5h62q23 0 22 -17v-35q0 -23 -16 -22q-12 0 -67.5 3t-127.5 3q-78 0 -131 -3t-67 -3 q-15 0 -15 20z" />
<glyph unicode="i" horiz-adv-x="546" d="M53 10v41q0 16 21 17h100q16 0 23.5 8t9.5 33q2 47 2 93v93v301q0 51 -19.5 81t-95.5 42q-18 2 -18 14v19q0 8 14 14q49 18 105.5 43t115.5 57q25 12 39 13q14 0 10 -25q-4 -27 -4 -116v-218v-223v-110q0 -50 2 -66q4 -29 10.5 -41t22.5 -12h94q20 0 21 -19v-35 q0 -20 -19 -20q-6 0 -25.5 1t-47 2t-59 2t-64.5 1q-90 0 -147.5 -3t-73.5 -3q-17 0 -17 16zM117 1221q0 39 31.5 72.5t93.5 33.5q53 0 79.5 -32.5t26.5 -67.5q0 -41 -28.5 -77t-90.5 -36q-16 0 -36.5 7t-37 21.5t-27.5 34t-11 44.5z" />
<glyph unicode="j" horiz-adv-x="503" d="M-152 -461q0 25 20.5 55.5t53.5 30.5q35 0 61.5 -16.5t55.5 -46.5q29 -31 47 -31q39 0 66.5 43t35.5 137q6 90 8.5 209t2.5 230v405q0 33 -4.5 55.5t-14.5 38t-30.5 26.5t-51.5 23l-20 9q-12 4 -12 14v18q0 6 16 17q49 16 108.5 44.5t112.5 63.5q12 10 20.5 12.5 t18.5 2.5q18 0 12 -35q-4 -14 -6 -110.5t-2 -237.5v-256q0 -45 -1 -105.5t-4 -124t-9 -122t-15 -101.5q-35 -176 -133 -260t-217 -84q-47 0 -83 25.5t-36 70.5zM111 1239q0 16 9 36.5t26.5 39t43 32t58.5 13.5q16 0 36.5 -7t38 -22.5t28.5 -40t11 -57.5q0 -43 -34.5 -81 t-94.5 -38q-18 0 -39.5 7t-40 22.5t-30.5 39t-12 56.5z" />
<glyph unicode="k" horiz-adv-x="1015" d="M57 14v35q0 18 21 19h76q20 0 28 14t8 35q2 68 3.5 156.5t1.5 224.5v678q0 31 -2.5 54t-13.5 39.5t-32.5 29t-58.5 22.5q-29 8 -29 14v19q0 10 27 20l209 90q14 6 24.5 11.5t20.5 5.5q14 0 12 -35q-4 -37 -6 -107.5t-3 -159.5t-1 -188v-190v-324q20 0 51 5t47 18 q14 10 48 42.5t69 70.5t64.5 71t35.5 43q18 35 0 47q-12 10 -27.5 11t-25.5 1q-16 0 -16 19v39q0 16 14 16q10 0 61.5 -3t129.5 -3q76 0 115.5 3t49.5 3q12 0 13 -20v-37q0 -16 -17 -17h-14q-31 0 -71 -13t-70 -34q-10 -6 -44 -34.5t-76 -66.5t-83 -77t-68 -63l43 -43 q33 -33 77 -76t93.5 -91t92.5 -89t74.5 -70t39.5 -33q29 -14 59.5 -21t47.5 -7q16 0 16 -19v-37q0 -18 -18 -18q-12 0 -55.5 3t-114.5 3q-92 0 -151.5 -3t-72.5 -3q-14 0 -14 20v33q0 16 21 16h14q12 0 19.5 9.5t2.5 23.5q-2 6 -39.5 49t-86 93.5t-91.5 95.5t-55 57 q-16 14 -42 18.5t-46 4.5v-90v-107q0 -53 2 -106q2 -43 41 -43h59q18 0 19 -17v-35q0 -23 -17 -22q-10 0 -57 3t-125 3q-84 0 -135 -3t-61 -3q-11 0 -11 20z" />
<glyph unicode="l" horiz-adv-x="524" d="M25 14v35q0 10 5 14.5t21 4.5h99q16 0 29.5 11t15.5 40q0 25 1 94.5t1 152.5v162v125v129v115q0 59 -1 112.5t-2 95.5t-4 62q-4 53 -28.5 80t-73.5 43l-41 15q-12 4 -12 10v16q0 8 18 15q53 25 118 53t122 65q25 16 43 17q18 0 16 -37q0 -29 -1 -80t-2 -113.5t-2 -132 t-2 -132t-1 -114.5v-79v-183v-111v-145q0 -74 1 -136t1 -87q2 -27 11.5 -45t41.5 -18h93q23 0 22 -19v-35q0 -20 -12 -20q-10 0 -72.5 3t-159.5 3q-98 0 -157.5 -3t-73.5 -3t-14 20z" />
<glyph unicode="m" horiz-adv-x="1650" d="M74 12v37q0 12 4 15.5t20 3.5h70q14 0 21.5 11t9.5 40q2 27 2 53v53v365q0 31 -10.5 57.5t-47.5 46.5l-43 23q-14 8 -14 16v17q0 4 4 9t8 7l181 92q25 12 38 12q10 0 14.5 -9t4.5 -19l8 -119h6q47 63 129 109.5t172 46.5q80 0 139.5 -43t92.5 -115h10q47 59 128 108.5 t173 49.5q53 0 100 -12.5t84 -49.5q18 -18 36 -37.5t31 -47t22.5 -67.5t9.5 -100v-456q0 -23 12 -32t31 -9h55q23 0 22 -19v-35q0 -20 -14 -20q-10 0 -53 3t-117 3q-78 0 -129 -3t-61 -3q-16 0 -17 20v35q0 10 5.5 14.5t21.5 4.5h51q39 0 41 38q4 35 4 83v83v303 q0 51 -12 93.5t-47 70.5q-55 43 -152 43q-47 0 -100 -30.5t-78 -75.5q-23 -45 -26 -91t-3 -116v-354q0 -20 9.5 -33.5t31.5 -13.5h70q23 0 22 -19v-33q0 -23 -14 -22q-10 0 -53 3t-129 3q-84 0 -133 -3t-60 -3q-14 0 -14 20v33q0 12 3 16.5t18 4.5h59q45 0 45 34v422 q0 57 -5 94t-13.5 62t-19.5 39t-23 26q-20 18 -58.5 27.5t-73.5 9.5q-41 0 -97 -24.5t-99 -93.5q-18 -31 -23.5 -63t-5.5 -75v-405q0 -53 41 -53h74q14 0 17 -4.5t3 -14.5v-33q0 -23 -16 -22q-14 0 -57 3t-129 3q-82 0 -130.5 -3t-60.5 -3q-16 0 -16 18z" />
<glyph unicode="n" horiz-adv-x="1089" d="M80 12v37q0 18 20 19h60q20 0 30.5 7t10.5 34v479q0 47 -22.5 74.5t-61.5 46.5l-17 8q-10 4 -13 9t-3 9v10q0 12 18 21l177 98q29 14 36 15q12 0 17 -25l14 -125h4q23 27 54.5 54.5t69.5 48t78 34t79 13.5q47 0 92 -10.5t82 -34.5q23 -16 43 -41t35.5 -52.5t25 -55.5 t9.5 -46v-528q0 -25 12 -34t33 -9h65q23 0 23 -19v-33q0 -23 -17 -22q-10 0 -58 3t-136 3q-78 0 -126 -3t-59 -3q-16 0 -16 22v33q0 18 27 19h59q16 0 27.5 9t13.5 38q2 41 3 86t1 86v270q0 61 -7 106.5t-52 77.5q-37 29 -74 33t-76 4q-25 0 -72 -15t-94 -65 q-31 -35 -39 -72.5t-8 -66.5v-424q0 -41 8.5 -54t40.5 -13h52q20 0 20 -21v-35q0 -18 -14 -18q-10 0 -53.5 3t-125.5 3q-78 0 -125 -3t-57 -3q-14 0 -14 18z" />
<glyph unicode="o" horiz-adv-x="1019" d="M72 451q0 78 42 168t134 161q80 61 151.5 80t122.5 19q86 0 163 -36t124 -83q70 -72 104.5 -153t34.5 -181q0 -84 -34.5 -165t-96 -144.5t-144.5 -102.5t-177 -39q-74 0 -160 32t-152 110q-35 43 -57.5 79.5t-34.5 74.5t-16 81.5t-4 98.5zM240 430q0 -86 14 -150.5 t63 -136.5q35 -51 83.5 -78.5t119.5 -27.5q57 0 105.5 32.5t81 89t51 131.5t18.5 156q0 86 -27.5 155t-68.5 117t-88 73.5t-86 25.5q-41 0 -81 -12t-77 -53q-59 -61 -83.5 -133t-24.5 -189z" />
<glyph unicode="p" horiz-adv-x="1052" d="M29 -508q0 8 4 13.5t20 5.5h80q27 0 33 14t10 37q4 35 5 120t1 236v662q0 37 -14 61.5t-59 48.5l-48 27q-10 4 -12 9t-2 9v17q0 8 14 14l197 98q12 6 24.5 11.5t22.5 5.5q14 0 14 -41l9 -99h6q41 53 117.5 95.5t181.5 42.5q78 0 133 -30t100 -71q57 -59 84 -129.5 t27 -189.5q0 -100 -33 -188.5t-92 -154t-140 -103.5t-177 -38q-41 0 -99.5 7.5t-105.5 27.5v-432q0 -43 11 -55t34 -12h90q12 0 15 -5.5t3 -15.5v-35q0 -18 -18 -18q-8 0 -60.5 3t-150.5 3q-90 0 -142.5 -3t-64.5 -3q-18 0 -18 18v37zM330 205q0 -35 7 -61.5t36 -47.5 q43 -31 92 -43t113 -12q43 0 86 17.5t76.5 58.5t54 105.5t20.5 160.5q0 106 -22.5 183t-59.5 125t-85 70.5t-99 22.5q-66 0 -124 -34.5t-95 -96.5v-448z" />
<glyph unicode="q" horiz-adv-x="1040" d="M76 406q0 43 11 94t33.5 102t55.5 97t74 81q63 55 132 77t138 22q63 0 120.5 -11.5t123.5 -33.5l108 45q5 2 9 1q6 0 10 -3l18 -15q4 -4 4 -9t-4 -22q-4 -12 -6 -31.5t-4 -40t-4 -37.5t-2 -26q-6 -68 -6 -303v-467q0 -47 1 -101t2 -103.5t3 -90.5t4 -61q4 -59 43 -59h64 q20 0 20 -13v-45q0 -16 -14 -16t-67.5 3t-131.5 3q-98 0 -150.5 -3t-64.5 -3q-16 0 -16 18v41q0 14 22 15h84q27 0 36 10t13 33q2 12 3 67t1 128v148v126v51h-4q-41 -31 -110.5 -65t-182.5 -34q-55 0 -118.5 17.5t-118.5 65.5t-92 131.5t-37 216.5zM233 475q0 -74 10.5 -126 t27 -90t36 -65.5t35.5 -48.5q37 -43 86 -64.5t94 -21.5q72 0 130.5 29t86.5 64v473q-6 53 -32.5 90t-61.5 58.5t-72.5 30.5t-68.5 9q-68 0 -119 -36t-85 -88t-50.5 -110.5t-16.5 -103.5z" />
<glyph unicode="r" horiz-adv-x="698" d="M49 14v35q0 18 23 19h80q45 0 45 38q2 51 2 109v137v193q0 78 -15.5 105.5t-58.5 49.5l-39 21q-16 6 -16 14v13q0 10 16 18l203 104q16 8 28 9q10 0 12.5 -7.5t2.5 -17.5l10 -141h8q23 35 51.5 67.5t61.5 57t66.5 39t66.5 14.5q53 0 78.5 -27.5t25.5 -62.5 q0 -45 -28.5 -73t-57.5 -28q-16 0 -31.5 5.5t-27.5 11.5q-27 16 -68 16q-25 0 -59.5 -18.5t-60.5 -67.5q-10 -16 -15.5 -38.5t-5.5 -26.5v-430q0 -47 12.5 -65.5t44.5 -18.5h97q14 0 14 -19v-37q0 -18 -10 -18t-71.5 3t-145.5 3q-96 0 -155.5 -3t-70.5 -3q-12 0 -12 20z" />
<glyph unicode="s" horiz-adv-x="729" d="M86 258q-2 12 12 16l27 7q12 2 18 -13l52 -100q14 -29 29.5 -52.5t35 -40t46 -25.5t67.5 -9q27 0 55.5 8t52 25.5t39 43t15.5 62.5q0 70 -42 113t-157 76q-45 12 -89 31.5t-78 50t-54.5 73.5t-20.5 105q0 53 23.5 98t62.5 79t91.5 53.5t109.5 19.5q74 0 117 -14.5 t71 -28.5q23 -10 29 -18.5t8 -18.5l31 -144q0 -12 -14 -18l-25 -8q-10 -2 -18 10l-70 94q-18 29 -51 54.5t-92 25.5t-108.5 -35t-49.5 -100q0 -45 16.5 -72.5t44 -46t63.5 -30t73 -21.5q113 -33 178 -88t67 -174q0 -61 -24.5 -111.5t-66.5 -86.5t-98 -54.5t-122 -18.5 q-76 0 -132 22.5t-75 37.5q-8 4 -9 12t-3 16z" />
<glyph unicode="t" horiz-adv-x="653" d="M47 772q0 12 9.5 19.5t27.5 17.5t53 42t72 72t67.5 78.5t40.5 65.5q8 20 29 20q12 0 16.5 -9t4.5 -21l-11 -203h285q10 0 14 -6q2 -3 2 -6t-2 -6l-20 -72q-4 -16 -19 -16h-264q-6 -141 -6 -287v-205q0 -57 11.5 -93t27.5 -55.5t34.5 -25.5t33.5 -6q35 0 73.5 6t61.5 20 q14 8 24 -4l11 -18q8 -10 -5 -23q-8 -8 -27.5 -21t-48 -26.5t-67.5 -24t-84 -10.5q-37 0 -72.5 16.5t-63.5 42t-45 56.5t-17 60q0 31 1 76.5t2 89.5t2 80t1 46v45v44q0 30 1 68t2 77t1 72h-125q-31 -1 -31 24z" />
<glyph unicode="u" horiz-adv-x="1036" d="M31 801v37q0 16 22 16h183q10 0 16 1t12 3q6 0 12.5 1t10.5 1q27 0 22 -24q-2 -14 -5 -79t-3 -157v-145q0 -31 -2 -70q-1 -19 -1 -39t1 -41q2 -41 12.5 -82t34.5 -76q39 -55 81 -66t83 -11q20 0 45 9t49.5 23.5t46 33t35.5 36.5q6 8 13.5 24.5t7.5 30.5v488q-4 43 -27 55 t-62 16q-27 0 -36 3.5t-9 11.5v35q0 12 4.5 15t20.5 3h190q10 0 18.5 1t16.5 3q8 0 14.5 1t10.5 1q23 0 18 -20q0 -6 -2 -21.5t-4 -46.5t-4 -80t-2 -125v-151v-142q0 -68 4 -100q4 -47 19.5 -59.5t33.5 -12.5q10 0 30 1t38 6q20 6 25 -9l6 -26q2 -14 -11 -19l-215 -71 q-10 -4 -19 -6.5t-22 -2.5q-6 0 -11 4.5t-7 20.5l-16 119h-4q-23 -31 -55 -56.5t-68.5 -45t-76.5 -31t-79 -11.5q-43 0 -92 14.5t-101 80.5q-31 41 -47 76.5t-23 79.5t-8 102.5t-1 142.5v238q-2 43 -22.5 58t-55.5 19q-27 2 -36 4.5t-9 10.5z" />
<glyph unicode="v" horiz-adv-x="886" d="M-23 807v37q0 16 23 16q16 0 51 -3t121 -3q82 0 125 3t59 3q20 0 21 -16v-37q0 -20 -15 -21h-40q-16 0 -26.5 -9t-10.5 -29q0 -14 8 -49t19.5 -73t22.5 -73t15 -47q4 -14 20.5 -59.5t37 -97.5t39 -98t26.5 -63h6q12 31 42 102.5t61.5 152.5t58.5 153t35 102q6 24 6 42 q0 46 -43 46h-41q-8 0 -8 21v37q0 16 12 16q23 0 59.5 -3t104.5 -3q59 0 96 3t51 3q12 0 15.5 -3t3.5 -15v-35q0 -20 -10 -21h-39q-18 0 -33.5 -4t-30.5 -18q-12 -10 -34.5 -52t-47 -94.5t-47 -102.5t-35.5 -79q-6 -16 -21.5 -52t-34.5 -81t-41.5 -94t-41 -91t-31 -70 t-14.5 -32q-12 -23 -22.5 -35t-26.5 -12t-25.5 12.5t-17.5 30.5q-2 2 -13.5 33t-29 76t-36.5 97t-36.5 97t-30 77t-14.5 36q-2 6 -16.5 46t-32.5 89t-33.5 92t-21.5 56q-20 45 -38 60t-46 15h-41q-13 1 -13 21z" />
<glyph unicode="w" horiz-adv-x="1404" d="M-29 805v39q0 16 13 16q23 0 60.5 -3t125.5 -3q70 0 109.5 3t62.5 3q16 0 16 -16v-41q0 -16 -16 -17h-18q-16 0 -25.5 -13t0.5 -42l162 -543h8l209 500q-4 25 -6 39t-13 27q-14 20 -55 20h-31q-14 0 -14 14v43q0 16 19 17q12 0 59 -3t125 -3q72 0 107.5 3t48.5 3 q18 0 18 -14v-43q0 -16 -14 -17h-43q-16 0 -25.5 -15.5t-3.5 -37.5l156 -498h8l166 451q14 35 13 60q0 13 -3 23q-10 30 -41 29h-29q-12 0 -12 17v43q0 14 14 14q10 0 52.5 -3t105.5 -3q66 0 98.5 3t51.5 3q14 0 14 -14v-43q0 -16 -14 -17h-52q-18 0 -36.5 -10t-28.5 -24 q-6 -10 -29.5 -65.5t-56.5 -133.5t-70 -169t-68.5 -172t-56 -140.5t-31.5 -75.5q-6 -16 -16 -21.5t-22 -5.5q-25 0 -37 39l-201 584h-10l-252 -590q-14 -33 -43 -33q-20 0 -35 41l-268 721q-10 29 -29.5 42t-56.5 13h-45q-15 1 -15 19z" />
<glyph unicode="x" horiz-adv-x="897" d="M-39 12v37q0 18 16 19h54q35 0 53 6t31 18q14 12 52 60.5t81 102.5t81 102.5t50 62.5q-29 45 -63.5 96t-68.5 98.5t-62.5 86t-47.5 57.5q-12 16 -31.5 22t-42.5 6h-57q-14 0 -14 15v41q0 18 16 18q12 0 54 -3t114 -3t124 3t67 3q12 0 12 -18v-39q0 -16 -12 -17h-19 q-25 0 -25.5 -20.5t17.5 -48.5l127 -201l156 205q14 18 9 41.5t-32 23.5h-25q-12 0 -12 15v43q0 16 10 16q18 0 53.5 -3t123.5 -3q61 0 83.5 3t32.5 3q12 0 15.5 -5t3.5 -15v-37q0 -16 -17 -17h-32q-29 0 -46.5 -6t-33.5 -18q-12 -10 -48 -51t-76 -88.5t-76 -92.5l-52 -65 q61 -92 123.5 -182t130.5 -172q37 -43 90 -43h33q10 0 10 -17v-41q0 -16 -14 -16t-48 3t-110 3q-88 0 -136 -3t-65 -3q-16 0 -16 18v35q0 20 16 21h31q16 0 22.5 19t-10.5 46l-147 236q-10 -16 -38 -53t-56.5 -78t-53 -77t-30.5 -48q-8 -16 -2 -30.5t24 -14.5h43 q10 0 10 -17v-41q0 -16 -14 -16t-54 3t-106 3q-78 0 -109.5 -3t-47.5 -3q-12 0 -15.5 5t-3.5 13z" />
<glyph unicode="y" horiz-adv-x="892" d="M-16 805v41q0 14 16 14q14 0 55 -3t133 -3q78 0 126 3t65 3q12 0 15 -4t3 -10v-43q0 -16 -12 -17h-39q-33 0 -27 -45q2 -12 13.5 -53t28 -97t37 -119.5t38 -120t31.5 -98.5t20 -52h9q4 8 21.5 45t40 89t47 112.5t46 113.5t38 94t18.5 54q10 39 -1.5 58t-33.5 19h-33 q-14 0 -14 17v41q0 16 12 16q20 0 57 -3t111 -3q41 0 74.5 3t50.5 3q10 0 11 -5t1 -11v-39q0 -18 -10 -19h-33q-16 0 -35.5 -8t-36.5 -28q-16 -20 -49 -86t-76 -159t-93 -208t-103 -236q-76 -172 -132.5 -303t-84.5 -182q-10 -20 -23.5 -44t-34 -43t-48 -32.5t-68.5 -13.5 q-59 0 -88 28.5t-29 75.5q0 33 28.5 56.5t65.5 23.5q29 0 54.5 -9t39.5 -13q27 -4 43 12q12 14 35 59t48.5 99.5t48 108t32.5 83.5q-2 12 -20.5 68.5t-44 134.5t-55 167t-56.5 166t-45 132t-22 65q-18 39 -37 62.5t-60 23.5h-53q-16 1 -16 19z" />
<glyph unicode="z" horiz-adv-x="888" d="M27 594l135 287q18 -6 45 -11l53 -8q29 -2 52.5 -4t52 -3t66.5 -1h97h283q16 0 21.5 -9t-3.5 -20l-542 -762h291q18 0 46.5 9.5t63.5 34t78 66.5t92 110q10 16 27 6l20 -15q7 -5 8 -11q0 -4 -4 -9l-157 -279q-29 10 -75 14.5t-110 6.5q-61 4 -114 4h-66h-283q-16 0 -21 7 t9 28l526 758h-217q-49 0 -81.5 -5.5t-65.5 -28t-73 -67.5t-101 -123q-12 -16 -23 -8l-26 12q-6 4 -7 11q1 5 3 10z" />
<glyph unicode="{" horiz-adv-x="724" d="M86 608q0 39 27 39q35 0 71 12q33 10 50.5 50.5t17.5 87.5q0 51 -11.5 100t-23.5 102q-14 53 -25.5 105.5t-11.5 107.5q0 74 33 131.5t85 96.5t115.5 60.5t127.5 25.5q33 4 57 4h39q35 0 35 -29q0 -37 -25 -37h-31q-18 0 -34 -2q-104 -14 -173 -73.5t-69 -163.5 q0 -55 4 -106.5t12 -98.5q6 -47 11.5 -90t5.5 -84q0 -57 -18.5 -97t-39.5 -61q-29 -35 -48 -49t-19 -31q0 -16 19.5 -31.5t51.5 -56.5q18 -20 36 -60t18 -95q0 -35 -5.5 -79t-11.5 -93q-8 -49 -12 -101.5t-4 -99.5q0 -74 25.5 -122t62.5 -79t79 -47t77 -25q27 -6 45 -7 t28 -1q14 0 15 -37q0 -29 -15 -28h-28q-18 0 -39 2q-53 2 -124 18.5t-134.5 53t-107.5 99t-44 158.5q0 53 11.5 105.5t25.5 103.5q12 53 23.5 101.5t11.5 93.5q0 49 -13.5 97t-52.5 73q-18 12 -35.5 16t-37.5 6q-27 4 -27 35z" />
<glyph unicode="|" horiz-adv-x="716" d="M305 -512v2054q0 18 12 19h82q14 0 15 -25v-2048q0 -20 -11 -20h-86q-12 0 -12 20z" />
<glyph unicode="}" horiz-adv-x="724" d="M53 -324q0 35 25 35h31q18 0 34 2q104 12 173 85t69 194q0 66 -5 119t-11 100t-11.5 86t-5.5 74q0 57 18.5 97t37.5 60q31 35 50 49.5t19 30.5t-19.5 31.5t-54.5 56.5q-16 20 -33.5 60.5t-17.5 95.5q0 27 5 65.5t12 86.5q6 47 11 96t5 96q0 61 -25.5 108.5t-62.5 79 t-79 50t-77 24.5q-23 4 -42 5t-27 1q-18 0 -19 33q0 33 17 33h27q17 0 38 -2q53 -2 124 -19.5t134.5 -54.5t107.5 -96.5t44 -147.5q0 -51 -11.5 -102t-23.5 -98q-14 -49 -25.5 -93.5t-11.5 -80.5q0 -49 13.5 -97.5t52.5 -72.5q18 -12 35.5 -16.5t35.5 -6.5q29 -4 29 -35 q0 -39 -29 -39q-33 0 -69 -12q-33 -10 -50.5 -50t-17.5 -87q0 -43 11.5 -89t25.5 -100q12 -51 23.5 -107t11.5 -120q0 -82 -33 -145.5t-85 -108.5t-116.5 -69.5t-128.5 -30.5q-31 -4 -55 -4h-39q-35 -1 -35 30z" />
<glyph unicode="~" d="M117 350q0 135 61.5 211t140.5 76q45 0 82 -10.5t82 -38.5l86 -58q29 -16 62 -38.5t67 -22.5q39 0 70 37t31 127h108q0 -135 -61.5 -211t-140.5 -76q-47 0 -87 19.5t-83 48.5l-80 55q-39 25 -70 35t-66 10q-14 0 -30.5 -8t-30.5 -27.5t-23.5 -51.5t-9.5 -77h-108z" />
<glyph unicode="&#xa1;" horiz-adv-x="520" d="M139 764q0 12 6.5 31.5t20.5 38t38.5 32t63.5 13.5q43 0 79 -33t36 -90q0 -51 -34 -82t-81 -31q-16 0 -38.5 5t-43 19.5t-34 37t-13.5 59.5zM166 -436q0 10 5 63.5t13.5 131t17.5 169.5t17 182.5t14.5 168t6.5 127.5q0 14 14 14h37q14 0 14 -21q0 -49 5 -123.5 t12.5 -160.5t14.5 -175.5t14 -166t11.5 -133t4.5 -76.5q0 -47 -29 -84t-70 -37t-73.5 27.5t-28.5 93.5z" />
<glyph unicode="&#xa2;" d="M100 641q0 86 26 166t78 144.5t128 107.5t178 55l10 203q0 20 15 20h53q12 0 12 -28l-8 -189q86 -2 141 -22.5t88 -46t46.5 -53t13.5 -42.5q-2 -33 -22.5 -49t-53.5 -16q-66 0 -109 82q-23 39 -48 54t-60 20l-33 -725q20 -4 35 -5h26q43 0 77 5.5t61.5 16.5t51 29.5 t50.5 43.5q8 8 16 0l21 -21q12 -12 0 -26q-23 -25 -57.5 -51.5t-78.5 -47t-96.5 -34t-109.5 -13.5l-10 -221q-2 -29 -15 -29h-53q-14 0 -12 33l10 221q-66 8 -139.5 39t-134.5 109q-55 72 -76 136t-21 134zM252 737q0 -66 8 -115t22.5 -85.5t34 -64.5t41.5 -54 q45 -55 119 -78l31 707q-53 -4 -99.5 -28t-81 -65t-55 -96t-20.5 -121z" />
<glyph unicode="&#xa3;" d="M-76 33q0 27 17.5 58.5t44 62t58.5 56.5t58 40q10 10 25.5 35.5t31 58.5t30 64.5t22.5 54.5h-150q-18 0 -18 14v47q0 12 14 13h181q12 25 34.5 88t47 141t50 155.5t44.5 127.5q27 72 70.5 135t99 111t120 76t132.5 28q57 0 99 -15.5t70.5 -37t43 -45t14.5 -41.5 q0 -35 -24.5 -55.5t-53.5 -22.5q-41 0 -71.5 17.5t-51.5 57.5q-4 6 -7 18.5t-11 25t-22.5 21.5t-41.5 9q-35 0 -65.5 -16.5t-58 -54t-52 -100t-47.5 -154.5q-14 -55 -44 -131t-61.5 -147t-58 -125t-35.5 -66h287q18 0 19 -13v-47q0 -14 -21 -14h-319q-12 -23 -31 -50.5 t-39.5 -55t-38.5 -52t-33 -41.5l2 -4q76 8 132.5 4t103.5 -21.5t89 -50t89 -83.5q27 -29 62.5 -48.5t82.5 -19.5q35 0 59.5 22.5t33.5 38.5q10 25 5 32t-36 7q-53 0 -81 21.5t-28 44.5q0 10 4.5 24.5t15.5 26.5t30.5 21.5t48.5 9.5q55 0 99 -36t44 -95q0 -23 -13.5 -55.5 t-44 -62.5t-83 -50.5t-127.5 -20.5q-168 0 -285 140q-53 66 -108.5 85t-122.5 15q-12 -20 -31 -56t-43.5 -70t-55 -58.5t-63.5 -24.5q-20 0 -28.5 10.5t-8.5 22.5z" />
<glyph unicode="&#xa4;" d="M39 270q-8 12 4 25l188 184q-33 41 -51 91.5t-18 107.5q0 66 22.5 128t61.5 101l-201 191q-10 8 2 20l39 41q10 12 20 2l205 -192q41 37 100.5 53t120.5 16q51 0 105.5 -17t87.5 -46l199 184q8 12 18 2l39 -41q10 -12 0 -22l-193 -183q35 -35 58.5 -95t25.5 -118 q-6 -137 -81 -231l190 -178q12 -12 4 -23l-43 -49q-10 -10 -18 0l-203 185q-43 -31 -101.5 -48.5t-113.5 -17.5q-59 0 -116.5 19.5t-96.5 54.5l-187 -187q-14 -14 -22 -4zM279 690q0 -51 14 -99t43 -85t74 -59.5t106 -22.5q100 0 169 71.5t69 194.5q0 117 -65.5 190.5 t-172.5 73.5q-63 0 -108.5 -23.5t-74 -61.5t-41.5 -85t-13 -94z" />
<glyph unicode="&#xa5;" d="M-49 1309v51q0 14 14 14t67.5 -3t131.5 -3q111 0 174 3t80 3q14 0 14 -10v-51q0 -18 -14 -19h-43q-68 0 -83.5 -25.5t1.5 -60.5q6 -14 24.5 -52t43 -86t53 -101.5t53.5 -101.5t45 -84l29 -50q8 16 30.5 54t50 87.5t58.5 103.5t57.5 102t45 83t22.5 47q16 45 -3.5 64.5 t-58.5 19.5h-53q-14 0 -14 19v47q0 14 16 14q10 0 64.5 -3t144.5 -3q66 0 102.5 3t51.5 3q16 0 16 -12v-49q0 -18 -16 -19h-43q-27 0 -43.5 -11t-28.5 -28q-8 -10 -29.5 -45.5t-52.5 -86t-66.5 -112t-72.5 -123t-72 -118.5t-61 -100h284q23 0 23 -15v-47q0 -12 -25 -12h-293 v-145h295q23 0 23 -15v-47q0 -12 -21 -12h-294v-244q0 -41 14 -50t49 -9h80q16 0 16 -15v-47q0 -18 -16 -18q-18 0 -60.5 3t-152.5 3q-113 0 -159 -3t-62 -3q-12 0 -14.5 4t-2.5 12v49q0 14 15 15h96q45 0 45 51v252h-307q-20 0 -21 12v47q0 14 21 15h309v145h-311 q-18 0 -19 16v43q0 14 21 15h307q-14 25 -41 74t-60.5 107t-70.5 121.5t-69.5 119t-59.5 98.5t-39 59q-10 14 -32.5 29.5t-45.5 15.5h-43q-14 1 -14 15z" />
<glyph unicode="&#xa6;" horiz-adv-x="716" d="M305 -338v676q0 20 19 20h77q12 0 13 -20v-676q0 -20 -19 -20h-78q-12 0 -12 20zM305 686v678q0 18 12 18h82q14 0 15 -24v-672q0 -20 -19 -20h-78q-12 0 -12 20z" />
<glyph unicode="&#xa7;" horiz-adv-x="1105" d="M162 725q0 59 14 104t38 79t50.5 56.5t50.5 39.5q-16 33 -25 79.5t-9 100.5q0 53 22.5 102t54.5 86q61 68 132 88.5t167 20.5q90 0 149.5 -38t59.5 -91q0 -37 -25.5 -55.5t-49.5 -18.5q-45 0 -67 20.5t-50 61.5q-37 55 -94 55q-37 0 -71 -13t-60.5 -39t-42 -59.5 t-15.5 -72.5q0 -68 23.5 -115t65.5 -85t101.5 -74.5t131.5 -82.5q238 -152 233 -339q0 -63 -16.5 -110.5t-42 -81.5t-56 -55.5t-59.5 -35.5q63 -76 64 -201q0 -70 -25 -129t-72 -106q-53 -53 -123.5 -72.5t-134.5 -19.5q-49 0 -94 8t-79 23.5t-53 37t-19 47.5 q0 35 22.5 58.5t54.5 23.5q35 0 59.5 -16.5t47.5 -46.5q18 -27 46 -44.5t60 -17.5q25 0 56.5 6.5t59.5 26.5t46.5 57t18.5 99q0 78 -32 132t-84 99t-117.5 87t-131.5 95q-96 76 -138 158t-42 168zM274 780q0 -59 28 -112.5t93 -108.5q131 -109 220.5 -166t113.5 -90 q37 16 67.5 64.5t30.5 93.5q0 18 -3 44.5t-16 58.5t-43 67t-81 71q-78 53 -134 90t-96 65t-64.5 48.5t-41.5 42.5q-35 -23 -54.5 -64t-19.5 -104z" />
<glyph unicode="&#xa8;" horiz-adv-x="665" d="M61 1212q0 10 5.5 25.5t16.5 31t31.5 26t51.5 10.5q35 0 63.5 -27t28.5 -74q0 -41 -27.5 -65.5t-64.5 -24.5q-14 0 -31.5 4t-34 15.5t-28 30.5t-11.5 48zM408 1212q0 10 5 25.5t17 31t32.5 26t51.5 10.5q35 0 62.5 -27t27.5 -74q0 -41 -27.5 -65.5t-62.5 -24.5 q-14 0 -32.5 4t-35 15.5t-27.5 30.5t-11 48z" />
<glyph unicode="&#xa9;" horiz-adv-x="1689" d="M96 725q0 162 58.5 300t160 239.5t238.5 159t293 57.5q162 0 300 -55.5t237.5 -155t155.5 -238.5t56 -307q0 -160 -53 -297t-151.5 -239.5t-236.5 -161t-308 -58.5q-172 0 -310.5 58.5t-236.5 161t-150.5 240.5t-52.5 296zM205 725q0 -186 62.5 -316t157.5 -211 t207.5 -118t213.5 -37q174 0 297 65.5t198.5 165t110.5 220t35 231.5q0 180 -63.5 309t-160 212t-209 122t-208.5 39q-133 0 -250 -50t-204 -140.5t-137 -216t-50 -275.5zM397 731q0 86 32 170t99 156q49 49 133 86t189 37q43 0 82 -8.5t70.5 -19.5t53 -22.5t31.5 -15.5 q20 -14 27 0l8 33q2 8 31 8q14 0 17.5 -3t3.5 -17q0 -8 4 -41t10 -72t11 -75t7 -48q0 -12 -6 -12l-24 -6q-10 -4 -17 4q-14 29 -34.5 65.5t-59.5 73.5q-41 41 -98.5 67.5t-120.5 26.5q-78 0 -135.5 -33.5t-94 -86t-54 -115t-17.5 -121.5q0 -29 5 -64.5t17.5 -75.5t34 -80 t55.5 -75q57 -59 117 -84t121 -25q55 0 103.5 14.5t88 37t70.5 51t53 59.5q4 4 17 -6l16 -12q8 -8 -2 -21q-59 -82 -152.5 -144.5t-228.5 -62.5q-98 0 -183 30t-142 83q-68 68 -103 150.5t-35 193.5z" />
<glyph unicode="&#xaa;" horiz-adv-x="675" d="M45 1001q0 23 20.5 53.5t86.5 65.5q100 45 186 45q76 0 104.5 -14t42.5 -27q33 -27 39 -72.5t6 -80.5v-162v-49q0 -92 13.5 -121t29.5 -29q18 0 29.5 11.5t18.5 23.5q2 10 14 8l27 -10q8 -2 4 -12t-13.5 -25.5t-26 -30t-41 -24.5t-57.5 -10q-47 0 -77.5 24.5t-44.5 59.5 h-3q-33 -27 -71.5 -51.5t-79.5 -28.5q-18 -4 -39 -4h-37q-20 0 -41.5 11t-38 29.5t-28 41t-11.5 45.5q0 45 33 90t129 86q47 20 91 36.5t89 32.5v76q0 18 -6 40t-22 44q-10 10 -33 18.5t-51 8.5q-20 0 -47 -9.5t-43 -23.5q-18 -16 -13.5 -32.5t4.5 -33.5q0 -20 -18 -38.5 t-68 -18.5q-29 0 -43 17t-14 40zM203 690q0 -35 18.5 -54.5t38.5 -19.5q35 0 80 21.5t59 44.5v176q-23 -8 -56.5 -21.5t-64 -34t-53 -48t-22.5 -64.5z" />
<glyph unicode="&#xab;" horiz-adv-x="843" d="M53 434q0 4 10 15l318 317q8 8 12 8t10 -6l29 -29q6 -6 6 -10q0 -6 -8 -14l-186 -281l188 -282q6 -10 6 -15q0 -4 -6 -10l-31 -29q-4 -4 -8 -4q-2 0 -14 8l-318 320q-8 8 -8 12zM377 434q0 4 10 15l320 317q8 8 12 8q2 0 8 -6l29 -29q6 -6 6 -10q0 -6 -8 -14l-187 -281 l189 -282q6 -10 6 -15q0 -4 -6 -10l-31 -29q-2 -2 -4 -2t-2 -2q-2 0 -14 8l-320 320q-8 8 -8 12z" />
<glyph unicode="&#xac;" d="M115 596v115h794v-461h-123v346h-671z" />
<glyph unicode="&#xad;" horiz-adv-x="827" d="M106 498v90q0 14 19 14h573q23 0 23 -22v-78q0 -14 -25 -15h-571q-19 -1 -19 11z" />
<glyph unicode="&#xae;" horiz-adv-x="1159" d="M92 1010q0 100 37 186t101.5 149.5t154.5 99.5t195 36q109 0 198.5 -35t154 -96.5t99.5 -148.5t35 -191q0 -98 -34 -184.5t-96.5 -149t-153.5 -99t-203 -36.5q-115 0 -206 35.5t-153.5 99t-95.5 150t-33 184.5zM180 1010q0 -115 39 -193t98.5 -124t130 -66.5t132.5 -20.5 q109 0 184.5 38t123.5 96.5t69.5 130t21.5 139.5q0 113 -40 189.5t-99.5 124.5t-129 69.5t-130.5 21.5q-84 0 -157 -28.5t-126 -81t-85 -127t-32 -168.5zM338 754v18q0 8 6 8h18q20 0 32 7.5t12 35.5v273v123q-2 18 -11.5 27t-34.5 9h-12q-6 0 -6 7v24q0 6 6 6q2 0 16.5 -1 t31 -1t31.5 -1t22 -1q6 0 26.5 1t43 1t43 1t26.5 1q57 0 97 -13t63 -34q23 -18 31.5 -41.5t8.5 -46.5q0 -37 -13 -64.5t-34.5 -46t-46 -28.5t-47.5 -14v-5q12 -4 20.5 -11t12.5 -13q4 -4 13 -17.5t20.5 -29t20.5 -29.5t14 -22q10 -16 32.5 -45t36.5 -37q14 -10 29.5 -12.5 t32.5 -2.5q8 0 8 -6v-22q0 -6 -8 -7q-4 0 -24.5 1.5t-39.5 1.5q-18 0 -39.5 -1.5t-44.5 -1.5q-6 4 -18.5 19.5t-16.5 23.5q-2 2 -10 14.5t-17.5 27t-18.5 27.5t-11 20q-6 12 -24.5 39.5t-28.5 37.5q-8 10 -22.5 20.5t-31.5 10.5h-32v-39v-80q0 -45 2 -55q2 -12 6 -21.5 t20 -9.5h33q6 0 6 -6v-22q0 -6 -6 -7h-17q-13 0 -29.5 1.5t-34.5 1.5h-29q-25 0 -61 -1.5t-42 -1.5q-10 1 -10 9zM500 1022q8 -2 53 -2q43 0 69.5 15.5t41 36t19.5 41t5 30.5q0 23 -12 46t-29 34q-27 16 -49.5 23t-56.5 7h-20q-11 0 -21 -2v-229z" />
<glyph unicode="&#xaf;" horiz-adv-x="608" d="M61 1063v65q0 14 17 15h450q18 0 19 -15v-65q0 -14 -23 -14h-446q-17 0 -17 14z" />
<glyph unicode="&#xb0;" horiz-adv-x="614" d="M80 1274q0 86 61.5 146.5t165.5 60.5q111 0 170.5 -57.5t59.5 -149.5q0 -86 -62.5 -148.5t-167.5 -62.5q-111 0 -169 59.5t-58 151.5zM170 1274q0 -66 43 -107t94 -41q53 0 96 41t43 107q0 63 -43 102t-96 39q-51 0 -94 -39t-43 -102z" />
<glyph unicode="&#xb1;" d="M115 18v115h794v-115h-794zM115 592v115h338v280h122v-280h334v-115h-334v-291h-122v291h-338z" />
<glyph unicode="&#xb2;" horiz-adv-x="686" d="M-2 832.5q-2 13.5 6 19.5q43 35 121 102.5t160 157.5q70 76 109.5 147.5t39.5 147.5q0 41 -13 69.5t-33.5 47t-43 27t-43.5 8.5q-37 0 -66.5 -10.5t-51 -26t-38 -31.5t-26.5 -31q-10 -16 -23 -10l-26 14q-6 2 -4 15q8 20 27.5 51t53 60.5t83 51t116.5 21.5q43 0 84 -13.5 t74 -39t52 -66.5t19 -96q0 -74 -36.5 -147.5t-124.5 -165.5q-72 -76 -132.5 -129.5t-84.5 -71.5v-4h227q61 0 92 22.5t53 57.5q8 10 15.5 10t19.5 -4q25 -8 17 -27l-84 -182q-4 -12 -27 -12q-10 0 -16.5 1t-12.5 11t-19 13t-46 3h-289q-33 0 -70 -2t-47 -2t-12 13.5z" />
<glyph unicode="&#xb3;" horiz-adv-x="686" d="M47 901q0 35 15.5 55.5t37.5 20.5q18 0 28.5 -8t17 -19.5t10.5 -23t8 -17.5q6 -8 28.5 -24.5t81.5 -16.5q41 0 75 15.5t57.5 38t36 51t12.5 57.5q0 78 -49.5 134.5t-122.5 68.5q-29 6 -29 29q4 20 22 22q27 2 53.5 14.5t48 34t36 51t14.5 64.5q0 45 -34 84t-87 39 q-59 0 -100 -32t-62 -87q-6 -18 -20 -14l-27 6q-12 2 -8 20q6 31 22.5 67t46 64.5t76 48t113.5 19.5q57 0 96 -16.5t62.5 -41t34 -53t10.5 -51.5q0 -41 -13.5 -73.5t-34 -59.5t-47 -47.5t-50.5 -34.5q33 -6 66.5 -25.5t61 -47t45 -62.5t17.5 -76q0 -61 -25.5 -111.5 t-70.5 -85t-106.5 -54t-131.5 -19.5q-66 0 -106.5 10t-65 24.5t-34 32t-9.5 29.5z" />
<glyph unicode="&#xb4;" horiz-adv-x="675" d="M266 1016q-6 6 0 12l197 244q16 20 36.5 35.5t49.5 15.5q20 0 37.5 -13.5t23.5 -33t-1 -44t-38 -44.5l-268 -193q-6 -6 -12 0z" />
<glyph unicode="&#xb5;" horiz-adv-x="1064" d="M158 815q0 39 26 39h105q29 0 28 -39q0 -14 -2 -70.5t-2 -154.5v-127q0 -80 2 -159t25 -130q18 -39 56 -71.5t106 -32.5q57 0 111.5 34.5t84.5 75.5q6 8 13.5 24.5t7.5 28.5v441q0 41 -4 81t-4 62q0 16 3 26.5t19 10.5h103q39 0 38 -27q0 -14 -4 -83.5t-4 -176.5v-151 v-142q0 -68 2 -100q2 -53 18.5 -73.5t37.5 -20.5q16 0 37.5 7t31.5 17q8 8 13.5 5t9.5 -9l12 -22q6 -12 -10 -25q-37 -37 -77 -57.5t-93 -20.5q-33 0 -54.5 15.5t-37 38t-23.5 49t-12 51.5h-4q-23 -33 -53.5 -61.5t-67.5 -49t-76 -32t-76 -11.5q-33 0 -74.5 17.5t-74.5 66.5 h-4q0 -111 3 -209t8 -173.5t8 -125t3 -61.5q0 -16 -20 -20l-109 -27q-18 0 -18 12l-2 1118q0 86 -3 155t-3 87z" />
<glyph unicode="&#x3bc;" horiz-adv-x="1064" d="M158 815q0 39 26 39h105q29 0 28 -39q0 -14 -2 -70.5t-2 -154.5v-127q0 -80 2 -159t25 -130q18 -39 56 -71.5t106 -32.5q57 0 111.5 34.5t84.5 75.5q6 8 13.5 24.5t7.5 28.5v441q0 41 -4 81t-4 62q0 16 3 26.5t19 10.5h103q39 0 38 -27q0 -14 -4 -83.5t-4 -176.5v-151 v-142q0 -68 2 -100q2 -53 18.5 -73.5t37.5 -20.5q16 0 37.5 7t31.5 17q8 8 13.5 5t9.5 -9l12 -22q6 -12 -10 -25q-37 -37 -77 -57.5t-93 -20.5q-33 0 -54.5 15.5t-37 38t-23.5 49t-12 51.5h-4q-23 -33 -53.5 -61.5t-67.5 -49t-76 -32t-76 -11.5q-33 0 -74.5 17.5t-74.5 66.5 h-4q0 -111 3 -209t8 -173.5t8 -125t3 -61.5q0 -16 -20 -20l-109 -27q-18 0 -18 12l-2 1118q0 86 -3 155t-3 87z" />
<glyph unicode="&#xb6;" horiz-adv-x="1177" d="M102 958q0 150 55.5 246t158 150.5t249 75t328.5 20.5h194q23 0 23 -14v-35q0 -10 -4 -13.5t-21 -3.5h-120v-1644q0 -16 -15 -16h-51q-10 0 -12 5t-2 25v1626q-10 0 -30.5 -1t-43.5 -3t-44.5 -3t-33.5 -3v-1618q0 -29 -14 -28h-51q-14 0 -15 32v727q-72 4 -167 21.5 t-180 67t-144.5 141t-59.5 245.5z" />
<glyph unicode="&#xb7;" horiz-adv-x="520" d="M139 729q0 12 5.5 31.5t19.5 38t38.5 32t63.5 13.5q45 0 80 -33t35 -90q0 -51 -34 -82t-81 -31q-16 0 -38.5 5t-42 19.5t-33 37t-13.5 59.5z" />
<glyph unicode="&#xb8;" horiz-adv-x="667" d="M61 -442q0 18 19.5 23t46.5 5q25 0 53.5 7.5t53 21.5t42 35.5t17.5 50.5q0 80 -135 104l159 195h91l-119 -139q47 -14 87 -53t40 -87q0 -49 -31 -86.5t-77 -63.5t-101 -40t-105 -14q-25 0 -33 12.5t-8 28.5z" />
<glyph unicode="&#xb9;" horiz-adv-x="686" d="M88 1483q-4 6 8 12l283 154q27 14 37 14q16 0 16 -18q0 -6 -1 -42t-1 -86.5t-1 -112t-1 -120.5v-323q0 -23 3 -37.5t12.5 -22.5t27.5 -10t51 -2h47q12 0 13 -12v-50q0 -10 -15 -10q-4 0 -28.5 1t-58.5 2t-68.5 2t-57.5 1q-20 0 -55 -1l-70 -2q-35 -1 -61.5 -2t-28.5 -1 q-14 0 -14 10v54q0 8 18 8h60q33 0 51 2t27.5 10t12.5 20.5t3 34.5v36q0 30 1 69t1 79v66v62v31q0 22 -1 47.5t-2 50t-1 43.5q-2 23 -8 36t-23 13q-20 0 -53 -12l-80 -33q-16 -8 -20 -2z" />
<glyph unicode="&#xba;" horiz-adv-x="757" d="M43 856q0 49 22.5 114.5t81.5 114.5q66 53 126.5 66.5t111.5 13.5q80 0 140.5 -23.5t95.5 -54.5q47 -43 70.5 -101t23.5 -124q0 -72 -26.5 -131t-73 -101t-111 -65.5t-139.5 -23.5q-63 0 -130 25.5t-116 74.5q-35 37 -55.5 91t-20.5 124zM190 899q0 -84 13.5 -134 t36.5 -85q31 -45 70.5 -61.5t64.5 -16.5q96 0 141 66.5t45 158.5q0 70 -15.5 122t-41 86t-58 51.5t-65.5 17.5q-18 0 -50 -6t-63 -31q-39 -31 -58.5 -79t-19.5 -89z" />
<glyph unicode="&#xbb;" horiz-adv-x="843" d="M82 137q0 6 8 15l186 282l-188 281q-6 8 -6 14q0 4 6 10l29 31q4 4 8 4t14 -10l320 -318q8 -8 8 -12t-10 -14l-320 -318q-8 -8 -12 -8t-10 6l-27 27q-6 6 -6 10zM406 137q0 6 8 15l186 282l-188 281q-6 8 -6 14q0 4 6 10l30 31q4 4 9 4q4 0 14 -10l317 -318q8 -8 9 -12 q0 -4 -11 -14l-317 -318q-8 -8 -12 -8t-11 6l-28 27q-6 6 -6 10z" />
<glyph unicode="&#xbc;" horiz-adv-x="1519" d="M49 1219q-4 6 8 12l283 153q27 14 37 15q16 0 16 -19q0 -6 -1 -41.5t-1 -86t-1 -112t-1 -120.5v-324q0 -23 3 -37t12.5 -22t28 -10t50.5 -2h47q12 0 13 -13v-49q0 -10 -15 -10q-4 0 -28.5 1t-58 2t-68.5 2t-58 1q-20 0 -55 -1l-70 -2q-35 -1 -61.5 -2t-28.5 -1 q-14 0 -14 10v53q0 8 18 9h60q33 0 51 2t27.5 10t12.5 20.5t3 34.5v36q0 30 1 69t1 79v66v62v31q0 22 -1 47.5t-2 50t-1 43.5q-2 23 -8 36t-23 13q-20 0 -53 -13l-80 -32q-16 -8 -20 -2zM317 10q0 8 11 25l831 1347q8 16 17 17q4 0 10 -2t22 -11q25 -14 30 -19t5 -9 q0 -2 -8 -19l-832 -1343q-14 -27 -20 -27q-4 0 -11 3t-26 14q-18 10 -23.5 14t-5.5 10zM772 238q0 16 14 30l457 547l15 15q9 9 22 10q31 0 31 -47v-482h133q14 0 14 -18v-62q0 -16 -20 -16h-127v-192q0 -23 -21 -23h-88q-10 0 -13 3t-3 17v195h-395q-19 0 -19 23z M915.5 319.5q4.5 -8.5 18.5 -8.5h252v291q0 16 -9.5 21.5t-19.5 -9.5l-231 -270q-15 -16 -10.5 -24.5z" />
<glyph unicode="&#xbd;" horiz-adv-x="1519" d="M35 1219q-4 6 8 12l283 153q27 14 36 15q16 0 17 -19q0 -6 -1 -41.5t-1 -86t-1 -112t-1 -120.5v-324q0 -23 3 -37t12 -22t27.5 -10t51.5 -2h47q12 0 12 -13v-49q0 -10 -14 -10q-4 0 -28.5 1t-58.5 2t-68.5 2t-57.5 1q-20 0 -55 -1l-70 -2q-35 -1 -61.5 -2t-28.5 -1 q-14 0 -14 10v53q0 8 18 9h60q33 0 51 2t27.5 10t12.5 20.5t3 34.5v36q0 30 1 69t1 79v66v62v31q0 22 -1 47.5t-2 50t-1 43.5q-2 23 -8.5 36t-22.5 13q-20 0 -53 -13l-80 -32q-16 -8 -21 -2zM272 10q0 8 11 25l831 1347q8 16 16 17q4 0 10.5 -2t22.5 -11q25 -14 30 -19t5 -9 q0 -2 -8 -19l-832 -1343q-14 -27 -20 -27q-4 0 -11.5 3t-25.5 14q-18 10 -23.5 14t-5.5 10zM813 8q0 10 8 17q43 39 121 106.5t160 157.5q70 76 109.5 147.5t39.5 147.5q0 41 -13 69.5t-33.5 47t-43 26.5t-43.5 8q-37 0 -66.5 -10t-51 -25.5t-38 -32t-26.5 -30.5 q-10 -16 -23 -10l-26 14q-6 2 -4 14q8 20 27.5 51t53 61t83 51.5t116.5 21.5q43 0 84 -13.5t74 -39t52.5 -66.5t19.5 -96q0 -74 -37 -148t-125 -166q-72 -76 -132.5 -129t-84.5 -71v-5h227q61 0 92 23t53 57q8 10 15.5 10.5t19.5 -3.5q25 -8 17 -27l-84 -182q-4 -12 -27 -13 q-10 0 -16 1t-13 12q-6 10 -19 13t-46 3h-289q-33 0 -69.5 -2t-47.5 -2q-14 0 -14 12z" />
<glyph unicode="&#xbe;" horiz-adv-x="1519" d="M53 637q0 35 15.5 55.5t37.5 20.5q18 0 28.5 -8.5t17 -19.5t10.5 -22.5t8 -17.5q6 -8 28.5 -24.5t82.5 -16.5q41 0 74.5 15.5t57 38t36 51t12.5 57.5q0 78 -49.5 134t-122.5 69q-29 6 -29 28q4 20 23 23q27 2 53 14.5t48 34t36 51t14 64.5q0 45 -33.5 84t-87.5 39 q-59 0 -100 -32t-61 -87q-6 -18 -21 -14l-27 6q-12 2 -8 20q6 31 22.5 67t46.5 64.5t76 48t113 19.5q57 0 96 -16.5t63 -41t34 -53t10 -51.5q0 -41 -13.5 -74t-34 -59.5t-47 -47t-50.5 -34.5q33 -6 66.5 -25.5t61 -47t45 -62.5t17.5 -76q0 -61 -25.5 -111.5t-70.5 -85 t-106.5 -54t-131.5 -19.5q-66 0 -106.5 10t-65 24.5t-34 32t-9.5 29.5zM313 10q0 8 11 25l831 1347q8 16 16 17q4 0 10.5 -2t22.5 -11q25 -14 30 -19t5 -9q0 -2 -8 -19l-832 -1343q-14 -27 -20 -27q-4 0 -11.5 3t-25.5 14q-18 10 -23.5 14t-5.5 10zM752 238q0 16 14 30 l457 547l15 15q9 9 22 10q31 0 30 -47v-482h133q14 0 15 -18v-62q0 -16 -21 -16h-127v-192q0 -23 -20 -23h-88q-10 0 -13.5 3t-3.5 17v195h-395q-18 0 -18 23zM895 319.5q4 -8.5 18 -8.5h252v291q0 16 -9 21.5t-19 -9.5l-232 -270q-14 -16 -10 -24.5z" />
<glyph unicode="&#xbf;" horiz-adv-x="757" d="M59 -23q0 96 42 147.5t101.5 74t124 26.5t107.5 6q16 0 17 17v219q0 14 14 14h39q14 0 14 -14v-387q0 -16 -5 -19.5t-17 0.5q-35 6 -71 7h-65q-25 0 -61.5 -7.5t-70 -26t-58.5 -49t-25 -79.5q0 -61 34 -105.5t77 -79.5q39 -31 68.5 -50t56.5 -30.5t53.5 -14.5t59.5 -3 q63 0 104 -29.5t41 -70.5q0 -6 -3 -18.5t-14.5 -27t-31 -24.5t-49.5 -10q-63 0 -146.5 48t-158 125t-126 172t-51.5 189zM367 766q0 47 30.5 80t83.5 33q43 0 78 -33t35 -78q0 -41 -32 -75t-85 -34q-45 0 -77.5 30t-32.5 77z" />
<glyph unicode="&#xc0;" horiz-adv-x="1521" d="M-2 10v49q0 14 16 15h72q47 0 71.5 22.5t47.5 71.5q6 12 32.5 80.5t61.5 159t71 183.5t58 157q4 10 18.5 50t35 95t44 117.5t45 119t37 98.5t19.5 56q4 16 8 34.5t-6 35.5q-4 6 -9.5 13t-5.5 13q0 12 19 19q20 4 47 16t51.5 27.5t44 32t27.5 26.5l13 13q5 5 13 6 q10 0 14.5 -9.5t8.5 -25.5q14 -49 48 -148.5t71 -210t70.5 -211t48.5 -149.5q18 -59 48.5 -152.5t62.5 -185.5t59.5 -166t37.5 -96q27 -51 64 -71.5t76 -20.5h67q16 0 17 -15v-51q0 -14 -21 -14q-14 0 -30.5 1t-44 2t-68.5 2t-103 1q-127 0 -190.5 -3t-97.5 -3q-16 0 -17 18 v47q0 14 19 15h51q43 0 57.5 17.5t3.5 60.5q-6 27 -23.5 84t-37 121.5t-38.5 122.5l-30 89h-503q-8 -18 -30 -78.5t-46.5 -127t-44 -125t-23.5 -74.5q-2 -10 -4 -23.5t-2 -21.5q0 -45 70 -45h96q20 0 20 -15v-47q0 -18 -16 -18q-23 0 -82 3t-151 3q-55 0 -93.5 -1t-64 -2 t-40.5 -2t-26 -1q-14 0 -14 16zM395 1825q0 29 20.5 50t53.5 21q23 0 41 -10t43 -31l285 -233q8 -8 0 -18l-25 -29q-6 -6 -16 0l-342 168q-31 16 -45.5 37.5t-14.5 44.5zM475 643h453q-4 14 -19.5 63.5t-37 114t-44 136t-43 134t-35 105.5t-16.5 51q-4 10 -8 19.5t-8 9.5 q-6 0 -12.5 -9.5t-10.5 -21.5q-2 -6 -18.5 -50t-40 -106.5t-50 -135t-50 -137t-40 -113t-20.5 -60.5z" />
<glyph unicode="&#xc1;" horiz-adv-x="1521" d="M-2 10v49q0 14 16 15h72q47 0 71.5 22.5t47.5 71.5q6 12 32.5 80.5t61.5 159t71 183.5t58 157q4 10 18.5 50t35 95t44 117.5t45 119t37 98.5t19.5 56q4 16 8 34.5t-6 35.5q-4 6 -9.5 13t-5.5 13q0 12 19 19q20 4 47 16t51.5 27.5t44 32t27.5 26.5l13 13q5 5 13 6 q10 0 14.5 -9.5t8.5 -25.5q14 -49 48 -148.5t71 -210t70.5 -211t48.5 -149.5q18 -59 48.5 -152.5t62.5 -185.5t59.5 -166t37.5 -96q27 -51 64 -71.5t76 -20.5h67q16 0 17 -15v-51q0 -14 -21 -14q-14 0 -30.5 1t-44 2t-68.5 2t-103 1q-127 0 -190.5 -3t-97.5 -3q-16 0 -17 18 v47q0 14 19 15h51q43 0 57.5 17.5t3.5 60.5q-6 27 -23.5 84t-37 121.5t-38.5 122.5l-30 89h-503q-8 -18 -30 -78.5t-46.5 -127t-44 -125t-23.5 -74.5q-2 -10 -4 -23.5t-2 -21.5q0 -45 70 -45h96q20 0 20 -15v-47q0 -18 -16 -18q-23 0 -82 3t-151 3q-55 0 -93.5 -1t-64 -2 t-40.5 -2t-26 -1q-14 0 -14 16zM475 643h453q-4 14 -19.5 63.5t-37 114t-44 136t-43 134t-35 105.5t-16.5 51q-4 10 -8 19.5t-8 9.5q-6 0 -12.5 -9.5t-10.5 -21.5q-2 -6 -18.5 -50t-40 -106.5t-50 -135t-50 -137t-40 -113t-20.5 -60.5zM653 1608q-8 8 4 16l281 231 q25 20 43 30.5t41 10.5q33 0 53.5 -21.5t20.5 -49.5q0 -23 -14.5 -44.5t-45.5 -37.5l-344 -168q-8 -6 -14 0z" />
<glyph unicode="&#xc2;" horiz-adv-x="1521" d="M-2 10v49q0 14 16 15h72q47 0 71.5 22.5t47.5 71.5q6 12 32.5 80.5t61.5 159t71 183.5t58 157q4 10 18.5 50t35 95t44 117.5t45 119t37 98.5t19.5 56q4 16 8 34.5t-6 35.5q-4 6 -9.5 13t-5.5 13q0 12 19 19q20 4 47 16t51.5 27.5t44 32t27.5 26.5l13 13q5 5 13 6 q10 0 14.5 -9.5t8.5 -25.5q14 -49 48 -148.5t71 -210t70.5 -211t48.5 -149.5q18 -59 48.5 -152.5t62.5 -185.5t59.5 -166t37.5 -96q27 -51 64 -71.5t76 -20.5h67q16 0 17 -15v-51q0 -14 -21 -14q-14 0 -30.5 1t-44 2t-68.5 2t-103 1q-127 0 -190.5 -3t-97.5 -3q-16 0 -17 18 v47q0 14 19 15h51q43 0 57.5 17.5t3.5 60.5q-6 27 -23.5 84t-37 121.5t-38.5 122.5l-30 89h-503q-8 -18 -30 -78.5t-46.5 -127t-44 -125t-23.5 -74.5q-2 -10 -4 -23.5t-2 -21.5q0 -45 70 -45h96q20 0 20 -15v-47q0 -18 -16 -18q-23 0 -82 3t-151 3q-55 0 -93.5 -1t-64 -2 t-40.5 -2t-26 -1q-14 0 -14 16zM475 643h453q-4 14 -19.5 63.5t-37 114t-44 136t-43 134t-35 105.5t-16.5 51q-4 10 -8 19.5t-8 9.5q-6 0 -12.5 -9.5t-10.5 -21.5q-2 -6 -18.5 -50t-40 -106.5t-50 -135t-50 -137t-40 -113t-20.5 -60.5zM494 1597q-4 8 6 19l252 227 q8 6 15 12.5t11 6.5q6 0 13.5 -6.5t15.5 -12.5l260 -229q8 -8 2 -17l-14 -18q-6 -8 -19 -2l-262 117l-244 -117q-14 -6 -20 0z" />
<glyph unicode="&#xc3;" horiz-adv-x="1521" d="M-2 10v49q0 14 16 15h72q47 0 71.5 22.5t47.5 71.5q6 12 32.5 80.5t61.5 159t71 183.5t58 157q4 10 18.5 50t35 95t44 117.5t45 119t37 98.5t19.5 56q4 16 8 34.5t-6 35.5q-4 6 -9.5 13t-5.5 13q0 12 19 19q20 4 47 16t51.5 27.5t44 32t27.5 26.5l13 13q5 5 13 6 q10 0 14.5 -9.5t8.5 -25.5q14 -49 48 -148.5t71 -210t70.5 -211t48.5 -149.5q18 -59 48.5 -152.5t62.5 -185.5t59.5 -166t37.5 -96q27 -51 64 -71.5t76 -20.5h67q16 0 17 -15v-51q0 -14 -21 -14q-14 0 -30.5 1t-44 2t-68.5 2t-103 1q-127 0 -190.5 -3t-97.5 -3q-16 0 -17 18 v47q0 14 19 15h51q43 0 57.5 17.5t3.5 60.5q-6 27 -23.5 84t-37 121.5t-38.5 122.5l-30 89h-503q-8 -18 -30 -78.5t-46.5 -127t-44 -125t-23.5 -74.5q-2 -10 -4 -23.5t-2 -21.5q0 -45 70 -45h96q20 0 20 -15v-47q0 -18 -16 -18q-23 0 -82 3t-151 3q-55 0 -93.5 -1t-64 -2 t-40.5 -2t-26 -1q-14 0 -14 16zM475 643h453q-4 14 -19.5 63.5t-37 114t-44 136t-43 134t-35 105.5t-16.5 51q-4 10 -8 19.5t-8 9.5q-6 0 -12.5 -9.5t-10.5 -21.5q-2 -6 -18.5 -50t-40 -106.5t-50 -135t-50 -137t-40 -113t-20.5 -60.5zM485 1636q14 82 59.5 128t106.5 46 q45 0 82 -11t82 -21q39 -10 71 -18.5t68 -8.5q35 0 48.5 23.5t19.5 46.5q2 12 14 12h35q6 0 8 -7t-2 -30q-12 -59 -51 -109.5t-106 -50.5q-43 0 -83 12.5t-87 24.5q-68 20 -127 21q-25 0 -47.5 -21.5t-32.5 -60.5q-2 -10 -15 -10h-36q-15 -1 -7 34z" />
<glyph unicode="&#xc4;" horiz-adv-x="1521" d="M-2 10v49q0 14 16 15h72q47 0 71.5 22.5t47.5 71.5q6 12 32.5 80.5t61.5 159t71 183.5t58 157q4 10 18.5 50t35 95t44 117.5t45 119t37 98.5t19.5 56q4 16 8 34.5t-6 35.5q-4 6 -9.5 13t-5.5 13q0 12 19 19q20 4 47 16t51.5 27.5t44 32t27.5 26.5l13 13q5 5 13 6 q10 0 14.5 -9.5t8.5 -25.5q14 -49 48 -148.5t71 -210t70.5 -211t48.5 -149.5q18 -59 48.5 -152.5t62.5 -185.5t59.5 -166t37.5 -96q27 -51 64 -71.5t76 -20.5h67q16 0 17 -15v-51q0 -14 -21 -14q-14 0 -30.5 1t-44 2t-68.5 2t-103 1q-127 0 -190.5 -3t-97.5 -3q-16 0 -17 18 v47q0 14 19 15h51q43 0 57.5 17.5t3.5 60.5q-6 27 -23.5 84t-37 121.5t-38.5 122.5l-30 89h-503q-8 -18 -30 -78.5t-46.5 -127t-44 -125t-23.5 -74.5q-2 -10 -4 -23.5t-2 -21.5q0 -45 70 -45h96q20 0 20 -15v-47q0 -18 -16 -18q-23 0 -82 3t-151 3q-55 0 -93.5 -1t-64 -2 t-40.5 -2t-26 -1q-14 0 -14 16zM469 1712q0 8 5 23.5t17.5 31t33 25.5t50.5 10q35 0 63 -25.5t28 -72.5q0 -41 -28 -66.5t-63 -25.5q-14 0 -32.5 4t-34.5 15t-27.5 30.5t-11.5 50.5zM475 643h453q-4 14 -19.5 63.5t-37 114t-44 136t-43 134t-35 105.5t-16.5 51 q-4 10 -8 19.5t-8 9.5q-6 0 -12.5 -9.5t-10.5 -21.5q-2 -6 -18.5 -50t-40 -106.5t-50 -135t-50 -137t-40 -113t-20.5 -60.5zM877 1712q0 8 5 23.5t17 31t32.5 25.5t51.5 10q35 0 63.5 -25.5t28.5 -72.5q0 -41 -27.5 -66.5t-64.5 -25.5q-14 0 -32.5 4t-35 15t-27.5 30.5 t-11 50.5z" />
<glyph unicode="&#xc5;" horiz-adv-x="1521" d="M-2 10v49q0 14 16 15h72q47 0 71.5 22.5t47.5 71.5q6 12 32.5 80.5t61.5 159t71 183.5t58 157q4 10 18.5 50t35 95t44 117.5t45 119t37 98.5t19.5 56q4 16 8 34.5t-6 35.5q-4 6 -9.5 13t-5.5 13q0 14 19 17q47 8 84 14t69 16q25 8 39.5 15.5t26.5 7.5q10 0 16 -14.5 t11 -30.5l18 -55q14 -43 33.5 -102.5t44 -130t46 -138.5t40 -124t29.5 -89q18 -59 48.5 -152.5t62.5 -185.5t59.5 -166t37.5 -96q27 -51 64 -71.5t76 -20.5h67q16 0 17 -15v-51q0 -14 -21 -14q-14 0 -30.5 1t-44 2t-68.5 2t-103 1q-127 0 -190.5 -3t-97.5 -3q-16 0 -17 18 v47q0 14 19 15h51q43 0 57.5 17.5t3.5 60.5q-6 27 -23.5 84t-37 121.5t-38.5 122.5l-30 89h-503q-8 -18 -30 -78.5t-46.5 -127t-44 -125t-23.5 -74.5q-2 -10 -4 -23.5t-2 -21.5q0 -45 70 -45h96q20 0 20 -15v-47q0 -18 -16 -18q-23 0 -82 3t-151 3q-55 0 -93.5 -1t-64 -2 t-40.5 -2t-26 -1q-14 0 -14 16zM475 643h453q-4 14 -19.5 63.5t-37 114t-44 136t-43 134t-35 105.5t-16.5 51q-4 10 -7 19.5t-9 9.5q-8 0 -13.5 -9.5t-9.5 -21.5q-2 -6 -18.5 -50t-40 -106.5t-50 -135t-50 -137t-40 -113t-20.5 -60.5zM563 1692q0 37 17.5 66.5t46 51 t66.5 32.5t81 11q98 0 146.5 -40.5t48.5 -100.5q0 -49 -21.5 -81t-54.5 -51t-70 -26.5t-67 -7.5q-78 0 -135.5 39t-57.5 107zM670 1702q0 -45 24.5 -75t71.5 -30q45 0 70.5 28t25.5 77q0 47 -28.5 73.5t-63.5 26.5q-51 -2 -75.5 -33.5t-24.5 -66.5z" />
<glyph unicode="&#xc6;" horiz-adv-x="1892" d="M-137 20v35q0 18 14 19h70q31 0 57.5 29.5t52.5 64.5q12 14 50 81.5t85.5 156t97.5 180.5t87 159l46 82q28 49 59.5 104.5t65.5 112t61.5 105.5t48 85t26.5 48q23 53 12.5 74.5t-41.5 21.5h-37q-18 0 -18 19v43q0 12 6 15t17 3q49 0 109.5 -4t156.5 -4h139q129 0 255 1 t255 1q25 0 51.5 3t32.5 3q12 0 16 -10q2 -12 18.5 -62.5t34 -107.5t33 -105.5t17.5 -56.5q6 -14 -6 -18l-25 -15q-8 -4 -12 -2t-8 6l-195 232q-27 33 -69 46t-68 13l-354 6v-659q6 0 46 1t87 3t88 4t51 4q43 6 61.5 22.5t28.5 65.5l18 101q0 16 19 14l45 -4q18 0 16 -14 q-2 -12 -3 -46t-2 -72t-1 -71v-43q0 -55 4 -118.5t8 -94.5q2 -16 -16 -16l-41 -6q-14 -2 -16 12l-27 100q-8 33 -26.5 53.5t-57.5 24.5q-37 2 -81 3t-84 2t-72 1h-45v-59q0 -41 1 -95.5t1 -105.5t1 -93t1 -56q0 -88 24.5 -120t75.5 -42q14 -4 35.5 -6t46 -3t48.5 -2t40 -1 q27 0 75 1t83 5q41 2 88 16t78 55l159 215q12 20 31 9l25 -15q8 -4 12 -7t0 -13l-113 -309q-8 -31 -33 -31q-10 0 -43.5 1t-117.5 3q-86 0 -232.5 1t-386.5 1q-53 0 -94 -1t-72 -1q-29 -2 -50 -3t-36 -1q-20 0 -20 18v43q0 18 18 19h117q39 0 49 17.5t10 72.5v487h-407 q-31 -59 -68 -130.5t-69.5 -136.5t-56 -113t-29.5 -62q-23 -51 -23 -88q0 -25 19.5 -36t37.5 -11h99q20 0 20 -17v-37q0 -16 -3 -21t-15 -5q-18 0 -66.5 3t-163.5 3q-98 0 -150 -3t-73 -3q-14 -1 -14 26zM461 725h364v557q0 33 -18 33q-10 0 -16.5 -4t-16.5 -21z" />
<glyph unicode="&#xc7;" horiz-adv-x="1527" d="M98 731q0 143 49.5 284.5t159.5 258.5q39 41 92.5 79t119 66.5t141 45t159.5 16.5q70 0 133.5 -11.5t116.5 -29t94 -37t70 -35.5q20 -12 28.5 -11t12.5 11l16 59q4 10 8.5 11.5t18.5 1.5t18 -5t4 -28q0 -10 3.5 -39t8.5 -68.5t11 -85t11 -85t10.5 -72.5t7.5 -47 q4 -18 -9 -21l-30 -8q-12 -4 -21 18q-18 49 -59 120t-101 132q-66 66 -149.5 112t-206.5 46q-137 0 -234.5 -55.5t-160 -144.5t-90 -200.5t-27.5 -224.5q0 -45 8 -107.5t29.5 -134t60.5 -145t99 -139.5q51 -59 100 -93t97 -51.5t96.5 -22.5t99.5 -5q86 0 163 21.5 t141.5 58.5t115.5 84t86 96q8 14 16 6l27 -20q4 -4 6 -7t-2 -12q-47 -68 -107.5 -129t-135.5 -109t-167 -77t-198 -29l-86 -108q55 -16 96 -54t41 -86q0 -49 -32 -86.5t-80 -63.5t-105.5 -40t-106.5 -14q-25 0 -33 12t-8 29q0 18 19.5 23t46.5 5q25 0 52.5 7.5t52 21.5 t41 35.5t16.5 50.5q0 74 -131 104l131 168q-147 12 -250 61.5t-185 123.5q-55 51 -96 119.5t-68.5 145.5t-41 155.5t-13.5 152.5z" />
<glyph unicode="&#xc8;" horiz-adv-x="1413" d="M94 8v55q0 10 21 11h82q35 0 55 3t30.5 13t13.5 27.5t3 46.5v485v201q0 63 -1 138t-2 141.5t-2 112.5t-1 54q-6 49 -26.5 64.5t-78.5 15.5h-73q-16 0 -17 15v55q0 10 15 10q35 0 92 -3t160 -3h90q154 0 304 1t304 1q25 0 49.5 2t32.5 2q12 0 16 -10q2 -10 18.5 -60.5 t35 -107.5t34 -105.5t17.5 -56.5q4 -14 -6 -18l-31 -17q-4 -4 -9.5 -1t-7.5 7q-2 2 -26.5 35t-58 73t-67.5 77t-52 49q-33 23 -74 38t-82 17l-365 8v-600q6 0 44 1t83 3.5t84 4.5t50 4q45 8 62 25.5t32 64.5q4 16 9 43.5t7 56.5q0 14 14 14l52 -2q16 0 12 -16q-2 -12 -3 -46 t-2 -72t-1 -70v-45q0 -27 1 -57.5t3 -60.5t4 -54.5t4 -40.5q0 -14 -12 -17l-45 -6q-14 -2 -17 18q-4 20 -11 50t-11 47q-10 33 -28.5 54.5t-59.5 25.5q-37 4 -79 6t-80 3t-69 1h-43v-127q0 -41 1 -95.5t1 -105.5t1.5 -93t1.5 -56q2 -80 35.5 -115t80.5 -45q31 -6 72 -10 t80 -4h37q25 0 50 1l51 2q26 1 42 3q27 4 82 20.5t96 50.5q8 8 32 36t50.5 61.5t51 66.5t34.5 51q4 8 9 12.5t16 0.5l32 -19q12 -8 5 -28l-109 -301q-10 -31 -45 -31q-8 0 -47 1t-131 3q-92 0 -247 1t-394 1q-57 0 -100.5 -1t-73.5 -1q-33 -2 -53.5 -3t-34.5 -1 q-19 0 -19 14zM401 1825q0 29 20.5 50t53.5 21q23 0 41.5 -10t42.5 -31l285 -233q8 -8 0 -18l-25 -29q-6 -6 -16 0l-342 168q-31 16 -45.5 37.5t-14.5 44.5z" />
<glyph unicode="&#xc9;" horiz-adv-x="1413" d="M94 8v55q0 10 21 11h82q35 0 55 3t30.5 13t13.5 27.5t3 46.5v485v201q0 63 -1 138t-2 141.5t-2 112.5t-1 54q-6 49 -26.5 64.5t-78.5 15.5h-73q-16 0 -17 15v55q0 10 15 10q35 0 92 -3t160 -3h90q154 0 304 1t304 1q25 0 49.5 2t32.5 2q12 0 16 -10q2 -10 18.5 -60.5 t35 -107.5t34 -105.5t17.5 -56.5q4 -14 -6 -18l-31 -17q-4 -4 -9.5 -1t-7.5 7q-2 2 -26.5 35t-58 73t-67.5 77t-52 49q-33 23 -74 38t-82 17l-365 8v-600q6 0 44 1t83 3.5t84 4.5t50 4q45 8 62 25.5t32 64.5q4 16 9 43.5t7 56.5q0 14 14 14l52 -2q16 0 12 -16q-2 -12 -3 -46 t-2 -72t-1 -70v-45q0 -27 1 -57.5t3 -60.5t4 -54.5t4 -40.5q0 -14 -12 -17l-45 -6q-14 -2 -17 18q-4 20 -11 50t-11 47q-10 33 -28.5 54.5t-59.5 25.5q-37 4 -79 6t-80 3t-69 1h-43v-127q0 -41 1 -95.5t1 -105.5t1.5 -93t1.5 -56q2 -80 35.5 -115t80.5 -45q31 -6 72 -10 t80 -4h37q25 0 50 1l51 2q26 1 42 3q27 4 82 20.5t96 50.5q8 8 32 36t50.5 61.5t51 66.5t34.5 51q4 8 9 12.5t16 0.5l32 -19q12 -8 5 -28l-109 -301q-10 -31 -45 -31q-8 0 -47 1t-131 3q-92 0 -247 1t-394 1q-57 0 -100.5 -1t-73.5 -1q-33 -2 -53.5 -3t-34.5 -1 q-19 0 -19 14zM590 1608q-8 8 4 16l280 231q25 20 43.5 30.5t40.5 10.5q33 0 53.5 -21.5t20.5 -49.5q0 -23 -14 -44.5t-45 -37.5l-344 -168q-8 -6 -15 0z" />
<glyph unicode="&#xca;" horiz-adv-x="1413" d="M94 8v55q0 10 21 11h82q35 0 55 3t30.5 13t13.5 27.5t3 46.5v485v201q0 63 -1 138t-2 141.5t-2 112.5t-1 54q-6 49 -26.5 64.5t-78.5 15.5h-73q-16 0 -17 15v55q0 10 15 10q35 0 92 -3t160 -3h90q154 0 304 1t304 1q25 0 49.5 2t32.5 2q12 0 16 -10q2 -10 18.5 -60.5 t35 -107.5t34 -105.5t17.5 -56.5q4 -14 -6 -18l-31 -17q-4 -4 -9.5 -1t-7.5 7q-2 2 -26.5 35t-58 73t-67.5 77t-52 49q-33 23 -74 38t-82 17l-365 8v-600q6 0 44 1t83 3.5t84 4.5t50 4q45 8 62 25.5t32 64.5q4 16 9 43.5t7 56.5q0 14 14 14l52 -2q16 0 12 -16q-2 -12 -3 -46 t-2 -72t-1 -70v-45q0 -27 1 -57.5t3 -60.5t4 -54.5t4 -40.5q0 -14 -12 -17l-45 -6q-14 -2 -17 18q-4 20 -11 50t-11 47q-10 33 -28.5 54.5t-59.5 25.5q-37 4 -79 6t-80 3t-69 1h-43v-127q0 -41 1 -95.5t1 -105.5t1.5 -93t1.5 -56q2 -80 35.5 -115t80.5 -45q31 -6 72 -10 t80 -4h37q25 0 50 1l51 2q26 1 42 3q27 4 82 20.5t96 50.5q8 8 32 36t50.5 61.5t51 66.5t34.5 51q4 8 9 12.5t16 0.5l32 -19q12 -8 5 -28l-109 -301q-10 -31 -45 -31q-8 0 -47 1t-131 3q-92 0 -247 1t-394 1q-57 0 -100.5 -1t-73.5 -1q-33 -2 -53.5 -3t-34.5 -1 q-19 0 -19 14zM451 1597q-4 8 6 19l252 227q8 6 15 12.5t11 6.5q6 0 13.5 -6.5t15.5 -12.5l260 -229q8 -8 2 -17l-14 -18q-6 -8 -19 -2l-262 117l-244 -117q-14 -6 -20 0z" />
<glyph unicode="&#xcb;" horiz-adv-x="1413" d="M94 8v55q0 10 21 11h82q35 0 55 3t30.5 13t13.5 27.5t3 46.5v485v201q0 63 -1 138t-2 141.5t-2 112.5t-1 54q-6 49 -26.5 64.5t-78.5 15.5h-73q-16 0 -17 15v55q0 10 15 10q35 0 92 -3t160 -3h90q154 0 304 1t304 1q25 0 49.5 2t32.5 2q12 0 16 -10q2 -10 18.5 -60.5 t35 -107.5t34 -105.5t17.5 -56.5q4 -14 -6 -18l-31 -17q-4 -4 -9.5 -1t-7.5 7q-2 2 -26.5 35t-58 73t-67.5 77t-52 49q-33 23 -74 38t-82 17l-365 8v-600q6 0 44 1t83 3.5t84 4.5t50 4q45 8 62 25.5t32 64.5q4 16 9 43.5t7 56.5q0 14 14 14l52 -2q16 0 12 -16q-2 -12 -3 -46 t-2 -72t-1 -70v-45q0 -27 1 -57.5t3 -60.5t4 -54.5t4 -40.5q0 -14 -12 -17l-45 -6q-14 -2 -17 18q-4 20 -11 50t-11 47q-10 33 -28.5 54.5t-59.5 25.5q-37 4 -79 6t-80 3t-69 1h-43v-127q0 -41 1 -95.5t1 -105.5t1.5 -93t1.5 -56q2 -80 35.5 -115t80.5 -45q31 -6 72 -10 t80 -4h37q25 0 50 1l51 2q26 1 42 3q27 4 82 20.5t96 50.5q8 8 32 36t50.5 61.5t51 66.5t34.5 51q4 8 9 12.5t16 0.5l32 -19q12 -8 5 -28l-109 -301q-10 -31 -45 -31q-8 0 -47 1t-131 3q-92 0 -247 1t-394 1q-57 0 -100.5 -1t-73.5 -1q-33 -2 -53.5 -3t-34.5 -1 q-19 0 -19 14zM424 1712q0 8 5 23.5t17.5 31t33 25.5t50.5 10q35 0 63 -25.5t28 -72.5q0 -41 -28 -66.5t-63 -25.5q-14 0 -32.5 4t-35 15t-27.5 30.5t-11 50.5zM831 1712q0 8 5.5 23.5t17.5 31t32.5 25.5t51.5 10q35 0 63.5 -25.5t28.5 -72.5q0 -41 -27.5 -66.5t-64.5 -25.5 q-14 0 -32.5 4t-35 15t-28 30.5t-11.5 50.5z" />
<glyph unicode="&#xcc;" horiz-adv-x="759" d="M35 1825q0 29 20.5 50t53.5 21q23 0 41 -10t43 -31l284 -233q8 -8 0 -18l-24 -29q-6 -6 -17 0l-342 168q-31 16 -45 37.5t-14 44.5zM41 1389v55q0 12 14 12q18 0 97 -3t223 -3q68 0 116 1t79.5 2t51 2t29.5 1q14 0 15 -14v-51q0 -14 -17 -15h-96q-31 0 -51.5 -13 t-20.5 -44v-43q0 -37 -1 -90t-2 -114.5t-2 -115t-1 -91.5v-44v-157v-44q0 -38 1 -93.5t2 -120t2 -120t1 -93.5v-46q0 -47 23.5 -60t73.5 -13h84q16 0 16 -15v-53q0 -12 -19 -12q-18 0 -83.5 3t-200.5 3q-147 0 -218 -3t-87 -3t-17 12v55q0 12 17 13h114q31 0 58.5 9t33.5 50 q0 8 2.5 46t3.5 94.5t2 122t2 127t1 113.5v79v143v48q0 36 -1 83t-2 100.5t-2 98.5t-2 77.5t-1 41.5q-4 37 -23.5 53t-79.5 16h-119q-16 1 -16 13z" />
<glyph unicode="&#xcd;" horiz-adv-x="759" d="M41 1389v55q0 12 14 12q18 0 97 -3t223 -3q68 0 116 1t79.5 2t51 2t29.5 1q14 0 15 -14v-51q0 -14 -17 -15h-96q-31 0 -51.5 -13t-20.5 -44v-43q0 -37 -1 -90t-2 -114.5t-2 -115t-1 -91.5v-44v-157v-44q0 -38 1 -93.5t2 -120t2 -120t1 -93.5v-46q0 -47 23.5 -60t73.5 -13 h84q16 0 16 -15v-53q0 -12 -19 -12q-18 0 -83.5 3t-200.5 3q-147 0 -218 -3t-87 -3t-17 12v55q0 12 17 13h114q31 0 58.5 9t33.5 50q0 8 2.5 46t3.5 94.5t2 122t2 127t1 113.5v79v143v48q0 36 -1 83t-2 100.5t-2 98.5t-2 77.5t-1 41.5q-4 37 -23.5 53t-79.5 16h-119 q-16 1 -16 13zM283 1608q-8 8 4 16l280 231q25 20 43.5 30.5t40.5 10.5q33 0 53.5 -21.5t20.5 -49.5q0 -23 -14.5 -44.5t-44.5 -37.5l-344 -168q-8 -6 -15 0z" />
<glyph unicode="&#xce;" horiz-adv-x="759" d="M41 1389v55q0 12 14 12q18 0 97 -3t223 -3q68 0 116 1t79.5 2t51 2t29.5 1q14 0 15 -14v-51q0 -14 -17 -15h-96q-31 0 -51.5 -13t-20.5 -44v-43q0 -37 -1 -90t-2 -114.5t-2 -115t-1 -91.5v-44v-157v-44q0 -38 1 -93.5t2 -120t2 -120t1 -93.5v-46q0 -47 23.5 -60t73.5 -13 h84q16 0 16 -15v-53q0 -12 -19 -12q-18 0 -83.5 3t-200.5 3q-147 0 -218 -3t-87 -3t-17 12v55q0 12 17 13h114q31 0 58.5 9t33.5 50q0 8 2.5 46t3.5 94.5t2 122t2 127t1 113.5v79v143v48q0 36 -1 83t-2 100.5t-2 98.5t-2 77.5t-1 41.5q-4 37 -23.5 53t-79.5 16h-119 q-16 1 -16 13zM92 1597q-4 8 6 19l252 227q8 6 15.5 12.5t11.5 6.5q6 0 13 -6.5t16 -12.5l260 -229q8 -8 2 -17l-15 -18q-6 -8 -18 -2l-262 117l-244 -117q-14 -6 -20 0z" />
<glyph unicode="&#xcf;" horiz-adv-x="759" d="M41 1389v55q0 12 14 12q18 0 97 -3t223 -3q68 0 116 1t79.5 2t51 2t29.5 1q14 0 15 -14v-51q0 -14 -17 -15h-96q-31 0 -51.5 -13t-20.5 -44v-43q0 -37 -1 -90t-2 -114.5t-2 -115t-1 -91.5v-44v-157v-44q0 -38 1 -93.5t2 -120t2 -120t1 -93.5v-46q0 -47 23.5 -60t73.5 -13 h84q16 0 16 -15v-53q0 -12 -19 -12q-18 0 -83.5 3t-200.5 3q-147 0 -218 -3t-87 -3t-17 12v55q0 12 17 13h114q31 0 58.5 9t33.5 50q0 8 2.5 46t3.5 94.5t2 122t2 127t1 113.5v79v143v48q0 36 -1 83t-2 100.5t-2 98.5t-2 77.5t-1 41.5q-4 37 -23.5 53t-79.5 16h-119 q-16 1 -16 13zM78 1712q0 8 5 23.5t17.5 31t33 25.5t50.5 10q35 0 62.5 -25.5t27.5 -72.5q0 -41 -27.5 -66.5t-62.5 -25.5q-14 0 -32.5 4t-35 15t-27.5 30.5t-11 50.5zM485 1712q0 8 5.5 23.5t17.5 31t32.5 25.5t51.5 10q35 0 63.5 -25.5t28.5 -72.5q0 -41 -27.5 -66.5 t-64.5 -25.5q-14 0 -32.5 4t-35 15t-28 30.5t-11.5 50.5z" />
<glyph unicode="&#xd0;" horiz-adv-x="1665" d="M59 10v49q0 14 15 15h139q29 0 45 13t23 48q2 8 4 61.5t4 127t3 157.5t1 156v55h-199q-18 0 -18 19v41q0 10 3 14t15 4h199v170q0 20 -1 76.5t-3 120t-3 117t-3 65.5q-6 57 -88 57h-117q-12 0 -12 19v45q0 16 16 16q18 0 81.5 -3t217.5 -3q33 0 78 1t89 2t82 2t56 1 q98 0 189.5 -7t174.5 -27.5t158.5 -56.5t143.5 -93q100 -86 163.5 -214t63.5 -308q0 -176 -51 -302t-152 -237q-74 -82 -161 -126t-173 -64.5t-165.5 -23.5t-137.5 -3q-12 0 -60 1t-107.5 2t-118 2t-91.5 1q-129 0 -201.5 -3t-84.5 -3q-17 0 -17 16zM481 620q0 -56 1 -127 t2 -140.5t1 -112.5q0 -31 7.5 -57.5t27.5 -57.5q25 -33 83.5 -49.5t135.5 -16.5q156 0 279 61.5t201 160.5q66 80 107.5 199.5t41.5 260.5q0 59 -12.5 123t-35 123.5t-53 112.5t-67.5 94q-80 88 -211 142.5t-303 54.5q-35 0 -86 -3.5t-78 -17.5q-23 -12 -30 -36.5t-9 -59.5 q0 -33 -1 -92.5t-1 -120.5v-112v-62v-117h348q12 0 15.5 -4t3.5 -14v-41q0 -18 -19 -19h-348v-72z" />
<glyph unicode="&#xd1;" horiz-adv-x="1628" d="M45 1391v53q0 12 12 12q8 0 21.5 -1t36.5 -1q23 -2 57.5 -3t87.5 -1t86 2t51 2q35 0 60 -27q2 -4 33.5 -44t77.5 -99t99.5 -129t100.5 -130t80 -104t39 -51q6 -8 35.5 -43.5t71.5 -88t91.5 -113l94.5 -115.5t78.5 -98t46.5 -60h8v244v122q0 54 -1 100t-2 85t-3 78 q0 31 -3 79l-7 96q-3 48 -7 88t-8 52q-25 80 -113 80h-65q-12 0 -12 15v53q0 12 12 12q23 0 75 -3t150 -3q92 0 135 3t64 3q16 0 16 -14v-51q0 -14 -12 -15h-55q-41 0 -58.5 -26.5t-21.5 -85.5q-4 -51 -5 -112.5t-2 -125t-1 -125.5v-110v-766q0 -23 -2.5 -36.5t-8.5 -13.5 q-18 0 -31.5 13.5t-17.5 19.5q0 2 -21.5 28.5t-56 71t-80 100.5t-92.5 116q-53 68 -106 133t-95 118.5t-71 88t-33 38.5q-6 4 -37.5 43t-77 94.5t-95.5 119t-94 119t-74.5 93t-33.5 41.5h-12v-454q0 -72 3 -163t6 -176t6.5 -148.5t5.5 -77.5q6 -59 20.5 -89t54.5 -30h62 q16 0 16 -19v-45q0 -16 -16 -16q-8 0 -31.5 1t-54.5 2l-62 2q-31 1 -51 1q-16 0 -47 -1t-63.5 -2t-59 -2t-35.5 -1q-10 0 -10 14v53q0 12 12 13h70q45 0 64.5 24.5t27.5 100.5q4 29 6 195.5t2 441.5v348q0 92 -39.5 140t-95.5 50l-84 2q-12 1 -12 15zM559 1636 q14 82 59.5 128t106.5 46q45 0 82 -11t82 -21q39 -10 70.5 -18.5t68.5 -8.5q35 0 48.5 23.5t19.5 46.5q2 12 14 12h35q6 0 8 -7t-2 -30q-12 -59 -51 -109.5t-107 -50.5q-43 0 -83 12.5t-87 24.5q-68 20 -127 21q-25 0 -47 -21.5t-33 -60.5q-2 -10 -14 -10h-37q-14 -1 -6 34z " />
<glyph unicode="&#xd2;" horiz-adv-x="1681" d="M98 711q0 47 7.5 105t29 125t58 137.5t96.5 142.5q68 82 138.5 133t142 78.5t140 38t134.5 10.5q49 0 103 -6.5t113.5 -23.5t120 -49t122.5 -83q55 -49 106 -110.5t90 -138.5t61.5 -167t22.5 -196q0 -113 -37 -226.5t-116 -222.5q-47 -61 -105.5 -114.5t-130.5 -92.5 t-160 -60.5t-194 -21.5q-37 0 -88.5 7.5t-109.5 22.5t-119.5 41t-123.5 62q-55 33 -108 90.5t-96 135.5t-70 174t-27 209zM307 776q0 -135 29 -241.5t75 -187.5t105 -138t120.5 -93t119 -52.5t100.5 -16.5q113 0 196 35t141 91t95 127t57.5 142.5t28.5 137t8 110.5 q0 168 -53 300t-135 224.5t-177 140.5t-181 48q-12 0 -42 2t-74 -7t-97.5 -35t-110.5 -81q-51 -49 -90 -110.5t-64.5 -128t-38 -135.5t-12.5 -132zM516 1825q0 29 20.5 50t53.5 21q23 0 41 -10t43 -31l284 -233q8 -8 0 -18l-24 -29q-6 -6 -16 0l-343 168q-31 16 -45 37.5 t-14 44.5z" />
<glyph unicode="&#xd3;" horiz-adv-x="1681" d="M98 711q0 47 7.5 105t29 125t58 137.5t96.5 142.5q68 82 138.5 133t142 78.5t140 38t134.5 10.5q49 0 103 -6.5t113.5 -23.5t120 -49t122.5 -83q55 -49 106 -110.5t90 -138.5t61.5 -167t22.5 -196q0 -113 -37 -226.5t-116 -222.5q-47 -61 -105.5 -114.5t-130.5 -92.5 t-160 -60.5t-194 -21.5q-37 0 -88.5 7.5t-109.5 22.5t-119.5 41t-123.5 62q-55 33 -108 90.5t-96 135.5t-70 174t-27 209zM307 776q0 -135 29 -241.5t75 -187.5t105 -138t120.5 -93t119 -52.5t100.5 -16.5q113 0 196 35t141 91t95 127t57.5 142.5t28.5 137t8 110.5 q0 168 -53 300t-135 224.5t-177 140.5t-181 48q-12 0 -42 2t-74 -7t-97.5 -35t-110.5 -81q-51 -49 -90 -110.5t-64.5 -128t-38 -135.5t-12.5 -132zM702 1608q-8 8 5 16l280 231q25 20 43.5 30.5t40.5 10.5q33 0 53.5 -21.5t20.5 -49.5q0 -23 -14.5 -44.5t-45.5 -37.5 l-344 -168q-8 -6 -14 0z" />
<glyph unicode="&#xd4;" horiz-adv-x="1681" d="M98 711q0 47 7.5 105t29 125t58 137.5t96.5 142.5q68 82 138.5 133t142 78.5t140 38t134.5 10.5q49 0 103 -6.5t113.5 -23.5t120 -49t122.5 -83q55 -49 106 -110.5t90 -138.5t61.5 -167t22.5 -196q0 -113 -37 -226.5t-116 -222.5q-47 -61 -105.5 -114.5t-130.5 -92.5 t-160 -60.5t-194 -21.5q-37 0 -88.5 7.5t-109.5 22.5t-119.5 41t-123.5 62q-55 33 -108 90.5t-96 135.5t-70 174t-27 209zM307 776q0 -135 29 -241.5t75 -187.5t105 -138t120.5 -93t119 -52.5t100.5 -16.5q113 0 196 35t141 91t95 127t57.5 142.5t28.5 137t8 110.5 q0 168 -53 300t-135 224.5t-177 140.5t-181 48q-12 0 -42 2t-74 -7t-97.5 -35t-110.5 -81q-51 -49 -90 -110.5t-64.5 -128t-38 -135.5t-12.5 -132zM553 1597q-4 8 6 19l252 227q8 6 15.5 12.5t11.5 6.5q6 0 13 -6.5t15 -12.5l260 -229q8 -8 2 -17l-14 -18q-6 -8 -18 -2 l-262 117l-244 -117q-14 -6 -21 0z" />
<glyph unicode="&#xd5;" horiz-adv-x="1681" d="M98 711q0 47 7.5 105t29 125t58 137.5t96.5 142.5q68 82 138.5 133t142 78.5t140 38t134.5 10.5q49 0 103 -6.5t113.5 -23.5t120 -49t122.5 -83q55 -49 106 -110.5t90 -138.5t61.5 -167t22.5 -196q0 -113 -37 -226.5t-116 -222.5q-47 -61 -105.5 -114.5t-130.5 -92.5 t-160 -60.5t-194 -21.5q-37 0 -88.5 7.5t-109.5 22.5t-119.5 41t-123.5 62q-55 33 -108 90.5t-96 135.5t-70 174t-27 209zM307 776q0 -135 29 -241.5t75 -187.5t105 -138t120.5 -93t119 -52.5t100.5 -16.5q113 0 196 35t141 91t95 127t57.5 142.5t28.5 137t8 110.5 q0 168 -53 300t-135 224.5t-177 140.5t-181 48q-12 0 -42 2t-74 -7t-97.5 -35t-110.5 -81q-51 -49 -90 -110.5t-64.5 -128t-38 -135.5t-12.5 -132zM545 1636q14 82 59 128t107 46q45 0 81.5 -11t81.5 -21q39 -10 71 -18.5t69 -8.5q35 0 48 23.5t19 46.5q2 12 15 12h34 q6 0 8.5 -7t-1.5 -30q-12 -59 -51 -109.5t-107 -50.5q-43 0 -83 12.5t-87 24.5q-68 20 -127 21q-25 0 -47.5 -21.5t-32.5 -60.5q-2 -10 -14 -10h-37q-14 -1 -6 34z" />
<glyph unicode="&#xd6;" horiz-adv-x="1681" d="M98 711q0 47 7.5 105t29 125t58 137.5t96.5 142.5q68 82 138.5 133t142 78.5t140 38t134.5 10.5q49 0 103 -6.5t113.5 -23.5t120 -49t122.5 -83q55 -49 106 -110.5t90 -138.5t61.5 -167t22.5 -196q0 -113 -37 -226.5t-116 -222.5q-47 -61 -105.5 -114.5t-130.5 -92.5 t-160 -60.5t-194 -21.5q-37 0 -88.5 7.5t-109.5 22.5t-119.5 41t-123.5 62q-55 33 -108 90.5t-96 135.5t-70 174t-27 209zM307 776q0 -135 29 -241.5t75 -187.5t105 -138t120.5 -93t119 -52.5t100.5 -16.5q113 0 196 35t141 91t95 127t57.5 142.5t28.5 137t8 110.5 q0 168 -53 300t-135 224.5t-177 140.5t-181 48q-12 0 -42 2t-74 -7t-97.5 -35t-110.5 -81q-51 -49 -90 -110.5t-64.5 -128t-38 -135.5t-12.5 -132zM539 1712q0 8 5 23.5t17 31t32.5 25.5t51.5 10q35 0 62.5 -25.5t27.5 -72.5q0 -41 -27.5 -66.5t-62.5 -25.5q-14 0 -32.5 4 t-35 15t-27.5 30.5t-11 50.5zM946 1712q0 8 5 23.5t17.5 31t33 25.5t51.5 10q35 0 63.5 -25.5t28.5 -72.5q0 -41 -27.5 -66.5t-64.5 -25.5q-14 0 -33 4t-35 15t-27.5 30.5t-11.5 50.5z" />
<glyph unicode="&#xd7;" d="M137 207l293 289l-291 286l82 84l293 -295l293 295l78 -75l-295 -291l297 -293l-84 -86l-297 299l-297 -299z" />
<glyph unicode="&#xd8;" horiz-adv-x="1681" d="M98 33q0 2 8 18l164 166q-72 86 -122 211t-50 283q0 47 7.5 105t29 125t58 137.5t96.5 142.5q68 82 138.5 133t142 78.5t140 38t134.5 10.5q49 0 103 -6.5t113.5 -23.5t120 -49t122.5 -83q8 -6 14 -12l14 -15l178 181q8 8 13 8q2 0 10 -8l51 -41q10 -10 10 -13 q0 -4 -2 -5t-4 -5l-186 -190q78 -92 130 -219.5t52 -292.5q0 -113 -37 -226.5t-116 -222.5q-47 -61 -105.5 -114.5t-130.5 -92.5t-160 -60.5t-194 -21.5q-37 0 -88.5 7.5t-109.5 22.5t-119.5 41t-123.5 62q-25 14 -57 43l-162 -163q-12 -12 -16 -13q-6 0 -17 11l-41 38 q-8 13 -8 15zM307 776q0 -131 26.5 -234.5t74.5 -185.5l815 826q-86 111 -190.5 166t-196.5 55q-12 0 -42 1t-73 -8.5t-96.5 -36t-110.5 -79.5q-53 -49 -91 -109.5t-64.5 -127t-39 -135.5t-12.5 -132zM463 268q45 -59 98 -100t106.5 -68.5t102.5 -40t86 -12.5q113 0 196 35 t141 91t95 127t57.5 142.5t28.5 137t8 110.5q0 121 -27.5 222.5t-74.5 183.5z" />
<glyph unicode="&#xd9;" horiz-adv-x="1527" d="M16 1395v45q0 10 3.5 13t15.5 3q16 0 88 -3t192 -3q121 0 193 3t88 3q12 0 15 -3t3 -9v-53q0 -14 -16 -15h-102q-45 0 -70 -24.5t-29 -59.5q0 -6 -1 -34.5t-2 -66.5t-1 -82v-83v-135q0 -41 1 -104.5t3 -129t4 -121t2 -79.5q2 -72 16.5 -139.5t49.5 -120.5 q57 -84 146.5 -116t179.5 -32q88 0 171 28.5t136 84.5q59 66 82.5 156t23.5 204v439q0 117 -3 201.5t-7 123.5q-4 41 -27.5 65.5t-64.5 24.5h-90q-14 0 -15 17v49q0 14 15 14q16 0 81.5 -3t170.5 -3q106 0 158.5 3t66.5 3t17 -5t3 -9v-45q0 -20 -12 -21h-84q-29 0 -45 -9 t-25.5 -22.5t-12.5 -27.5t-5 -23q-2 -8 -3 -58t-1 -109v-110v-63v-40q0 -32 -1 -76.5t-2 -98t-2 -102.5t-2 -89t-3 -61q-10 -127 -48 -224t-124 -171q-61 -57 -155.5 -90t-229.5 -33q-80 0 -153 10.5t-124 32.5q-104 41 -161.5 108.5t-81.5 166.5q-10 35 -16.5 79t-9.5 103 t-5 137t-2 178v488q0 53 -15.5 78.5t-62.5 25.5h-96q-15 1 -15 19zM459 1825q0 29 20.5 50t52.5 21q23 0 41.5 -10t42.5 -31l285 -233q8 -8 0 -18l-24 -29q-6 -6 -17 0l-342 168q-31 16 -45 37.5t-14 44.5z" />
<glyph unicode="&#xda;" horiz-adv-x="1527" d="M16 1395v45q0 10 3.5 13t15.5 3q16 0 88 -3t192 -3q121 0 193 3t88 3q12 0 15 -3t3 -9v-53q0 -14 -16 -15h-102q-45 0 -70 -24.5t-29 -59.5q0 -6 -1 -34.5t-2 -66.5t-1 -82v-83v-135q0 -41 1 -104.5t3 -129t4 -121t2 -79.5q2 -72 16.5 -139.5t49.5 -120.5 q57 -84 146.5 -116t179.5 -32q88 0 171 28.5t136 84.5q59 66 82.5 156t23.5 204v439q0 117 -3 201.5t-7 123.5q-4 41 -27.5 65.5t-64.5 24.5h-90q-14 0 -15 17v49q0 14 15 14q16 0 81.5 -3t170.5 -3q106 0 158.5 3t66.5 3t17 -5t3 -9v-45q0 -20 -12 -21h-84q-29 0 -45 -9 t-25.5 -22.5t-12.5 -27.5t-5 -23q-2 -8 -3 -58t-1 -109v-110v-63v-40q0 -32 -1 -76.5t-2 -98t-2 -102.5t-2 -89t-3 -61q-10 -127 -48 -224t-124 -171q-61 -57 -155.5 -90t-229.5 -33q-80 0 -153 10.5t-124 32.5q-104 41 -161.5 108.5t-81.5 166.5q-10 35 -16.5 79t-9.5 103 t-5 137t-2 178v488q0 53 -15.5 78.5t-62.5 25.5h-96q-15 1 -15 19zM729 1608q-8 8 4 16l281 231q25 20 43 30.5t41 10.5q33 0 53 -21.5t20 -49.5q0 -23 -14 -44.5t-45 -37.5l-344 -168q-8 -6 -14 0z" />
<glyph unicode="&#xdb;" horiz-adv-x="1527" d="M16 1395v45q0 10 3.5 13t15.5 3q16 0 88 -3t192 -3q121 0 193 3t88 3q12 0 15 -3t3 -9v-53q0 -14 -16 -15h-102q-45 0 -70 -24.5t-29 -59.5q0 -6 -1 -34.5t-2 -66.5t-1 -82v-83v-135q0 -41 1 -104.5t3 -129t4 -121t2 -79.5q2 -72 16.5 -139.5t49.5 -120.5 q57 -84 146.5 -116t179.5 -32q88 0 171 28.5t136 84.5q59 66 82.5 156t23.5 204v439q0 117 -3 201.5t-7 123.5q-4 41 -27.5 65.5t-64.5 24.5h-90q-14 0 -15 17v49q0 14 15 14q16 0 81.5 -3t170.5 -3q106 0 158.5 3t66.5 3t17 -5t3 -9v-45q0 -20 -12 -21h-84q-29 0 -45 -9 t-25.5 -22.5t-12.5 -27.5t-5 -23q-2 -8 -3 -58t-1 -109v-110v-63v-40q0 -32 -1 -76.5t-2 -98t-2 -102.5t-2 -89t-3 -61q-10 -127 -48 -224t-124 -171q-61 -57 -155.5 -90t-229.5 -33q-80 0 -153 10.5t-124 32.5q-104 41 -161.5 108.5t-81.5 166.5q-10 35 -16.5 79t-9.5 103 t-5 137t-2 178v488q0 53 -15.5 78.5t-62.5 25.5h-96q-15 1 -15 19zM518 1597q-4 8 6 19l252 227q8 6 15.5 12.5t11.5 6.5q6 0 13 -6.5t15 -12.5l261 -229q8 -8 2 -17l-15 -18q-6 -8 -18 -2l-262 117l-244 -117q-14 -6 -20 0z" />
<glyph unicode="&#xdc;" horiz-adv-x="1527" d="M16 1395v45q0 10 3.5 13t15.5 3q16 0 88 -3t192 -3q121 0 193 3t88 3q12 0 15 -3t3 -9v-53q0 -14 -16 -15h-102q-45 0 -70 -24.5t-29 -59.5q0 -6 -1 -34.5t-2 -66.5t-1 -82v-83v-135q0 -41 1 -104.5t3 -129t4 -121t2 -79.5q2 -72 16.5 -139.5t49.5 -120.5 q57 -84 146.5 -116t179.5 -32q88 0 171 28.5t136 84.5q59 66 82.5 156t23.5 204v439q0 117 -3 201.5t-7 123.5q-4 41 -27.5 65.5t-64.5 24.5h-90q-14 0 -15 17v49q0 14 15 14q16 0 81.5 -3t170.5 -3q106 0 158.5 3t66.5 3t17 -5t3 -9v-45q0 -20 -12 -21h-84q-29 0 -45 -9 t-25.5 -22.5t-12.5 -27.5t-5 -23q-2 -8 -3 -58t-1 -109v-110v-63v-40q0 -32 -1 -76.5t-2 -98t-2 -102.5t-2 -89t-3 -61q-10 -127 -48 -224t-124 -171q-61 -57 -155.5 -90t-229.5 -33q-80 0 -153 10.5t-124 32.5q-104 41 -161.5 108.5t-81.5 166.5q-10 35 -16.5 79t-9.5 103 t-5 137t-2 178v488q0 53 -15.5 78.5t-62.5 25.5h-96q-15 1 -15 19zM481 1712q0 8 5.5 23.5t17.5 31t32.5 25.5t51.5 10q35 0 62.5 -25.5t27.5 -72.5q0 -41 -27.5 -66.5t-62.5 -25.5q-14 0 -32.5 4t-35 15t-28 30.5t-11.5 50.5zM889 1712q0 8 5 23.5t17.5 31t33 25.5t50.5 10 q35 0 63.5 -25.5t28.5 -72.5q0 -41 -27.5 -66.5t-64.5 -25.5q-14 0 -32.5 4t-35 15t-27.5 30.5t-11 50.5z" />
<glyph unicode="&#xdd;" horiz-adv-x="1361" d="M-31 1391v53q0 12 15 12q14 0 79.5 -3t159.5 -3q80 0 134.5 1t90 2t54 2t26.5 1q14 0 15 -10v-51q0 -18 -15 -19h-67q-47 0 -57.5 -15t-4.5 -52q2 -8 21.5 -47t50.5 -95.5t67.5 -123t71.5 -130t63.5 -117t45.5 -81.5q18 29 53 81t75 113.5t82 127t77.5 119.5t58 92 t25.5 48q2 12 4 26.5t-3.5 27t-20.5 19.5t-48 7h-55q-14 0 -15 19v49q0 12 15 12q16 0 76.5 -3t164.5 -3q92 0 131 3t54 3q16 0 16 -12v-49q0 -18 -16 -19h-52q-23 0 -48 -10t-52 -35q-10 -10 -45 -56t-82 -112.5t-101.5 -144.5t-105.5 -150.5t-92 -131t-59 -87.5v-268 q0 -31 1 -68t2 -71.5t3 -61t2 -35.5q4 -49 26.5 -60t63.5 -11h80q10 0 12 -4t2 -11v-47q0 -10 -2 -14t-12 -4q-18 0 -83 3t-194 3q-70 0 -116.5 -1t-78.5 -2t-49.5 -2t-25.5 -1q-12 0 -12 16v49q0 14 14 15h100q41 0 55.5 14t16.5 37q0 10 1 45t2 85t2 114.5t1 136.5v119 q-6 12 -36.5 65t-72.5 125t-91.5 154t-94.5 155.5t-80.5 129t-50.5 73.5q-20 23 -51 36t-55 13h-51q-15 1 -15 15zM696 1608q-8 8 4 16l281 231q25 20 43 30.5t41 10.5q33 0 53.5 -21.5t20.5 -49.5q0 -23 -14.5 -44.5t-45.5 -37.5l-344 -168q-8 -6 -14 0z" />
<glyph unicode="&#xde;" horiz-adv-x="1243" d="M63 1393v49q0 14 13 14q8 0 26.5 -1t52 -2t87 -2t133.5 -1q135 0 200.5 3t88.5 3q16 0 16 -16v-41q0 -23 -21 -23h-122q-37 0 -52.5 -6t-17.5 -24q-4 -29 -5 -73t-1 -116q41 2 73.5 3t57.5 1q82 0 146.5 -4t116.5 -15.5t96 -30.5t87 -50q72 -53 109 -130t37 -159 q0 -92 -35 -168t-100.5 -128t-157.5 -80.5t-207 -28.5q-57 0 -115.5 2t-107.5 8v-68v-41q0 -25 1 -50t2 -46.5t1 -32.5q6 -66 72 -65h127q16 0 16 -15v-49q0 -8 -3 -12t-15 -4q-10 0 -30 1t-51.5 2t-81.5 2t-122 1q-74 0 -124 -1t-83 -2t-50.5 -2t-25.5 -1q-16 0 -16 14v51 q0 14 12 15h94q47 0 63.5 12t20.5 53q0 8 2 65.5t3 141.5t2 182.5t1 188.5v235v114q0 62 -1 118.5t-2 97.5t-1 49q-2 25 -21.5 35t-66.5 10h-106q-15 1 -15 17zM461 453q31 -10 80 -15.5t108 -5.5q68 0 126.5 24.5t102.5 67.5t68.5 103.5t24.5 134.5q0 98 -41 162.5 t-97.5 102.5t-116 53.5t-95.5 15.5q-35 0 -82 -2t-78 -11v-630z" />
<glyph unicode="&#xdf;" horiz-adv-x="1132" d="M51 8v45q0 14 21 15h96q31 0 40 16t11 57v383v203l-121 6q-12 2 -12 17v38q0 12 16 15l117 10v76q0 154 38 255t103 173q74 80 158 122t152 42q43 0 86 -15.5t77.5 -45t56 -71.5t21.5 -96q0 -86 -32.5 -157.5t-87.5 -134.5q-45 -51 -77 -101.5t-32 -116.5 q0 -35 16.5 -60.5t45 -46t66.5 -39.5t79 -42q45 -25 82 -52.5t61.5 -62t37.5 -81t13 -107.5q0 -55 -22.5 -105.5t-62.5 -88.5t-96 -60.5t-128 -22.5q-23 0 -48.5 7.5t-49 16.5t-43 19.5t-27.5 16.5t-9 13t-3 15l-16 130q-2 20 8 22l37 8q8 2 16 -14l25 -57q25 -47 59.5 -79 t91.5 -32q23 0 49.5 8t49 25.5t38 45t15.5 66.5q0 68 -32 128.5t-118 103.5q-49 25 -94 50.5t-80 57t-56.5 71.5t-21.5 93q0 49 17.5 92t42 81t50 70t42.5 56q29 43 43 95.5t14 123.5q0 33 -13 65t-37 54.5t-54.5 36.5t-67.5 14q-90 0 -158 -69q-33 -35 -49 -85t-22 -105.5 t-6 -113.5v-110v-322v-169v-139q0 -60 1 -99t1 -49q2 -27 10 -38t35 -11h65q23 0 23 -17v-33q0 -25 -15 -24q-4 0 -23.5 1t-46 2t-57 2t-59.5 1t-66.5 -1t-72.5 -2t-61.5 -2t-32.5 -1q-17 0 -17 14z" />
<glyph unicode="&#xe0;" horiz-adv-x="874" d="M88 614q0 49 39 102.5t102 90.5q66 39 123.5 55.5t126.5 16.5q72 0 107 -17.5t57 -38.5q33 -33 39 -68.5t6 -76.5v-313v-121q0 -88 16.5 -121t45.5 -33q25 0 44 10.5t27 20.5q12 14 21 8l20 -16q4 -4 6 -12.5t-8 -24.5q-6 -12 -17.5 -28.5t-29.5 -33t-46 -28t-67 -11.5 q-55 0 -93 37t-52 101h-4q-68 -80 -203 -125q-29 -10 -57.5 -11.5t-63.5 -1.5q-18 0 -39.5 8.5t-40 29t-31 52t-12.5 80.5q0 70 42 132.5t163 115.5q70 31 138.5 63.5t93.5 55.5v131q-4 27 -8.5 60.5t-20.5 54.5q-16 20 -47 32.5t-76 12.5q-31 0 -70.5 -11.5t-62.5 -31.5 t-16.5 -43t6.5 -51q0 -53 -22.5 -85t-86.5 -32q-49 -1 -49 65zM210 1275.5q7 20.5 25.5 34t40.5 13.5q31 0 50.5 -17.5t33.5 -33.5l197 -244q4 -8 -2 -10l-25 -23q-6 -6 -12 0l-270 193q-29 20 -37 43.5t-1 44zM264 184q0 -57 30 -84.5t77 -27.5q23 0 51.5 12t55 30.5t44 41 t17.5 43.5v252q-29 -20 -75 -41t-90 -49.5t-77 -71t-33 -105.5z" />
<glyph unicode="&#xe1;" horiz-adv-x="874" d="M88 614q0 49 39 102.5t102 90.5q66 39 123.5 55.5t126.5 16.5q72 0 107 -17.5t57 -38.5q33 -33 39 -68.5t6 -76.5v-313v-121q0 -88 16.5 -121t45.5 -33q25 0 44 10.5t27 20.5q12 14 21 8l20 -16q4 -4 6 -12.5t-8 -24.5q-6 -12 -17.5 -28.5t-29.5 -33t-46 -28t-67 -11.5 q-55 0 -93 37t-52 101h-4q-68 -80 -203 -125q-29 -10 -57.5 -11.5t-63.5 -1.5q-18 0 -39.5 8.5t-40 29t-31 52t-12.5 80.5q0 70 42 132.5t163 115.5q70 31 138.5 63.5t93.5 55.5v131q-4 27 -8.5 60.5t-20.5 54.5q-16 20 -47 32.5t-76 12.5q-31 0 -70.5 -11.5t-62.5 -31.5 t-16.5 -43t6.5 -51q0 -53 -22.5 -85t-86.5 -32q-49 -1 -49 65zM264 184q0 -57 30 -84.5t77 -27.5q23 0 51.5 12t55 30.5t44 41t17.5 43.5v252q-29 -20 -75 -41t-90 -49.5t-77 -71t-33 -105.5zM326 1016q-6 6 0 12l196 244q16 20 37 35.5t49 15.5q20 0 38 -13.5t24 -33 t-1 -44t-38 -44.5l-269 -193q-6 -6 -12 0z" />
<glyph unicode="&#xe2;" horiz-adv-x="874" d="M88 614q0 49 39 102.5t102 90.5q66 39 123.5 55.5t126.5 16.5q72 0 107 -17.5t57 -38.5q33 -33 39 -68.5t6 -76.5v-313v-121q0 -88 16.5 -121t45.5 -33q25 0 44 10.5t27 20.5q12 14 21 8l20 -16q4 -4 6 -12.5t-8 -24.5q-6 -12 -17.5 -28.5t-29.5 -33t-46 -28t-67 -11.5 q-55 0 -93 37t-52 101h-4q-68 -80 -203 -125q-29 -10 -57.5 -11.5t-63.5 -1.5q-18 0 -39.5 8.5t-40 29t-31 52t-12.5 80.5q0 70 42 132.5t163 115.5q70 31 138.5 63.5t93.5 55.5v131q-4 27 -8.5 60.5t-20.5 54.5q-16 20 -47 32.5t-76 12.5q-31 0 -70.5 -11.5t-62.5 -31.5 t-16.5 -43t6.5 -51q0 -53 -22.5 -85t-86.5 -32q-49 -1 -49 65zM178 1018q-8 6 6 20l215 269l13 12q6 6 12 6t13 -6t14 -14l225 -269q10 -10 4 -16l-16 -19q-6 -10 -19 -2l-223 158l-207 -156q-12 -8 -18 -2zM264 184q0 -57 30 -84.5t77 -27.5q23 0 51.5 12t55 30.5t44 41 t17.5 43.5v252q-29 -20 -75 -41t-90 -49.5t-77 -71t-33 -105.5z" />
<glyph unicode="&#xe3;" horiz-adv-x="874" d="M88 614q0 49 39 102.5t102 90.5q66 39 123.5 55.5t126.5 16.5q72 0 107 -17.5t57 -38.5q33 -33 39 -68.5t6 -76.5v-313v-121q0 -88 16.5 -121t45.5 -33q25 0 44 10.5t27 20.5q12 14 21 8l20 -16q4 -4 6 -12.5t-8 -24.5q-6 -12 -17.5 -28.5t-29.5 -33t-46 -28t-67 -11.5 q-55 0 -93 37t-52 101h-4q-68 -80 -203 -125q-29 -10 -57.5 -11.5t-63.5 -1.5q-18 0 -39.5 8.5t-40 29t-31 52t-12.5 80.5q0 70 42 132.5t163 115.5q70 31 138.5 63.5t93.5 55.5v131q-4 27 -8.5 60.5t-20.5 54.5q-16 20 -47 32.5t-76 12.5q-31 0 -70.5 -11.5t-62.5 -31.5 t-16.5 -43t6.5 -51q0 -53 -22.5 -85t-86.5 -32q-49 -1 -49 65zM141 1047q14 82 58.5 126t99.5 44q47 0 85 -10.5t67 -20.5q39 -12 70.5 -20.5t68.5 -8.5q35 0 48 22.5t19 51.5q2 12 15 12h35q6 0 8 -7t-2 -30q-12 -59 -51 -107t-107 -48q-43 0 -80 12t-69 22q-66 23 -127 23 q-25 0 -48.5 -21.5t-31.5 -64.5q-2 -10 -15 -10h-37q-14 0 -6 35zM264 184q0 -57 30 -84.5t77 -27.5q23 0 51.5 12t55 30.5t44 41t17.5 43.5v252q-29 -20 -75 -41t-90 -49.5t-77 -71t-33 -105.5z" />
<glyph unicode="&#xe4;" horiz-adv-x="874" d="M88 614q0 49 39 102.5t102 90.5q66 39 123.5 55.5t126.5 16.5q72 0 107 -17.5t57 -38.5q33 -33 39 -68.5t6 -76.5v-434q0 -88 16.5 -121t45.5 -33q25 0 44 10.5t27 20.5q12 14 21 8l20 -16q4 -4 6 -12.5t-8 -24.5q-6 -12 -17.5 -28.5t-29.5 -33t-46 -28t-67 -11.5 q-55 0 -93 37t-52 101h-4q-68 -80 -203 -125q-29 -10 -57.5 -11.5t-63.5 -1.5q-18 0 -39.5 8.5t-40 29t-31 52t-12.5 80.5q0 70 42 132.5t163 115.5q70 31 138.5 63.5t93.5 55.5v131q-4 27 -8.5 60.5t-20.5 54.5q-16 20 -47 32.5t-76 12.5q-31 0 -70.5 -11.5t-62.5 -31.5 t-16.5 -43t6.5 -51q0 -53 -22.5 -85t-86.5 -32q-49 -1 -49 65zM166 1212q0 10 5 25.5t16.5 31t32 26t50.5 10.5q35 0 63.5 -27t28.5 -74q0 -41 -27.5 -65.5t-64.5 -24.5q-14 0 -31.5 4t-34 15.5t-27.5 30.5t-11 48zM264 184q0 -57 30 -84.5t77 -27.5q23 0 51.5 12t55 30.5 t44 41t17.5 43.5v252q-29 -20 -75 -41t-90 -49.5t-77 -71t-33 -105.5zM512 1212q0 10 5 25.5t17.5 31t33 26t50.5 10.5q35 0 63 -27t28 -74q0 -41 -28 -65.5t-63 -24.5q-14 0 -32.5 4t-34.5 15.5t-27.5 30.5t-11.5 48z" />
<glyph unicode="&#xe5;" horiz-adv-x="874" d="M88 614q0 49 39 102.5t102 90.5q66 39 123.5 55.5t126.5 16.5q72 0 107 -17.5t57 -38.5q33 -33 39 -68.5t6 -76.5v-313v-121q0 -88 16.5 -121t45.5 -33q25 0 44 10.5t27 20.5q12 14 21 8l20 -16q4 -4 6 -12.5t-8 -24.5q-6 -12 -17.5 -28.5t-29.5 -33t-46 -28t-67 -11.5 q-55 0 -93 37t-52 101h-4q-68 -80 -203 -125q-29 -10 -57.5 -11.5t-63.5 -1.5q-18 0 -39.5 8.5t-40 29t-31 52t-12.5 80.5q0 70 42 132.5t163 115.5q70 31 138.5 63.5t93.5 55.5v131q-4 27 -8.5 60.5t-20.5 54.5q-16 20 -47 32.5t-76 12.5q-31 0 -70.5 -11.5t-62.5 -31.5 t-16.5 -43t6.5 -51q0 -53 -22.5 -85t-86.5 -32q-49 -1 -49 65zM229 1149q0 66 54.5 110t146.5 44q88 0 135 -40t47 -94q0 -72 -53 -113.5t-147 -41.5q-88 0 -135.5 40t-47.5 95zM264 184q0 -57 30 -84.5t77 -27.5q23 0 51.5 12t55 30.5t44 41t17.5 43.5v252q-29 -20 -75 -41 t-90 -49.5t-77 -71t-33 -105.5zM330 1155q0 -41 24.5 -66.5t65.5 -25.5t66.5 24.5t25.5 73.5q0 41 -24.5 65.5t-59.5 24.5q-43 0 -70.5 -27.5t-27.5 -68.5z" />
<glyph unicode="&#xe6;" horiz-adv-x="1300" d="M88 604q0 18 4 42t19.5 49.5t43 54t76.5 59.5q55 35 115 52.5t119 17.5q76 0 109.5 -18.5t50.5 -33.5q12 -12 21 -29.5t16 -45.5q72 80 136 103.5t136 23.5q88 0 145.5 -35t91 -82t47 -97.5t13.5 -80.5q0 -25 -12.5 -34t-38.5 -11l-490 -43q-4 -16 -4 -32v-38 q0 -55 16.5 -113.5t48 -106.5t82 -79t117.5 -31q51 0 90 12.5t69 31t48.5 40t30.5 39.5t17 22.5t14 0.5l22 -13q10 -6 0 -30q-20 -47 -53 -87t-75 -71t-91 -48.5t-102 -17.5q-84 0 -165 37t-155 129h-8q-59 -74 -112.5 -106.5t-106.5 -46.5q-31 -8 -60.5 -10.5t-74.5 -2.5 q-53 0 -93.5 47.5t-40.5 133.5q0 31 9.5 60.5t32 60t63.5 60.5t104 60q59 29 125 57.5t105 49.5v133q0 29 -6.5 61.5t-28.5 61.5q-10 14 -42 28.5t-77 14.5q-31 0 -70.5 -12.5t-62.5 -28.5q-12 -12 -16 -24.5t-2 -27t5 -27.5t3 -28q0 -53 -23.5 -79.5t-77.5 -26.5 q-57 0 -57 55zM264 193q0 -66 27.5 -93.5t75.5 -27.5q45 0 104 36.5t100 102.5q-16 45 -23 103.5t-7 123.5q-31 -16 -78 -35.5t-91 -48t-76 -67.5t-32 -94zM698 555l291 35q45 6 57.5 25.5t12.5 35.5q0 23 -8.5 51.5t-26.5 54t-48 43t-73 17.5q-29 0 -59.5 -12t-58 -43 t-50.5 -81t-37 -126z" />
<glyph unicode="&#xe7;" horiz-adv-x="854" d="M72 397q0 90 30.5 176t87 154t137.5 110t183 42q80 0 133 -19.5t86 -47.5t46 -55.5t13 -43.5q-2 -35 -22.5 -53.5t-52.5 -18.5q-68 0 -113 82q-35 63 -67.5 76.5t-69.5 13.5q-43 0 -87 -19.5t-78 -59.5t-55.5 -99.5t-21.5 -138.5q0 -84 32 -169t73 -143q51 -66 110.5 -85 t112.5 -19q78 0 125 19.5t100 68.5q8 8 17 0l20 -21q12 -12 0 -26q-37 -41 -103.5 -81t-148.5 -56l-98 -123q47 -14 87 -53t40 -87q0 -49 -31 -86.5t-77 -63.5t-101 -40t-105 -14q-25 0 -33 12t-8 29q0 18 19.5 23t46.5 5q25 0 53.5 7.5t53 21.5t42 35.5t17.5 50.5 q0 80 -135 104l133 172q-78 0 -155 29t-144 113q-57 76 -74.5 142t-17.5 136z" />
<glyph unicode="&#xe8;" horiz-adv-x="872" d="M76 444q0 31 5 70t18.5 82t39 88t66.5 86q66 68 140.5 88.5t152.5 20.5q88 0 146 -36t92 -85t48.5 -99.5t14.5 -80.5q0 -23 -16.5 -28t-41.5 -5h-505q-6 -29 -7 -99q0 -76 22.5 -140t61.5 -111.5t92.5 -74t114.5 -26.5q94 0 157.5 44t90.5 95q6 14 18 11l27 -15 q4 -2 6 -8t-6 -22q-14 -31 -41 -70t-67.5 -72.5t-95 -57.5t-122.5 -24q-88 0 -176 31t-145 115q-27 39 -44.5 74.5t-27.5 72.5t-14 80t-4 96zM244 606h317q55 0 55 29q0 18 -6 49t-22.5 60.5t-48 51t-80.5 21.5q-68 0 -127 -48t-88 -163zM249 1275.5q7 20.5 25.5 34 t40.5 13.5q31 0 50.5 -17.5t33.5 -33.5l197 -244q4 -8 -2 -10l-25 -23q-6 -6 -12 0l-270 193q-29 20 -37 43.5t-1 44z" />
<glyph unicode="&#xe9;" horiz-adv-x="872" d="M76 444q0 31 5 70t18.5 82t39 88t66.5 86q66 68 140.5 88.5t152.5 20.5q88 0 146 -36t92 -85t48.5 -99.5t14.5 -80.5q0 -23 -16.5 -28t-41.5 -5h-505q-6 -29 -7 -99q0 -76 22.5 -140t61.5 -111.5t92.5 -74t114.5 -26.5q94 0 157.5 44t90.5 95q6 14 18 11l27 -15 q4 -2 6 -8t-6 -22q-14 -31 -41 -70t-67.5 -72.5t-95 -57.5t-122.5 -24q-88 0 -176 31t-145 115q-27 39 -44.5 74.5t-27.5 72.5t-14 80t-4 96zM244 606h317q55 0 55 29q0 18 -6 49t-22.5 60.5t-48 51t-80.5 21.5q-68 0 -127 -48t-88 -163zM365 1016q-6 6 0 12l196 244 q16 20 36.5 35.5t49.5 15.5q20 0 37.5 -13.5t24 -33t-1 -44t-37.5 -44.5l-269 -193q-6 -6 -12 0z" />
<glyph unicode="&#xea;" horiz-adv-x="872" d="M76 444q0 31 5 70t18.5 82t39 88t66.5 86q66 68 140.5 88.5t152.5 20.5q88 0 146 -36t92 -85t48.5 -99.5t14.5 -80.5q0 -23 -16.5 -28t-41.5 -5h-505q-6 -29 -7 -99q0 -76 22.5 -140t61.5 -111.5t92.5 -74t114.5 -26.5q94 0 157.5 44t90.5 95q6 14 18 11l27 -15 q4 -2 6 -8t-6 -22q-14 -31 -41 -70t-67.5 -72.5t-95 -57.5t-122.5 -24q-88 0 -176 31t-145 115q-27 39 -44.5 74.5t-27.5 72.5t-14 80t-4 96zM227 1018q-8 6 6 20l216 269l12 12q6 6 12 6t13.5 -6t13.5 -14l225 -269q10 -10 4 -16l-16 -19q-6 -10 -19 -2l-223 158l-207 -156 q-12 -8 -18 -2zM244 606h317q55 0 55 29q0 18 -6 49t-22.5 60.5t-48 51t-80.5 21.5q-68 0 -127 -48t-88 -163z" />
<glyph unicode="&#xeb;" horiz-adv-x="872" d="M76 444q0 31 5 70t18.5 82t39 88t66.5 86q66 68 140.5 88.5t152.5 20.5q88 0 146 -36t92 -85t48.5 -99.5t14.5 -80.5q0 -23 -16.5 -28t-41.5 -5h-505q-6 -29 -7 -99q0 -76 22.5 -140t61.5 -111.5t92.5 -74t114.5 -26.5q94 0 157.5 44t90.5 95q6 14 18 11l27 -15 q4 -2 6 -8t-6 -22q-14 -31 -41 -70t-67.5 -72.5t-95 -57.5t-122.5 -24q-88 0 -176 31t-145 115q-27 39 -44.5 74.5t-27.5 72.5t-14 80t-4 96zM207 1212q0 10 5 25.5t16.5 31t32 26t50.5 10.5q35 0 63.5 -27t28.5 -74q0 -41 -27.5 -65.5t-64.5 -24.5q-14 0 -31.5 4t-34 15.5 t-27.5 30.5t-11 48zM244 606h317q55 0 55 29q0 18 -6 49t-22.5 60.5t-48 51t-80.5 21.5q-68 0 -127 -48t-88 -163zM553 1212q0 10 5 25.5t17.5 31t33 26t50.5 10.5q35 0 63 -27t28 -74q0 -41 -28 -65.5t-63 -24.5q-14 0 -32.5 4t-35 15.5t-27.5 30.5t-11 48z" />
<glyph unicode="&#xec;" horiz-adv-x="546" d="M53 10v41q0 16 21 17h100q16 0 23.5 8t9.5 33q2 47 2 93v93v301q0 51 -19.5 81t-95.5 42q-18 2 -18 14v19q0 8 14 14q49 18 105.5 43t115.5 57q25 12 39 13q14 0 10 -25q-4 -27 -4 -116v-218v-223v-110q0 -50 2 -66q4 -29 10.5 -41t22.5 -12h94q20 0 21 -19v-35 q0 -20 -19 -20q-6 0 -25.5 1t-47 2t-59 2t-64.5 1q-90 0 -147.5 -3t-73.5 -3q-17 0 -17 16zM56 1275.5q7 20.5 25.5 34t41.5 13.5q31 0 50.5 -17.5t33.5 -33.5l196 -244q4 -8 -2 -10l-24 -23q-6 -6 -12 0l-271 193q-29 20 -37 43.5t-1 44z" />
<glyph unicode="&#xed;" horiz-adv-x="546" d="M53 10v41q0 16 21 17h100q16 0 23.5 8t9.5 33q2 47 2 93v93v301q0 51 -19.5 81t-95.5 42q-18 2 -18 14v19q0 8 14 14q49 18 105.5 43t115.5 57q25 12 39 13q14 0 10 -25q-4 -27 -4 -116v-218v-223v-110q0 -50 2 -66q4 -29 10.5 -41t22.5 -12h94q20 0 21 -19v-35 q0 -20 -19 -20q-6 0 -25.5 1t-47 2t-59 2t-64.5 1q-90 0 -147.5 -3t-73.5 -3q-17 0 -17 16zM182 1016q-6 6 0 12l197 244q16 20 36.5 35.5t49.5 15.5q20 0 37.5 -13.5t23.5 -33t-1 -44t-38 -44.5l-268 -193q-6 -6 -12 0z" />
<glyph unicode="&#xee;" horiz-adv-x="546" d="M33 1018q-8 6 6 20l215 269l12 12q6 6 13 6q6 0 13 -6t13 -14l225 -269q10 -10 5 -16l-17 -19q-6 -10 -18 -2l-224 158l-206 -156q-12 -8 -19 -2zM53 10v41q0 16 21 17h100q16 0 23.5 8t9.5 33q2 47 2 93v93v301q0 51 -19.5 81t-95.5 42q-18 2 -18 14v19q0 8 14 14 q49 18 105.5 43t115.5 57q25 12 39 13q14 0 10 -25q-4 -27 -4 -116v-218v-223v-110q0 -50 2 -66q4 -29 10.5 -41t22.5 -12h94q20 0 21 -19v-35q0 -20 -19 -20q-6 0 -25.5 1t-47 2t-59 2t-64.5 1q-90 0 -147.5 -3t-73.5 -3q-17 0 -17 16z" />
<glyph unicode="&#xef;" horiz-adv-x="546" d="M2 1212q0 10 5 25.5t16.5 31t32 26t50.5 10.5q35 0 64 -27t29 -74q0 -41 -28 -65.5t-65 -24.5q-14 0 -31.5 4t-33.5 15.5t-27.5 30.5t-11.5 48zM53 10v41q0 16 21 17h100q16 0 23.5 8t9.5 33q2 47 2 93v93v301q0 51 -19.5 81t-95.5 42q-18 2 -18 14v19q0 8 14 14 q49 18 105.5 43t115.5 57q25 12 39 13q14 0 10 -25q-4 -27 -4 -116v-218v-223v-110q0 -50 2 -66q4 -29 10.5 -41t22.5 -12h94q20 0 21 -19v-35q0 -20 -19 -20q-6 0 -25.5 1t-47 2t-59 2t-64.5 1q-90 0 -147.5 -3t-73.5 -3q-17 0 -17 16zM348 1212q0 10 5 25.5t17.5 31t33 26 t51.5 10.5q35 0 62.5 -27t27.5 -74q0 -41 -28 -65.5t-62 -24.5q-14 0 -33 4t-35 15.5t-27.5 30.5t-11.5 48z" />
<glyph unicode="&#xf0;" horiz-adv-x="999" d="M76 406q0 41 9 90t30.5 98t54.5 97t82 85q68 53 132.5 78t141.5 25q41 0 87 -13.5t94 -50.5l4 4q-27 94 -61 166t-85 135q-23 37 -67 84l-242 -141q-12 -6 -23 6l-28 47q-6 12 6 21l223 123q-41 39 -92 74.5t-111 60.5q-23 10 -27.5 13t-4.5 9q0 8 6 19l18 37q2 8 10 8 q10 0 17 -2q66 -25 133.5 -62t153.5 -96l219 125q16 8 24 -2l27 -47q8 -16 -6 -25l-199 -108q20 -16 53 -53t68 -85q78 -104 123 -247.5t51 -311.5q4 -109 -18.5 -214t-75.5 -189t-138 -136.5t-208 -52.5q-53 0 -112.5 11.5t-117.5 56.5q-76 57 -113.5 140.5t-37.5 222.5z M229 422q0 -70 20.5 -143.5t49.5 -126.5q35 -57 85 -86t91 -29q78 0 129 41t81 105.5t42 146.5t12 164q0 106 -19.5 169.5t-50 97.5t-69.5 45t-78 11q-47 0 -94 -16.5t-94 -59.5q-49 -47 -77 -135t-28 -184z" />
<glyph unicode="&#xf1;" horiz-adv-x="1089" d="M80 12v37q0 18 20 19h60q20 0 30.5 7t10.5 34v479q0 47 -22.5 74.5t-61.5 46.5l-17 8q-10 4 -13 9t-3 9v10q0 12 18 21l177 98q29 14 36 15q12 0 17 -25l14 -125h4q23 27 54.5 54.5t69.5 48t78 34t79 13.5q47 0 92 -10.5t82 -34.5q23 -16 43 -41t35.5 -52.5t25 -55.5 t9.5 -46v-528q0 -25 12 -34t33 -9h65q23 0 23 -19v-33q0 -23 -17 -22q-10 0 -58 3t-136 3q-78 0 -126 -3t-59 -3q-16 0 -16 22v33q0 18 27 19h59q16 0 27.5 9t13.5 38q2 41 3 86t1 86v270q0 61 -7 106.5t-52 77.5q-37 29 -74 33t-76 4q-25 0 -72 -15t-94 -65 q-31 -35 -39 -72.5t-8 -66.5v-424q0 -41 8.5 -54t40.5 -13h52q20 0 20 -21v-35q0 -18 -14 -18q-10 0 -53.5 3t-125.5 3q-78 0 -125 -3t-57 -3q-14 0 -14 18zM260 1047q14 82 58 126t100 44q47 0 85 -10.5t66 -20.5q39 -12 71 -20.5t69 -8.5q35 0 48 22.5t19 51.5q2 12 15 12 h34q6 0 8.5 -7t-2.5 -30q-12 -59 -51 -107t-106 -48q-43 0 -80 12t-70 22q-66 23 -127 23q-25 0 -48 -21.5t-32 -64.5q-2 -10 -14 -10h-37q-14 0 -6 35z" />
<glyph unicode="&#xf2;" horiz-adv-x="1019" d="M72 451q0 78 42 168t134 161q80 61 151.5 80t122.5 19q86 0 163 -36t124 -83q70 -72 104.5 -153t34.5 -181q0 -84 -34.5 -165t-96 -144.5t-144.5 -102.5t-177 -39q-74 0 -160 32t-152 110q-35 43 -57.5 79.5t-34.5 74.5t-16 81.5t-4 98.5zM240 430q0 -86 14 -150.5 t63 -136.5q35 -51 83.5 -78.5t119.5 -27.5q57 0 105.5 32.5t81 89t51 131.5t18.5 156q0 86 -27.5 155t-68.5 117t-88 73.5t-86 25.5q-41 0 -81 -12t-77 -53q-59 -61 -83.5 -133t-24.5 -189zM281.5 1275.5q7.5 20.5 26 34t40.5 13.5q31 0 50.5 -17.5t33.5 -33.5l197 -244 q4 -8 -2 -10l-25 -23q-6 -6 -12 0l-271 193q-29 20 -37 43.5t-0.5 44z" />
<glyph unicode="&#xf3;" horiz-adv-x="1019" d="M72 451q0 78 42 168t134 161q80 61 151.5 80t122.5 19q86 0 163 -36t124 -83q70 -72 104.5 -153t34.5 -181q0 -84 -34.5 -165t-96 -144.5t-144.5 -102.5t-177 -39q-74 0 -160 32t-152 110q-35 43 -57.5 79.5t-34.5 74.5t-16 81.5t-4 98.5zM240 430q0 -86 14 -150.5 t63 -136.5q35 -51 83.5 -78.5t119.5 -27.5q57 0 105.5 32.5t81 89t51 131.5t18.5 156q0 86 -27.5 155t-68.5 117t-88 73.5t-86 25.5q-41 0 -81 -12t-77 -53q-59 -61 -83.5 -133t-24.5 -189zM438 1016q-6 6 0 12l197 244q16 20 36.5 35.5t49.5 15.5q20 0 37.5 -13.5t23.5 -33 t-1 -44t-38 -44.5l-268 -193q-6 -6 -12 0z" />
<glyph unicode="&#xf4;" horiz-adv-x="1019" d="M72 451q0 78 42 168t134 161q80 61 151.5 80t122.5 19q86 0 163 -36t124 -83q70 -72 104.5 -153t34.5 -181q0 -84 -34.5 -165t-96 -144.5t-144.5 -102.5t-177 -39q-74 0 -160 32t-152 110q-35 43 -57.5 79.5t-34.5 74.5t-16 81.5t-4 98.5zM240 430q0 -86 14 -150.5 t63 -136.5q35 -51 83.5 -78.5t119.5 -27.5q57 0 105.5 32.5t81 89t51 131.5t18.5 156q0 86 -27.5 155t-68.5 117t-88 73.5t-86 25.5q-41 0 -81 -12t-77 -53q-59 -61 -83.5 -133t-24.5 -189zM260 1018q-8 6 6 20l215 269l13 12q6 6 12 6t13 -6t13 -14l226 -269q10 -10 4 -16 l-17 -19q-6 -10 -18 -2l-223 158l-207 -156q-12 -8 -18 -2z" />
<glyph unicode="&#xf5;" horiz-adv-x="1019" d="M72 451q0 78 42 168t134 161q80 61 151.5 80t122.5 19q86 0 163 -36t124 -83q70 -72 104.5 -153t34.5 -181q0 -84 -34.5 -165t-96 -144.5t-144.5 -102.5t-177 -39q-74 0 -160 32t-152 110q-35 43 -57.5 79.5t-34.5 74.5t-16 81.5t-4 98.5zM225 1047q14 82 58.5 126 t99.5 44q47 0 85 -10.5t67 -20.5q39 -12 70.5 -20.5t68.5 -8.5q35 0 48 22.5t19 51.5q2 12 15 12h35q6 0 8 -7t-2 -30q-12 -59 -51 -107t-107 -48q-43 0 -80 12t-70 22q-66 23 -127 23q-25 0 -48 -21.5t-31 -64.5q-2 -10 -15 -10h-37q-14 0 -6 35zM240 430q0 -86 14 -150.5 t63 -136.5q35 -51 83.5 -78.5t119.5 -27.5q57 0 105.5 32.5t81 89t51 131.5t18.5 156q0 86 -27.5 155t-68.5 117t-88 73.5t-86 25.5q-41 0 -81 -12t-77 -53q-59 -61 -83.5 -133t-24.5 -189z" />
<glyph unicode="&#xf6;" horiz-adv-x="1019" d="M72 451q0 78 42 168t134 161q80 61 151.5 80t122.5 19q86 0 163 -36t124 -83q70 -72 104.5 -153t34.5 -181q0 -84 -34.5 -165t-96 -144.5t-144.5 -102.5t-177 -39q-74 0 -160 32t-152 110q-35 43 -57.5 79.5t-34.5 74.5t-16 81.5t-4 98.5zM240 430q0 -86 14 -150.5 t63 -136.5q35 -51 83.5 -78.5t119.5 -27.5q57 0 105.5 32.5t81 89t51 131.5t18.5 156q0 86 -27.5 155t-68.5 117t-88 73.5t-86 25.5q-41 0 -81 -12t-77 -53q-59 -61 -83.5 -133t-24.5 -189zM240 1212q0 10 5 25.5t16 31t31.5 26t51.5 10.5q35 0 63.5 -27t28.5 -74 q0 -41 -27.5 -65.5t-64.5 -24.5q-14 0 -31.5 4t-34 15.5t-27.5 30.5t-11 48zM586 1212q0 10 5 25.5t17.5 31t33 26t50.5 10.5q35 0 62.5 -27t27.5 -74q0 -41 -27.5 -65.5t-62.5 -24.5q-14 0 -32.5 4t-35 15.5t-27.5 30.5t-11 48z" />
<glyph unicode="&#xf7;" d="M115 434v115h794v-115h-794zM399 174q0 47 33 76t82 29q47 0 80 -29t33 -76q0 -45 -33 -75.5t-80 -30.5q-49 0 -82 30.5t-33 75.5zM399 811q0 47 33 75.5t82 28.5q47 0 80 -28.5t33 -75.5q0 -45 -33 -75.5t-80 -30.5q-49 0 -82 30.5t-33 75.5z" />
<glyph unicode="&#xf8;" horiz-adv-x="1019" d="M72 451q0 78 43 168t135 157q82 66 154.5 84.5t117.5 18.5q76 0 143.5 -29t108.5 -70l96 90q8 8 13 9q4 0 8 -5l39 -34q6 -6 6 -11q0 -4 -4 -8l-98 -98q115 -123 114 -297q0 -84 -34.5 -165t-96 -144.5t-144.5 -102.5t-179 -39q-55 0 -133 24t-140 77l-84 -90 q-10 -10 -14 -11q-6 0 -12 7l-27 28q-10 10 -10 17q0 6 18 24l78 82q-31 39 -50.5 75t-29.5 72.5t-14 78t-4 92.5zM240 430q0 -59 6 -105t22 -92l430 459q-43 59 -96 92t-96 33q-35 0 -76 -12t-82 -53q-59 -61 -83.5 -133t-24.5 -189zM303 160l10 -19q35 -49 87.5 -76.5 t119.5 -27.5q59 0 107.5 32.5t81 89t50 131.5t17.5 156q0 49 -10 93.5t-27 81.5z" />
<glyph unicode="&#xf9;" horiz-adv-x="1036" d="M31 801v37q0 16 22 16h183q10 0 16 1t12 3q6 0 12.5 1t10.5 1q27 0 22 -24q-2 -14 -5 -79t-3 -157v-145q0 -31 -2 -70t0 -80t12.5 -82t34.5 -76q39 -55 81 -66t83 -11q20 0 45 9t49.5 23.5t46 33t35.5 36.5q6 8 13.5 24.5t7.5 30.5v488q-4 43 -27 55t-62 16 q-27 0 -36 3.5t-9 11.5v35q0 12 4.5 15t20.5 3h190q10 0 18.5 1t16.5 3q8 0 14.5 1t10.5 1q23 0 18 -20q0 -6 -2 -21.5t-4 -46.5t-4 -80t-2 -125v-151v-142q0 -68 4 -100q4 -47 19.5 -59.5t33.5 -12.5q10 0 30 1t38 6q20 6 25 -9l6 -26q2 -14 -11 -19l-215 -71 q-10 -4 -19 -6.5t-22 -2.5q-6 0 -11 4.5t-7 20.5l-16 119h-4q-23 -31 -55 -56.5t-68.5 -45t-76.5 -31t-79 -11.5q-43 0 -92 14.5t-101 80.5q-31 41 -47 76.5t-23 79.5t-8 102.5t-1 142.5v238q-2 43 -22.5 58t-55.5 19q-27 2 -36 4.5t-9 10.5zM230.5 1275.5q7.5 20.5 25.5 34 t41 13.5q31 0 50.5 -17.5t33.5 -33.5l197 -244q4 -8 -3 -10l-24 -23q-6 -6 -12 0l-271 193q-29 20 -37 43.5t-0.5 44z" />
<glyph unicode="&#xfa;" horiz-adv-x="1036" d="M31 801v37q0 16 22 16h183q10 0 16 1t12 3q6 0 12.5 1t10.5 1q27 0 22 -24q-2 -14 -5 -79t-3 -157v-145q0 -31 -2 -70t0 -80t12.5 -82t34.5 -76q39 -55 81 -66t83 -11q20 0 45 9t49.5 23.5t46 33t35.5 36.5q6 8 13.5 24.5t7.5 30.5v488q-4 43 -27 55t-62 16 q-27 0 -36 3.5t-9 11.5v35q0 12 4.5 15t20.5 3h190q10 0 18.5 1t16.5 3q8 0 14.5 1t10.5 1q23 0 18 -20q0 -6 -2 -21.5t-4 -46.5t-4 -80t-2 -125v-151v-142q0 -68 4 -100q4 -47 19.5 -59.5t33.5 -12.5q10 0 30 1t38 6q20 6 25 -9l6 -26q2 -14 -11 -19l-215 -71 q-10 -4 -19 -6.5t-22 -2.5q-6 0 -11 4.5t-7 20.5l-16 119h-4q-23 -31 -55 -56.5t-68.5 -45t-76.5 -31t-79 -11.5q-43 0 -92 14.5t-101 80.5q-31 41 -47 76.5t-23 79.5t-8 102.5t-1 142.5v238q-2 43 -22.5 58t-55.5 19q-27 2 -36 4.5t-9 10.5zM406 1016q-6 6 0 12l196 244 q16 20 36.5 35.5t49.5 15.5q20 0 37.5 -13.5t24 -33t-1 -44t-37.5 -44.5l-269 -193q-6 -6 -12 0z" />
<glyph unicode="&#xfb;" horiz-adv-x="1036" d="M31 801v37q0 16 22 16h183q10 0 16 1t12 3q6 0 12.5 1t10.5 1q27 0 22 -24q-2 -14 -5 -79t-3 -157v-145q0 -31 -2 -70t0 -80t12.5 -82t34.5 -76q39 -55 81 -66t83 -11q20 0 45 9t49.5 23.5t46 33t35.5 36.5q6 8 13.5 24.5t7.5 30.5v488q-4 43 -27 55t-62 16 q-27 0 -36 3.5t-9 11.5v35q0 12 4.5 15t20.5 3h190q10 0 18.5 1t16.5 3q8 0 14.5 1t10.5 1q23 0 18 -20q0 -6 -2 -21.5t-4 -46.5t-4 -80t-2 -125v-151v-142q0 -68 4 -100q4 -47 19.5 -59.5t33.5 -12.5q10 0 30 1t38 6q20 6 25 -9l6 -26q2 -14 -11 -19l-215 -71 q-10 -4 -19 -6.5t-22 -2.5q-6 0 -11 4.5t-7 20.5l-16 119h-4q-23 -31 -55 -56.5t-68.5 -45t-76.5 -31t-79 -11.5q-43 0 -92 14.5t-101 80.5q-31 41 -47 76.5t-23 79.5t-8 102.5t-1 142.5v238q-2 43 -22.5 58t-55.5 19q-27 2 -36 4.5t-9 10.5zM268 1018q-8 6 6 20l215 269 l13 12q6 6 12 6t13.5 -6t13.5 -14l225 -269q10 -10 4 -16l-16 -19q-6 -10 -19 -2l-223 158l-207 -156q-12 -8 -18 -2z" />
<glyph unicode="&#xfc;" horiz-adv-x="1036" d="M31 801v37q0 16 22 16h183q10 0 16 1t12 3q6 0 12.5 1t10.5 1q27 0 22 -24q-2 -14 -5 -79t-3 -157v-145q0 -31 -2 -70t0 -80t12.5 -82t34.5 -76q39 -55 81 -66t83 -11q20 0 45 9t49.5 23.5t46 33t35.5 36.5q6 8 13.5 24.5t7.5 30.5v488q0 43 -25 56t-64 15q-27 2 -36 4.5 t-9 10.5v35q0 12 4.5 15t20.5 3h190q10 0 18.5 1t16.5 3q8 0 14.5 1t10.5 1q23 0 18 -20q0 -6 -2 -21.5t-4 -46.5t-4 -80t-2 -125v-151v-142q0 -68 4 -100q4 -47 19.5 -59.5t33.5 -12.5q10 0 30 1t38 6q20 6 25 -9l6 -26q2 -14 -11 -19l-215 -71q-10 -4 -19 -6.5t-22 -2.5 q-6 0 -11 4.5t-7 20.5l-16 119h-4q-23 -31 -55 -56.5t-68.5 -45t-76.5 -31t-79 -11.5q-43 0 -92 14.5t-101 80.5q-31 41 -47 76.5t-23 79.5t-8 102.5t-1 142.5v238q0 43 -21.5 58t-56.5 19q-27 4 -36 5.5t-9 9.5zM248 1212q0 10 5 25.5t16.5 31t32 26t50.5 10.5 q35 0 63.5 -27t28.5 -74q0 -41 -27.5 -65.5t-64.5 -24.5q-14 0 -31.5 4t-34 15.5t-27.5 30.5t-11 48zM594 1212q0 10 5 25.5t17.5 31t33 26t50.5 10.5q35 0 63 -27t28 -74q0 -41 -28 -65.5t-63 -24.5q-14 0 -32.5 4t-35 15.5t-27.5 30.5t-11 48z" />
<glyph unicode="&#xfd;" horiz-adv-x="892" d="M-16 805v41q0 14 16 14q14 0 55 -3t133 -3q78 0 126 3t65 3q12 0 15 -4t3 -10v-43q0 -16 -12 -17h-39q-33 0 -27 -45q2 -12 13.5 -53t28 -97t37 -119.5t38 -120t31.5 -98.5t20 -52h9q4 8 21.5 45t40 89t47 112.5t46 113.5t38 94t18.5 54q10 39 -1.5 58t-33.5 19h-33 q-14 0 -14 17v41q0 16 12 16q20 0 57 -3t111 -3q41 0 74.5 3t50.5 3q10 0 11 -5t1 -11v-39q0 -18 -10 -19h-33q-16 0 -35.5 -8t-36.5 -28q-16 -20 -49 -86t-76 -159t-93 -208t-103 -236q-76 -172 -132.5 -303t-84.5 -182q-10 -20 -23.5 -44t-34 -43t-48 -32.5t-68.5 -13.5 q-59 0 -88 28.5t-29 75.5q0 33 28.5 56.5t65.5 23.5q29 0 54.5 -9t39.5 -13q27 -4 43 12q12 14 35 59t48.5 99.5t48 108t32.5 83.5q-2 12 -20.5 68.5t-44 134.5t-55 167t-56.5 166t-45 132t-22 65q-18 39 -37 62.5t-60 23.5h-53q-16 1 -16 19zM457 1016q-6 6 0 12l196 244 q16 20 37 35.5t49 15.5q20 0 38 -13.5t24 -33t-1 -44t-38 -44.5l-268 -193q-6 -6 -13 0z" />
<glyph unicode="&#xfe;" horiz-adv-x="1050" d="M29 -508q0 8 4 12t20 4h70q29 0 40 11.5t15 42.5q4 35 4 120v236v389q0 131 -1 237.5t-1 190.5t-1 150.5t-1 120.5q0 63 -6 104t-18.5 65.5t-27.5 37t-32 16.5l-35 10q-12 4 -12 16v15q0 8 14 14l205 98q10 4 24.5 10.5t22.5 6.5q18 0 19 -41l-2 -621h4q20 27 50 52.5 t66.5 45t80.5 32t92 12.5q72 0 130 -19.5t117 -87.5q20 -23 39 -43t33 -53t23.5 -83t9.5 -130q0 -109 -34 -198t-92 -153.5t-137 -100.5t-171 -36q-41 0 -102.5 8.5t-108.5 30.5v-446q0 -59 51 -60h84q12 0 15 -5t3 -15v-33q0 -18 -18 -18q-8 0 -64.5 3t-146.5 3 q-98 0 -146.5 -3t-60.5 -3q-18 0 -18 18v37zM330 209q0 -35 9 -66.5t34 -46.5q35 -20 83 -37.5t122 -17.5q41 0 84 17.5t77.5 58.5t56 105.5t21.5 160.5q0 84 -16.5 157.5t-49 128t-83 85t-119.5 30.5q-66 0 -124 -35.5t-95 -99.5v-440z" />
<glyph unicode="&#xff;" horiz-adv-x="892" d="M-16 805v41q0 14 16 14q14 0 55 -3t133 -3q78 0 126 3t65 3q12 0 15 -4t3 -10v-43q0 -16 -12 -17h-39q-33 0 -27 -45q2 -12 13.5 -53t28 -97t37 -119.5t38 -120t31.5 -98.5t20 -52h9q4 8 21.5 45t40 89t47 112.5t46 113.5t38 94t18.5 54q10 39 -1.5 58t-33.5 19h-33 q-14 0 -14 17v41q0 16 12 16q20 0 57 -3t111 -3q41 0 74.5 3t50.5 3q10 0 11 -5t1 -11v-39q0 -18 -10 -19h-33q-16 0 -35.5 -8t-36.5 -28q-16 -20 -49 -86t-76 -159t-93 -208t-103 -236q-76 -172 -132.5 -303t-84.5 -182q-10 -20 -23.5 -44t-34 -43t-48 -32.5t-68.5 -13.5 q-59 0 -88 28.5t-29 75.5q0 33 28.5 56.5t65.5 23.5q29 0 54.5 -9t39.5 -13q27 -4 43 12q12 14 35 59t48.5 99.5t48 108t32.5 83.5q-2 12 -20.5 68.5t-44 134.5t-54 167t-55 166t-46 132t-23.5 65q-16 39 -36 62.5t-61 23.5h-53q-16 1 -16 19zM217 1212q0 10 5 25.5t16.5 31 t32 26t51.5 10.5q35 0 63.5 -27t28.5 -74q0 -41 -28 -65.5t-64 -24.5q-14 0 -32 4t-34 15.5t-27.5 30.5t-11.5 48zM563 1212q0 10 5 25.5t17.5 31t33 26t51.5 10.5q35 0 62.5 -27t27.5 -74q0 -41 -27.5 -65.5t-62.5 -24.5q-14 0 -33 4t-35 15.5t-27.5 30.5t-11.5 48z" />
<glyph unicode="&#x152;" horiz-adv-x="2291" d="M98 743q0 35 6.5 86.5t22.5 113t48 129t85 132.5q49 63 116.5 114.5t144.5 87.5t159 55.5t164 19.5q74 0 135 -5.5t113 -9.5q51 -6 92 -11t73 -5h664q20 0 37.5 1t30.5 3q12 2 20 3t12 1q12 0 17 -10q2 -12 18.5 -62.5t33.5 -107.5t32.5 -105.5t17.5 -56.5q6 -14 -6 -18 l-25 -15q-16 -6 -20 4q-2 2 -27.5 35t-58.5 74t-65.5 79t-49.5 50q-37 29 -72.5 40t-58.5 11l-395 6v-598q6 0 46 1t87 3.5t88 4.5t51 4q45 8 62.5 25.5t29.5 64.5q4 16 9.5 43.5t7.5 56.5q0 16 18 14l45 -4q18 0 17 -14q-2 -12 -3 -46t-2 -72t-1 -70v-45q0 -27 1 -57.5 t3 -60.5t4 -54.5t4 -40.5t-17 -17l-40 -6q-14 -2 -17 12q-4 25 -12 55.5t-12 47.5q-8 33 -26.5 54.5t-59.5 25.5q-37 4 -81 6t-84 3t-73 1h-45v-127q0 -41 1 -95.5t1 -105.5t1 -93t1 -56q0 -88 24.5 -120t75.5 -42q14 -4 37 -6t47.5 -3t47 -2t38.5 -1h39q27 0 56.5 1t57.5 2 t46 3q41 2 83 18.5t77 50.5q8 8 31.5 37t50 62.5t50 66.5t34.5 51q12 20 30 9l25 -15q8 -4 12 -7t0 -13l-112 -309q-10 -31 -35 -31q-8 0 -47 1t-131 3q-92 0 -247 1t-394 1q-51 0 -98.5 -5t-94.5 -9q-47 -6 -98 -11.5t-111 -5.5q-49 0 -106.5 5.5t-119 20.5t-121.5 40.5 t-116 66.5q-55 43 -108 102.5t-96 137.5t-69 177t-26 224zM307 776q0 -207 58.5 -347t145.5 -225t186.5 -122t179.5 -37q139 0 208.5 43t98.5 115v1024q-27 49 -67 82.5t-84 53t-88 29t-77 9.5h-51q-39 0 -91 -8.5t-110.5 -30t-109.5 -66.5q-199 -180 -199 -520z" />
<glyph unicode="&#x153;" horiz-adv-x="1556" d="M72 432q0 35 7 78t25.5 87t48 86t74.5 79q86 72 163 94.5t142 22.5q201 0 328 -164q47 66 125 115t195 49q98 0 157.5 -39t92 -90.5t43 -101.5t10.5 -73q0 -20 -11.5 -25t-29.5 -5h-522q-2 -12 -4.5 -37t-2.5 -55q0 -76 22.5 -141.5t61.5 -115t92.5 -77t114.5 -27.5 q51 0 91 13.5t71 34t52.5 44t33.5 45.5q10 18 25 13l20 -13q8 -4 0 -28q-14 -35 -42 -74t-67.5 -73t-93 -56.5t-116.5 -22.5q-88 0 -175.5 37t-146.5 125q-80 -88 -168 -125t-201 -37q-80 0 -162.5 36t-142.5 108q-57 68 -83.5 151.5t-26.5 161.5zM240 455q2 -119 19 -182.5 t52 -114.5q47 -66 100.5 -93.5t106.5 -27.5q45 0 90 20.5t82 66.5t59.5 118.5t22.5 175.5q0 117 -24.5 193.5t-61.5 122.5t-80 64.5t-80 18.5q-41 0 -82 -13t-92 -56q-59 -49 -85.5 -128t-26.5 -165zM932 606h319q51 0 52 31q0 18 -5.5 49t-21.5 60.5t-48 50t-85 20.5 q-61 0 -120.5 -48t-90.5 -163z" />
<glyph unicode="&#x178;" horiz-adv-x="1361" d="M-31 1391v53q0 12 15 12q14 0 79.5 -3t159.5 -3q80 0 134.5 1t90 2t54 2t26.5 1q14 0 15 -10v-51q0 -18 -15 -19h-67q-47 0 -57.5 -15t-4.5 -52q2 -8 21.5 -47t50.5 -95.5t67.5 -123t71.5 -130t63.5 -117t45.5 -81.5q18 29 53 81t75 113.5t82 127t77.5 119.5t58 92 t25.5 48q2 12 4 26.5t-3.5 27t-20.5 19.5t-48 7h-55q-14 0 -15 19v49q0 12 15 12q16 0 76.5 -3t164.5 -3q92 0 131 3t54 3q16 0 16 -12v-49q0 -18 -16 -19h-52q-23 0 -48 -10t-52 -35q-10 -10 -45 -56t-82 -112.5t-101.5 -144.5t-105.5 -150.5t-92 -131t-59 -87.5v-268 q0 -31 1 -68t2 -71.5t3 -61t2 -35.5q4 -49 26.5 -60t63.5 -11h80q10 0 12 -4t2 -11v-47q0 -10 -2 -14t-12 -4q-18 0 -83 3t-194 3q-70 0 -116.5 -1t-78.5 -2t-49.5 -2t-25.5 -1q-12 0 -12 16v49q0 14 14 15h100q41 0 55.5 14t16.5 37q0 10 1 45t2 85t2 114.5t1 136.5v119 q-6 12 -36.5 65t-72.5 125t-91.5 154t-94.5 155.5t-80.5 129t-50.5 73.5q-20 23 -51 36t-55 13h-51q-15 1 -15 15zM440 1712q0 8 5.5 23.5t17.5 31t32.5 25.5t51.5 10q35 0 62.5 -25.5t27.5 -72.5q0 -41 -27.5 -66.5t-62.5 -25.5q-14 0 -32.5 4t-35 15t-28 30.5t-11.5 50.5z M848 1712q0 8 5 23.5t17.5 31t33 25.5t50.5 10q35 0 64 -25.5t29 -72.5q0 -41 -28 -66.5t-65 -25.5q-14 0 -32.5 4t-35 15t-27.5 30.5t-11 50.5z" />
<glyph unicode="&#x2c6;" horiz-adv-x="628" d="M63 1018q-8 6 7 20l215 269l12 12q6 6 12 6t13.5 -6t13.5 -14l225 -269q10 -10 4 -16l-16 -19q-6 -10 -19 -2l-223 158l-207 -156q-12 -8 -18 -2z" />
<glyph unicode="&#x2dc;" horiz-adv-x="698" d="M63 1047q14 82 58.5 126t99.5 44q47 0 85 -10.5t67 -20.5q39 -12 70.5 -20.5t68.5 -8.5q35 0 48 22.5t20 51.5q2 12 14 12h35q6 0 8 -7t-2 -30q-12 -59 -51 -107t-107 -48q-43 0 -80 12t-69 22q-66 23 -127 23q-25 0 -48.5 -21.5t-31.5 -64.5q-2 -10 -15 -10h-36 q-15 0 -7 35z" />
<glyph unicode="&#x2000;" horiz-adv-x="948" />
<glyph unicode="&#x2001;" horiz-adv-x="1896" />
<glyph unicode="&#x2002;" horiz-adv-x="948" />
<glyph unicode="&#x2003;" horiz-adv-x="1896" />
<glyph unicode="&#x2004;" horiz-adv-x="630" />
<glyph unicode="&#x2005;" horiz-adv-x="473" />
<glyph unicode="&#x2006;" horiz-adv-x="315" />
<glyph unicode="&#x2007;" horiz-adv-x="315" />
<glyph unicode="&#x2008;" horiz-adv-x="235" />
<glyph unicode="&#x2009;" horiz-adv-x="378" />
<glyph unicode="&#x200a;" horiz-adv-x="104" />
<glyph unicode="&#x2010;" horiz-adv-x="827" d="M106 498v90q0 14 19 14h573q23 0 23 -22v-78q0 -14 -25 -15h-571q-19 -1 -19 11z" />
<glyph unicode="&#x2011;" horiz-adv-x="827" d="M106 498v90q0 14 19 14h573q23 0 23 -22v-78q0 -14 -25 -15h-571q-19 -1 -19 11z" />
<glyph unicode="&#x2012;" horiz-adv-x="827" d="M106 498v90q0 14 19 14h573q23 0 23 -22v-78q0 -14 -25 -15h-571q-19 -1 -19 11z" />
<glyph unicode="&#x2013;" d="M0 487v115h1024v-115h-1024z" />
<glyph unicode="&#x2014;" horiz-adv-x="2048" d="M0 487v115h2048v-115h-2048z" />
<glyph unicode="&#x2018;" horiz-adv-x="389" d="M59 1118q0 74 29 133.5t65.5 104.5t71.5 72.5t49 35.5q8 4 17.5 10.5t19.5 6.5q20 0 21 -17q0 -8 -2 -12t-15 -14q-16 -16 -38.5 -40t-42 -53.5t-34 -65.5t-14.5 -73q0 -20 10.5 -36.5t20.5 -20.5q6 -4 23.5 -10t36 -18.5t32 -35t13.5 -55.5q0 -35 -27 -61.5t-76 -26.5 q-25 0 -52.5 11.5t-51 34t-40 55t-16.5 75.5z" />
<glyph unicode="&#x2019;" horiz-adv-x="389" d="M59 958q0 8 2 12.5t15 14.5q16 14 38.5 39t42 54.5t34 65.5t14.5 73q0 20 -10.5 36.5t-20.5 20.5q-6 2 -23.5 9t-36 19.5t-31.5 34t-13 56.5t26.5 61.5t75.5 26.5q25 0 52.5 -11.5t51 -34t40 -55t16.5 -75.5q0 -72 -29 -132.5t-65.5 -104.5t-71.5 -72.5t-49 -37.5 q-8 -4 -16.5 -10t-20.5 -6q-21 0 -21 16z" />
<glyph unicode="&#x201a;" horiz-adv-x="389" d="M59 -291q0 8 2 12.5t13 14.5q16 14 38.5 37.5t43 54.5t35 65.5t14.5 71.5q0 20 -10.5 36.5t-20.5 21.5q-6 2 -23.5 9t-36 20.5t-31.5 35t-13 55.5q0 35 26.5 60.5t75.5 25.5q25 0 52.5 -11t51 -33.5t40 -55.5t16.5 -76q0 -72 -29 -131t-65.5 -104t-71.5 -73t-49 -36 q-8 -4 -17.5 -10t-21.5 -6q-19 0 -19 16z" />
<glyph unicode="&#x201c;" horiz-adv-x="737" d="M63 1118q0 74 29 133.5t66 104.5t71.5 72.5t49.5 35.5q8 4 17 10.5t19 6.5q20 0 21 -17q0 -8 -2 -12t-15 -14q-16 -16 -38.5 -40t-42 -53.5t-34 -65.5t-14.5 -73q0 -20 10.5 -36.5t20.5 -20.5q6 -4 23.5 -10t36 -18.5t32 -35t13.5 -55.5q0 -35 -27 -61.5t-76 -26.5 q-25 0 -52.5 11.5t-51 34t-40 55t-16.5 75.5zM399 1118q0 74 29 133.5t65.5 104.5t71.5 72.5t49 35.5q8 4 17.5 10.5t21.5 6.5q20 0 21 -17q0 -8 -2 -12t-15 -14q-16 -16 -38.5 -40t-43 -53.5t-35 -65.5t-14.5 -73q0 -20 10.5 -36.5t20.5 -20.5q6 -4 23.5 -10t36 -18.5 t33 -35t14.5 -55.5q0 -35 -28 -61.5t-77 -26.5q-23 0 -50.5 11.5t-52 34t-41 55t-16.5 75.5z" />
<glyph unicode="&#x201d;" horiz-adv-x="737" d="M61 958q0 8 2.5 12.5t14.5 14.5q16 14 38.5 39t42 54.5t34 65.5t14.5 73q0 20 -10.5 36.5t-20.5 20.5q-6 2 -23.5 9t-36 19.5t-31.5 34t-13 56.5t26.5 61.5t75.5 26.5q25 0 52.5 -11.5t51 -34t40 -55t16.5 -75.5q0 -72 -29 -132.5t-65.5 -104.5t-71.5 -72.5t-49 -37.5 q-8 -4 -16.5 -10t-20.5 -6q-21 0 -21 16zM401 958q0 8 2.5 12.5t14.5 14.5q16 14 38.5 39t42 54.5t34 65.5t14.5 73q0 20 -10.5 36.5t-20.5 20.5q-6 2 -23.5 9t-35 19.5t-31.5 34t-14 56.5t27.5 61.5t74.5 26.5q25 0 52.5 -11.5t52 -34t41 -55t16.5 -75.5q0 -72 -29 -132.5 t-65.5 -104.5t-71.5 -72.5t-49 -37.5q-8 -4 -17.5 -10t-21.5 -6q-21 0 -21 16z" />
<glyph unicode="&#x201e;" horiz-adv-x="737" d="M61 -291q0 8 2.5 12.5t14.5 14.5q16 14 38.5 37.5t42 54.5t34 65.5t14.5 71.5q0 20 -10.5 36.5t-20.5 21.5q-6 2 -23.5 9t-36 20.5t-31.5 35t-13 55.5q0 35 26.5 60.5t75.5 25.5q25 0 52.5 -11t51 -33.5t40 -55.5t16.5 -76q0 -72 -29 -131t-65.5 -104t-71.5 -73t-49 -36 q-8 -4 -16.5 -10t-20.5 -6q-21 0 -21 16zM401 -291q0 8 2.5 12.5t14.5 14.5q16 14 38.5 37.5t42 54.5t34 65.5t14.5 71.5q0 20 -10.5 36.5t-20.5 21.5q-6 2 -23.5 9t-35 20.5t-31.5 35t-14 55.5q0 35 27.5 60.5t74.5 25.5q25 0 52.5 -11t52 -33.5t41 -55.5t16.5 -76 q0 -72 -29 -131t-65.5 -104t-71.5 -73t-49 -36q-8 -4 -17.5 -10t-21.5 -6q-21 0 -21 16z" />
<glyph unicode="&#x2022;" horiz-adv-x="696" d="M104 737q0 104 68 173t172 69q109 0 178.5 -64.5t69.5 -177.5q0 -104 -69.5 -166.5t-174.5 -62.5q-47 0 -90 17.5t-78 48t-55.5 72.5t-20.5 91z" />
<glyph unicode="&#x2026;" horiz-adv-x="2048" d="M219 96q0 12 6 31.5t20.5 38t39 32t61.5 13.5q47 0 83 -33t36 -90q0 -51 -35 -82t-84 -31q-16 0 -37.5 5.5t-42 19.5t-34 36.5t-13.5 59.5zM903 96q0 12 5 31.5t19.5 38t39 32t63.5 13.5q47 0 82 -33t35 -90q0 -51 -34 -82t-83 -31q-16 0 -38.5 5.5t-42 19.5t-33 36.5 t-13.5 59.5zM1585 96q0 12 6 31.5t20.5 38t40 32t64.5 13.5q43 0 79 -33t36 -90q0 -51 -34 -82t-81 -31q-16 0 -38.5 5.5t-43 19.5t-35 36.5t-14.5 59.5z" />
<glyph unicode="&#x202f;" horiz-adv-x="378" />
<glyph unicode="&#x2039;" horiz-adv-x="520" d="M53 434q0 4 10 15l318 317q8 8 12 8t10 -6l29 -29q6 -6 6 -10q0 -6 -8 -14l-186 -281l188 -282q6 -10 6 -15q0 -4 -6 -10l-31 -29q-4 -4 -8 -4q-2 0 -14 8l-318 320q-8 8 -8 12z" />
<glyph unicode="&#x203a;" horiz-adv-x="520" d="M82 137q0 6 8 15l186 282l-188 281q-6 8 -6 14q0 4 6 10l29 31q4 4 8 4t14 -10l320 -318q8 -8 8 -12t-10 -14l-320 -318q-8 -8 -12 -8t-10 6l-27 27q-6 6 -6 10z" />
<glyph unicode="&#x205f;" horiz-adv-x="473" />
<glyph unicode="&#x20ac;" d="M27 537l18 47q4 12 21 12h110q-4 25 -4 48v46v34q0 17 2 38h-123q-20 0 -16 14l16 47q4 12 21 13h112q14 98 49 198.5t91.5 181t135.5 132t179 51.5q80 0 128 -35t81 -68q23 -27 37 11l14 39q4 12 27 12q14 0 17 -5t3 -28q0 -14 2 -54t5 -86t7.5 -89t6.5 -64q2 -10 1 -15 t-16 -9l-16 -7q-10 -4 -14 0.5t-9 16.5q-18 55 -38.5 110.5t-51 98.5t-74.5 70.5t-112 27.5q-70 0 -121 -40t-86 -107.5t-54.5 -155.5t-23.5 -186h500q20 0 16 -13l-18 -49q-4 -12 -27 -12h-473v-74v-31q0 -10 1 -17t2 -16.5t1 -27.5h424q20 0 17 -12l-19 -49 q-4 -12 -26 -13h-390q8 -100 29 -186t56.5 -149.5t88 -99.5t121.5 -36q61 0 106.5 24.5t77 64.5t53 90.5t36.5 103.5q4 12 9 14t9 0l31 -8q6 -2 6 -21q-2 -23 -6 -64.5t-7 -85.5t-5 -83t-2 -53q0 -23 -4.5 -28t-18.5 -5q-20 0 -25 12l-24 58q-4 10 -13.5 14t-21.5 -10 q-8 -10 -27.5 -27.5t-48 -34t-64.5 -30t-77 -13.5q-111 0 -190.5 47t-135 125t-87 177.5t-44.5 203.5h-139q-20 1 -16 15z" />
<glyph unicode="&#x2122;" horiz-adv-x="1859" d="M10 1284q4 14 10.5 43t13.5 57.5t12 52t5 27.5q2 16 12 17q4 0 5.5 -1t5.5 -3l14 -9q16 -10 27.5 -13t34.5 -5q49 -2 101 -4t118 -2q59 0 124.5 2t112.5 4q18 2 30.5 4t27.5 10l20 13q8 4 10 4q8 0 11 -17q0 -4 3 -27.5t7 -52t7 -58.5t7 -46q0 -8 -6 -10l-16 -6 q-14 -2 -17 10q-8 16 -28.5 50t-47.5 48q-16 8 -42.5 11t-55.5 5.5t-52 2.5h-32v-209v-66v-50v-99v-100v-52q4 -20 11.5 -30.5t25.5 -10.5h55q10 0 11 -12v-39q0 -8 -11 -8h-22q-18 0 -42 1t-47 1h-38h-42q-26 0 -50.5 -1t-42.5 -1h-25q-12 0 -12 10v37q0 12 10 12h57 q33 0 37 23q0 12 1 64t1 113v111v58v82v166h-23q-19 0 -44 -1t-51.5 -4.5t-45.5 -9.5q-35 -12 -57 -44t-37 -56q-2 -14 -18 -8l-19 8q-6 0 -4 8zM764 727v33q0 14 8 14h25q27 0 45 16.5t22 43.5q4 29 7 81t4.5 106t2.5 98t1 55v163q0 57 -58 58h-33q-6 0 -6 10v37q0 12 9 12 q2 0 18 -1t36.5 -1t41 -1t33.5 -1q33 0 59.5 1t48.5 3q16 0 25.5 -2t13.5 -18l203 -508l223 510q4 10 12 13t25 3h100q39 0 62.5 1t32.5 1h14q8 0 8 -10v-35q0 -14 -8 -14h-21q-31 0 -38 -12.5t-7 -30.5q0 -6 -1 -46t-1 -87.5t-1 -88t-1 -49.5q0 -8 1 -46t1 -81t1 -79.5 t1 -45.5q0 -25 9.5 -40t25.5 -15h49q8 0 8 -12v-35q0 -12 -10 -12h-23q-17 0 -39 1t-45 1h-40h-41q-25 0 -47.5 -1t-40.5 -1h-23q-10 0 -10 12v33q0 14 10 14h41q25 0 34 10.5t13 26.5q0 6 1 45t1 83v83v45v311h-6l-278 -622q-4 -8 -11.5 -16.5t-15.5 -8.5q-14 0 -21 19 l-253 626h-13v-276q0 -6 -1 -41t-1 -77v-81q0 -39 2 -53q4 -43 22.5 -58.5t47.5 -15.5h24q8 0 9 -14v-33q0 -12 -11 -12h-23q-17 0 -38 1t-40 1h-30h-33q-22 0 -43.5 -1t-37.5 -1h-21q-10 0 -10 12z" />
<glyph unicode="&#xe000;" horiz-adv-x="860" d="M0 860h860v-860h-860v860z" />
<glyph unicode="&#xfb01;" horiz-adv-x="1120" d="M51 8v45q0 14 21 15h106q23 0 31 16t10 55v385v232h-137q-18 0 -14 20l8 64q2 14 24 14h119v35q0 152 44 251t110 171q84 92 188.5 131t181.5 39q43 0 80 -12.5t64.5 -32t44 -46t16.5 -53.5q2 -51 -29.5 -75.5t-66.5 -24.5t-63.5 19.5t-61.5 60.5q-20 29 -44 45t-60 16 q-41 0 -82 -17.5t-74 -53.5q-37 -39 -56.5 -89.5t-29.5 -104.5t-12 -110.5t-2 -107.5v-41h297q59 0 115.5 9t109.5 22q14 4 22.5 6t18.5 2q16 0 12 -25q-4 -27 -5 -118t-1 -230v-223v-110q0 -50 2 -66q0 -29 8 -41t31 -12h88q18 0 18 -19v-37q0 -18 -16 -18q-12 0 -55 3 t-142 3q-92 0 -138 -3t-62 -3t-17 16v41q0 16 21 17h82q16 0 23 9t9 38v180v307q0 45 -6 75t-24.5 47t-52 24.5t-89.5 7.5h-249v-183v-169v-139q0 -60 1 -98t3 -46q0 -23 6 -38t31 -15h92q20 0 20 -17v-37q0 -20 -12 -20q-10 0 -58.5 3t-148.5 3q-104 0 -162.5 -3t-70.5 -3 q-17 0 -17 14z" />
<glyph unicode="&#xfb02;" horiz-adv-x="1116" d="M51 8v45q0 14 21 15h102q27 0 35 15t10 48v393v232h-137q-18 0 -14 20l8 64q2 14 24 14h119v35q0 154 37 255t94 173q72 90 164 127t182 37q68 0 132.5 -16.5t93.5 -32.5q18 -10 18 -43q-2 -16 -2 -58.5t-1 -99.5t-1 -123v-126v-112v-77v-183v-111v-144q0 -73 1 -134 t1 -82q4 -47 14.5 -59t32.5 -12h96q16 0 20.5 -4.5t4.5 -14.5v-35q0 -20 -14 -20q-10 0 -67.5 3t-162.5 3q-100 0 -148 -3t-63 -3q-14 0 -14 20v35q0 10 5 14.5t22 4.5h79q23 0 32 14t11 31q0 27 1 97.5t1 154.5v163v125v103h-421v-183v-169v-140q0 -61 1 -100t1 -51 q2 -20 10 -32.5t31 -12.5h100q20 0 20 -17v-33q0 -25 -14 -24q-8 0 -61.5 3t-153.5 3q-111 0 -166 -3t-67 -3q-17 0 -17 14zM367 854h421v75q0 36 -1 75.5t-2 85t-3 104.5q-4 92 -44 138t-111 46q-57 0 -100.5 -16t-80.5 -55q-33 -35 -49 -84t-23 -104.5t-7 -113.5v-110v-41 z" />
<glyph unicode="&#xfb03;" horiz-adv-x="1689" d="M51 8v45q0 14 21 15h98q29 0 38 18t11 53v385v232h-137q-18 0 -14 22l8 62q2 14 24 14h119v39q0 123 39 220t98 165q82 90 165 126t167 36q78 0 149.5 -30t112.5 -91q37 45 83 75.5t95.5 50t97.5 28t87 8.5q43 0 80 -11.5t64.5 -31t44 -45t16.5 -52.5q2 -51 -30 -75.5 t-67 -24.5t-63.5 19.5t-61.5 60.5q-20 29 -43.5 45t-60.5 16q-41 0 -82 -17t-74 -54q-37 -39 -56 -89.5t-29.5 -104.5t-12.5 -111.5t-2 -110.5v-41h297q59 0 115.5 9t109.5 22q14 4 22.5 6t18.5 2q16 0 12 -25q-4 -27 -5 -118t-1 -230v-223v-110q0 -50 2 -66q0 -29 8.5 -41 t30.5 -12h88q18 0 19 -19v-35q0 -20 -17 -20q-12 0 -55 3t-141 3q-92 0 -138.5 -3t-62.5 -3t-16 16v41q0 16 20 17h82q16 0 23.5 9t9.5 38v180v295q0 49 -6 82t-24.5 51t-52.5 25.5t-89 7.5h-250v-183v-169v-139q0 -60 1 -98t3 -46q0 -23 6 -38t31 -15h92q20 0 21 -17v-33 q0 -25 -13 -24q-10 0 -60 3t-161 3q-25 0 -55.5 -1t-58 -2t-48 -2t-26.5 -1q-16 0 -17 14v45q0 14 21 15h67q29 0 38 18t11 53v385v232h-421v-183v-169v-139q0 -60 1 -98t1 -46q4 -27 12 -40t41 -13h55q23 0 23 -17v-33q0 -25 -15 -24q-10 0 -61 3t-123 3q-43 0 -82 -1 t-70.5 -2t-53 -2t-27.5 -1q-17 0 -17 14zM367 854h421v39q0 121 25 204t66 134l-2 4q-53 -4 -97.5 18.5t-66.5 53.5q-29 37 -107 36q-47 0 -90 -14t-78 -57q-29 -37 -43 -85t-20 -99.5t-7 -96.5t-1 -76v-61z" />
<glyph unicode="&#xfb04;" horiz-adv-x="1685" d="M51 8v45q0 14 21 15h98q29 0 38 18t11 53v385v232h-133q-18 0 -16 26l6 58q2 14 24 14h119v39q0 123 39 220t98 165q82 90 165 126t167 36q74 0 143.5 -29t104.5 -86q72 90 158 123t172 33q68 0 132 -14.5t93 -30.5q16 -8 17 -17.5t1 -25.5q-2 -16 -2 -58.5t-1 -99.5 t-1 -123v-127v-113v-79v-183v-111v-144q0 -73 1 -134t1 -82q4 -47 14.5 -59t32.5 -12h97q16 0 20 -4.5t4 -14.5v-35q0 -20 -14 -20q-10 0 -67.5 3t-161.5 3q-100 0 -148.5 -3t-62.5 -3t-15 20v35q0 10 5.5 14.5t21.5 4.5h80q23 0 32 14t11 31q0 27 1 97.5t1 154.5v163v125 v103h-422v-183v-169v-139q0 -60 1 -98t1 -46q4 -27 12 -40t41 -13h86q23 0 23 -17v-33q0 -25 -15 -24q-10 0 -64 3t-151 3q-31 0 -63.5 -1t-62 -2t-50 -2t-26.5 -1q-16 0 -17 14v45q0 14 21 15h67q29 0 38 18t11 53v385v232h-421v-183v-169v-139q0 -60 1 -98t1 -46 q4 -27 12 -40t41 -13h55q23 0 23 -17v-33q0 -25 -15 -24q-10 0 -61 3t-123 3q-43 0 -82 -1t-70.5 -2t-53 -2t-27.5 -1q-17 0 -17 14zM367 854h421v39q0 121 24 207t60 139l-2 4q-47 -6 -91 14.5t-66 49.5q-29 37 -107 36q-47 0 -90 -14t-78 -57q-29 -37 -43 -85t-20 -99.5 t-7 -96.5t-1 -76v-61zM936 854h422v78q0 37 -1 76t-2 82t-3 98q-4 90 -44 142t-112 52q-57 0 -100 -16t-80 -55q-33 -35 -49.5 -84t-23.5 -104.5t-7 -114.5v-113v-41z" />
</font>
</defs>
</svg>
